G04 DipTrace 3.3.1.3*
G04 Bottom.gbr*
%MOIN*%
G04 #@! TF.FileFunction,Copper,L2,Bot*
G04 #@! TF.Part,Single*
G04 #@! TA.AperFunction,Conductor*
%ADD12C,0.02*%
G04 #@! TA.AperFunction,CopperBalancing*
%ADD13C,0.025*%
%ADD14C,0.013*%
G04 #@! TA.AperFunction,ComponentPad*
%ADD16C,0.15*%
%ADD17R,0.066929X0.066929*%
%ADD18C,0.066929*%
G04 #@! TA.AperFunction,ViaPad*
%ADD19C,0.04*%
%FSLAX26Y26*%
G04*
G70*
G90*
G75*
G01*
G04 Bottom*
%LPD*%
X1895213Y1032705D2*
D12*
Y938759D1*
X1976464Y857508D1*
X3188964D1*
X3395213Y651259D1*
X3663962D1*
X3670213Y645008D1*
X2545213Y1032705D2*
X3170016D1*
X3407713Y795008D1*
X3720213D1*
X3770213Y745008D1*
D19*
X1895213Y1032705D3*
X2545213D3*
X479161Y3863890D2*
D13*
X3898373D1*
X4042065D2*
X4111525D1*
X479304Y3839022D2*
X3867190D1*
X4073249D2*
X4111561D1*
X479448Y3814153D2*
X3848709D1*
X4091729D2*
X4111633D1*
X479556Y3789284D2*
X3627268D1*
X3713151D2*
X3727277D1*
X3813161D2*
X3837406D1*
X4103033D2*
X4111678D1*
X479699Y3764415D2*
X536564D1*
X653844D2*
X3610977D1*
X479842Y3739546D2*
X498993D1*
X691452D2*
X3607998D1*
X712515Y3714678D2*
X3616001D1*
X3824428D2*
X3833455D1*
X725541Y3689809D2*
X3627842D1*
X3712577D2*
X3727851D1*
X3812586D2*
X3841640D1*
X4098798D2*
X4111848D1*
X732826Y3664940D2*
X3611157D1*
X3829272D2*
X3855779D1*
X4084661D2*
X4111884D1*
X735338Y3640071D2*
X3607962D1*
X3832466D2*
X3878672D1*
X4061766D2*
X4111920D1*
X733329Y3615203D2*
X3615678D1*
X3824751D2*
X3921985D1*
X4018453D2*
X4111991D1*
X726546Y3590334D2*
X3628452D1*
X3711966D2*
X3728461D1*
X3811976D2*
X4112028D1*
X714201Y3565465D2*
X3611335D1*
X3829092D2*
X4112064D1*
X480919Y3540596D2*
X496229D1*
X694179D2*
X3607927D1*
X3832502D2*
X4112099D1*
X481027Y3515728D2*
X531037D1*
X659407D2*
X3615390D1*
X3825037D2*
X4112171D1*
X481170Y3490859D2*
X3629062D1*
X3711356D2*
X3729071D1*
X3811367D2*
X4112207D1*
X481314Y3465990D2*
X3611550D1*
X3828877D2*
X4112243D1*
X481457Y3441121D2*
X3607890D1*
X3832537D2*
X4112279D1*
X481565Y3416252D2*
X3615103D1*
X3825325D2*
X4112351D1*
X481708Y3391384D2*
X3629708D1*
X3710710D2*
X3729682D1*
X3810720D2*
X4112386D1*
X481852Y3366515D2*
X3611730D1*
X3828699D2*
X4112422D1*
X481995Y3341646D2*
X3607855D1*
X3832574D2*
X4112459D1*
X482103Y3316777D2*
X3614817D1*
X3825612D2*
X4112529D1*
X482246Y3291909D2*
X3630354D1*
X3710065D2*
X3730363D1*
X3810074D2*
X4112566D1*
X482390Y3267040D2*
X3611945D1*
X3828482D2*
X4112602D1*
X482533Y3242171D2*
X3607819D1*
X3832609D2*
X4112637D1*
X482641Y3217302D2*
X3614529D1*
X3825899D2*
X4112709D1*
X482785Y3192434D2*
X3631001D1*
X3709419D2*
X3731010D1*
X3809393D2*
X4112745D1*
X482928Y3167565D2*
X3612161D1*
X3828267D2*
X4112781D1*
X483071Y3142696D2*
X3607783D1*
X3832645D2*
X4112817D1*
X483179Y3117827D2*
X3614277D1*
X3826150D2*
X4112889D1*
X483323Y3092959D2*
X3631717D1*
X3708737D2*
X3731691D1*
X3808710D2*
X4112924D1*
X483466Y3068090D2*
X3612376D1*
X3828052D2*
X4112961D1*
X483611Y3043221D2*
X3607783D1*
X3832645D2*
X4112997D1*
X483718Y3018352D2*
X3613991D1*
X3826438D2*
X4113069D1*
X483861Y2993483D2*
X3632399D1*
X3708020D2*
X3732409D1*
X3808029D2*
X4113104D1*
X484004Y2968615D2*
X3612591D1*
X3827836D2*
X4113140D1*
X484112Y2943746D2*
X3607747D1*
X3832682D2*
X4113176D1*
X484256Y2918877D2*
X3613739D1*
X3826688D2*
X4113247D1*
X484399Y2894008D2*
X3633153D1*
X3707266D2*
X3733162D1*
X3807275D2*
X4113284D1*
X484543Y2869140D2*
X3612806D1*
X3827621D2*
X4113319D1*
X484650Y2844271D2*
X3607747D1*
X3832682D2*
X4113355D1*
X484794Y2819402D2*
X3613489D1*
X3826940D2*
X4113392D1*
X484938Y2794533D2*
X3633906D1*
X3706512D2*
X3733915D1*
X3806522D2*
X4113462D1*
X485082Y2769665D2*
X3613058D1*
X3827371D2*
X4113499D1*
X485190Y2744796D2*
X3607747D1*
X3832682D2*
X4113535D1*
X485333Y2719927D2*
X3613237D1*
X3827191D2*
X4113570D1*
X485476Y2695058D2*
X3634553D1*
X3705902D2*
X3734525D1*
X3805876D2*
X4113642D1*
X485620Y2670190D2*
X3613309D1*
X3827119D2*
X4113678D1*
X485728Y2645321D2*
X3607747D1*
X3832682D2*
X4113714D1*
X485871Y2620452D2*
X3613022D1*
X3827406D2*
X4113750D1*
X486015Y2595583D2*
X3633763D1*
X3706655D2*
X3733772D1*
X3806665D2*
X4113822D1*
X486158Y2570714D2*
X3613524D1*
X3826903D2*
X4113857D1*
X486266Y2545846D2*
X3607747D1*
X3832682D2*
X4113893D1*
X486409Y2520977D2*
X3612771D1*
X3827658D2*
X4113930D1*
X486553Y2496108D2*
X3633010D1*
X3707410D2*
X3733019D1*
X3807419D2*
X4114001D1*
X486696Y2471239D2*
X3613776D1*
X3826653D2*
X4114037D1*
X486804Y2446371D2*
X3607747D1*
X3832645D2*
X4114073D1*
X486947Y2421502D2*
X3612556D1*
X3827873D2*
X4114109D1*
X487091Y2396633D2*
X3632292D1*
X3708163D2*
X3732266D1*
X3808137D2*
X4114180D1*
X487199Y2371764D2*
X3614062D1*
X3826365D2*
X4114217D1*
X487342Y2346896D2*
X3607783D1*
X3832645D2*
X4114252D1*
X487486Y2322027D2*
X3612340D1*
X3828088D2*
X4114288D1*
X487629Y2297158D2*
X3631574D1*
X3708844D2*
X3731583D1*
X3808854D2*
X4114360D1*
X487737Y2272289D2*
X3614314D1*
X3826115D2*
X4114396D1*
X487880Y2247420D2*
X3607783D1*
X3832645D2*
X4114432D1*
X488024Y2222552D2*
X3612125D1*
X3828304D2*
X4114468D1*
X488167Y2197683D2*
X3630893D1*
X3709527D2*
X3730902D1*
X3809536D2*
X4114540D1*
X488275Y2172814D2*
X3614602D1*
X3825827D2*
X4114575D1*
X488419Y2147945D2*
X3607819D1*
X3832609D2*
X4114611D1*
X488562Y2123077D2*
X3611910D1*
X3828519D2*
X4114648D1*
X488705Y2098208D2*
X3630210D1*
X3710208D2*
X3730220D1*
X3810218D2*
X4114718D1*
X488813Y2073339D2*
X3614852D1*
X3825577D2*
X4114755D1*
X488957Y2048470D2*
X3607855D1*
X3832574D2*
X4114791D1*
X489100Y2023602D2*
X3611695D1*
X3828734D2*
X4114826D1*
X489243Y1998733D2*
X3629565D1*
X3710855D2*
X3729574D1*
X3810864D2*
X4114898D1*
X489352Y1973864D2*
X3615140D1*
X3825289D2*
X4114934D1*
X489495Y1948995D2*
X3607890D1*
X3832537D2*
X4114970D1*
X489638Y1924127D2*
X3611515D1*
X3828914D2*
X4115006D1*
X489783Y1899258D2*
X3628955D1*
X3711465D2*
X3728964D1*
X3811474D2*
X4115078D1*
X489890Y1874389D2*
X3615426D1*
X3825002D2*
X4115113D1*
X490033Y1849520D2*
X3607927D1*
X3832502D2*
X4115149D1*
X490176Y1824651D2*
X3611300D1*
X3829129D2*
X4115186D1*
X490284Y1799783D2*
X3628344D1*
X3712074D2*
X3728354D1*
X3812083D2*
X4115258D1*
X490428Y1774914D2*
X3615750D1*
X3824679D2*
X4115293D1*
X490571Y1750045D2*
X3607962D1*
X3832466D2*
X4115329D1*
X490716Y1725176D2*
X3611120D1*
X3829308D2*
X4115365D1*
X490823Y1700308D2*
X3627734D1*
X3712684D2*
X3727743D1*
X3812693D2*
X4115436D1*
X490966Y1675439D2*
X3616036D1*
X3824392D2*
X4115473D1*
X491109Y1650570D2*
X3607998D1*
X3832430D2*
X4115508D1*
X491254Y1625701D2*
X3610940D1*
X3829487D2*
X4115544D1*
X491361Y1600833D2*
X3627161D1*
X3713259D2*
X3727170D1*
X3813268D2*
X4115616D1*
X491504Y1575964D2*
X3616359D1*
X3824069D2*
X4115651D1*
X491649Y1551095D2*
X3608070D1*
X3832359D2*
X4115688D1*
X491792Y1526226D2*
X3610762D1*
X3829667D2*
X4115724D1*
X491899Y1501357D2*
X3626586D1*
X3713833D2*
X3726595D1*
X3813842D2*
X4115796D1*
X492043Y1476489D2*
X3616682D1*
X3823746D2*
X4115831D1*
X492187Y1451620D2*
X3608106D1*
X3832322D2*
X4115867D1*
X492330Y1426751D2*
X3610582D1*
X3829847D2*
X4115903D1*
X492438Y1401882D2*
X3626048D1*
X3714371D2*
X3726057D1*
X3814380D2*
X4115974D1*
X492581Y1377014D2*
X3617006D1*
X3823423D2*
X4116011D1*
X492725Y1352145D2*
X3608178D1*
X3832251D2*
X4116046D1*
X492868Y1327276D2*
X3610439D1*
X3829990D2*
X4116082D1*
X492976Y1302407D2*
X3625510D1*
X3714910D2*
X3725525D1*
X3814919D2*
X4116154D1*
X493120Y1277539D2*
X3617329D1*
X3823100D2*
X4116190D1*
X493263Y1252670D2*
X3608250D1*
X3832179D2*
X4116226D1*
X493371Y1227801D2*
X3610259D1*
X3830170D2*
X4116262D1*
X493514Y1202932D2*
X3625007D1*
X3715448D2*
X3724994D1*
X3815420D2*
X4116334D1*
X493658Y1178064D2*
X3617687D1*
X3822741D2*
X4116369D1*
X493801Y1153195D2*
X3608321D1*
X3832107D2*
X4116406D1*
X493909Y1128326D2*
X3610116D1*
X3830313D2*
X4116441D1*
X494053Y1103457D2*
X3624469D1*
X3715949D2*
X3724498D1*
X3815960D2*
X4116514D1*
X494196Y1078588D2*
X1885162D1*
X1905270D2*
X2535169D1*
X2555276D2*
X3618046D1*
X3822382D2*
X4116549D1*
X494339Y1053720D2*
X1851216D1*
X1939180D2*
X2501222D1*
X3203129D2*
X3608393D1*
X3832036D2*
X4116585D1*
X494447Y1028851D2*
X1846372D1*
X1944061D2*
X2496378D1*
X3227997D2*
X3609972D1*
X3830456D2*
X4116621D1*
X494591Y1003982D2*
X1856132D1*
X1934264D2*
X2506138D1*
X3252864D2*
X3623966D1*
X3716452D2*
X3723981D1*
X3816461D2*
X4116657D1*
X494734Y979113D2*
X1856204D1*
X1934229D2*
X3169494D1*
X3277733D2*
X3618405D1*
X3822024D2*
X4116729D1*
X494877Y954245D2*
X1856204D1*
X1934229D2*
X3194361D1*
X3302600D2*
X3608465D1*
X3831964D2*
X4116764D1*
X494985Y929376D2*
X1857424D1*
X1958701D2*
X3219229D1*
X3327468D2*
X3609829D1*
X3830600D2*
X4116800D1*
X495129Y904507D2*
X1875330D1*
X1983569D2*
X3244096D1*
X3352335D2*
X3623501D1*
X3816928D2*
X4116836D1*
X495272Y879638D2*
X1900199D1*
X3220964D2*
X3268965D1*
X3377203D2*
X3618763D1*
X3821665D2*
X4116907D1*
X495417Y854770D2*
X518657D1*
X671751D2*
X1925102D1*
X3245831D2*
X3293833D1*
X3402071D2*
X3608536D1*
X3831892D2*
X4116944D1*
X700854Y829901D2*
X1950077D1*
X3270699D2*
X3318700D1*
X3830743D2*
X4116980D1*
X718329Y805032D2*
X3187327D1*
X3295566D2*
X3343567D1*
X3817394D2*
X4117015D1*
X728986Y780163D2*
X1837473D1*
X1952960D2*
X2162476D1*
X2277962D2*
X2487478D1*
X2602966D2*
X3212196D1*
X3320435D2*
X3368435D1*
X3821306D2*
X4117087D1*
X734333Y755294D2*
X1811062D1*
X1979371D2*
X2136065D1*
X2304373D2*
X2461067D1*
X2629377D2*
X3237064D1*
X3345302D2*
X3608644D1*
X3831784D2*
X4117123D1*
X735087Y730426D2*
X1797606D1*
X1992827D2*
X2122608D1*
X2317830D2*
X2447575D1*
X2642834D2*
X3261931D1*
X3370170D2*
X3609541D1*
X3830888D2*
X3943121D1*
X3997318D2*
X4117159D1*
X731283Y705557D2*
X1791756D1*
X1998676D2*
X2116759D1*
X2323679D2*
X2441762D1*
X2648646D2*
X3286798D1*
X3395037D2*
X3622567D1*
X3817861D2*
X3885742D1*
X4054696D2*
X4117195D1*
X722491Y680688D2*
X1792222D1*
X1998210D2*
X2117226D1*
X2323213D2*
X2442229D1*
X2648180D2*
X3311667D1*
X3832682D2*
X3860012D1*
X4080426D2*
X4117267D1*
X707564Y655819D2*
X1799077D1*
X1991356D2*
X2124079D1*
X2316359D2*
X2449083D1*
X2641326D2*
X3336535D1*
X3832682D2*
X3844216D1*
X4096179D2*
X4117302D1*
X496600Y630951D2*
X507174D1*
X683270D2*
X1813968D1*
X1976428D2*
X2138972D1*
X2301431D2*
X2463974D1*
X2626435D2*
X3361402D1*
X4105581D2*
X4117338D1*
X496743Y606082D2*
X556120D1*
X634288D2*
X1843788D1*
X1946645D2*
X2168791D1*
X2271648D2*
X2493794D1*
X2596650D2*
X3622100D1*
X4109886D2*
X4117401D1*
X496888Y581213D2*
X3830767D1*
X4109636D2*
X4117409D1*
X496995Y556344D2*
X3835612D1*
X4104791D2*
X4117482D1*
X497138Y531476D2*
X3845624D1*
X4094815D2*
X4117518D1*
X497281Y506607D2*
X3862238D1*
X4078201D2*
X4117554D1*
X497426Y481738D2*
X3889545D1*
X4050893D2*
X4117625D1*
X497533Y456869D2*
X4117662D1*
X2321696Y693171D2*
X2321115Y684007D1*
X2319708Y674932D1*
X2317486Y666022D1*
X2314468Y657348D1*
X2310678Y648983D1*
X2306149Y640995D1*
X2300915Y633449D1*
X2295020Y626407D1*
X2288514Y619927D1*
X2281448Y614061D1*
X2273881Y608857D1*
X2265876Y604360D1*
X2257495Y600603D1*
X2248810Y597620D1*
X2239892Y595434D1*
X2230810Y594064D1*
X2221644Y593519D1*
X2212465Y593805D1*
X2203350Y594919D1*
X2194372Y596854D1*
X2185607Y599590D1*
X2177124Y603108D1*
X2168994Y607380D1*
X2161284Y612367D1*
X2154056Y618032D1*
X2147369Y624326D1*
X2141279Y631199D1*
X2135835Y638595D1*
X2131081Y646452D1*
X2127057Y654707D1*
X2123796Y663291D1*
X2121323Y672136D1*
X2119662Y681167D1*
X2118822Y690312D1*
X2118813Y699495D1*
X2119633Y708641D1*
X2121276Y717676D1*
X2123730Y726525D1*
X2126974Y735117D1*
X2130981Y743380D1*
X2135718Y751247D1*
X2141146Y758654D1*
X2147222Y765540D1*
X2153896Y771848D1*
X2161112Y777527D1*
X2168813Y782531D1*
X2176934Y786818D1*
X2185409Y790355D1*
X2194169Y793109D1*
X2203142Y795062D1*
X2212255Y796196D1*
X2221434Y796501D1*
X2230602Y795976D1*
X2239684Y794624D1*
X2248608Y792456D1*
X2257300Y789490D1*
X2265687Y785751D1*
X2273703Y781271D1*
X2281280Y776083D1*
X2288357Y770231D1*
X2294878Y763764D1*
X2300787Y756734D1*
X2306036Y749200D1*
X2310583Y741221D1*
X2314389Y732864D1*
X2317426Y724197D1*
X2319666Y715292D1*
X2321092Y706220D1*
X2321692Y697056D1*
X2321696Y693171D1*
X2646401Y687045D2*
X2645464Y679130D1*
X2643909Y671314D1*
X2641746Y663644D1*
X2638987Y656166D1*
X2635650Y648928D1*
X2631756Y641974D1*
X2627329Y635348D1*
X2622394Y629090D1*
X2616985Y623237D1*
X2611132Y617827D1*
X2604873Y612893D1*
X2598247Y608465D1*
X2591293Y604571D1*
X2584056Y601234D1*
X2576578Y598476D1*
X2568907Y596313D1*
X2561091Y594758D1*
X2553176Y593821D1*
X2545213Y593508D1*
X2537250Y593821D1*
X2529335Y594758D1*
X2521519Y596313D1*
X2513848Y598476D1*
X2506371Y601234D1*
X2499133Y604571D1*
X2492179Y608465D1*
X2485553Y612893D1*
X2479294Y617827D1*
X2473441Y623237D1*
X2468032Y629090D1*
X2463098Y635348D1*
X2458670Y641974D1*
X2454776Y648928D1*
X2451439Y656166D1*
X2448680Y663644D1*
X2446518Y671314D1*
X2444962Y679130D1*
X2444025Y687045D1*
X2443713Y695008D1*
X2444025Y702972D1*
X2444962Y710886D1*
X2446518Y718703D1*
X2448680Y726373D1*
X2451439Y733851D1*
X2454776Y741088D1*
X2458670Y748043D1*
X2463098Y754669D1*
X2468032Y760927D1*
X2473441Y766780D1*
X2479294Y772190D1*
X2485553Y777124D1*
X2492179Y781552D1*
X2499133Y785445D1*
X2506371Y788783D1*
X2513848Y791541D1*
X2521519Y793704D1*
X2529335Y795259D1*
X2537250Y796196D1*
X2545213Y796508D1*
X2553176Y796196D1*
X2561091Y795259D1*
X2568907Y793704D1*
X2576578Y791541D1*
X2584056Y788783D1*
X2591293Y785445D1*
X2598247Y781552D1*
X2604873Y777124D1*
X2611132Y772190D1*
X2616985Y766780D1*
X2622394Y760927D1*
X2627329Y754669D1*
X2631756Y748043D1*
X2635650Y741088D1*
X2638987Y733851D1*
X2641746Y726373D1*
X2643909Y718703D1*
X2645464Y710886D1*
X2646401Y702972D1*
X2646713Y695008D1*
X2646401Y687045D1*
X1996401D2*
X1995464Y679130D1*
X1993909Y671314D1*
X1991746Y663644D1*
X1988987Y656166D1*
X1985650Y648928D1*
X1981756Y641974D1*
X1977329Y635348D1*
X1972394Y629090D1*
X1966985Y623237D1*
X1961132Y617827D1*
X1954873Y612893D1*
X1948247Y608465D1*
X1941293Y604571D1*
X1934056Y601234D1*
X1926578Y598476D1*
X1918907Y596313D1*
X1911091Y594758D1*
X1903176Y593821D1*
X1895213Y593508D1*
X1887250Y593821D1*
X1879335Y594758D1*
X1871519Y596313D1*
X1863848Y598476D1*
X1856371Y601234D1*
X1849133Y604571D1*
X1842179Y608465D1*
X1835553Y612893D1*
X1829294Y617827D1*
X1823441Y623237D1*
X1818032Y629090D1*
X1813098Y635348D1*
X1808670Y641974D1*
X1804776Y648928D1*
X1801439Y656166D1*
X1798680Y663644D1*
X1796518Y671314D1*
X1794962Y679130D1*
X1794025Y687045D1*
X1793713Y695008D1*
X1794025Y702972D1*
X1794962Y710886D1*
X1796518Y718703D1*
X1798680Y726373D1*
X1801439Y733851D1*
X1804776Y741088D1*
X1808670Y748043D1*
X1813098Y754669D1*
X1818032Y760927D1*
X1823441Y766780D1*
X1829294Y772190D1*
X1835553Y777124D1*
X1842179Y781552D1*
X1849133Y785445D1*
X1856371Y788783D1*
X1863848Y791541D1*
X1871519Y793704D1*
X1879335Y795259D1*
X1887250Y796196D1*
X1895213Y796508D1*
X1903176Y796196D1*
X1911091Y795259D1*
X1918907Y793704D1*
X1926578Y791541D1*
X1934056Y788783D1*
X1941293Y785445D1*
X1948247Y781552D1*
X1954873Y777124D1*
X1961132Y772190D1*
X1966985Y766780D1*
X1972394Y760927D1*
X1977329Y754669D1*
X1981756Y748043D1*
X1985650Y741088D1*
X1988987Y733851D1*
X1991746Y726373D1*
X1993909Y718703D1*
X1995464Y710886D1*
X1996401Y702972D1*
X1996713Y695008D1*
X1996401Y687045D1*
X3814851Y704973D2*
X3830178D1*
Y585044D1*
X3710249D1*
Y600367D1*
X3705460Y596497D1*
X3697436Y591579D1*
X3688743Y587978D1*
X3679594Y585783D1*
X3670213Y585044D1*
X3660833Y585783D1*
X3651683Y587978D1*
X3642990Y591579D1*
X3634966Y596497D1*
X3627812Y602607D1*
X3621701Y609762D1*
X3618483Y614752D1*
X3392350Y614871D1*
X3386692Y615767D1*
X3381245Y617537D1*
X3376142Y620137D1*
X3371508Y623503D1*
X3336924Y657927D1*
X3173847Y821006D1*
X1973599Y821121D1*
X1967943Y822016D1*
X1962495Y823787D1*
X1957392Y826386D1*
X1952758Y829754D1*
X1918175Y864178D1*
X1867459Y915053D1*
X1864092Y919687D1*
X1861491Y924791D1*
X1859721Y930238D1*
X1858826Y935894D1*
X1858713Y984691D1*
Y1003888D1*
X1855565Y1008409D1*
X1852252Y1014910D1*
X1849998Y1021850D1*
X1848856Y1029057D1*
Y1036354D1*
X1849998Y1043561D1*
X1852252Y1050501D1*
X1855565Y1057002D1*
X1859855Y1062905D1*
X1865014Y1068064D1*
X1870917Y1072354D1*
X1877418Y1075666D1*
X1884357Y1077920D1*
X1891565Y1079062D1*
X1898861D1*
X1906069Y1077920D1*
X1913008Y1075666D1*
X1919510Y1072354D1*
X1925413Y1068064D1*
X1930571Y1062905D1*
X1934861Y1057002D1*
X1938174Y1050501D1*
X1940428Y1043561D1*
X1941570Y1036354D1*
Y1029057D1*
X1940428Y1021850D1*
X1938174Y1014910D1*
X1934861Y1008409D1*
X1931710Y1003951D1*
X1931713Y953868D1*
X1991587Y894003D1*
X3191827Y893896D1*
X3197483Y893001D1*
X3202931Y891230D1*
X3208035Y888630D1*
X3212669Y885263D1*
X3247251Y850839D1*
X3410330Y687760D1*
X3628137Y687759D1*
X3634966Y693520D1*
X3637154Y694982D1*
X3631270Y699411D1*
X3624616Y706065D1*
X3619085Y713676D1*
X3614813Y722061D1*
X3611906Y731010D1*
X3610434Y740304D1*
Y749713D1*
X3611809Y758520D1*
X3404850Y758621D1*
X3399192Y759516D1*
X3393745Y761287D1*
X3388642Y763886D1*
X3384008Y767254D1*
X3349424Y801678D1*
X3154882Y996220D1*
X2574016Y996205D1*
X2569510Y993057D1*
X2563008Y989745D1*
X2556069Y987490D1*
X2548861Y986348D1*
X2541565D1*
X2534357Y987490D1*
X2527418Y989745D1*
X2520917Y993057D1*
X2515014Y997347D1*
X2509855Y1002506D1*
X2505565Y1008409D1*
X2502252Y1014910D1*
X2499998Y1021850D1*
X2498856Y1029057D1*
Y1036354D1*
X2499998Y1043561D1*
X2502252Y1050501D1*
X2505565Y1057002D1*
X2509855Y1062905D1*
X2515014Y1068064D1*
X2520917Y1072354D1*
X2527418Y1075666D1*
X2534357Y1077920D1*
X2541565Y1079062D1*
X2548861D1*
X2556069Y1077920D1*
X2563008Y1075666D1*
X2569510Y1072354D1*
X2573968Y1069203D1*
X3172880Y1069092D1*
X3178537Y1068197D1*
X3183985Y1066427D1*
X3189087Y1063827D1*
X3193721Y1060460D1*
X3228305Y1026036D1*
X3422847Y831494D1*
X3611787Y831508D1*
X3610434Y840304D1*
Y849713D1*
X3611906Y859007D1*
X3614813Y867956D1*
X3619085Y876340D1*
X3624616Y883952D1*
X3631270Y890606D1*
X3637154Y894982D1*
X3631270Y899411D1*
X3624616Y906065D1*
X3619085Y913676D1*
X3614813Y922061D1*
X3611906Y931010D1*
X3610434Y940304D1*
Y949713D1*
X3611906Y959007D1*
X3614813Y967956D1*
X3619085Y976340D1*
X3624616Y983952D1*
X3631270Y990606D1*
X3637154Y994982D1*
X3631270Y999411D1*
X3624616Y1006065D1*
X3619085Y1013676D1*
X3614813Y1022061D1*
X3611906Y1031010D1*
X3610434Y1040304D1*
Y1049713D1*
X3611906Y1059007D1*
X3614813Y1067956D1*
X3619085Y1076340D1*
X3624616Y1083952D1*
X3631270Y1090606D1*
X3637154Y1094982D1*
X3631270Y1099411D1*
X3624616Y1106065D1*
X3619085Y1113676D1*
X3614813Y1122061D1*
X3611906Y1131010D1*
X3610434Y1140304D1*
Y1149713D1*
X3611906Y1159007D1*
X3614813Y1167956D1*
X3619085Y1176340D1*
X3624616Y1183952D1*
X3631270Y1190606D1*
X3637154Y1194982D1*
X3631270Y1199411D1*
X3624616Y1206065D1*
X3619085Y1213676D1*
X3614813Y1222061D1*
X3611906Y1231010D1*
X3610434Y1240304D1*
Y1249713D1*
X3611906Y1259007D1*
X3614813Y1267956D1*
X3619085Y1276340D1*
X3624616Y1283952D1*
X3631270Y1290606D1*
X3637154Y1294982D1*
X3631270Y1299411D1*
X3624616Y1306065D1*
X3619085Y1313676D1*
X3614813Y1322061D1*
X3611906Y1331010D1*
X3610434Y1340304D1*
Y1349713D1*
X3611906Y1359007D1*
X3614813Y1367956D1*
X3619085Y1376340D1*
X3624616Y1383952D1*
X3631270Y1390606D1*
X3637154Y1394982D1*
X3631270Y1399411D1*
X3624616Y1406065D1*
X3619085Y1413676D1*
X3614813Y1422061D1*
X3611906Y1431010D1*
X3610434Y1440304D1*
Y1449713D1*
X3611906Y1459007D1*
X3614813Y1467956D1*
X3619085Y1476340D1*
X3624616Y1483952D1*
X3631270Y1490606D1*
X3637154Y1494982D1*
X3631270Y1499411D1*
X3624616Y1506065D1*
X3619085Y1513676D1*
X3614813Y1522061D1*
X3611906Y1531010D1*
X3610434Y1540304D1*
Y1549713D1*
X3611906Y1559007D1*
X3614813Y1567956D1*
X3619085Y1576340D1*
X3624616Y1583952D1*
X3631270Y1590606D1*
X3637154Y1594982D1*
X3631270Y1599411D1*
X3624616Y1606065D1*
X3619085Y1613676D1*
X3614813Y1622061D1*
X3611906Y1631010D1*
X3610434Y1640304D1*
Y1649713D1*
X3611906Y1659007D1*
X3614813Y1667956D1*
X3619085Y1676340D1*
X3624616Y1683952D1*
X3631270Y1690606D1*
X3637154Y1694982D1*
X3631270Y1699411D1*
X3624616Y1706065D1*
X3619085Y1713676D1*
X3614813Y1722061D1*
X3611906Y1731010D1*
X3610434Y1740304D1*
Y1749713D1*
X3611906Y1759007D1*
X3614813Y1767956D1*
X3619085Y1776340D1*
X3624616Y1783952D1*
X3631270Y1790606D1*
X3637154Y1794982D1*
X3631270Y1799411D1*
X3624616Y1806065D1*
X3619085Y1813676D1*
X3614813Y1822061D1*
X3611906Y1831010D1*
X3610434Y1840304D1*
Y1849713D1*
X3611906Y1859007D1*
X3614813Y1867956D1*
X3619085Y1876340D1*
X3624616Y1883952D1*
X3631270Y1890606D1*
X3637154Y1894982D1*
X3631270Y1899411D1*
X3624616Y1906065D1*
X3619085Y1913676D1*
X3614813Y1922061D1*
X3611906Y1931010D1*
X3610434Y1940304D1*
Y1949713D1*
X3611906Y1959007D1*
X3614813Y1967956D1*
X3619085Y1976340D1*
X3624616Y1983952D1*
X3631270Y1990606D1*
X3637154Y1994982D1*
X3631270Y1999411D1*
X3624616Y2006065D1*
X3619085Y2013676D1*
X3614813Y2022061D1*
X3611906Y2031010D1*
X3610434Y2040304D1*
Y2049713D1*
X3611906Y2059007D1*
X3614813Y2067956D1*
X3619085Y2076340D1*
X3624616Y2083952D1*
X3631270Y2090606D1*
X3637154Y2094982D1*
X3631270Y2099411D1*
X3624616Y2106065D1*
X3619085Y2113676D1*
X3614813Y2122061D1*
X3611906Y2131010D1*
X3610434Y2140304D1*
Y2149713D1*
X3611906Y2159007D1*
X3614813Y2167956D1*
X3619085Y2176340D1*
X3624616Y2183952D1*
X3631270Y2190606D1*
X3637154Y2194982D1*
X3631270Y2199411D1*
X3624616Y2206065D1*
X3619085Y2213676D1*
X3614813Y2222061D1*
X3611906Y2231010D1*
X3610434Y2240304D1*
Y2249713D1*
X3611906Y2259007D1*
X3614813Y2267956D1*
X3619085Y2276340D1*
X3624616Y2283952D1*
X3631270Y2290606D1*
X3637154Y2294982D1*
X3631270Y2299411D1*
X3624616Y2306065D1*
X3619085Y2313676D1*
X3614813Y2322061D1*
X3611906Y2331010D1*
X3610434Y2340304D1*
Y2349713D1*
X3611906Y2359007D1*
X3614813Y2367956D1*
X3619085Y2376340D1*
X3624616Y2383952D1*
X3631270Y2390606D1*
X3637154Y2394982D1*
X3631270Y2399411D1*
X3624616Y2406065D1*
X3619085Y2413676D1*
X3614813Y2422061D1*
X3611906Y2431010D1*
X3610434Y2440304D1*
Y2449713D1*
X3611906Y2459007D1*
X3614813Y2467956D1*
X3619085Y2476340D1*
X3624616Y2483952D1*
X3631270Y2490606D1*
X3637154Y2494982D1*
X3631270Y2499411D1*
X3624616Y2506065D1*
X3619085Y2513676D1*
X3614813Y2522061D1*
X3611906Y2531010D1*
X3610434Y2540304D1*
Y2549713D1*
X3611906Y2559007D1*
X3614813Y2567956D1*
X3619085Y2576340D1*
X3624616Y2583952D1*
X3631270Y2590606D1*
X3637154Y2594982D1*
X3631270Y2599411D1*
X3624616Y2606065D1*
X3619085Y2613676D1*
X3614813Y2622061D1*
X3611906Y2631010D1*
X3610434Y2640304D1*
Y2649713D1*
X3611906Y2659007D1*
X3614813Y2667956D1*
X3619085Y2676340D1*
X3624616Y2683952D1*
X3631270Y2690606D1*
X3637154Y2694982D1*
X3631270Y2699411D1*
X3624616Y2706065D1*
X3619085Y2713676D1*
X3614813Y2722061D1*
X3611906Y2731010D1*
X3610434Y2740304D1*
Y2749713D1*
X3611906Y2759007D1*
X3614813Y2767956D1*
X3619085Y2776340D1*
X3624616Y2783952D1*
X3631270Y2790606D1*
X3637154Y2794982D1*
X3631270Y2799411D1*
X3624616Y2806065D1*
X3619085Y2813676D1*
X3614813Y2822061D1*
X3611906Y2831010D1*
X3610434Y2840304D1*
Y2849713D1*
X3611906Y2859007D1*
X3614813Y2867956D1*
X3619085Y2876340D1*
X3624616Y2883952D1*
X3631270Y2890606D1*
X3637154Y2894982D1*
X3631270Y2899411D1*
X3624616Y2906065D1*
X3619085Y2913676D1*
X3614813Y2922061D1*
X3611906Y2931010D1*
X3610434Y2940304D1*
Y2949713D1*
X3611906Y2959007D1*
X3614813Y2967956D1*
X3619085Y2976340D1*
X3624616Y2983952D1*
X3631270Y2990606D1*
X3637154Y2994982D1*
X3631270Y2999411D1*
X3624616Y3006065D1*
X3619085Y3013676D1*
X3614813Y3022061D1*
X3611906Y3031010D1*
X3610434Y3040304D1*
Y3049713D1*
X3611906Y3059007D1*
X3614813Y3067956D1*
X3619085Y3076340D1*
X3624616Y3083952D1*
X3631270Y3090606D1*
X3637154Y3094982D1*
X3631270Y3099411D1*
X3624616Y3106065D1*
X3619085Y3113676D1*
X3614813Y3122061D1*
X3611906Y3131010D1*
X3610434Y3140304D1*
Y3149713D1*
X3611906Y3159007D1*
X3614813Y3167956D1*
X3619085Y3176340D1*
X3624616Y3183952D1*
X3631270Y3190606D1*
X3637154Y3194982D1*
X3631270Y3199411D1*
X3624616Y3206065D1*
X3619085Y3213676D1*
X3614813Y3222061D1*
X3611906Y3231010D1*
X3610434Y3240304D1*
Y3249713D1*
X3611906Y3259007D1*
X3614813Y3267956D1*
X3619085Y3276340D1*
X3624616Y3283952D1*
X3631270Y3290606D1*
X3637154Y3294982D1*
X3631270Y3299411D1*
X3624616Y3306065D1*
X3619085Y3313676D1*
X3614813Y3322061D1*
X3611906Y3331010D1*
X3610434Y3340304D1*
Y3349713D1*
X3611906Y3359007D1*
X3614813Y3367956D1*
X3619085Y3376340D1*
X3624616Y3383952D1*
X3631270Y3390606D1*
X3637154Y3394982D1*
X3631270Y3399411D1*
X3624616Y3406065D1*
X3619085Y3413676D1*
X3614813Y3422061D1*
X3611906Y3431010D1*
X3610434Y3440304D1*
Y3449713D1*
X3611906Y3459007D1*
X3614813Y3467956D1*
X3619085Y3476340D1*
X3624616Y3483952D1*
X3631270Y3490606D1*
X3637154Y3494982D1*
X3631270Y3499411D1*
X3624616Y3506065D1*
X3619085Y3513676D1*
X3614813Y3522061D1*
X3611906Y3531010D1*
X3610434Y3540304D1*
Y3549713D1*
X3611906Y3559007D1*
X3614813Y3567956D1*
X3619085Y3576340D1*
X3624616Y3583952D1*
X3631270Y3590606D1*
X3637154Y3594982D1*
X3631270Y3599411D1*
X3624616Y3606065D1*
X3619085Y3613676D1*
X3614813Y3622061D1*
X3611906Y3631010D1*
X3610434Y3640304D1*
Y3649713D1*
X3611906Y3659007D1*
X3614813Y3667956D1*
X3619085Y3676340D1*
X3624616Y3683952D1*
X3631270Y3690606D1*
X3637154Y3694982D1*
X3631270Y3699411D1*
X3624616Y3706065D1*
X3619085Y3713676D1*
X3614813Y3722061D1*
X3611906Y3731010D1*
X3610434Y3740304D1*
Y3749713D1*
X3611906Y3759007D1*
X3614813Y3767956D1*
X3619085Y3776340D1*
X3624616Y3783952D1*
X3631270Y3790606D1*
X3638881Y3796137D1*
X3647266Y3800409D1*
X3656214Y3803315D1*
X3665508Y3804788D1*
X3674918D1*
X3684212Y3803315D1*
X3693161Y3800409D1*
X3701545Y3796137D1*
X3709157Y3790606D1*
X3715810Y3783952D1*
X3720187Y3778067D1*
X3724616Y3783952D1*
X3731270Y3790606D1*
X3738881Y3796137D1*
X3747266Y3800409D1*
X3756214Y3803315D1*
X3765508Y3804788D1*
X3774918D1*
X3784212Y3803315D1*
X3793161Y3800409D1*
X3801545Y3796137D1*
X3809157Y3790606D1*
X3815810Y3783952D1*
X3821342Y3776340D1*
X3825613Y3767956D1*
X3828520Y3759007D1*
X3829993Y3749713D1*
Y3740304D1*
X3828520Y3731010D1*
X3825613Y3722061D1*
X3821342Y3713676D1*
X3815810Y3706065D1*
X3809157Y3699411D1*
X3803272Y3695035D1*
X3809157Y3690606D1*
X3815810Y3683952D1*
X3821342Y3676340D1*
X3825613Y3667956D1*
X3828520Y3659007D1*
X3829993Y3649713D1*
Y3640304D1*
X3828520Y3631010D1*
X3825613Y3622061D1*
X3821342Y3613676D1*
X3815810Y3606065D1*
X3809157Y3599411D1*
X3803272Y3595035D1*
X3809157Y3590606D1*
X3815810Y3583952D1*
X3821342Y3576340D1*
X3825613Y3567956D1*
X3828520Y3559007D1*
X3829993Y3549713D1*
Y3540304D1*
X3828520Y3531010D1*
X3825613Y3522061D1*
X3821342Y3513676D1*
X3815810Y3506065D1*
X3809157Y3499411D1*
X3803272Y3495035D1*
X3809157Y3490606D1*
X3815810Y3483952D1*
X3821342Y3476340D1*
X3825613Y3467956D1*
X3828520Y3459007D1*
X3829993Y3449713D1*
Y3440304D1*
X3828520Y3431010D1*
X3825613Y3422061D1*
X3821342Y3413676D1*
X3815810Y3406065D1*
X3809157Y3399411D1*
X3803272Y3395035D1*
X3809157Y3390606D1*
X3815810Y3383952D1*
X3821342Y3376340D1*
X3825613Y3367956D1*
X3828520Y3359007D1*
X3829993Y3349713D1*
Y3340304D1*
X3828520Y3331010D1*
X3825613Y3322061D1*
X3821342Y3313676D1*
X3815810Y3306065D1*
X3809157Y3299411D1*
X3803272Y3295035D1*
X3809157Y3290606D1*
X3815810Y3283952D1*
X3821342Y3276340D1*
X3825613Y3267956D1*
X3828520Y3259007D1*
X3829993Y3249713D1*
Y3240304D1*
X3828520Y3231010D1*
X3825613Y3222061D1*
X3821342Y3213676D1*
X3815810Y3206065D1*
X3809157Y3199411D1*
X3803272Y3195035D1*
X3809157Y3190606D1*
X3815810Y3183952D1*
X3821342Y3176340D1*
X3825613Y3167956D1*
X3828520Y3159007D1*
X3829993Y3149713D1*
Y3140304D1*
X3828520Y3131010D1*
X3825613Y3122061D1*
X3821342Y3113676D1*
X3815810Y3106065D1*
X3809157Y3099411D1*
X3803272Y3095035D1*
X3809157Y3090606D1*
X3815810Y3083952D1*
X3821342Y3076340D1*
X3825613Y3067956D1*
X3828520Y3059007D1*
X3829993Y3049713D1*
Y3040304D1*
X3828520Y3031010D1*
X3825613Y3022061D1*
X3821342Y3013676D1*
X3815810Y3006065D1*
X3809157Y2999411D1*
X3803272Y2995035D1*
X3809157Y2990606D1*
X3815810Y2983952D1*
X3821342Y2976340D1*
X3825613Y2967956D1*
X3828520Y2959007D1*
X3829993Y2949713D1*
Y2940304D1*
X3828520Y2931010D1*
X3825613Y2922061D1*
X3821342Y2913676D1*
X3815810Y2906065D1*
X3809157Y2899411D1*
X3803272Y2895035D1*
X3809157Y2890606D1*
X3815810Y2883952D1*
X3821342Y2876340D1*
X3825613Y2867956D1*
X3828520Y2859007D1*
X3829993Y2849713D1*
Y2840304D1*
X3828520Y2831010D1*
X3825613Y2822061D1*
X3821342Y2813676D1*
X3815810Y2806065D1*
X3809157Y2799411D1*
X3803272Y2795035D1*
X3809157Y2790606D1*
X3815810Y2783952D1*
X3821342Y2776340D1*
X3825613Y2767956D1*
X3828520Y2759007D1*
X3829993Y2749713D1*
Y2740304D1*
X3828520Y2731010D1*
X3825613Y2722061D1*
X3821342Y2713676D1*
X3815810Y2706065D1*
X3809157Y2699411D1*
X3803272Y2695035D1*
X3809157Y2690606D1*
X3815810Y2683952D1*
X3821342Y2676340D1*
X3825613Y2667956D1*
X3828520Y2659007D1*
X3829993Y2649713D1*
Y2640304D1*
X3828520Y2631010D1*
X3825613Y2622061D1*
X3821342Y2613676D1*
X3815810Y2606065D1*
X3809157Y2599411D1*
X3803272Y2595035D1*
X3809157Y2590606D1*
X3815810Y2583952D1*
X3821342Y2576340D1*
X3825613Y2567956D1*
X3828520Y2559007D1*
X3829993Y2549713D1*
Y2540304D1*
X3828520Y2531010D1*
X3825613Y2522061D1*
X3821342Y2513676D1*
X3815810Y2506065D1*
X3809157Y2499411D1*
X3803272Y2495035D1*
X3809157Y2490606D1*
X3815810Y2483952D1*
X3821342Y2476340D1*
X3825613Y2467956D1*
X3828520Y2459007D1*
X3829993Y2449713D1*
Y2440304D1*
X3828520Y2431010D1*
X3825613Y2422061D1*
X3821342Y2413676D1*
X3815810Y2406065D1*
X3809157Y2399411D1*
X3803272Y2395035D1*
X3809157Y2390606D1*
X3815810Y2383952D1*
X3821342Y2376340D1*
X3825613Y2367956D1*
X3828520Y2359007D1*
X3829993Y2349713D1*
Y2340304D1*
X3828520Y2331010D1*
X3825613Y2322061D1*
X3821342Y2313676D1*
X3815810Y2306065D1*
X3809157Y2299411D1*
X3803272Y2295035D1*
X3809157Y2290606D1*
X3815810Y2283952D1*
X3821342Y2276340D1*
X3825613Y2267956D1*
X3828520Y2259007D1*
X3829993Y2249713D1*
Y2240304D1*
X3828520Y2231010D1*
X3825613Y2222061D1*
X3821342Y2213676D1*
X3815810Y2206065D1*
X3809157Y2199411D1*
X3803272Y2195035D1*
X3809157Y2190606D1*
X3815810Y2183952D1*
X3821342Y2176340D1*
X3825613Y2167956D1*
X3828520Y2159007D1*
X3829993Y2149713D1*
Y2140304D1*
X3828520Y2131010D1*
X3825613Y2122061D1*
X3821342Y2113676D1*
X3815810Y2106065D1*
X3809157Y2099411D1*
X3803272Y2095035D1*
X3809157Y2090606D1*
X3815810Y2083952D1*
X3821342Y2076340D1*
X3825613Y2067956D1*
X3828520Y2059007D1*
X3829993Y2049713D1*
Y2040304D1*
X3828520Y2031010D1*
X3825613Y2022061D1*
X3821342Y2013676D1*
X3815810Y2006065D1*
X3809157Y1999411D1*
X3803272Y1995035D1*
X3809157Y1990606D1*
X3815810Y1983952D1*
X3821342Y1976340D1*
X3825613Y1967956D1*
X3828520Y1959007D1*
X3829993Y1949713D1*
Y1940304D1*
X3828520Y1931010D1*
X3825613Y1922061D1*
X3821342Y1913676D1*
X3815810Y1906065D1*
X3809157Y1899411D1*
X3803272Y1895035D1*
X3809157Y1890606D1*
X3815810Y1883952D1*
X3821342Y1876340D1*
X3825613Y1867956D1*
X3828520Y1859007D1*
X3829993Y1849713D1*
Y1840304D1*
X3828520Y1831010D1*
X3825613Y1822061D1*
X3821342Y1813676D1*
X3815810Y1806065D1*
X3809157Y1799411D1*
X3803272Y1795035D1*
X3809157Y1790606D1*
X3815810Y1783952D1*
X3821342Y1776340D1*
X3825613Y1767956D1*
X3828520Y1759007D1*
X3829993Y1749713D1*
Y1740304D1*
X3828520Y1731010D1*
X3825613Y1722061D1*
X3821342Y1713676D1*
X3815810Y1706065D1*
X3809157Y1699411D1*
X3803272Y1695035D1*
X3809157Y1690606D1*
X3815810Y1683952D1*
X3821342Y1676340D1*
X3825613Y1667956D1*
X3828520Y1659007D1*
X3829993Y1649713D1*
Y1640304D1*
X3828520Y1631010D1*
X3825613Y1622061D1*
X3821342Y1613676D1*
X3815810Y1606065D1*
X3809157Y1599411D1*
X3803272Y1595035D1*
X3809157Y1590606D1*
X3815810Y1583952D1*
X3821342Y1576340D1*
X3825613Y1567956D1*
X3828520Y1559007D1*
X3829993Y1549713D1*
Y1540304D1*
X3828520Y1531010D1*
X3825613Y1522061D1*
X3821342Y1513676D1*
X3815810Y1506065D1*
X3809157Y1499411D1*
X3803272Y1495035D1*
X3809157Y1490606D1*
X3815810Y1483952D1*
X3821342Y1476340D1*
X3825613Y1467956D1*
X3828520Y1459007D1*
X3829993Y1449713D1*
Y1440304D1*
X3828520Y1431010D1*
X3825613Y1422061D1*
X3821342Y1413676D1*
X3815810Y1406065D1*
X3809157Y1399411D1*
X3803272Y1395035D1*
X3809157Y1390606D1*
X3815810Y1383952D1*
X3821342Y1376340D1*
X3825613Y1367956D1*
X3828520Y1359007D1*
X3829993Y1349713D1*
Y1340304D1*
X3828520Y1331010D1*
X3825613Y1322061D1*
X3821342Y1313676D1*
X3815810Y1306065D1*
X3809157Y1299411D1*
X3803272Y1295035D1*
X3809157Y1290606D1*
X3815810Y1283952D1*
X3821342Y1276340D1*
X3825613Y1267956D1*
X3828520Y1259007D1*
X3829993Y1249713D1*
Y1240304D1*
X3828520Y1231010D1*
X3825613Y1222061D1*
X3821342Y1213676D1*
X3815810Y1206065D1*
X3809157Y1199411D1*
X3803272Y1195035D1*
X3809157Y1190606D1*
X3815810Y1183952D1*
X3821342Y1176340D1*
X3825613Y1167956D1*
X3828520Y1159007D1*
X3829993Y1149713D1*
Y1140304D1*
X3828520Y1131010D1*
X3825613Y1122061D1*
X3821342Y1113676D1*
X3815810Y1106065D1*
X3809157Y1099411D1*
X3803272Y1095035D1*
X3809157Y1090606D1*
X3815810Y1083952D1*
X3821342Y1076340D1*
X3825613Y1067956D1*
X3828520Y1059007D1*
X3829993Y1049713D1*
Y1040304D1*
X3828520Y1031010D1*
X3825613Y1022061D1*
X3821342Y1013676D1*
X3815810Y1006065D1*
X3809157Y999411D1*
X3803272Y995035D1*
X3809157Y990606D1*
X3815810Y983952D1*
X3821342Y976340D1*
X3825613Y967956D1*
X3828520Y959007D1*
X3829993Y949713D1*
Y940304D1*
X3828520Y931010D1*
X3825613Y922061D1*
X3821342Y913676D1*
X3815810Y906065D1*
X3809157Y899411D1*
X3803272Y895035D1*
X3809157Y890606D1*
X3815810Y883952D1*
X3821342Y876340D1*
X3825613Y867956D1*
X3828520Y859007D1*
X3829993Y849713D1*
Y840304D1*
X3828520Y831010D1*
X3825613Y822061D1*
X3821342Y813676D1*
X3815810Y806065D1*
X3809157Y799411D1*
X3803272Y795035D1*
X3809157Y790606D1*
X3815810Y783952D1*
X3821342Y776340D1*
X3825613Y767956D1*
X3828520Y759007D1*
X3829993Y749713D1*
Y740304D1*
X3828520Y731010D1*
X3825613Y722061D1*
X3821342Y713676D1*
X3815810Y706065D1*
X3814800Y704970D1*
X3720239Y878067D2*
X3724616Y883952D1*
X3731270Y890606D1*
X3737154Y894982D1*
X3731270Y899411D1*
X3724616Y906065D1*
X3720239Y911949D1*
X3715810Y906065D1*
X3709157Y899411D1*
X3703272Y895035D1*
X3709157Y890606D1*
X3715810Y883952D1*
X3720187Y878067D1*
X3720239Y978067D2*
X3724616Y983952D1*
X3731270Y990606D1*
X3737154Y994982D1*
X3731270Y999411D1*
X3724616Y1006065D1*
X3720239Y1011949D1*
X3715810Y1006065D1*
X3709157Y999411D1*
X3703272Y995035D1*
X3709157Y990606D1*
X3715810Y983952D1*
X3720187Y978067D1*
X3720239Y1078067D2*
X3724616Y1083952D1*
X3731270Y1090606D1*
X3737154Y1094982D1*
X3731270Y1099411D1*
X3724616Y1106065D1*
X3720239Y1111949D1*
X3715810Y1106065D1*
X3709157Y1099411D1*
X3703272Y1095035D1*
X3709157Y1090606D1*
X3715810Y1083952D1*
X3720187Y1078067D1*
X3720239Y1178067D2*
X3724616Y1183952D1*
X3731270Y1190606D1*
X3737154Y1194982D1*
X3731270Y1199411D1*
X3724616Y1206065D1*
X3720239Y1211949D1*
X3715810Y1206065D1*
X3709157Y1199411D1*
X3703272Y1195035D1*
X3709157Y1190606D1*
X3715810Y1183952D1*
X3720187Y1178067D1*
X3720239Y1278067D2*
X3724616Y1283952D1*
X3731270Y1290606D1*
X3737154Y1294982D1*
X3731270Y1299411D1*
X3724616Y1306065D1*
X3720239Y1311949D1*
X3715810Y1306065D1*
X3709157Y1299411D1*
X3703272Y1295035D1*
X3709157Y1290606D1*
X3715810Y1283952D1*
X3720187Y1278067D1*
X3720239Y1378067D2*
X3724616Y1383952D1*
X3731270Y1390606D1*
X3737154Y1394982D1*
X3731270Y1399411D1*
X3724616Y1406065D1*
X3720239Y1411949D1*
X3715810Y1406065D1*
X3709157Y1399411D1*
X3703272Y1395035D1*
X3709157Y1390606D1*
X3715810Y1383952D1*
X3720187Y1378067D1*
X3720239Y1478067D2*
X3724616Y1483952D1*
X3731270Y1490606D1*
X3737154Y1494982D1*
X3731270Y1499411D1*
X3724616Y1506065D1*
X3720239Y1511949D1*
X3715810Y1506065D1*
X3709157Y1499411D1*
X3703272Y1495035D1*
X3709157Y1490606D1*
X3715810Y1483952D1*
X3720187Y1478067D1*
X3720239Y1578067D2*
X3724616Y1583952D1*
X3731270Y1590606D1*
X3737154Y1594982D1*
X3731270Y1599411D1*
X3724616Y1606065D1*
X3720239Y1611949D1*
X3715810Y1606065D1*
X3709157Y1599411D1*
X3703272Y1595035D1*
X3709157Y1590606D1*
X3715810Y1583952D1*
X3720187Y1578067D1*
X3720239Y1678067D2*
X3724616Y1683952D1*
X3731270Y1690606D1*
X3737154Y1694982D1*
X3731270Y1699411D1*
X3724616Y1706065D1*
X3720239Y1711949D1*
X3715810Y1706065D1*
X3709157Y1699411D1*
X3703272Y1695035D1*
X3709157Y1690606D1*
X3715810Y1683952D1*
X3720187Y1678067D1*
X3720239Y1778067D2*
X3724616Y1783952D1*
X3731270Y1790606D1*
X3737154Y1794982D1*
X3731270Y1799411D1*
X3724616Y1806065D1*
X3720239Y1811949D1*
X3715810Y1806065D1*
X3709157Y1799411D1*
X3703272Y1795035D1*
X3709157Y1790606D1*
X3715810Y1783952D1*
X3720187Y1778067D1*
X3720239Y1878067D2*
X3724616Y1883952D1*
X3731270Y1890606D1*
X3737154Y1894982D1*
X3731270Y1899411D1*
X3724616Y1906065D1*
X3720239Y1911949D1*
X3715810Y1906065D1*
X3709157Y1899411D1*
X3703272Y1895035D1*
X3709157Y1890606D1*
X3715810Y1883952D1*
X3720187Y1878067D1*
X3720239Y1978067D2*
X3724616Y1983952D1*
X3731270Y1990606D1*
X3737154Y1994982D1*
X3731270Y1999411D1*
X3724616Y2006065D1*
X3720239Y2011949D1*
X3715810Y2006065D1*
X3709157Y1999411D1*
X3703272Y1995035D1*
X3709157Y1990606D1*
X3715810Y1983952D1*
X3720187Y1978067D1*
X3720239Y2078067D2*
X3724616Y2083952D1*
X3731270Y2090606D1*
X3737154Y2094982D1*
X3731270Y2099411D1*
X3724616Y2106065D1*
X3720239Y2111949D1*
X3715810Y2106065D1*
X3709157Y2099411D1*
X3703272Y2095035D1*
X3709157Y2090606D1*
X3715810Y2083952D1*
X3720187Y2078067D1*
X3720239Y2178067D2*
X3724616Y2183952D1*
X3731270Y2190606D1*
X3737154Y2194982D1*
X3731270Y2199411D1*
X3724616Y2206065D1*
X3720239Y2211949D1*
X3715810Y2206065D1*
X3709157Y2199411D1*
X3703272Y2195035D1*
X3709157Y2190606D1*
X3715810Y2183952D1*
X3720187Y2178067D1*
X3720239Y2278067D2*
X3724616Y2283952D1*
X3731270Y2290606D1*
X3737154Y2294982D1*
X3731270Y2299411D1*
X3724616Y2306065D1*
X3720239Y2311949D1*
X3715810Y2306065D1*
X3709157Y2299411D1*
X3703272Y2295035D1*
X3709157Y2290606D1*
X3715810Y2283952D1*
X3720187Y2278067D1*
X3720239Y2378067D2*
X3724616Y2383952D1*
X3731270Y2390606D1*
X3737154Y2394982D1*
X3731270Y2399411D1*
X3724616Y2406065D1*
X3720239Y2411949D1*
X3715810Y2406065D1*
X3709157Y2399411D1*
X3703272Y2395035D1*
X3709157Y2390606D1*
X3715810Y2383952D1*
X3720187Y2378067D1*
X3720239Y2478067D2*
X3724616Y2483952D1*
X3731270Y2490606D1*
X3737154Y2494982D1*
X3731270Y2499411D1*
X3724616Y2506065D1*
X3720239Y2511949D1*
X3715810Y2506065D1*
X3709157Y2499411D1*
X3703272Y2495035D1*
X3709157Y2490606D1*
X3715810Y2483952D1*
X3720187Y2478067D1*
X3720239Y2578067D2*
X3724616Y2583952D1*
X3731270Y2590606D1*
X3737154Y2594982D1*
X3731270Y2599411D1*
X3724616Y2606065D1*
X3720239Y2611949D1*
X3715810Y2606065D1*
X3709157Y2599411D1*
X3703272Y2595035D1*
X3709157Y2590606D1*
X3715810Y2583952D1*
X3720187Y2578067D1*
X3720239Y2678067D2*
X3724616Y2683952D1*
X3731270Y2690606D1*
X3737154Y2694982D1*
X3731270Y2699411D1*
X3724616Y2706065D1*
X3720239Y2711949D1*
X3715810Y2706065D1*
X3709157Y2699411D1*
X3703272Y2695035D1*
X3709157Y2690606D1*
X3715810Y2683952D1*
X3720187Y2678067D1*
X3720239Y2778067D2*
X3724616Y2783952D1*
X3731270Y2790606D1*
X3737154Y2794982D1*
X3731270Y2799411D1*
X3724616Y2806065D1*
X3720239Y2811949D1*
X3715810Y2806065D1*
X3709157Y2799411D1*
X3703272Y2795035D1*
X3709157Y2790606D1*
X3715810Y2783952D1*
X3720187Y2778067D1*
X3720239Y2878067D2*
X3724616Y2883952D1*
X3731270Y2890606D1*
X3737154Y2894982D1*
X3731270Y2899411D1*
X3724616Y2906065D1*
X3720239Y2911949D1*
X3715810Y2906065D1*
X3709157Y2899411D1*
X3703272Y2895035D1*
X3709157Y2890606D1*
X3715810Y2883952D1*
X3720187Y2878067D1*
X3720239Y2978067D2*
X3724616Y2983952D1*
X3731270Y2990606D1*
X3737154Y2994982D1*
X3731270Y2999411D1*
X3724616Y3006065D1*
X3720239Y3011949D1*
X3715810Y3006065D1*
X3709157Y2999411D1*
X3703272Y2995035D1*
X3709157Y2990606D1*
X3715810Y2983952D1*
X3720187Y2978067D1*
X3720239Y3078067D2*
X3724616Y3083952D1*
X3731270Y3090606D1*
X3737154Y3094982D1*
X3731270Y3099411D1*
X3724616Y3106065D1*
X3720239Y3111949D1*
X3715810Y3106065D1*
X3709157Y3099411D1*
X3703272Y3095035D1*
X3709157Y3090606D1*
X3715810Y3083952D1*
X3720187Y3078067D1*
X3720239Y3178067D2*
X3724616Y3183952D1*
X3731270Y3190606D1*
X3737154Y3194982D1*
X3731270Y3199411D1*
X3724616Y3206065D1*
X3720239Y3211949D1*
X3715810Y3206065D1*
X3709157Y3199411D1*
X3703272Y3195035D1*
X3709157Y3190606D1*
X3715810Y3183952D1*
X3720187Y3178067D1*
X3720239Y3278067D2*
X3724616Y3283952D1*
X3731270Y3290606D1*
X3737154Y3294982D1*
X3731270Y3299411D1*
X3724616Y3306065D1*
X3720239Y3311949D1*
X3715810Y3306065D1*
X3709157Y3299411D1*
X3703272Y3295035D1*
X3709157Y3290606D1*
X3715810Y3283952D1*
X3720187Y3278067D1*
X3720239Y3378067D2*
X3724616Y3383952D1*
X3731270Y3390606D1*
X3737154Y3394982D1*
X3731270Y3399411D1*
X3724616Y3406065D1*
X3720239Y3411949D1*
X3715810Y3406065D1*
X3709157Y3399411D1*
X3703272Y3395035D1*
X3709157Y3390606D1*
X3715810Y3383952D1*
X3720187Y3378067D1*
X3720239Y3478067D2*
X3724616Y3483952D1*
X3731270Y3490606D1*
X3737154Y3494982D1*
X3731270Y3499411D1*
X3724616Y3506065D1*
X3720239Y3511949D1*
X3715810Y3506065D1*
X3709157Y3499411D1*
X3703272Y3495035D1*
X3709157Y3490606D1*
X3715810Y3483952D1*
X3720187Y3478067D1*
X3720239Y3578067D2*
X3724616Y3583952D1*
X3731270Y3590606D1*
X3737154Y3594982D1*
X3731270Y3599411D1*
X3724616Y3606065D1*
X3720239Y3611949D1*
X3715810Y3606065D1*
X3709157Y3599411D1*
X3703272Y3595035D1*
X3709157Y3590606D1*
X3715810Y3583952D1*
X3720187Y3578067D1*
X3720239Y3678067D2*
X3724616Y3683952D1*
X3731270Y3690606D1*
X3737154Y3694982D1*
X3731270Y3699411D1*
X3724616Y3706065D1*
X3720239Y3711949D1*
X3715810Y3706065D1*
X3709157Y3699411D1*
X3703272Y3695035D1*
X3709157Y3690606D1*
X3715810Y3683952D1*
X3720187Y3678067D1*
X732537Y3629578D2*
X731620Y3620440D1*
X730095Y3611382D1*
X727968Y3602447D1*
X725251Y3593674D1*
X721955Y3585102D1*
X718094Y3576767D1*
X713686Y3568709D1*
X708750Y3560964D1*
X703308Y3553565D1*
X697385Y3546545D1*
X691007Y3539936D1*
X684203Y3533767D1*
X677002Y3528065D1*
X669438Y3522856D1*
X661543Y3518165D1*
X653351Y3514008D1*
X644901Y3510409D1*
X636230Y3507381D1*
X627377Y3504938D1*
X618380Y3503090D1*
X609280Y3501847D1*
X600116Y3501214D1*
X590932Y3501193D1*
X581767Y3501785D1*
X572661Y3502987D1*
X563655Y3504793D1*
X554791Y3507196D1*
X546106Y3510186D1*
X537640Y3513747D1*
X529431Y3517865D1*
X521514Y3522522D1*
X513926Y3527696D1*
X506699Y3533365D1*
X499867Y3539503D1*
X493460Y3546083D1*
X487504Y3553077D1*
X482029Y3560451D1*
X478283Y3566273D1*
X493029Y830940D1*
X498973Y837146D1*
X505749Y843347D1*
X512924Y849081D1*
X520465Y854323D1*
X528339Y859052D1*
X536511Y863243D1*
X544944Y866882D1*
X553602Y869949D1*
X562444Y872432D1*
X571434Y874321D1*
X580528Y875604D1*
X589687Y876279D1*
X598872Y876342D1*
X608040Y875792D1*
X617151Y874630D1*
X626165Y872865D1*
X635040Y870502D1*
X643738Y867552D1*
X652220Y864029D1*
X660448Y859948D1*
X668385Y855327D1*
X675998Y850187D1*
X683250Y844552D1*
X690109Y838444D1*
X696546Y831893D1*
X702533Y824927D1*
X708041Y817577D1*
X713046Y809876D1*
X717527Y801859D1*
X721464Y793561D1*
X724838Y785018D1*
X727634Y776270D1*
X729842Y767354D1*
X731448Y758310D1*
X732449Y749180D1*
X732844Y738759D1*
X732537Y729579D1*
X731620Y720441D1*
X730095Y711384D1*
X727968Y702448D1*
X725251Y693675D1*
X721955Y685103D1*
X718094Y676768D1*
X713686Y668710D1*
X708750Y660965D1*
X703308Y653566D1*
X697385Y646546D1*
X691007Y639938D1*
X684203Y633768D1*
X677002Y628066D1*
X669438Y622857D1*
X661543Y618166D1*
X653351Y614010D1*
X644901Y610410D1*
X636230Y607382D1*
X627377Y604939D1*
X618380Y603091D1*
X609280Y601848D1*
X600116Y601216D1*
X590932Y601195D1*
X581767Y601787D1*
X572661Y602989D1*
X563655Y604794D1*
X554791Y607197D1*
X546106Y610187D1*
X537640Y613749D1*
X529431Y617867D1*
X521514Y622523D1*
X513926Y627697D1*
X506699Y633367D1*
X499867Y639504D1*
X494035Y645494D1*
X495145Y438731D1*
X4120184Y438759D1*
X4113986Y3888731D1*
X476503Y3888758D1*
X477495Y3710029D1*
X481326Y3716037D1*
X486734Y3723461D1*
X492625Y3730507D1*
X498973Y3737145D1*
X505749Y3743346D1*
X512924Y3749079D1*
X520465Y3754322D1*
X528339Y3759050D1*
X536511Y3763242D1*
X544944Y3766881D1*
X553602Y3769948D1*
X562444Y3772431D1*
X571434Y3774319D1*
X580528Y3775603D1*
X589687Y3776277D1*
X598872Y3776340D1*
X608040Y3775791D1*
X617151Y3774629D1*
X626165Y3772864D1*
X635040Y3770501D1*
X643738Y3767550D1*
X652220Y3764028D1*
X660448Y3759947D1*
X668385Y3755326D1*
X675998Y3750186D1*
X683250Y3744550D1*
X690109Y3738443D1*
X696546Y3731892D1*
X702533Y3724926D1*
X708041Y3717575D1*
X713046Y3709875D1*
X717527Y3701857D1*
X721464Y3693560D1*
X724838Y3685016D1*
X727634Y3676268D1*
X729842Y3667352D1*
X731448Y3658309D1*
X732449Y3649179D1*
X732844Y3638758D1*
X732537Y3629578D1*
X4107537Y585829D2*
X4106620Y576691D1*
X4105095Y567633D1*
X4102968Y558697D1*
X4100251Y549924D1*
X4096955Y541352D1*
X4093094Y533018D1*
X4088686Y524960D1*
X4083750Y517214D1*
X4078308Y509815D1*
X4072385Y502796D1*
X4066007Y496187D1*
X4059203Y490018D1*
X4052002Y484315D1*
X4044438Y479107D1*
X4036543Y474415D1*
X4028351Y470259D1*
X4019901Y466659D1*
X4011230Y463632D1*
X4002377Y461188D1*
X3993380Y459340D1*
X3984280Y458098D1*
X3975116Y457465D1*
X3965932Y457444D1*
X3956767Y458036D1*
X3947661Y459238D1*
X3938655Y461044D1*
X3929791Y463447D1*
X3921106Y466436D1*
X3912640Y469998D1*
X3904431Y474116D1*
X3896514Y478772D1*
X3888926Y483947D1*
X3881699Y489616D1*
X3874867Y495754D1*
X3868460Y502334D1*
X3862504Y509327D1*
X3857029Y516701D1*
X3852060Y524426D1*
X3847615Y532462D1*
X3843716Y540779D1*
X3840381Y549336D1*
X3837624Y558098D1*
X3835457Y567023D1*
X3833890Y576073D1*
X3832931Y585208D1*
X3832583Y594385D1*
X3832848Y603566D1*
X3833725Y612709D1*
X3835209Y621773D1*
X3837294Y630718D1*
X3839973Y639503D1*
X3843230Y648091D1*
X3847053Y656441D1*
X3851426Y664520D1*
X3856326Y672288D1*
X3861734Y679712D1*
X3867625Y686758D1*
X3873973Y693396D1*
X3880749Y699596D1*
X3887924Y705330D1*
X3895465Y710573D1*
X3903339Y715301D1*
X3911511Y719493D1*
X3919944Y723132D1*
X3928602Y726199D1*
X3937444Y728682D1*
X3946434Y730570D1*
X3955528Y731854D1*
X3964687Y732528D1*
X3973872Y732591D1*
X3983040Y732041D1*
X3992151Y730880D1*
X4001165Y729115D1*
X4010040Y726751D1*
X4018738Y723801D1*
X4027220Y720279D1*
X4035448Y716197D1*
X4043385Y711577D1*
X4050998Y706436D1*
X4058250Y700801D1*
X4065109Y694693D1*
X4071546Y688142D1*
X4077533Y681176D1*
X4083041Y673826D1*
X4088046Y666125D1*
X4092527Y658108D1*
X4096464Y649810D1*
X4099838Y641267D1*
X4102634Y632519D1*
X4104842Y623603D1*
X4106448Y614560D1*
X4107449Y605430D1*
X4107844Y595008D1*
X4107537Y585829D1*
Y3735829D2*
X4106620Y3726691D1*
X4105095Y3717633D1*
X4102968Y3708697D1*
X4100251Y3699924D1*
X4096955Y3691352D1*
X4093094Y3683018D1*
X4088686Y3674960D1*
X4083750Y3667214D1*
X4078308Y3659815D1*
X4072385Y3652796D1*
X4066007Y3646187D1*
X4059203Y3640018D1*
X4052002Y3634315D1*
X4044438Y3629107D1*
X4036543Y3624415D1*
X4028351Y3620259D1*
X4019901Y3616659D1*
X4011230Y3613632D1*
X4002377Y3611188D1*
X3993380Y3609340D1*
X3984280Y3608098D1*
X3975116Y3607465D1*
X3965932Y3607444D1*
X3956767Y3608036D1*
X3947661Y3609238D1*
X3938655Y3611044D1*
X3929791Y3613447D1*
X3921106Y3616436D1*
X3912640Y3619998D1*
X3904431Y3624116D1*
X3896514Y3628772D1*
X3888926Y3633947D1*
X3881699Y3639616D1*
X3874867Y3645754D1*
X3868460Y3652334D1*
X3862504Y3659327D1*
X3857029Y3666701D1*
X3852060Y3674426D1*
X3847615Y3682462D1*
X3843716Y3690779D1*
X3840381Y3699336D1*
X3837624Y3708098D1*
X3835457Y3717023D1*
X3833890Y3726073D1*
X3832931Y3735208D1*
X3832583Y3744385D1*
X3832848Y3753566D1*
X3833725Y3762709D1*
X3835209Y3771773D1*
X3837294Y3780718D1*
X3839973Y3789503D1*
X3843230Y3798091D1*
X3847053Y3806441D1*
X3851426Y3814520D1*
X3856326Y3822288D1*
X3861734Y3829712D1*
X3867625Y3836758D1*
X3873973Y3843396D1*
X3880749Y3849596D1*
X3887924Y3855330D1*
X3895465Y3860573D1*
X3903339Y3865301D1*
X3911511Y3869493D1*
X3919944Y3873132D1*
X3928602Y3876199D1*
X3937444Y3878682D1*
X3946434Y3880570D1*
X3955528Y3881854D1*
X3964687Y3882528D1*
X3973872Y3882591D1*
X3983040Y3882041D1*
X3992151Y3880880D1*
X4001165Y3879115D1*
X4010040Y3876751D1*
X4018738Y3873801D1*
X4027220Y3870279D1*
X4035448Y3866197D1*
X4043385Y3861577D1*
X4050998Y3856436D1*
X4058250Y3850801D1*
X4065109Y3844693D1*
X4071546Y3838142D1*
X4077533Y3831176D1*
X4083041Y3823826D1*
X4088046Y3816125D1*
X4092527Y3808108D1*
X4096464Y3799810D1*
X4099838Y3791267D1*
X4102634Y3782519D1*
X4104842Y3773603D1*
X4106448Y3764560D1*
X4107449Y3755430D1*
X4107844Y3745008D1*
X4107537Y3735829D1*
X2148468Y766754D2*
D14*
X2291959Y623263D1*
Y766754D2*
X2148468Y623263D1*
X3770213Y645008D2*
X3830153Y585069D1*
Y704948D2*
X3710273Y585069D1*
D16*
X2220213Y695008D3*
X2545213D3*
X1895213D3*
D17*
X3770213Y645008D3*
D18*
X3670213D3*
X3770213Y745008D3*
X3670213D3*
X3770213Y845008D3*
X3670213D3*
X3770213Y945008D3*
X3670213D3*
X3770213Y1045008D3*
X3670213D3*
X3770213Y1145008D3*
X3670213D3*
X3770213Y1245008D3*
X3670213D3*
X3770213Y1345008D3*
X3670213D3*
X3770213Y1445008D3*
X3670213D3*
X3770213Y1545008D3*
X3670213D3*
X3770213Y1645008D3*
X3670213D3*
X3770213Y1745008D3*
X3670213D3*
X3770213Y1845008D3*
X3670213D3*
X3770213Y1945008D3*
X3670213D3*
X3770213Y2045008D3*
X3670213D3*
X3770213Y2145008D3*
X3670213D3*
X3770213Y2245008D3*
X3670213D3*
X3770213Y2345008D3*
X3670213D3*
X3770213Y2445008D3*
X3670213D3*
X3770213Y2545008D3*
X3670213D3*
X3770213Y2645008D3*
X3670213D3*
X3770213Y2745008D3*
X3670213D3*
X3770213Y2845008D3*
X3670213D3*
X3770213Y2945008D3*
X3670213D3*
X3770213Y3045008D3*
X3670213D3*
X3770213Y3145008D3*
X3670213D3*
X3770213Y3245008D3*
X3670213D3*
X3770213Y3345008D3*
X3670213D3*
X3770213Y3445008D3*
X3670213D3*
X3770213Y3545008D3*
X3670213D3*
X3770213Y3645008D3*
X3670213D3*
X3770213Y3745008D3*
X3670213D3*
M02*
