G04 DipTrace 3.3.1.3*
G04 TopMask.gbr*
%MOIN*%
G04 #@! TF.FileFunction,Soldermask,Top*
G04 #@! TF.Part,Single*
%ADD21C,0.125*%
%ADD27C,0.074809*%
%ADD29R,0.074809X0.074809*%
%ADD31C,0.15788*%
%ADD33R,0.066935X0.059061*%
%FSLAX26Y26*%
G04*
G70*
G90*
G75*
G01*
G04 TopMask*
%LPD*%
D33*
X2545213Y1526258D3*
Y1601062D3*
X1895213Y1601258D3*
Y1526455D3*
D21*
X595213Y3638758D3*
Y738759D3*
X3970213Y595008D3*
Y3745008D3*
D31*
X2220213Y695008D3*
X2545213D3*
X1895213D3*
D29*
X3770213Y645008D3*
D27*
X3670213D3*
X3770213Y745008D3*
X3670213D3*
X3770213Y845008D3*
X3670213D3*
X3770213Y945008D3*
X3670213D3*
X3770213Y1045008D3*
X3670213D3*
X3770213Y1145008D3*
X3670213D3*
X3770213Y1245008D3*
X3670213D3*
X3770213Y1345008D3*
X3670213D3*
X3770213Y1445008D3*
X3670213D3*
X3770213Y1545008D3*
X3670213D3*
X3770213Y1645008D3*
X3670213D3*
X3770213Y1745008D3*
X3670213D3*
X3770213Y1845008D3*
X3670213D3*
X3770213Y1945008D3*
X3670213D3*
X3770213Y2045008D3*
X3670213D3*
X3770213Y2145008D3*
X3670213D3*
X3770213Y2245008D3*
X3670213D3*
X3770213Y2345008D3*
X3670213D3*
X3770213Y2445008D3*
X3670213D3*
X3770213Y2545008D3*
X3670213D3*
X3770213Y2645008D3*
X3670213D3*
X3770213Y2745008D3*
X3670213D3*
X3770213Y2845008D3*
X3670213D3*
X3770213Y2945008D3*
X3670213D3*
X3770213Y3045008D3*
X3670213D3*
X3770213Y3145008D3*
X3670213D3*
X3770213Y3245008D3*
X3670213D3*
X3770213Y3345008D3*
X3670213D3*
X3770213Y3445008D3*
X3670213D3*
X3770213Y3545008D3*
X3670213D3*
X3770213Y3645008D3*
X3670213D3*
X3770213Y3745008D3*
X3670213D3*
D33*
X2545213Y1388758D3*
Y1313955D3*
X1895213Y1388758D3*
Y1313955D3*
M02*
