G04 DipTrace 3.3.1.3*
G04 Bottom.gbr*
%MOIN*%
G04 #@! TF.FileFunction,Copper,L2,Bot*
G04 #@! TF.Part,Single*
G04 #@! TA.AperFunction,Conductor*
%ADD12C,0.01*%
G04 #@! TA.AperFunction,CopperBalancing*
%ADD13C,0.025*%
%ADD14C,0.013*%
G04 #@! TA.AperFunction,ComponentPad*
%ADD18C,0.106299*%
%ADD19C,0.098425*%
%ADD20R,0.066535X0.066535*%
%ADD21C,0.066535*%
%ADD22C,0.187402*%
%ADD23R,0.066929X0.066929*%
%ADD24C,0.066929*%
%ADD25C,0.06*%
%ADD30C,0.048*%
G04 #@! TA.AperFunction,ViaPad*
%ADD31C,0.04*%
%FSLAX26Y26*%
G04*
G70*
G90*
G75*
G01*
G04 Bottom*
%LPD*%
X3738967Y1527361D2*
D12*
X3316911Y1949417D1*
Y3381788D1*
X1301461Y2520008D2*
X1243565Y2577905D1*
Y3463548D1*
X1259565Y3479548D1*
X1614636D1*
X2094892D1*
X3851462Y3107508D2*
X3931612Y3027359D1*
Y1988655D1*
X3850778Y1907821D1*
X1282713Y520008D2*
Y720008D1*
Y1251722D1*
X1201927Y1332508D1*
Y1686993D1*
X1142461D1*
X1126461Y1702993D1*
Y1807508D1*
X1568557Y1742764D2*
Y2233225D1*
X2131608Y1788760D2*
X2107714D1*
X2069608Y1750654D1*
Y1742764D1*
X1837415Y1070008D2*
X1897960D1*
X1913960Y1054008D1*
Y976259D1*
X4051462Y3107508D2*
Y3307508D1*
X707713Y3088758D2*
Y3288758D1*
X1201927Y1686993D2*
X1217927Y1702993D1*
X1276461D1*
X1082713Y520008D2*
Y720008D1*
X1307712Y3645008D2*
Y3845008D1*
X1107712Y3645008D2*
Y3845008D1*
X507713Y3288758D2*
Y3088758D1*
X845212Y1332508D2*
X1201927D1*
X1913960Y976259D2*
Y677008D1*
X1929960Y661008D1*
X2023333D1*
X2038333Y676008D1*
X2122833D1*
X2138833Y660008D1*
Y611896D1*
X2103196Y576259D1*
X3851462Y3307508D2*
X3670212Y3488759D1*
Y3538759D1*
X4051462Y3307508D2*
X3851462D1*
X707713Y3288758D2*
X863962Y3445007D1*
Y3532508D1*
X2312990Y3563658D2*
Y3483225D1*
X2232714Y3402949D1*
X2151364Y3582410D2*
X2241616D1*
X2260368Y3563658D1*
X2312990D1*
X2045163Y3582508D2*
X2151364Y3582410D1*
X3738967Y1418661D2*
X2869313D1*
X2853313Y1434661D1*
Y3139481D1*
X1763962Y3284438D2*
X2258148D1*
X2403104Y3139481D1*
X1363913Y3276455D2*
X1527766D1*
X1535749Y3284438D1*
X1763962D1*
X1295163Y3276455D2*
X1363913D1*
X2638962Y3107508D2*
Y3201532D1*
X2536140Y3304355D1*
X2555183Y1857508D2*
Y1886508D1*
X2172431D1*
X2156431Y1902508D1*
Y2133592D1*
X2095015Y2195008D1*
X1782713Y2207508D2*
X1689210D1*
X2095015Y2195008D2*
X2126326Y2226319D1*
X2312423D1*
X2327734Y2211008D1*
X2387585D1*
X2403585Y2227008D1*
Y2266508D1*
X2387585Y2282508D1*
X2289285D1*
X2273285Y2298508D1*
Y2597508D1*
X2289285Y2613508D1*
X2428175D1*
X2444178Y2629511D1*
Y2876258D1*
X1570210Y1545008D2*
X1611210Y1586008D1*
Y2169485D1*
X1782713Y2120008D2*
X1674210D1*
X1658210Y2136008D1*
Y2282512D1*
X1725710Y2350012D1*
X2056805Y1893008D2*
X2094305Y1855508D1*
X2162608D1*
X1725710Y2350012D2*
X1729962Y2354264D1*
Y2904725D1*
X1745962Y2920725D1*
X2199710D1*
X2244178Y2876258D1*
X2044178Y1613758D2*
Y1133663D1*
X2107833Y1070008D1*
X1570210Y1457508D2*
X1527376Y1500343D1*
Y2126969D1*
X2107833Y1070008D2*
X2020644D1*
X2004644Y1054008D1*
Y742008D1*
X2020644Y726008D1*
X2154833D1*
X2170833Y710008D1*
Y545256D1*
X2154833Y529256D1*
X1658210D1*
X1642210Y545256D1*
Y907508D1*
X2095015Y2045008D2*
X2051015Y2001008D1*
X1873590D1*
X1842088Y2032510D1*
X1858088Y2048510D1*
Y2251508D1*
X1894833D1*
X1910833Y2267508D1*
Y2358319D1*
X1926833Y2374319D1*
X2028175D1*
X2044178Y2390322D1*
Y2876258D1*
X1726710Y1944666D2*
Y1976507D1*
X1782713Y2032510D1*
X1858088Y2251508D2*
Y2266508D1*
X1811088Y2313508D1*
X2372585Y2251508D2*
X1926833D1*
X1910833Y2267508D1*
X1782713Y2032510D2*
X1842088D1*
X1570210Y1370008D2*
X1456588D1*
X1440588Y1386008D1*
Y2007150D1*
X1982179Y2479512D2*
X1920640D1*
X1888644Y2511508D1*
X1844178Y2555974D1*
Y2876258D1*
X1888644Y2511508D2*
X1772710Y2395575D1*
Y2299512D1*
X1823714Y2248508D1*
Y2089512D1*
X1807714Y2073512D1*
X1711710D1*
X1695710Y2057512D1*
Y1904008D1*
X1711710Y1888008D1*
X1766713D1*
X1782713Y1904008D1*
Y1945010D1*
X1856273D1*
X1881272Y1970008D1*
X2095015D1*
X2957713Y2538758D2*
X3013714Y2538756D1*
X980588Y1698197D2*
Y2051973D1*
X1070927D1*
Y2007508D1*
X1126461D1*
X1276461Y1777796D2*
X1232658Y1733993D1*
X1186927D1*
X1126461Y2007508D2*
X1173461Y2054508D1*
X1439588D1*
X1455588Y2070508D1*
X1482911Y2043186D1*
Y1427008D1*
X1498911Y1411008D1*
X1688340D1*
X1413961Y2293473D2*
Y2340477D1*
X1426317D1*
X1471588Y2295205D1*
X1455588Y2279205D1*
Y2070508D1*
X1471588Y2295205D2*
Y2936725D1*
X1487588Y2952725D1*
X2272644D1*
X2288644Y2936725D1*
Y2720008D1*
X1273683Y2295205D2*
X1275415Y2293473D1*
X1413961D1*
X1888644Y1445008D2*
Y1431008D1*
X1868644Y1411008D1*
X1837943D1*
X1378588Y2085508D2*
X926010D1*
X910010Y2069508D1*
Y1403036D1*
X894010Y1387036D1*
X733401D1*
X1424588Y2095969D2*
X1404049Y2116508D1*
X910010D1*
X894010Y2100508D1*
Y1490361D1*
X845212Y1441564D1*
X1082712Y2460008D2*
X1205899Y2336821D1*
Y2233225D1*
X1082712Y2270008D2*
X1132714D1*
X1316588Y1951973D2*
X1081997D1*
X1026461Y2007508D1*
X1185927Y1907508D2*
X1126461D1*
X1362588Y1917516D2*
X1297045Y1851973D1*
X1070926D1*
X1026461Y1807508D1*
X1944178Y2876258D2*
Y2577266D1*
X2013175Y2508268D1*
Y2405319D1*
X2155431Y2343319D2*
Y2729375D1*
X2144178Y2740628D1*
Y2876258D1*
X1941833Y2282508D2*
X2019620D1*
X2207833D1*
X2223834Y2298510D1*
Y2630111D1*
X2239836Y2646113D1*
X2328175D1*
X2344178Y2662116D1*
Y2876258D1*
X2382588Y1973508D2*
X2629962D1*
X2645962Y1989508D1*
Y2774473D1*
X2544178Y2876258D1*
X2588962Y2538758D2*
X2366428D1*
X2360179Y2532508D1*
X2588962Y2451258D2*
X2320285D1*
X2304285Y2467258D1*
Y2582508D1*
X2107833Y645008D2*
X1885943D1*
X1869943Y661008D1*
Y770008D1*
X1695406D1*
X1773085Y1039008D2*
X1726407Y1085686D1*
Y1266508D1*
X1742407Y1282508D1*
Y1658225D1*
X1758407Y1674225D1*
X2383710D1*
X2444178Y1613758D1*
X1726407Y1266508D2*
X1710407Y1282508D1*
X1570210D1*
X1695406Y770008D2*
Y821669D1*
X1773085Y899347D1*
Y1039008D1*
X1570210Y1282508D2*
X1425588D1*
X1409588Y1298508D1*
Y1981973D1*
X1393588Y1997973D1*
X1316588D1*
X2588962Y2195008D2*
Y2188768D1*
X2187431D1*
Y2195319D1*
X2588962Y2107508D2*
X2360585D1*
X2310585Y2157508D1*
X2588962Y1932508D2*
X2358585D1*
X2342585Y1948508D1*
Y2076508D1*
X1836085Y1142819D2*
Y1274008D1*
X1790085Y1320008D1*
X1928175D1*
X1944178Y1336011D1*
Y1613758D1*
X2144178D2*
Y1538040D1*
X2142687Y1536549D1*
Y1185016D1*
X2157691Y1170012D1*
X1789085Y1120008D2*
X1808085Y1101008D1*
X1945088D1*
X1961088Y1085008D1*
X1988644Y1112564D1*
Y1642225D1*
X2004644Y1658225D1*
X2299710D1*
X2344178Y1613758D1*
X1961088Y1085008D2*
Y695008D1*
X2304431Y745008D2*
X2061833D1*
X2045833Y761008D1*
Y811756D1*
X2091833Y857756D1*
X2045833Y903756D1*
Y1017260D1*
X2528175D1*
X2544178Y1033263D1*
Y1613758D1*
X2363961Y1326258D2*
X2316399Y1373819D1*
X2173687D1*
X2420962Y1326256D2*
X2363961Y1326258D1*
Y1238758D2*
X2264216Y1139012D1*
X2107833D1*
X2091833Y1155012D1*
Y1370008D1*
X2499490D2*
Y1286787D1*
X2363961Y1151258D1*
Y976258D2*
X2317464Y929760D1*
X2137833D1*
X2363961Y888758D2*
X2107833D1*
X2091833Y904758D1*
Y945008D1*
X2404962Y928359D2*
Y842259D1*
X2363961Y801258D1*
X2305285Y2324319D2*
X2385140D1*
X2434585Y2274875D1*
Y2226008D1*
X2957712Y1982508D2*
X2884313Y2055907D1*
Y2438756D1*
X1688962Y2726259D2*
Y2407508D1*
X1642210Y2796406D2*
Y1567579D1*
X1719340Y1490449D1*
Y1339508D1*
X1703340Y1323508D1*
X1492911D1*
X1482911Y1313508D1*
X2932713Y1263759D2*
X2822313Y1374159D1*
Y3057260D1*
D31*
X2094892Y3479548D3*
X1614636D3*
X3316911Y3381788D3*
X1568557Y2233225D3*
Y1742764D3*
X2069608D3*
X2103196Y576259D3*
X1276461Y1702993D3*
X2312990Y3563658D3*
X1837415Y1070008D3*
X2131608Y1788760D3*
X2232714Y3402949D3*
X2151364Y3582410D3*
X1913960Y976259D3*
X2853313Y3139481D3*
X1295163Y3276455D3*
X2403104Y3139481D3*
X1763962Y3284438D3*
X1363913Y3276455D3*
X1378588Y2085508D3*
X2536140Y3304355D3*
X2884313Y2438756D3*
X1689210Y2207508D3*
X2555183Y1857508D3*
X2095015Y2195008D3*
X1611210Y2169485D3*
X2162608Y1855508D3*
X2056805Y1893008D3*
X1725710Y2350012D3*
X1642210Y907508D3*
X1527376Y2126969D3*
X2107833Y1070008D3*
X2095015Y2045008D3*
X1726710Y1944666D3*
X1811088Y2313508D3*
X2372585Y2251508D3*
X1440588Y2007150D3*
X2095015Y1970008D3*
X1982179Y2479512D3*
X3013714Y2538756D3*
X1424588Y2095969D3*
X1205899Y2233225D3*
X1132714Y2270008D3*
X1316588Y1951973D3*
X1185927Y1907508D3*
X1362588Y1917516D3*
X1316588Y1997973D3*
X1773085Y1039008D3*
X1695406Y770008D3*
X2107833Y645008D3*
X2013175Y2405319D3*
X2155431Y2343319D3*
X1941833Y2282508D3*
X2019620D3*
X2382588Y1973508D3*
X2360179Y2532508D3*
X2304285Y2582508D3*
X2822313Y3057260D3*
X2187431Y2195319D3*
X2310585Y2157508D3*
X2342585Y2076508D3*
X1790085Y1320008D3*
X1836085Y1142819D3*
X2157691Y1170012D3*
X1789085Y1120008D3*
X1961088Y695008D3*
X2091833Y857756D3*
X2304431Y745008D3*
X2173687Y1373819D3*
X2420962Y1326256D3*
X2091833Y1370008D3*
X2499490D3*
X2137833Y929760D3*
X2091833Y945008D3*
X2404962Y928359D3*
X2434585Y2226008D3*
X2305285Y2324319D3*
X2385140D3*
X1688962Y2407508D3*
X1482911Y1313508D3*
X1642210Y2796406D3*
X980588Y1698197D3*
X1186927Y1733993D3*
X1276461Y1777796D3*
X1688340Y1411008D3*
X1837943D3*
X1888644Y1445008D3*
X1273683Y2295205D3*
X2288644Y2720008D3*
X1413961Y2293473D3*
X478962Y3876389D2*
D13*
X1032015D1*
X1183423D2*
X1231998D1*
X1383405D2*
X3926721D1*
X4013716D2*
X4092793D1*
X478962Y3851520D2*
X1025843D1*
X1189595D2*
X1225826D1*
X1389578D2*
X3880538D1*
X4059863D2*
X4092829D1*
X478962Y3826651D2*
X1027709D1*
X1187729D2*
X1227692D1*
X1387712D2*
X3856926D1*
X4083511D2*
X4092891D1*
X478962Y3801783D2*
X1038295D1*
X1377126D2*
X3842321D1*
X478962Y3776914D2*
X1063881D1*
X1351540D2*
X3833817D1*
X478962Y3752045D2*
X514565D1*
X675877D2*
X1129836D1*
X1285585D2*
X3830264D1*
X478962Y3727176D2*
X487222D1*
X703185D2*
X1131630D1*
X1283791D2*
X3831233D1*
X719799Y3702308D2*
X1049886D1*
X1365535D2*
X3836867D1*
X729811Y3677439D2*
X1032446D1*
X1382975D2*
X3847812D1*
X734655Y3652570D2*
X1025915D1*
X1189487D2*
X1225934D1*
X1389506D2*
X3865754D1*
X4074684D2*
X4093188D1*
X734906Y3627701D2*
X1027458D1*
X1187944D2*
X1227477D1*
X1387963D2*
X2008747D1*
X2081568D2*
X3895717D1*
X4044684D2*
X4093224D1*
X730564Y3602833D2*
X1037649D1*
X1177789D2*
X1237632D1*
X1377772D2*
X1989944D1*
X2100371D2*
X4093259D1*
X721199Y3577964D2*
X827906D1*
X900010D2*
X1062194D1*
X1153208D2*
X1262212D1*
X1353227D2*
X1986355D1*
X2103996D2*
X3627016D1*
X3713402D2*
X4093331D1*
X705446Y3553095D2*
X808852D1*
X919064D2*
X1994429D1*
X2095886D2*
X3613057D1*
X3727360D2*
X4093367D1*
X478962Y3528226D2*
X510690D1*
X679717D2*
X805120D1*
X922796D2*
X2026976D1*
X2063339D2*
X3612196D1*
X3728222D2*
X4093403D1*
X478962Y3503357D2*
X568033D1*
X622410D2*
X813050D1*
X914866D2*
X1236448D1*
X2137332D2*
X3623679D1*
X3716739D2*
X4093439D1*
X478962Y3478489D2*
X844915D1*
X883036D2*
X1213338D1*
X2143863D2*
X4093475D1*
X478962Y3453620D2*
X1209570D1*
X2136004D2*
X3340983D1*
X3436842D2*
X4093547D1*
X478962Y3428751D2*
X1209570D1*
X1277547D2*
X3330577D1*
X3447249D2*
X4093582D1*
X478962Y3403882D2*
X1209570D1*
X1277547D2*
X3273485D1*
X3445562D2*
X4093618D1*
X478962Y3379014D2*
X1209570D1*
X1277547D2*
X3267995D1*
X3430275D2*
X3813865D1*
X3889055D2*
X4013884D1*
X555701Y3354145D2*
X659717D1*
X755683D2*
X1209570D1*
X1277547D2*
X3277038D1*
X3356820D2*
X3784404D1*
X3918516D2*
X3984387D1*
X578774Y3329276D2*
X636643D1*
X778793D2*
X1209570D1*
X1277547D2*
X1749161D1*
X1778777D2*
X2494368D1*
X2577882D2*
X3282923D1*
X3350899D2*
X3772347D1*
X3930573D2*
X3972330D1*
X588320Y3304407D2*
X627098D1*
X788302D2*
X1209570D1*
X2285211D2*
X2487155D1*
X2585131D2*
X3282923D1*
X3350899D2*
X3769369D1*
X3933551D2*
X3969387D1*
X589324Y3279539D2*
X626093D1*
X789343D2*
X1209570D1*
X2310079D2*
X2494332D1*
X2607989D2*
X3130092D1*
X3197710D2*
X3282923D1*
X3350899D2*
X3774393D1*
X782202Y3254670D2*
X1209570D1*
X2334946D2*
X2538792D1*
X2632857D2*
X3109423D1*
X3218379D2*
X3282923D1*
X3350899D2*
X3789356D1*
X763757Y3229801D2*
X1209570D1*
X1277547D2*
X2265750D1*
X2359814D2*
X2563660D1*
X2657725D2*
X3104973D1*
X3222865D2*
X3282923D1*
X3350899D2*
X3831484D1*
X4071454D2*
X4093941D1*
X478962Y3204932D2*
X531252D1*
X684166D2*
X1209570D1*
X1277547D2*
X2290617D1*
X2384718D2*
X2588528D1*
X2672796D2*
X3112114D1*
X3215724D2*
X3282923D1*
X3350899D2*
X3873289D1*
X4029649D2*
X4093977D1*
X478962Y3180064D2*
X529996D1*
X685422D2*
X1209570D1*
X1277547D2*
X2315485D1*
X2428317D2*
X2604963D1*
X2672975D2*
X2828127D1*
X2878520D2*
X3140391D1*
X3187447D2*
X3282923D1*
X3350899D2*
X3816090D1*
X754140Y3155195D2*
X1029360D1*
X1094968D2*
X1116881D1*
X1182490D2*
X1209570D1*
X1314472D2*
X1757127D1*
X1795787D2*
X2288393D1*
X2327052D2*
X2340353D1*
X2449381D2*
X2604963D1*
X2672975D2*
X2749899D1*
X2899584D2*
X3282923D1*
X3350899D2*
X3785158D1*
X778147Y3130326D2*
X1008009D1*
X1346122D2*
X1725513D1*
X1827400D2*
X2256779D1*
X2451211D2*
X2584760D1*
X2693142D2*
X2728512D1*
X2901414D2*
X3282923D1*
X3350899D2*
X3772634D1*
X3930286D2*
X3972653D1*
X588104Y3105457D2*
X627349D1*
X788087D2*
X1003200D1*
X1354016D2*
X1717619D1*
X1835295D2*
X2248884D1*
X2437288D2*
X2579987D1*
X2697915D2*
X2723739D1*
X2887491D2*
X3282923D1*
X3350899D2*
X3769333D1*
X3933587D2*
X3969351D1*
X589432Y3080588D2*
X625986D1*
X789450D2*
X1010018D1*
X1201867D2*
X1209570D1*
X1350248D2*
X1721386D1*
X1831563D2*
X2252616D1*
X2362793D2*
X2586805D1*
X2691133D2*
X2730522D1*
X2887312D2*
X2939691D1*
X2975730D2*
X3282923D1*
X3350899D2*
X3773998D1*
X3928922D2*
X3974016D1*
X582686Y3055720D2*
X632732D1*
X782704D2*
X1037111D1*
X1087253D2*
X1124597D1*
X1174775D2*
X1209570D1*
X1331122D2*
X1740513D1*
X1812401D2*
X2271778D1*
X2343666D2*
X2613862D1*
X2664040D2*
X2757614D1*
X2887312D2*
X2907000D1*
X3008421D2*
X3282923D1*
X3350899D2*
X3788459D1*
X3914461D2*
X3988442D1*
X564887Y3030851D2*
X650531D1*
X764906D2*
X1209570D1*
X1277547D2*
X2781549D1*
X2887312D2*
X2898929D1*
X3016531D2*
X3282923D1*
X3350899D2*
X3827322D1*
X3875598D2*
X4027340D1*
X4075581D2*
X4094300D1*
X478962Y3005982D2*
X1209570D1*
X1277547D2*
X2788295D1*
X2887312D2*
X2902479D1*
X3012942D2*
X3282923D1*
X3350899D2*
X4094336D1*
X478962Y2981113D2*
X1209570D1*
X1277547D2*
X1471453D1*
X2288799D2*
X2788295D1*
X2887312D2*
X2921246D1*
X2994175D2*
X3282923D1*
X3350899D2*
X4094372D1*
X478962Y2956245D2*
X1209570D1*
X1277547D2*
X1444361D1*
X2315856D2*
X2788295D1*
X2887312D2*
X3282923D1*
X3350899D2*
X4094408D1*
X478962Y2931376D2*
X1209570D1*
X1277547D2*
X1437578D1*
X2370292D2*
X2418078D1*
X2470302D2*
X2481701D1*
X2606626D2*
X2788295D1*
X2887312D2*
X3282923D1*
X3350899D2*
X4094480D1*
X478962Y2906507D2*
X1209570D1*
X1277547D2*
X1437578D1*
X1505591D2*
X1696016D1*
X2606626D2*
X2788295D1*
X2887312D2*
X3282923D1*
X3350899D2*
X4094515D1*
X478962Y2881638D2*
X1209570D1*
X1277547D2*
X1437578D1*
X1505591D2*
X1695945D1*
X1763957D2*
X1781959D1*
X2606626D2*
X2788295D1*
X2887312D2*
X3282923D1*
X3350899D2*
X3728712D1*
X3861029D2*
X4094551D1*
X478962Y2856770D2*
X1209570D1*
X1277547D2*
X1437578D1*
X1505591D2*
X1695945D1*
X1763957D2*
X1784973D1*
X2610716D2*
X2788295D1*
X2887312D2*
X3282923D1*
X3350899D2*
X3700148D1*
X3889593D2*
X4094587D1*
X478962Y2831901D2*
X1209570D1*
X1277547D2*
X1437578D1*
X1505591D2*
X1609679D1*
X1674749D2*
X1695945D1*
X1763957D2*
X1801336D1*
X1887040D2*
X1901310D1*
X1987013D2*
X2001319D1*
X2087023D2*
X2101328D1*
X2187032D2*
X2201337D1*
X2387014D2*
X2401320D1*
X2635584D2*
X2788295D1*
X2887312D2*
X2927777D1*
X2987644D2*
X3282923D1*
X3350899D2*
X3684108D1*
X3905633D2*
X4094659D1*
X478962Y2807032D2*
X1209570D1*
X1277547D2*
X1437578D1*
X1505591D2*
X1594428D1*
X1763957D2*
X1810164D1*
X1878177D2*
X1910173D1*
X1978186D2*
X2010182D1*
X2078195D2*
X2110192D1*
X2178168D2*
X2254661D1*
X2378187D2*
X2410183D1*
X2478160D2*
X2566351D1*
X2660452D2*
X2788295D1*
X2887312D2*
X2904309D1*
X3011112D2*
X3282923D1*
X3350899D2*
X3675316D1*
X3914425D2*
X4094695D1*
X478962Y2782163D2*
X1209570D1*
X1277547D2*
X1437578D1*
X1505591D2*
X1595433D1*
X1763957D2*
X1810164D1*
X1878177D2*
X1910173D1*
X1978186D2*
X2010182D1*
X2078195D2*
X2110192D1*
X2178168D2*
X2254661D1*
X2378187D2*
X2410183D1*
X2478160D2*
X2591219D1*
X2679004D2*
X2788295D1*
X2887312D2*
X2898732D1*
X3016710D2*
X3282923D1*
X3350899D2*
X3672194D1*
X3917547D2*
X4094731D1*
X478962Y2757294D2*
X1209570D1*
X1277547D2*
X1437578D1*
X1505591D2*
X1608208D1*
X1763957D2*
X1810164D1*
X1878177D2*
X1910173D1*
X1978186D2*
X2010182D1*
X2078195D2*
X2110192D1*
X2178168D2*
X2254661D1*
X2378187D2*
X2410183D1*
X2478160D2*
X2611960D1*
X2679973D2*
X2788295D1*
X2887312D2*
X2904668D1*
X3010789D2*
X3282923D1*
X3350899D2*
X3674276D1*
X3915465D2*
X4094767D1*
X478962Y2732426D2*
X1209570D1*
X1277547D2*
X1350595D1*
X1427328D2*
X1437612D1*
X1505591D2*
X1608208D1*
X1763957D2*
X1810164D1*
X1878177D2*
X1910173D1*
X1978186D2*
X2010182D1*
X2078195D2*
X2111268D1*
X2189292D2*
X2241348D1*
X2378187D2*
X2410183D1*
X2478160D2*
X2611960D1*
X2679973D2*
X2788295D1*
X2887312D2*
X2929069D1*
X2986352D2*
X3282923D1*
X3350899D2*
X3681847D1*
X3907894D2*
X4094838D1*
X478962Y2707557D2*
X1209570D1*
X1277547D2*
X1333191D1*
X1505591D2*
X1608208D1*
X1763957D2*
X1810164D1*
X1878177D2*
X1910173D1*
X1978186D2*
X2010182D1*
X2078195D2*
X2121423D1*
X2189436D2*
X2241348D1*
X2378187D2*
X2410183D1*
X2478160D2*
X2611960D1*
X2679973D2*
X2788295D1*
X2887312D2*
X3282923D1*
X3350899D2*
X3696201D1*
X3893504D2*
X4094874D1*
X478962Y2682688D2*
X1209570D1*
X1277547D2*
X1330285D1*
X1505591D2*
X1608208D1*
X1763957D2*
X1810164D1*
X1878177D2*
X1910173D1*
X1978186D2*
X2010182D1*
X2078195D2*
X2121423D1*
X2189436D2*
X2258393D1*
X2378187D2*
X2410183D1*
X2478160D2*
X2611960D1*
X2679973D2*
X2788295D1*
X2887312D2*
X3282923D1*
X3350899D2*
X3721356D1*
X3868349D2*
X4094910D1*
X478962Y2657819D2*
X1209570D1*
X1277547D2*
X1339184D1*
X1505591D2*
X1608208D1*
X1763957D2*
X1810164D1*
X1878177D2*
X1910173D1*
X1978186D2*
X2010182D1*
X2078195D2*
X2121423D1*
X2189436D2*
X2204495D1*
X2377900D2*
X2410183D1*
X2478160D2*
X2611960D1*
X2679973D2*
X2788295D1*
X2887312D2*
X3282923D1*
X3350899D2*
X4094946D1*
X478962Y2632951D2*
X1209570D1*
X1277547D2*
X1377652D1*
X1400271D2*
X1437578D1*
X1505591D2*
X1608208D1*
X1763957D2*
X1810164D1*
X1878177D2*
X1910173D1*
X1978186D2*
X2010182D1*
X2078195D2*
X2121423D1*
X2478160D2*
X2611960D1*
X2679973D2*
X2788295D1*
X2887312D2*
X3282923D1*
X3350899D2*
X4095018D1*
X478962Y2608082D2*
X1209570D1*
X1277547D2*
X1437578D1*
X1505591D2*
X1608208D1*
X1763957D2*
X1810164D1*
X1878177D2*
X1910173D1*
X1978186D2*
X2010182D1*
X2078195D2*
X2121423D1*
X2469763D2*
X2611960D1*
X2679973D2*
X2788295D1*
X2887312D2*
X3282923D1*
X3350899D2*
X4095054D1*
X478962Y2583213D2*
X1209570D1*
X1285298D2*
X1437578D1*
X1505591D2*
X1608208D1*
X1763957D2*
X1810164D1*
X1878177D2*
X1910173D1*
X1985291D2*
X2010182D1*
X2078195D2*
X2121423D1*
X2439298D2*
X2551603D1*
X2679973D2*
X2788295D1*
X2887312D2*
X2920349D1*
X3029844D2*
X3282923D1*
X3350899D2*
X4095090D1*
X478962Y2558344D2*
X1216388D1*
X1345476D2*
X1437578D1*
X1505591D2*
X1608208D1*
X1763957D2*
X1810164D1*
X1888870D2*
X1916489D1*
X2078195D2*
X2121423D1*
X2679973D2*
X2788295D1*
X2887312D2*
X2902227D1*
X3058372D2*
X3282923D1*
X3350899D2*
X3708222D1*
X3769704D2*
X4095125D1*
X478962Y2533476D2*
X1240933D1*
X1358825D2*
X1437578D1*
X1505591D2*
X1608208D1*
X1763957D2*
X1819637D1*
X1913738D2*
X1940926D1*
X2078195D2*
X2121423D1*
X2679973D2*
X2788295D1*
X2887312D2*
X2898929D1*
X3062427D2*
X3282923D1*
X3350899D2*
X3683534D1*
X3794356D2*
X4095197D1*
X478962Y2508607D2*
X1066500D1*
X1098951D2*
X1243624D1*
X1359291D2*
X1437578D1*
X1505591D2*
X1608208D1*
X1763957D2*
X1838692D1*
X2078195D2*
X2121423D1*
X2679973D2*
X2788295D1*
X2887312D2*
X2907431D1*
X3051625D2*
X3282923D1*
X3350899D2*
X3676752D1*
X3801138D2*
X3831197D1*
X3870323D2*
X4095233D1*
X478962Y2483738D2*
X1035640D1*
X1129776D2*
X1255646D1*
X1347270D2*
X1437578D1*
X1505591D2*
X1608208D1*
X1763957D2*
X1813824D1*
X2078195D2*
X2121423D1*
X2338284D2*
X2540228D1*
X2679973D2*
X2788295D1*
X2898615D2*
X2942382D1*
X2973075D2*
X3282923D1*
X3350899D2*
X3680842D1*
X3903480D2*
X4095269D1*
X478962Y2458869D2*
X1029719D1*
X1135697D2*
X1437578D1*
X1505591D2*
X1608208D1*
X1763957D2*
X1788956D1*
X1883057D2*
X1894241D1*
X2078195D2*
X2121423D1*
X2679973D2*
X2788295D1*
X2928722D2*
X3282923D1*
X3350899D2*
X3699287D1*
X3778639D2*
X3788971D1*
X3912559D2*
X4095305D1*
X478962Y2434001D2*
X1036932D1*
X1155756D2*
X1437578D1*
X1505591D2*
X1608208D1*
X1858189D2*
X1970136D1*
X2078195D2*
X2121423D1*
X2679973D2*
X2788295D1*
X2933064D2*
X3282923D1*
X3350899D2*
X3689562D1*
X3910477D2*
X4095377D1*
X478962Y2409132D2*
X1086523D1*
X1180624D2*
X1437578D1*
X1505591D2*
X1608208D1*
X1833321D2*
X1964322D1*
X2078195D2*
X2121423D1*
X2307280D2*
X2545682D1*
X2679973D2*
X2788295D1*
X2922658D2*
X3282923D1*
X3350899D2*
X3677936D1*
X3895586D2*
X4095412D1*
X478962Y2384263D2*
X1111427D1*
X1205492D2*
X1437578D1*
X1505591D2*
X1608208D1*
X1808454D2*
X1889719D1*
X2077585D2*
X2121423D1*
X2307280D2*
X2531795D1*
X2679973D2*
X2788295D1*
X2918316D2*
X3282923D1*
X3350899D2*
X3678044D1*
X3896160D2*
X4095448D1*
X478962Y2359394D2*
X1136295D1*
X1230359D2*
X1386264D1*
X1505591D2*
X1608208D1*
X1821121D2*
X1876837D1*
X2060289D2*
X2109295D1*
X2338320D2*
X2352123D1*
X2418162D2*
X2530970D1*
X2679973D2*
X2788295D1*
X2918316D2*
X3282923D1*
X3350899D2*
X3689993D1*
X3910621D2*
X4095484D1*
X478962Y2334525D2*
X1161163D1*
X1301015D2*
X1379948D1*
X1505591D2*
X1608208D1*
X1855067D2*
X1876837D1*
X1944849D2*
X2107285D1*
X2433018D2*
X2542488D1*
X2679973D2*
X2788295D1*
X2918316D2*
X3282923D1*
X3350899D2*
X3698605D1*
X3779321D2*
X3789023D1*
X3912487D2*
X4095520D1*
X478962Y2309657D2*
X1048917D1*
X1159524D2*
X1171885D1*
X1505591D2*
X1608208D1*
X1861993D2*
X1876837D1*
X2446833D2*
X2536926D1*
X2679973D2*
X2788295D1*
X2918316D2*
X3282923D1*
X3350899D2*
X3680663D1*
X3903121D2*
X4095592D1*
X478962Y2284788D2*
X1031908D1*
X1503833D2*
X1608208D1*
X1707547D2*
X1742379D1*
X2467000D2*
X2530001D1*
X2679973D2*
X2788295D1*
X2918316D2*
X3282923D1*
X3350899D2*
X3676788D1*
X3801138D2*
X3816879D1*
X3884641D2*
X4095628D1*
X478962Y2259919D2*
X1030724D1*
X1306470D2*
X1379267D1*
X1489587D2*
X1608208D1*
X1692225D2*
X1759101D1*
X2468902D2*
X2534666D1*
X2679973D2*
X2788295D1*
X2918316D2*
X3282923D1*
X3350899D2*
X3683857D1*
X3907068D2*
X4095664D1*
X478962Y2235050D2*
X1043785D1*
X1254868D2*
X1421574D1*
X1489587D2*
X1608208D1*
X2482682D2*
X2546615D1*
X2679973D2*
X2788295D1*
X2918316D2*
X3282923D1*
X3350899D2*
X3709263D1*
X3768663D2*
X3788495D1*
X3913025D2*
X4095700D1*
X478962Y2210182D2*
X1163029D1*
X1248804D2*
X1421574D1*
X1489587D2*
X1586211D1*
X1892100D2*
X2048543D1*
X2679973D2*
X2788295D1*
X2918316D2*
X3282923D1*
X3350899D2*
X3685113D1*
X3908109D2*
X4095771D1*
X478962Y2185313D2*
X1421574D1*
X1489587D2*
X1565003D1*
X1892100D2*
X2047035D1*
X2679973D2*
X2788295D1*
X2918316D2*
X3282923D1*
X3350899D2*
X3676967D1*
X3800959D2*
X3813506D1*
X3888050D2*
X4095807D1*
X478962Y2160444D2*
X763386D1*
X815215D2*
X1421574D1*
X1692225D2*
X1740764D1*
X1892100D2*
X2061425D1*
X2679973D2*
X2788295D1*
X2918316D2*
X3282923D1*
X3350899D2*
X3679838D1*
X3901542D2*
X4095843D1*
X478962Y2135575D2*
X710673D1*
X867929D2*
X882019D1*
X1892100D2*
X2107393D1*
X2190369D2*
X2267077D1*
X2679973D2*
X2788295D1*
X2918316D2*
X3282923D1*
X3350899D2*
X3695986D1*
X3781904D2*
X3789428D1*
X3912128D2*
X4095879D1*
X478962Y2110707D2*
X687814D1*
X1892100D2*
X2122428D1*
X2190441D2*
X2308559D1*
X2679973D2*
X2788295D1*
X2918316D2*
X3282923D1*
X3350899D2*
X3691895D1*
X3911231D2*
X4095951D1*
X478962Y2085838D2*
X674681D1*
X1561391D2*
X1577204D1*
X1892100D2*
X2070253D1*
X2190441D2*
X2294529D1*
X2679973D2*
X2788295D1*
X2918316D2*
X3282923D1*
X3350899D2*
X3678582D1*
X3898241D2*
X4095987D1*
X478962Y2060969D2*
X668042D1*
X1561391D2*
X1577204D1*
X1892100D2*
X2048830D1*
X2190441D2*
X2296251D1*
X2388916D2*
X2547548D1*
X2679973D2*
X2788295D1*
X2926282D2*
X3282923D1*
X3350899D2*
X3677505D1*
X3800385D2*
X3808324D1*
X3893217D2*
X4096023D1*
X478962Y2036100D2*
X666786D1*
X1561391D2*
X1577204D1*
X1889552D2*
X2039069D1*
X2190441D2*
X2308595D1*
X2376572D2*
X2532297D1*
X2679973D2*
X2788295D1*
X2978099D2*
X3282923D1*
X3350899D2*
X3687840D1*
X3909724D2*
X4096058D1*
X478962Y2011231D2*
X670769D1*
X1188805D2*
X1269533D1*
X1561391D2*
X1577204D1*
X2190441D2*
X2308595D1*
X2412277D2*
X2530647D1*
X2679973D2*
X2788295D1*
X3008851D2*
X3282923D1*
X3350899D2*
X3702337D1*
X3775589D2*
X3788746D1*
X3912810D2*
X4096130D1*
X478962Y1986363D2*
X680530D1*
X1185074D2*
X1269066D1*
X1561391D2*
X1577204D1*
X2190441D2*
X2308595D1*
X2679793D2*
X2788295D1*
X2887312D2*
X2898863D1*
X3016567D2*
X3282923D1*
X3350899D2*
X3681811D1*
X3904880D2*
X4096166D1*
X478962Y1961494D2*
X698041D1*
X1561391D2*
X1577204D1*
X2190441D2*
X2308595D1*
X2665009D2*
X2788295D1*
X2887312D2*
X2902766D1*
X3012655D2*
X3282923D1*
X3351868D2*
X3676680D1*
X3801210D2*
X3821975D1*
X3879545D2*
X4096202D1*
X478962Y1936625D2*
X729978D1*
X848623D2*
X860022D1*
X1561391D2*
X1577204D1*
X1894935D2*
X2038172D1*
X2190441D2*
X2310928D1*
X2647821D2*
X2788295D1*
X2887312D2*
X2922251D1*
X2993170D2*
X3285614D1*
X3376736D2*
X3682421D1*
X3905633D2*
X4096238D1*
X478962Y1911756D2*
X860022D1*
X1234737D2*
X1290740D1*
X1561391D2*
X1577204D1*
X1830881D2*
X2011761D1*
X2101843D2*
X2122428D1*
X2644017D2*
X2788295D1*
X2887312D2*
X3307503D1*
X3401604D2*
X3704347D1*
X3773579D2*
X3788639D1*
X3912918D2*
X4096310D1*
X478962Y1886888D2*
X860022D1*
X1230108D2*
X1284927D1*
X1561391D2*
X1577204D1*
X1811647D2*
X2008209D1*
X2624783D2*
X2788295D1*
X2887312D2*
X3332371D1*
X3426472D2*
X3686907D1*
X3909257D2*
X4096345D1*
X478962Y1862019D2*
X860022D1*
X1354124D2*
X1375571D1*
X1561391D2*
X1577204D1*
X1676220D2*
X1691423D1*
X1786995D2*
X2019620D1*
X2603970D2*
X2788295D1*
X2887312D2*
X3357239D1*
X3451339D2*
X3677290D1*
X3800600D2*
X3809882D1*
X3891674D2*
X4096381D1*
X478962Y1837150D2*
X860022D1*
X1329256D2*
X1375571D1*
X1561391D2*
X1577204D1*
X1676220D2*
X2065623D1*
X2207845D2*
X2510874D1*
X2599485D2*
X2788295D1*
X2887312D2*
X3382107D1*
X3476207D2*
X3678941D1*
X3899389D2*
X4096417D1*
X478962Y1812281D2*
X801782D1*
X1188734D2*
X1242763D1*
X1310166D2*
X1375571D1*
X1561391D2*
X1577204D1*
X1676220D2*
X2142954D1*
X2182259D2*
X2541878D1*
X2568481D2*
X2788295D1*
X2887312D2*
X3406974D1*
X3501075D2*
X3693151D1*
X3911554D2*
X4096489D1*
X478962Y1787413D2*
X785958D1*
X1185468D2*
X1228481D1*
X1324448D2*
X1375571D1*
X1561391D2*
X1577204D1*
X1676220D2*
X2788295D1*
X2887312D2*
X2911808D1*
X3003648D2*
X3431842D1*
X3525943D2*
X3694586D1*
X3911877D2*
X4096525D1*
X478962Y1762544D2*
X695745D1*
X771042D2*
X783266D1*
X1068629D2*
X1084299D1*
X1322905D2*
X1375571D1*
X1561391D2*
X1577204D1*
X1676220D2*
X2788295D1*
X2887312D2*
X2899859D1*
X3015562D2*
X3456710D1*
X3550810D2*
X3679407D1*
X3900538D2*
X4096561D1*
X478962Y1737675D2*
X675937D1*
X1014588D2*
X1138089D1*
X1302451D2*
X1375571D1*
X1561391D2*
X1577204D1*
X1676220D2*
X2788295D1*
X2887312D2*
X2900361D1*
X3015059D2*
X3481578D1*
X3575678D2*
X3677111D1*
X3800815D2*
X3811676D1*
X3889844D2*
X4096597D1*
X478962Y1712806D2*
X671164D1*
X795658D2*
X815347D1*
X1027219D2*
X1143041D1*
X1258528D2*
X1375571D1*
X1561391D2*
X1577204D1*
X1676220D2*
X2788295D1*
X2887312D2*
X2913818D1*
X3001603D2*
X3506481D1*
X3600546D2*
X3685938D1*
X3908683D2*
X4096633D1*
X478962Y1687938D2*
X677228D1*
X1028439D2*
X1177992D1*
X1195839D2*
X1375571D1*
X1561391D2*
X1577204D1*
X1676220D2*
X1725083D1*
X2417049D2*
X2788295D1*
X2887312D2*
X3531349D1*
X3625414D2*
X3706787D1*
X3771139D2*
X3788567D1*
X3912989D2*
X4096704D1*
X478962Y1663069D2*
X699943D1*
X766843D2*
X783051D1*
X1013547D2*
X1375571D1*
X1561391D2*
X1577204D1*
X1676220D2*
X1708791D1*
X2606626D2*
X2788295D1*
X2887312D2*
X3556217D1*
X3650281D2*
X3683139D1*
X3906423D2*
X4096740D1*
X478962Y1638200D2*
X681104D1*
X944004D2*
X1375571D1*
X1561391D2*
X1577204D1*
X1676220D2*
X1708396D1*
X1776409D2*
X1786946D1*
X2606626D2*
X2788295D1*
X2887312D2*
X3581084D1*
X3801174D2*
X3819176D1*
X3882344D2*
X4096776D1*
X478962Y1613331D2*
X671702D1*
X795120D2*
X804976D1*
X944004D2*
X1375571D1*
X1561391D2*
X1577204D1*
X1676220D2*
X1708396D1*
X2606626D2*
X2788295D1*
X2887312D2*
X3605952D1*
X3903982D2*
X4096812D1*
X478962Y1588462D2*
X673496D1*
X944004D2*
X1375571D1*
X1676220D2*
X1708396D1*
X1776409D2*
X1787326D1*
X2606626D2*
X2788295D1*
X2887312D2*
X3630820D1*
X3777598D2*
X3788892D1*
X3912666D2*
X4096884D1*
X478962Y1563594D2*
X687958D1*
X944004D2*
X1375571D1*
X1693230D2*
X1708396D1*
X1776409D2*
X1808836D1*
X1879540D2*
X1908810D1*
X2079523D2*
X2108828D1*
X2179532D2*
X2208837D1*
X2279541D2*
X2308811D1*
X2379515D2*
X2408820D1*
X2606626D2*
X2788295D1*
X2887312D2*
X2928602D1*
X2986819D2*
X3655688D1*
X3910226D2*
X4096920D1*
X478962Y1538725D2*
X688998D1*
X944004D2*
X1375571D1*
X1776409D2*
X1910173D1*
X2078195D2*
X2108756D1*
X2178168D2*
X2510193D1*
X2578169D2*
X2788295D1*
X2887312D2*
X2904524D1*
X3010897D2*
X3677792D1*
X3894796D2*
X4096956D1*
X478962Y1513856D2*
X673819D1*
X944004D2*
X1375571D1*
X1619846D2*
X1648900D1*
X1776409D2*
X1910173D1*
X2078195D2*
X2108685D1*
X2176697D2*
X2510193D1*
X2578169D2*
X2788295D1*
X2887312D2*
X2898732D1*
X3016710D2*
X3678223D1*
X3896913D2*
X4096991D1*
X478962Y1488987D2*
X671559D1*
X795228D2*
X806340D1*
X944004D2*
X1375571D1*
X1619631D2*
X1673768D1*
X1776409D2*
X1871024D1*
X2078195D2*
X2108685D1*
X2176697D2*
X2510193D1*
X2578169D2*
X2788295D1*
X2887312D2*
X2904416D1*
X3011004D2*
X3690639D1*
X3910872D2*
X4097063D1*
X478962Y1464119D2*
X680422D1*
X944004D2*
X1375571D1*
X1628817D2*
X1685323D1*
X1776409D2*
X1843752D1*
X2078195D2*
X2108685D1*
X2176697D2*
X2510193D1*
X2578169D2*
X2788295D1*
X2887312D2*
X2928243D1*
X2987213D2*
X3697636D1*
X3780254D2*
X3789153D1*
X3912379D2*
X4097099D1*
X478962Y1439250D2*
X701809D1*
X764977D2*
X782979D1*
X944004D2*
X1375571D1*
X1776409D2*
X1798502D1*
X2078195D2*
X2108685D1*
X2176697D2*
X2510193D1*
X2578169D2*
X2788295D1*
X3902583D2*
X4097135D1*
X478962Y1414381D2*
X677767D1*
X944004D2*
X1375571D1*
X1776409D2*
X1789064D1*
X2198909D2*
X2483100D1*
X2578169D2*
X2788295D1*
X3801067D2*
X3815623D1*
X3885897D2*
X4097171D1*
X478962Y1389512D2*
X671200D1*
X940953D2*
X1375571D1*
X1776409D2*
X1794196D1*
X1894181D2*
X1910173D1*
X2347757D2*
X2454787D1*
X2578169D2*
X2788295D1*
X3907463D2*
X4097243D1*
X478962Y1364644D2*
X675470D1*
X918669D2*
X1375571D1*
X1628961D2*
X1682309D1*
X1805619D2*
X1831910D1*
X1843989D2*
X1910173D1*
X2578169D2*
X2789802D1*
X2878879D2*
X3710878D1*
X3767048D2*
X3788495D1*
X3913025D2*
X4097278D1*
X478962Y1339775D2*
X694309D1*
X772477D2*
X782943D1*
X907473D2*
X1375571D1*
X2207845D2*
X2303392D1*
X2578169D2*
X2809646D1*
X2903747D2*
X3684646D1*
X3907750D2*
X4097314D1*
X478962Y1314906D2*
X782943D1*
X907473D2*
X1375571D1*
X2176697D2*
X2306119D1*
X2578169D2*
X2834514D1*
X2959224D2*
X3676895D1*
X3801031D2*
X3814655D1*
X3886902D2*
X4097350D1*
X478962Y1290037D2*
X782943D1*
X907473D2*
X1376755D1*
X1940364D2*
X1954634D1*
X2176697D2*
X2318105D1*
X2578169D2*
X2859382D1*
X2985240D2*
X3680125D1*
X3902116D2*
X4097422D1*
X478962Y1265169D2*
X1395881D1*
X1771206D2*
X1797892D1*
X1870067D2*
X1954634D1*
X2176697D2*
X2311502D1*
X2416404D2*
X2430817D1*
X2578169D2*
X2873735D1*
X2991699D2*
X3696883D1*
X3781043D2*
X3789265D1*
X3912272D2*
X4097458D1*
X478962Y1240300D2*
X1530160D1*
X1610265D2*
X1692392D1*
X1760405D2*
X1802090D1*
X1870067D2*
X1954634D1*
X2176697D2*
X2304971D1*
X2500050D2*
X2510154D1*
X2578169D2*
X2878831D1*
X2986603D2*
X3676680D1*
X3911052D2*
X4097494D1*
X478962Y1215431D2*
X1692392D1*
X1760405D2*
X1802090D1*
X1870067D2*
X1954634D1*
X2176697D2*
X2293596D1*
X2475182D2*
X2510193D1*
X2578169D2*
X2900936D1*
X2964499D2*
X3676680D1*
X3897523D2*
X4097530D1*
X478962Y1190562D2*
X1692392D1*
X1760405D2*
X1802090D1*
X1870067D2*
X1954634D1*
X2201888D2*
X2268728D1*
X2450314D2*
X2510193D1*
X2578169D2*
X3676680D1*
X3801210D2*
X4097601D1*
X478962Y1165693D2*
X732059D1*
X846578D2*
X1692392D1*
X1760405D2*
X1777904D1*
X1879074D2*
X1954634D1*
X2425446D2*
X2510193D1*
X2578169D2*
X3676680D1*
X3801210D2*
X4097637D1*
X478962Y1140825D2*
X699046D1*
X879556D2*
X1692392D1*
X1885030D2*
X1954634D1*
X2422001D2*
X2510193D1*
X2578169D2*
X4097673D1*
X478962Y1115956D2*
X681140D1*
X897498D2*
X1692392D1*
X2288189D2*
X2317351D1*
X2410590D2*
X2510193D1*
X2578169D2*
X4097709D1*
X478962Y1091087D2*
X671056D1*
X907545D2*
X1692392D1*
X2151794D2*
X2312004D1*
X2415901D2*
X2510193D1*
X2578169D2*
X4097745D1*
X478962Y1066218D2*
X666858D1*
X911780D2*
X1699138D1*
X1813298D2*
X1927075D1*
X2156674D2*
X2305007D1*
X2422899D2*
X2510193D1*
X2578169D2*
X2909225D1*
X2956209D2*
X4097817D1*
X478962Y1041350D2*
X667863D1*
X910739D2*
X1723683D1*
X1822018D2*
X1927075D1*
X2578169D2*
X2880912D1*
X2984522D2*
X3754584D1*
X3835157D2*
X4097853D1*
X478962Y1016481D2*
X674250D1*
X904352D2*
X1729891D1*
X1816276D2*
X1927075D1*
X2573325D2*
X2873771D1*
X2991663D2*
X3711846D1*
X3877895D2*
X4097889D1*
X478962Y991612D2*
X687061D1*
X891541D2*
X1739077D1*
X1807090D2*
X1927075D1*
X2548960D2*
X2878221D1*
X2987177D2*
X3690854D1*
X3898887D2*
X4097924D1*
X478962Y966743D2*
X709381D1*
X869221D2*
X1739077D1*
X1807090D2*
X1927075D1*
X2168516D2*
X2305760D1*
X2433700D2*
X2898890D1*
X2966544D2*
X3678833D1*
X3910872D2*
X4097996D1*
X478962Y941875D2*
X758470D1*
X820131D2*
X1608387D1*
X1676041D2*
X1739077D1*
X1807090D2*
X1927075D1*
X2451965D2*
X3673056D1*
X3916685D2*
X4098032D1*
X478962Y917006D2*
X1594177D1*
X1690215D2*
X1739077D1*
X1807090D2*
X1927075D1*
X2452539D2*
X3672589D1*
X3917116D2*
X4098068D1*
X478962Y892137D2*
X1595828D1*
X1688600D2*
X1718839D1*
X1806265D2*
X1927075D1*
X2438975D2*
X3677398D1*
X3912308D2*
X4098104D1*
X478962Y867268D2*
X543452D1*
X646990D2*
X1608208D1*
X1676220D2*
X1693971D1*
X1788071D2*
X1927075D1*
X2438975D2*
X3688199D1*
X3901542D2*
X4098176D1*
X478962Y842399D2*
X502149D1*
X688257D2*
X1608208D1*
X1763168D2*
X1927075D1*
X2138229D2*
X2322734D1*
X2438975D2*
X3707217D1*
X3882524D2*
X4098211D1*
X710577Y817531D2*
X1608208D1*
X1738300D2*
X1927075D1*
X2117668D2*
X2307339D1*
X2427276D2*
X2912849D1*
X2952549D2*
X3743245D1*
X3846460D2*
X4098247D1*
X724356Y792662D2*
X1047553D1*
X1117862D2*
X1247572D1*
X1317845D2*
X1608208D1*
X1894324D2*
X1927075D1*
X2079846D2*
X2305617D1*
X2422289D2*
X2881666D1*
X2983768D2*
X4098283D1*
X732251Y767793D2*
X1016478D1*
X1148938D2*
X1216496D1*
X1348921D2*
X1608208D1*
X1903941D2*
X1927075D1*
X2411990D2*
X2873843D1*
X2991555D2*
X4098355D1*
X735265Y742924D2*
X1003918D1*
X1161498D2*
X1203937D1*
X1361480D2*
X1608208D1*
X1903941D2*
X1927075D1*
X2414860D2*
X2877683D1*
X2987716D2*
X4098391D1*
X733794Y718056D2*
X1000581D1*
X1164835D2*
X1200599D1*
X1364853D2*
X1608208D1*
X1676220D2*
X1835929D1*
X1903941D2*
X1918211D1*
X2422791D2*
X2896988D1*
X2968446D2*
X3906052D1*
X4034386D2*
X4098427D1*
X727586Y693187D2*
X1005210D1*
X1360224D2*
X1608208D1*
X1676220D2*
X1835929D1*
X1903941D2*
X1912136D1*
X2010051D2*
X2136818D1*
X2204830D2*
X2308847D1*
X2419095D2*
X3871244D1*
X4069157D2*
X4098463D1*
X715960Y668318D2*
X1019599D1*
X1345799D2*
X1608208D1*
X1676220D2*
X1835929D1*
X2204830D2*
X2327865D1*
X2400040D2*
X3851221D1*
X4089181D2*
X4098534D1*
X478962Y643449D2*
X493430D1*
X697013D2*
X1058247D1*
X1307187D2*
X1608208D1*
X1676220D2*
X1841276D1*
X2204830D2*
X3838876D1*
X478962Y618581D2*
X525618D1*
X664789D2*
X1104501D1*
X1260897D2*
X1608208D1*
X1676220D2*
X1866287D1*
X2204830D2*
X3832130D1*
X478962Y593712D2*
X1050029D1*
X1315405D2*
X1608208D1*
X1676220D2*
X2136818D1*
X2204830D2*
X3830085D1*
X478962Y568843D2*
X1017303D1*
X1348131D2*
X1608208D1*
X1676220D2*
X2136818D1*
X2204830D2*
X3832597D1*
X478962Y543974D2*
X1004241D1*
X1161175D2*
X1204259D1*
X1361157D2*
X1608244D1*
X2204794D2*
X3839881D1*
X478962Y519106D2*
X1000581D1*
X1164871D2*
X1200563D1*
X1364853D2*
X1621305D1*
X2191733D2*
X3852907D1*
X4087530D2*
X4098786D1*
X478962Y494237D2*
X1004851D1*
X1160565D2*
X1204834D1*
X1360583D2*
X3873971D1*
X4066466D2*
X4098821D1*
X478962Y469368D2*
X1018738D1*
X1146677D2*
X1218721D1*
X1346696D2*
X3911542D1*
X4028895D2*
X4098857D1*
X478962Y444499D2*
X1054874D1*
X1110542D2*
X1254856D1*
X1310561D2*
X4098929D1*
X732537Y3629578D2*
X731619Y3620440D1*
X730093Y3611382D1*
X727967Y3602447D1*
X725249Y3593674D1*
X721953Y3585101D1*
X718092Y3576767D1*
X713684Y3568710D1*
X708748Y3560964D1*
X703307Y3553565D1*
X697384Y3546545D1*
X691006Y3539936D1*
X684202Y3533767D1*
X677001Y3528065D1*
X669436Y3522857D1*
X661541Y3518164D1*
X653350Y3514009D1*
X644900Y3510409D1*
X636229Y3507381D1*
X627375Y3504937D1*
X618378Y3503090D1*
X609278Y3501847D1*
X600115Y3501214D1*
X590931Y3501193D1*
X581765Y3501785D1*
X572659Y3502987D1*
X563654Y3504793D1*
X554790Y3507196D1*
X546105Y3510185D1*
X537639Y3513747D1*
X529429Y3517865D1*
X521513Y3522522D1*
X513924Y3527696D1*
X506698Y3533365D1*
X499866Y3539503D1*
X493458Y3546084D1*
X487503Y3553077D1*
X482029Y3560451D1*
X476450Y3569273D1*
X476462Y3362038D1*
X485430Y3365227D1*
X494379Y3367283D1*
X503504Y3368296D1*
X512685Y3368252D1*
X521800Y3367152D1*
X530728Y3365010D1*
X539350Y3361855D1*
X547552Y3357728D1*
X555224Y3352686D1*
X562265Y3346793D1*
X568582Y3340130D1*
X574089Y3332784D1*
X578715Y3324853D1*
X582397Y3316442D1*
X585086Y3307664D1*
X586748Y3298634D1*
X587360Y3289473D1*
X587024Y3281419D1*
X585652Y3272341D1*
X583245Y3263481D1*
X581975Y3259964D1*
X590038Y3262378D1*
X595869Y3263538D1*
X601773Y3264237D1*
X607713Y3264470D1*
X613653Y3264237D1*
X619557Y3263538D1*
X625388Y3262378D1*
X633484Y3259889D1*
X630704Y3268418D1*
X628875Y3277415D1*
X628094Y3286563D1*
X628370Y3295740D1*
X629701Y3304824D1*
X632068Y3313695D1*
X635440Y3322235D1*
X639773Y3330329D1*
X645008Y3337872D1*
X651077Y3344761D1*
X657898Y3350907D1*
X665381Y3356227D1*
X673427Y3360650D1*
X681928Y3364118D1*
X690771Y3366585D1*
X699840Y3368017D1*
X709014Y3368397D1*
X718170Y3367718D1*
X727187Y3365990D1*
X735945Y3363236D1*
X744329Y3359492D1*
X752225Y3354809D1*
X759531Y3349247D1*
X766148Y3342882D1*
X771988Y3335798D1*
X776974Y3328089D1*
X781040Y3319857D1*
X784132Y3311212D1*
X786208Y3302269D1*
X787242Y3293146D1*
X787278Y3285085D1*
X786327Y3275953D1*
X784331Y3266991D1*
X781317Y3258318D1*
X777325Y3250050D1*
X772408Y3242297D1*
X766632Y3235160D1*
X760072Y3228736D1*
X752817Y3223110D1*
X744963Y3218355D1*
X736613Y3214536D1*
X727880Y3211704D1*
X718879Y3209895D1*
X709729Y3209134D1*
X700553Y3209431D1*
X691471Y3210782D1*
X682606Y3213169D1*
X678913Y3214500D1*
X681334Y3206432D1*
X682494Y3200602D1*
X683192Y3194698D1*
X683426Y3188758D1*
X683192Y3182817D1*
X682494Y3176914D1*
X681334Y3171083D1*
X678844Y3162986D1*
X687200Y3165721D1*
X696193Y3167570D1*
X705339Y3168372D1*
X714517Y3168116D1*
X723604Y3166806D1*
X732481Y3164459D1*
X741028Y3161106D1*
X749132Y3156791D1*
X756686Y3151573D1*
X763589Y3145520D1*
X769750Y3138712D1*
X775087Y3131241D1*
X779528Y3123206D1*
X783015Y3114712D1*
X785502Y3105874D1*
X786955Y3096809D1*
X787363Y3088758D1*
X786834Y3079592D1*
X785253Y3070548D1*
X782642Y3061745D1*
X779036Y3053302D1*
X774482Y3045330D1*
X769041Y3037935D1*
X762785Y3031215D1*
X755797Y3025259D1*
X748170Y3020148D1*
X740006Y3015948D1*
X731412Y3012716D1*
X722504Y3010493D1*
X713399Y3009311D1*
X704219Y3009185D1*
X695085Y3010116D1*
X686119Y3012091D1*
X677439Y3015086D1*
X669162Y3019059D1*
X661398Y3023959D1*
X654248Y3029719D1*
X647809Y3036264D1*
X642166Y3043506D1*
X637394Y3051350D1*
X633557Y3059691D1*
X630704Y3068418D1*
X628875Y3077415D1*
X628094Y3086563D1*
X628370Y3095740D1*
X629701Y3104824D1*
X632068Y3113695D1*
X633454Y3117551D1*
X625388Y3115137D1*
X619557Y3113977D1*
X613653Y3113279D1*
X607713Y3113045D1*
X601773Y3113279D1*
X595869Y3113977D1*
X590038Y3115137D1*
X581942Y3117627D1*
X584630Y3109444D1*
X586499Y3100455D1*
X587322Y3091310D1*
X587172Y3083250D1*
X586010Y3074143D1*
X583808Y3065230D1*
X580595Y3056629D1*
X576414Y3048455D1*
X571319Y3040817D1*
X565380Y3033816D1*
X558674Y3027545D1*
X551291Y3022087D1*
X543329Y3017515D1*
X534894Y3013889D1*
X526097Y3011259D1*
X517057Y3009658D1*
X507892Y3009108D1*
X498725Y3009617D1*
X489677Y3011177D1*
X480869Y3013768D1*
X476468Y3015498D1*
X476462Y808304D1*
X481325Y816038D1*
X486732Y823462D1*
X492623Y830509D1*
X498971Y837147D1*
X505748Y843346D1*
X512922Y849081D1*
X520464Y854323D1*
X528338Y859051D1*
X536510Y863244D1*
X544943Y866882D1*
X553601Y869949D1*
X562443Y872432D1*
X571432Y874320D1*
X580526Y875605D1*
X589686Y876279D1*
X598870Y876342D1*
X608039Y875791D1*
X617150Y874631D1*
X626163Y872865D1*
X635038Y870502D1*
X643737Y867552D1*
X652219Y864029D1*
X660447Y859948D1*
X668384Y855327D1*
X675996Y850187D1*
X683248Y844551D1*
X690108Y838444D1*
X696545Y831893D1*
X702531Y824927D1*
X708040Y817577D1*
X713045Y809876D1*
X717526Y801859D1*
X721462Y793560D1*
X724836Y785018D1*
X727633Y776269D1*
X729840Y767354D1*
X731447Y758311D1*
X732448Y749181D1*
X732843Y738759D1*
X732537Y729580D1*
X731619Y720441D1*
X730093Y711384D1*
X727967Y702449D1*
X725249Y693675D1*
X721953Y685102D1*
X718092Y676769D1*
X713684Y668711D1*
X708748Y660965D1*
X703307Y653566D1*
X697384Y646546D1*
X691006Y639937D1*
X684202Y633768D1*
X677001Y628066D1*
X669436Y622858D1*
X661541Y618165D1*
X653350Y614010D1*
X644900Y610410D1*
X636229Y607382D1*
X627375Y604939D1*
X618378Y603092D1*
X609278Y601849D1*
X600115Y601215D1*
X590931Y601194D1*
X581765Y601786D1*
X572659Y602988D1*
X563654Y604795D1*
X554790Y607198D1*
X546105Y610187D1*
X537639Y613748D1*
X529429Y617866D1*
X521513Y622523D1*
X513924Y627697D1*
X506698Y633366D1*
X499866Y639505D1*
X493458Y646085D1*
X487503Y653078D1*
X482029Y660452D1*
X476450Y669275D1*
X476462Y432525D1*
X4101435Y432509D1*
X4101225Y552865D1*
X4096953Y541352D1*
X4093092Y533018D1*
X4088684Y524960D1*
X4083748Y517215D1*
X4078307Y509815D1*
X4072384Y502796D1*
X4066006Y496186D1*
X4059202Y490017D1*
X4052001Y484316D1*
X4044436Y479107D1*
X4036541Y474415D1*
X4028350Y470259D1*
X4019900Y466660D1*
X4011229Y463631D1*
X4002375Y461188D1*
X3993378Y459341D1*
X3984278Y458098D1*
X3975115Y457465D1*
X3965931Y457444D1*
X3956765Y458036D1*
X3947659Y459237D1*
X3938654Y461044D1*
X3929790Y463447D1*
X3921105Y466436D1*
X3912639Y469998D1*
X3904429Y474116D1*
X3896513Y478773D1*
X3888924Y483947D1*
X3881698Y489616D1*
X3874866Y495754D1*
X3868458Y502334D1*
X3862503Y509327D1*
X3857029Y516702D1*
X3852058Y524425D1*
X3847613Y532463D1*
X3843715Y540779D1*
X3840379Y549337D1*
X3837622Y558098D1*
X3835456Y567023D1*
X3833889Y576073D1*
X3832930Y585208D1*
X3832582Y594386D1*
X3832847Y603566D1*
X3833724Y612709D1*
X3835208Y621773D1*
X3837294Y630718D1*
X3839971Y639503D1*
X3843229Y648091D1*
X3847052Y656442D1*
X3851424Y664520D1*
X3856325Y672288D1*
X3861732Y679711D1*
X3867623Y686758D1*
X3873971Y693396D1*
X3880748Y699596D1*
X3887922Y705330D1*
X3895464Y710573D1*
X3903338Y715301D1*
X3911510Y719493D1*
X3919943Y723131D1*
X3928601Y726199D1*
X3937443Y728682D1*
X3946432Y730570D1*
X3955526Y731854D1*
X3964686Y732529D1*
X3973870Y732591D1*
X3983039Y732041D1*
X3992150Y730880D1*
X4001163Y729114D1*
X4010038Y726751D1*
X4018737Y723802D1*
X4027219Y720278D1*
X4035447Y716197D1*
X4043384Y711577D1*
X4050996Y706437D1*
X4058248Y700801D1*
X4065108Y694693D1*
X4071545Y688142D1*
X4077531Y681176D1*
X4083040Y673826D1*
X4088045Y666126D1*
X4092526Y658108D1*
X4096462Y649810D1*
X4101071Y637406D1*
X4096566Y3041860D1*
X4088712Y3037106D1*
X4080363Y3033287D1*
X4071629Y3030454D1*
X4062628Y3028645D1*
X4053478Y3027884D1*
X4044302Y3028181D1*
X4035221Y3029532D1*
X4026355Y3031919D1*
X4017823Y3035311D1*
X4009738Y3039662D1*
X4002208Y3044914D1*
X3995332Y3050998D1*
X3989202Y3057833D1*
X3983899Y3065328D1*
X3979493Y3073383D1*
X3976044Y3081892D1*
X3973598Y3090741D1*
X3972185Y3099813D1*
X3971827Y3108988D1*
X3972526Y3118142D1*
X3974274Y3127156D1*
X3977048Y3135908D1*
X3977203Y3136302D1*
X3969137Y3133888D1*
X3963307Y3132728D1*
X3957403Y3132029D1*
X3951462Y3131796D1*
X3945522Y3132029D1*
X3939618Y3132728D1*
X3933788Y3133888D1*
X3925691Y3136378D1*
X3928379Y3128194D1*
X3930249Y3119205D1*
X3931071Y3110061D1*
X3930921Y3102001D1*
X3929760Y3092894D1*
X3927558Y3083980D1*
X3924345Y3075380D1*
X3920163Y3067206D1*
X3915069Y3059568D1*
X3909129Y3052566D1*
X3902423Y3046295D1*
X3895040Y3040837D1*
X3887078Y3036265D1*
X3878643Y3032640D1*
X3869847Y3030010D1*
X3860806Y3028409D1*
X3851641Y3027859D1*
X3842474Y3028368D1*
X3833426Y3029928D1*
X3824618Y3032519D1*
X3816167Y3036106D1*
X3808185Y3040642D1*
X3800777Y3046067D1*
X3794043Y3052308D1*
X3788072Y3059282D1*
X3782944Y3066898D1*
X3778725Y3075052D1*
X3775474Y3083639D1*
X3773232Y3092542D1*
X3772029Y3101644D1*
X3771882Y3110824D1*
X3772792Y3119960D1*
X3774748Y3128931D1*
X3777723Y3137617D1*
X3781677Y3145903D1*
X3786559Y3153678D1*
X3792304Y3160840D1*
X3798834Y3167294D1*
X3806064Y3172953D1*
X3813897Y3177743D1*
X3822229Y3181599D1*
X3830950Y3184471D1*
X3839943Y3186321D1*
X3849089Y3187123D1*
X3858266Y3186867D1*
X3867354Y3185557D1*
X3876230Y3183209D1*
X3880263Y3181764D1*
X3877842Y3189834D1*
X3876682Y3195664D1*
X3875983Y3201568D1*
X3875750Y3207508D1*
X3875983Y3213449D1*
X3876682Y3219352D1*
X3877842Y3225183D1*
X3880332Y3233280D1*
X3871629Y3230454D1*
X3862628Y3228645D1*
X3853478Y3227884D1*
X3844302Y3228181D1*
X3835221Y3229532D1*
X3826355Y3231919D1*
X3817823Y3235311D1*
X3809738Y3239662D1*
X3802208Y3244914D1*
X3795332Y3250998D1*
X3789202Y3257833D1*
X3783899Y3265328D1*
X3779493Y3273383D1*
X3776044Y3281892D1*
X3773598Y3290741D1*
X3772185Y3299813D1*
X3771827Y3308988D1*
X3772526Y3318142D1*
X3774274Y3327156D1*
X3777048Y3335908D1*
X3780810Y3344283D1*
X3785512Y3352169D1*
X3791089Y3359462D1*
X3797469Y3366064D1*
X3804567Y3371889D1*
X3812287Y3376858D1*
X3820528Y3380905D1*
X3829180Y3383978D1*
X3838128Y3386034D1*
X3847253Y3387047D1*
X3856434Y3387003D1*
X3865549Y3385902D1*
X3874477Y3383760D1*
X3883099Y3380605D1*
X3891301Y3376479D1*
X3898974Y3371436D1*
X3906015Y3365544D1*
X3912331Y3358881D1*
X3917838Y3351535D1*
X3922464Y3343604D1*
X3926146Y3335193D1*
X3928836Y3326415D1*
X3930497Y3317385D1*
X3931109Y3308224D1*
X3930773Y3300170D1*
X3929402Y3291091D1*
X3926995Y3282231D1*
X3925725Y3278715D1*
X3933788Y3281129D1*
X3939618Y3282289D1*
X3945522Y3282988D1*
X3951462Y3283221D1*
X3957403Y3282988D1*
X3963307Y3282289D1*
X3969137Y3281129D1*
X3977234Y3278639D1*
X3974454Y3287168D1*
X3972625Y3296166D1*
X3971843Y3305314D1*
X3972119Y3314491D1*
X3973450Y3323575D1*
X3975817Y3332446D1*
X3979190Y3340985D1*
X3983522Y3349080D1*
X3988758Y3356622D1*
X3994826Y3363512D1*
X4001647Y3369658D1*
X4009130Y3374977D1*
X4017176Y3379401D1*
X4025677Y3382869D1*
X4034521Y3385335D1*
X4043589Y3386768D1*
X4052763Y3387147D1*
X4061919Y3386469D1*
X4070936Y3384741D1*
X4079695Y3381987D1*
X4088078Y3378243D1*
X4096181Y3373416D1*
X4095616Y3688277D1*
X4088684Y3674960D1*
X4083748Y3667215D1*
X4078307Y3659815D1*
X4072384Y3652796D1*
X4066006Y3646186D1*
X4059202Y3640017D1*
X4052001Y3634316D1*
X4044436Y3629107D1*
X4036541Y3624415D1*
X4028350Y3620259D1*
X4019900Y3616660D1*
X4011229Y3613631D1*
X4002375Y3611188D1*
X3993378Y3609341D1*
X3984278Y3608098D1*
X3975115Y3607465D1*
X3965931Y3607444D1*
X3956765Y3608036D1*
X3947659Y3609237D1*
X3938654Y3611044D1*
X3929790Y3613447D1*
X3921105Y3616436D1*
X3912639Y3619998D1*
X3904429Y3624116D1*
X3896513Y3628773D1*
X3888924Y3633947D1*
X3881698Y3639616D1*
X3874866Y3645754D1*
X3868458Y3652334D1*
X3862503Y3659327D1*
X3857029Y3666702D1*
X3852058Y3674425D1*
X3847613Y3682463D1*
X3843715Y3690779D1*
X3840379Y3699337D1*
X3837622Y3708098D1*
X3835456Y3717023D1*
X3833889Y3726073D1*
X3832930Y3735208D1*
X3832582Y3744386D1*
X3832847Y3753566D1*
X3833724Y3762709D1*
X3835208Y3771773D1*
X3837294Y3780718D1*
X3839971Y3789503D1*
X3843229Y3798091D1*
X3847052Y3806442D1*
X3851424Y3814520D1*
X3856325Y3822288D1*
X3861732Y3829711D1*
X3867623Y3836758D1*
X3873971Y3843396D1*
X3880748Y3849596D1*
X3887922Y3855330D1*
X3895464Y3860573D1*
X3903338Y3865301D1*
X3911510Y3869493D1*
X3919943Y3873131D1*
X3928601Y3876199D1*
X3937443Y3878682D1*
X3946432Y3880570D1*
X3955526Y3881854D1*
X3964686Y3882529D1*
X3973870Y3882591D1*
X3983039Y3882041D1*
X3992150Y3880880D1*
X4001163Y3879114D1*
X4010038Y3876751D1*
X4018737Y3873802D1*
X4027219Y3870278D1*
X4035447Y3866197D1*
X4043384Y3861577D1*
X4050996Y3856437D1*
X4058248Y3850801D1*
X4065108Y3844693D1*
X4071545Y3838142D1*
X4077531Y3831176D1*
X4083040Y3823826D1*
X4088045Y3816126D1*
X4092526Y3808108D1*
X4095401Y3802046D1*
X4095235Y3901285D1*
X1364116Y3901258D1*
X1369749Y3894963D1*
X1375085Y3887492D1*
X1379527Y3879456D1*
X1383014Y3870963D1*
X1385501Y3862125D1*
X1386953Y3853059D1*
X1387361Y3845008D1*
X1386832Y3835842D1*
X1385252Y3826798D1*
X1382641Y3817996D1*
X1379035Y3809553D1*
X1374481Y3801580D1*
X1369039Y3794185D1*
X1362783Y3787465D1*
X1355795Y3781510D1*
X1348169Y3776399D1*
X1340004Y3772199D1*
X1331411Y3768966D1*
X1322503Y3766744D1*
X1313398Y3765562D1*
X1304217Y3765435D1*
X1295083Y3766366D1*
X1286117Y3768342D1*
X1278912Y3770751D1*
X1281332Y3762683D1*
X1282492Y3756852D1*
X1283191Y3750949D1*
X1283424Y3745008D1*
X1283191Y3739068D1*
X1282492Y3733164D1*
X1281332Y3727334D1*
X1278843Y3719237D1*
X1287199Y3721971D1*
X1296192Y3723821D1*
X1305338Y3724623D1*
X1314516Y3724367D1*
X1323603Y3723057D1*
X1332479Y3720709D1*
X1341026Y3717356D1*
X1349131Y3713042D1*
X1356685Y3707823D1*
X1363588Y3701770D1*
X1369749Y3694963D1*
X1375085Y3687492D1*
X1379527Y3679456D1*
X1383014Y3670963D1*
X1385501Y3662125D1*
X1386953Y3653059D1*
X1387361Y3645008D1*
X1386832Y3635842D1*
X1385252Y3626798D1*
X1382641Y3617996D1*
X1379035Y3609553D1*
X1374481Y3601580D1*
X1369039Y3594185D1*
X1362783Y3587465D1*
X1355795Y3581510D1*
X1348169Y3576399D1*
X1340004Y3572199D1*
X1331411Y3568966D1*
X1322503Y3566744D1*
X1313398Y3565562D1*
X1304217Y3565435D1*
X1295083Y3566366D1*
X1286117Y3568342D1*
X1277438Y3571336D1*
X1269161Y3575310D1*
X1261396Y3580209D1*
X1254247Y3585970D1*
X1247808Y3592515D1*
X1242165Y3599757D1*
X1237393Y3607601D1*
X1233555Y3615941D1*
X1230703Y3624668D1*
X1228874Y3633666D1*
X1228092Y3642814D1*
X1228369Y3651991D1*
X1229699Y3661075D1*
X1232067Y3669946D1*
X1233453Y3673802D1*
X1225387Y3671388D1*
X1219556Y3670228D1*
X1213652Y3669529D1*
X1207712Y3669296D1*
X1201771Y3669529D1*
X1195868Y3670228D1*
X1190037Y3671388D1*
X1181941Y3673878D1*
X1184628Y3665694D1*
X1186498Y3656705D1*
X1187321Y3647561D1*
X1187171Y3639501D1*
X1186009Y3630394D1*
X1183807Y3621480D1*
X1180594Y3612880D1*
X1176412Y3604706D1*
X1171318Y3597068D1*
X1165378Y3590066D1*
X1158673Y3583795D1*
X1151290Y3578337D1*
X1143328Y3573765D1*
X1134893Y3570140D1*
X1126096Y3567510D1*
X1117056Y3565909D1*
X1107891Y3565359D1*
X1098724Y3565868D1*
X1089676Y3567428D1*
X1080868Y3570019D1*
X1072416Y3573606D1*
X1064434Y3578142D1*
X1057027Y3583567D1*
X1050293Y3589808D1*
X1044322Y3596782D1*
X1039193Y3604398D1*
X1034975Y3612552D1*
X1031723Y3621139D1*
X1029481Y3630042D1*
X1028278Y3639144D1*
X1028131Y3648324D1*
X1029042Y3657460D1*
X1030997Y3666431D1*
X1033972Y3675117D1*
X1037927Y3683403D1*
X1042809Y3691178D1*
X1048553Y3698340D1*
X1055084Y3704794D1*
X1062313Y3710453D1*
X1070146Y3715243D1*
X1078478Y3719099D1*
X1087199Y3721971D1*
X1096192Y3723821D1*
X1105338Y3724623D1*
X1114516Y3724367D1*
X1123603Y3723057D1*
X1132479Y3720709D1*
X1136512Y3719264D1*
X1134091Y3727334D1*
X1132931Y3733164D1*
X1132233Y3739068D1*
X1131999Y3745008D1*
X1132233Y3750949D1*
X1132931Y3756852D1*
X1134091Y3762683D1*
X1136581Y3770780D1*
X1127879Y3767954D1*
X1118877Y3766145D1*
X1109728Y3765384D1*
X1100551Y3765681D1*
X1091470Y3767032D1*
X1082605Y3769419D1*
X1074073Y3772811D1*
X1065988Y3777162D1*
X1058457Y3782414D1*
X1051581Y3788498D1*
X1045451Y3795333D1*
X1040148Y3802828D1*
X1035743Y3810883D1*
X1032294Y3819392D1*
X1029847Y3828241D1*
X1028435Y3837313D1*
X1028076Y3846488D1*
X1028775Y3855642D1*
X1030523Y3864656D1*
X1033297Y3873408D1*
X1037060Y3881783D1*
X1041761Y3889669D1*
X1047339Y3896962D1*
X1051326Y3901259D1*
X476485Y3901258D1*
X476462Y3708321D1*
X481325Y3716037D1*
X486732Y3723461D1*
X492623Y3730507D1*
X498971Y3737145D1*
X505748Y3743345D1*
X512922Y3749079D1*
X520464Y3754322D1*
X528338Y3759050D1*
X536510Y3763242D1*
X544943Y3766880D1*
X553601Y3769948D1*
X562443Y3772431D1*
X571432Y3774319D1*
X580526Y3775603D1*
X589686Y3776278D1*
X598870Y3776340D1*
X608039Y3775790D1*
X617150Y3774629D1*
X626163Y3772864D1*
X635038Y3770501D1*
X643737Y3767551D1*
X652219Y3764028D1*
X660447Y3759947D1*
X668384Y3755326D1*
X675996Y3750186D1*
X683248Y3744550D1*
X690108Y3738443D1*
X696545Y3731891D1*
X702531Y3724925D1*
X708040Y3717576D1*
X713045Y3709875D1*
X717526Y3701857D1*
X721462Y3693559D1*
X724836Y3685017D1*
X727633Y3676268D1*
X729840Y3667352D1*
X731447Y3658310D1*
X732448Y3649180D1*
X732843Y3638758D1*
X732537Y3629578D1*
X4022665Y3181766D2*
X4030950Y3184471D1*
X4039943Y3186321D1*
X4049089Y3187123D1*
X4058266Y3186867D1*
X4067354Y3185557D1*
X4076230Y3183209D1*
X4084777Y3179856D1*
X4092881Y3175542D1*
X4096536Y3173172D1*
X4096415Y3241735D1*
X4088712Y3237106D1*
X4080363Y3233287D1*
X4071629Y3230454D1*
X4062628Y3228645D1*
X4053478Y3227884D1*
X4044302Y3228181D1*
X4035221Y3229532D1*
X4026355Y3231919D1*
X4022663Y3233251D1*
X4025083Y3225183D1*
X4026243Y3219352D1*
X4026942Y3213449D1*
X4027175Y3207508D1*
X4026942Y3201568D1*
X4026243Y3195664D1*
X4025083Y3189834D1*
X4022593Y3181737D1*
X1362342Y718171D2*
X1361601Y709020D1*
X1359812Y700015D1*
X1356999Y691275D1*
X1353199Y682917D1*
X1348462Y675052D1*
X1342852Y667784D1*
X1336443Y661210D1*
X1329319Y655418D1*
X1321577Y650484D1*
X1313318Y646473D1*
X1304652Y643440D1*
X1295695Y641424D1*
X1286565Y640452D1*
X1277384Y640537D1*
X1268274Y641678D1*
X1259356Y643860D1*
X1253913Y645751D1*
X1256334Y637683D1*
X1257494Y631852D1*
X1258192Y625949D1*
X1258426Y620008D1*
X1258192Y614068D1*
X1257494Y608164D1*
X1256334Y602334D1*
X1253844Y594237D1*
X1262200Y596971D1*
X1271193Y598821D1*
X1280339Y599623D1*
X1289517Y599367D1*
X1298604Y598057D1*
X1307481Y595709D1*
X1316028Y592356D1*
X1324132Y588042D1*
X1331686Y582823D1*
X1338589Y576770D1*
X1344750Y569963D1*
X1350087Y562492D1*
X1354528Y554456D1*
X1358015Y545963D1*
X1360502Y537125D1*
X1361955Y528059D1*
X1362363Y520008D1*
X1361834Y510842D1*
X1360253Y501798D1*
X1357642Y492996D1*
X1354036Y484553D1*
X1349482Y476580D1*
X1344041Y469185D1*
X1337785Y462465D1*
X1330797Y456510D1*
X1323170Y451399D1*
X1315006Y447199D1*
X1306412Y443966D1*
X1297504Y441744D1*
X1288399Y440562D1*
X1279219Y440435D1*
X1270085Y441366D1*
X1261119Y443342D1*
X1252439Y446336D1*
X1244162Y450310D1*
X1236398Y455209D1*
X1229248Y460970D1*
X1222809Y467515D1*
X1217166Y474757D1*
X1212394Y482601D1*
X1208557Y490941D1*
X1205704Y499668D1*
X1203875Y508666D1*
X1203094Y517814D1*
X1203370Y526991D1*
X1204701Y536075D1*
X1207068Y544946D1*
X1208454Y548802D1*
X1200388Y546388D1*
X1194557Y545228D1*
X1188653Y544529D1*
X1182713Y544296D1*
X1176773Y544529D1*
X1170869Y545228D1*
X1165038Y546388D1*
X1156942Y548878D1*
X1159630Y540694D1*
X1161499Y531705D1*
X1162322Y522561D1*
X1162172Y514501D1*
X1161010Y505394D1*
X1158808Y496480D1*
X1155595Y487880D1*
X1151414Y479706D1*
X1146319Y472068D1*
X1140380Y465066D1*
X1133674Y458795D1*
X1126291Y453337D1*
X1118329Y448765D1*
X1109894Y445140D1*
X1101097Y442510D1*
X1092057Y440909D1*
X1082892Y440359D1*
X1073725Y440868D1*
X1064677Y442428D1*
X1055869Y445019D1*
X1047418Y448606D1*
X1039435Y453142D1*
X1032028Y458567D1*
X1025294Y464808D1*
X1019323Y471782D1*
X1014194Y479398D1*
X1009976Y487552D1*
X1006724Y496139D1*
X1004482Y505042D1*
X1003280Y514144D1*
X1003133Y523324D1*
X1004043Y532460D1*
X1005998Y541431D1*
X1008973Y550117D1*
X1012928Y558403D1*
X1017810Y566178D1*
X1023554Y573340D1*
X1030085Y579794D1*
X1037315Y585453D1*
X1045148Y590243D1*
X1053480Y594099D1*
X1062200Y596971D1*
X1071193Y598821D1*
X1080339Y599623D1*
X1089517Y599367D1*
X1098604Y598057D1*
X1107481Y595709D1*
X1111513Y594264D1*
X1109092Y602334D1*
X1107933Y608164D1*
X1107234Y614068D1*
X1107001Y620008D1*
X1107234Y625949D1*
X1107933Y631852D1*
X1109092Y637683D1*
X1111582Y645780D1*
X1102880Y642954D1*
X1093879Y641145D1*
X1084729Y640384D1*
X1075553Y640681D1*
X1066471Y642032D1*
X1057606Y644419D1*
X1049074Y647811D1*
X1040989Y652162D1*
X1033459Y657414D1*
X1026582Y663498D1*
X1020452Y670333D1*
X1015149Y677828D1*
X1010744Y685883D1*
X1007295Y694392D1*
X1004848Y703241D1*
X1003436Y712313D1*
X1003077Y721488D1*
X1003777Y730642D1*
X1005525Y739656D1*
X1008299Y748408D1*
X1012061Y756783D1*
X1016762Y764669D1*
X1022340Y771962D1*
X1028720Y778564D1*
X1035817Y784389D1*
X1043538Y789358D1*
X1051779Y793405D1*
X1060430Y796478D1*
X1069379Y798534D1*
X1078504Y799547D1*
X1087685Y799503D1*
X1096800Y798402D1*
X1105728Y796260D1*
X1114350Y793105D1*
X1122552Y788979D1*
X1130224Y783936D1*
X1137265Y778044D1*
X1143582Y771381D1*
X1149089Y764035D1*
X1153715Y756104D1*
X1157397Y747693D1*
X1160086Y738915D1*
X1161748Y729885D1*
X1162360Y720724D1*
X1162024Y712670D1*
X1160652Y703591D1*
X1158245Y694731D1*
X1156975Y691215D1*
X1165038Y693629D1*
X1170869Y694789D1*
X1176773Y695488D1*
X1182713Y695721D1*
X1188653Y695488D1*
X1194557Y694789D1*
X1200388Y693629D1*
X1208484Y691139D1*
X1205704Y699668D1*
X1203875Y708666D1*
X1203094Y717814D1*
X1203370Y726991D1*
X1204701Y736075D1*
X1207068Y744946D1*
X1210440Y753485D1*
X1214773Y761580D1*
X1220008Y769122D1*
X1226077Y776012D1*
X1232898Y782158D1*
X1240381Y787477D1*
X1248427Y791901D1*
X1256928Y795369D1*
X1265771Y797835D1*
X1274840Y799268D1*
X1284014Y799647D1*
X1293170Y798969D1*
X1302187Y797241D1*
X1310945Y794487D1*
X1319329Y790743D1*
X1327225Y786059D1*
X1334531Y780498D1*
X1341148Y774133D1*
X1346988Y767049D1*
X1351974Y759340D1*
X1356040Y751108D1*
X1359132Y742463D1*
X1361208Y733519D1*
X1362242Y724396D1*
X1362342Y718171D1*
X904980Y1357504D2*
Y1272741D1*
X785444D1*
Y1355540D1*
X781754Y1351905D1*
X775663Y1344774D1*
X768532Y1338683D1*
X760535Y1333783D1*
X751870Y1330193D1*
X742751Y1328004D1*
X733401Y1327268D1*
X724051Y1328004D1*
X714932Y1330193D1*
X706267Y1333783D1*
X698271Y1338683D1*
X691139Y1344774D1*
X685048Y1351905D1*
X680148Y1359902D1*
X676559Y1368567D1*
X674369Y1377686D1*
X673633Y1387036D1*
X674369Y1396386D1*
X676559Y1405505D1*
X680148Y1414170D1*
X685048Y1422167D1*
X691139Y1429298D1*
X698271Y1435389D1*
X706267Y1440289D1*
X708981Y1441540D1*
X702173Y1445131D1*
X694585Y1450643D1*
X687953Y1457275D1*
X682441Y1464863D1*
X678183Y1473219D1*
X675285Y1482139D1*
X673818Y1491402D1*
Y1500780D1*
X675285Y1510044D1*
X678183Y1518963D1*
X682441Y1527320D1*
X687953Y1534907D1*
X694585Y1541539D1*
X702173Y1547051D1*
X708981Y1550595D1*
X702173Y1554186D1*
X694585Y1559698D1*
X687953Y1566330D1*
X682441Y1573918D1*
X678183Y1582274D1*
X675285Y1591194D1*
X673818Y1600457D1*
Y1609836D1*
X675285Y1619099D1*
X678183Y1628018D1*
X682441Y1636375D1*
X687953Y1643962D1*
X694585Y1650594D1*
X702173Y1656107D1*
X708981Y1659651D1*
X702173Y1663241D1*
X694585Y1668754D1*
X687953Y1675385D1*
X682441Y1682973D1*
X678183Y1691329D1*
X675285Y1700249D1*
X673818Y1709512D1*
Y1718891D1*
X675285Y1728154D1*
X678183Y1737073D1*
X682441Y1745430D1*
X687953Y1753017D1*
X694585Y1759649D1*
X702173Y1765162D1*
X710529Y1769419D1*
X719449Y1772318D1*
X728712Y1773785D1*
X738090D1*
X747354Y1772318D1*
X756273Y1769419D1*
X764630Y1765162D1*
X772217Y1759649D1*
X778849Y1753017D1*
X784362Y1745430D1*
X788619Y1737073D1*
X791517Y1728154D1*
X792985Y1718891D1*
Y1709512D1*
X791517Y1700249D1*
X788619Y1691329D1*
X784362Y1682973D1*
X778849Y1675385D1*
X772217Y1668754D1*
X764630Y1663241D1*
X757822Y1659697D1*
X764630Y1656107D1*
X772217Y1650594D1*
X778849Y1643962D1*
X784362Y1636375D1*
X788619Y1628018D1*
X791517Y1619099D1*
X792985Y1609836D1*
Y1600457D1*
X791517Y1591194D1*
X788619Y1582274D1*
X784362Y1573918D1*
X778849Y1566330D1*
X772217Y1559698D1*
X764630Y1554186D1*
X757822Y1550642D1*
X764630Y1547051D1*
X772217Y1541539D1*
X778849Y1534907D1*
X784362Y1527320D1*
X788619Y1518963D1*
X791517Y1510044D1*
X792985Y1500780D1*
Y1491402D1*
X791517Y1482139D1*
X788619Y1473219D1*
X784362Y1464863D1*
X778849Y1457275D1*
X772217Y1450643D1*
X764630Y1445131D1*
X757822Y1441587D1*
X764630Y1437996D1*
X772217Y1432484D1*
X778849Y1425852D1*
X784188Y1418524D1*
X789994Y1418691D1*
X787096Y1427611D1*
X785629Y1436874D1*
Y1446253D1*
X787096Y1455516D1*
X789994Y1464436D1*
X794252Y1472792D1*
X799764Y1480380D1*
X806396Y1487011D1*
X813984Y1492524D1*
X820792Y1496068D1*
X813984Y1499658D1*
X806396Y1505171D1*
X799764Y1511803D1*
X794252Y1519390D1*
X789994Y1527747D1*
X787096Y1536666D1*
X785629Y1545929D1*
Y1555308D1*
X787096Y1564571D1*
X789994Y1573491D1*
X794252Y1581847D1*
X799764Y1589435D1*
X806396Y1596066D1*
X813984Y1601579D1*
X820792Y1605123D1*
X813984Y1608713D1*
X806396Y1614226D1*
X799764Y1620858D1*
X794252Y1628445D1*
X789994Y1636802D1*
X787096Y1645721D1*
X785629Y1654984D1*
Y1664363D1*
X787096Y1673626D1*
X789994Y1682546D1*
X794252Y1690902D1*
X799764Y1698490D1*
X806396Y1705121D1*
X813984Y1710634D1*
X820792Y1714178D1*
X813984Y1717769D1*
X806396Y1723281D1*
X799764Y1729913D1*
X794252Y1737500D1*
X789994Y1745857D1*
X787096Y1754776D1*
X785629Y1764040D1*
Y1773418D1*
X787096Y1782681D1*
X789994Y1791601D1*
X794252Y1799957D1*
X799764Y1807545D1*
X806396Y1814177D1*
X813984Y1819689D1*
X822340Y1823947D1*
X831260Y1826845D1*
X840523Y1828312D1*
X849902D1*
X859165Y1826845D1*
X862499Y1825905D1*
X862404Y1947127D1*
X854905Y1941825D1*
X847023Y1937110D1*
X838804Y1933011D1*
X830297Y1929552D1*
X821550Y1926752D1*
X812615Y1924628D1*
X803543Y1923193D1*
X794389Y1922454D1*
X785205Y1922417D1*
X776045Y1923081D1*
X766962Y1924442D1*
X758010Y1926493D1*
X749241Y1929221D1*
X740705Y1932611D1*
X732453Y1936643D1*
X724533Y1941293D1*
X716991Y1946534D1*
X709872Y1952335D1*
X703216Y1958664D1*
X697062Y1965481D1*
X691448Y1972749D1*
X686404Y1980425D1*
X681961Y1988463D1*
X678145Y1996817D1*
X674978Y2005437D1*
X672478Y2014275D1*
X670661Y2023277D1*
X669536Y2032392D1*
X669110Y2041566D1*
X669386Y2050746D1*
X670362Y2059878D1*
X672032Y2068909D1*
X674387Y2077786D1*
X677413Y2086458D1*
X681092Y2094873D1*
X685403Y2102982D1*
X690321Y2110739D1*
X695816Y2118097D1*
X701857Y2125015D1*
X708409Y2131451D1*
X715433Y2137368D1*
X722888Y2142732D1*
X730731Y2147510D1*
X738916Y2151676D1*
X747395Y2155205D1*
X756119Y2158076D1*
X765037Y2160273D1*
X774096Y2161782D1*
X783244Y2162596D1*
X792427Y2162708D1*
X801592Y2162119D1*
X810686Y2160832D1*
X819655Y2158854D1*
X828446Y2156198D1*
X837009Y2152878D1*
X845294Y2148914D1*
X853251Y2144328D1*
X860836Y2139149D1*
X868003Y2133406D1*
X875365Y2126418D1*
X889552Y2140461D1*
X893551Y2143367D1*
X897955Y2145611D1*
X902656Y2147138D1*
X907538Y2147911D1*
X974314Y2148009D1*
X1406521Y2147911D1*
X1411403Y2147138D1*
X1416104Y2145611D1*
X1420516Y2143361D1*
X1424088Y2143999D1*
Y2248099D1*
X1417610Y2247116D1*
X1410313D1*
X1403106Y2248258D1*
X1396166Y2250513D1*
X1389665Y2253825D1*
X1383762Y2258114D1*
X1379812Y2261964D1*
X1306201Y2261973D1*
X1301015Y2257586D1*
X1294793Y2253773D1*
X1288052Y2250981D1*
X1280957Y2249278D1*
X1273683Y2248705D1*
X1266409Y2249278D1*
X1259314Y2250981D1*
X1252572Y2253773D1*
X1246351Y2257586D1*
X1244660Y2258919D1*
X1247331Y2254335D1*
X1250124Y2247594D1*
X1251827Y2240499D1*
X1252399Y2233225D1*
X1251827Y2225951D1*
X1250124Y2218856D1*
X1247331Y2212114D1*
X1243519Y2205893D1*
X1238780Y2200344D1*
X1233231Y2195606D1*
X1227010Y2191793D1*
X1220269Y2189001D1*
X1213174Y2187297D1*
X1205899Y2186725D1*
X1198625Y2187297D1*
X1191530Y2189001D1*
X1184789Y2191793D1*
X1178567Y2195606D1*
X1173019Y2200344D1*
X1168280Y2205893D1*
X1164468Y2212114D1*
X1161675Y2218856D1*
X1159972Y2225951D1*
X1159449Y2231957D1*
X1153825Y2228577D1*
X1147084Y2225784D1*
X1139989Y2224081D1*
X1132714Y2223508D1*
X1125440Y2224081D1*
X1118345Y2225784D1*
X1111591Y2228584D1*
X1105638Y2225013D1*
X1098317Y2221980D1*
X1090612Y2220130D1*
X1082712Y2219508D1*
X1074812Y2220130D1*
X1067106Y2221980D1*
X1059785Y2225013D1*
X1053029Y2229153D1*
X1047003Y2234300D1*
X1041856Y2240325D1*
X1037716Y2247082D1*
X1034683Y2254403D1*
X1032834Y2262108D1*
X1032212Y2270008D1*
X1032834Y2277908D1*
X1034683Y2285614D1*
X1037716Y2292935D1*
X1041856Y2299692D1*
X1047003Y2305717D1*
X1053029Y2310864D1*
X1059785Y2315004D1*
X1067106Y2318037D1*
X1074812Y2319887D1*
X1082712Y2320508D1*
X1090612Y2319887D1*
X1098317Y2318037D1*
X1105638Y2315004D1*
X1111604Y2311440D1*
X1118345Y2314233D1*
X1125440Y2315936D1*
X1132714Y2316508D1*
X1139989Y2315936D1*
X1147084Y2314233D1*
X1153825Y2311440D1*
X1160046Y2307628D1*
X1165595Y2302889D1*
X1170334Y2297340D1*
X1174403Y2290562D1*
X1174399Y2323761D1*
X1088346Y2409826D1*
X1082712Y2409508D1*
X1074812Y2410130D1*
X1067106Y2411980D1*
X1059785Y2415013D1*
X1053029Y2419153D1*
X1047003Y2424300D1*
X1041856Y2430325D1*
X1037716Y2437082D1*
X1034683Y2444403D1*
X1032834Y2452108D1*
X1032212Y2460008D1*
X1032834Y2467908D1*
X1034683Y2475614D1*
X1037716Y2482935D1*
X1041856Y2489692D1*
X1047003Y2495717D1*
X1053029Y2500864D1*
X1059785Y2505004D1*
X1067106Y2508037D1*
X1074812Y2509887D1*
X1082712Y2510508D1*
X1090612Y2509887D1*
X1098317Y2508037D1*
X1105638Y2505004D1*
X1112395Y2500864D1*
X1118421Y2495717D1*
X1123567Y2489692D1*
X1127708Y2482935D1*
X1130740Y2475614D1*
X1132590Y2467908D1*
X1133212Y2460008D1*
X1132861Y2454400D1*
X1229852Y2357278D1*
X1232758Y2353279D1*
X1235002Y2348875D1*
X1236529Y2344174D1*
X1237302Y2339292D1*
X1237399Y2324297D1*
X1240802Y2328086D1*
X1246351Y2332825D1*
X1252572Y2336637D1*
X1259314Y2339429D1*
X1266409Y2341133D1*
X1273683Y2341705D1*
X1280957Y2341133D1*
X1288052Y2339429D1*
X1294793Y2336637D1*
X1301015Y2332825D1*
X1306563Y2328086D1*
X1309386Y2324968D1*
X1379731Y2324973D1*
X1382453Y2327622D1*
X1382558Y2342948D1*
X1383331Y2347830D1*
X1384859Y2352531D1*
X1387103Y2356936D1*
X1390008Y2360935D1*
X1393504Y2364430D1*
X1397502Y2367335D1*
X1401907Y2369579D1*
X1406608Y2371107D1*
X1411490Y2371880D1*
X1426317Y2371977D1*
X1431244Y2371589D1*
X1436051Y2370435D1*
X1438380Y2369575D1*
X1440088Y2377882D1*
Y2664705D1*
X1437137Y2659237D1*
X1431925Y2652064D1*
X1425656Y2645795D1*
X1418484Y2640584D1*
X1410584Y2636559D1*
X1402152Y2633819D1*
X1393395Y2632432D1*
X1384530D1*
X1375773Y2633819D1*
X1367341Y2636559D1*
X1359441Y2640584D1*
X1352269Y2645795D1*
X1346000Y2652064D1*
X1340788Y2659237D1*
X1336763Y2667136D1*
X1334024Y2675568D1*
X1332637Y2684325D1*
Y2693191D1*
X1334024Y2701947D1*
X1336763Y2710379D1*
X1340788Y2718279D1*
X1346000Y2725452D1*
X1352269Y2731721D1*
X1359441Y2736932D1*
X1367341Y2740957D1*
X1375773Y2743697D1*
X1384530Y2745084D1*
X1393395D1*
X1402152Y2743697D1*
X1410584Y2740957D1*
X1418484Y2736932D1*
X1425656Y2731721D1*
X1431925Y2725452D1*
X1437137Y2718279D1*
X1440095Y2712693D1*
X1440185Y2939196D1*
X1440959Y2944078D1*
X1442486Y2948779D1*
X1444730Y2953184D1*
X1447636Y2957183D1*
X1465315Y2974999D1*
X1469073Y2978209D1*
X1473288Y2980792D1*
X1477854Y2982683D1*
X1482661Y2983837D1*
X1487588Y2984225D1*
X2275115Y2984128D1*
X2279997Y2983355D1*
X2284698Y2981827D1*
X2289102Y2979583D1*
X2293101Y2976678D1*
X2310917Y2958999D1*
X2314128Y2955240D1*
X2316710Y2951026D1*
X2318602Y2946459D1*
X2319756Y2941653D1*
X2320144Y2936725D1*
Y2931163D1*
X2325648Y2933287D1*
X2334797Y2935484D1*
X2344178Y2936222D1*
X2353558Y2935484D1*
X2362708Y2933287D1*
X2371401Y2929687D1*
X2379424Y2924770D1*
X2386579Y2918659D1*
X2392690Y2911504D1*
X2394151Y2909317D1*
X2398580Y2915202D1*
X2405234Y2921855D1*
X2412846Y2927386D1*
X2421230Y2931658D1*
X2430179Y2934565D1*
X2439473Y2936037D1*
X2448882D1*
X2458176Y2934565D1*
X2467125Y2931658D1*
X2475509Y2927386D1*
X2483122Y2921855D1*
X2484216Y2920844D1*
X2484213Y2936222D1*
X2604142D1*
Y2860830D1*
X2669915Y2794931D1*
X2672821Y2790932D1*
X2675065Y2786528D1*
X2676592Y2781827D1*
X2677365Y2776944D1*
X2677462Y2710169D1*
X2677365Y1987037D1*
X2676592Y1982155D1*
X2675065Y1977454D1*
X2672821Y1973050D1*
X2669915Y1969051D1*
X2652236Y1951235D1*
X2648478Y1948024D1*
X2644254Y1945438D1*
X2645288Y1936941D1*
Y1928075D1*
X2643901Y1919319D1*
X2641162Y1910887D1*
X2637137Y1902987D1*
X2631925Y1895815D1*
X2625656Y1889545D1*
X2618484Y1884334D1*
X2610584Y1880309D1*
X2602152Y1877569D1*
X2597543Y1876673D1*
X2599407Y1871878D1*
X2601110Y1864783D1*
X2601683Y1857508D1*
X2601110Y1850234D1*
X2599407Y1843139D1*
X2596615Y1836398D1*
X2592802Y1830176D1*
X2588063Y1824628D1*
X2582515Y1819889D1*
X2576293Y1816077D1*
X2569552Y1813284D1*
X2562457Y1811581D1*
X2555183Y1811008D1*
X2547909Y1811581D1*
X2540814Y1813284D1*
X2534072Y1816077D1*
X2527851Y1819889D1*
X2522302Y1824628D1*
X2517564Y1830176D1*
X2513751Y1836398D1*
X2510959Y1843139D1*
X2509255Y1850234D1*
X2508781Y1855014D1*
X2209080Y1855008D1*
X2208536Y1848234D1*
X2206832Y1841139D1*
X2204040Y1834398D1*
X2200227Y1828176D1*
X2195489Y1822628D1*
X2189940Y1817889D1*
X2183719Y1814077D1*
X2176977Y1811284D1*
X2169882Y1809581D1*
X2162608Y1809008D1*
X2155334Y1809581D1*
X2148239Y1811284D1*
X2141498Y1814077D1*
X2135276Y1817889D1*
X2129728Y1822628D1*
X2128459Y1824000D1*
X2091834Y1824105D1*
X2086951Y1824879D1*
X2082250Y1826406D1*
X2077846Y1828650D1*
X2073847Y1831556D1*
X2058710Y1846556D1*
X2053157Y1846652D1*
X2045950Y1847793D1*
X2039010Y1850048D1*
X2032509Y1853361D1*
X2026606Y1857650D1*
X2021446Y1862809D1*
X2017157Y1868712D1*
X2013845Y1875214D1*
X2011590Y1882153D1*
X2010448Y1889360D1*
Y1896657D1*
X2011590Y1903864D1*
X2013845Y1910803D1*
X2017157Y1917305D1*
X2021446Y1923208D1*
X2026606Y1928367D1*
X2032509Y1932656D1*
X2039010Y1935969D1*
X2045950Y1938224D1*
X2047391Y1938510D1*
X1894315Y1938508D1*
X1876731Y1921057D1*
X1872732Y1918151D1*
X1868328Y1915907D1*
X1863627Y1914380D1*
X1858745Y1913607D1*
X1829612Y1913510D1*
X1825676Y1908316D1*
X1819407Y1902047D1*
X1813574Y1897731D1*
X1811815Y1891954D1*
X1809571Y1887550D1*
X1806666Y1883551D1*
X1788987Y1865734D1*
X1785228Y1862524D1*
X1781014Y1859942D1*
X1776447Y1858050D1*
X1771641Y1856896D1*
X1766703Y1856509D1*
X1709239Y1856605D1*
X1704357Y1857379D1*
X1699656Y1858906D1*
X1695252Y1861150D1*
X1691253Y1864056D1*
X1673707Y1881464D1*
X1673711Y1580614D1*
X1710893Y1543444D1*
X1711004Y1660696D1*
X1711778Y1665578D1*
X1713305Y1670280D1*
X1715549Y1674684D1*
X1718454Y1678683D1*
X1736133Y1696499D1*
X1739892Y1699709D1*
X1744107Y1702292D1*
X1748673Y1704183D1*
X1753480Y1705337D1*
X1758407Y1705725D1*
X2386182Y1705628D1*
X2391064Y1704855D1*
X2395765Y1703327D1*
X2400169Y1701083D1*
X2404168Y1698178D1*
X2430369Y1672115D1*
X2439473Y1673537D1*
X2448882D1*
X2458176Y1672065D1*
X2467125Y1669158D1*
X2475509Y1664886D1*
X2483122Y1659355D1*
X2484216Y1658344D1*
X2484213Y1673722D1*
X2604142D1*
Y1553793D1*
X2575686D1*
X2575581Y1030792D1*
X2574807Y1025909D1*
X2573280Y1021208D1*
X2571036Y1016804D1*
X2568131Y1012805D1*
X2550449Y994986D1*
X2546690Y991776D1*
X2542476Y989194D1*
X2537909Y987302D1*
X2533103Y986148D1*
X2528165Y985761D1*
X2419625Y985760D1*
X2420287Y980691D1*
X2420304Y972258D1*
X2426073Y969791D1*
X2432294Y965978D1*
X2437843Y961239D1*
X2442582Y955691D1*
X2446394Y949469D1*
X2449187Y942728D1*
X2450890Y935633D1*
X2451462Y928359D1*
X2450890Y921085D1*
X2449187Y913990D1*
X2446394Y907248D1*
X2442582Y901027D1*
X2437843Y895478D1*
X2436471Y894210D1*
X2436366Y839788D1*
X2435592Y834905D1*
X2434065Y830204D1*
X2431821Y825800D1*
X2428915Y821801D1*
X2419396Y812145D1*
X2420287Y805691D1*
Y796825D1*
X2418900Y788068D1*
X2416160Y779636D1*
X2412135Y771737D1*
X2406924Y764564D1*
X2400655Y758295D1*
X2399689Y757533D1*
X2403913Y753709D1*
X2409671Y746968D1*
X2414303Y739408D1*
X2417696Y731217D1*
X2419766Y722596D1*
X2420461Y713758D1*
X2419766Y704919D1*
X2417696Y696298D1*
X2414303Y688107D1*
X2409671Y680548D1*
X2403913Y673806D1*
X2397171Y668048D1*
X2389612Y663416D1*
X2381421Y660023D1*
X2372800Y657953D1*
X2363961Y657258D1*
X2355123Y657953D1*
X2346502Y660023D1*
X2338311Y663416D1*
X2330751Y668048D1*
X2324010Y673806D1*
X2318252Y680548D1*
X2313619Y688107D1*
X2310226Y696298D1*
X2309526Y698783D1*
X2304431Y698508D1*
X2297157Y699081D1*
X2290062Y700784D1*
X2283320Y703577D1*
X2277099Y707389D1*
X2271551Y712128D1*
X2270282Y713500D1*
X2202125Y713508D1*
X2202333Y700822D1*
X2202236Y542785D1*
X2201462Y537903D1*
X2199935Y533202D1*
X2197691Y528798D1*
X2194785Y524799D1*
X2177106Y506982D1*
X2173348Y503772D1*
X2169133Y501190D1*
X2164567Y499298D1*
X2159760Y498144D1*
X2154833Y497756D1*
X1655739Y497853D1*
X1650857Y498627D1*
X1646156Y500154D1*
X1641752Y502398D1*
X1637753Y505304D1*
X1619937Y522982D1*
X1616726Y526741D1*
X1614144Y530956D1*
X1612252Y535522D1*
X1611098Y540329D1*
X1610710Y545256D1*
Y873274D1*
X1606852Y877309D1*
X1602563Y883212D1*
X1599250Y889714D1*
X1596995Y896653D1*
X1595854Y903860D1*
Y911157D1*
X1596995Y918364D1*
X1599250Y925303D1*
X1602563Y931805D1*
X1606852Y937708D1*
X1612011Y942867D1*
X1617914Y947156D1*
X1624416Y950469D1*
X1631355Y952724D1*
X1638562Y953865D1*
X1645859D1*
X1653066Y952724D1*
X1660005Y950469D1*
X1666507Y947156D1*
X1672410Y942867D1*
X1677569Y937708D1*
X1681858Y931805D1*
X1685171Y925303D1*
X1687426Y918364D1*
X1688567Y911157D1*
Y903860D1*
X1687426Y896653D1*
X1685171Y889714D1*
X1681858Y883212D1*
X1677569Y877309D1*
X1673719Y873360D1*
X1673711Y844532D1*
X1741566Y912376D1*
X1741584Y1004811D1*
X1737726Y1008809D1*
X1733437Y1014712D1*
X1730124Y1021214D1*
X1727869Y1028153D1*
X1726728Y1035360D1*
X1726658Y1040875D1*
X1702454Y1065228D1*
X1699549Y1069227D1*
X1697305Y1073631D1*
X1695778Y1078332D1*
X1695004Y1083214D1*
X1694907Y1149990D1*
Y1251004D1*
X1617144Y1251008D1*
X1613173Y1245815D1*
X1606904Y1239545D1*
X1599732Y1234334D1*
X1591832Y1230309D1*
X1583400Y1227569D1*
X1574643Y1226183D1*
X1565778D1*
X1557021Y1227569D1*
X1548589Y1230309D1*
X1540689Y1234334D1*
X1533517Y1239545D1*
X1527248Y1245815D1*
X1523355Y1251013D1*
X1423117Y1251105D1*
X1418235Y1251879D1*
X1413534Y1253406D1*
X1409130Y1255650D1*
X1405131Y1258556D1*
X1387315Y1276235D1*
X1384104Y1279993D1*
X1381522Y1284208D1*
X1379630Y1288774D1*
X1378476Y1293581D1*
X1378088Y1298508D1*
Y1873696D1*
X1373444Y1872301D1*
X1366237Y1871160D1*
X1360722Y1871090D1*
X1317503Y1828020D1*
X1313504Y1825115D1*
X1309100Y1822871D1*
X1304399Y1821343D1*
X1299517Y1820570D1*
X1294928Y1820473D1*
X1300757Y1817444D1*
X1306660Y1813155D1*
X1311820Y1807995D1*
X1316109Y1802092D1*
X1319422Y1795591D1*
X1321676Y1788651D1*
X1322818Y1781444D1*
Y1774147D1*
X1321676Y1766941D1*
X1319422Y1760001D1*
X1316109Y1753500D1*
X1311820Y1747596D1*
X1306660Y1742437D1*
X1300757Y1738148D1*
X1294256Y1734835D1*
X1287316Y1732581D1*
X1280110Y1731439D1*
X1274594Y1731369D1*
X1253116Y1710040D1*
X1249117Y1707134D1*
X1244713Y1704890D1*
X1240012Y1703363D1*
X1235129Y1702590D1*
X1221139Y1702493D1*
X1217126Y1698634D1*
X1211223Y1694345D1*
X1204722Y1691032D1*
X1197782Y1688777D1*
X1190575Y1687636D1*
X1183279D1*
X1176072Y1688777D1*
X1169132Y1691032D1*
X1162631Y1694345D1*
X1156728Y1698634D1*
X1151568Y1703793D1*
X1147279Y1709696D1*
X1143967Y1716198D1*
X1141712Y1723137D1*
X1140570Y1730344D1*
Y1737641D1*
X1141712Y1744848D1*
X1143290Y1749954D1*
X1136097Y1748323D1*
X1128789Y1747589D1*
X1121447Y1747754D1*
X1114179Y1748815D1*
X1107096Y1750757D1*
X1100303Y1753550D1*
X1093903Y1757152D1*
X1087991Y1761510D1*
X1082657Y1766558D1*
X1077979Y1772221D1*
X1076466Y1774411D1*
X1072059Y1768565D1*
X1065405Y1761911D1*
X1057793Y1756380D1*
X1049409Y1752108D1*
X1040460Y1749201D1*
X1031166Y1747729D1*
X1021756D1*
X1012091Y1749305D1*
X1012089Y1732424D1*
X1015947Y1728397D1*
X1020236Y1722494D1*
X1023549Y1715992D1*
X1025804Y1709053D1*
X1026945Y1701846D1*
Y1694549D1*
X1025804Y1687342D1*
X1023549Y1680403D1*
X1020236Y1673901D1*
X1015947Y1667998D1*
X1010788Y1662838D1*
X1004885Y1658550D1*
X998383Y1655237D1*
X991444Y1652982D1*
X984237Y1651841D1*
X976940D1*
X969733Y1652982D1*
X962794Y1655237D1*
X956292Y1658550D1*
X950389Y1662838D1*
X945230Y1667998D1*
X941503Y1673059D1*
X941413Y1400564D1*
X940639Y1395682D1*
X939112Y1390981D1*
X936868Y1386577D1*
X933963Y1382578D1*
X916284Y1364762D1*
X912525Y1361552D1*
X908310Y1358969D1*
X906055Y1357930D1*
X909157Y1049512D2*
X908106Y1040388D1*
X906362Y1031371D1*
X903935Y1022514D1*
X900838Y1013867D1*
X897090Y1005483D1*
X892713Y997409D1*
X887732Y989692D1*
X882177Y982379D1*
X876080Y975511D1*
X869476Y969129D1*
X862404Y963269D1*
X854905Y957967D1*
X847023Y953252D1*
X838804Y949153D1*
X830297Y945694D1*
X821550Y942894D1*
X812615Y940770D1*
X803543Y939335D1*
X794389Y938596D1*
X785205Y938559D1*
X776045Y939223D1*
X766962Y940584D1*
X758010Y942635D1*
X749241Y945363D1*
X740705Y948753D1*
X732453Y952784D1*
X724533Y957434D1*
X716991Y962675D1*
X709872Y968477D1*
X703216Y974805D1*
X697062Y981623D1*
X691448Y988891D1*
X686404Y996566D1*
X681961Y1004604D1*
X678145Y1012958D1*
X674978Y1021579D1*
X672478Y1030416D1*
X670661Y1039419D1*
X669536Y1048534D1*
X669110Y1057708D1*
X669386Y1066888D1*
X670362Y1076020D1*
X672032Y1085051D1*
X674387Y1093928D1*
X677413Y1102599D1*
X681092Y1111014D1*
X685403Y1119124D1*
X690321Y1126881D1*
X695816Y1134239D1*
X701857Y1141157D1*
X708409Y1147593D1*
X715433Y1153510D1*
X722888Y1158873D1*
X730731Y1163652D1*
X738916Y1167818D1*
X747395Y1171347D1*
X756119Y1174218D1*
X765037Y1176415D1*
X774096Y1177924D1*
X783244Y1178737D1*
X792427Y1178850D1*
X801592Y1178261D1*
X810686Y1176974D1*
X819655Y1174996D1*
X828446Y1172340D1*
X837009Y1169019D1*
X845294Y1165055D1*
X853251Y1160470D1*
X860836Y1155291D1*
X868003Y1149548D1*
X874710Y1143274D1*
X880919Y1136506D1*
X886593Y1129285D1*
X891699Y1121651D1*
X896207Y1113649D1*
X900091Y1105327D1*
X903328Y1096732D1*
X905900Y1087916D1*
X907791Y1078928D1*
X908991Y1069823D1*
X909507Y1058690D1*
X909157Y1049512D1*
X1186241Y2002804D2*
X1184769Y1993510D1*
X1181861Y1984561D1*
X1181361Y1983475D1*
X1272364Y1983604D1*
X1270661Y1990699D1*
X1270088Y1997973D1*
X1270661Y2005247D1*
X1272364Y2012342D1*
X1275157Y2019084D1*
X1277440Y2023016D1*
X1186497Y2023008D1*
X1185687Y2016889D1*
X1186426Y2007508D1*
X1186241Y2002804D1*
X1186398Y1805671D2*
X1185723Y1798358D1*
X1184160Y1791182D1*
X1181732Y1784250D1*
X1179701Y1779933D1*
X1186927Y1780493D1*
X1194201Y1779920D1*
X1201296Y1778217D1*
X1208038Y1775424D1*
X1214259Y1771612D1*
X1219807Y1766873D1*
X1220379Y1766255D1*
X1229998Y1775881D1*
X1230104Y1781444D1*
X1231246Y1788651D1*
X1233501Y1795591D1*
X1236813Y1802092D1*
X1241102Y1807995D1*
X1246262Y1813155D1*
X1252165Y1817444D1*
X1258058Y1820476D1*
X1185024Y1820396D1*
X1186161Y1813140D1*
X1186398Y1805671D1*
X3688375Y1261027D2*
X3704631D1*
X3700141Y1264512D1*
X3693509Y1271144D1*
X3687996Y1278731D1*
X3683739Y1287088D1*
X3680840Y1296007D1*
X3679373Y1305271D1*
Y1314649D1*
X3680840Y1323912D1*
X3683739Y1332832D1*
X3687996Y1341188D1*
X3693509Y1348776D1*
X3700141Y1355408D1*
X3707728Y1360920D1*
X3714137Y1364280D1*
X3707728Y1367700D1*
X3700141Y1373213D1*
X3693509Y1379845D1*
X3688170Y1387173D1*
X2866841Y1387258D1*
X2861959Y1388031D1*
X2857258Y1389558D1*
X2855004Y1390599D1*
X2857578Y1383442D1*
X2921800Y1319220D1*
X2928280Y1320085D1*
X2937146D1*
X2945903Y1318698D1*
X2954335Y1315958D1*
X2962234Y1311933D1*
X2969407Y1306722D1*
X2975676Y1300453D1*
X2980887Y1293280D1*
X2984912Y1285381D1*
X2987652Y1276949D1*
X2989039Y1268192D1*
Y1259326D1*
X2987652Y1250569D1*
X2984912Y1242137D1*
X2980887Y1234238D1*
X2975676Y1227065D1*
X2969407Y1220796D1*
X2962234Y1215585D1*
X2954335Y1211560D1*
X2945903Y1208820D1*
X2937146Y1207433D1*
X2928280D1*
X2919523Y1208820D1*
X2911092Y1211560D1*
X2903192Y1215585D1*
X2896019Y1220796D1*
X2889750Y1227065D1*
X2884539Y1234238D1*
X2880514Y1242137D1*
X2877774Y1250569D1*
X2876387Y1259326D1*
Y1268192D1*
X2877311Y1274620D1*
X2798360Y1353702D1*
X2795455Y1357701D1*
X2793211Y1362105D1*
X2791683Y1366806D1*
X2790910Y1371688D1*
X2790813Y1438464D1*
Y3023074D1*
X2786954Y3027061D1*
X2782665Y3032964D1*
X2779352Y3039466D1*
X2777098Y3046405D1*
X2776219Y3051388D1*
X2769523Y3052569D1*
X2761092Y3055309D1*
X2753192Y3059334D1*
X2746019Y3064545D1*
X2739750Y3070815D1*
X2734539Y3077987D1*
X2730514Y3085887D1*
X2727774Y3094319D1*
X2726387Y3103075D1*
Y3111941D1*
X2727774Y3120698D1*
X2730514Y3129130D1*
X2734539Y3137030D1*
X2739750Y3144202D1*
X2746019Y3150471D1*
X2753192Y3155683D1*
X2761092Y3159708D1*
X2769523Y3162447D1*
X2778280Y3163834D1*
X2787146D1*
X2795903Y3162447D1*
X2804335Y3159708D1*
X2810163Y3156843D1*
X2813665Y3163777D1*
X2817954Y3169680D1*
X2823114Y3174840D1*
X2829017Y3179129D1*
X2835518Y3182441D1*
X2842458Y3184696D1*
X2849665Y3185837D1*
X2856961D1*
X2864168Y3184696D1*
X2871108Y3182441D1*
X2877609Y3179129D1*
X2883512Y3174840D1*
X2888672Y3169680D1*
X2892961Y3163777D1*
X2896273Y3157276D1*
X2898528Y3150336D1*
X2899670Y3143129D1*
Y3135832D1*
X2898528Y3128626D1*
X2896273Y3121686D1*
X2892961Y3115185D1*
X2888672Y3109282D1*
X2884821Y3105332D1*
X2884813Y2485276D1*
X2891587Y2484684D1*
X2898682Y2482981D1*
X2905423Y2480188D1*
X2911645Y2476376D1*
X2917193Y2471637D1*
X2921932Y2466088D1*
X2925745Y2459867D1*
X2928537Y2453126D1*
X2930240Y2446031D1*
X2930813Y2438756D1*
X2930240Y2431482D1*
X2928537Y2424387D1*
X2925745Y2417646D1*
X2921932Y2411424D1*
X2917193Y2405876D1*
X2915821Y2404608D1*
X2915813Y2068970D1*
X2946804Y2037964D1*
X2953279Y2038834D1*
X2962145D1*
X2970901Y2037447D1*
X2979333Y2034708D1*
X2987233Y2030683D1*
X2994406Y2025471D1*
X3000675Y2019202D1*
X3005886Y2012030D1*
X3009911Y2004130D1*
X3012651Y1995698D1*
X3014038Y1986941D1*
Y1978075D1*
X3012651Y1969319D1*
X3009911Y1960887D1*
X3005886Y1952987D1*
X3000675Y1945815D1*
X2994406Y1939545D1*
X2987233Y1934334D1*
X2979333Y1930309D1*
X2970901Y1927569D1*
X2962145Y1926183D1*
X2953279D1*
X2944522Y1927569D1*
X2936090Y1930309D1*
X2928191Y1934334D1*
X2921018Y1939545D1*
X2914749Y1945815D1*
X2909538Y1952987D1*
X2905513Y1960887D1*
X2902773Y1969319D1*
X2901386Y1978075D1*
Y1986941D1*
X2902310Y1993370D1*
X2884817Y2010856D1*
X2884813Y1450161D1*
X3688154D1*
X3693509Y1457477D1*
X3700141Y1464108D1*
X3707728Y1469621D1*
X3714137Y1472981D1*
X3707728Y1476401D1*
X3700141Y1481914D1*
X3693509Y1488545D1*
X3687996Y1496133D1*
X3683739Y1504489D1*
X3680840Y1513409D1*
X3679373Y1522672D1*
Y1532051D1*
X3680780Y1541008D1*
X3292958Y1928949D1*
X3290053Y1932948D1*
X3287809Y1937352D1*
X3286282Y1942053D1*
X3285508Y1946935D1*
X3285411Y2013711D1*
Y3347562D1*
X3281552Y3351589D1*
X3277264Y3357492D1*
X3273951Y3363993D1*
X3271696Y3370933D1*
X3270555Y3378140D1*
Y3385436D1*
X3271696Y3392643D1*
X3273951Y3399583D1*
X3277264Y3406084D1*
X3281552Y3411987D1*
X3286712Y3417147D1*
X3292615Y3421436D1*
X3299117Y3424748D1*
X3306056Y3427003D1*
X3313263Y3428145D1*
X3320560D1*
X3327766Y3427003D1*
X3332686Y3425494D1*
X3333974Y3433198D1*
X3336713Y3441630D1*
X3340738Y3449530D1*
X3345950Y3456702D1*
X3352219Y3462971D1*
X3359391Y3468183D1*
X3367291Y3472208D1*
X3375723Y3474947D1*
X3384480Y3476334D1*
X3393346D1*
X3402102Y3474947D1*
X3410534Y3472208D1*
X3418434Y3468183D1*
X3425606Y3462971D1*
X3431876Y3456702D1*
X3437087Y3449530D1*
X3441112Y3441630D1*
X3443851Y3433198D1*
X3445238Y3424441D1*
Y3415575D1*
X3443851Y3406819D1*
X3441112Y3398387D1*
X3437087Y3390487D1*
X3431876Y3383315D1*
X3425606Y3377045D1*
X3418434Y3371834D1*
X3410534Y3367809D1*
X3402102Y3365069D1*
X3393346Y3363683D1*
X3384480D1*
X3375723Y3365069D1*
X3367291Y3367809D1*
X3361977Y3370386D1*
X3359872Y3363993D1*
X3356559Y3357492D1*
X3352270Y3351589D1*
X3348420Y3347639D1*
X3348411Y1962461D1*
X3679374Y1631492D1*
X3679373Y1640752D1*
X3680840Y1650015D1*
X3683739Y1658934D1*
X3687996Y1667291D1*
X3693509Y1674878D1*
X3700141Y1681510D1*
X3707728Y1687023D1*
X3714137Y1690382D1*
X3707728Y1693803D1*
X3700141Y1699315D1*
X3693509Y1705947D1*
X3687996Y1713534D1*
X3683739Y1721891D1*
X3680840Y1730810D1*
X3679373Y1740074D1*
Y1749452D1*
X3680840Y1758715D1*
X3683739Y1767635D1*
X3687996Y1775992D1*
X3693509Y1783579D1*
X3700141Y1790211D1*
X3707728Y1795723D1*
X3714137Y1799083D1*
X3707728Y1802503D1*
X3700141Y1808016D1*
X3693509Y1814648D1*
X3687996Y1822235D1*
X3683739Y1830592D1*
X3680840Y1839511D1*
X3679373Y1848774D1*
Y1858153D1*
X3680840Y1867416D1*
X3683739Y1876336D1*
X3687996Y1884692D1*
X3693509Y1892280D1*
X3700141Y1898912D1*
X3707728Y1904424D1*
X3714137Y1907784D1*
X3707728Y1911204D1*
X3700141Y1916717D1*
X3693509Y1923349D1*
X3687996Y1930936D1*
X3683739Y1939292D1*
X3680840Y1948212D1*
X3679373Y1957475D1*
Y1966854D1*
X3680840Y1976117D1*
X3683739Y1985037D1*
X3687996Y1993393D1*
X3693509Y2000981D1*
X3700141Y2007612D1*
X3707728Y2013125D1*
X3714137Y2016485D1*
X3707728Y2019905D1*
X3700141Y2025418D1*
X3693509Y2032049D1*
X3687996Y2039637D1*
X3683739Y2047993D1*
X3680840Y2056913D1*
X3679373Y2066176D1*
Y2075555D1*
X3680840Y2084818D1*
X3683739Y2093737D1*
X3687996Y2102094D1*
X3693509Y2109681D1*
X3700141Y2116313D1*
X3707728Y2121826D1*
X3714137Y2125186D1*
X3707728Y2128606D1*
X3700141Y2134118D1*
X3693509Y2140750D1*
X3687996Y2148338D1*
X3683739Y2156694D1*
X3680840Y2165614D1*
X3679373Y2174877D1*
Y2184255D1*
X3680840Y2193519D1*
X3683739Y2202438D1*
X3687996Y2210795D1*
X3693509Y2218382D1*
X3700141Y2225014D1*
X3707728Y2230526D1*
X3714137Y2233886D1*
X3707728Y2237307D1*
X3700141Y2242819D1*
X3693509Y2249451D1*
X3687996Y2257038D1*
X3683739Y2265395D1*
X3680840Y2274314D1*
X3679373Y2283578D1*
Y2292956D1*
X3680840Y2302219D1*
X3683739Y2311139D1*
X3687996Y2319495D1*
X3693509Y2327083D1*
X3700141Y2333715D1*
X3707728Y2339227D1*
X3714137Y2342587D1*
X3707728Y2346007D1*
X3700141Y2351520D1*
X3693509Y2358152D1*
X3687996Y2365739D1*
X3683739Y2374096D1*
X3680840Y2383015D1*
X3679373Y2392278D1*
Y2401657D1*
X3680840Y2410920D1*
X3683739Y2419840D1*
X3687996Y2428196D1*
X3693509Y2435784D1*
X3700141Y2442415D1*
X3707728Y2447928D1*
X3714137Y2451288D1*
X3707728Y2454708D1*
X3700141Y2460221D1*
X3693509Y2466852D1*
X3687996Y2474440D1*
X3683739Y2482796D1*
X3680840Y2491716D1*
X3679373Y2500979D1*
Y2510358D1*
X3680840Y2519621D1*
X3683739Y2528541D1*
X3687996Y2536897D1*
X3693509Y2544485D1*
X3700141Y2551116D1*
X3707728Y2556629D1*
X3716085Y2560887D1*
X3725004Y2563785D1*
X3734267Y2565252D1*
X3743646D1*
X3752909Y2563785D1*
X3761829Y2560887D1*
X3770185Y2556629D1*
X3777773Y2551116D1*
X3784404Y2544485D1*
X3789917Y2536897D1*
X3794175Y2528541D1*
X3797073Y2519621D1*
X3798540Y2510358D1*
Y2500979D1*
X3797073Y2491716D1*
X3794175Y2482796D1*
X3789917Y2474440D1*
X3784404Y2466852D1*
X3777773Y2460221D1*
X3770185Y2454708D1*
X3763777Y2451348D1*
X3770185Y2447928D1*
X3777773Y2442415D1*
X3784404Y2435784D1*
X3789917Y2428196D1*
X3794175Y2419840D1*
X3797073Y2410920D1*
X3798540Y2401657D1*
Y2392278D1*
X3797073Y2383015D1*
X3794175Y2374096D1*
X3789917Y2365739D1*
X3784404Y2358152D1*
X3777773Y2351520D1*
X3770185Y2346007D1*
X3763777Y2342647D1*
X3770185Y2339227D1*
X3777773Y2333715D1*
X3784404Y2327083D1*
X3789917Y2319495D1*
X3794175Y2311139D1*
X3797073Y2302219D1*
X3798540Y2292956D1*
Y2283578D1*
X3797073Y2274314D1*
X3794175Y2265395D1*
X3789917Y2257038D1*
X3784404Y2249451D1*
X3777773Y2242819D1*
X3770185Y2237307D1*
X3763777Y2233947D1*
X3770185Y2230526D1*
X3777773Y2225014D1*
X3784404Y2218382D1*
X3789917Y2210795D1*
X3794175Y2202438D1*
X3797073Y2193519D1*
X3798540Y2184255D1*
Y2174877D1*
X3797073Y2165614D1*
X3794175Y2156694D1*
X3789917Y2148338D1*
X3784404Y2140750D1*
X3777773Y2134118D1*
X3770185Y2128606D1*
X3763777Y2125246D1*
X3770185Y2121826D1*
X3777773Y2116313D1*
X3784404Y2109681D1*
X3789917Y2102094D1*
X3794175Y2093737D1*
X3797073Y2084818D1*
X3798540Y2075555D1*
Y2066176D1*
X3797073Y2056913D1*
X3794175Y2047993D1*
X3789917Y2039637D1*
X3784404Y2032049D1*
X3777773Y2025418D1*
X3770185Y2019905D1*
X3763777Y2016545D1*
X3770185Y2013125D1*
X3777773Y2007612D1*
X3784404Y2000981D1*
X3789917Y1993393D1*
X3794175Y1985037D1*
X3797073Y1976117D1*
X3798540Y1966854D1*
Y1957475D1*
X3797073Y1948212D1*
X3794175Y1939292D1*
X3789917Y1930936D1*
X3784404Y1923349D1*
X3777773Y1916717D1*
X3770185Y1911204D1*
X3763777Y1907844D1*
X3770185Y1904424D1*
X3777773Y1898912D1*
X3784404Y1892280D1*
X3789917Y1884692D1*
X3794175Y1876336D1*
X3797073Y1867416D1*
X3798540Y1858153D1*
Y1848774D1*
X3797073Y1839511D1*
X3794175Y1830592D1*
X3789917Y1822235D1*
X3784404Y1814648D1*
X3777773Y1808016D1*
X3770185Y1802503D1*
X3763777Y1799144D1*
X3770185Y1795723D1*
X3777773Y1790211D1*
X3784404Y1783579D1*
X3789917Y1775992D1*
X3794175Y1767635D1*
X3797073Y1758715D1*
X3798540Y1749452D1*
Y1740074D1*
X3797073Y1730810D1*
X3794175Y1721891D1*
X3789917Y1713534D1*
X3784404Y1705947D1*
X3777773Y1699315D1*
X3770185Y1693803D1*
X3763777Y1690443D1*
X3770185Y1687023D1*
X3777773Y1681510D1*
X3784404Y1674878D1*
X3789917Y1667291D1*
X3794175Y1658934D1*
X3797073Y1650015D1*
X3798540Y1640752D1*
Y1631373D1*
X3797073Y1622110D1*
X3794175Y1613190D1*
X3789917Y1604834D1*
X3784404Y1597246D1*
X3777773Y1590614D1*
X3770185Y1585102D1*
X3763777Y1581742D1*
X3770185Y1578322D1*
X3777773Y1572809D1*
X3784404Y1566177D1*
X3789917Y1558590D1*
X3794175Y1550234D1*
X3797073Y1541314D1*
X3798540Y1532051D1*
Y1522672D1*
X3797073Y1513409D1*
X3794175Y1504489D1*
X3789917Y1496133D1*
X3784404Y1488545D1*
X3777773Y1481914D1*
X3770185Y1476401D1*
X3763777Y1473041D1*
X3770185Y1469621D1*
X3777773Y1464108D1*
X3784404Y1457477D1*
X3789917Y1449889D1*
X3794175Y1441533D1*
X3797073Y1432613D1*
X3798540Y1423350D1*
Y1413971D1*
X3797073Y1404708D1*
X3794175Y1395789D1*
X3789917Y1387432D1*
X3784404Y1379845D1*
X3777773Y1373213D1*
X3770185Y1367700D1*
X3763777Y1364340D1*
X3770185Y1360920D1*
X3777773Y1355408D1*
X3784404Y1348776D1*
X3789917Y1341188D1*
X3794175Y1332832D1*
X3797073Y1323912D1*
X3798540Y1314649D1*
Y1305271D1*
X3797073Y1296007D1*
X3794175Y1287088D1*
X3789917Y1278731D1*
X3784404Y1271144D1*
X3777773Y1264512D1*
X3773219Y1261026D1*
X3791255Y1261027D1*
X3792651Y1269569D1*
X3795550Y1278488D1*
X3799807Y1286845D1*
X3805320Y1294432D1*
X3811952Y1301064D1*
X3819539Y1306576D1*
X3825948Y1309936D1*
X3819539Y1313356D1*
X3811952Y1318869D1*
X3805320Y1325501D1*
X3799807Y1333088D1*
X3795550Y1341445D1*
X3792651Y1350364D1*
X3791184Y1359627D1*
Y1369006D1*
X3792651Y1378269D1*
X3795550Y1387189D1*
X3799807Y1395545D1*
X3805320Y1403133D1*
X3811952Y1409765D1*
X3819539Y1415277D1*
X3825948Y1418637D1*
X3819539Y1422057D1*
X3811952Y1427570D1*
X3805320Y1434202D1*
X3799807Y1441789D1*
X3795550Y1450145D1*
X3792651Y1459065D1*
X3791184Y1468328D1*
Y1477707D1*
X3792651Y1486970D1*
X3795550Y1495890D1*
X3799807Y1504246D1*
X3805320Y1511834D1*
X3811952Y1518465D1*
X3819539Y1523978D1*
X3825948Y1527338D1*
X3819539Y1530758D1*
X3811952Y1536271D1*
X3805320Y1542902D1*
X3799807Y1550490D1*
X3795550Y1558846D1*
X3792651Y1567766D1*
X3791184Y1577029D1*
Y1586408D1*
X3792651Y1595671D1*
X3795550Y1604590D1*
X3799807Y1612947D1*
X3805320Y1620534D1*
X3811952Y1627166D1*
X3819539Y1632679D1*
X3825948Y1636039D1*
X3819539Y1639459D1*
X3811952Y1644971D1*
X3805320Y1651603D1*
X3799807Y1659191D1*
X3795550Y1667547D1*
X3792651Y1676467D1*
X3791184Y1685730D1*
Y1695108D1*
X3792651Y1704372D1*
X3795550Y1713291D1*
X3799807Y1721648D1*
X3805320Y1729235D1*
X3811952Y1735867D1*
X3819539Y1741380D1*
X3825948Y1744739D1*
X3819539Y1748160D1*
X3811952Y1753672D1*
X3805320Y1760304D1*
X3799807Y1767891D1*
X3795550Y1776248D1*
X3792651Y1785167D1*
X3791184Y1794431D1*
Y1803809D1*
X3792651Y1813072D1*
X3795550Y1821992D1*
X3799807Y1830348D1*
X3805320Y1837936D1*
X3811952Y1844568D1*
X3819539Y1850080D1*
X3825948Y1853440D1*
X3819514Y1856876D1*
X3813501Y1861094D1*
X3808052Y1866017D1*
X3803247Y1871572D1*
X3799160Y1877674D1*
X3795852Y1884232D1*
X3793373Y1891145D1*
X3791762Y1898311D1*
X3791041Y1905620D1*
X3791222Y1912962D1*
X3792302Y1920227D1*
X3794265Y1927304D1*
X3797081Y1934087D1*
X3800708Y1940473D1*
X3805091Y1946367D1*
X3810163Y1951678D1*
X3815849Y1956327D1*
X3822062Y1960244D1*
X3825906Y1962165D1*
X3819539Y1965561D1*
X3811952Y1971074D1*
X3805320Y1977705D1*
X3799807Y1985293D1*
X3795550Y1993649D1*
X3792651Y2002569D1*
X3791184Y2011832D1*
Y2021211D1*
X3792651Y2030474D1*
X3795550Y2039394D1*
X3799807Y2047750D1*
X3805320Y2055338D1*
X3811952Y2061969D1*
X3819539Y2067482D1*
X3825948Y2070842D1*
X3819539Y2074262D1*
X3811952Y2079775D1*
X3805320Y2086406D1*
X3799807Y2093994D1*
X3795550Y2102350D1*
X3792651Y2111270D1*
X3791184Y2120533D1*
Y2129912D1*
X3792651Y2139175D1*
X3795550Y2148094D1*
X3799807Y2156451D1*
X3805320Y2164038D1*
X3811952Y2170670D1*
X3819539Y2176183D1*
X3825948Y2179543D1*
X3819539Y2182963D1*
X3811952Y2188475D1*
X3805320Y2195107D1*
X3799807Y2202695D1*
X3795550Y2211051D1*
X3792651Y2219971D1*
X3791184Y2229234D1*
Y2238612D1*
X3792651Y2247876D1*
X3795550Y2256795D1*
X3799807Y2265152D1*
X3805320Y2272739D1*
X3811952Y2279371D1*
X3819539Y2284883D1*
X3825948Y2288243D1*
X3819539Y2291664D1*
X3811952Y2297176D1*
X3805320Y2303808D1*
X3799807Y2311395D1*
X3795550Y2319752D1*
X3792651Y2328671D1*
X3791184Y2337935D1*
Y2347313D1*
X3792651Y2356576D1*
X3795550Y2365496D1*
X3799807Y2373852D1*
X3805320Y2381440D1*
X3811952Y2388072D1*
X3819539Y2393584D1*
X3825948Y2396944D1*
X3819539Y2400364D1*
X3811952Y2405877D1*
X3805320Y2412509D1*
X3799807Y2420096D1*
X3795550Y2428453D1*
X3792651Y2437372D1*
X3791184Y2446635D1*
Y2456014D1*
X3792651Y2465277D1*
X3795550Y2474197D1*
X3799807Y2482553D1*
X3805320Y2490141D1*
X3811952Y2496772D1*
X3819539Y2502285D1*
X3827896Y2506543D1*
X3836815Y2509441D1*
X3846078Y2510908D1*
X3855457D1*
X3864720Y2509441D1*
X3873640Y2506543D1*
X3881996Y2502285D1*
X3889584Y2496772D1*
X3896215Y2490141D1*
X3901728Y2482553D1*
X3905986Y2474197D1*
X3908884Y2465277D1*
X3910351Y2456014D1*
Y2446635D1*
X3908884Y2437372D1*
X3905986Y2428453D1*
X3901728Y2420096D1*
X3896215Y2412509D1*
X3889584Y2405877D1*
X3881996Y2400364D1*
X3875588Y2397004D1*
X3881996Y2393584D1*
X3889584Y2388072D1*
X3896215Y2381440D1*
X3901728Y2373852D1*
X3905986Y2365496D1*
X3908884Y2356576D1*
X3910351Y2347313D1*
Y2337935D1*
X3908884Y2328671D1*
X3905986Y2319752D1*
X3901728Y2311395D1*
X3896215Y2303808D1*
X3889584Y2297176D1*
X3881996Y2291664D1*
X3875588Y2288304D1*
X3881996Y2284883D1*
X3889584Y2279371D1*
X3896215Y2272739D1*
X3901728Y2265152D1*
X3905986Y2256795D1*
X3908884Y2247876D1*
X3910351Y2238612D1*
Y2229234D1*
X3908884Y2219971D1*
X3905986Y2211051D1*
X3901728Y2202695D1*
X3896215Y2195107D1*
X3889584Y2188475D1*
X3881996Y2182963D1*
X3875588Y2179603D1*
X3881996Y2176183D1*
X3889584Y2170670D1*
X3896215Y2164038D1*
X3901728Y2156451D1*
X3905986Y2148094D1*
X3908884Y2139175D1*
X3910351Y2129912D1*
Y2120533D1*
X3908884Y2111270D1*
X3905986Y2102350D1*
X3901728Y2093994D1*
X3896215Y2086406D1*
X3889584Y2079775D1*
X3881996Y2074262D1*
X3875588Y2070902D1*
X3881996Y2067482D1*
X3889584Y2061969D1*
X3896215Y2055338D1*
X3901728Y2047750D1*
X3905986Y2039394D1*
X3908884Y2030474D1*
X3910351Y2021211D1*
Y2011832D1*
X3908884Y2002569D1*
X3905986Y1993649D1*
X3901728Y1985293D1*
X3896215Y1977705D1*
X3889584Y1971074D1*
X3881996Y1965561D1*
X3875588Y1962201D1*
X3881711Y1958955D1*
X3887749Y1954774D1*
X3893228Y1949884D1*
X3898067Y1944358D1*
X3902191Y1938281D1*
X3905539Y1931744D1*
X3908059Y1924846D1*
X3909715Y1917690D1*
X3910480Y1910386D1*
X3910282Y1902317D1*
X3909157Y1895059D1*
X3907151Y1887994D1*
X3904293Y1881228D1*
X3900628Y1874864D1*
X3896209Y1868997D1*
X3891104Y1863717D1*
X3885390Y1859103D1*
X3879154Y1855224D1*
X3875626Y1853471D1*
X3881996Y1850080D1*
X3889584Y1844568D1*
X3896215Y1837936D1*
X3901728Y1830348D1*
X3905986Y1821992D1*
X3908884Y1813072D1*
X3910351Y1803809D1*
Y1794431D1*
X3908884Y1785167D1*
X3905986Y1776248D1*
X3901728Y1767891D1*
X3896215Y1760304D1*
X3889584Y1753672D1*
X3881996Y1748160D1*
X3875588Y1744800D1*
X3881996Y1741380D1*
X3889584Y1735867D1*
X3896215Y1729235D1*
X3901728Y1721648D1*
X3905986Y1713291D1*
X3908884Y1704372D1*
X3910351Y1695108D1*
Y1685730D1*
X3908884Y1676467D1*
X3905986Y1667547D1*
X3901728Y1659191D1*
X3896215Y1651603D1*
X3889584Y1644971D1*
X3881996Y1639459D1*
X3875588Y1636099D1*
X3881996Y1632679D1*
X3889584Y1627166D1*
X3896215Y1620534D1*
X3901728Y1612947D1*
X3905986Y1604590D1*
X3908884Y1595671D1*
X3910351Y1586408D1*
Y1577029D1*
X3908884Y1567766D1*
X3905986Y1558846D1*
X3901728Y1550490D1*
X3896215Y1542902D1*
X3889584Y1536271D1*
X3881996Y1530758D1*
X3875588Y1527398D1*
X3881996Y1523978D1*
X3889584Y1518465D1*
X3896215Y1511834D1*
X3901728Y1504246D1*
X3905986Y1495890D1*
X3908884Y1486970D1*
X3910351Y1477707D1*
Y1468328D1*
X3908884Y1459065D1*
X3905986Y1450145D1*
X3901728Y1441789D1*
X3896215Y1434202D1*
X3889584Y1427570D1*
X3881996Y1422057D1*
X3875588Y1418697D1*
X3881996Y1415277D1*
X3889584Y1409765D1*
X3896215Y1403133D1*
X3901728Y1395545D1*
X3905986Y1387189D1*
X3908884Y1378269D1*
X3910351Y1369006D1*
Y1359627D1*
X3908884Y1350364D1*
X3905986Y1341445D1*
X3901728Y1333088D1*
X3896215Y1325501D1*
X3889584Y1318869D1*
X3881996Y1313356D1*
X3875588Y1309997D1*
X3881996Y1306576D1*
X3889584Y1301064D1*
X3896215Y1294432D1*
X3901728Y1286845D1*
X3905986Y1278488D1*
X3908884Y1269569D1*
X3910351Y1260305D1*
Y1250927D1*
X3908884Y1241664D1*
X3905986Y1232744D1*
X3901728Y1224387D1*
X3896215Y1216800D1*
X3889584Y1210168D1*
X3881996Y1204656D1*
X3873640Y1200398D1*
X3864720Y1197500D1*
X3855457Y1196033D1*
X3846078D1*
X3836815Y1197500D1*
X3827896Y1200398D1*
X3819539Y1204656D1*
X3811952Y1210168D1*
X3805320Y1216800D1*
X3799807Y1224387D1*
X3798724Y1226323D1*
X3798725Y1141491D1*
X3679189D1*
Y1261027D1*
X3688375D1*
X3914712Y2770507D2*
X3913662Y2761383D1*
X3911918Y2752366D1*
X3909490Y2743509D1*
X3906393Y2734862D1*
X3902646Y2726478D1*
X3898269Y2718404D1*
X3893288Y2710687D1*
X3887733Y2703374D1*
X3881635Y2696506D1*
X3875031Y2690123D1*
X3867959Y2684264D1*
X3860461Y2678961D1*
X3852579Y2674247D1*
X3844360Y2670148D1*
X3835852Y2666689D1*
X3827105Y2663889D1*
X3818170Y2661765D1*
X3809099Y2660330D1*
X3799945Y2659591D1*
X3790761Y2659553D1*
X3781601Y2660217D1*
X3772518Y2661579D1*
X3763566Y2663629D1*
X3754796Y2666358D1*
X3746260Y2669747D1*
X3738009Y2673779D1*
X3730089Y2678429D1*
X3722547Y2683670D1*
X3715427Y2689472D1*
X3708771Y2695800D1*
X3702618Y2702618D1*
X3697003Y2709886D1*
X3691960Y2717561D1*
X3687517Y2725599D1*
X3683701Y2733953D1*
X3680534Y2742574D1*
X3678034Y2751411D1*
X3676216Y2760414D1*
X3675091Y2769529D1*
X3674665Y2778703D1*
X3674941Y2787883D1*
X3675917Y2797015D1*
X3677588Y2806046D1*
X3679943Y2814923D1*
X3682969Y2823594D1*
X3686648Y2832009D1*
X3690959Y2840119D1*
X3695876Y2847875D1*
X3701372Y2855234D1*
X3707413Y2862151D1*
X3713965Y2868588D1*
X3720989Y2874505D1*
X3728444Y2879868D1*
X3736287Y2884647D1*
X3744472Y2888813D1*
X3752951Y2892342D1*
X3761675Y2895213D1*
X3770592Y2897409D1*
X3779651Y2898919D1*
X3788799Y2899732D1*
X3797983Y2899845D1*
X3807148Y2899256D1*
X3816242Y2897968D1*
X3825210Y2895991D1*
X3834002Y2893334D1*
X3842565Y2890014D1*
X3850849Y2886050D1*
X3858807Y2881465D1*
X3866391Y2876286D1*
X3873558Y2870542D1*
X3880265Y2864269D1*
X3886474Y2857501D1*
X3892148Y2850279D1*
X3897254Y2842645D1*
X3901762Y2834644D1*
X3905647Y2826322D1*
X3908884Y2817727D1*
X3911456Y2808910D1*
X3913347Y2799923D1*
X3914546Y2790818D1*
X3915063Y2779684D1*
X3914712Y2770507D1*
Y918066D2*
X3913662Y908942D1*
X3911918Y899925D1*
X3909490Y891068D1*
X3906393Y882421D1*
X3902646Y874037D1*
X3898269Y865963D1*
X3893288Y858246D1*
X3887733Y850933D1*
X3881635Y844065D1*
X3875031Y837682D1*
X3867959Y831823D1*
X3860461Y826520D1*
X3852579Y821806D1*
X3844360Y817707D1*
X3835852Y814248D1*
X3827105Y811448D1*
X3818170Y809324D1*
X3809099Y807889D1*
X3799945Y807150D1*
X3790761Y807113D1*
X3781601Y807776D1*
X3772518Y809138D1*
X3763566Y811188D1*
X3754796Y813917D1*
X3746260Y817307D1*
X3738009Y821338D1*
X3730089Y825988D1*
X3722547Y831229D1*
X3715427Y837031D1*
X3708771Y843359D1*
X3702618Y850177D1*
X3697003Y857445D1*
X3691960Y865120D1*
X3687517Y873158D1*
X3683701Y881512D1*
X3680534Y890133D1*
X3678034Y898970D1*
X3676216Y907973D1*
X3675091Y917088D1*
X3674665Y926262D1*
X3674941Y935442D1*
X3675917Y944574D1*
X3677588Y953605D1*
X3679943Y962482D1*
X3682969Y971153D1*
X3686648Y979568D1*
X3690959Y987678D1*
X3695876Y995434D1*
X3701372Y1002793D1*
X3707413Y1009710D1*
X3713965Y1016147D1*
X3720989Y1022064D1*
X3728444Y1027427D1*
X3736287Y1032206D1*
X3744472Y1036372D1*
X3752951Y1039901D1*
X3761675Y1042772D1*
X3770592Y1044968D1*
X3779651Y1046478D1*
X3788799Y1047291D1*
X3797983Y1047404D1*
X3807148Y1046815D1*
X3816242Y1045528D1*
X3825210Y1043550D1*
X3834002Y1040893D1*
X3842565Y1037573D1*
X3850849Y1033609D1*
X3858807Y1029024D1*
X3866391Y1023845D1*
X3873558Y1018101D1*
X3880265Y1011828D1*
X3886474Y1005060D1*
X3892148Y997838D1*
X3897254Y990205D1*
X3901762Y982203D1*
X3905647Y973881D1*
X3908884Y965286D1*
X3911456Y956469D1*
X3913347Y947482D1*
X3914546Y938377D1*
X3915063Y927243D1*
X3914712Y918066D1*
X1233451Y3816217D2*
X1230703Y3824668D1*
X1228874Y3833666D1*
X1228092Y3842814D1*
X1228369Y3851991D1*
X1229699Y3861075D1*
X1232067Y3869946D1*
X1235439Y3878485D1*
X1239772Y3886580D1*
X1245007Y3894122D1*
X1251076Y3901012D1*
X1251326Y3901259D1*
X1164097Y3901258D1*
X1169749Y3894963D1*
X1175085Y3887492D1*
X1179527Y3879456D1*
X1183014Y3870963D1*
X1185501Y3862125D1*
X1186953Y3853059D1*
X1187361Y3845008D1*
X1186832Y3835842D1*
X1185252Y3826798D1*
X1182641Y3817996D1*
X1181974Y3816215D1*
X1190037Y3818629D1*
X1195868Y3819789D1*
X1201771Y3820488D1*
X1207712Y3820721D1*
X1213652Y3820488D1*
X1219556Y3819789D1*
X1225387Y3818629D1*
X1233483Y3816139D1*
X536513Y3214498D2*
X527880Y3211704D1*
X518879Y3209895D1*
X509729Y3209134D1*
X500553Y3209431D1*
X491471Y3210782D1*
X482606Y3213169D1*
X476468Y3215498D1*
X476462Y3162020D1*
X483673Y3164693D1*
X492571Y3166955D1*
X501670Y3168178D1*
X510850Y3168346D1*
X519988Y3167456D1*
X528963Y3165520D1*
X536513Y3163013D1*
X534092Y3171083D1*
X532933Y3176914D1*
X532234Y3182817D1*
X532001Y3188758D1*
X532234Y3194698D1*
X532933Y3200602D1*
X534092Y3206432D1*
X536582Y3214529D1*
X2559610Y2816293D2*
X2484213D1*
Y2831616D1*
X2479424Y2827745D1*
X2475677Y2825242D1*
X2475581Y2627040D1*
X2474807Y2622157D1*
X2473280Y2617456D1*
X2471036Y2613052D1*
X2468131Y2609053D1*
X2450449Y2591234D1*
X2446690Y2588024D1*
X2442476Y2585442D1*
X2437909Y2583550D1*
X2433103Y2582396D1*
X2428165Y2582009D1*
X2350773Y2582008D1*
X2350540Y2577996D1*
X2356531Y2578865D1*
X2363827D1*
X2371034Y2577724D1*
X2377974Y2575469D1*
X2384475Y2572156D1*
X2387309Y2570262D1*
X2542081Y2570258D1*
X2546000Y2575452D1*
X2552269Y2581721D1*
X2559441Y2586932D1*
X2567341Y2590957D1*
X2575773Y2593697D1*
X2584530Y2595084D1*
X2593395D1*
X2602152Y2593697D1*
X2610584Y2590957D1*
X2614471Y2589165D1*
X2614462Y2761413D1*
X2559619Y2816268D1*
X2412678Y2825242D2*
X2405234Y2830660D1*
X2398580Y2837314D1*
X2394204Y2843198D1*
X2389775Y2837314D1*
X2383122Y2830660D1*
X2375677Y2825242D1*
X2375581Y2659645D1*
X2374807Y2654762D1*
X2373280Y2650061D1*
X2371030Y2645649D1*
X2371962Y2645008D1*
X2412691D1*
X2412678Y2825259D1*
X2257148Y2817745D2*
X2248882Y2816478D1*
X2239473D1*
X2230179Y2817950D1*
X2221230Y2820858D1*
X2212846Y2825130D1*
X2205234Y2830660D1*
X2198580Y2837314D1*
X2194204Y2843198D1*
X2189775Y2837314D1*
X2183122Y2830660D1*
X2175677Y2825242D1*
X2175678Y2753641D1*
X2179384Y2749832D1*
X2182289Y2745833D1*
X2184533Y2741429D1*
X2186061Y2736728D1*
X2186834Y2731846D1*
X2186931Y2665070D1*
Y2377530D1*
X2190790Y2373519D1*
X2192335Y2371559D1*
X2192431Y2632582D1*
X2193204Y2637464D1*
X2194732Y2642165D1*
X2196976Y2646570D1*
X2199881Y2650568D1*
X2217563Y2668387D1*
X2221321Y2671598D1*
X2225536Y2674180D1*
X2230102Y2676072D1*
X2234909Y2677226D1*
X2239836Y2677614D1*
X2269513D1*
X2264347Y2680361D1*
X2258444Y2684650D1*
X2253285Y2689809D1*
X2248996Y2695712D1*
X2245683Y2702214D1*
X2243428Y2709153D1*
X2242287Y2716360D1*
Y2723657D1*
X2243428Y2730864D1*
X2245683Y2737803D1*
X2248996Y2744305D1*
X2253285Y2750208D1*
X2257135Y2754157D1*
X2257143Y2817721D1*
X2112678Y2825242D2*
X2105234Y2830660D1*
X2098580Y2837314D1*
X2094204Y2843198D1*
X2089775Y2837314D1*
X2083122Y2830660D1*
X2075677Y2825242D1*
X2075581Y2387851D1*
X2074807Y2382969D1*
X2073280Y2378268D1*
X2071036Y2373863D1*
X2068131Y2369864D1*
X2050449Y2352046D1*
X2046690Y2348835D1*
X2042476Y2346253D1*
X2037909Y2344361D1*
X2033103Y2343207D1*
X2028165Y2342820D1*
X1942304Y2342819D1*
X1942333Y2329002D1*
X1949107Y2328436D1*
X1956202Y2326733D1*
X1962943Y2323940D1*
X1969165Y2320128D1*
X1974713Y2315389D1*
X1975981Y2314017D1*
X1985432Y2314009D1*
X1989421Y2317867D1*
X1995324Y2322156D1*
X2001825Y2325469D1*
X2008765Y2327724D1*
X2015972Y2328865D1*
X2023268D1*
X2030475Y2327724D1*
X2037415Y2325469D1*
X2043916Y2322156D1*
X2049819Y2317867D1*
X2053769Y2314017D1*
X2119342Y2314009D1*
X2115783Y2319023D1*
X2112471Y2325525D1*
X2110216Y2332464D1*
X2109074Y2339671D1*
Y2346968D1*
X2110216Y2354175D1*
X2112471Y2361114D1*
X2115783Y2367616D1*
X2120072Y2373519D1*
X2123922Y2377468D1*
X2123931Y2716336D1*
X2118694Y2722113D1*
X2116111Y2726327D1*
X2114219Y2730894D1*
X2113065Y2735700D1*
X2112678Y2740628D1*
Y2825207D1*
X2012678Y2825242D2*
X2005234Y2830660D1*
X1998580Y2837314D1*
X1994204Y2843198D1*
X1989775Y2837314D1*
X1983122Y2830660D1*
X1975677Y2825242D1*
X1975678Y2590297D1*
X2012658Y2553334D1*
X2012678Y2825203D1*
X1912678Y2825242D2*
X1905234Y2830660D1*
X1898580Y2837314D1*
X1894204Y2843198D1*
X1889775Y2837314D1*
X1883122Y2830660D1*
X1875677Y2825242D1*
X1875678Y2569053D1*
X1933678Y2511022D1*
X1947947Y2511012D1*
X1951980Y2514871D1*
X1957800Y2519105D1*
X1920225Y2556808D1*
X1917319Y2560807D1*
X1915075Y2565211D1*
X1913548Y2569912D1*
X1912775Y2574794D1*
X1912678Y2641570D1*
Y2825261D1*
X1812678Y2825242D2*
X1805234Y2830660D1*
X1798580Y2837314D1*
X1793049Y2844926D1*
X1788778Y2853310D1*
X1785870Y2862259D1*
X1784398Y2871553D1*
Y2880963D1*
X1785665Y2889228D1*
X1761457Y2889225D1*
X1761463Y2428865D1*
X1844092Y2511504D1*
X1820225Y2535517D1*
X1817319Y2539515D1*
X1815075Y2543920D1*
X1813548Y2548621D1*
X1812775Y2553503D1*
X1812678Y2620279D1*
Y2825213D1*
X2512674Y1553793D2*
X2484213D1*
Y1569116D1*
X2479424Y1565245D1*
X2471401Y1560329D1*
X2462708Y1556728D1*
X2453558Y1554531D1*
X2444178Y1553793D1*
X2434797Y1554531D1*
X2425648Y1556728D1*
X2416954Y1560329D1*
X2408931Y1565245D1*
X2401776Y1571356D1*
X2395665Y1578511D1*
X2394204Y1580698D1*
X2389775Y1574814D1*
X2383122Y1568160D1*
X2375509Y1562630D1*
X2367125Y1558358D1*
X2358176Y1555450D1*
X2348882Y1553978D1*
X2339473D1*
X2330179Y1555450D1*
X2321230Y1558358D1*
X2312846Y1562630D1*
X2305234Y1568160D1*
X2298580Y1574814D1*
X2294204Y1580698D1*
X2289775Y1574814D1*
X2283122Y1568160D1*
X2275509Y1562630D1*
X2267125Y1558358D1*
X2258176Y1555450D1*
X2248882Y1553978D1*
X2239473D1*
X2230179Y1555450D1*
X2221230Y1558358D1*
X2212846Y1562630D1*
X2205234Y1568160D1*
X2198580Y1574814D1*
X2194204Y1580698D1*
X2189775Y1574814D1*
X2183122Y1568160D1*
X2175677Y1562742D1*
X2175581Y1535568D1*
X2174187Y1527363D1*
Y1420320D1*
X2180961Y1419747D1*
X2188056Y1418044D1*
X2194797Y1415251D1*
X2201019Y1411439D1*
X2206567Y1406700D1*
X2207836Y1405328D1*
X2318871Y1405222D1*
X2323753Y1404449D1*
X2328454Y1402922D1*
X2332858Y1400678D1*
X2336857Y1397772D1*
X2353060Y1381706D1*
X2359528Y1382584D1*
X2368394D1*
X2377151Y1381197D1*
X2385583Y1378457D1*
X2393482Y1374432D1*
X2400655Y1369221D1*
X2401457Y1368480D1*
X2406593Y1370481D1*
X2413688Y1372184D1*
X2420962Y1372756D1*
X2428237Y1372184D1*
X2435332Y1370481D1*
X2442073Y1367688D1*
X2448294Y1363876D1*
X2453843Y1359137D1*
X2454433Y1358498D1*
X2453133Y1366360D1*
Y1373657D1*
X2454275Y1380864D1*
X2456530Y1387803D1*
X2459842Y1394305D1*
X2464131Y1400208D1*
X2469291Y1405367D1*
X2475194Y1409656D1*
X2481695Y1412969D1*
X2488635Y1415224D1*
X2495842Y1416365D1*
X2503138D1*
X2510345Y1415224D1*
X2512665Y1414569D1*
X2512678Y1553763D1*
X2112678Y1562742D2*
X2105234Y1568160D1*
X2098580Y1574814D1*
X2094204Y1580698D1*
X2089775Y1574814D1*
X2083122Y1568160D1*
X2075677Y1562742D1*
X2075678Y1413632D1*
X2080977Y1415224D1*
X2088184Y1416365D1*
X2095481D1*
X2102688Y1415224D1*
X2109627Y1412969D1*
X2111195Y1412246D1*
X2111284Y1539021D1*
X2112678Y1547226D1*
Y1562764D1*
X1912678Y1562742D2*
X1905234Y1568160D1*
X1898580Y1574814D1*
X1894204Y1580698D1*
X1889775Y1574814D1*
X1883122Y1568160D1*
X1875509Y1562630D1*
X1867125Y1558358D1*
X1858176Y1555450D1*
X1848882Y1553978D1*
X1839473D1*
X1830179Y1555450D1*
X1821230Y1558358D1*
X1812846Y1562630D1*
X1805234Y1568160D1*
X1798580Y1574814D1*
X1793049Y1582426D1*
X1788778Y1590810D1*
X1785870Y1599759D1*
X1784398Y1609053D1*
Y1618463D1*
X1785870Y1627756D1*
X1788778Y1636705D1*
X1791728Y1642730D1*
X1773931Y1642725D1*
X1773907Y1363580D1*
X1779229Y1365224D1*
X1786436Y1366365D1*
X1793733D1*
X1800940Y1365224D1*
X1807879Y1362969D1*
X1814381Y1359656D1*
X1820284Y1355367D1*
X1824233Y1351517D1*
X1912701Y1351508D1*
X1912678Y1405232D1*
X1906438Y1402048D1*
X1902944Y1400765D1*
X1889101Y1387056D1*
X1885102Y1384150D1*
X1880698Y1381906D1*
X1875997Y1380379D1*
X1873562Y1379895D1*
X1870823Y1378128D1*
X1865275Y1373389D1*
X1859053Y1369577D1*
X1852312Y1366784D1*
X1845217Y1365081D1*
X1837943Y1364508D1*
X1830669Y1365081D1*
X1823573Y1366784D1*
X1816832Y1369577D1*
X1810611Y1373389D1*
X1805062Y1378128D1*
X1800323Y1383676D1*
X1796511Y1389898D1*
X1793719Y1396639D1*
X1792015Y1403734D1*
X1791443Y1411008D1*
X1792015Y1418283D1*
X1793719Y1425378D1*
X1796511Y1432119D1*
X1800323Y1438340D1*
X1805062Y1443889D1*
X1810611Y1448628D1*
X1816832Y1452440D1*
X1823573Y1455233D1*
X1830669Y1456936D1*
X1837943Y1457508D1*
X1843758Y1457109D1*
X1845683Y1462803D1*
X1848996Y1469305D1*
X1853285Y1475208D1*
X1858444Y1480367D1*
X1864347Y1484656D1*
X1870849Y1487969D1*
X1877788Y1490224D1*
X1884995Y1491365D1*
X1892292D1*
X1899499Y1490224D1*
X1906438Y1487969D1*
X1912678Y1484803D1*
Y1562763D1*
X2695288Y3103075D2*
X2693901Y3094319D1*
X2691162Y3085887D1*
X2687137Y3077987D1*
X2681925Y3070815D1*
X2675656Y3064545D1*
X2668484Y3059334D1*
X2660584Y3055309D1*
X2652152Y3052569D1*
X2643395Y3051183D1*
X2634530D1*
X2625773Y3052569D1*
X2617341Y3055309D1*
X2609441Y3059334D1*
X2602269Y3064545D1*
X2596000Y3070815D1*
X2590788Y3077987D1*
X2586763Y3085887D1*
X2584024Y3094319D1*
X2582637Y3103075D1*
Y3111941D1*
X2584024Y3120698D1*
X2586763Y3129130D1*
X2590788Y3137030D1*
X2596000Y3144202D1*
X2602269Y3150471D1*
X2607467Y3154364D1*
X2607462Y3188499D1*
X2538055Y3257892D1*
X2532491Y3257998D1*
X2525284Y3259140D1*
X2518345Y3261394D1*
X2511843Y3264707D1*
X2505940Y3268996D1*
X2500781Y3274156D1*
X2496492Y3280059D1*
X2493179Y3286560D1*
X2490924Y3293500D1*
X2489783Y3300707D1*
Y3308003D1*
X2490924Y3315210D1*
X2493179Y3322150D1*
X2496492Y3328651D1*
X2500781Y3334554D1*
X2505940Y3339714D1*
X2511843Y3344003D1*
X2518345Y3347315D1*
X2525284Y3349570D1*
X2532491Y3350712D1*
X2539788D1*
X2546995Y3349570D1*
X2553934Y3347315D1*
X2560436Y3344003D1*
X2566339Y3339714D1*
X2571499Y3334554D1*
X2575787Y3328651D1*
X2579100Y3322150D1*
X2581355Y3315210D1*
X2582496Y3308003D1*
X2582566Y3302488D1*
X2662915Y3221990D1*
X2665821Y3217991D1*
X2668065Y3213587D1*
X2669592Y3208886D1*
X2670365Y3204003D1*
X2670463Y3154416D1*
X2675656Y3150471D1*
X2681925Y3144202D1*
X2687137Y3137030D1*
X2691162Y3129130D1*
X2693901Y3120698D1*
X2695288Y3111941D1*
Y3103075D1*
X3220238Y3228075D2*
X3218851Y3219319D1*
X3216112Y3210887D1*
X3212087Y3202987D1*
X3206876Y3195815D1*
X3200606Y3189545D1*
X3193434Y3184334D1*
X3185534Y3180309D1*
X3177102Y3177569D1*
X3168346Y3176183D1*
X3159480D1*
X3150723Y3177569D1*
X3142291Y3180309D1*
X3134391Y3184334D1*
X3127219Y3189545D1*
X3120950Y3195815D1*
X3115738Y3202987D1*
X3111713Y3210887D1*
X3108974Y3219319D1*
X3107587Y3228075D1*
Y3236941D1*
X3108974Y3245698D1*
X3111713Y3254130D1*
X3115738Y3262030D1*
X3120950Y3269202D1*
X3127219Y3275471D1*
X3134391Y3280683D1*
X3142291Y3284708D1*
X3150723Y3287447D1*
X3159480Y3288834D1*
X3168346D1*
X3177102Y3287447D1*
X3185534Y3284708D1*
X3193434Y3280683D1*
X3200606Y3275471D1*
X3206876Y3269202D1*
X3212087Y3262030D1*
X3216112Y3254130D1*
X3218851Y3245698D1*
X3220238Y3236941D1*
Y3228075D1*
X2101633Y3580671D2*
X2100918Y3573362D1*
X2099261Y3566208D1*
X2096690Y3559329D1*
X2093248Y3552841D1*
X2088994Y3546855D1*
X2083999Y3541471D1*
X2078348Y3536781D1*
X2072137Y3532863D1*
X2065470Y3529784D1*
X2058459Y3527595D1*
X2051224Y3526334D1*
X2043887Y3526023D1*
X2036571Y3526665D1*
X2029401Y3528252D1*
X2022497Y3530754D1*
X2015975Y3534132D1*
X2009947Y3538326D1*
X2004514Y3543267D1*
X1999767Y3548871D1*
X1995788Y3555043D1*
X1992643Y3561680D1*
X1990385Y3568668D1*
X1989052Y3575890D1*
X1988668Y3583224D1*
X1989238Y3590545D1*
X1990753Y3597731D1*
X1993187Y3604660D1*
X1996499Y3611215D1*
X2000634Y3617284D1*
X2005520Y3622766D1*
X2011077Y3627568D1*
X2017209Y3631609D1*
X2023814Y3634820D1*
X2030779Y3637147D1*
X2037988Y3638551D1*
X2045317Y3639008D1*
X2052645Y3638511D1*
X2059845Y3637067D1*
X2066798Y3634702D1*
X2073385Y3631455D1*
X2079495Y3627381D1*
X2085025Y3622549D1*
X2089882Y3617041D1*
X2093983Y3610949D1*
X2097260Y3604376D1*
X2099656Y3597434D1*
X2101132Y3590240D1*
X2101663Y3582508D1*
X2101633Y3580671D1*
X920433Y3530671D2*
X919717Y3523362D1*
X918060Y3516208D1*
X915489Y3509329D1*
X912047Y3502841D1*
X907793Y3496855D1*
X902798Y3491471D1*
X897147Y3486781D1*
X890936Y3482863D1*
X884269Y3479784D1*
X877258Y3477595D1*
X870024Y3476334D1*
X862686Y3476023D1*
X855371Y3476665D1*
X848200Y3478252D1*
X841296Y3480754D1*
X834774Y3484132D1*
X828746Y3488326D1*
X823313Y3493267D1*
X818567Y3498871D1*
X814587Y3505043D1*
X811442Y3511680D1*
X809184Y3518668D1*
X807851Y3525890D1*
X807467Y3533224D1*
X808037Y3540545D1*
X809552Y3547731D1*
X811986Y3554660D1*
X815298Y3561215D1*
X819433Y3567284D1*
X824320Y3572766D1*
X829876Y3577568D1*
X836008Y3581609D1*
X842613Y3584820D1*
X849579Y3587147D1*
X856787Y3588551D1*
X864117Y3589008D1*
X871444Y3588511D1*
X878644Y3587067D1*
X885597Y3584702D1*
X892184Y3581455D1*
X898294Y3577381D1*
X903825Y3572549D1*
X908681Y3567041D1*
X912783Y3560949D1*
X916059Y3554376D1*
X918455Y3547434D1*
X919931Y3540240D1*
X920462Y3532508D1*
X920433Y3530671D1*
X3726682Y3536922D2*
X3725967Y3529613D1*
X3724309Y3522459D1*
X3721738Y3515580D1*
X3718296Y3509092D1*
X3714042Y3503106D1*
X3709048Y3497722D1*
X3703397Y3493031D1*
X3697185Y3489113D1*
X3690518Y3486034D1*
X3683508Y3483846D1*
X3676273Y3482585D1*
X3668936Y3482273D1*
X3661620Y3482916D1*
X3654449Y3484502D1*
X3647545Y3487005D1*
X3641024Y3490382D1*
X3634996Y3494577D1*
X3629562Y3499518D1*
X3624816Y3505122D1*
X3620837Y3511294D1*
X3617691Y3517930D1*
X3615433Y3524918D1*
X3614101Y3532140D1*
X3613716Y3539474D1*
X3614286Y3546796D1*
X3615801Y3553982D1*
X3618235Y3560911D1*
X3621548Y3567465D1*
X3625682Y3573535D1*
X3630569Y3579017D1*
X3636125Y3583819D1*
X3642258Y3587859D1*
X3648863Y3591070D1*
X3655828Y3593397D1*
X3663036Y3594802D1*
X3670366Y3595259D1*
X3677693Y3594762D1*
X3684894Y3593318D1*
X3691846Y3590953D1*
X3698433Y3587706D1*
X3704544Y3583632D1*
X3710074Y3578800D1*
X3714931Y3573291D1*
X3719032Y3567199D1*
X3722308Y3560627D1*
X3724705Y3553685D1*
X3726180Y3546491D1*
X3726712Y3538759D1*
X3726682Y3536922D1*
X1206006Y3103075D2*
X1204619Y3094319D1*
X1201880Y3085887D1*
X1197854Y3077987D1*
X1192643Y3070815D1*
X1186374Y3064545D1*
X1179201Y3059334D1*
X1171302Y3055309D1*
X1162870Y3052569D1*
X1154113Y3051183D1*
X1145247D1*
X1136491Y3052569D1*
X1128059Y3055309D1*
X1120159Y3059334D1*
X1112987Y3064545D1*
X1106717Y3070815D1*
X1105956Y3071781D1*
X1102132Y3067557D1*
X1095390Y3061799D1*
X1087831Y3057167D1*
X1079640Y3053774D1*
X1071019Y3051704D1*
X1062180Y3051008D1*
X1053342Y3051704D1*
X1044721Y3053774D1*
X1036530Y3057167D1*
X1028970Y3061799D1*
X1022229Y3067557D1*
X1016471Y3074299D1*
X1011838Y3081858D1*
X1008446Y3090049D1*
X1006376Y3098670D1*
X1005680Y3107508D1*
X1006376Y3116347D1*
X1008446Y3124968D1*
X1011838Y3133159D1*
X1016471Y3140718D1*
X1022229Y3147460D1*
X1028970Y3153218D1*
X1036530Y3157850D1*
X1044721Y3161243D1*
X1053342Y3163313D1*
X1062180Y3164008D1*
X1071019Y3163313D1*
X1079640Y3161243D1*
X1087831Y3157850D1*
X1095390Y3153218D1*
X1102132Y3147460D1*
X1105905Y3143236D1*
X1109729Y3147460D1*
X1116470Y3153218D1*
X1124030Y3157850D1*
X1132221Y3161243D1*
X1140842Y3163313D1*
X1149680Y3164008D1*
X1158519Y3163313D1*
X1167140Y3161243D1*
X1175331Y3157850D1*
X1182890Y3153218D1*
X1189632Y3147460D1*
X1195390Y3140718D1*
X1200022Y3133159D1*
X1203415Y3124968D1*
X1205485Y3116347D1*
X1206180Y3107508D1*
X1206006Y3103075D1*
X1351489Y3096825D2*
X1350102Y3088068D1*
X1347362Y3079636D1*
X1343337Y3071737D1*
X1338126Y3064564D1*
X1331857Y3058295D1*
X1324684Y3053084D1*
X1316785Y3049059D1*
X1308353Y3046319D1*
X1299596Y3044932D1*
X1290730D1*
X1281974Y3046319D1*
X1275054Y3048501D1*
X1275065Y2590952D1*
X1290578Y2575439D1*
X1297028Y2576334D1*
X1305894D1*
X1314651Y2574947D1*
X1323083Y2572208D1*
X1330982Y2568183D1*
X1338155Y2562971D1*
X1344424Y2556702D1*
X1349635Y2549530D1*
X1353660Y2541630D1*
X1356400Y2533198D1*
X1357787Y2524441D1*
Y2515575D1*
X1356400Y2506819D1*
X1353660Y2498387D1*
X1349635Y2490487D1*
X1344424Y2483315D1*
X1338155Y2477045D1*
X1330982Y2471834D1*
X1323083Y2467809D1*
X1314651Y2465069D1*
X1305894Y2463683D1*
X1297028D1*
X1288271Y2465069D1*
X1279840Y2467809D1*
X1271940Y2471834D1*
X1264767Y2477045D1*
X1258498Y2483315D1*
X1253287Y2490487D1*
X1249262Y2498387D1*
X1246522Y2506819D1*
X1245135Y2515575D1*
Y2524441D1*
X1246059Y2530870D1*
X1219612Y2557447D1*
X1216707Y2561446D1*
X1214463Y2565850D1*
X1212935Y2570551D1*
X1212162Y2575433D1*
X1212065Y2642209D1*
X1212162Y3466019D1*
X1212935Y3470901D1*
X1214463Y3475602D1*
X1216707Y3480007D1*
X1219612Y3484005D1*
X1237291Y3501822D1*
X1241050Y3505032D1*
X1245264Y3507615D1*
X1249831Y3509506D1*
X1254637Y3510660D1*
X1259565Y3511048D1*
X1580405D1*
X1584436Y3514907D1*
X1590340Y3519196D1*
X1596841Y3522508D1*
X1603780Y3524763D1*
X1610987Y3525904D1*
X1618284D1*
X1625491Y3524763D1*
X1632430Y3522508D1*
X1638932Y3519196D1*
X1644835Y3514907D1*
X1648784Y3511056D1*
X2060712Y3511048D1*
X2064692Y3514907D1*
X2070595Y3519196D1*
X2077097Y3522508D1*
X2084036Y3524763D1*
X2091243Y3525904D1*
X2098540D1*
X2105747Y3524763D1*
X2112686Y3522508D1*
X2119188Y3519196D1*
X2125091Y3514907D1*
X2130250Y3509747D1*
X2134539Y3503844D1*
X2137852Y3497343D1*
X2140107Y3490403D1*
X2141248Y3483196D1*
Y3475899D1*
X2140107Y3468693D1*
X2137852Y3461753D1*
X2134539Y3455252D1*
X2130250Y3449348D1*
X2125091Y3444189D1*
X2119188Y3439900D1*
X2112686Y3436587D1*
X2105747Y3434333D1*
X2098540Y3433191D1*
X2091243D1*
X2084036Y3434333D1*
X2077097Y3436587D1*
X2070595Y3439900D1*
X2064692Y3444189D1*
X2060743Y3448039D1*
X1648815Y3448048D1*
X1644835Y3444189D1*
X1638932Y3439900D1*
X1632430Y3436587D1*
X1625491Y3434333D1*
X1618284Y3433191D1*
X1610987D1*
X1603780Y3434333D1*
X1596841Y3436587D1*
X1590340Y3439900D1*
X1584436Y3444189D1*
X1580487Y3448039D1*
X1275064Y3448048D1*
X1275065Y3318396D1*
X1280794Y3320679D1*
X1287889Y3322382D1*
X1295163Y3322955D1*
X1302437Y3322382D1*
X1309533Y3320679D1*
X1316274Y3317886D1*
X1322495Y3314074D1*
X1328044Y3309335D1*
X1329312Y3307963D1*
X1336581Y3314074D1*
X1342802Y3317886D1*
X1349543Y3320679D1*
X1356638Y3322382D1*
X1363913Y3322955D1*
X1371187Y3322382D1*
X1378282Y3320679D1*
X1385023Y3317886D1*
X1391245Y3314074D1*
X1396793Y3309335D1*
X1398061Y3307963D1*
X1514806Y3307955D1*
X1519290Y3311296D1*
X1523694Y3313540D1*
X1528395Y3315067D1*
X1533277Y3315841D1*
X1600053Y3315938D1*
X1729774D1*
X1733763Y3319796D1*
X1739666Y3324085D1*
X1746168Y3327398D1*
X1753107Y3329653D1*
X1760314Y3330794D1*
X1767611D1*
X1774818Y3329653D1*
X1781757Y3327398D1*
X1788259Y3324085D1*
X1794162Y3319796D1*
X1798111Y3315946D1*
X2260619Y3315841D1*
X2265501Y3315067D1*
X2270202Y3313540D1*
X2274606Y3311296D1*
X2278605Y3308390D1*
X2325892Y3261241D1*
X2401176Y3185957D1*
X2406753Y3185837D1*
X2413959Y3184696D1*
X2420899Y3182441D1*
X2427400Y3179129D1*
X2433304Y3174840D1*
X2438463Y3169680D1*
X2442752Y3163777D1*
X2446065Y3157276D1*
X2448319Y3150336D1*
X2449461Y3143129D1*
Y3135832D1*
X2448319Y3128626D1*
X2446065Y3121686D1*
X2442752Y3115185D1*
X2438463Y3109282D1*
X2433304Y3104122D1*
X2427400Y3099833D1*
X2420899Y3096520D1*
X2413959Y3094266D1*
X2406753Y3093124D1*
X2399456D1*
X2392249Y3094266D1*
X2385309Y3096520D1*
X2378808Y3099833D1*
X2372905Y3104122D1*
X2367745Y3109282D1*
X2363456Y3115185D1*
X2361447Y3118717D1*
X2363516Y3110096D1*
X2364212Y3101258D1*
X2363516Y3092419D1*
X2361447Y3083798D1*
X2358054Y3075607D1*
X2353421Y3068048D1*
X2347663Y3061306D1*
X2340922Y3055548D1*
X2333362Y3050916D1*
X2325171Y3047523D1*
X2316550Y3045453D1*
X2307712Y3044758D1*
X2298873Y3045453D1*
X2290252Y3047523D1*
X2282061Y3050916D1*
X2274502Y3055548D1*
X2267760Y3061306D1*
X2262002Y3068048D1*
X2257370Y3075607D1*
X2253977Y3083798D1*
X2251907Y3092419D1*
X2251212Y3101258D1*
X2251907Y3110096D1*
X2253977Y3118717D1*
X2257370Y3126908D1*
X2262002Y3134468D1*
X2267760Y3141209D1*
X2274502Y3146967D1*
X2282061Y3151600D1*
X2290252Y3154992D1*
X2298873Y3157062D1*
X2307712Y3157758D1*
X2316550Y3157062D1*
X2325171Y3154992D1*
X2333362Y3151600D1*
X2340922Y3146967D1*
X2347663Y3141209D1*
X2353421Y3134468D1*
X2358054Y3126908D1*
X2358874Y3125130D1*
X2357177Y3132207D1*
X2356604Y3139481D1*
X2356678Y3141348D1*
X2245105Y3252932D1*
X1798148Y3252937D1*
X1794162Y3249079D1*
X1788259Y3244790D1*
X1781757Y3241477D1*
X1774818Y3239222D1*
X1767611Y3238081D1*
X1760314D1*
X1753107Y3239222D1*
X1746168Y3241477D1*
X1739666Y3244790D1*
X1733763Y3249079D1*
X1729814Y3252929D1*
X1548693Y3252937D1*
X1544224Y3249596D1*
X1539820Y3247352D1*
X1535119Y3245825D1*
X1530237Y3245052D1*
X1463461Y3244954D1*
X1398116D1*
X1394112Y3241096D1*
X1388209Y3236807D1*
X1381707Y3233494D1*
X1374768Y3231239D1*
X1367561Y3230098D1*
X1360264D1*
X1353057Y3231239D1*
X1346118Y3233494D1*
X1339616Y3236807D1*
X1333713Y3241096D1*
X1329764Y3244946D1*
X1322495Y3238835D1*
X1316274Y3235023D1*
X1309533Y3232230D1*
X1302437Y3230527D1*
X1295163Y3229955D1*
X1287889Y3230527D1*
X1280794Y3232230D1*
X1275076Y3234551D1*
X1275065Y3154047D1*
X1281974Y3156197D1*
X1290730Y3157584D1*
X1299596D1*
X1308353Y3156197D1*
X1316785Y3153457D1*
X1324684Y3149432D1*
X1331857Y3144221D1*
X1338126Y3137952D1*
X1343337Y3130779D1*
X1347362Y3122879D1*
X1350102Y3114447D1*
X1351489Y3105691D1*
Y3096825D1*
X1832788D2*
X1831401Y3088068D1*
X1828662Y3079636D1*
X1824637Y3071737D1*
X1819425Y3064564D1*
X1813156Y3058295D1*
X1805984Y3053084D1*
X1798084Y3049059D1*
X1789652Y3046319D1*
X1780895Y3044932D1*
X1772030D1*
X1763273Y3046319D1*
X1754841Y3049059D1*
X1746941Y3053084D1*
X1739769Y3058295D1*
X1733500Y3064564D1*
X1728288Y3071737D1*
X1724263Y3079636D1*
X1721524Y3088068D1*
X1720137Y3096825D1*
Y3105691D1*
X1721524Y3114447D1*
X1724263Y3122879D1*
X1728288Y3130779D1*
X1733500Y3137952D1*
X1739769Y3144221D1*
X1746941Y3149432D1*
X1754841Y3153457D1*
X1763273Y3156197D1*
X1772030Y3157584D1*
X1780895D1*
X1789652Y3156197D1*
X1798084Y3153457D1*
X1805984Y3149432D1*
X1813156Y3144221D1*
X1819425Y3137952D1*
X1824637Y3130779D1*
X1828662Y3122879D1*
X1831401Y3114447D1*
X1832788Y3105691D1*
Y3096825D1*
X2534536Y2005001D2*
X2533158Y2011170D1*
X2532462Y2020008D1*
X2533158Y2028847D1*
X2535228Y2037468D1*
X2538621Y2045659D1*
X2543253Y2053218D1*
X2549011Y2059960D1*
X2553235Y2063733D1*
X2549011Y2067557D1*
X2543253Y2074299D1*
X2542107Y2076013D1*
X2389052Y2076008D1*
X2388512Y2069234D1*
X2386809Y2062139D1*
X2384016Y2055398D1*
X2380204Y2049176D1*
X2375465Y2043628D1*
X2374093Y2042360D1*
X2374085Y2019201D1*
X2378940Y2019865D1*
X2386237D1*
X2393444Y2018724D1*
X2400383Y2016469D1*
X2406885Y2013156D1*
X2412788Y2008867D1*
X2416737Y2005017D1*
X2534486Y2005008D1*
X2542107Y2139004D2*
X2546000Y2144202D1*
X2552269Y2150471D1*
X2553235Y2151233D1*
X2546976Y2157258D1*
X2357115Y2157268D1*
X2358841Y2153799D1*
X2373634Y2139006D1*
X2542051Y2139009D1*
X2538439Y2220265D2*
X2543253Y2228218D1*
X2549011Y2234960D1*
X2553235Y2238733D1*
X2549011Y2242557D1*
X2543253Y2249299D1*
X2538621Y2256858D1*
X2535228Y2265049D1*
X2533158Y2273670D1*
X2532462Y2282508D1*
X2533158Y2291347D1*
X2535228Y2299968D1*
X2538621Y2308159D1*
X2543253Y2315718D1*
X2549011Y2322460D1*
X2553235Y2326233D1*
X2549011Y2330057D1*
X2543253Y2336799D1*
X2538621Y2344358D1*
X2535228Y2352549D1*
X2533158Y2361170D1*
X2532462Y2370008D1*
X2533158Y2378847D1*
X2535228Y2387468D1*
X2538621Y2395659D1*
X2543253Y2403218D1*
X2549011Y2409960D1*
X2549711Y2410607D1*
X2546000Y2414564D1*
X2542107Y2419763D1*
X2317814Y2419855D1*
X2312932Y2420628D1*
X2308231Y2422155D1*
X2305976Y2423196D1*
X2304785Y2422968D1*
Y2370828D1*
X2312560Y2370247D1*
X2319655Y2368544D1*
X2326396Y2365751D1*
X2332617Y2361939D1*
X2338166Y2357200D1*
X2339434Y2355828D1*
X2350966Y2355819D1*
X2354940Y2359678D1*
X2360843Y2363967D1*
X2367345Y2367280D1*
X2374284Y2369535D1*
X2381491Y2370676D1*
X2388788D1*
X2395995Y2369535D1*
X2402934Y2367280D1*
X2409436Y2363967D1*
X2415339Y2359678D1*
X2420499Y2354519D1*
X2424787Y2348616D1*
X2428100Y2342114D1*
X2430355Y2335175D1*
X2431496Y2327968D1*
X2431566Y2322452D1*
X2458537Y2295332D1*
X2461443Y2291333D1*
X2463687Y2286929D1*
X2465214Y2282228D1*
X2465987Y2277346D1*
X2466085Y2260198D1*
X2469943Y2256208D1*
X2474232Y2250305D1*
X2477545Y2243803D1*
X2479800Y2236864D1*
X2480941Y2229657D1*
Y2222360D1*
X2480695Y2220278D1*
X2538414Y2220268D1*
X2542107Y2482753D2*
X2546000Y2487952D1*
X2552269Y2494221D1*
X2553235Y2494982D1*
X2549011Y2498806D1*
X2543253Y2505548D1*
X2542107Y2507263D1*
X2399243Y2507258D1*
X2395538Y2502309D1*
X2390378Y2497150D1*
X2384475Y2492861D1*
X2377974Y2489548D1*
X2371034Y2487293D1*
X2363827Y2486152D1*
X2356531D1*
X2349324Y2487293D1*
X2342384Y2489548D1*
X2335776Y2492932D1*
X2335785Y2482786D1*
X2542085Y2482758D1*
X2308370Y791348D2*
X2307635Y796825D1*
Y805691D1*
X2309022Y814447D1*
X2311762Y822879D1*
X2315787Y830779D1*
X2320998Y837952D1*
X2327267Y844221D1*
X2328234Y844982D1*
X2324010Y848806D1*
X2318252Y855548D1*
X2317106Y857263D1*
X2138357Y857258D1*
X2137760Y850482D1*
X2136057Y843387D1*
X2133264Y836646D1*
X2129452Y830424D1*
X2124713Y824876D1*
X2119165Y820137D1*
X2112943Y816325D1*
X2106202Y813532D1*
X2099107Y811829D1*
X2091833Y811256D1*
X2089966Y811330D1*
X2077340Y798716D1*
X2077333Y776482D1*
X2270212Y776509D1*
X2274232Y780367D1*
X2280135Y784656D1*
X2286636Y787969D1*
X2293576Y790224D1*
X2300783Y791365D1*
X2308348Y791333D1*
X2308559Y965397D2*
X2307635Y971825D1*
Y980691D1*
X2308289Y985759D1*
X2114251Y985760D1*
X2119165Y982628D1*
X2124713Y977889D1*
X2127306Y975062D1*
X2134184Y976117D1*
X2141481D1*
X2148688Y974976D1*
X2155627Y972721D1*
X2162129Y969408D1*
X2168032Y965119D1*
X2171981Y961269D1*
X2304443Y961260D1*
X2308511Y965356D1*
X2420287Y1059325D2*
X2418900Y1050568D1*
X2418387Y1048750D1*
X2512650Y1048760D1*
X2512678Y1255422D1*
X2419380Y1162129D1*
X2420287Y1155691D1*
Y1146825D1*
X2418900Y1138068D1*
X2416160Y1129636D1*
X2412135Y1121737D1*
X2406924Y1114564D1*
X2400655Y1108295D1*
X2399689Y1107533D1*
X2403913Y1103709D1*
X2409671Y1096968D1*
X2414303Y1089408D1*
X2417696Y1081217D1*
X2419766Y1072596D1*
X2420461Y1063758D1*
X2420287Y1059325D1*
X2309535Y1048750D2*
X2308157Y1054919D1*
X2307461Y1063758D1*
X2308157Y1072596D1*
X2310226Y1081217D1*
X2313619Y1089408D1*
X2318252Y1096968D1*
X2324010Y1103709D1*
X2328234Y1107482D1*
X2324010Y1111306D1*
X2318252Y1118048D1*
X2313619Y1125607D1*
X2310226Y1133798D1*
X2308823Y1139071D1*
X2284673Y1115059D1*
X2280674Y1112154D1*
X2276270Y1109910D1*
X2271569Y1108383D1*
X2266687Y1107609D1*
X2199911Y1107512D1*
X2135356D1*
X2140713Y1102889D1*
X2145452Y1097340D1*
X2149264Y1091119D1*
X2152057Y1084378D1*
X2153760Y1077283D1*
X2154333Y1070008D1*
X2153760Y1062734D1*
X2152057Y1055639D1*
X2149188Y1048761D1*
X2309474Y1048760D1*
X2308559Y1227897D2*
X2307635Y1234325D1*
Y1243191D1*
X2309022Y1251947D1*
X2311762Y1260379D1*
X2315787Y1268279D1*
X2320998Y1275452D1*
X2327267Y1281721D1*
X2328234Y1282482D1*
X2324010Y1286306D1*
X2318252Y1293048D1*
X2313619Y1300607D1*
X2310226Y1308798D1*
X2308157Y1317419D1*
X2307461Y1326258D1*
X2308157Y1335096D1*
X2308559Y1337119D1*
X2298027Y1342319D1*
X2207922D1*
X2203886Y1338461D1*
X2197983Y1334172D1*
X2191482Y1330859D1*
X2184542Y1328604D1*
X2177335Y1327463D1*
X2174186Y1327339D1*
X2174187Y1213484D1*
X2178801Y1211444D1*
X2185023Y1207632D1*
X2190571Y1202893D1*
X2195310Y1197344D1*
X2199123Y1191123D1*
X2201915Y1184382D1*
X2203618Y1177287D1*
X2204171Y1170511D1*
X2251190Y1170512D1*
X2308498Y1227842D1*
X2399689Y1282482D2*
X2403913Y1278709D1*
X2409671Y1271968D1*
X2414303Y1264408D1*
X2417696Y1256217D1*
X2419100Y1250945D1*
X2467973Y1299818D1*
X2467990Y1335769D1*
X2466019Y1337767D1*
X2467319Y1329905D1*
Y1322608D1*
X2466178Y1315401D1*
X2463923Y1308462D1*
X2460610Y1301960D1*
X2456321Y1296057D1*
X2451162Y1290898D1*
X2445259Y1286609D1*
X2438757Y1283296D1*
X2431818Y1281041D1*
X2424611Y1279900D1*
X2417314D1*
X2410107Y1281041D1*
X2403168Y1283296D1*
X2401523Y1284054D1*
X2399689Y1282533D1*
X1735858Y2151504D2*
X1739750Y2156702D1*
X1746019Y2162971D1*
X1746986Y2163733D1*
X1742762Y2167557D1*
X1737004Y2174299D1*
X1735858Y2176013D1*
X1723397Y2176008D1*
X1719410Y2172150D1*
X1713507Y2167861D1*
X1707005Y2164548D1*
X1700066Y2162293D1*
X1692859Y2161152D1*
X1689709Y2161028D1*
X1689711Y2151499D1*
X1735824Y2151508D1*
X1735858Y2239004D2*
X1739750Y2244202D1*
X1746019Y2250471D1*
X1753192Y2255683D1*
X1761092Y2259708D1*
X1766171Y2261502D1*
X1748758Y2279055D1*
X1745852Y2283054D1*
X1743608Y2287458D1*
X1742081Y2292159D1*
X1741308Y2297041D1*
X1741211Y2299522D1*
X1740080Y2305788D1*
X1732985Y2304085D1*
X1725710Y2303512D1*
X1723844Y2303586D1*
X1689700Y2269454D1*
X1689711Y2253984D1*
X1696485Y2253436D1*
X1703580Y2251733D1*
X1710321Y2248940D1*
X1716543Y2245128D1*
X1722091Y2240389D1*
X1723359Y2239017D1*
X1735824Y2239009D1*
X1626339Y1538906D2*
X1625149Y1531819D1*
X1622410Y1523387D1*
X1618385Y1515487D1*
X1613173Y1508315D1*
X1606904Y1502045D1*
X1605938Y1501284D1*
X1610162Y1497460D1*
X1615920Y1490718D1*
X1620552Y1483159D1*
X1623945Y1474968D1*
X1626015Y1466347D1*
X1626710Y1457508D1*
X1626015Y1448670D1*
X1624637Y1442501D1*
X1654110Y1442508D1*
X1658141Y1446367D1*
X1664044Y1450656D1*
X1670546Y1453969D1*
X1677485Y1456224D1*
X1684692Y1457365D1*
X1687842Y1457489D1*
X1687840Y1477411D1*
X1626400Y1538842D1*
X1558873Y1600316D2*
X1565778Y1601334D1*
X1574643D1*
X1579712Y1600681D1*
X1579710Y2135288D1*
X1575852Y2139285D1*
X1571563Y2145189D1*
X1568250Y2151690D1*
X1565995Y2158630D1*
X1564854Y2165836D1*
Y2173133D1*
X1565995Y2180340D1*
X1568250Y2187280D1*
X1571563Y2193781D1*
X1575852Y2199684D1*
X1581011Y2204844D1*
X1586914Y2209133D1*
X1593416Y2212445D1*
X1600355Y2214700D1*
X1607562Y2215841D1*
X1610712Y2215965D1*
X1610710Y2762200D1*
X1606852Y2766207D1*
X1602563Y2772110D1*
X1599250Y2778611D1*
X1596995Y2785551D1*
X1595854Y2792758D1*
Y2800054D1*
X1596995Y2807261D1*
X1599250Y2814201D1*
X1602563Y2820702D1*
X1606852Y2826605D1*
X1612011Y2831765D1*
X1617914Y2836054D1*
X1624416Y2839366D1*
X1631355Y2841621D1*
X1638562Y2842763D1*
X1645859D1*
X1653066Y2841621D1*
X1660005Y2839366D1*
X1666507Y2836054D1*
X1672410Y2831765D1*
X1677569Y2826605D1*
X1681858Y2820702D1*
X1685171Y2814201D1*
X1687426Y2807261D1*
X1688567Y2800054D1*
Y2792758D1*
X1687426Y2785551D1*
X1686624Y2782709D1*
X1693395Y2782585D1*
X1698464Y2781932D1*
X1698559Y2907196D1*
X1699333Y2912078D1*
X1700860Y2916780D1*
X1703090Y2921225D1*
X1503107D1*
X1502991Y2292734D1*
X1502218Y2287852D1*
X1500691Y2283151D1*
X1498447Y2278747D1*
X1495541Y2274748D1*
X1487088Y2266157D1*
X1487089Y2150202D1*
X1489757Y2154301D1*
X1494495Y2159849D1*
X1500044Y2164588D1*
X1506265Y2168401D1*
X1513007Y2171193D1*
X1520102Y2172897D1*
X1527376Y2173469D1*
X1534650Y2172897D1*
X1541745Y2171193D1*
X1548486Y2168401D1*
X1554708Y2164588D1*
X1560256Y2159849D1*
X1564995Y2154301D1*
X1568808Y2148080D1*
X1571600Y2141338D1*
X1573303Y2134243D1*
X1573876Y2126969D1*
X1573303Y2119695D1*
X1571600Y2112600D1*
X1568808Y2105858D1*
X1564995Y2099637D1*
X1560256Y2094089D1*
X1558884Y2092820D1*
X1558876Y1600369D1*
X1626536Y1365575D2*
X1625149Y1356819D1*
X1624637Y1355001D1*
X1687870Y1355008D1*
X1687840Y1364520D1*
X1681066Y1365081D1*
X1673971Y1366784D1*
X1667230Y1369577D1*
X1661008Y1373389D1*
X1655460Y1378128D1*
X1654192Y1379500D1*
X1625938Y1379508D1*
X1626710Y1370008D1*
X1626536Y1365575D1*
X3014039Y3021825D2*
X3012652Y3013068D1*
X3009912Y3004636D1*
X3005887Y2996737D1*
X3000676Y2989564D1*
X2994407Y2983295D1*
X2987234Y2978084D1*
X2979335Y2974059D1*
X2970903Y2971319D1*
X2962146Y2969932D1*
X2953280D1*
X2944523Y2971319D1*
X2936092Y2974059D1*
X2928192Y2978084D1*
X2921019Y2983295D1*
X2914750Y2989564D1*
X2909539Y2996737D1*
X2905514Y3004636D1*
X2902774Y3013068D1*
X2901387Y3021825D1*
Y3030691D1*
X2902774Y3039447D1*
X2905514Y3047879D1*
X2909539Y3055779D1*
X2914750Y3062952D1*
X2921019Y3069221D1*
X2928192Y3074432D1*
X2936092Y3078457D1*
X2944523Y3081197D1*
X2953280Y3082584D1*
X2962146D1*
X2970903Y3081197D1*
X2979335Y3078457D1*
X2987234Y3074432D1*
X2994407Y3069221D1*
X3000676Y3062952D1*
X3005887Y3055779D1*
X3009912Y3047879D1*
X3012652Y3039447D1*
X3014039Y3030691D1*
Y3021825D1*
Y2778075D2*
X3012652Y2769319D1*
X3009912Y2760887D1*
X3005887Y2752987D1*
X3000676Y2745815D1*
X2994407Y2739545D1*
X2987234Y2734334D1*
X2979335Y2730309D1*
X2970903Y2727569D1*
X2962146Y2726183D1*
X2953280D1*
X2944523Y2727569D1*
X2936092Y2730309D1*
X2928192Y2734334D1*
X2921019Y2739545D1*
X2914750Y2745815D1*
X2909539Y2752987D1*
X2905514Y2760887D1*
X2902774Y2769319D1*
X2901387Y2778075D1*
Y2786941D1*
X2902774Y2795698D1*
X2905514Y2804130D1*
X2909539Y2812030D1*
X2914750Y2819202D1*
X2921019Y2825471D1*
X2928192Y2830683D1*
X2936092Y2834708D1*
X2944523Y2837447D1*
X2953280Y2838834D1*
X2962146D1*
X2970903Y2837447D1*
X2979335Y2834708D1*
X2987234Y2830683D1*
X2994407Y2825471D1*
X3000676Y2819202D1*
X3005887Y2812030D1*
X3009912Y2804130D1*
X3012652Y2795698D1*
X3014039Y2786941D1*
Y2778075D1*
X2994878Y2496230D2*
X2990923Y2493048D1*
X2983364Y2488416D1*
X2975173Y2485023D1*
X2966552Y2482953D1*
X2957713Y2482258D1*
X2948875Y2482953D1*
X2940254Y2485023D1*
X2932063Y2488416D1*
X2924503Y2493048D1*
X2917762Y2498806D1*
X2912004Y2505548D1*
X2907371Y2513107D1*
X2903978Y2521298D1*
X2901909Y2529919D1*
X2901213Y2538758D1*
X2901909Y2547596D1*
X2903978Y2556217D1*
X2907371Y2564408D1*
X2912004Y2571968D1*
X2917762Y2578709D1*
X2924503Y2584467D1*
X2932063Y2589100D1*
X2940254Y2592492D1*
X2948875Y2594562D1*
X2957713Y2595258D1*
X2966552Y2594562D1*
X2975173Y2592492D1*
X2983364Y2589100D1*
X2990923Y2584467D1*
X2994878Y2581285D1*
X3002859Y2583972D1*
X3010066Y2585113D1*
X3017363D1*
X3024570Y2583972D1*
X3031509Y2581717D1*
X3038011Y2578404D1*
X3043914Y2574115D1*
X3049073Y2568956D1*
X3053362Y2563053D1*
X3056675Y2556551D1*
X3058930Y2549612D1*
X3060071Y2542405D1*
Y2535108D1*
X3058930Y2527901D1*
X3056675Y2520962D1*
X3053362Y2514460D1*
X3049073Y2508557D1*
X3043914Y2503398D1*
X3038011Y2499109D1*
X3031509Y2495796D1*
X3024570Y2493541D1*
X3017363Y2492400D1*
X3010066D1*
X3002859Y2493541D1*
X2995920Y2495796D1*
X2994922Y2496256D1*
X3014039Y1746825D2*
X3012652Y1738068D1*
X3009912Y1729636D1*
X3005887Y1721737D1*
X3000676Y1714564D1*
X2994407Y1708295D1*
X2987234Y1703084D1*
X2979335Y1699059D1*
X2970903Y1696319D1*
X2962146Y1694932D1*
X2953280D1*
X2944523Y1696319D1*
X2936092Y1699059D1*
X2928192Y1703084D1*
X2921019Y1708295D1*
X2914750Y1714564D1*
X2909539Y1721737D1*
X2905514Y1729636D1*
X2902774Y1738068D1*
X2901387Y1746825D1*
Y1755691D1*
X2902774Y1764447D1*
X2905514Y1772879D1*
X2909539Y1780779D1*
X2914750Y1787952D1*
X2921019Y1794221D1*
X2928192Y1799432D1*
X2936092Y1803457D1*
X2944523Y1806197D1*
X2953280Y1807584D1*
X2962146D1*
X2970903Y1806197D1*
X2979335Y1803457D1*
X2987234Y1799432D1*
X2994407Y1794221D1*
X3000676Y1787952D1*
X3005887Y1780779D1*
X3009912Y1772879D1*
X3012652Y1764447D1*
X3014039Y1755691D1*
Y1746825D1*
Y1509325D2*
X3012652Y1500568D1*
X3009912Y1492136D1*
X3005887Y1484237D1*
X3000676Y1477064D1*
X2994407Y1470795D1*
X2987234Y1465584D1*
X2979335Y1461559D1*
X2970903Y1458819D1*
X2962146Y1457432D1*
X2953280D1*
X2944523Y1458819D1*
X2936092Y1461559D1*
X2928192Y1465584D1*
X2921019Y1470795D1*
X2914750Y1477064D1*
X2909539Y1484237D1*
X2905514Y1492136D1*
X2902774Y1500568D1*
X2901387Y1509325D1*
Y1518191D1*
X2902774Y1526947D1*
X2905514Y1535379D1*
X2909539Y1543279D1*
X2914750Y1550452D1*
X2921019Y1556721D1*
X2928192Y1561932D1*
X2936092Y1565957D1*
X2944523Y1568697D1*
X2953280Y1570084D1*
X2962146D1*
X2970903Y1568697D1*
X2979335Y1565957D1*
X2987234Y1561932D1*
X2994407Y1556721D1*
X3000676Y1550452D1*
X3005887Y1543279D1*
X3009912Y1535379D1*
X3012652Y1526947D1*
X3014039Y1518191D1*
Y1509325D1*
X2989039Y1009326D2*
X2987652Y1000569D1*
X2984912Y992137D1*
X2980887Y984238D1*
X2975676Y977065D1*
X2969407Y970796D1*
X2962234Y965585D1*
X2954335Y961560D1*
X2945903Y958820D1*
X2937146Y957433D1*
X2928280D1*
X2919523Y958820D1*
X2911092Y961560D1*
X2903192Y965585D1*
X2896019Y970796D1*
X2889750Y977065D1*
X2884539Y984238D1*
X2880514Y992137D1*
X2877774Y1000569D1*
X2876387Y1009326D1*
Y1018192D1*
X2877774Y1026949D1*
X2880514Y1035381D1*
X2884539Y1043280D1*
X2889750Y1050453D1*
X2896019Y1056722D1*
X2903192Y1061933D1*
X2911092Y1065958D1*
X2919523Y1068698D1*
X2928280Y1070085D1*
X2937146D1*
X2945903Y1068698D1*
X2954335Y1065958D1*
X2962234Y1061933D1*
X2969407Y1056722D1*
X2975676Y1050453D1*
X2980887Y1043280D1*
X2984912Y1035381D1*
X2987652Y1026949D1*
X2989039Y1018192D1*
Y1009326D1*
X2989038Y759326D2*
X2987651Y750569D1*
X2984911Y742137D1*
X2980886Y734238D1*
X2975675Y727065D1*
X2969406Y720796D1*
X2962233Y715585D1*
X2954333Y711560D1*
X2945901Y708820D1*
X2937145Y707433D1*
X2928279D1*
X2919522Y708820D1*
X2911090Y711560D1*
X2903191Y715585D1*
X2896018Y720796D1*
X2889749Y727065D1*
X2884538Y734238D1*
X2880513Y742137D1*
X2877773Y750569D1*
X2876386Y759326D1*
Y768192D1*
X2877773Y776949D1*
X2880513Y785381D1*
X2884538Y793280D1*
X2889749Y800453D1*
X2896018Y806722D1*
X2903191Y811933D1*
X2911090Y815958D1*
X2919522Y818698D1*
X2928279Y820085D1*
X2937145D1*
X2945901Y818698D1*
X2954333Y815958D1*
X2962233Y811933D1*
X2969406Y806722D1*
X2975675Y800453D1*
X2980886Y793280D1*
X2984911Y785381D1*
X2987651Y776949D1*
X2989038Y768192D1*
Y759326D1*
X2096882Y2148582D2*
X2091367Y2148652D1*
X2084160Y2149793D1*
X2077220Y2152048D1*
X2070719Y2155361D1*
X2064816Y2159650D1*
X2059656Y2164809D1*
X2055367Y2170712D1*
X2052055Y2177214D1*
X2049800Y2184153D1*
X2048658Y2191360D1*
Y2198657D1*
X2049800Y2205864D1*
X2052055Y2212803D1*
X2055367Y2219305D1*
X2055835Y2220004D1*
X1924361Y2220105D1*
X1919479Y2220879D1*
X1914778Y2222406D1*
X1912523Y2223446D1*
X1909133Y2223442D1*
X1904567Y2221550D1*
X1899760Y2220396D1*
X1894823Y2220009D1*
X1889589Y2214763D1*
X1889492Y2046038D1*
X1888718Y2041156D1*
X1887191Y2036455D1*
X1886151Y2034201D1*
X1891962Y2032509D1*
X2037975D1*
X2048558Y2043099D1*
X2048658Y2048657D1*
X2049800Y2055864D1*
X2052055Y2062803D1*
X2055367Y2069305D1*
X2059656Y2075208D1*
X2064816Y2080367D1*
X2070719Y2084656D1*
X2077220Y2087969D1*
X2084160Y2090224D1*
X2091367Y2091365D1*
X2098663D1*
X2105870Y2090224D1*
X2112810Y2087969D1*
X2119311Y2084656D1*
X2124934Y2080588D1*
X2124931Y2120577D1*
X2096933Y2148542D1*
X2091786Y1923616D2*
X2096453Y1917305D1*
X2099765Y1910803D1*
X2102020Y1903864D1*
X2103162Y1896657D1*
X2103232Y1891141D1*
X2107371Y1886990D1*
X2128431Y1887009D1*
X2128364Y1888208D1*
X2126473Y1892774D1*
X2125319Y1897581D1*
X2124931Y1902508D1*
Y1934409D1*
X2119311Y1930361D1*
X2112810Y1927048D1*
X2105870Y1924793D1*
X2098663Y1923652D1*
X2091808Y1923634D1*
X1804197Y2359481D2*
X1811088Y2360008D1*
X1818363Y2359436D1*
X1825458Y2357733D1*
X1832199Y2354940D1*
X1838420Y2351128D1*
X1843969Y2346389D1*
X1848708Y2340840D1*
X1852520Y2334619D1*
X1855313Y2327878D1*
X1857016Y2320783D1*
X1857588Y2313508D1*
X1857515Y2311641D1*
X1879329Y2289816D1*
X1879430Y2360791D1*
X1880203Y2365673D1*
X1881730Y2370374D1*
X1883974Y2374778D1*
X1886880Y2378777D1*
X1904559Y2396593D1*
X1908317Y2399803D1*
X1912532Y2402386D1*
X1917099Y2404278D1*
X1921905Y2405432D1*
X1926833Y2405819D1*
X1966700D1*
X1967248Y2412594D1*
X1968951Y2419689D1*
X1971743Y2426430D1*
X1975556Y2432651D1*
X1976147Y2433402D1*
X1971324Y2434297D1*
X1964384Y2436552D1*
X1957883Y2439865D1*
X1951980Y2444153D1*
X1948030Y2448004D1*
X1918168Y2448109D1*
X1913286Y2448883D1*
X1908585Y2450410D1*
X1904181Y2452654D1*
X1900182Y2455559D1*
X1888647Y2466957D1*
X1804220Y2382537D1*
X1804211Y2359512D1*
X1307034Y1906499D2*
X1302219Y1907749D1*
X1295478Y1910541D1*
X1289256Y1914354D1*
X1283708Y1919093D1*
X1282440Y1920464D1*
X1230574Y1920473D1*
X1231855Y1914783D1*
X1232427Y1907508D1*
X1231855Y1900234D1*
X1230151Y1893139D1*
X1227359Y1886398D1*
X1225721Y1883474D1*
X1283970Y1883473D1*
X1307022Y1906497D1*
X1819441Y1035360D2*
X1818300Y1028153D1*
X1816045Y1021214D1*
X1812732Y1014712D1*
X1808443Y1008809D1*
X1804593Y1004860D1*
X1804487Y896876D1*
X1803714Y891993D1*
X1802187Y887292D1*
X1799943Y882888D1*
X1797037Y878889D1*
X1749888Y831603D1*
X1726925Y808640D1*
X1728287Y802889D1*
X1729555Y801517D1*
X1872414Y801411D1*
X1877296Y800638D1*
X1881997Y799111D1*
X1886402Y796867D1*
X1890400Y793961D1*
X1893896Y790466D1*
X1896801Y786467D1*
X1899045Y782063D1*
X1900573Y777362D1*
X1901346Y772480D1*
X1901443Y705704D1*
Y676530D1*
X1918418Y676508D1*
X1915873Y684153D1*
X1914732Y691360D1*
Y698657D1*
X1915873Y705864D1*
X1918128Y712803D1*
X1921441Y719305D1*
X1925730Y725208D1*
X1929580Y729157D1*
X1929588Y1069532D1*
X1808183Y1069508D1*
X1812732Y1063305D1*
X1816045Y1056803D1*
X1818300Y1049864D1*
X1819441Y1042657D1*
Y1035360D1*
X1729555Y738500D2*
X1725605Y734650D1*
X1719702Y730361D1*
X1713201Y727048D1*
X1706261Y724793D1*
X1699054Y723652D1*
X1691758D1*
X1684551Y724793D1*
X1677611Y727048D1*
X1673711Y728904D1*
Y560760D1*
X2139310Y560757D1*
X2139332Y610817D1*
X2135165Y607389D1*
X2128943Y603577D1*
X2122202Y600784D1*
X2115107Y599081D1*
X2107833Y598508D1*
X2100558Y599081D1*
X2093463Y600784D1*
X2086722Y603577D1*
X2080501Y607389D1*
X2074952Y612128D1*
X2073684Y613500D1*
X1883471Y613605D1*
X1878589Y614379D1*
X1873888Y615906D1*
X1869484Y618150D1*
X1865485Y621056D1*
X1847669Y638734D1*
X1844459Y642493D1*
X1841876Y646708D1*
X1839984Y651274D1*
X1838831Y656081D1*
X1838443Y661008D1*
Y738482D1*
X1729600Y738508D1*
X2073684Y676517D2*
X2077633Y680367D1*
X2083536Y684656D1*
X2090038Y687969D1*
X2096977Y690224D1*
X2104184Y691365D1*
X2111481D1*
X2118688Y690224D1*
X2125627Y687969D1*
X2132129Y684656D1*
X2138032Y680367D1*
X2139341Y679157D1*
X2139332Y694499D1*
X2018172Y694605D1*
X2013290Y695379D1*
X2008580Y696910D1*
X2007588Y695008D1*
X2007016Y687734D1*
X2005313Y680639D1*
X2003720Y676501D1*
X2073653Y676508D1*
X2214111Y2157264D2*
X2208542Y2153888D1*
X2201800Y2151095D1*
X2194705Y2149392D1*
X2187431Y2148819D1*
X2183939Y2148957D1*
X2186389Y2143326D1*
X2187543Y2138520D1*
X2187931Y2133583D1*
Y1918036D1*
X2328563Y1918008D1*
X2318632Y1928051D1*
X2315726Y1932050D1*
X2313482Y1936454D1*
X2311955Y1941155D1*
X2311181Y1946037D1*
X2311084Y2012813D1*
Y2042274D1*
X2307226Y2046309D1*
X2302937Y2052212D1*
X2299624Y2058714D1*
X2297369Y2065653D1*
X2296228Y2072860D1*
Y2080157D1*
X2297369Y2087364D1*
X2299624Y2094303D1*
X2302937Y2100805D1*
X2307226Y2106708D1*
X2311474Y2111025D1*
X2303310Y2111581D1*
X2296215Y2113284D1*
X2289474Y2116077D1*
X2283253Y2119889D1*
X2277704Y2124628D1*
X2272965Y2130176D1*
X2269153Y2136398D1*
X2266360Y2143139D1*
X2264657Y2150234D1*
X2264094Y2157266D1*
X2214152Y2157268D1*
X1791951Y1273582D2*
X1786436Y1273652D1*
X1779229Y1274793D1*
X1773347Y1276658D1*
X1772366Y1272774D1*
X1770474Y1268208D1*
X1767891Y1263993D1*
X1764674Y1260228D1*
X1757906Y1253460D1*
X1757907Y1154514D1*
X1761753Y1157628D1*
X1767974Y1161440D1*
X1774715Y1164233D1*
X1781810Y1165936D1*
X1789085Y1166508D1*
X1795778Y1166005D1*
X1798465Y1170151D1*
X1803204Y1175700D1*
X1804576Y1176968D1*
X1804585Y1260986D1*
X1792014Y1273531D1*
X1882441Y1139171D2*
X1881408Y1132510D1*
X1947560Y1132411D1*
X1952442Y1131638D1*
X1957152Y1130107D1*
X1957143Y1304436D1*
X1948633Y1296056D1*
X1944634Y1293150D1*
X1940230Y1290906D1*
X1935529Y1289379D1*
X1930647Y1288605D1*
X1864050Y1288508D1*
X1866043Y1283742D1*
X1867197Y1278936D1*
X1867584Y1273999D1*
X1867585Y1177013D1*
X1871443Y1173019D1*
X1875732Y1167116D1*
X1879045Y1160614D1*
X1881300Y1153675D1*
X1882441Y1146468D1*
Y1139171D1*
X941503Y1723336D2*
X945230Y1728397D1*
X949080Y1732346D1*
X949089Y2051983D1*
X946830Y2054008D1*
X941483D1*
X941510Y1723405D1*
X3851462Y3387122D2*
D14*
Y3227895D1*
X3771849Y3307508D2*
X3931076D1*
X3851462Y3187122D2*
Y3027895D1*
X3771849Y3107508D2*
X3931076D1*
X4051462Y3187122D2*
Y3027895D1*
X3971849Y3107508D2*
X4051462D1*
Y3387122D2*
Y3227895D1*
X3971849Y3307508D2*
X4051462D1*
X1282713Y799622D2*
Y640395D1*
X1203099Y720008D2*
X1362327D1*
X1082713Y799622D2*
Y640395D1*
X1003099Y720008D2*
X1162327D1*
X1082713Y599622D2*
Y440395D1*
X1003099Y520008D2*
X1162327D1*
X1282713Y599622D2*
Y440395D1*
X1203099Y520008D2*
X1362327D1*
X845212Y1332508D2*
Y1272777D1*
X785480Y1332508D2*
X904944D1*
X1126461Y1807508D2*
Y1747580D1*
Y1807508D2*
X1186390D1*
X3791036Y1907821D2*
X3910500D1*
X1107712Y3724622D2*
Y3565395D1*
X1028098Y3645008D2*
X1187326D1*
X1307712Y3724622D2*
Y3565395D1*
X1228098Y3645008D2*
X1387326D1*
X1307712Y3845008D2*
Y3765395D1*
X1228098Y3845008D2*
X1387326D1*
X1107712D2*
Y3765395D1*
X1028098Y3845008D2*
X1187326D1*
X707713Y3168371D2*
Y3009144D1*
X628099Y3088758D2*
X787327D1*
X707713Y3368371D2*
Y3209144D1*
X628099Y3288758D2*
X787327D1*
X507713Y3368371D2*
Y3209144D1*
Y3288758D2*
X587327D1*
X507713Y3168371D2*
Y3009144D1*
Y3088758D2*
X587327D1*
X2045163Y3638973D2*
Y3526044D1*
X1988699Y3582508D2*
X2101627D1*
X863962Y3588973D2*
Y3476044D1*
X807498Y3532508D2*
X920427D1*
X3670212Y3595223D2*
Y3482295D1*
X3613748Y3538759D2*
X3726676D1*
D18*
X3851462Y3307508D3*
Y3107508D3*
X4051462D3*
Y3307508D3*
D19*
X3951462Y3207508D3*
D18*
X1282713Y720008D3*
X1082713D3*
Y520008D3*
X1282713D3*
D19*
X1182713Y620008D3*
D20*
X845212Y1332508D3*
D21*
Y1441564D3*
Y1550619D3*
Y1659674D3*
Y1768729D3*
X733401Y1387036D3*
Y1496091D3*
Y1605146D3*
Y1714201D3*
D22*
X789307Y1058690D3*
Y2042548D3*
D23*
X1026461Y2007508D3*
D24*
X1126461D3*
X1026461Y1907508D3*
X1126461D3*
X1026461Y1807508D3*
X1126461D3*
D20*
X3738967Y1201259D3*
D21*
Y1309960D3*
Y1418661D3*
Y1527361D3*
Y1636062D3*
Y1744763D3*
Y1853464D3*
Y1962165D3*
Y2070865D3*
Y2179566D3*
Y2288267D3*
Y2396968D3*
Y2505669D3*
X3850778Y1255616D3*
Y1364317D3*
Y1473018D3*
Y1581718D3*
Y1690419D3*
Y1799120D3*
Y1907821D3*
Y2016522D3*
Y2125222D3*
Y2233923D3*
Y2342624D3*
Y2451325D3*
D22*
X3794873Y2779684D3*
Y927243D3*
D18*
X1107712Y3645008D3*
X1307712D3*
Y3845008D3*
X1107712D3*
D19*
X1207712Y3745008D3*
D18*
X707713Y3088758D3*
Y3288758D3*
X507713D3*
Y3088758D3*
D19*
X607713Y3188758D3*
D23*
X2544178Y2876258D3*
D24*
X2444178D3*
X2344178D3*
X2244178D3*
X2144178D3*
X2044178D3*
X1944178D3*
X1844178D3*
D23*
X2544178Y1613758D3*
D24*
X2444178D3*
X2344178D3*
X2244178D3*
X2144178D3*
X2044178D3*
X1944178D3*
X1844178D3*
D25*
X2638962Y3107508D3*
X3388913Y3420008D3*
X3163913Y3232508D3*
X2588962Y1932508D3*
X2045163Y3582508D3*
X863962Y3532508D3*
X3670212Y3538759D3*
X1149680Y3107508D3*
X1295163Y3101258D3*
X2307712D3*
X2782713Y3107508D3*
X1776462Y3101258D3*
X1062180Y3107508D3*
X2588962Y2020008D3*
Y2107508D3*
Y2195008D3*
Y2282508D3*
Y2370008D3*
Y2451258D3*
Y2538758D3*
X2363961Y713758D3*
X1782713Y1945010D3*
X2363961Y801258D3*
Y888758D3*
Y976258D3*
Y1063758D3*
Y1151258D3*
Y1238758D3*
Y1326258D3*
X1301461Y2520008D3*
X1782713Y2032510D3*
Y2120008D3*
Y2207508D3*
X1570210Y1545008D3*
Y1457508D3*
Y1370008D3*
Y1282508D3*
X1388962Y2688758D3*
X1688962Y2726259D3*
X2957713Y3026258D3*
Y2782508D3*
Y2538758D3*
X2957712Y1982508D3*
X2957713Y1751258D3*
Y1513758D3*
X2932713Y1263759D3*
Y1013759D3*
X2932712Y763759D3*
D30*
X1082712Y2270008D3*
Y2460008D3*
M02*
