M48
INCH
T01C0.019
T02C0.032
T03C0.038
T04C0.0429
T05C0.0433
T06C0.0591
T07C0.0669
T08C0.125
T09C0.1283
%
T01
X+020949Y+034795
X+021514Y+035824
X+023130Y+035637
X+022327Y+034029
X+024031Y+031395
X+025361Y+033044
X+028533Y+031395
X+028223Y+030573
X+030137Y+025388
X+028843Y+024388
X+024346Y+022260
X+023726Y+022515
X+023851Y+023243
X+023053Y+023243
X+021554Y+023433
X+020196Y+022825
X+019418Y+022825
X+018111Y+023135
X+017257Y+023500
X+016890Y+024075
X+016892Y+022075
X+016112Y+021695
X+015686Y+022332
X+015274Y+021270
X+014246Y+020960
X+013786Y+020855
X+014406Y+020072
X+013626Y+019175
X+013166Y+019520
X+013166Y+019980
X+011859Y+019075
X+012765Y+017778
X+012765Y+017030
X+011869Y+017340
X+009806Y+016982
X+012059Y+022332
X+011327Y+022700
X+012737Y+022952
X+014140Y+022935
X+017267Y+019447
X+015686Y+017428
X+016883Y+014110
X+017901Y+013200
X+018379Y+014110
X+018886Y+014450
X+020918Y+013700
X+021737Y+013738
X+021577Y+011700
X+021078Y+010700
X+020918Y+009450
X+021378Y+009298
X+020918Y+008578
X+019611Y+006950
X+021078Y+006450
X+021032Y+005763
X+023044Y+007450
X+024050Y+009284
X+024210Y+013263
X+024995Y+013700
X+025552Y+018575
X+023826Y+019735
X+023426Y+020765
X+023106Y+021575
X+021874Y+021953
X+020950Y+021950
X+020950Y+020450
X+020950Y+019700
X+020568Y+018930
X+021626Y+018555
X+021316Y+017888
X+020696Y+017428
X+018361Y+011428
X+017891Y+011200
X+018374Y+010700
X+017731Y+010390
X+019140Y+009763
X+016422Y+009075
X+016954Y+007700
X+014829Y+013135
X+020132Y+024053
X+019822Y+024795
X+023043Y+025825
X+023602Y+025325
X+022886Y+027200
X+016422Y+027964
X+017640Y+032844
X+016146Y+034795
X+013639Y+032765
X+012952Y+032765
X+033169Y+033818
T02
X+010827Y+022700
X+010827Y+024600
T03
X+026390Y+031075
X+027827Y+031075
X+029577Y+030263
X+029577Y+027825
X+029577Y+025388
X+025890Y+025388
X+025890Y+024513
X+025890Y+023700
X+025890Y+022825
X+025890Y+021950
X+025890Y+021075
X+025890Y+020200
X+025890Y+019325
X+029577Y+019825
X+029577Y+017513
X+029577Y+015138
X+029327Y+012638
X+029327Y+010138
X+029327Y+007638
X+023640Y+008013
X+023640Y+007138
X+023640Y+008888
X+023640Y+009763
X+023640Y+010638
X+023640Y+011513
X+023640Y+012388
X+023640Y+013263
X+015702Y+012825
X+015702Y+013700
X+015702Y+014575
X+015702Y+015450
X+017827Y+019450
X+017827Y+020325
X+017827Y+021200
X+017827Y+022075
X+016890Y+027263
X+013890Y+026888
X+013015Y+025200
X+012952Y+031013
X+011497Y+031075
X+010622Y+031075
X+008640Y+035325
X+017765Y+031013
X+023077Y+031013
X+020452Y+035825
X+031639Y+032325
X+033889Y+034200
X+036702Y+035388
T04
X+008452Y+013325
X+008452Y+014416
X+008452Y+015506
X+008452Y+016597
X+008452Y+017687
X+007334Y+017142
X+007334Y+016051
X+007334Y+014961
X+007334Y+013870
X+037390Y+014187
X+037390Y+015274
X+037390Y+016361
X+037390Y+017448
X+037390Y+018535
X+037390Y+019622
X+037390Y+020709
X+037390Y+021796
X+037390Y+022883
X+037390Y+023970
X+037390Y+025057
X+038508Y+024513
X+038508Y+023426
X+038508Y+022339
X+038508Y+021252
X+038508Y+020165
X+038508Y+019078
X+038508Y+017991
X+038508Y+016904
X+038508Y+015817
X+038508Y+014730
X+038508Y+013643
X+038508Y+012556
X+037390Y+013100
X+037390Y+012013
T05
X+010265Y+020075
X+011265Y+020075
X+011265Y+019075
X+010265Y+019075
X+010265Y+018075
X+011265Y+018075
X+018442Y+016138
X+019442Y+016138
X+020442Y+016138
X+021442Y+016138
X+022442Y+016138
X+023442Y+016138
X+024442Y+016138
X+025442Y+016138
X+025442Y+028763
X+024442Y+028763
X+023442Y+028763
X+022442Y+028763
X+021442Y+028763
X+020442Y+028763
X+019442Y+028763
X+018442Y+028763
T06
X+039515Y+032075
X+012077Y+037450
X+006077Y+031888
X+011827Y+006200
T07
X+038515Y+033075
X+038515Y+031075
X+040515Y+031075
X+040515Y+033075
X+013077Y+036450
X+011077Y+036450
X+011077Y+038450
X+013077Y+038450
X+007077Y+032888
X+007077Y+030888
X+005077Y+030888
X+005077Y+032888
X+010827Y+007200
X+012827Y+007200
X+012827Y+005200
X+010827Y+005200
T08
X+005952Y+036388
X+005952Y+007388
X+039702Y+005950
X+039702Y+037450
T09
X+007893Y+010587
X+007893Y+020425
X+037949Y+027797
X+037949Y+009272
T00
M30
