G04 DipTrace 3.3.1.3*
G04 TopAssy.gbr*
%MOIN*%
G04 #@! TF.FileFunction,Drawing,Top*
G04 #@! TF.Part,Single*
%ADD10C,0.004724*%
%ADD75C,0.003088*%
%FSLAX26Y26*%
G04*
G70*
G90*
G75*
G01*
G04 TopAssy*
%LPD*%
X2613075Y2816419D2*
D10*
X1775280D1*
X2613075Y1553919D2*
X1775280D1*
X2293588Y2778120D2*
D75*
Y2798216D1*
X2284966D1*
X2282092Y2797243D1*
X2281141Y2796293D1*
X2280191Y2794391D1*
Y2791517D1*
X2281141Y2789594D1*
X2282092Y2788643D1*
X2284966Y2787693D1*
X2282092Y2786720D1*
X2281141Y2785769D1*
X2280191Y2783868D1*
Y2781945D1*
X2281141Y2780043D1*
X2282092Y2779071D1*
X2284966Y2778120D1*
X2293588D1*
Y2787693D2*
X2284966D1*
X2268267Y2778120D2*
X2270190Y2779071D1*
X2272092Y2780994D1*
X2273064Y2782895D1*
X2274015Y2785769D1*
Y2790567D1*
X2273064Y2793419D1*
X2272092Y2795342D1*
X2270190Y2797243D1*
X2268267Y2798216D1*
X2264442D1*
X2262541Y2797243D1*
X2260618Y2795342D1*
X2259667Y2793419D1*
X2258716Y2790567D1*
Y2785769D1*
X2259667Y2782895D1*
X2260618Y2780994D1*
X2262541Y2779071D1*
X2264442Y2778120D1*
X2268267D1*
X2237220Y2798216D2*
X2244891Y2778120D1*
X2252541Y2798216D1*
X2249667Y2791517D2*
X2240094D1*
X2231044Y2787693D2*
X2222444D1*
X2219570Y2786720D1*
X2218598Y2785769D1*
X2217647Y2783868D1*
Y2781945D1*
X2218598Y2780043D1*
X2219570Y2779071D1*
X2222444Y2778120D1*
X2231044D1*
Y2798216D1*
X2224346Y2787693D2*
X2217647Y2798216D1*
X2211471Y2778120D2*
Y2798216D1*
X2204773D1*
X2201899Y2797243D1*
X2199975Y2795342D1*
X2199025Y2793419D1*
X2198074Y2790567D1*
Y2785769D1*
X2199025Y2782895D1*
X2199975Y2780994D1*
X2201899Y2779071D1*
X2204773Y2778120D1*
X2211471D1*
X2160033D2*
X2172458D1*
Y2798216D1*
X2160033D1*
X2172458Y2787693D2*
X2164809D1*
X2153858Y2778120D2*
Y2798216D1*
X2147159D1*
X2144285Y2797243D1*
X2142362Y2795342D1*
X2141411Y2793419D1*
X2140460Y2790567D1*
Y2785769D1*
X2141411Y2782895D1*
X2142362Y2780994D1*
X2144285Y2779071D1*
X2147159Y2778120D1*
X2153858D1*
X2119937Y2782895D2*
X2120887Y2780994D1*
X2122811Y2779071D1*
X2124712Y2778120D1*
X2128537D1*
X2130460Y2779071D1*
X2132361Y2780994D1*
X2133334Y2782895D1*
X2134285Y2785769D1*
Y2790567D1*
X2133334Y2793419D1*
X2132361Y2795342D1*
X2130460Y2797243D1*
X2128537Y2798216D1*
X2124712D1*
X2122811Y2797243D1*
X2120887Y2795342D1*
X2119937Y2793419D1*
Y2790567D1*
X2124712D1*
X2101336Y2778120D2*
X2113761D1*
Y2798216D1*
X2101336D1*
X2113761Y2787693D2*
X2106112D1*
X2293588Y1515620D2*
Y1535716D1*
X2284966D1*
X2282092Y1534743D1*
X2281141Y1533793D1*
X2280191Y1531891D1*
Y1529017D1*
X2281141Y1527094D1*
X2282092Y1526143D1*
X2284966Y1525193D1*
X2282092Y1524220D1*
X2281141Y1523269D1*
X2280191Y1521368D1*
Y1519445D1*
X2281141Y1517543D1*
X2282092Y1516571D1*
X2284966Y1515620D1*
X2293588D1*
Y1525193D2*
X2284966D1*
X2268267Y1515620D2*
X2270190Y1516571D1*
X2272092Y1518494D1*
X2273064Y1520395D1*
X2274015Y1523269D1*
Y1528067D1*
X2273064Y1530919D1*
X2272092Y1532842D1*
X2270190Y1534743D1*
X2268267Y1535716D1*
X2264442D1*
X2262541Y1534743D1*
X2260618Y1532842D1*
X2259667Y1530919D1*
X2258716Y1528067D1*
Y1523269D1*
X2259667Y1520395D1*
X2260618Y1518494D1*
X2262541Y1516571D1*
X2264442Y1515620D1*
X2268267D1*
X2237220Y1535716D2*
X2244891Y1515620D1*
X2252541Y1535716D1*
X2249667Y1529017D2*
X2240094D1*
X2231044Y1525193D2*
X2222444D1*
X2219570Y1524220D1*
X2218598Y1523269D1*
X2217647Y1521368D1*
Y1519445D1*
X2218598Y1517543D1*
X2219570Y1516571D1*
X2222444Y1515620D1*
X2231044D1*
Y1535716D1*
X2224346Y1525193D2*
X2217647Y1535716D1*
X2211471Y1515620D2*
Y1535716D1*
X2204773D1*
X2201899Y1534743D1*
X2199975Y1532842D1*
X2199025Y1530919D1*
X2198074Y1528067D1*
Y1523269D1*
X2199025Y1520395D1*
X2199975Y1518494D1*
X2201899Y1516571D1*
X2204773Y1515620D1*
X2211471D1*
X2160033D2*
X2172458D1*
Y1535716D1*
X2160033D1*
X2172458Y1525193D2*
X2164809D1*
X2153858Y1515620D2*
Y1535716D1*
X2147159D1*
X2144285Y1534743D1*
X2142362Y1532842D1*
X2141411Y1530919D1*
X2140460Y1528067D1*
Y1523269D1*
X2141411Y1520395D1*
X2142362Y1518494D1*
X2144285Y1516571D1*
X2147159Y1515620D1*
X2153858D1*
X2119937Y1520395D2*
X2120887Y1518494D1*
X2122811Y1516571D1*
X2124712Y1515620D1*
X2128537D1*
X2130460Y1516571D1*
X2132361Y1518494D1*
X2133334Y1520395D1*
X2134285Y1523269D1*
Y1528067D1*
X2133334Y1530919D1*
X2132361Y1532842D1*
X2130460Y1534743D1*
X2128537Y1535716D1*
X2124712D1*
X2122811Y1534743D1*
X2120887Y1532842D1*
X2119937Y1530919D1*
Y1528067D1*
X2124712D1*
X2101336Y1515620D2*
X2113761D1*
Y1535716D1*
X2101336D1*
X2113761Y1525193D2*
X2106112D1*
M02*
