G04 DipTrace 3.3.1.3*
G04 Bottom.gbr*
%MOIN*%
G04 #@! TF.FileFunction,Copper,L2,Bot*
G04 #@! TF.Part,Single*
G04 #@! TA.AperFunction,Conductor*
%ADD12C,0.02*%
G04 #@! TA.AperFunction,CopperBalancing*
%ADD13C,0.025*%
%ADD14C,0.013*%
G04 #@! TA.AperFunction,ComponentPad*
%ADD19C,0.106299*%
%ADD20C,0.098425*%
%ADD21R,0.066535X0.066535*%
%ADD22C,0.066535*%
%ADD23C,0.187402*%
%ADD24R,0.059055X0.059055*%
%ADD25C,0.059055*%
%ADD26C,0.06*%
G04 #@! TA.AperFunction,ViaPad*
%ADD28C,0.04*%
%FSLAX26Y26*%
G04*
G70*
G90*
G75*
G01*
G04 Bottom*
%LPD*%
X2126462Y1738758D2*
D12*
X2238962D1*
Y1732508D1*
Y1520007D1*
X2538962Y1745008D2*
X2260701D1*
X2243582Y1727889D1*
X2238962Y1732508D1*
X782714Y1869151D2*
X1002319D1*
X1176462Y1695008D1*
Y1620008D1*
X3301512Y1457508D2*
Y1707459D1*
X3301462Y1707508D1*
X3226512Y2151258D2*
Y1976209D1*
X3301464Y1901258D1*
X2751512Y1245008D2*
Y1232459D1*
X2782713Y1201258D1*
X2901462D1*
X2920213Y1220008D1*
X3301512Y1245008D2*
Y1195056D1*
X3238964Y1132507D1*
X2851464D1*
X2782713Y1201258D1*
X2738962Y2588758D2*
X2751512D1*
Y2688806D1*
X2788964Y2726258D1*
X2813964D1*
X2649003Y2782508D2*
X2613962D1*
X2351464D1*
X2301462Y2732507D1*
Y2463758D1*
X2251462Y2413758D1*
X2163964D1*
X1807712Y2707507D2*
Y2601256D1*
X1763962Y2557507D1*
X1720213D1*
X3201512Y2982508D2*
X3107713D1*
X3063964Y3026258D1*
X2863964D1*
X2813964Y2976258D1*
Y2726258D1*
X3226512Y2338758D2*
X3326462D1*
X3407713Y2420008D1*
Y2582507D1*
X3507713Y2682507D1*
X1863962Y3620007D2*
Y3820007D1*
X2063962D1*
Y3620007D1*
X2376462D1*
Y3820007D1*
X2576462D1*
Y3620007D1*
X2613962Y2782508D2*
X2576462Y2820008D1*
Y3620007D1*
X1351462Y1413758D2*
Y1326258D1*
X1395213Y1282507D1*
X1332713Y3388955D2*
X1632910D1*
X1863962Y3620007D1*
X1715292Y2408836D2*
X1682713Y2376258D1*
X819111D1*
X782714Y2412655D1*
X3139062Y1707508D2*
X3020745D1*
X2926464D1*
X2832713Y1613758D1*
Y1582508D1*
X2882713Y1532508D1*
Y1301258D1*
X2826464Y1245008D1*
X2882713Y1301258D2*
X2895213Y1313758D1*
X3101464D1*
X3145213Y1270008D1*
X3757713Y2313758D2*
Y2395008D1*
X3738964Y2413758D1*
Y2855913D1*
Y2913758D1*
X3657713Y2995008D1*
X3026562Y2776258D2*
X3078826D1*
Y2803620D1*
X3113964Y2838758D1*
X3721809D1*
X3738964Y2855913D1*
X3145213Y1270008D2*
X3170213Y1295008D1*
X3563962D1*
X3632713Y1226258D1*
X2832713Y1613758D2*
Y1901258D1*
X2757713Y1976258D1*
X2688964D1*
X3020745Y1707508D2*
Y2120540D1*
X3070213Y2170008D1*
X1963964Y2357507D2*
X1766621D1*
X1715292Y2408836D1*
X1113963Y3270008D2*
Y3613758D1*
X1126463Y3626258D1*
X1113963D1*
X3932713Y1463758D2*
X4007713Y1388758D1*
X3932713Y1463758D2*
X3763963D1*
X3626463Y1326258D1*
Y1232508D1*
X3632713Y1226258D1*
X1401462Y1720007D2*
X1276464D1*
X1176462Y1457507D2*
Y1501256D1*
X1195213Y1520007D1*
X1270213D1*
X1276414Y1670007D2*
X1245213D1*
X976462Y1938758D1*
Y2076258D1*
X1276462Y2176256D2*
X1326464D1*
X1345213Y2157507D1*
Y2001258D1*
X1320212Y1976256D1*
X1282713D1*
X2576462Y1657508D2*
Y1782507D1*
X2613962Y1820007D1*
X2238962D2*
X2613962D1*
X1589159Y1895008D2*
Y1970204D1*
X1638964Y2020008D1*
X1713964D1*
X1720213Y2026258D1*
X1907713D2*
X1932713D1*
X1988964Y1970007D1*
Y1826258D1*
X1489061Y2226256D2*
X1276465D1*
X1276462Y2226259D1*
X2295212Y1670007D2*
Y1457508D1*
X2551463Y1501258D2*
Y1632509D1*
X2576462Y1657508D1*
X1626462Y1720008D2*
Y1782507D1*
X1795213Y1951258D1*
Y2088758D1*
X2370213Y2345007D2*
Y2720007D1*
X2388964Y2738758D1*
X2376464D1*
X1776462Y1820007D2*
X1851462Y1895007D1*
Y2107508D1*
X1657713Y2301258D1*
X1501462D1*
X1776462Y1820007D2*
Y1513759D1*
X1895213Y1395008D1*
X2251462Y1401258D2*
X2307713D1*
X2332713Y1426258D1*
Y1651259D1*
X2351461Y1670007D1*
X2451462D1*
X2278235Y1195007D2*
X2107713D1*
X2070213Y1232507D1*
Y1738756D1*
X2338964Y2007507D1*
Y2232507D1*
X782714Y2195254D2*
X632960D1*
X570213Y2132507D1*
Y1451258D1*
X682713Y1338758D1*
X1132713D1*
X1257713Y1213758D1*
X1513964D1*
X1332713Y3626061D2*
X1270016D1*
X1232713Y3588758D1*
Y3270008D1*
X1163963Y3201258D1*
X613963D1*
X570213Y3157508D1*
Y2132507D1*
X1032713Y2320007D2*
Y1932507D1*
X1101462Y1863758D1*
X1401464D1*
X1588964Y1676258D1*
Y1176256D1*
X1651462Y1113758D1*
X2382713D1*
X2457713Y1188758D1*
X1715292Y2607507D2*
Y2802586D1*
X1720213Y2807507D1*
X1242556Y2507508D2*
X796561D1*
X782714Y2521356D1*
X1538962Y2507507D2*
X1932713D1*
X3226709Y1332508D2*
Y1636040D1*
Y1701503D1*
X3232714Y1707508D1*
X2926464Y1607508D2*
X3198178D1*
X3226709Y1636040D1*
X3120460Y2776258D2*
Y2707755D1*
X3082713Y2670008D1*
X2826462D1*
X2820213Y2676258D1*
X3120460Y2707755D2*
Y2251011D1*
X3151462Y2220008D1*
X2857713Y2070008D2*
Y2188758D1*
X2932713Y2263758D1*
X3107713D1*
X3120460Y2251011D1*
X3151709Y2151258D2*
Y1788514D1*
X3232714Y1707508D1*
X2920213Y1170008D2*
X3195213D1*
X3226462Y1201258D1*
Y1257507D1*
X2426462Y2545008D2*
X2788965D1*
X2813964Y2570007D1*
Y2670008D1*
X2820213Y2676258D1*
X2020213Y2244812D2*
Y2557508D1*
X1988964Y2588758D1*
X2067556D2*
Y2503915D1*
X2107713Y2463758D1*
X2170213D1*
X1345213Y2457507D2*
Y2563758D1*
X1326464Y2582507D1*
X1238964D1*
X2540292Y2863758D2*
X2457713D1*
X2432713Y2838758D1*
Y2726258D2*
Y2632507D1*
X2451462Y2613758D1*
X2532713D1*
X1601462Y2607507D2*
Y2895007D1*
X1645213Y2938758D1*
X2501462D1*
X2670263Y2976258D2*
Y3007558D1*
X2745213Y3082508D1*
X3445213D1*
X3532713Y2995008D1*
X2957713Y2513758D2*
X2888964Y2445008D1*
X2720214D1*
X2657713Y2382507D1*
X3026562Y2726258D2*
X2988962D1*
X2970213Y2745007D1*
Y2963758D1*
X2832763Y1382508D2*
Y1513708D1*
X2732713Y1613758D1*
Y1776258D1*
Y1807507D1*
X2432713Y2107507D1*
Y2470007D1*
X2438964Y2476258D1*
X3701562Y1595007D2*
X3626462D1*
X3576462Y1645007D1*
Y2307507D1*
X3657713Y2388758D1*
Y2495008D1*
X3701562Y1595007D2*
X3901464D1*
X3932713Y1563758D1*
X3701562Y1645007D2*
Y1757607D1*
X3757713Y1813758D1*
X3701562Y1645007D2*
X3932712Y1645008D1*
D28*
X2126462Y1738758D3*
X2238962Y1520007D3*
X2538962Y1745008D3*
X1176462Y1620008D3*
X3301512Y1457508D3*
X3301462Y1707508D3*
X3226512Y2151258D3*
X3301464Y1901258D3*
X2751512Y1245008D3*
X2920213Y1220008D3*
X3301512Y1245008D3*
X2738962Y2588758D3*
X2813964Y2726258D3*
X2649003Y2782508D3*
X2163964Y2413758D3*
X1807712Y2707507D3*
X1720213Y2557507D3*
X3201512Y2982508D3*
X3226512Y2338758D3*
X3507713Y2682507D3*
X1351462Y1413758D3*
X1395213Y1282507D3*
X1332713Y3388955D3*
X1715292Y2408836D3*
X3139062Y1707508D3*
X2832713Y1613758D3*
X2826464Y1245008D3*
X3145213Y1270008D3*
X3026562Y2776258D3*
X3632713Y1226258D3*
X2688964Y1976258D3*
X3070213Y2170008D3*
X1963964Y2357507D3*
X1715292Y2408836D3*
X1113963Y3270008D3*
Y3626258D3*
X3932713Y1463758D3*
X4007713Y1388758D3*
X3932713Y1463758D3*
X1401462Y1720007D3*
X1276464D3*
X1176462Y1457507D3*
X1270213Y1520007D3*
X1276414Y1670007D3*
X976462Y2076258D3*
X1276462Y2176256D3*
X1282713Y1976256D3*
X2576462Y1657508D3*
X2613962Y1820007D3*
X2238962D3*
X1589159Y1895008D3*
X1720213Y2026258D3*
X1907713D3*
X1988964Y1826258D3*
X1489061Y2226256D3*
X1276462Y2226259D3*
X2295212Y1670007D3*
Y1457508D3*
X2551463Y1501258D3*
X2576462Y1657508D3*
X1795213Y2088758D3*
X2370213Y2345007D3*
X2376464Y2738758D3*
X1776462Y1820007D3*
X1895213Y1395008D3*
X2251462Y1401258D3*
X2451462Y1670007D3*
X1776462Y1820007D3*
X2278235Y1195007D3*
X2338964Y2232507D3*
X1513964Y1213758D3*
X1332713Y3626061D3*
X1032713Y2320007D3*
X2457713Y1188758D3*
X1715292Y2607507D3*
X1720213Y2807507D3*
X1242556Y2507508D3*
X1538962Y2507507D3*
X1932713D3*
X3226709Y1332508D3*
X3232714Y1707508D3*
X2926464Y1607508D3*
X3120460Y2776258D3*
X2820213Y2676258D3*
X3151462Y2220008D3*
X2857713Y2070008D3*
X3151709Y2151258D3*
X2920213Y1170008D3*
X3226462Y1257507D3*
X2426462Y2545008D3*
X2020213Y2244812D3*
X1988964Y2588758D3*
X2067556D3*
X2170213Y2463758D3*
X1345213Y2457507D3*
X1238964Y2582507D3*
X2540292Y2863758D3*
X2432713Y2838758D3*
Y2726258D3*
X2532713Y2613758D3*
X1601462Y2607507D3*
X2501462Y2938758D3*
X2670263Y2976258D3*
X3532713Y2995008D3*
X2957713Y2513758D3*
X2657713Y2382507D3*
X3026562Y2726258D3*
X2970213Y2963758D3*
X2832763Y1382508D3*
X2438964Y2476258D3*
X3701562Y1595007D3*
X3932713Y1563758D3*
X3701562Y1595007D3*
Y1645007D3*
X3932712Y1645008D3*
X3701562Y1645007D3*
X460153Y3863887D2*
D13*
X1794997D1*
X1932948D2*
X1994979D1*
X2132930D2*
X2307495D1*
X2445446D2*
X2507477D1*
X2645428D2*
X3898348D1*
X4042077D2*
X4105221D1*
X460117Y3839018D2*
X1784124D1*
X1943821D2*
X1984107D1*
X2143803D2*
X2296622D1*
X2456319D2*
X2496605D1*
X2656301D2*
X3867201D1*
X4073224D2*
X4105221D1*
X460045Y3814149D2*
X1782043D1*
X1945902D2*
X1982025D1*
X2145885D2*
X2294541D1*
X2458400D2*
X2494523D1*
X2658383D2*
X3848721D1*
X4091705D2*
X4105221D1*
X460010Y3789281D2*
X1787964D1*
X2139964D2*
X2300462D1*
X2652462D2*
X3837381D1*
X459974Y3764412D2*
X536574D1*
X653856D2*
X1804434D1*
X2123493D2*
X2316932D1*
X2635991D2*
X3831460D1*
X459938Y3739543D2*
X499004D1*
X691427D2*
X1888332D1*
X2039596D2*
X2400830D1*
X2552094D2*
X3830204D1*
X459866Y3714674D2*
X477904D1*
X712527D2*
X1885927D1*
X2042000D2*
X2398425D1*
X2554498D2*
X3833470D1*
X725517Y3689806D2*
X1823094D1*
X2104833D2*
X2335592D1*
X2617331D2*
X3841651D1*
X732837Y3664937D2*
X1085638D1*
X1142276D2*
X1304711D1*
X1360739D2*
X1795679D1*
X2132213D2*
X2308213D1*
X2644747D2*
X3855754D1*
X4084671D2*
X4105221D1*
X735349Y3640068D2*
X1067050D1*
X1162766D2*
X1229893D1*
X1379542D2*
X1784375D1*
X1943534D2*
X1984394D1*
X2143552D2*
X2296873D1*
X2456032D2*
X2496892D1*
X2656050D2*
X3878648D1*
X4061777D2*
X4105221D1*
X733304Y3615199D2*
X1066297D1*
X1163734D2*
X1205025D1*
X1380439D2*
X1781971D1*
X1945974D2*
X1981954D1*
X2145956D2*
X2294469D1*
X2458472D2*
X2494451D1*
X2658454D2*
X3921960D1*
X4018465D2*
X4105221D1*
X726557Y3590331D2*
X1074981D1*
X1152969D2*
X1193757D1*
X1364973D2*
X1787533D1*
X1940376D2*
X1987551D1*
X2140394D2*
X2300031D1*
X2452874D2*
X2500049D1*
X2652892D2*
X4105221D1*
X459615Y3565462D2*
X476217D1*
X714213D2*
X1074981D1*
X1152969D2*
X1193721D1*
X1271710D2*
X1803430D1*
X1924515D2*
X2003412D1*
X2124498D2*
X2315928D1*
X2437013D2*
X2515910D1*
X2636996D2*
X4105221D1*
X459579Y3540593D2*
X496241D1*
X694190D2*
X1074981D1*
X1152969D2*
X1193721D1*
X1271710D2*
X1855354D1*
X1872552D2*
X2055337D1*
X2072573D2*
X2367852D1*
X2385089D2*
X2567835D1*
X2585076D2*
X4105221D1*
X459507Y3515724D2*
X531012D1*
X659418D2*
X1074981D1*
X1152969D2*
X1193721D1*
X1271710D2*
X4105221D1*
X459471Y3490856D2*
X1074981D1*
X1152969D2*
X1193721D1*
X1271710D2*
X4105221D1*
X459435Y3465987D2*
X1074981D1*
X1152969D2*
X1193721D1*
X1271710D2*
X4105221D1*
X459400Y3441118D2*
X1074981D1*
X1152969D2*
X1193721D1*
X1271710D2*
X4105221D1*
X459328Y3416249D2*
X1074981D1*
X1152969D2*
X1193721D1*
X1271710D2*
X4105221D1*
X459292Y3391380D2*
X1074981D1*
X1152969D2*
X1193721D1*
X1271710D2*
X4105221D1*
X459256Y3366512D2*
X1074981D1*
X1152969D2*
X1193721D1*
X1271710D2*
X4105221D1*
X459220Y3341643D2*
X1074981D1*
X1152969D2*
X1193721D1*
X1271710D2*
X4105221D1*
X459148Y3316774D2*
X1074981D1*
X1152969D2*
X1193721D1*
X1271710D2*
X4105221D1*
X459113Y3291905D2*
X1070459D1*
X1157491D2*
X1193721D1*
X1271710D2*
X4105221D1*
X459077Y3267037D2*
X1065041D1*
X1162873D2*
X1175636D1*
X1271602D2*
X4105221D1*
X459041Y3242168D2*
X1074227D1*
X1259007D2*
X4105221D1*
X458969Y3217299D2*
X575903D1*
X1234139D2*
X4105221D1*
X458933Y3192430D2*
X551000D1*
X1209271D2*
X4105221D1*
X458897Y3167562D2*
X532627D1*
X1180492D2*
X3779823D1*
X3873098D2*
X3979841D1*
X4073081D2*
X4105221D1*
X458861Y3142693D2*
X531228D1*
X609503D2*
X3755924D1*
X3896997D2*
X3955943D1*
X4096980D2*
X4105221D1*
X458790Y3117824D2*
X531228D1*
X609216D2*
X665901D1*
X787740D2*
X2733476D1*
X3456949D2*
X3746056D1*
X3906865D2*
X3946039D1*
X458754Y3092955D2*
X531228D1*
X609216D2*
X634753D1*
X818851D2*
X2701539D1*
X3488886D2*
X3744764D1*
X3908193D2*
X3944747D1*
X458718Y3068086D2*
X531228D1*
X609216D2*
X617601D1*
X836040D2*
X2676671D1*
X3513754D2*
X3751546D1*
X458646Y3043218D2*
X531228D1*
X845585D2*
X2651804D1*
X2760042D2*
X3326678D1*
X3388769D2*
X3430383D1*
X3538622D2*
X3626669D1*
X3688761D2*
X3769417D1*
X4083523D2*
X4105221D1*
X458610Y3018349D2*
X531228D1*
X849389D2*
X2632893D1*
X2735175D2*
X3304286D1*
X3411161D2*
X3455251D1*
X3575439D2*
X3604278D1*
X3711153D2*
X3850192D1*
X4002712D2*
X4105221D1*
X458574Y2993480D2*
X531228D1*
X847954D2*
X2624568D1*
X2715941D2*
X2931951D1*
X3008469D2*
X3299190D1*
X3416221D2*
X3480118D1*
X3581683D2*
X3599218D1*
X3716212D2*
X3848649D1*
X4004291D2*
X4105221D1*
X458538Y2968611D2*
X531228D1*
X841100D2*
X1621712D1*
X2539606D2*
X2621912D1*
X2718632D2*
X2921473D1*
X3018947D2*
X3305793D1*
X3409618D2*
X3491924D1*
X3573501D2*
X3605785D1*
X3738245D2*
X3781438D1*
X4071466D2*
X4105221D1*
X458467Y2943743D2*
X531228D1*
X609216D2*
X625890D1*
X827715D2*
X1596091D1*
X2550192D2*
X2634507D1*
X2706001D2*
X2925743D1*
X3014677D2*
X3332598D1*
X3382812D2*
X3632626D1*
X4096334D2*
X4105221D1*
X458431Y2918874D2*
X531228D1*
X609216D2*
X649251D1*
X804354D2*
X1571331D1*
X2545993D2*
X2619974D1*
X2720570D2*
X2931198D1*
X3009222D2*
X3679742D1*
X3906650D2*
X3946290D1*
X458395Y2894005D2*
X531228D1*
X609216D2*
X705804D1*
X747801D2*
X1562467D1*
X1654594D2*
X2434776D1*
X2578110D2*
X2611506D1*
X2729003D2*
X2931198D1*
X3009222D2*
X3699981D1*
X3908265D2*
X3944639D1*
X458359Y2869136D2*
X531228D1*
X609216D2*
X1562467D1*
X1640456D2*
X2395016D1*
X2588983D2*
X2614771D1*
X2725737D2*
X2931198D1*
X3009222D2*
X3091241D1*
X3901841D2*
X3951062D1*
X458287Y2844268D2*
X531228D1*
X609216D2*
X1562467D1*
X1640456D2*
X1689246D1*
X1751194D2*
X2384036D1*
X2584999D2*
X2632929D1*
X2707580D2*
X2931198D1*
X3009222D2*
X3065369D1*
X3884617D2*
X3968323D1*
X4084600D2*
X4105221D1*
X458251Y2819399D2*
X531228D1*
X609216D2*
X1562467D1*
X1640456D2*
X1672775D1*
X1767665D2*
X2387947D1*
X2477490D2*
X2523841D1*
X2556723D2*
X2931198D1*
X3777969D2*
X4105221D1*
X458215Y2794530D2*
X531228D1*
X609216D2*
X720445D1*
X844975D2*
X1562467D1*
X1640456D2*
X1673062D1*
X1767378D2*
X2415865D1*
X2449572D2*
X2931198D1*
X3165713D2*
X3699981D1*
X3777969D2*
X4105221D1*
X458180Y2769661D2*
X531228D1*
X609216D2*
X720445D1*
X844975D2*
X1562467D1*
X1640456D2*
X1676292D1*
X1754280D2*
X2339216D1*
X2451905D2*
X2931198D1*
X3168979D2*
X3699981D1*
X3777969D2*
X4105221D1*
X458108Y2744793D2*
X531228D1*
X609216D2*
X720445D1*
X844975D2*
X1562467D1*
X1640456D2*
X1676292D1*
X1754280D2*
X2327841D1*
X2477849D2*
X2931198D1*
X3159469D2*
X3329512D1*
X3385899D2*
X3699981D1*
X3777969D2*
X3789619D1*
X3875789D2*
X3989638D1*
X4075808D2*
X4105221D1*
X458072Y2719924D2*
X531228D1*
X609216D2*
X620328D1*
X844975D2*
X1562467D1*
X1640456D2*
X1676292D1*
X1754280D2*
X2331214D1*
X2481294D2*
X2801728D1*
X2838701D2*
X2941210D1*
X3159469D2*
X3305039D1*
X3410407D2*
X3699981D1*
X3901841D2*
X3963586D1*
X458036Y2695055D2*
X531228D1*
X844975D2*
X1562467D1*
X1640456D2*
X1676292D1*
X1754280D2*
X2331214D1*
X2471713D2*
X2775173D1*
X3159469D2*
X3299190D1*
X3416257D2*
X3699981D1*
X3912607D2*
X3952821D1*
X458000Y2670186D2*
X531228D1*
X829509D2*
X1562467D1*
X1640456D2*
X1676292D1*
X1754280D2*
X2331214D1*
X2471713D2*
X2771621D1*
X3159469D2*
X3304968D1*
X3410443D2*
X3699981D1*
X3914616D2*
X3950811D1*
X457928Y2645317D2*
X531228D1*
X609216D2*
X623199D1*
X843002D2*
X1562467D1*
X1640456D2*
X1676292D1*
X1754280D2*
X2331214D1*
X2569354D2*
X2774958D1*
X3159469D2*
X3329333D1*
X3386078D2*
X3699981D1*
X457892Y2620449D2*
X531228D1*
X609216D2*
X628797D1*
X713029D2*
X721229D1*
X844222D2*
X1209582D1*
X1268337D2*
X1554286D1*
X1648637D2*
X1668146D1*
X1762462D2*
X1952421D1*
X2104079D2*
X2331214D1*
X2581232D2*
X2774958D1*
X2852947D2*
X3081445D1*
X3159469D2*
X3699981D1*
X4092028D2*
X4105221D1*
X457857Y2595580D2*
X531228D1*
X834030D2*
X1191855D1*
X1367521D2*
X1554035D1*
X1648924D2*
X1667859D1*
X1762749D2*
X1940471D1*
X2116065D2*
X2331214D1*
X2578002D2*
X2774958D1*
X2852947D2*
X3081445D1*
X3159469D2*
X3699981D1*
X3777969D2*
X3857010D1*
X4008417D2*
X4105221D1*
X457821Y2570711D2*
X531228D1*
X732945D2*
X746497D1*
X818923D2*
X1191497D1*
X1383561D2*
X1570541D1*
X1632382D2*
X1684366D1*
X1746207D2*
X1943593D1*
X2112907D2*
X2331214D1*
X2852947D2*
X3081445D1*
X3159469D2*
X3699981D1*
X3777969D2*
X3854713D1*
X4010714D2*
X4105221D1*
X457749Y2545842D2*
X531228D1*
X839736D2*
X1207860D1*
X1271387D2*
X1306218D1*
X1384207D2*
X1510148D1*
X1567790D2*
X1903905D1*
X2106555D2*
X2331214D1*
X2843832D2*
X2921545D1*
X2993864D2*
X3081445D1*
X3159469D2*
X3331665D1*
X3383781D2*
X3599182D1*
X3777969D2*
X3791449D1*
X4073978D2*
X4105221D1*
X457713Y2520974D2*
X531228D1*
X609216D2*
X642720D1*
X699070D2*
X720445D1*
X1289580D2*
X1306218D1*
X1384207D2*
X1491955D1*
X2106555D2*
X2331214D1*
X2819036D2*
X2909273D1*
X3006136D2*
X3081445D1*
X3159469D2*
X3305578D1*
X3409869D2*
X3599182D1*
X457677Y2496105D2*
X531228D1*
X1290118D2*
X1306218D1*
X1384207D2*
X1491381D1*
X2206134D2*
X2331214D1*
X2483519D2*
X2885948D1*
X3003230D2*
X3081445D1*
X3159469D2*
X3299190D1*
X3416221D2*
X3599182D1*
X3912355D2*
X3953072D1*
X457641Y2471236D2*
X531228D1*
X733016D2*
X747645D1*
X1274150D2*
X1298288D1*
X1392137D2*
X1507349D1*
X1964311D2*
X1981200D1*
X2218622D2*
X2331214D1*
X2487681D2*
X2692317D1*
X2979044D2*
X3081445D1*
X3159469D2*
X3304465D1*
X3410946D2*
X3599182D1*
X3914688D2*
X3950739D1*
X457569Y2446367D2*
X531228D1*
X834569D2*
X1297570D1*
X1392855D2*
X1685335D1*
X1745238D2*
X1981200D1*
X2059224D2*
X2070982D1*
X2215823D2*
X2331214D1*
X2477096D2*
X2667449D1*
X2944451D2*
X3081445D1*
X3159469D2*
X3327395D1*
X3388016D2*
X3599182D1*
X3909054D2*
X3956373D1*
X457534Y2421499D2*
X531228D1*
X609216D2*
X629658D1*
X712168D2*
X721124D1*
X844329D2*
X1313288D1*
X1377138D2*
X1668039D1*
X1762534D2*
X1981200D1*
X2059224D2*
X2148313D1*
X2192103D2*
X2331214D1*
X2471713D2*
X2629878D1*
X2919584D2*
X3081445D1*
X3159469D2*
X3618703D1*
X3893050D2*
X3972378D1*
X4093068D2*
X4105221D1*
X457498Y2396630D2*
X531228D1*
X609216D2*
X622553D1*
X1781624D2*
X1936345D1*
X2059224D2*
X2331214D1*
X2471713D2*
X2610896D1*
X2725952D2*
X3081445D1*
X3159469D2*
X3611454D1*
X3796665D2*
X3828338D1*
X3837051D2*
X4028357D1*
X4037083D2*
X4105221D1*
X457462Y2371761D2*
X531228D1*
X2059224D2*
X2329671D1*
X2471713D2*
X2609963D1*
X2705463D2*
X3081445D1*
X3159469D2*
X3586587D1*
X3692529D2*
X3718712D1*
X3796701D2*
X4105221D1*
X457390Y2346892D2*
X531228D1*
X1706877D2*
X1723121D1*
X2059224D2*
X2321238D1*
X2471713D2*
X2625321D1*
X2690104D2*
X3081445D1*
X3159469D2*
X3410036D1*
X3505393D2*
X3561719D1*
X3669958D2*
X3710028D1*
X3805385D2*
X4105221D1*
X457354Y2322023D2*
X531228D1*
X609216D2*
X620902D1*
X842176D2*
X983763D1*
X1081667D2*
X1446418D1*
X1691053D2*
X1755560D1*
X2059224D2*
X2327303D1*
X2471713D2*
X3081445D1*
X3159469D2*
X3399809D1*
X3515620D2*
X3540475D1*
X3645090D2*
X3699801D1*
X3815612D2*
X4105221D1*
X457318Y2297155D2*
X531228D1*
X609216D2*
X632206D1*
X709620D2*
X720840D1*
X844580D2*
X989720D1*
X1075710D2*
X1442614D1*
X1715920D2*
X1981200D1*
X2059224D2*
X2393725D1*
X2471713D2*
X2915481D1*
X3159469D2*
X3401711D1*
X3513718D2*
X3537461D1*
X3620222D2*
X3701703D1*
X3813710D2*
X4105221D1*
X457282Y2272286D2*
X531228D1*
X835896D2*
X993703D1*
X1071727D2*
X1267356D1*
X1285564D2*
X1450473D1*
X1740788D2*
X1980195D1*
X2060229D2*
X2312375D1*
X2365532D2*
X2393725D1*
X2471713D2*
X2887132D1*
X3159469D2*
X3417536D1*
X3497893D2*
X3537461D1*
X3615450D2*
X3717528D1*
X3797885D2*
X4105221D1*
X457211Y2247417D2*
X531228D1*
X733124D2*
X751054D1*
X814402D2*
X993703D1*
X1071727D2*
X1232548D1*
X1532983D2*
X1657417D1*
X1765656D2*
X1971296D1*
X2069128D2*
X2292423D1*
X2385519D2*
X2393697D1*
X2471713D2*
X2862264D1*
X3191514D2*
X3537461D1*
X3615450D2*
X4105221D1*
X457175Y2222548D2*
X531228D1*
X838372D2*
X993703D1*
X1071727D2*
X1227596D1*
X1537899D2*
X1682321D1*
X1790523D2*
X1976894D1*
X2063530D2*
X2291060D1*
X2471713D2*
X2837397D1*
X2945635D2*
X3094794D1*
X3200377D2*
X3537461D1*
X3615450D2*
X4105221D1*
X457139Y2197680D2*
X531228D1*
X844939D2*
X993703D1*
X1071727D2*
X1232692D1*
X1528246D2*
X1707188D1*
X1815427D2*
X2299959D1*
X2377948D2*
X2393725D1*
X2471713D2*
X2819813D1*
X2920768D2*
X3030346D1*
X3194743D2*
X3537461D1*
X3615450D2*
X4105221D1*
X457103Y2172811D2*
X531228D1*
X840597D2*
X993703D1*
X1071727D2*
X1129453D1*
X1198470D2*
X1227596D1*
X1380834D2*
X1732056D1*
X1840295D2*
X2299959D1*
X2377948D2*
X2393725D1*
X2471713D2*
X2818701D1*
X2896725D2*
X3018899D1*
X3195425D2*
X3537461D1*
X3615450D2*
X4105221D1*
X457031Y2147942D2*
X531228D1*
X732765D2*
X743698D1*
X821722D2*
X993703D1*
X1071727D2*
X1109286D1*
X1218637D2*
X1237070D1*
X1384207D2*
X1756924D1*
X1865163D2*
X2299959D1*
X2377948D2*
X2393725D1*
X2471713D2*
X2818701D1*
X2896725D2*
X2994031D1*
X3200593D2*
X3537461D1*
X3615450D2*
X4105221D1*
X456995Y2123073D2*
X531228D1*
X832523D2*
X993703D1*
X1071727D2*
X1105052D1*
X1222872D2*
X1306218D1*
X1384207D2*
X1761338D1*
X1886980D2*
X2299959D1*
X2377948D2*
X2393725D1*
X2471713D2*
X2818701D1*
X2896725D2*
X2981830D1*
X3077402D2*
X3112234D1*
X3191191D2*
X3537461D1*
X3615450D2*
X4105221D1*
X456959Y2098205D2*
X531228D1*
X609216D2*
X626572D1*
X843827D2*
X932951D1*
X1071727D2*
X1112408D1*
X1215515D2*
X1306218D1*
X1384207D2*
X1747199D1*
X1890461D2*
X2299959D1*
X2377948D2*
X2394909D1*
X2496150D2*
X2818234D1*
X2897192D2*
X2981759D1*
X3059747D2*
X3112700D1*
X3190724D2*
X3537461D1*
X3615450D2*
X4105221D1*
X456924Y2073336D2*
X531228D1*
X609216D2*
X625065D1*
X843504D2*
X927568D1*
X1071727D2*
X1130206D1*
X1197717D2*
X1306218D1*
X1384207D2*
X1748850D1*
X1890461D2*
X2299959D1*
X2377948D2*
X2412779D1*
X2521018D2*
X2808833D1*
X2906593D2*
X2981759D1*
X3059747D2*
X3112700D1*
X3190724D2*
X3537461D1*
X3615450D2*
X4105221D1*
X456852Y2048467D2*
X531228D1*
X831267D2*
X936683D1*
X1071727D2*
X1109501D1*
X1218422D2*
X1306218D1*
X1384207D2*
X1613602D1*
X1964634D2*
X2053794D1*
X2136626D2*
X2299959D1*
X2377948D2*
X2437647D1*
X2545886D2*
X2814000D1*
X2901426D2*
X2981759D1*
X3059747D2*
X3112700D1*
X3190724D2*
X3411221D1*
X3504209D2*
X3537461D1*
X3615450D2*
X4105221D1*
X456816Y2023598D2*
X531228D1*
X732550D2*
X741755D1*
X823660D2*
X937472D1*
X1071727D2*
X1105016D1*
X1222907D2*
X1306218D1*
X1384207D2*
X1588448D1*
X1989501D2*
X2038543D1*
X2151877D2*
X2299959D1*
X2377948D2*
X2462515D1*
X2570753D2*
X2852324D1*
X2863081D2*
X2981759D1*
X3059747D2*
X3112700D1*
X3190724D2*
X3400061D1*
X3515369D2*
X3537461D1*
X3615450D2*
X4105221D1*
X456780Y1998730D2*
X531228D1*
X609216D2*
X618893D1*
X841207D2*
X937472D1*
X1071727D2*
X1112121D1*
X1215802D2*
X1239510D1*
X1384135D2*
X1563580D1*
X2014369D2*
X2036892D1*
X2153528D2*
X2276060D1*
X2376907D2*
X2487382D1*
X2595621D2*
X2645739D1*
X2789360D2*
X2981759D1*
X3059747D2*
X3112700D1*
X3190724D2*
X3401245D1*
X3514184D2*
X3537461D1*
X3615450D2*
X4105221D1*
X456744Y1973861D2*
X531228D1*
X609216D2*
X636225D1*
X705565D2*
X720588D1*
X844832D2*
X937472D1*
X1071727D2*
X1140326D1*
X1187597D2*
X1233768D1*
X1371934D2*
X1550339D1*
X1646951D2*
X1756206D1*
X1890461D2*
X1930998D1*
X2027754D2*
X2047334D1*
X2143086D2*
X2251193D1*
X2359431D2*
X2512250D1*
X2620489D2*
X2640034D1*
X2814228D2*
X2981759D1*
X3059747D2*
X3112700D1*
X3190724D2*
X3415886D1*
X3499544D2*
X3537461D1*
X3615450D2*
X4105221D1*
X456672Y1948992D2*
X531228D1*
X837547D2*
X937472D1*
X1071727D2*
X1112946D1*
X1214977D2*
X1242560D1*
X1346995D2*
X1550159D1*
X1628148D2*
X1738838D1*
X1890461D2*
X1949981D1*
X2027969D2*
X2226325D1*
X2334564D2*
X2537118D1*
X2839095D2*
X2981759D1*
X3059747D2*
X3112700D1*
X3190724D2*
X3537461D1*
X3615450D2*
X4105221D1*
X456636Y1924123D2*
X531228D1*
X733160D2*
X754033D1*
X811388D2*
X940523D1*
X1095231D2*
X1105123D1*
X1222800D2*
X1550159D1*
X1628148D2*
X1713970D1*
X1890461D2*
X1949981D1*
X2027969D2*
X2201457D1*
X2309696D2*
X2561985D1*
X2670224D2*
X2755724D1*
X2863676D2*
X2981759D1*
X3059747D2*
X3112700D1*
X3190724D2*
X3537461D1*
X3615450D2*
X4105221D1*
X456601Y1899254D2*
X531228D1*
X836829D2*
X961838D1*
X1412448D2*
X1540363D1*
X1637980D2*
X1689103D1*
X1890461D2*
X1949981D1*
X2027969D2*
X2176589D1*
X2284828D2*
X2586853D1*
X2695092D2*
X2780592D1*
X2871714D2*
X2981759D1*
X3059747D2*
X3112700D1*
X3190724D2*
X3537461D1*
X3615450D2*
X4105221D1*
X456565Y1874386D2*
X531228D1*
X609216D2*
X634323D1*
X707467D2*
X720660D1*
X844760D2*
X986706D1*
X1444959D2*
X1544992D1*
X1633351D2*
X1664235D1*
X1884074D2*
X1949981D1*
X2027969D2*
X2151722D1*
X2259960D2*
X2611721D1*
X2719960D2*
X2793726D1*
X2871714D2*
X2981759D1*
X3059747D2*
X3112700D1*
X3190724D2*
X3537461D1*
X3615450D2*
X4105221D1*
X456493Y1849517D2*
X531228D1*
X609216D2*
X619754D1*
X841674D2*
X1011573D1*
X1469826D2*
X1577036D1*
X1601306D2*
X1639367D1*
X1860103D2*
X1946213D1*
X2031737D2*
X2126854D1*
X2744828D2*
X2793726D1*
X2871714D2*
X2981759D1*
X3059747D2*
X3112700D1*
X3190724D2*
X3412082D1*
X3503347D2*
X3537461D1*
X3615450D2*
X3699191D1*
X3816258D2*
X4105221D1*
X456457Y1824648D2*
X531228D1*
X732335D2*
X740338D1*
X825095D2*
X1036441D1*
X1144680D2*
X1386455D1*
X1494694D2*
X1614499D1*
X1835235D2*
X1940005D1*
X2037945D2*
X2101986D1*
X2767435D2*
X2793726D1*
X2871714D2*
X2981759D1*
X3059747D2*
X3112700D1*
X3190724D2*
X3400240D1*
X3515189D2*
X3537461D1*
X3615450D2*
X3699191D1*
X3816258D2*
X4105221D1*
X456421Y1799779D2*
X531228D1*
X830227D2*
X1061309D1*
X1169548D2*
X1411323D1*
X1519562D2*
X1591821D1*
X1697871D2*
X1732092D1*
X1820846D2*
X1948222D1*
X2029692D2*
X2077118D1*
X2185357D2*
X2194603D1*
X2658347D2*
X2678824D1*
X2871714D2*
X2981759D1*
X3059747D2*
X3112700D1*
X3194564D2*
X3400958D1*
X3514472D2*
X3537461D1*
X3615450D2*
X3689610D1*
X3816258D2*
X4105221D1*
X456385Y1774911D2*
X531228D1*
X609216D2*
X623881D1*
X843217D2*
X1086177D1*
X1194415D2*
X1436191D1*
X1544430D2*
X1587479D1*
X1673003D2*
X1737475D1*
X1815463D2*
X2052251D1*
X2160489D2*
X2225141D1*
X2252784D2*
X2537477D1*
X2627809D2*
X2673729D1*
X2871714D2*
X2981759D1*
X3059747D2*
X3115356D1*
X3219432D2*
X3414845D1*
X3500584D2*
X3537461D1*
X3615450D2*
X3666931D1*
X3816258D2*
X4105221D1*
X456314Y1750042D2*
X531228D1*
X609216D2*
X627900D1*
X844078D2*
X1111044D1*
X1219283D2*
X1238469D1*
X1439468D2*
X1461059D1*
X1676806D2*
X1737475D1*
X1815463D2*
X2033017D1*
X2135622D2*
X2537477D1*
X2615465D2*
X2680152D1*
X2785269D2*
X2793726D1*
X2871714D2*
X2981759D1*
X3059747D2*
X3117760D1*
X3254024D2*
X3537461D1*
X3615450D2*
X3662553D1*
X3748113D2*
X4105221D1*
X456278Y1725173D2*
X531228D1*
X833456D2*
X1135912D1*
X1450162D2*
X1485926D1*
X1685239D2*
X1737475D1*
X1815463D2*
X2031222D1*
X2110754D2*
X2537477D1*
X2615465D2*
X2693716D1*
X2771705D2*
X2793726D1*
X2871714D2*
X2890003D1*
X3278246D2*
X3537461D1*
X3615450D2*
X3662553D1*
X3740578D2*
X4105221D1*
X456242Y1700304D2*
X531228D1*
X732873D2*
X745349D1*
X820072D2*
X1160780D1*
X1446071D2*
X1510794D1*
X1681902D2*
X1737475D1*
X1815463D2*
X2031222D1*
X2109211D2*
X2257436D1*
X2489224D2*
X2537477D1*
X2615465D2*
X2693716D1*
X2771705D2*
X2793726D1*
X3281153D2*
X3537461D1*
X3615450D2*
X3662553D1*
X3740578D2*
X4105221D1*
X456206Y1675436D2*
X531228D1*
X609216D2*
X617098D1*
X840095D2*
X1185683D1*
X1325106D2*
X1385702D1*
X1417220D2*
X1535662D1*
X1663673D2*
X1737475D1*
X1815463D2*
X2031222D1*
X2169281D2*
X2246528D1*
X2500133D2*
X2531053D1*
X2621852D2*
X2693716D1*
X2771705D2*
X2793726D1*
X3175222D2*
X3187698D1*
X3268880D2*
X3537461D1*
X3615450D2*
X3662553D1*
X3970380D2*
X4105221D1*
X456134Y1650567D2*
X531228D1*
X609216D2*
X641105D1*
X700685D2*
X720445D1*
X844975D2*
X1210551D1*
X1321158D2*
X1549980D1*
X1627968D2*
X1737475D1*
X1815463D2*
X2031222D1*
X2192462D2*
X2250475D1*
X2496186D2*
X2517238D1*
X2624938D2*
X2693716D1*
X2771705D2*
X2793726D1*
X2946533D2*
X3187124D1*
X3265722D2*
X3537461D1*
X3625031D2*
X3652901D1*
X3981397D2*
X4105221D1*
X456098Y1625698D2*
X531228D1*
X839018D2*
X1259820D1*
X1293025D2*
X1549980D1*
X1627968D2*
X1737475D1*
X1815463D2*
X2031222D1*
X2197953D2*
X2256216D1*
X2371704D2*
X2434848D1*
X2468053D2*
X2512465D1*
X2631326D2*
X2693716D1*
X2774898D2*
X2785257D1*
X3265722D2*
X3542987D1*
X3977521D2*
X4105221D1*
X456062Y1600829D2*
X531228D1*
X733088D2*
X748937D1*
X816519D2*
X1549980D1*
X1627968D2*
X1737475D1*
X1815463D2*
X2031222D1*
X2191924D2*
X2256216D1*
X2371704D2*
X2512465D1*
X2654830D2*
X2696085D1*
X3265722D2*
X3566527D1*
X3963275D2*
X4105221D1*
X456026Y1575960D2*
X531228D1*
X835107D2*
X1549980D1*
X1627968D2*
X1737475D1*
X1815463D2*
X2031222D1*
X2167200D2*
X2256216D1*
X2371704D2*
X2512465D1*
X2660464D2*
X2716395D1*
X3265722D2*
X3591395D1*
X3980069D2*
X4105221D1*
X455955Y1551092D2*
X531228D1*
X609216D2*
X630591D1*
X711199D2*
X721005D1*
X844437D2*
X1173590D1*
X1307307D2*
X1549980D1*
X1627968D2*
X1737475D1*
X1815463D2*
X2031222D1*
X2109211D2*
X2256216D1*
X2371704D2*
X2512465D1*
X2654543D2*
X2741263D1*
X2916641D2*
X3187698D1*
X3265722D2*
X3683761D1*
X3719334D2*
X3885466D1*
X3979961D2*
X4105221D1*
X455919Y1526223D2*
X531228D1*
X609216D2*
X621871D1*
X842571D2*
X1147323D1*
X1318790D2*
X1549980D1*
X1627968D2*
X1737475D1*
X1818118D2*
X2031222D1*
X2109211D2*
X2256216D1*
X2371704D2*
X2509738D1*
X2630213D2*
X2766131D1*
X2921701D2*
X3187698D1*
X3265722D2*
X3902762D1*
X3962665D2*
X4105221D1*
X455883Y1501354D2*
X531228D1*
X828038D2*
X1137455D1*
X1315309D2*
X1549980D1*
X1627968D2*
X1739628D1*
X1842986D2*
X2031222D1*
X2109211D2*
X2256216D1*
X2371704D2*
X2502454D1*
X2600465D2*
X2790998D1*
X2921701D2*
X3187698D1*
X3265722D2*
X3902834D1*
X3962593D2*
X4105221D1*
X455847Y1476485D2*
X531228D1*
X827607D2*
X1131498D1*
X1221400D2*
X1251351D1*
X1289078D2*
X1549980D1*
X1627968D2*
X1759615D1*
X1867854D2*
X2031222D1*
X2109211D2*
X2250260D1*
X2371704D2*
X2509595D1*
X2593324D2*
X2793761D1*
X2921701D2*
X3187698D1*
X3265722D2*
X3722588D1*
X3979925D2*
X4105221D1*
X455775Y1451617D2*
X531228D1*
X842427D2*
X1127838D1*
X1225096D2*
X1549980D1*
X1627968D2*
X1784483D1*
X1892722D2*
X2031222D1*
X2109211D2*
X2246599D1*
X2371704D2*
X2793761D1*
X2921701D2*
X3187698D1*
X3265722D2*
X3697720D1*
X3998980D2*
X4105221D1*
X455739Y1426748D2*
X540665D1*
X648832D2*
X720947D1*
X844509D2*
X1139106D1*
X1213829D2*
X1549980D1*
X1627968D2*
X1809351D1*
X1931692D2*
X2031222D1*
X2109211D2*
X2210069D1*
X2371704D2*
X2793761D1*
X2921701D2*
X3187698D1*
X3265722D2*
X3672852D1*
X3781055D2*
X3902045D1*
X4037017D2*
X4105221D1*
X455704Y1401879D2*
X565461D1*
X673700D2*
X730026D1*
X835394D2*
X1439815D1*
X1538114D2*
X1549938D1*
X1627968D2*
X1834218D1*
X1943713D2*
X2031222D1*
X2109211D2*
X2202462D1*
X2362374D2*
X2787984D1*
X2921701D2*
X3187698D1*
X3265722D2*
X3647949D1*
X3756187D2*
X3940477D1*
X4054816D2*
X4105221D1*
X455668Y1377010D2*
X590329D1*
X698568D2*
X763362D1*
X802094D2*
X1430414D1*
X1627968D2*
X1849828D1*
X1940591D2*
X2031222D1*
X2109211D2*
X2209280D1*
X2337578D2*
X2784073D1*
X2921701D2*
X3187698D1*
X3265722D2*
X3623081D1*
X3731320D2*
X3960213D1*
X4055210D2*
X4105221D1*
X455596Y1352142D2*
X615197D1*
X1173459D2*
X1432854D1*
X1627968D2*
X1874696D1*
X1915723D2*
X2031222D1*
X2109211D2*
X2795053D1*
X2921701D2*
X3182064D1*
X3271356D2*
X3598213D1*
X3706452D2*
X3976540D1*
X4038883D2*
X4105221D1*
X455560Y1327273D2*
X640064D1*
X1198327D2*
X1449504D1*
X1528425D2*
X1549980D1*
X1627968D2*
X2031222D1*
X2109211D2*
X2843712D1*
X3142065D2*
X3150630D1*
X3681584D2*
X4105221D1*
X455524Y1302404D2*
X676953D1*
X1223194D2*
X1549980D1*
X1627968D2*
X2031222D1*
X2109211D2*
X2829753D1*
X3665472D2*
X4105221D1*
X455488Y1277535D2*
X697623D1*
X755982D2*
X1139823D1*
X1248062D2*
X1549980D1*
X1627968D2*
X2031222D1*
X2109211D2*
X2790747D1*
X3665472D2*
X4105221D1*
X455416Y1252667D2*
X647349D1*
X806256D2*
X1164691D1*
X1272930D2*
X1485998D1*
X1541918D2*
X1549946D1*
X1627968D2*
X2031222D1*
X2109211D2*
X2778116D1*
X2888257D2*
X3099566D1*
X3275196D2*
X3552174D1*
X3673474D2*
X4105221D1*
X455381Y1227798D2*
X624814D1*
X828791D2*
X1189559D1*
X1627968D2*
X2031510D1*
X2313715D2*
X2429968D1*
X2485457D2*
X2780771D1*
X2872145D2*
X3123214D1*
X3167220D2*
X3187447D1*
X3265471D2*
X3577041D1*
X3681692D2*
X4105221D1*
X455345Y1202929D2*
X611895D1*
X841710D2*
X1214427D1*
X1627968D2*
X2045684D1*
X2326561D2*
X2410913D1*
X2504511D2*
X2804168D1*
X2848748D2*
X2884871D1*
X3265471D2*
X3589996D1*
X3675448D2*
X4105221D1*
X455309Y1178060D2*
X605436D1*
X848205D2*
X1247584D1*
X1641281D2*
X2070552D1*
X2324050D2*
X2392899D1*
X2505480D2*
X2871917D1*
X3257146D2*
X4105221D1*
X455237Y1153191D2*
X604324D1*
X849281D2*
X1558161D1*
X1666149D2*
X2255391D1*
X2301084D2*
X2368031D1*
X2490157D2*
X2874357D1*
X3232529D2*
X4105221D1*
X455201Y1128323D2*
X608450D1*
X845155D2*
X1582778D1*
X2451403D2*
X2897108D1*
X2943303D2*
X4105221D1*
X455165Y1103454D2*
X618426D1*
X835215D2*
X1607646D1*
X2426535D2*
X4105221D1*
X455129Y1078585D2*
X636189D1*
X817416D2*
X1639224D1*
X2394957D2*
X4105221D1*
X455058Y1053716D2*
X668808D1*
X784833D2*
X4105221D1*
X455022Y1028848D2*
X4105221D1*
X454986Y1003979D2*
X4105221D1*
X454950Y979110D2*
X4105221D1*
X454878Y954241D2*
X4105221D1*
X454842Y929373D2*
X4105221D1*
X454806Y904504D2*
X4105221D1*
X454771Y879635D2*
X4105221D1*
X454699Y854766D2*
X518668D1*
X671762D2*
X4105221D1*
X454663Y829898D2*
X489566D1*
X700828D2*
X4105221D1*
X454627Y805029D2*
X472090D1*
X718340D2*
X4105221D1*
X728962Y780160D2*
X4105221D1*
X734344Y755291D2*
X4105221D1*
X735098Y730422D2*
X3943096D1*
X3997329D2*
X4105221D1*
X731294Y705554D2*
X3885717D1*
X4054708D2*
X4105221D1*
X454412Y680685D2*
X467928D1*
X722502D2*
X3859988D1*
X4080437D2*
X4105221D1*
X454340Y655816D2*
X482892D1*
X707539D2*
X3844235D1*
X4096190D2*
X4105221D1*
X454304Y630947D2*
X507149D1*
X683281D2*
X3834869D1*
X454268Y606079D2*
X556131D1*
X634299D2*
X3830527D1*
X454232Y581210D2*
X3830779D1*
X454160Y556341D2*
X3835623D1*
X454125Y531472D2*
X3845635D1*
X4094791D2*
X4105221D1*
X454089Y506604D2*
X3862213D1*
X4078212D2*
X4105221D1*
X454053Y481735D2*
X3889521D1*
X4050904D2*
X4105221D1*
X453981Y456866D2*
X3739776D1*
X732538Y3629577D2*
X731620Y3620438D1*
X730094Y3611381D1*
X727968Y3602446D1*
X725251Y3593673D1*
X721954Y3585100D1*
X718093Y3576766D1*
X713685Y3568708D1*
X708749Y3560963D1*
X703308Y3553564D1*
X697385Y3546544D1*
X691008Y3539934D1*
X684203Y3533765D1*
X677002Y3528064D1*
X669438Y3522855D1*
X661542Y3518163D1*
X653351Y3514007D1*
X644901Y3510408D1*
X636230Y3507379D1*
X627377Y3504936D1*
X618380Y3503089D1*
X609279Y3501846D1*
X600117Y3501213D1*
X590932Y3501192D1*
X581766Y3501784D1*
X572661Y3502985D1*
X563656Y3504792D1*
X554791Y3507195D1*
X546106Y3510184D1*
X537640Y3513746D1*
X529431Y3517864D1*
X521514Y3522521D1*
X513925Y3527695D1*
X506699Y3533364D1*
X499867Y3539502D1*
X493459Y3546082D1*
X487505Y3553075D1*
X482030Y3560450D1*
X477059Y3568173D1*
X472615Y3576211D1*
X468716Y3584527D1*
X465381Y3593085D1*
X462624Y3601846D1*
X460457Y3610771D1*
X458891Y3619821D1*
X457931Y3628956D1*
X457583Y3638134D1*
X457848Y3647315D1*
X458725Y3656457D1*
X460209Y3665521D1*
X462295Y3674466D1*
X464973Y3683251D1*
X468230Y3691839D1*
X472054Y3700190D1*
X476425Y3708268D1*
X481326Y3716036D1*
X486734Y3723459D1*
X492625Y3730506D1*
X498973Y3737144D1*
X505749Y3743344D1*
X512924Y3749078D1*
X520465Y3754321D1*
X528339Y3759049D1*
X536511Y3763241D1*
X544945Y3766879D1*
X553602Y3769947D1*
X562445Y3772430D1*
X571433Y3774318D1*
X580527Y3775602D1*
X589687Y3776277D1*
X598872Y3776339D1*
X608040Y3775789D1*
X617151Y3774628D1*
X626164Y3772862D1*
X635040Y3770499D1*
X643738Y3767550D1*
X652220Y3764026D1*
X660448Y3759945D1*
X668386Y3755325D1*
X675997Y3750185D1*
X683249Y3744549D1*
X690109Y3738441D1*
X696547Y3731890D1*
X702533Y3724924D1*
X708041Y3717574D1*
X713047Y3709874D1*
X717527Y3701856D1*
X721464Y3693558D1*
X724838Y3685015D1*
X727634Y3676267D1*
X729841Y3667351D1*
X731449Y3658308D1*
X732449Y3649178D1*
X732844Y3638756D1*
X732538Y3629577D1*
Y729580D2*
X731620Y720441D1*
X730094Y711384D1*
X727968Y702449D1*
X725251Y693675D1*
X721954Y685102D1*
X718093Y676769D1*
X713685Y668711D1*
X708749Y660965D1*
X703308Y653566D1*
X697385Y646546D1*
X691008Y639937D1*
X684203Y633768D1*
X677002Y628066D1*
X669438Y622858D1*
X661542Y618165D1*
X653351Y614010D1*
X644901Y610410D1*
X636230Y607382D1*
X627377Y604939D1*
X618380Y603092D1*
X609279Y601849D1*
X600117Y601215D1*
X590932Y601194D1*
X581766Y601786D1*
X572661Y602988D1*
X563656Y604795D1*
X554791Y607198D1*
X546106Y610187D1*
X537640Y613748D1*
X529431Y617866D1*
X521514Y622523D1*
X513925Y627697D1*
X506699Y633366D1*
X499867Y639505D1*
X493459Y646085D1*
X487505Y653078D1*
X482030Y660452D1*
X477059Y668176D1*
X472615Y676213D1*
X468716Y684530D1*
X465381Y693087D1*
X462624Y701848D1*
X460457Y710774D1*
X458891Y719824D1*
X457931Y728958D1*
X457583Y738136D1*
X457848Y747317D1*
X458725Y756460D1*
X460209Y765524D1*
X462295Y774468D1*
X464973Y783254D1*
X468230Y791842D1*
X472054Y800193D1*
X476425Y808270D1*
X481326Y816038D1*
X486734Y823462D1*
X492625Y830509D1*
X498973Y837147D1*
X505749Y843346D1*
X512924Y849081D1*
X520465Y854323D1*
X528339Y859051D1*
X536511Y863244D1*
X544945Y866882D1*
X553602Y869949D1*
X562445Y872432D1*
X571433Y874320D1*
X580527Y875605D1*
X589687Y876279D1*
X598872Y876342D1*
X608040Y875791D1*
X617151Y874631D1*
X626164Y872865D1*
X635040Y870502D1*
X643738Y867552D1*
X652220Y864029D1*
X660448Y859948D1*
X668386Y855327D1*
X675997Y850187D1*
X683249Y844551D1*
X690109Y838444D1*
X696547Y831893D1*
X702533Y824927D1*
X708041Y817577D1*
X713047Y809876D1*
X717527Y801859D1*
X721464Y793560D1*
X724838Y785018D1*
X727634Y776269D1*
X729841Y767354D1*
X731449Y758311D1*
X732449Y749181D1*
X732844Y738759D1*
X732538Y729580D1*
X4107714Y591100D2*
X4106620Y576690D1*
X4105094Y567633D1*
X4102968Y558698D1*
X4100251Y549925D1*
X4096954Y541352D1*
X4093093Y533018D1*
X4088685Y524960D1*
X4083749Y517215D1*
X4078308Y509815D1*
X4072385Y502796D1*
X4066008Y496186D1*
X4059203Y490017D1*
X4052002Y484316D1*
X4044438Y479107D1*
X4036542Y474415D1*
X4028351Y470259D1*
X4019901Y466660D1*
X4011230Y463631D1*
X4002377Y461188D1*
X3993380Y459341D1*
X3984279Y458098D1*
X3975117Y457465D1*
X3965932Y457444D1*
X3956766Y458036D1*
X3947661Y459237D1*
X3938656Y461044D1*
X3929791Y463447D1*
X3921106Y466436D1*
X3912640Y469998D1*
X3904431Y474116D1*
X3896514Y478773D1*
X3888925Y483947D1*
X3881699Y489616D1*
X3874867Y495754D1*
X3868459Y502334D1*
X3862505Y509327D1*
X3857030Y516702D1*
X3852059Y524425D1*
X3847615Y532463D1*
X3843716Y540779D1*
X3840381Y549337D1*
X3837624Y558098D1*
X3835457Y567023D1*
X3833891Y576073D1*
X3832931Y585208D1*
X3832583Y594386D1*
X3832848Y603566D1*
X3833725Y612709D1*
X3835209Y621773D1*
X3837295Y630718D1*
X3839973Y639503D1*
X3843230Y648091D1*
X3847054Y656442D1*
X3851425Y664520D1*
X3856326Y672288D1*
X3861734Y679711D1*
X3867625Y686758D1*
X3873973Y693396D1*
X3880749Y699596D1*
X3887924Y705330D1*
X3895465Y710573D1*
X3903339Y715301D1*
X3911511Y719493D1*
X3919945Y723131D1*
X3928602Y726199D1*
X3937445Y728682D1*
X3946433Y730570D1*
X3955527Y731854D1*
X3964687Y732529D1*
X3973872Y732591D1*
X3983040Y732041D1*
X3992151Y730880D1*
X4001164Y729114D1*
X4010040Y726751D1*
X4018738Y723802D1*
X4027220Y720278D1*
X4035448Y716197D1*
X4043386Y711577D1*
X4050997Y706437D1*
X4058249Y700801D1*
X4065109Y694693D1*
X4071547Y688142D1*
X4077533Y681176D1*
X4083041Y673826D1*
X4088047Y666126D1*
X4092527Y658108D1*
X4096464Y649810D1*
X4099838Y641267D1*
X4102634Y632519D1*
X4104841Y623603D1*
X4106449Y614560D1*
X4107449Y605430D1*
X4107714Y601176D1*
X4107642Y2449245D1*
X4104036Y2440802D1*
X4099482Y2432830D1*
X4094041Y2425435D1*
X4087785Y2418715D1*
X4080797Y2412759D1*
X4073170Y2407648D1*
X4065006Y2403448D1*
X4056412Y2400216D1*
X4047504Y2397993D1*
X4038399Y2396811D1*
X4029219Y2396685D1*
X4020085Y2397616D1*
X4011119Y2399591D1*
X4002439Y2402586D1*
X3994162Y2406559D1*
X3986398Y2411459D1*
X3979248Y2417219D1*
X3972809Y2423764D1*
X3967166Y2431006D1*
X3962394Y2438850D1*
X3958557Y2447191D1*
X3955704Y2455918D1*
X3953875Y2464915D1*
X3953094Y2474063D1*
X3953370Y2483240D1*
X3954701Y2492324D1*
X3957068Y2501195D1*
X3958454Y2505051D1*
X3950388Y2502637D1*
X3944557Y2501477D1*
X3938653Y2500779D1*
X3932713Y2500545D1*
X3926773Y2500779D1*
X3920869Y2501477D1*
X3915038Y2502637D1*
X3906942Y2505127D1*
X3909630Y2496944D1*
X3911499Y2487955D1*
X3912322Y2478810D1*
X3912172Y2470750D1*
X3911010Y2461643D1*
X3908808Y2452730D1*
X3905595Y2444129D1*
X3901414Y2435955D1*
X3896319Y2428317D1*
X3890380Y2421316D1*
X3883674Y2415045D1*
X3876291Y2409587D1*
X3868329Y2405015D1*
X3859894Y2401389D1*
X3851097Y2398759D1*
X3842057Y2397158D1*
X3832892Y2396608D1*
X3823725Y2397117D1*
X3814677Y2398677D1*
X3805869Y2401268D1*
X3797418Y2404855D1*
X3791869Y2407884D1*
X3793205Y2403529D1*
X3794101Y2397872D1*
X3794213Y2356289D1*
X3800317Y2350145D1*
X3805484Y2343032D1*
X3809476Y2335199D1*
X3812193Y2326837D1*
X3813568Y2318154D1*
Y2309362D1*
X3812193Y2300678D1*
X3809476Y2292317D1*
X3805484Y2284483D1*
X3800317Y2277371D1*
X3794100Y2271154D1*
X3786987Y2265986D1*
X3779154Y2261995D1*
X3770792Y2259278D1*
X3762109Y2257903D1*
X3753317D1*
X3744634Y2259278D1*
X3736272Y2261995D1*
X3728439Y2265986D1*
X3721326Y2271154D1*
X3715109Y2277371D1*
X3709942Y2284483D1*
X3705950Y2292317D1*
X3703234Y2300678D1*
X3701858Y2309362D1*
Y2318154D1*
X3703234Y2326837D1*
X3705950Y2335199D1*
X3709942Y2343032D1*
X3715109Y2350145D1*
X3721213Y2356256D1*
Y2379892D1*
X3711209Y2390053D1*
X3707842Y2394686D1*
X3705242Y2399790D1*
X3703472Y2405237D1*
X3702576Y2410894D1*
X3702464Y2438984D1*
X3694184Y2438981D1*
X3694101Y2385894D1*
X3693205Y2380237D1*
X3691435Y2374790D1*
X3688835Y2369686D1*
X3685468Y2365053D1*
X3651044Y2330470D1*
X3612958Y2292383D1*
X3612963Y1660120D1*
X3641576Y1631512D1*
X3657072Y1631507D1*
X3655635Y1637733D1*
X3655062Y1645007D1*
X3655635Y1652281D1*
X3657338Y1659376D1*
X3660130Y1666118D1*
X3663943Y1672339D1*
X3665064Y1673762D1*
X3665175Y1760471D1*
X3666071Y1766128D1*
X3667840Y1771575D1*
X3670441Y1776678D1*
X3673807Y1781312D1*
X3701710Y1809374D1*
X3701686Y1869785D1*
X3813741D1*
Y1757730D1*
X3753276D1*
X3738078Y1742504D1*
X3738062Y1681496D1*
X3903913Y1681508D1*
X3908416Y1684656D1*
X3914918Y1687968D1*
X3921857Y1690223D1*
X3929064Y1691364D1*
X3936361D1*
X3943568Y1690223D1*
X3950507Y1687968D1*
X3957009Y1684656D1*
X3962912Y1680367D1*
X3968071Y1675207D1*
X3972360Y1669304D1*
X3975673Y1662803D1*
X3977928Y1655863D1*
X3979069Y1648656D1*
Y1641359D1*
X3977928Y1634153D1*
X3975673Y1627213D1*
X3972360Y1620712D1*
X3968071Y1614808D1*
X3962912Y1609649D1*
X3957009Y1605360D1*
X3955304Y1604405D1*
X3960045Y1601377D1*
X3965594Y1596638D1*
X3970332Y1591090D1*
X3974145Y1584868D1*
X3976937Y1578127D1*
X3978641Y1571032D1*
X3979213Y1563758D1*
X3978641Y1556484D1*
X3976937Y1549388D1*
X3974145Y1542647D1*
X3970332Y1536426D1*
X3965594Y1530877D1*
X3960045Y1526138D1*
X3953824Y1522326D1*
X3947082Y1519534D1*
X3939987Y1517830D1*
X3932713Y1517258D1*
X3925439Y1517830D1*
X3918344Y1519534D1*
X3911603Y1522326D1*
X3905381Y1526138D1*
X3899833Y1530877D1*
X3895094Y1536426D1*
X3891281Y1542647D1*
X3888489Y1549388D1*
X3886786Y1556484D1*
X3886573Y1558282D1*
X3873905Y1558507D1*
X3730404D1*
X3725858Y1555359D1*
X3719357Y1552047D1*
X3712417Y1549792D1*
X3705211Y1548650D1*
X3697914D1*
X3690707Y1549792D1*
X3683767Y1552047D1*
X3677266Y1555359D1*
X3672808Y1558509D1*
X3623599Y1558620D1*
X3617942Y1559516D1*
X3612494Y1561285D1*
X3607391Y1563886D1*
X3602758Y1567252D1*
X3568174Y1601676D1*
X3548708Y1621302D1*
X3545341Y1625936D1*
X3542741Y1631039D1*
X3540971Y1636486D1*
X3540075Y1642143D1*
X3539962Y1690939D1*
X3540075Y2310371D1*
X3540971Y2316028D1*
X3542741Y2321475D1*
X3545341Y2326578D1*
X3548708Y2331212D1*
X3583132Y2365795D1*
X3621218Y2403882D1*
X3621213Y2438960D1*
X3601686Y2438981D1*
Y2551036D1*
X3702484D1*
X3702464Y2802276D1*
X3159037Y2802258D1*
X3161892Y2797368D1*
X3164684Y2790627D1*
X3166387Y2783532D1*
X3166960Y2776258D1*
X3166387Y2768984D1*
X3164684Y2761888D1*
X3161892Y2755147D1*
X3158079Y2748926D1*
X3156958Y2747503D1*
X3156960Y2266200D1*
X3162318Y2265224D1*
X3169257Y2262969D1*
X3175759Y2259656D1*
X3181662Y2255367D1*
X3186821Y2250208D1*
X3191110Y2244305D1*
X3194423Y2237803D1*
X3196678Y2230864D1*
X3197819Y2223657D1*
Y2216360D1*
X3196678Y2209153D1*
X3194423Y2202214D1*
X3191110Y2195712D1*
X3186821Y2189809D1*
X3182866Y2185763D1*
X3187068Y2181457D1*
X3191357Y2175554D1*
X3194670Y2169053D1*
X3196924Y2162113D1*
X3198066Y2154906D1*
Y2147609D1*
X3196924Y2140403D1*
X3194670Y2133463D1*
X3191357Y2126962D1*
X3188207Y2122503D1*
X3188209Y1803648D1*
X3238137Y1753705D1*
X3243570Y1752724D1*
X3250509Y1750469D1*
X3257011Y1747156D1*
X3262914Y1742867D1*
X3268073Y1737708D1*
X3272362Y1731805D1*
X3275675Y1725303D1*
X3277930Y1718364D1*
X3279071Y1711157D1*
Y1703860D1*
X3277930Y1696653D1*
X3275675Y1689714D1*
X3272362Y1683212D1*
X3268073Y1677309D1*
X3263217Y1672430D1*
X3263209Y1361346D1*
X3266357Y1356805D1*
X3269670Y1350303D1*
X3271924Y1343364D1*
X3273066Y1336157D1*
X3273169Y1331497D1*
X3566826Y1331396D1*
X3572483Y1330500D1*
X3577930Y1328730D1*
X3583034Y1326130D1*
X3587667Y1322763D1*
X3589950Y1320640D1*
X3590076Y1329122D1*
X3590972Y1334779D1*
X3592742Y1340226D1*
X3595342Y1345329D1*
X3598708Y1349963D1*
X3633132Y1384546D1*
X3740258Y1491513D1*
X3744892Y1494879D1*
X3749995Y1497479D1*
X3755442Y1499249D1*
X3761099Y1500145D1*
X3809895Y1500258D1*
X3903876D1*
X3908417Y1503406D1*
X3914918Y1506718D1*
X3921858Y1508973D1*
X3929065Y1510114D1*
X3936361D1*
X3943568Y1508973D1*
X3950508Y1506718D1*
X3957009Y1503406D1*
X3962912Y1499117D1*
X3968072Y1493957D1*
X3972361Y1488054D1*
X3975674Y1481553D1*
X3977928Y1474613D1*
X3978854Y1469233D1*
X4013153Y1434937D1*
X4018568Y1433973D1*
X4025508Y1431718D1*
X4032009Y1428406D1*
X4037912Y1424117D1*
X4043072Y1418957D1*
X4047361Y1413054D1*
X4050674Y1406553D1*
X4052928Y1399613D1*
X4054070Y1392406D1*
Y1385109D1*
X4052928Y1377903D1*
X4050674Y1370963D1*
X4047361Y1364462D1*
X4043072Y1358558D1*
X4037912Y1353399D1*
X4032009Y1349110D1*
X4025508Y1345797D1*
X4018568Y1343543D1*
X4011361Y1342401D1*
X4004065D1*
X3996858Y1343543D1*
X3989918Y1345797D1*
X3983417Y1349110D1*
X3977514Y1353399D1*
X3972354Y1358558D1*
X3968065Y1364462D1*
X3964753Y1370963D1*
X3962498Y1377903D1*
X3961573Y1383282D1*
X3927274Y1417578D1*
X3921858Y1418543D1*
X3914918Y1420797D1*
X3908417Y1424110D1*
X3903959Y1427260D1*
X3779093Y1427258D1*
X3662979Y1311155D1*
X3662963Y1261559D1*
X3668072Y1256457D1*
X3672361Y1250554D1*
X3675674Y1244053D1*
X3677928Y1237113D1*
X3679070Y1229906D1*
Y1222609D1*
X3677928Y1215403D1*
X3675674Y1208463D1*
X3672361Y1201962D1*
X3668072Y1196058D1*
X3662912Y1190899D1*
X3657009Y1186610D1*
X3650508Y1183297D1*
X3643568Y1181043D1*
X3636361Y1179901D1*
X3629065D1*
X3621858Y1181043D1*
X3614918Y1183297D1*
X3608417Y1186610D1*
X3602514Y1190899D1*
X3597354Y1196058D1*
X3593065Y1201962D1*
X3589753Y1208463D1*
X3587498Y1215403D1*
X3586573Y1220782D1*
X3548823Y1258529D1*
X3272978Y1258508D1*
X3272390Y1250233D1*
X3270687Y1243138D1*
X3267894Y1236397D1*
X3264082Y1230175D1*
X3262960Y1228753D1*
X3262850Y1198394D1*
X3261954Y1192737D1*
X3260184Y1187290D1*
X3257584Y1182186D1*
X3254217Y1177553D1*
X3221023Y1144199D1*
X3216667Y1140479D1*
X3211784Y1137487D1*
X3206492Y1135295D1*
X3200923Y1133958D1*
X3195202Y1133509D1*
X2949012Y1133508D1*
X2944509Y1130361D1*
X2938008Y1127048D1*
X2931068Y1124793D1*
X2923861Y1123652D1*
X2916565D1*
X2909358Y1124793D1*
X2902418Y1127048D1*
X2895917Y1130361D1*
X2890014Y1134650D1*
X2884854Y1139809D1*
X2880565Y1145712D1*
X2877253Y1152214D1*
X2874998Y1159153D1*
X2873856Y1166360D1*
Y1173657D1*
X2874998Y1180864D1*
X2877253Y1187803D1*
X2880565Y1194305D1*
X2884854Y1200208D1*
X2890014Y1205367D1*
X2895917Y1209656D1*
X2902418Y1212969D1*
X2909358Y1215224D1*
X2916565Y1216365D1*
X2923861D1*
X2931068Y1215224D1*
X2938008Y1212969D1*
X2944509Y1209656D1*
X2948968Y1206506D1*
X3180122Y1206508D1*
X3189982Y1216396D1*
X3189962Y1228709D1*
X3186815Y1233211D1*
X3183502Y1239712D1*
X3182549Y1242295D1*
X3178094Y1237128D1*
X3172545Y1232389D1*
X3166324Y1228577D1*
X3159582Y1225784D1*
X3152487Y1224081D1*
X3145213Y1223508D1*
X3137939Y1224081D1*
X3130844Y1225784D1*
X3124103Y1228577D1*
X3117881Y1232389D1*
X3112333Y1237128D1*
X3107594Y1242676D1*
X3103781Y1248898D1*
X3100989Y1255639D1*
X3099286Y1262734D1*
X3099073Y1264533D1*
X3086341Y1277261D1*
X2910309Y1277258D1*
X2872669Y1239595D1*
X2871679Y1234153D1*
X2869424Y1227214D1*
X2866112Y1220712D1*
X2861823Y1214809D1*
X2856663Y1209650D1*
X2850760Y1205361D1*
X2844259Y1202048D1*
X2837319Y1199793D1*
X2830112Y1198652D1*
X2822815D1*
X2815609Y1199793D1*
X2808669Y1202048D1*
X2802168Y1205361D1*
X2796264Y1209650D1*
X2791105Y1214809D1*
X2786816Y1220712D1*
X2783503Y1227214D1*
X2781249Y1234153D1*
X2780107Y1241360D1*
Y1248657D1*
X2781249Y1255864D1*
X2783503Y1262803D1*
X2786816Y1269305D1*
X2791105Y1275208D1*
X2796264Y1280367D1*
X2802168Y1284656D1*
X2808669Y1287969D1*
X2815609Y1290224D1*
X2820988Y1291149D1*
X2846201Y1316364D1*
X2846213Y1337967D1*
X2840037Y1336581D1*
X2832763Y1336008D1*
X2825489Y1336581D1*
X2818394Y1338284D1*
X2811652Y1341077D1*
X2805431Y1344889D1*
X2799883Y1349628D1*
X2795144Y1355176D1*
X2791331Y1361398D1*
X2788539Y1368139D1*
X2786835Y1375234D1*
X2786263Y1382508D1*
X2786835Y1389783D1*
X2788539Y1396878D1*
X2791331Y1403619D1*
X2795144Y1409840D1*
X2796265Y1411263D1*
X2796263Y1498594D1*
X2704958Y1590053D1*
X2701592Y1594687D1*
X2698991Y1599790D1*
X2697222Y1605237D1*
X2696326Y1610894D1*
X2696213Y1659690D1*
X2696019Y1733295D1*
X2689750Y1739564D1*
X2684539Y1746737D1*
X2680514Y1754636D1*
X2677774Y1763068D1*
X2676387Y1771825D1*
Y1780691D1*
X2677774Y1789447D1*
X2680514Y1797879D1*
X2683921Y1804675D1*
X2659581Y1829020D1*
X2660319Y1823655D1*
Y1816359D1*
X2659178Y1809152D1*
X2656923Y1802212D1*
X2653610Y1795711D1*
X2649321Y1789808D1*
X2644162Y1784648D1*
X2638259Y1780359D1*
X2631757Y1777047D1*
X2624818Y1774792D1*
X2619438Y1773867D1*
X2612952Y1767377D1*
X2612963Y1686302D1*
X2616110Y1681805D1*
X2619423Y1675303D1*
X2621678Y1668364D1*
X2622819Y1661157D1*
Y1653860D1*
X2621678Y1646653D1*
X2619423Y1639714D1*
X2616110Y1633212D1*
X2614755Y1631184D1*
X2623084Y1628457D1*
X2630984Y1624432D1*
X2638156Y1619221D1*
X2644425Y1612952D1*
X2649637Y1605779D1*
X2653662Y1597879D1*
X2656401Y1589447D1*
X2657788Y1580691D1*
Y1571825D1*
X2656401Y1563068D1*
X2653662Y1554636D1*
X2649637Y1546737D1*
X2644425Y1539564D1*
X2638156Y1533295D1*
X2630984Y1528084D1*
X2623084Y1524059D1*
X2614652Y1521319D1*
X2605895Y1519932D1*
X2597030D1*
X2593880Y1520305D1*
X2595687Y1515627D1*
X2597391Y1508532D1*
X2597963Y1501258D1*
X2597391Y1493984D1*
X2595687Y1486888D1*
X2592895Y1480147D1*
X2589082Y1473926D1*
X2584344Y1468377D1*
X2578795Y1463638D1*
X2572574Y1459826D1*
X2565832Y1457034D1*
X2558737Y1455330D1*
X2551463Y1454758D1*
X2544189Y1455330D1*
X2537094Y1457034D1*
X2530353Y1459826D1*
X2524131Y1463638D1*
X2518583Y1468377D1*
X2513844Y1473926D1*
X2510031Y1480147D1*
X2507239Y1486888D1*
X2505536Y1493984D1*
X2504963Y1501258D1*
X2505536Y1508532D1*
X2507239Y1515627D1*
X2510031Y1522368D1*
X2513844Y1528590D1*
X2514965Y1530012D1*
X2515076Y1635373D1*
X2515972Y1641030D1*
X2517741Y1646477D1*
X2520342Y1651580D1*
X2523708Y1656214D1*
X2530297Y1662962D1*
X2531247Y1668364D1*
X2533502Y1675303D1*
X2536815Y1681805D1*
X2539965Y1686263D1*
X2539963Y1782518D1*
X2531285Y1783507D1*
X2267788D1*
X2263259Y1780359D1*
X2256757Y1777047D1*
X2249818Y1774792D1*
X2242611Y1773650D1*
X2235314D1*
X2228107Y1774792D1*
X2221168Y1777047D1*
X2214666Y1780359D1*
X2208763Y1784648D1*
X2203604Y1789808D1*
X2199315Y1795711D1*
X2196002Y1802212D1*
X2193747Y1809152D1*
X2193494Y1810425D1*
X2106695Y1723619D1*
X2106713Y1672622D1*
X2113313Y1676600D1*
X2121504Y1679992D1*
X2130125Y1682062D1*
X2138964Y1682758D1*
X2147802Y1682062D1*
X2156423Y1679992D1*
X2164614Y1676600D1*
X2172174Y1671967D1*
X2178915Y1666209D1*
X2184673Y1659468D1*
X2189306Y1651908D1*
X2192698Y1643717D1*
X2194768Y1635096D1*
X2195464Y1626258D1*
X2194768Y1617419D1*
X2192698Y1608798D1*
X2189306Y1600607D1*
X2184673Y1593048D1*
X2178915Y1586306D1*
X2172174Y1580548D1*
X2164614Y1575916D1*
X2156423Y1572523D1*
X2147802Y1570453D1*
X2138964Y1569758D1*
X2130125Y1570453D1*
X2121504Y1572523D1*
X2113313Y1575916D1*
X2106719Y1579903D1*
X2106713Y1247610D1*
X2122843Y1231496D1*
X2249420Y1231507D1*
X2253939Y1234655D1*
X2260441Y1237967D1*
X2267380Y1240222D1*
X2274587Y1241364D1*
X2281884D1*
X2289091Y1240222D1*
X2296030Y1237967D1*
X2302532Y1234655D1*
X2308435Y1230366D1*
X2313594Y1225206D1*
X2317883Y1219303D1*
X2321196Y1212802D1*
X2323451Y1205862D1*
X2324592Y1198655D1*
Y1191359D1*
X2323451Y1184152D1*
X2321196Y1177212D1*
X2317883Y1170711D1*
X2313594Y1164808D1*
X2308435Y1159648D1*
X2302532Y1155359D1*
X2296030Y1152047D1*
X2290752Y1150260D1*
X2367603Y1150258D1*
X2411534Y1194197D1*
X2412498Y1199613D1*
X2414753Y1206553D1*
X2418065Y1213054D1*
X2422354Y1218957D1*
X2427514Y1224117D1*
X2433417Y1228406D1*
X2439918Y1231718D1*
X2446858Y1233973D1*
X2454065Y1235114D1*
X2461361D1*
X2468568Y1233973D1*
X2475508Y1231718D1*
X2482009Y1228406D1*
X2487912Y1224117D1*
X2493072Y1218957D1*
X2497361Y1213054D1*
X2500674Y1206553D1*
X2502928Y1199613D1*
X2504070Y1192406D1*
Y1185109D1*
X2502928Y1177903D1*
X2500674Y1170963D1*
X2497361Y1164462D1*
X2493072Y1158558D1*
X2487912Y1153399D1*
X2482009Y1149110D1*
X2475508Y1145797D1*
X2468568Y1143543D1*
X2463189Y1142617D1*
X2406418Y1086003D1*
X2401784Y1082636D1*
X2396681Y1080036D1*
X2391234Y1078266D1*
X2385577Y1077370D1*
X2336781Y1077258D1*
X1648599Y1077370D1*
X1642942Y1078266D1*
X1637494Y1080036D1*
X1632391Y1082636D1*
X1627758Y1086003D1*
X1593174Y1120427D1*
X1561209Y1152552D1*
X1557842Y1157185D1*
X1555242Y1162288D1*
X1553472Y1167736D1*
X1552576Y1173393D1*
X1552464Y1187703D1*
X1549323Y1183558D1*
X1544163Y1178399D1*
X1538260Y1174110D1*
X1531759Y1170797D1*
X1524819Y1168543D1*
X1517612Y1167401D1*
X1510315D1*
X1503109Y1168543D1*
X1496169Y1170797D1*
X1489668Y1174110D1*
X1485209Y1177260D1*
X1254849Y1177370D1*
X1249192Y1178266D1*
X1243745Y1180036D1*
X1238642Y1182636D1*
X1234008Y1186003D1*
X1199425Y1220427D1*
X1117594Y1302258D1*
X679849Y1302370D1*
X674192Y1303266D1*
X668745Y1305036D1*
X663642Y1307636D1*
X659008Y1311003D1*
X624425Y1345427D1*
X542458Y1427553D1*
X539092Y1432186D1*
X536491Y1437290D1*
X534722Y1442737D1*
X533826Y1448394D1*
X533713Y1497190D1*
X533826Y3160372D1*
X534722Y3166029D1*
X536492Y3171476D1*
X539092Y3176579D1*
X542458Y3181213D1*
X576882Y3215796D1*
X590258Y3229013D1*
X594892Y3232379D1*
X599995Y3234979D1*
X605442Y3236749D1*
X611099Y3237645D1*
X659895Y3237758D1*
X1080493D1*
X1076344Y3242676D1*
X1072531Y3248897D1*
X1069739Y3255638D1*
X1068036Y3262734D1*
X1067463Y3270008D1*
X1068036Y3277282D1*
X1069739Y3284377D1*
X1072531Y3291118D1*
X1076344Y3297340D1*
X1077465Y3298762D1*
X1077463Y3597451D1*
X1074315Y3601962D1*
X1071003Y3608463D1*
X1068748Y3615403D1*
X1067606Y3622609D1*
Y3629906D1*
X1068748Y3637113D1*
X1071003Y3644053D1*
X1074315Y3650554D1*
X1078604Y3656457D1*
X1083764Y3661617D1*
X1089667Y3665906D1*
X1096168Y3669218D1*
X1103108Y3671473D1*
X1110315Y3672614D1*
X1117611D1*
X1124818Y3671473D1*
X1131758Y3669218D1*
X1138259Y3665906D1*
X1144162Y3661617D1*
X1149322Y3656457D1*
X1153349Y3650945D1*
X1157585Y3645329D1*
X1160185Y3640226D1*
X1161955Y3634779D1*
X1162851Y3629122D1*
Y3623394D1*
X1161955Y3617737D1*
X1160185Y3612290D1*
X1157585Y3607186D1*
X1150461Y3597503D1*
X1150463Y3298802D1*
X1153611Y3294304D1*
X1156924Y3287803D1*
X1159178Y3280863D1*
X1160320Y3273656D1*
Y3266359D1*
X1159178Y3259153D1*
X1156924Y3252213D1*
X1153611Y3245712D1*
X1149322Y3239808D1*
X1147434Y3237766D1*
X1151145Y3240059D1*
X1196235Y3285148D1*
X1196325Y3591622D1*
X1197221Y3597279D1*
X1198991Y3602726D1*
X1201592Y3607829D1*
X1204958Y3612463D1*
X1239382Y3647046D1*
X1246311Y3653816D1*
X1250945Y3657182D1*
X1256048Y3659783D1*
X1261495Y3661553D1*
X1267153Y3662449D1*
X1303927Y3662561D1*
X1308417Y3665709D1*
X1314918Y3669021D1*
X1321858Y3671276D1*
X1329065Y3672418D1*
X1336361D1*
X1343568Y3671276D1*
X1350508Y3669021D1*
X1357009Y3665709D1*
X1362912Y3661420D1*
X1368072Y3656260D1*
X1372361Y3650357D1*
X1375674Y3643856D1*
X1377928Y3636916D1*
X1379070Y3629709D1*
Y3622413D1*
X1377928Y3615206D1*
X1375674Y3608266D1*
X1372361Y3601765D1*
X1368072Y3595862D1*
X1362912Y3590702D1*
X1357009Y3586413D1*
X1350508Y3583100D1*
X1343568Y3580846D1*
X1336361Y3579704D1*
X1329065D1*
X1321858Y3580846D1*
X1314918Y3583100D1*
X1308417Y3586413D1*
X1303959Y3589563D1*
X1285167Y3589561D1*
X1269208Y3573634D1*
X1269101Y3267144D1*
X1268205Y3261487D1*
X1266435Y3256040D1*
X1263835Y3250936D1*
X1260468Y3246303D1*
X1226044Y3211720D1*
X1187668Y3173503D1*
X1183034Y3170136D1*
X1177931Y3167536D1*
X1172484Y3165766D1*
X1166827Y3164870D1*
X1118031Y3164758D1*
X629109D1*
X606710Y3142386D1*
X606887Y3020972D1*
X607863Y3030104D1*
X609534Y3039135D1*
X611889Y3048012D1*
X614915Y3056683D1*
X618594Y3065098D1*
X622905Y3073208D1*
X627822Y3080965D1*
X633318Y3088323D1*
X639359Y3095241D1*
X645910Y3101677D1*
X652934Y3107594D1*
X660390Y3112957D1*
X668233Y3117736D1*
X676418Y3121902D1*
X684897Y3125431D1*
X693620Y3128302D1*
X702538Y3130499D1*
X711597Y3132008D1*
X720745Y3132821D1*
X729929Y3132934D1*
X739094Y3132345D1*
X748187Y3131058D1*
X757156Y3129080D1*
X765948Y3126424D1*
X774511Y3123103D1*
X782795Y3119139D1*
X790753Y3114554D1*
X798337Y3109375D1*
X805504Y3103632D1*
X812211Y3097358D1*
X818420Y3090590D1*
X824094Y3083369D1*
X829200Y3075735D1*
X833708Y3067733D1*
X837592Y3059411D1*
X840830Y3050816D1*
X843402Y3042000D1*
X845293Y3033012D1*
X846492Y3023907D1*
X847009Y3012773D1*
X846658Y3003596D1*
X845607Y2994472D1*
X843863Y2985455D1*
X841436Y2976598D1*
X838339Y2967951D1*
X834592Y2959567D1*
X830215Y2951493D1*
X825234Y2943776D1*
X819679Y2936463D1*
X813581Y2929595D1*
X806977Y2923213D1*
X799905Y2917353D1*
X792406Y2912051D1*
X784525Y2907336D1*
X776306Y2903237D1*
X767798Y2899778D1*
X759051Y2896978D1*
X750116Y2894854D1*
X741045Y2893419D1*
X731890Y2892680D1*
X722706Y2892643D1*
X713546Y2893307D1*
X704464Y2894668D1*
X695511Y2896719D1*
X686742Y2899447D1*
X678206Y2902837D1*
X669954Y2906868D1*
X662034Y2911518D1*
X654493Y2916759D1*
X647373Y2922561D1*
X640717Y2928889D1*
X634564Y2935707D1*
X628949Y2942975D1*
X623905Y2950650D1*
X619463Y2958688D1*
X615647Y2967042D1*
X612479Y2975663D1*
X609980Y2984500D1*
X608162Y2993503D1*
X607037Y3002618D1*
X606713Y3009606D1*
Y2220608D1*
X611506Y2224783D1*
X613898Y2226381D1*
X614060Y2231128D1*
X611871Y2240248D1*
X611135Y2249598D1*
X611871Y2258947D1*
X614060Y2268067D1*
X617649Y2276732D1*
X622549Y2284728D1*
X628640Y2291860D1*
X635772Y2297951D1*
X643769Y2302851D1*
X646083Y2303918D1*
X639674Y2307338D1*
X632087Y2312851D1*
X625455Y2319482D1*
X619942Y2327070D1*
X615684Y2335426D1*
X612786Y2344346D1*
X611319Y2353609D1*
Y2362988D1*
X612786Y2372251D1*
X615684Y2381171D1*
X619942Y2389527D1*
X625455Y2397114D1*
X632087Y2403746D1*
X639674Y2409259D1*
X646083Y2412619D1*
X639674Y2416039D1*
X632087Y2421551D1*
X625455Y2428183D1*
X619942Y2435771D1*
X615684Y2444127D1*
X612786Y2453047D1*
X611319Y2462310D1*
Y2471689D1*
X612786Y2480952D1*
X615684Y2489871D1*
X619942Y2498228D1*
X625455Y2505815D1*
X632087Y2512447D1*
X639674Y2517960D1*
X646083Y2521319D1*
X639674Y2524740D1*
X632087Y2530252D1*
X625455Y2536884D1*
X619942Y2544471D1*
X615684Y2552828D1*
X612786Y2561748D1*
X611319Y2571011D1*
Y2580389D1*
X612786Y2589652D1*
X615684Y2598572D1*
X619942Y2606929D1*
X625455Y2614516D1*
X632087Y2621148D1*
X639674Y2626660D1*
X646083Y2630020D1*
X639674Y2633440D1*
X632087Y2638953D1*
X625455Y2645585D1*
X619942Y2653172D1*
X615684Y2661529D1*
X612786Y2670448D1*
X611319Y2679711D1*
Y2689090D1*
X612786Y2698353D1*
X615684Y2707273D1*
X619942Y2715629D1*
X625455Y2723217D1*
X632087Y2729849D1*
X639674Y2735361D1*
X648030Y2739619D1*
X656950Y2742517D1*
X666213Y2743984D1*
X675592D1*
X684855Y2742517D1*
X693775Y2739619D1*
X702131Y2735361D1*
X709719Y2729849D1*
X716350Y2723217D1*
X721863Y2715629D1*
X722947Y2713694D1*
X722946Y2798525D1*
X842481D1*
Y2678990D1*
X817039D1*
X821530Y2675505D1*
X828161Y2668873D1*
X833674Y2661286D1*
X837932Y2652929D1*
X840830Y2644009D1*
X842297Y2634746D1*
Y2625368D1*
X840830Y2616104D1*
X837932Y2607185D1*
X833674Y2598828D1*
X828161Y2591241D1*
X821530Y2584609D1*
X813942Y2579097D1*
X807534Y2575737D1*
X813942Y2572317D1*
X821530Y2566804D1*
X828161Y2560172D1*
X833674Y2552585D1*
X838014Y2544005D1*
X1212854Y2544008D1*
X1208764Y2547148D1*
X1203605Y2552308D1*
X1199316Y2558211D1*
X1196003Y2564712D1*
X1193749Y2571652D1*
X1192607Y2578859D1*
Y2586155D1*
X1193749Y2593362D1*
X1196003Y2600302D1*
X1199316Y2606803D1*
X1203605Y2612706D1*
X1208764Y2617866D1*
X1214668Y2622155D1*
X1221169Y2625467D1*
X1228109Y2627722D1*
X1235315Y2628864D1*
X1242612D1*
X1249819Y2627722D1*
X1256759Y2625467D1*
X1263260Y2622155D1*
X1267718Y2619005D1*
X1329328Y2618895D1*
X1334985Y2617999D1*
X1340432Y2616229D1*
X1345535Y2613628D1*
X1350169Y2610262D1*
X1371023Y2589567D1*
X1374742Y2585212D1*
X1377735Y2580328D1*
X1379927Y2575037D1*
X1381264Y2569468D1*
X1381713Y2563747D1*
Y2486284D1*
X1384861Y2481803D1*
X1388174Y2475302D1*
X1390428Y2468362D1*
X1391570Y2461155D1*
Y2453859D1*
X1390428Y2446652D1*
X1388174Y2439712D1*
X1384861Y2433211D1*
X1380572Y2427308D1*
X1375412Y2422148D1*
X1369509Y2417859D1*
X1363008Y2414547D1*
X1357729Y2412760D1*
X1667593Y2412758D1*
X1669364Y2416111D1*
X1671068Y2423206D1*
X1673860Y2429947D1*
X1677673Y2436168D1*
X1682411Y2441717D1*
X1687960Y2446456D1*
X1694181Y2450268D1*
X1700923Y2453061D1*
X1708018Y2454764D1*
X1715292Y2455336D1*
X1722566Y2454764D1*
X1729661Y2453061D1*
X1736402Y2450268D1*
X1742624Y2446456D1*
X1748172Y2441717D1*
X1752911Y2436168D1*
X1756724Y2429947D1*
X1759516Y2423206D1*
X1761219Y2416111D1*
X1761432Y2414312D1*
X1781725Y2394022D1*
X1935169Y2394007D1*
X1939668Y2397155D1*
X1946169Y2400467D1*
X1953109Y2402722D1*
X1960315Y2403864D1*
X1967612D1*
X1974819Y2402722D1*
X1981759Y2400467D1*
X1983714Y2399566D1*
X1983713Y2542399D1*
X1974594Y2544534D1*
X1967853Y2547326D1*
X1961632Y2551138D1*
X1956083Y2555877D1*
X1951344Y2561426D1*
X1947532Y2567647D1*
X1944740Y2574388D1*
X1943036Y2581484D1*
X1942464Y2588758D1*
X1943036Y2596032D1*
X1944740Y2603127D1*
X1947532Y2609868D1*
X1951344Y2616090D1*
X1956083Y2621638D1*
X1961632Y2626377D1*
X1967853Y2630190D1*
X1974594Y2632982D1*
X1981690Y2634685D1*
X1988964Y2635258D1*
X1996238Y2634685D1*
X2003333Y2632982D1*
X2010074Y2630190D1*
X2016296Y2626377D1*
X2021844Y2621638D1*
X2026583Y2616090D1*
X2028255Y2613588D1*
X2032197Y2618957D1*
X2037356Y2624117D1*
X2043259Y2628406D1*
X2049761Y2631718D1*
X2056700Y2633973D1*
X2063907Y2635114D1*
X2071204D1*
X2078411Y2633973D1*
X2085350Y2631718D1*
X2091852Y2628406D1*
X2097755Y2624117D1*
X2102915Y2618957D1*
X2107203Y2613054D1*
X2110516Y2606553D1*
X2112771Y2599613D1*
X2113912Y2592406D1*
Y2585109D1*
X2112771Y2577903D1*
X2110516Y2570963D1*
X2107203Y2564462D1*
X2104054Y2560003D1*
X2104056Y2519035D1*
X2122824Y2500265D1*
X2141408Y2500258D1*
X2145917Y2503406D1*
X2152418Y2506718D1*
X2159358Y2508973D1*
X2166565Y2510114D1*
X2173861D1*
X2181068Y2508973D1*
X2188008Y2506718D1*
X2194509Y2503406D1*
X2200412Y2499117D1*
X2205572Y2493957D1*
X2209861Y2488054D1*
X2213174Y2481553D1*
X2215428Y2474613D1*
X2216570Y2467406D1*
Y2460109D1*
X2215428Y2452903D1*
X2213174Y2445963D1*
X2209861Y2439462D1*
X2205572Y2433558D1*
X2200412Y2428399D1*
X2194509Y2424110D1*
X2188008Y2420797D1*
X2181068Y2418543D1*
X2173861Y2417401D1*
X2166565D1*
X2159358Y2418543D1*
X2152418Y2420797D1*
X2145917Y2424110D1*
X2141459Y2427260D1*
X2104849Y2427370D1*
X2099192Y2428266D1*
X2093745Y2430036D1*
X2088642Y2432636D1*
X2084008Y2436003D1*
X2056707Y2463145D1*
X2056713Y2273629D1*
X2059861Y2269108D1*
X2063174Y2262606D1*
X2065428Y2255667D1*
X2066570Y2248460D1*
Y2241163D1*
X2065428Y2233956D1*
X2063174Y2227017D1*
X2059861Y2220515D1*
X2055572Y2214612D1*
X2050412Y2209453D1*
X2044509Y2205164D1*
X2038008Y2201851D1*
X2031068Y2199596D1*
X2023861Y2198455D1*
X2016565D1*
X2009358Y2199596D1*
X2002418Y2201851D1*
X1995917Y2205164D1*
X1990014Y2209453D1*
X1984854Y2214612D1*
X1980565Y2220515D1*
X1977253Y2227017D1*
X1974998Y2233956D1*
X1973856Y2241163D1*
Y2248460D1*
X1974998Y2255667D1*
X1977253Y2262606D1*
X1980565Y2269108D1*
X1983715Y2273566D1*
X1983713Y2315396D1*
X1978333Y2313283D1*
X1971238Y2311580D1*
X1963964Y2311007D1*
X1956690Y2311580D1*
X1949594Y2313283D1*
X1942853Y2316075D1*
X1936632Y2319888D1*
X1935209Y2321009D1*
X1763757Y2321119D1*
X1758100Y2322015D1*
X1752653Y2323785D1*
X1747550Y2326386D1*
X1742916Y2329752D1*
X1715311Y2357198D1*
X1706418Y2348503D1*
X1701784Y2345136D1*
X1696681Y2342536D1*
X1691234Y2340766D1*
X1685577Y2339870D1*
X1636781Y2339758D1*
X1542801D1*
X1544586Y2337747D1*
X1660577Y2337645D1*
X1666234Y2336749D1*
X1671681Y2334979D1*
X1676784Y2332379D1*
X1681418Y2329013D1*
X1716001Y2294589D1*
X1879217Y2131213D1*
X1882584Y2126580D1*
X1885184Y2121476D1*
X1886954Y2116029D1*
X1887850Y2110372D1*
X1887963Y2068359D1*
X1893344Y2070482D1*
X1900439Y2072185D1*
X1907713Y2072758D1*
X1914987Y2072185D1*
X1922082Y2070482D1*
X1928824Y2067690D1*
X1935045Y2063877D1*
X1936759Y2062526D1*
X1941234Y2061749D1*
X1946681Y2059979D1*
X1951784Y2057379D1*
X1956418Y2054013D1*
X1991001Y2019588D1*
X2016719Y1993712D1*
X2020085Y1989078D1*
X2022685Y1983975D1*
X2024455Y1978528D1*
X2025351Y1972871D1*
X2025464Y1924075D1*
Y1855070D1*
X2028612Y1850554D1*
X2031924Y1844053D1*
X2034179Y1837113D1*
X2035320Y1829906D1*
Y1822609D1*
X2034179Y1815403D1*
X2031924Y1808463D1*
X2028612Y1801962D1*
X2024323Y1796058D1*
X2019163Y1790899D1*
X2013260Y1786610D1*
X2006759Y1783297D1*
X1999819Y1781043D1*
X1992612Y1779901D1*
X1985315D1*
X1978109Y1781043D1*
X1971169Y1783297D1*
X1964668Y1786610D1*
X1958764Y1790899D1*
X1953605Y1796058D1*
X1949316Y1801962D1*
X1946003Y1808463D1*
X1943749Y1815403D1*
X1942607Y1822609D1*
Y1829906D1*
X1943749Y1837113D1*
X1946003Y1844053D1*
X1949316Y1850554D1*
X1952466Y1855012D1*
X1952464Y1954903D1*
X1924459Y1982893D1*
X1918568Y1981043D1*
X1911361Y1979901D1*
X1904065D1*
X1896858Y1981043D1*
X1889918Y1983297D1*
X1887963Y1984199D1*
X1887850Y1892143D1*
X1886954Y1886486D1*
X1885184Y1881039D1*
X1882584Y1875936D1*
X1879217Y1871302D1*
X1844793Y1836719D1*
X1822642Y1814567D1*
X1821678Y1809152D1*
X1819423Y1802212D1*
X1816110Y1795711D1*
X1812960Y1791253D1*
X1812963Y1528879D1*
X1900647Y1441194D1*
X1906068Y1440224D1*
X1913008Y1437969D1*
X1919509Y1434656D1*
X1925412Y1430367D1*
X1930572Y1425208D1*
X1934861Y1419305D1*
X1938174Y1412803D1*
X1940428Y1405864D1*
X1941570Y1398657D1*
Y1391360D1*
X1940428Y1384153D1*
X1938174Y1377214D1*
X1934861Y1370712D1*
X1930572Y1364809D1*
X1925412Y1359650D1*
X1919509Y1355361D1*
X1913008Y1352048D1*
X1906068Y1349793D1*
X1898861Y1348652D1*
X1891565D1*
X1884358Y1349793D1*
X1877418Y1352048D1*
X1870917Y1355361D1*
X1865014Y1359650D1*
X1859854Y1364809D1*
X1855565Y1370712D1*
X1852253Y1377214D1*
X1849998Y1384153D1*
X1849073Y1389533D1*
X1748708Y1490054D1*
X1745341Y1494688D1*
X1742741Y1499791D1*
X1740971Y1505238D1*
X1740075Y1510895D1*
X1739962Y1559691D1*
Y1791180D1*
X1736815Y1795711D1*
X1733502Y1802212D1*
X1731247Y1809152D1*
X1730106Y1816359D1*
Y1823655D1*
X1731247Y1830862D1*
X1733616Y1838048D1*
X1662968Y1767394D1*
X1663156Y1762971D1*
X1669425Y1756702D1*
X1674637Y1749530D1*
X1678662Y1741630D1*
X1681401Y1733198D1*
X1682788Y1724441D1*
Y1715575D1*
X1681401Y1706819D1*
X1678662Y1698387D1*
X1674637Y1690487D1*
X1669425Y1683315D1*
X1663156Y1677045D1*
X1655984Y1671834D1*
X1648084Y1667809D1*
X1639652Y1665069D1*
X1630895Y1663683D1*
X1625475Y1663547D1*
X1625464Y1191355D1*
X1666561Y1150278D1*
X2265620Y1150258D1*
X2260441Y1152047D1*
X2253939Y1155359D1*
X2249481Y1158509D1*
X2104849Y1158620D1*
X2099192Y1159516D1*
X2093745Y1161285D1*
X2088642Y1163886D1*
X2084008Y1167252D1*
X2049425Y1201676D1*
X2042458Y1208802D1*
X2039092Y1213436D1*
X2036491Y1218539D1*
X2034722Y1223986D1*
X2033826Y1229643D1*
X2033713Y1278439D1*
X2033826Y1741620D1*
X2034722Y1747277D1*
X2036491Y1752724D1*
X2039092Y1757828D1*
X2042458Y1762461D1*
X2076882Y1797045D1*
X2302482Y2022644D1*
X2302464Y2203686D1*
X2299316Y2208211D1*
X2296003Y2214712D1*
X2293749Y2221652D1*
X2292607Y2228859D1*
Y2236155D1*
X2293749Y2243362D1*
X2296003Y2250302D1*
X2299316Y2256803D1*
X2303605Y2262706D1*
X2308764Y2267866D1*
X2314668Y2272155D1*
X2321169Y2275467D1*
X2328109Y2277722D1*
X2335315Y2278864D1*
X2342612D1*
X2349819Y2277722D1*
X2356759Y2275467D1*
X2363260Y2272155D1*
X2369163Y2267866D1*
X2374323Y2262706D1*
X2378612Y2256803D1*
X2381924Y2250302D1*
X2384179Y2243362D1*
X2385320Y2236155D1*
Y2228859D1*
X2384179Y2221652D1*
X2381924Y2214712D1*
X2378612Y2208211D1*
X2375462Y2203753D1*
X2375351Y2004643D1*
X2374455Y1998986D1*
X2372685Y1993539D1*
X2370085Y1988436D1*
X2366719Y1983802D1*
X2332295Y1949219D1*
X2248586Y1865510D1*
X2253332Y1864231D1*
X2260073Y1861439D1*
X2266294Y1857626D1*
X2267717Y1856505D1*
X2585137Y1856507D1*
X2589666Y1859655D1*
X2596168Y1862967D1*
X2603107Y1865222D1*
X2610314Y1866364D1*
X2617611D1*
X2623013Y1865581D1*
X2404958Y2083802D1*
X2401592Y2088436D1*
X2398991Y2093539D1*
X2397222Y2098986D1*
X2396326Y2104643D1*
X2396213Y2153439D1*
Y2306485D1*
X2391324Y2303575D1*
X2384582Y2300783D1*
X2377487Y2299080D1*
X2370213Y2298507D1*
X2362939Y2299080D1*
X2355844Y2300783D1*
X2349103Y2303575D1*
X2342881Y2307388D1*
X2337333Y2312127D1*
X2332594Y2317675D1*
X2328781Y2323897D1*
X2325989Y2330638D1*
X2324286Y2337733D1*
X2323713Y2345007D1*
X2324286Y2352281D1*
X2325989Y2359376D1*
X2328781Y2366118D1*
X2332594Y2372339D1*
X2333715Y2373762D1*
X2333503Y2720963D1*
X2331249Y2727903D1*
X2330107Y2735109D1*
Y2742406D1*
X2331249Y2749613D1*
X2333503Y2756553D1*
X2336816Y2763054D1*
X2341105Y2768957D1*
X2346264Y2774117D1*
X2352168Y2778406D1*
X2358669Y2781718D1*
X2365609Y2783973D1*
X2372815Y2785114D1*
X2380112D1*
X2387319Y2783973D1*
X2394259Y2781718D1*
X2400760Y2778406D1*
X2406663Y2774117D1*
X2411823Y2768957D1*
X2412485Y2768117D1*
X2418344Y2770482D1*
X2425439Y2772185D1*
X2432713Y2772758D1*
X2439987Y2772185D1*
X2447082Y2770482D1*
X2453824Y2767690D1*
X2460045Y2763877D1*
X2465594Y2759138D1*
X2470332Y2753590D1*
X2474145Y2747368D1*
X2476937Y2740627D1*
X2478641Y2733532D1*
X2479213Y2726258D1*
X2478641Y2718984D1*
X2476937Y2711888D1*
X2474145Y2705147D1*
X2470332Y2698926D1*
X2469211Y2697503D1*
X2469213Y2650291D1*
X2503889Y2650258D1*
X2508417Y2653406D1*
X2514918Y2656718D1*
X2521858Y2658973D1*
X2529065Y2660114D1*
X2536361D1*
X2543568Y2658973D1*
X2550508Y2656718D1*
X2557009Y2653406D1*
X2562912Y2649117D1*
X2568072Y2643957D1*
X2572361Y2638054D1*
X2575674Y2631553D1*
X2577928Y2624613D1*
X2579070Y2617406D1*
Y2610109D1*
X2577928Y2602903D1*
X2575674Y2595963D1*
X2572361Y2589462D1*
X2568072Y2583558D1*
X2566184Y2581516D1*
X2773857Y2581509D1*
X2777441Y2585103D1*
X2777464Y2657959D1*
X2774998Y2665403D1*
X2773856Y2672609D1*
Y2679906D1*
X2774998Y2687113D1*
X2777253Y2694053D1*
X2780565Y2700554D1*
X2784854Y2706457D1*
X2790014Y2711617D1*
X2795917Y2715906D1*
X2802418Y2719218D1*
X2809358Y2721473D1*
X2816565Y2722614D1*
X2823861D1*
X2831068Y2721473D1*
X2838008Y2719218D1*
X2844509Y2715906D1*
X2850412Y2711617D1*
X2855524Y2706509D1*
X2957117Y2706508D1*
X2942458Y2721302D1*
X2939092Y2725936D1*
X2936492Y2731039D1*
X2934722Y2736486D1*
X2933826Y2742143D1*
X2933713Y2790939D1*
Y2934942D1*
X2930565Y2939462D1*
X2927253Y2945963D1*
X2924998Y2952903D1*
X2923856Y2960109D1*
Y2967406D1*
X2924998Y2974613D1*
X2927253Y2981553D1*
X2930565Y2988054D1*
X2934854Y2993957D1*
X2940014Y2999117D1*
X2945917Y3003406D1*
X2952418Y3006718D1*
X2959358Y3008973D1*
X2966565Y3010114D1*
X2973861D1*
X2981068Y3008973D1*
X2988008Y3006718D1*
X2994509Y3003406D1*
X3000412Y2999117D1*
X3005572Y2993957D1*
X3009861Y2988054D1*
X3013174Y2981553D1*
X3015428Y2974613D1*
X3016570Y2967406D1*
Y2960109D1*
X3015428Y2952903D1*
X3013174Y2945963D1*
X3009861Y2939462D1*
X3006711Y2935003D1*
X3006713Y2818319D1*
X3012193Y2820482D1*
X3019288Y2822185D1*
X3026562Y2822758D1*
X3033836Y2822185D1*
X3040931Y2820482D1*
X3045562Y2818663D1*
X3047705Y2822691D1*
X3051071Y2827325D1*
X3088154Y2864567D1*
X3092510Y2868287D1*
X3097393Y2871280D1*
X3102685Y2873471D1*
X3108254Y2874808D1*
X3113964Y2875258D1*
X3702429D1*
X3702464Y2898651D1*
X3661975Y2939128D1*
X3653317Y2939154D1*
X3644634Y2940529D1*
X3636272Y2943246D1*
X3628439Y2947237D1*
X3621326Y2952405D1*
X3615109Y2958621D1*
X3609942Y2965734D1*
X3605950Y2973568D1*
X3603234Y2981929D1*
X3601858Y2990613D1*
Y2999404D1*
X3603234Y3008088D1*
X3605950Y3016449D1*
X3609942Y3024283D1*
X3615109Y3031395D1*
X3621326Y3037612D1*
X3628439Y3042780D1*
X3636272Y3046771D1*
X3644634Y3049488D1*
X3653317Y3050863D1*
X3662109D1*
X3670792Y3049488D1*
X3679154Y3046771D1*
X3686987Y3042780D1*
X3694100Y3037612D1*
X3700317Y3031395D1*
X3705484Y3024283D1*
X3709476Y3016449D1*
X3712193Y3008088D1*
X3713568Y2999404D1*
X3713574Y2990767D1*
X3759670Y2944671D1*
X3764909Y2951805D1*
X3771134Y2958553D1*
X3778095Y2964539D1*
X3785699Y2969685D1*
X3793845Y2973922D1*
X3802423Y2977193D1*
X3811322Y2979455D1*
X3820421Y2980678D1*
X3829601Y2980846D1*
X3838739Y2979956D1*
X3847714Y2978020D1*
X3855264Y2975513D1*
X3852843Y2983583D1*
X3851683Y2989414D1*
X3850985Y2995317D1*
X3850751Y3001258D1*
X3850985Y3007198D1*
X3851683Y3013102D1*
X3852843Y3018932D1*
X3855333Y3027029D1*
X3846631Y3024204D1*
X3837629Y3022395D1*
X3828480Y3021634D1*
X3819303Y3021931D1*
X3810222Y3023282D1*
X3801356Y3025669D1*
X3792825Y3029060D1*
X3784740Y3033411D1*
X3777209Y3038663D1*
X3770333Y3044748D1*
X3764203Y3051582D1*
X3758900Y3059077D1*
X3754495Y3067133D1*
X3751046Y3075642D1*
X3748599Y3084491D1*
X3747187Y3093563D1*
X3746828Y3102737D1*
X3747527Y3111892D1*
X3749275Y3120905D1*
X3752049Y3129657D1*
X3755812Y3138032D1*
X3760513Y3145918D1*
X3766091Y3153211D1*
X3772471Y3159814D1*
X3779568Y3165638D1*
X3787288Y3170607D1*
X3795529Y3174655D1*
X3804181Y3177727D1*
X3813129Y3179783D1*
X3822254Y3180796D1*
X3831436Y3180752D1*
X3840551Y3179652D1*
X3849479Y3177510D1*
X3858101Y3174355D1*
X3866302Y3170228D1*
X3873975Y3165186D1*
X3881016Y3159293D1*
X3887332Y3152630D1*
X3892840Y3145284D1*
X3897465Y3137353D1*
X3901147Y3128942D1*
X3903837Y3120164D1*
X3905499Y3111134D1*
X3906110Y3101973D1*
X3905775Y3093919D1*
X3904403Y3084841D1*
X3901996Y3075981D1*
X3900726Y3072464D1*
X3908789Y3074878D1*
X3914620Y3076038D1*
X3920523Y3076737D1*
X3926464Y3076970D1*
X3932404Y3076737D1*
X3938308Y3076038D1*
X3944139Y3074878D1*
X3952235Y3072389D1*
X3949455Y3080918D1*
X3947626Y3089915D1*
X3946844Y3099063D1*
X3947121Y3108240D1*
X3948451Y3117324D1*
X3950819Y3126195D1*
X3954191Y3134735D1*
X3958524Y3142829D1*
X3963759Y3150372D1*
X3969828Y3157261D1*
X3976649Y3163407D1*
X3984132Y3168727D1*
X3992177Y3173150D1*
X4000678Y3176618D1*
X4009522Y3179085D1*
X4018591Y3180517D1*
X4027764Y3180897D1*
X4036920Y3180218D1*
X4045938Y3178490D1*
X4054696Y3175736D1*
X4063079Y3171992D1*
X4070976Y3167309D1*
X4078281Y3161747D1*
X4084898Y3155382D1*
X4090739Y3148298D1*
X4095725Y3140589D1*
X4099791Y3132357D1*
X4102883Y3123712D1*
X4104959Y3114769D1*
X4105992Y3105646D1*
X4106029Y3097585D1*
X4105077Y3088453D1*
X4103081Y3079491D1*
X4100068Y3070818D1*
X4096076Y3062550D1*
X4091159Y3054797D1*
X4085382Y3047660D1*
X4078823Y3041236D1*
X4071568Y3035610D1*
X4063713Y3030855D1*
X4055364Y3027036D1*
X4046631Y3024204D1*
X4037629Y3022395D1*
X4028480Y3021634D1*
X4019303Y3021931D1*
X4010222Y3023282D1*
X4001356Y3025669D1*
X3997664Y3027000D1*
X4000084Y3018932D1*
X4001244Y3013102D1*
X4001943Y3007198D1*
X4002176Y3001258D1*
X4001943Y2995317D1*
X4001244Y2989414D1*
X4000084Y2983583D1*
X3997595Y2975486D1*
X4005951Y2978221D1*
X4014944Y2980070D1*
X4024090Y2980872D1*
X4033268Y2980616D1*
X4042355Y2979306D1*
X4051231Y2976959D1*
X4059778Y2973606D1*
X4067883Y2969291D1*
X4075437Y2964073D1*
X4082340Y2958020D1*
X4088501Y2951212D1*
X4093837Y2943741D1*
X4098279Y2935706D1*
X4101766Y2927212D1*
X4104252Y2918374D1*
X4105705Y2909309D1*
X4106113Y2901258D1*
X4105584Y2892092D1*
X4104004Y2883048D1*
X4101393Y2874245D1*
X4097787Y2865802D1*
X4093233Y2857830D1*
X4087791Y2850435D1*
X4081535Y2843715D1*
X4074547Y2837759D1*
X4066921Y2832648D1*
X4058756Y2828448D1*
X4050163Y2825216D1*
X4041255Y2822993D1*
X4032150Y2821811D1*
X4022969Y2821685D1*
X4013835Y2822616D1*
X4004869Y2824591D1*
X3996190Y2827586D1*
X3987913Y2831559D1*
X3980148Y2836459D1*
X3972999Y2842219D1*
X3966560Y2848764D1*
X3960917Y2856006D1*
X3956145Y2863850D1*
X3952307Y2872191D1*
X3949455Y2880918D1*
X3947626Y2889915D1*
X3946844Y2899063D1*
X3947121Y2908240D1*
X3948451Y2917324D1*
X3950819Y2926195D1*
X3952205Y2930051D1*
X3944139Y2927637D1*
X3938308Y2926477D1*
X3932404Y2925779D1*
X3926464Y2925545D1*
X3920523Y2925779D1*
X3914620Y2926477D1*
X3908789Y2927637D1*
X3900693Y2930127D1*
X3903380Y2921944D1*
X3905250Y2912955D1*
X3906072Y2903810D1*
X3905923Y2895750D1*
X3904761Y2886643D1*
X3902559Y2877730D1*
X3899346Y2869129D1*
X3895164Y2860955D1*
X3890070Y2853317D1*
X3884130Y2846316D1*
X3877425Y2840045D1*
X3870042Y2834587D1*
X3862080Y2830015D1*
X3853644Y2826389D1*
X3844848Y2823759D1*
X3835807Y2822158D1*
X3826643Y2821608D1*
X3817476Y2822117D1*
X3808428Y2823677D1*
X3799620Y2826268D1*
X3791168Y2829855D1*
X3783186Y2834392D1*
X3775779Y2839816D1*
X3775466Y2840080D1*
X3775464Y2731646D1*
X3781478Y2737241D1*
X3788836Y2742732D1*
X3796778Y2747340D1*
X3805196Y2751003D1*
X3813981Y2753673D1*
X3823014Y2755315D1*
X3832176Y2755906D1*
X3841346Y2755438D1*
X3850400Y2753919D1*
X3859220Y2751367D1*
X3867687Y2747818D1*
X3875690Y2743318D1*
X3883122Y2737926D1*
X3889884Y2731716D1*
X3895886Y2724768D1*
X3901049Y2717176D1*
X3905304Y2709040D1*
X3908594Y2700469D1*
X3910876Y2691576D1*
X3912119Y2682479D1*
X3912342Y2674421D1*
X3911601Y2665269D1*
X3909812Y2656264D1*
X3906975Y2647464D1*
X3915038Y2649878D1*
X3920869Y2651038D1*
X3926773Y2651737D1*
X3932713Y2651970D1*
X3938653Y2651737D1*
X3944557Y2651038D1*
X3950388Y2649878D1*
X3958484Y2647389D1*
X3955704Y2655918D1*
X3953875Y2664915D1*
X3953094Y2674063D1*
X3953370Y2683240D1*
X3954701Y2692324D1*
X3957068Y2701195D1*
X3960440Y2709735D1*
X3964773Y2717829D1*
X3970008Y2725372D1*
X3976077Y2732261D1*
X3982898Y2738407D1*
X3990381Y2743727D1*
X3998427Y2748150D1*
X4006928Y2751618D1*
X4015771Y2754085D1*
X4024840Y2755517D1*
X4034014Y2755897D1*
X4043170Y2755218D1*
X4052187Y2753490D1*
X4060945Y2750736D1*
X4069329Y2746992D1*
X4077225Y2742309D1*
X4084531Y2736747D1*
X4091148Y2730382D1*
X4096988Y2723298D1*
X4101974Y2715589D1*
X4106040Y2707357D1*
X4107713Y2703057D1*
X4107538Y3735829D1*
X4106620Y3726690D1*
X4105094Y3717633D1*
X4102968Y3708698D1*
X4100251Y3699925D1*
X4096954Y3691352D1*
X4093093Y3683018D1*
X4088685Y3674960D1*
X4083749Y3667215D1*
X4078308Y3659815D1*
X4072385Y3652796D1*
X4066008Y3646186D1*
X4059203Y3640017D1*
X4052002Y3634316D1*
X4044438Y3629107D1*
X4036542Y3624415D1*
X4028351Y3620259D1*
X4019901Y3616660D1*
X4011230Y3613631D1*
X4002377Y3611188D1*
X3993380Y3609341D1*
X3984279Y3608098D1*
X3975117Y3607465D1*
X3965932Y3607444D1*
X3956766Y3608036D1*
X3947661Y3609237D1*
X3938656Y3611044D1*
X3929791Y3613447D1*
X3921106Y3616436D1*
X3912640Y3619998D1*
X3904431Y3624116D1*
X3896514Y3628773D1*
X3888925Y3633947D1*
X3881699Y3639616D1*
X3874867Y3645754D1*
X3868459Y3652334D1*
X3862505Y3659327D1*
X3857030Y3666702D1*
X3852059Y3674425D1*
X3847615Y3682463D1*
X3843716Y3690779D1*
X3840381Y3699337D1*
X3837624Y3708098D1*
X3835457Y3717023D1*
X3833891Y3726073D1*
X3832931Y3735208D1*
X3832583Y3744386D1*
X3832848Y3753566D1*
X3833725Y3762709D1*
X3835209Y3771773D1*
X3837295Y3780718D1*
X3839973Y3789503D1*
X3843230Y3798091D1*
X3847054Y3806442D1*
X3851425Y3814520D1*
X3856326Y3822288D1*
X3861734Y3829711D1*
X3867625Y3836758D1*
X3873973Y3843396D1*
X3880749Y3849596D1*
X3887924Y3855330D1*
X3895465Y3860573D1*
X3903339Y3865301D1*
X3911511Y3869493D1*
X3919945Y3873131D1*
X3928602Y3876199D1*
X3937445Y3878682D1*
X3946433Y3880570D1*
X3955527Y3881854D1*
X3964687Y3882529D1*
X3973872Y3882591D1*
X3983040Y3882041D1*
X3992151Y3880880D1*
X4001164Y3879114D1*
X4010040Y3876751D1*
X4018738Y3873802D1*
X4027220Y3870278D1*
X4035448Y3866197D1*
X4043386Y3861577D1*
X4050997Y3856437D1*
X4058249Y3850801D1*
X4065109Y3844693D1*
X4071547Y3838142D1*
X4077533Y3831176D1*
X4083041Y3823826D1*
X4088047Y3816126D1*
X4092527Y3808108D1*
X4096464Y3799810D1*
X4099838Y3791267D1*
X4102634Y3782519D1*
X4104841Y3773603D1*
X4106449Y3764560D1*
X4107449Y3755430D1*
X4107714Y3752094D1*
Y3882533D1*
X2622486Y3885014D1*
X2629662Y3879285D1*
X2636130Y3872769D1*
X2641805Y3865553D1*
X2646612Y3857730D1*
X2650488Y3849407D1*
X2653379Y3840693D1*
X2655249Y3831704D1*
X2656071Y3822560D1*
X2655921Y3814500D1*
X2654760Y3805392D1*
X2652558Y3796479D1*
X2649345Y3787878D1*
X2645163Y3779705D1*
X2640069Y3772066D1*
X2634129Y3765065D1*
X2627423Y3758794D1*
X2620040Y3753336D1*
X2612078Y3748764D1*
X2603643Y3745139D1*
X2594847Y3742508D1*
X2585806Y3740907D1*
X2576641Y3740358D1*
X2567474Y3740866D1*
X2558426Y3742426D1*
X2549618Y3745017D1*
X2547663Y3745749D1*
X2550083Y3737682D1*
X2551243Y3731851D1*
X2551942Y3725947D1*
X2552175Y3720007D1*
X2551942Y3714067D1*
X2551243Y3708163D1*
X2550083Y3702332D1*
X2547593Y3694236D1*
X2555950Y3696970D1*
X2564943Y3698819D1*
X2574089Y3699621D1*
X2583266Y3699366D1*
X2592354Y3698055D1*
X2601230Y3695708D1*
X2609777Y3692355D1*
X2617881Y3688040D1*
X2625435Y3682822D1*
X2632339Y3676769D1*
X2638500Y3669962D1*
X2643836Y3662491D1*
X2648277Y3654455D1*
X2651765Y3645962D1*
X2654251Y3637124D1*
X2655704Y3628058D1*
X2656112Y3620007D1*
X2655583Y3610841D1*
X2654002Y3601797D1*
X2651392Y3592995D1*
X2647785Y3584551D1*
X2643231Y3576579D1*
X2637790Y3569184D1*
X2631534Y3562464D1*
X2624546Y3556509D1*
X2616919Y3551397D1*
X2608755Y3547197D1*
X2600162Y3543965D1*
X2591253Y3541743D1*
X2582148Y3540561D1*
X2572968Y3540434D1*
X2563834Y3541365D1*
X2554868Y3543341D1*
X2546189Y3546335D1*
X2537912Y3550308D1*
X2530147Y3555208D1*
X2522998Y3560968D1*
X2516559Y3567513D1*
X2510916Y3574756D1*
X2506144Y3582599D1*
X2502306Y3590940D1*
X2499454Y3599667D1*
X2497625Y3608664D1*
X2496843Y3617812D1*
X2497119Y3626989D1*
X2498450Y3636074D1*
X2500817Y3644945D1*
X2502203Y3648800D1*
X2494137Y3646386D1*
X2488307Y3645227D1*
X2482403Y3644528D1*
X2476462Y3644294D1*
X2470522Y3644528D1*
X2464618Y3645227D1*
X2458788Y3646386D1*
X2450691Y3648876D1*
X2453379Y3640693D1*
X2455249Y3631704D1*
X2456071Y3622560D1*
X2455921Y3614500D1*
X2454760Y3605392D1*
X2452558Y3596479D1*
X2449345Y3587878D1*
X2445163Y3579705D1*
X2440069Y3572066D1*
X2434129Y3565065D1*
X2427423Y3558794D1*
X2420040Y3553336D1*
X2412078Y3548764D1*
X2403643Y3545139D1*
X2394847Y3542508D1*
X2385806Y3540907D1*
X2376641Y3540358D1*
X2367474Y3540866D1*
X2358426Y3542426D1*
X2349618Y3545017D1*
X2341167Y3548605D1*
X2333185Y3553141D1*
X2325777Y3558566D1*
X2319043Y3564807D1*
X2313072Y3571781D1*
X2307944Y3579396D1*
X2303725Y3587551D1*
X2300474Y3596137D1*
X2298232Y3605041D1*
X2297029Y3614143D1*
X2296882Y3623323D1*
X2297792Y3632459D1*
X2299748Y3641429D1*
X2302723Y3650115D1*
X2306677Y3658401D1*
X2311559Y3666177D1*
X2317304Y3673339D1*
X2323834Y3679793D1*
X2331064Y3685452D1*
X2338897Y3690242D1*
X2347229Y3694098D1*
X2355950Y3696970D1*
X2364943Y3698819D1*
X2374089Y3699621D1*
X2383266Y3699366D1*
X2392354Y3698055D1*
X2401230Y3695708D1*
X2405263Y3694262D1*
X2402842Y3702332D1*
X2401682Y3708163D1*
X2400983Y3714067D1*
X2400750Y3720007D1*
X2400983Y3725947D1*
X2401682Y3731851D1*
X2402842Y3737682D1*
X2405332Y3745778D1*
X2396629Y3742953D1*
X2387628Y3741144D1*
X2378478Y3740383D1*
X2369302Y3740680D1*
X2360221Y3742031D1*
X2351355Y3744418D1*
X2342823Y3747810D1*
X2334738Y3752161D1*
X2327208Y3757413D1*
X2320332Y3763497D1*
X2314202Y3770332D1*
X2308899Y3777827D1*
X2304493Y3785882D1*
X2301044Y3794391D1*
X2298598Y3803240D1*
X2297185Y3812312D1*
X2296827Y3821486D1*
X2297526Y3830641D1*
X2299274Y3839654D1*
X2302048Y3848407D1*
X2305810Y3856781D1*
X2310512Y3864668D1*
X2316089Y3871960D1*
X2322469Y3878563D1*
X2329567Y3884387D1*
X2331213Y3885553D1*
X2108636Y3885928D1*
X2115780Y3880497D1*
X2122397Y3874132D1*
X2128237Y3867048D1*
X2133224Y3859338D1*
X2137290Y3851106D1*
X2140381Y3842461D1*
X2142458Y3833518D1*
X2143491Y3824395D1*
X2143527Y3816334D1*
X2142576Y3807202D1*
X2140580Y3798240D1*
X2137566Y3789568D1*
X2133574Y3781300D1*
X2128657Y3773546D1*
X2122881Y3766410D1*
X2116322Y3759986D1*
X2109066Y3754359D1*
X2101212Y3749604D1*
X2092863Y3745786D1*
X2084129Y3742953D1*
X2075128Y3741144D1*
X2065978Y3740383D1*
X2056802Y3740680D1*
X2047721Y3742031D1*
X2038855Y3744418D1*
X2035163Y3745749D1*
X2037583Y3737682D1*
X2038743Y3731851D1*
X2039442Y3725947D1*
X2039675Y3720007D1*
X2039442Y3714067D1*
X2038743Y3708163D1*
X2037583Y3702332D1*
X2035093Y3694236D1*
X2043450Y3696970D1*
X2052443Y3698819D1*
X2061589Y3699621D1*
X2070766Y3699366D1*
X2079854Y3698055D1*
X2088730Y3695708D1*
X2097277Y3692355D1*
X2105381Y3688040D1*
X2112935Y3682822D1*
X2119839Y3676769D1*
X2126000Y3669962D1*
X2131336Y3662491D1*
X2135777Y3654455D1*
X2139265Y3645962D1*
X2141751Y3637124D1*
X2143204Y3628058D1*
X2143612Y3620007D1*
X2143083Y3610841D1*
X2141502Y3601797D1*
X2138892Y3592995D1*
X2135285Y3584551D1*
X2130731Y3576579D1*
X2125290Y3569184D1*
X2119034Y3562464D1*
X2112046Y3556509D1*
X2104419Y3551397D1*
X2096255Y3547197D1*
X2087662Y3543965D1*
X2078753Y3541743D1*
X2069648Y3540561D1*
X2060468Y3540434D1*
X2051334Y3541365D1*
X2042368Y3543341D1*
X2033689Y3546335D1*
X2025412Y3550308D1*
X2017647Y3555208D1*
X2010498Y3560968D1*
X2004059Y3567513D1*
X1998416Y3574756D1*
X1993644Y3582599D1*
X1989806Y3590940D1*
X1986954Y3599667D1*
X1985125Y3608664D1*
X1984343Y3617812D1*
X1984619Y3626989D1*
X1985950Y3636074D1*
X1988317Y3644945D1*
X1989703Y3648800D1*
X1981637Y3646386D1*
X1975807Y3645227D1*
X1969903Y3644528D1*
X1963962Y3644294D1*
X1958022Y3644528D1*
X1952118Y3645227D1*
X1946288Y3646386D1*
X1938191Y3648876D1*
X1940879Y3640693D1*
X1942749Y3631704D1*
X1943571Y3622560D1*
X1943421Y3614500D1*
X1942260Y3605392D1*
X1940058Y3596479D1*
X1936845Y3587878D1*
X1932663Y3579705D1*
X1927569Y3572066D1*
X1921629Y3565065D1*
X1914923Y3558794D1*
X1907540Y3553336D1*
X1899578Y3548764D1*
X1891143Y3545139D1*
X1882347Y3542508D1*
X1873306Y3540907D1*
X1864141Y3540358D1*
X1854974Y3540866D1*
X1845926Y3542426D1*
X1837118Y3545017D1*
X1828667Y3548605D1*
X1820685Y3553141D1*
X1813277Y3558566D1*
X1806543Y3564807D1*
X1800572Y3571781D1*
X1795444Y3579396D1*
X1791225Y3587551D1*
X1787974Y3596137D1*
X1785732Y3605041D1*
X1784529Y3614143D1*
X1784382Y3623323D1*
X1785292Y3632459D1*
X1787248Y3641429D1*
X1790223Y3650115D1*
X1794177Y3658401D1*
X1799059Y3666177D1*
X1804804Y3673339D1*
X1811334Y3679793D1*
X1818564Y3685452D1*
X1826397Y3690242D1*
X1834729Y3694098D1*
X1843450Y3696970D1*
X1852443Y3698819D1*
X1861589Y3699621D1*
X1870766Y3699366D1*
X1879854Y3698055D1*
X1888730Y3695708D1*
X1892763Y3694262D1*
X1890342Y3702332D1*
X1889182Y3708163D1*
X1888483Y3714067D1*
X1888250Y3720007D1*
X1888483Y3725947D1*
X1889182Y3731851D1*
X1890342Y3737682D1*
X1892832Y3745778D1*
X1884129Y3742953D1*
X1875128Y3741144D1*
X1865978Y3740383D1*
X1856802Y3740680D1*
X1847721Y3742031D1*
X1838855Y3744418D1*
X1830323Y3747810D1*
X1822238Y3752161D1*
X1814708Y3757413D1*
X1807832Y3763497D1*
X1801702Y3770332D1*
X1796399Y3777827D1*
X1791993Y3785882D1*
X1788544Y3794391D1*
X1786098Y3803240D1*
X1784685Y3812312D1*
X1784327Y3821486D1*
X1785026Y3830641D1*
X1786774Y3839654D1*
X1789548Y3848407D1*
X1793310Y3856781D1*
X1798012Y3864668D1*
X1803589Y3871960D1*
X1809969Y3878563D1*
X1817067Y3884387D1*
X1819996Y3886421D1*
X457678Y3888734D1*
X451486Y451297D1*
X4107700Y457487D1*
X4107714Y589011D1*
X1989702Y3791215D2*
X1986954Y3799667D1*
X1985125Y3808664D1*
X1984343Y3817812D1*
X1984619Y3826989D1*
X1985950Y3836074D1*
X1988317Y3844945D1*
X1991690Y3853484D1*
X1996022Y3861579D1*
X2001258Y3869121D1*
X2007326Y3876011D1*
X2014147Y3882156D1*
X2019485Y3886075D1*
X1908475Y3886058D1*
X1915780Y3880497D1*
X1922397Y3874132D1*
X1928237Y3867048D1*
X1933224Y3859338D1*
X1937290Y3851106D1*
X1940381Y3842461D1*
X1942458Y3833518D1*
X1943491Y3824395D1*
X1943527Y3816334D1*
X1942576Y3807202D1*
X1940580Y3798240D1*
X1938225Y3791214D1*
X1946288Y3793628D1*
X1952118Y3794788D1*
X1958022Y3795486D1*
X1963962Y3795720D1*
X1969903Y3795486D1*
X1975807Y3794788D1*
X1981637Y3793628D1*
X1989734Y3791138D1*
X3861513Y2601998D2*
X3852880Y2599204D1*
X3843879Y2597395D1*
X3834729Y2596634D1*
X3825553Y2596931D1*
X3816471Y2598282D1*
X3807606Y2600669D1*
X3799074Y2604060D1*
X3790989Y2608411D1*
X3783459Y2613663D1*
X3776582Y2619748D1*
X3775460Y2620888D1*
X3775464Y2531627D1*
X3781478Y2537241D1*
X3788836Y2542732D1*
X3796778Y2547340D1*
X3805196Y2551003D1*
X3813981Y2553673D1*
X3823014Y2555315D1*
X3832176Y2555906D1*
X3841346Y2555438D1*
X3850400Y2553919D1*
X3859220Y2551367D1*
X3861513Y2550513D1*
X3859092Y2558583D1*
X3857933Y2564414D1*
X3857234Y2570317D1*
X3857001Y2576258D1*
X3857234Y2582198D1*
X3857933Y2588102D1*
X3859092Y2593932D1*
X3861582Y2602029D1*
X4003916Y2550515D2*
X4012200Y2553221D1*
X4021193Y2555070D1*
X4030339Y2555872D1*
X4039517Y2555616D1*
X4048604Y2554306D1*
X4057481Y2551959D1*
X4066028Y2548606D1*
X4074132Y2544291D1*
X4081686Y2539073D1*
X4088589Y2533020D1*
X4094750Y2526212D1*
X4100087Y2518741D1*
X4104528Y2510706D1*
X4107713Y2503057D1*
X4107642Y2649245D1*
X4104036Y2640802D1*
X4099482Y2632830D1*
X4094041Y2625435D1*
X4087785Y2618715D1*
X4080797Y2612759D1*
X4073170Y2607648D1*
X4065006Y2603448D1*
X4056412Y2600216D1*
X4047504Y2597993D1*
X4038399Y2596811D1*
X4029219Y2596685D1*
X4020085Y2597616D1*
X4011119Y2599591D1*
X4003913Y2602000D1*
X4006334Y2593932D1*
X4007494Y2588102D1*
X4008192Y2582198D1*
X4008426Y2576258D1*
X4008192Y2570317D1*
X4007494Y2564414D1*
X4006334Y2558583D1*
X4003844Y2550486D1*
X2502202Y3791215D2*
X2499454Y3799667D1*
X2497625Y3808664D1*
X2496843Y3817812D1*
X2497119Y3826989D1*
X2498450Y3836074D1*
X2500817Y3844945D1*
X2504190Y3853484D1*
X2508522Y3861579D1*
X2513758Y3869121D1*
X2519826Y3876011D1*
X2526647Y3882156D1*
X2530719Y3885207D1*
X2421976Y3885395D1*
X2429662Y3879285D1*
X2436130Y3872769D1*
X2441805Y3865553D1*
X2446612Y3857730D1*
X2450488Y3849407D1*
X2453379Y3840693D1*
X2455249Y3831704D1*
X2456071Y3822560D1*
X2455921Y3814500D1*
X2454760Y3805392D1*
X2452558Y3796479D1*
X2450725Y3791214D1*
X2458788Y3793628D1*
X2464618Y3794788D1*
X2470522Y3795486D1*
X2476462Y3795720D1*
X2482403Y3795486D1*
X2488307Y3794788D1*
X2494137Y3793628D1*
X2502234Y3791138D1*
X748429Y2678990D2*
X730415D1*
X729019Y2670448D1*
X726121Y2661529D1*
X721863Y2653172D1*
X716350Y2645585D1*
X709719Y2638953D1*
X702131Y2633440D1*
X695722Y2630081D1*
X702131Y2626660D1*
X709719Y2621148D1*
X716350Y2614516D1*
X721863Y2606929D1*
X726121Y2598572D1*
X729019Y2589652D1*
X730486Y2580389D1*
Y2571011D1*
X729019Y2561748D1*
X726121Y2552828D1*
X721863Y2544471D1*
X716350Y2536884D1*
X709719Y2530252D1*
X702131Y2524740D1*
X695722Y2521380D1*
X702131Y2517960D1*
X709719Y2512447D1*
X716350Y2505815D1*
X721863Y2498228D1*
X726121Y2489871D1*
X729019Y2480952D1*
X730486Y2471689D1*
Y2462310D1*
X729019Y2453047D1*
X726121Y2444127D1*
X721863Y2435771D1*
X716350Y2428183D1*
X709719Y2421551D1*
X702131Y2416039D1*
X695722Y2412679D1*
X702131Y2409259D1*
X709719Y2403746D1*
X716350Y2397114D1*
X721863Y2389527D1*
X726121Y2381171D1*
X729019Y2372251D1*
X730486Y2362988D1*
Y2353609D1*
X729019Y2344346D1*
X726121Y2335426D1*
X721863Y2327070D1*
X716350Y2319482D1*
X709719Y2312851D1*
X702131Y2307338D1*
X695722Y2303978D1*
X702131Y2300558D1*
X709719Y2295045D1*
X716350Y2288414D1*
X721863Y2280826D1*
X726121Y2272470D1*
X729019Y2263550D1*
X730486Y2254287D1*
Y2244908D1*
X729019Y2235645D1*
X727919Y2231746D1*
X735409Y2231754D1*
X740451Y2237516D1*
X747583Y2243607D1*
X755580Y2248507D1*
X757894Y2249574D1*
X751485Y2252994D1*
X743898Y2258507D1*
X737266Y2265139D1*
X731753Y2272726D1*
X727495Y2281082D1*
X724597Y2290002D1*
X723130Y2299265D1*
Y2308644D1*
X724597Y2317907D1*
X727495Y2326827D1*
X731753Y2335183D1*
X737266Y2342771D1*
X743898Y2349402D1*
X751485Y2354915D1*
X757894Y2358275D1*
X751485Y2361695D1*
X743898Y2367208D1*
X737266Y2373839D1*
X731753Y2381427D1*
X727495Y2389783D1*
X724597Y2398703D1*
X723130Y2407966D1*
Y2417345D1*
X724597Y2426608D1*
X727495Y2435527D1*
X731753Y2443884D1*
X737266Y2451471D1*
X743898Y2458103D1*
X751485Y2463616D1*
X757894Y2466976D1*
X751485Y2470396D1*
X743898Y2475908D1*
X737266Y2482540D1*
X731753Y2490128D1*
X727495Y2498484D1*
X724597Y2507404D1*
X723130Y2516667D1*
Y2526045D1*
X724597Y2535309D1*
X727495Y2544228D1*
X731753Y2552585D1*
X737266Y2560172D1*
X743898Y2566804D1*
X751485Y2572317D1*
X757894Y2575676D1*
X751485Y2579097D1*
X743898Y2584609D1*
X737266Y2591241D1*
X731753Y2598828D1*
X727495Y2607185D1*
X724597Y2616104D1*
X723130Y2625368D1*
Y2634746D1*
X724597Y2644009D1*
X727495Y2652929D1*
X731753Y2661286D1*
X737266Y2668873D1*
X743898Y2675505D1*
X748452Y2678991D1*
X814872Y2471017D2*
X809848Y2468103D1*
X807534Y2467036D1*
X813942Y2463616D1*
X821530Y2458103D1*
X828161Y2451471D1*
X833674Y2443884D1*
X837932Y2435527D1*
X840830Y2426608D1*
X842297Y2417345D1*
X842478Y2412747D1*
X1332578Y2412758D1*
X1327418Y2414547D1*
X1320917Y2417859D1*
X1315014Y2422148D1*
X1309854Y2427308D1*
X1305565Y2433211D1*
X1302253Y2439712D1*
X1299998Y2446652D1*
X1298856Y2453859D1*
Y2461155D1*
X1299998Y2468362D1*
X1302253Y2475302D1*
X1305565Y2481803D1*
X1308715Y2486262D1*
X1308713Y2546033D1*
X1268654Y2546007D1*
X1272755Y2542867D1*
X1277915Y2537708D1*
X1282203Y2531805D1*
X1285516Y2525303D1*
X1287771Y2518364D1*
X1288912Y2511157D1*
Y2503860D1*
X1287771Y2496653D1*
X1285516Y2489714D1*
X1282203Y2483212D1*
X1277915Y2477309D1*
X1272755Y2472150D1*
X1266852Y2467861D1*
X1260350Y2464548D1*
X1253411Y2462293D1*
X1246204Y2461152D1*
X1238907D1*
X1231700Y2462293D1*
X1224761Y2464548D1*
X1218259Y2467861D1*
X1213801Y2471010D1*
X814924Y2471008D1*
X842297Y2299265D2*
X840830Y2290002D1*
X837932Y2281082D1*
X833674Y2272726D1*
X828161Y2265139D1*
X821530Y2258507D1*
X813942Y2252994D1*
X807534Y2249634D1*
X813942Y2246214D1*
X821530Y2240702D1*
X828161Y2234070D1*
X833674Y2226482D1*
X837932Y2218126D1*
X840830Y2209206D1*
X842297Y2199943D1*
Y2190564D1*
X840830Y2181301D1*
X837932Y2172382D1*
X833674Y2164025D1*
X828161Y2156438D1*
X821530Y2149806D1*
X813942Y2144293D1*
X807534Y2140934D1*
X813942Y2137513D1*
X821530Y2132001D1*
X828161Y2125369D1*
X833674Y2117782D1*
X837932Y2109425D1*
X840830Y2100506D1*
X842297Y2091242D1*
Y2081864D1*
X840830Y2072601D1*
X837932Y2063681D1*
X833674Y2055324D1*
X828161Y2047737D1*
X821530Y2041105D1*
X813942Y2035593D1*
X807534Y2032233D1*
X813656Y2028987D1*
X819694Y2024805D1*
X825174Y2019915D1*
X830013Y2014390D1*
X834137Y2008313D1*
X837485Y2001775D1*
X840005Y1994877D1*
X841661Y1987722D1*
X842426Y1980417D1*
X842227Y1972348D1*
X841103Y1965090D1*
X839097Y1958025D1*
X836239Y1951259D1*
X832574Y1944895D1*
X828155Y1939029D1*
X823050Y1933748D1*
X817336Y1929134D1*
X811099Y1925255D1*
X807571Y1923503D1*
X813656Y1920286D1*
X819694Y1916105D1*
X825174Y1911214D1*
X830013Y1905689D1*
X834137Y1899612D1*
X837485Y1893075D1*
X840005Y1886176D1*
X841661Y1879021D1*
X842426Y1871716D1*
X842227Y1863647D1*
X841103Y1856390D1*
X839097Y1849324D1*
X836239Y1842559D1*
X832574Y1836194D1*
X828155Y1830328D1*
X823050Y1825048D1*
X817336Y1820433D1*
X811099Y1816555D1*
X807571Y1814802D1*
X813942Y1811411D1*
X821530Y1805898D1*
X828161Y1799267D1*
X833674Y1791679D1*
X837932Y1783323D1*
X840830Y1774403D1*
X842297Y1765140D1*
Y1755761D1*
X840830Y1746498D1*
X837932Y1737579D1*
X833674Y1729222D1*
X828161Y1721635D1*
X821530Y1715003D1*
X813942Y1709490D1*
X807534Y1706130D1*
X813942Y1702710D1*
X821530Y1697198D1*
X828161Y1690566D1*
X833674Y1682978D1*
X837932Y1674622D1*
X840830Y1665702D1*
X842297Y1656439D1*
Y1647061D1*
X840830Y1637797D1*
X837932Y1628878D1*
X833674Y1620521D1*
X828161Y1612934D1*
X821530Y1606302D1*
X813942Y1600790D1*
X807534Y1597430D1*
X813942Y1594009D1*
X821530Y1588497D1*
X828161Y1581865D1*
X833674Y1574278D1*
X837932Y1565921D1*
X840830Y1557002D1*
X842297Y1547738D1*
Y1538360D1*
X840830Y1529097D1*
X837932Y1520177D1*
X833674Y1511821D1*
X828161Y1504233D1*
X821530Y1497601D1*
X813942Y1492089D1*
X807534Y1488729D1*
X813942Y1485309D1*
X821530Y1479796D1*
X828161Y1473164D1*
X833674Y1465577D1*
X837932Y1457220D1*
X840830Y1448301D1*
X842297Y1439038D1*
Y1429659D1*
X840830Y1420396D1*
X837932Y1411476D1*
X833674Y1403120D1*
X828161Y1395532D1*
X821530Y1388901D1*
X813942Y1383388D1*
X805586Y1379130D1*
X796666Y1376232D1*
X791572Y1375258D1*
X1135577Y1375145D1*
X1141234Y1374249D1*
X1146681Y1372479D1*
X1151784Y1369879D1*
X1156418Y1366513D1*
X1191001Y1332089D1*
X1272832Y1250258D1*
X1485183D1*
X1489668Y1253406D1*
X1496169Y1256718D1*
X1503109Y1258973D1*
X1510315Y1260114D1*
X1517612D1*
X1524819Y1258973D1*
X1531759Y1256718D1*
X1538260Y1253406D1*
X1544163Y1249117D1*
X1549323Y1243957D1*
X1552463Y1239773D1*
X1552464Y1661159D1*
X1386323Y1827279D1*
X1139617Y1827258D1*
X1232287Y1734552D1*
X1235032Y1741118D1*
X1238844Y1747339D1*
X1243583Y1752888D1*
X1249132Y1757626D1*
X1255353Y1761439D1*
X1262094Y1764231D1*
X1269190Y1765935D1*
X1276464Y1766507D1*
X1283738Y1765935D1*
X1290833Y1764231D1*
X1297574Y1761439D1*
X1303796Y1757626D1*
X1305218Y1756505D1*
X1372669Y1756507D1*
X1377166Y1759655D1*
X1383668Y1762967D1*
X1390607Y1765222D1*
X1397814Y1766364D1*
X1405111D1*
X1412318Y1765222D1*
X1419257Y1762967D1*
X1425759Y1759655D1*
X1431662Y1755366D1*
X1436821Y1750206D1*
X1441110Y1744303D1*
X1444423Y1737802D1*
X1446678Y1730862D1*
X1447819Y1723655D1*
Y1716359D1*
X1446678Y1709152D1*
X1444423Y1702212D1*
X1441110Y1695711D1*
X1436821Y1689808D1*
X1431662Y1684648D1*
X1425759Y1680359D1*
X1419257Y1677047D1*
X1412318Y1674792D1*
X1405111Y1673650D1*
X1397814D1*
X1390607Y1674792D1*
X1383668Y1677047D1*
X1377166Y1680359D1*
X1372708Y1683509D1*
X1320902Y1683507D1*
X1322341Y1677281D1*
X1322914Y1670007D1*
X1322341Y1662733D1*
X1320638Y1655638D1*
X1317846Y1648897D1*
X1314033Y1642675D1*
X1309294Y1637127D1*
X1303746Y1632388D1*
X1297524Y1628575D1*
X1290783Y1625783D1*
X1283688Y1624080D1*
X1276414Y1623507D1*
X1269140Y1624080D1*
X1262045Y1625783D1*
X1255303Y1628575D1*
X1249082Y1632388D1*
X1247659Y1633509D1*
X1242349Y1633620D1*
X1236692Y1634516D1*
X1231245Y1636285D1*
X1226142Y1638886D1*
X1221508Y1642252D1*
X1186925Y1676676D1*
X948708Y1915053D1*
X945341Y1919687D1*
X942741Y1924790D1*
X940971Y1930237D1*
X940075Y1935894D1*
X939962Y1984690D1*
Y2047451D1*
X936815Y2051962D1*
X933502Y2058463D1*
X931247Y2065403D1*
X930106Y2072609D1*
Y2079906D1*
X931247Y2087113D1*
X933502Y2094053D1*
X936815Y2100554D1*
X941104Y2106457D1*
X946263Y2111617D1*
X952166Y2115906D1*
X958668Y2119218D1*
X965607Y2121473D1*
X972814Y2122614D1*
X980111D1*
X987318Y2121473D1*
X994257Y2119218D1*
X996213Y2118317D1*
Y2291170D1*
X993065Y2295711D1*
X989753Y2302212D1*
X987498Y2309152D1*
X986356Y2316359D1*
Y2323655D1*
X987498Y2330862D1*
X989753Y2337802D1*
X990654Y2339758D1*
X830571D1*
X833674Y2335183D1*
X837932Y2326827D1*
X840830Y2317907D1*
X842297Y2308644D1*
Y2299265D1*
X757894Y2140934D2*
X751485Y2144293D1*
X743898Y2149806D1*
X737266Y2156438D1*
X735439Y2158756D1*
X729019Y2154849D1*
X730486Y2145586D1*
Y2136208D1*
X729019Y2126944D1*
X726121Y2118025D1*
X721863Y2109668D1*
X716350Y2102081D1*
X709719Y2095449D1*
X702131Y2089936D1*
X695722Y2086577D1*
X702131Y2083156D1*
X709719Y2077644D1*
X716350Y2071012D1*
X721863Y2063425D1*
X726121Y2055068D1*
X729019Y2046149D1*
X730486Y2036885D1*
Y2027507D1*
X729019Y2018244D1*
X726121Y2009324D1*
X721863Y2000968D1*
X716350Y1993380D1*
X709719Y1986748D1*
X702131Y1981236D1*
X695722Y1977876D1*
X702131Y1974456D1*
X709719Y1968943D1*
X716350Y1962311D1*
X721863Y1954724D1*
X726121Y1946367D1*
X729019Y1937448D1*
X730486Y1928185D1*
Y1918806D1*
X729019Y1909543D1*
X726121Y1900623D1*
X721863Y1892267D1*
X716350Y1884679D1*
X709719Y1878048D1*
X702131Y1872535D1*
X695722Y1869175D1*
X702131Y1865755D1*
X709719Y1860242D1*
X716350Y1853611D1*
X721863Y1846023D1*
X726121Y1837667D1*
X729019Y1828747D1*
X730486Y1819484D1*
Y1810105D1*
X729019Y1800842D1*
X726121Y1791922D1*
X721863Y1783566D1*
X716350Y1775978D1*
X709719Y1769347D1*
X702131Y1763834D1*
X695722Y1760474D1*
X702131Y1757054D1*
X709719Y1751541D1*
X716350Y1744910D1*
X721863Y1737322D1*
X726121Y1728966D1*
X729019Y1720046D1*
X730486Y1710783D1*
Y1701404D1*
X729019Y1692141D1*
X726121Y1683222D1*
X721863Y1674865D1*
X716350Y1667278D1*
X709719Y1660646D1*
X702131Y1655133D1*
X695722Y1651773D1*
X702131Y1648353D1*
X709719Y1642841D1*
X716350Y1636209D1*
X721863Y1628621D1*
X726121Y1620265D1*
X729019Y1611345D1*
X730486Y1602082D1*
Y1592704D1*
X729019Y1583440D1*
X726121Y1574521D1*
X721863Y1566164D1*
X716350Y1558577D1*
X709719Y1551945D1*
X702131Y1546433D1*
X695722Y1543073D1*
X702131Y1539652D1*
X709719Y1534140D1*
X716350Y1527508D1*
X721863Y1519921D1*
X726121Y1511564D1*
X729019Y1502645D1*
X730486Y1493381D1*
Y1484003D1*
X729019Y1474740D1*
X726121Y1465820D1*
X721863Y1457464D1*
X716350Y1449876D1*
X709719Y1443244D1*
X702131Y1437732D1*
X693775Y1433474D1*
X684855Y1430576D1*
X675592Y1429109D1*
X666213D1*
X656950Y1430576D1*
X648030Y1433474D1*
X639674Y1437732D1*
X632087Y1443244D1*
X625455Y1449876D1*
X619942Y1457464D1*
X615684Y1465820D1*
X612786Y1474740D1*
X611319Y1484003D1*
Y1493381D1*
X612786Y1502645D1*
X615684Y1511564D1*
X619942Y1519921D1*
X625455Y1527508D1*
X632087Y1534140D1*
X639674Y1539652D1*
X646083Y1543012D1*
X639674Y1546433D1*
X632087Y1551945D1*
X625455Y1558577D1*
X619942Y1566164D1*
X615684Y1574521D1*
X612786Y1583440D1*
X611319Y1592704D1*
Y1602082D1*
X612786Y1611345D1*
X615684Y1620265D1*
X619942Y1628621D1*
X625455Y1636209D1*
X632087Y1642841D1*
X639674Y1648353D1*
X646083Y1651713D1*
X639674Y1655133D1*
X632087Y1660646D1*
X625455Y1667278D1*
X619942Y1674865D1*
X615684Y1683222D1*
X612786Y1692141D1*
X611319Y1701404D1*
Y1710783D1*
X612786Y1720046D1*
X615684Y1728966D1*
X619942Y1737322D1*
X625455Y1744910D1*
X632087Y1751541D1*
X639674Y1757054D1*
X646083Y1760414D1*
X639674Y1763834D1*
X632087Y1769347D1*
X625455Y1775978D1*
X619942Y1783566D1*
X615684Y1791922D1*
X612786Y1800842D1*
X611319Y1810105D1*
Y1819484D1*
X612786Y1828747D1*
X615684Y1837667D1*
X619942Y1846023D1*
X625455Y1853611D1*
X632087Y1860242D1*
X639674Y1865755D1*
X646083Y1869115D1*
X639674Y1872535D1*
X632087Y1878048D1*
X625455Y1884679D1*
X619942Y1892267D1*
X615684Y1900623D1*
X612786Y1909543D1*
X611319Y1918806D1*
Y1928185D1*
X612786Y1937448D1*
X615684Y1946367D1*
X619942Y1954724D1*
X625455Y1962311D1*
X632087Y1968943D1*
X639674Y1974456D1*
X646083Y1977815D1*
X639674Y1981236D1*
X632087Y1986748D1*
X625455Y1993380D1*
X619942Y2000968D1*
X615684Y2009324D1*
X612786Y2018244D1*
X611319Y2027507D1*
Y2036885D1*
X612786Y2046149D1*
X615684Y2055068D1*
X619942Y2063425D1*
X625455Y2071012D1*
X632087Y2077644D1*
X639674Y2083156D1*
X646083Y2086516D1*
X639674Y2089936D1*
X632087Y2095449D1*
X625455Y2102081D1*
X619942Y2109668D1*
X615684Y2118025D1*
X613548Y2124245D1*
X606727Y2117402D1*
X606713Y1466389D1*
X697848Y1375242D1*
X773364Y1375316D1*
X764244Y1377506D1*
X755580Y1381095D1*
X747583Y1385995D1*
X740451Y1392086D1*
X734360Y1399218D1*
X729460Y1407214D1*
X725871Y1415879D1*
X723682Y1424999D1*
X722946Y1434348D1*
X723682Y1443698D1*
X725871Y1452818D1*
X729460Y1461482D1*
X734360Y1469479D1*
X740451Y1476610D1*
X747583Y1482701D1*
X755580Y1487602D1*
X757894Y1488669D1*
X751485Y1492089D1*
X743898Y1497601D1*
X737266Y1504233D1*
X731753Y1511821D1*
X727495Y1520177D1*
X724597Y1529097D1*
X723130Y1538360D1*
Y1547738D1*
X724597Y1557002D1*
X727495Y1565921D1*
X731753Y1574278D1*
X737266Y1581865D1*
X743898Y1588497D1*
X751485Y1594009D1*
X757894Y1597369D1*
X751485Y1600790D1*
X743898Y1606302D1*
X737266Y1612934D1*
X731753Y1620521D1*
X727495Y1628878D1*
X724597Y1637797D1*
X723130Y1647061D1*
Y1656439D1*
X724597Y1665702D1*
X727495Y1674622D1*
X731753Y1682978D1*
X737266Y1690566D1*
X743898Y1697198D1*
X751485Y1702710D1*
X757894Y1706070D1*
X751485Y1709490D1*
X743898Y1715003D1*
X737266Y1721635D1*
X731753Y1729222D1*
X727495Y1737579D1*
X724597Y1746498D1*
X723130Y1755761D1*
Y1765140D1*
X724597Y1774403D1*
X727495Y1783323D1*
X731753Y1791679D1*
X737266Y1799267D1*
X743898Y1805898D1*
X751485Y1811411D1*
X757894Y1814771D1*
X751460Y1818207D1*
X745447Y1822425D1*
X739997Y1827348D1*
X735193Y1832903D1*
X731106Y1839005D1*
X727798Y1845562D1*
X725319Y1852476D1*
X723707Y1859641D1*
X722986Y1866950D1*
X723167Y1874293D1*
X724248Y1881557D1*
X726211Y1888634D1*
X729027Y1895418D1*
X732654Y1901804D1*
X737037Y1907697D1*
X742109Y1913009D1*
X747795Y1917658D1*
X754008Y1921574D1*
X757852Y1923496D1*
X751460Y1926907D1*
X745447Y1931125D1*
X739997Y1936049D1*
X735193Y1941604D1*
X731106Y1947706D1*
X727798Y1954263D1*
X725319Y1961177D1*
X723707Y1968342D1*
X722986Y1975651D1*
X723167Y1982993D1*
X724248Y1990258D1*
X726211Y1997335D1*
X729027Y2004118D1*
X732654Y2010505D1*
X737037Y2016398D1*
X742109Y2021709D1*
X747795Y2026359D1*
X754008Y2030275D1*
X757852Y2032197D1*
X751485Y2035593D1*
X743898Y2041105D1*
X737266Y2047737D1*
X731753Y2055324D1*
X727495Y2063681D1*
X724597Y2072601D1*
X723130Y2081864D1*
Y2091242D1*
X724597Y2100506D1*
X727495Y2109425D1*
X731753Y2117782D1*
X737266Y2125369D1*
X743898Y2132001D1*
X751485Y2137513D1*
X757894Y2140873D1*
X846658Y1151155D2*
X845607Y1142031D1*
X843863Y1133014D1*
X841436Y1124157D1*
X838339Y1115510D1*
X834592Y1107126D1*
X830215Y1099052D1*
X825234Y1091336D1*
X819679Y1084022D1*
X813581Y1077154D1*
X806977Y1070772D1*
X799905Y1064912D1*
X792406Y1059610D1*
X784525Y1054895D1*
X776306Y1050796D1*
X767798Y1047337D1*
X759051Y1044537D1*
X750116Y1042413D1*
X741045Y1040978D1*
X731890Y1040239D1*
X722706Y1040202D1*
X713546Y1040866D1*
X704464Y1042227D1*
X695511Y1044278D1*
X686742Y1047006D1*
X678206Y1050396D1*
X669954Y1054427D1*
X662034Y1059077D1*
X654493Y1064318D1*
X647373Y1070120D1*
X640717Y1076448D1*
X634564Y1083266D1*
X628949Y1090534D1*
X623905Y1098209D1*
X619463Y1106248D1*
X615647Y1114601D1*
X612479Y1123222D1*
X609980Y1132059D1*
X608162Y1141062D1*
X607037Y1150177D1*
X606611Y1159351D1*
X606887Y1168531D1*
X607863Y1177663D1*
X609534Y1186694D1*
X611889Y1195571D1*
X614915Y1204242D1*
X618594Y1212657D1*
X622905Y1220767D1*
X627822Y1228524D1*
X633318Y1235882D1*
X639359Y1242800D1*
X645910Y1249236D1*
X652934Y1255153D1*
X660390Y1260516D1*
X668233Y1265295D1*
X676418Y1269461D1*
X684897Y1272990D1*
X693620Y1275861D1*
X702538Y1278058D1*
X711597Y1279567D1*
X720745Y1280380D1*
X729929Y1280493D1*
X739094Y1279904D1*
X748187Y1278617D1*
X757156Y1276639D1*
X765948Y1273983D1*
X774511Y1270663D1*
X782795Y1266698D1*
X790753Y1262113D1*
X798337Y1256934D1*
X805504Y1251191D1*
X812211Y1244917D1*
X818420Y1238149D1*
X824094Y1230928D1*
X829200Y1223294D1*
X833708Y1215292D1*
X837592Y1206970D1*
X840830Y1198375D1*
X843402Y1189559D1*
X845293Y1180571D1*
X846492Y1171466D1*
X847009Y1160333D1*
X846658Y1151155D1*
X3413568Y2990613D2*
X3412193Y2981929D1*
X3409476Y2973568D1*
X3405484Y2965734D1*
X3400317Y2958621D1*
X3394100Y2952405D1*
X3386987Y2947237D1*
X3379154Y2943246D1*
X3370792Y2940529D1*
X3362109Y2939154D1*
X3353317D1*
X3344634Y2940529D1*
X3336272Y2943246D1*
X3328439Y2947237D1*
X3321326Y2952405D1*
X3315109Y2958621D1*
X3309942Y2965734D1*
X3305950Y2973568D1*
X3303234Y2981929D1*
X3301858Y2990613D1*
Y2999404D1*
X3303234Y3008088D1*
X3305950Y3016449D1*
X3309942Y3024283D1*
X3315109Y3031395D1*
X3321326Y3037612D1*
X3328439Y3042780D1*
X3334602Y3046001D1*
X2760363Y3046008D1*
X2711695Y2997368D1*
X2714487Y2990627D1*
X2716190Y2983532D1*
X2716763Y2976258D1*
X2716190Y2968984D1*
X2714487Y2961888D1*
X2711695Y2955147D1*
X2707882Y2948926D1*
X2703143Y2943377D1*
X2697251Y2938409D1*
X2703473Y2934467D1*
X2710215Y2928709D1*
X2715972Y2921968D1*
X2720605Y2914408D1*
X2723998Y2906217D1*
X2726067Y2897596D1*
X2726763Y2888758D1*
X2726067Y2879919D1*
X2723998Y2871298D1*
X2720605Y2863107D1*
X2715972Y2855548D1*
X2710215Y2848806D1*
X2703473Y2843048D1*
X2695913Y2838416D1*
X2687722Y2835023D1*
X2679102Y2832953D1*
X2670263Y2832258D1*
X2661424Y2832953D1*
X2652804Y2835023D1*
X2644613Y2838416D1*
X2637053Y2843048D1*
X2630311Y2848806D1*
X2624554Y2855548D1*
X2619921Y2863107D1*
X2616528Y2871298D1*
X2614459Y2879919D1*
X2613763Y2888758D1*
X2614459Y2897596D1*
X2616528Y2906217D1*
X2619921Y2914408D1*
X2624554Y2921968D1*
X2630311Y2928709D1*
X2637053Y2934467D1*
X2643297Y2938363D1*
X2637383Y2943377D1*
X2632644Y2948926D1*
X2628831Y2955147D1*
X2626039Y2961888D1*
X2624335Y2968984D1*
X2623763Y2976258D1*
X2624335Y2983532D1*
X2626039Y2990627D1*
X2628831Y2997368D1*
X2632644Y3003590D1*
X2633765Y3005012D1*
X2633875Y3010422D1*
X2634771Y3016079D1*
X2636541Y3021526D1*
X2639142Y3026630D1*
X2642508Y3031263D1*
X2676932Y3065846D1*
X2721508Y3110263D1*
X2726142Y3113630D1*
X2731245Y3116230D1*
X2736692Y3118000D1*
X2742349Y3118896D1*
X2791145Y3119009D1*
X3448077Y3118896D1*
X3453734Y3118000D1*
X3459181Y3116230D1*
X3464284Y3113630D1*
X3468918Y3110263D1*
X3503501Y3075839D1*
X3538137Y3041204D1*
X3543568Y3040224D1*
X3550508Y3037969D1*
X3557009Y3034656D1*
X3562912Y3030367D1*
X3568072Y3025208D1*
X3572361Y3019305D1*
X3575674Y3012803D1*
X3577928Y3005864D1*
X3579070Y2998657D1*
Y2991360D1*
X3577928Y2984153D1*
X3575674Y2977214D1*
X3572361Y2970712D1*
X3568072Y2964809D1*
X3562912Y2959650D1*
X3557009Y2955361D1*
X3550508Y2952048D1*
X3543568Y2949793D1*
X3536361Y2948652D1*
X3529065D1*
X3521858Y2949793D1*
X3514918Y2952048D1*
X3508417Y2955361D1*
X3502514Y2959650D1*
X3497354Y2964809D1*
X3493065Y2970712D1*
X3489753Y2977214D1*
X3487498Y2984153D1*
X3486573Y2989533D1*
X3430097Y3046006D1*
X3380945Y3046008D1*
X3386987Y3042780D1*
X3394100Y3037612D1*
X3400317Y3031395D1*
X3405484Y3024283D1*
X3409476Y3016449D1*
X3412193Y3008088D1*
X3413568Y2999404D1*
Y2990613D1*
Y2690613D2*
X3412193Y2681929D1*
X3409476Y2673568D1*
X3405484Y2665734D1*
X3400317Y2658621D1*
X3394100Y2652405D1*
X3386987Y2647237D1*
X3379154Y2643246D1*
X3370792Y2640529D1*
X3362109Y2639154D1*
X3353317D1*
X3344634Y2640529D1*
X3336272Y2643246D1*
X3328439Y2647237D1*
X3321326Y2652405D1*
X3315109Y2658621D1*
X3309942Y2665734D1*
X3305950Y2673568D1*
X3303234Y2681929D1*
X3301858Y2690613D1*
Y2699404D1*
X3303234Y2708088D1*
X3305950Y2716449D1*
X3309942Y2724283D1*
X3315109Y2731395D1*
X3321326Y2737612D1*
X3328439Y2742780D1*
X3336272Y2746771D1*
X3344634Y2749488D1*
X3353317Y2750863D1*
X3362109D1*
X3370792Y2749488D1*
X3379154Y2746771D1*
X3386987Y2742780D1*
X3394100Y2737612D1*
X3400317Y2731395D1*
X3405484Y2724283D1*
X3409476Y2716449D1*
X3412193Y2708088D1*
X3413568Y2699404D1*
Y2690613D1*
Y2490613D2*
X3412193Y2481929D1*
X3409476Y2473568D1*
X3405484Y2465734D1*
X3400317Y2458621D1*
X3394100Y2452405D1*
X3386987Y2447237D1*
X3379154Y2443246D1*
X3370792Y2440529D1*
X3362109Y2439154D1*
X3353317D1*
X3344634Y2440529D1*
X3336272Y2443246D1*
X3328439Y2447237D1*
X3321326Y2452405D1*
X3315109Y2458621D1*
X3309942Y2465734D1*
X3305950Y2473568D1*
X3303234Y2481929D1*
X3301858Y2490613D1*
Y2499404D1*
X3303234Y2508088D1*
X3305950Y2516449D1*
X3309942Y2524283D1*
X3315109Y2531395D1*
X3321326Y2537612D1*
X3328439Y2542780D1*
X3336272Y2546771D1*
X3344634Y2549488D1*
X3353317Y2550863D1*
X3362109D1*
X3370792Y2549488D1*
X3379154Y2546771D1*
X3386987Y2542780D1*
X3394100Y2537612D1*
X3400317Y2531395D1*
X3405484Y2524283D1*
X3409476Y2516449D1*
X3412193Y2508088D1*
X3413568Y2499404D1*
Y2490613D1*
X3513568Y2309362D2*
X3512193Y2300678D1*
X3509476Y2292317D1*
X3505484Y2284483D1*
X3500317Y2277371D1*
X3494100Y2271154D1*
X3486987Y2265986D1*
X3479154Y2261995D1*
X3470792Y2259278D1*
X3462109Y2257903D1*
X3453317D1*
X3444634Y2259278D1*
X3436272Y2261995D1*
X3428439Y2265986D1*
X3421326Y2271154D1*
X3415109Y2277371D1*
X3409942Y2284483D1*
X3405950Y2292317D1*
X3403234Y2300678D1*
X3401858Y2309362D1*
Y2318154D1*
X3403234Y2326837D1*
X3405950Y2335199D1*
X3409942Y2343032D1*
X3415109Y2350145D1*
X3421326Y2356361D1*
X3428439Y2361529D1*
X3436272Y2365520D1*
X3444634Y2368237D1*
X3453317Y2369613D1*
X3462109D1*
X3470792Y2368237D1*
X3479154Y2365520D1*
X3486987Y2361529D1*
X3494100Y2356361D1*
X3500317Y2350145D1*
X3505484Y2343032D1*
X3509476Y2335199D1*
X3512193Y2326837D1*
X3513568Y2318154D1*
Y2309362D1*
Y2009362D2*
X3512193Y2000678D1*
X3509476Y1992317D1*
X3505484Y1984483D1*
X3500317Y1977371D1*
X3494100Y1971154D1*
X3486987Y1965986D1*
X3479154Y1961995D1*
X3470792Y1959278D1*
X3462109Y1957903D1*
X3453317D1*
X3444634Y1959278D1*
X3436272Y1961995D1*
X3428439Y1965986D1*
X3421326Y1971154D1*
X3415109Y1977371D1*
X3409942Y1984483D1*
X3405950Y1992317D1*
X3403234Y2000678D1*
X3401858Y2009362D1*
Y2018154D1*
X3403234Y2026837D1*
X3405950Y2035199D1*
X3409942Y2043032D1*
X3415109Y2050145D1*
X3421326Y2056361D1*
X3428439Y2061529D1*
X3436272Y2065520D1*
X3444634Y2068237D1*
X3453317Y2069613D1*
X3462109D1*
X3470792Y2068237D1*
X3479154Y2065520D1*
X3486987Y2061529D1*
X3494100Y2056361D1*
X3500317Y2050145D1*
X3505484Y2043032D1*
X3509476Y2035199D1*
X3512193Y2026837D1*
X3513568Y2018154D1*
Y2009362D1*
Y1809362D2*
X3512193Y1800678D1*
X3509476Y1792317D1*
X3505484Y1784483D1*
X3500317Y1777371D1*
X3494100Y1771154D1*
X3486987Y1765986D1*
X3479154Y1761995D1*
X3470792Y1759278D1*
X3462109Y1757903D1*
X3453317D1*
X3444634Y1759278D1*
X3436272Y1761995D1*
X3428439Y1765986D1*
X3421326Y1771154D1*
X3415109Y1777371D1*
X3409942Y1784483D1*
X3405950Y1792317D1*
X3403234Y1800678D1*
X3401858Y1809362D1*
Y1818154D1*
X3403234Y1826837D1*
X3405950Y1835199D1*
X3409942Y1843032D1*
X3415109Y1850145D1*
X3421326Y1856361D1*
X3428439Y1861529D1*
X3436272Y1865520D1*
X3444634Y1868237D1*
X3453317Y1869613D1*
X3462109D1*
X3470792Y1868237D1*
X3479154Y1865520D1*
X3486987Y1861529D1*
X3494100Y1856361D1*
X3500317Y1850145D1*
X3505484Y1843032D1*
X3509476Y1835199D1*
X3512193Y1826837D1*
X3513568Y1818154D1*
Y1809362D1*
X1220288Y1915575D2*
X1218901Y1906819D1*
X1216851Y1900257D1*
X1404328Y1900145D1*
X1409985Y1899249D1*
X1415432Y1897479D1*
X1420535Y1894879D1*
X1425169Y1891513D1*
X1459752Y1857089D1*
X1574569Y1742271D1*
X1578288Y1749530D1*
X1583500Y1756702D1*
X1589973Y1763132D1*
X1590075Y1785371D1*
X1590971Y1791028D1*
X1592741Y1796475D1*
X1595341Y1801578D1*
X1598708Y1806212D1*
X1633132Y1840795D1*
X1758707Y1966371D1*
X1758713Y2000168D1*
X1755572Y1996058D1*
X1750412Y1990899D1*
X1744509Y1986610D1*
X1738008Y1983297D1*
X1731068Y1981043D1*
X1723861Y1979901D1*
X1716565D1*
X1709358Y1981043D1*
X1701965Y1983506D1*
X1654073Y1983508D1*
X1625672Y1955098D1*
X1625659Y1923806D1*
X1628807Y1919305D1*
X1632120Y1912803D1*
X1634375Y1905864D1*
X1635516Y1898657D1*
Y1891360D1*
X1634375Y1884153D1*
X1632120Y1877214D1*
X1628807Y1870712D1*
X1624518Y1864809D1*
X1619359Y1859650D1*
X1613456Y1855361D1*
X1606954Y1852048D1*
X1600015Y1849793D1*
X1592808Y1848652D1*
X1585511D1*
X1578304Y1849793D1*
X1571365Y1852048D1*
X1564863Y1855361D1*
X1558960Y1859650D1*
X1553800Y1864809D1*
X1549512Y1870712D1*
X1546199Y1877214D1*
X1543944Y1884153D1*
X1542803Y1891360D1*
Y1898657D1*
X1543944Y1905864D1*
X1546199Y1912803D1*
X1549512Y1919305D1*
X1552661Y1923763D1*
X1552772Y1973068D1*
X1553668Y1978725D1*
X1555438Y1984172D1*
X1558038Y1989275D1*
X1561404Y1993909D1*
X1595828Y2028492D1*
X1615259Y2047763D1*
X1619892Y2051130D1*
X1624996Y2053730D1*
X1630443Y2055500D1*
X1636100Y2056396D1*
X1684931Y2056509D1*
X1690014Y2061617D1*
X1695917Y2065906D1*
X1702418Y2069218D1*
X1709358Y2071473D1*
X1716565Y2072614D1*
X1723861D1*
X1731068Y2071473D1*
X1738008Y2069218D1*
X1744509Y2065906D1*
X1750412Y2061617D1*
X1755572Y2056457D1*
X1758712Y2052273D1*
X1753781Y2067647D1*
X1750989Y2074388D1*
X1749286Y2081484D1*
X1748713Y2088758D1*
X1749286Y2096032D1*
X1750989Y2103127D1*
X1753781Y2109868D1*
X1757594Y2116090D1*
X1762333Y2121638D1*
X1767881Y2126377D1*
X1774103Y2130190D1*
X1776188Y2131151D1*
X1642580Y2264772D1*
X1544425Y2264564D1*
X1538156Y2258295D1*
X1530984Y2253084D1*
X1528126Y2251483D1*
X1532021Y2244051D1*
X1534276Y2237112D1*
X1535418Y2229905D1*
Y2222608D1*
X1534276Y2215401D1*
X1532021Y2208462D1*
X1528709Y2201960D1*
X1524420Y2196057D1*
X1519260Y2190898D1*
X1513357Y2186609D1*
X1506856Y2183296D1*
X1499916Y2181041D1*
X1492709Y2179900D1*
X1485413D1*
X1478206Y2181041D1*
X1471266Y2183296D1*
X1464765Y2186609D1*
X1460306Y2189759D1*
X1364579Y2189756D1*
X1372968Y2181212D1*
X1376335Y2176578D1*
X1378935Y2171475D1*
X1380705Y2166028D1*
X1381601Y2160371D1*
X1381713Y2111575D1*
X1381601Y1998394D1*
X1380705Y1992737D1*
X1378935Y1987290D1*
X1376335Y1982186D1*
X1372968Y1977553D1*
X1346021Y1950447D1*
X1341666Y1946727D1*
X1336783Y1943735D1*
X1331491Y1941543D1*
X1325922Y1940206D1*
X1320212Y1939756D1*
X1311492D1*
X1307009Y1936609D1*
X1300508Y1933296D1*
X1293568Y1931041D1*
X1286361Y1929900D1*
X1279065D1*
X1271858Y1931041D1*
X1264918Y1933296D1*
X1258417Y1936609D1*
X1252514Y1940898D1*
X1247354Y1946057D1*
X1243065Y1951960D1*
X1239753Y1958462D1*
X1237498Y1965401D1*
X1236356Y1972608D1*
Y1979905D1*
X1237498Y1987112D1*
X1239753Y1994051D1*
X1243065Y2000553D1*
X1247354Y2006456D1*
X1252514Y2011615D1*
X1258417Y2015904D1*
X1264918Y2019217D1*
X1271858Y2021472D1*
X1279065Y2022613D1*
X1286361D1*
X1293568Y2021472D1*
X1300508Y2019217D1*
X1307009Y2015904D1*
X1307756Y2015405D1*
X1308713Y2019630D1*
Y2139735D1*
X1305256Y2139756D1*
X1300759Y2136609D1*
X1294257Y2133296D1*
X1287318Y2131041D1*
X1280111Y2129900D1*
X1272814D1*
X1265607Y2131041D1*
X1258668Y2133296D1*
X1252166Y2136609D1*
X1246263Y2140898D1*
X1241104Y2146057D1*
X1236815Y2151960D1*
X1233502Y2158462D1*
X1231247Y2165401D1*
X1230106Y2172608D1*
Y2179905D1*
X1231247Y2187112D1*
X1233502Y2194051D1*
X1237266Y2201229D1*
X1233502Y2208464D1*
X1231247Y2215404D1*
X1230106Y2222611D1*
Y2229907D1*
X1231247Y2237114D1*
X1233502Y2244054D1*
X1236815Y2250555D1*
X1241104Y2256458D1*
X1246263Y2261618D1*
X1252166Y2265907D1*
X1258668Y2269219D1*
X1265607Y2271474D1*
X1272814Y2272616D1*
X1280111D1*
X1287318Y2271474D1*
X1294257Y2269219D1*
X1300759Y2265907D1*
X1305217Y2262757D1*
X1460084Y2262756D1*
X1455753Y2268048D1*
X1451121Y2275607D1*
X1447728Y2283798D1*
X1445658Y2292419D1*
X1444962Y2301258D1*
X1445658Y2310096D1*
X1447728Y2318717D1*
X1451121Y2326908D1*
X1455753Y2334468D1*
X1460158Y2339746D1*
X1074799Y2339758D1*
X1076937Y2334376D1*
X1078641Y2327281D1*
X1079213Y2320007D1*
X1078641Y2312733D1*
X1076937Y2305638D1*
X1074145Y2298897D1*
X1070332Y2292675D1*
X1069211Y2291253D1*
X1069213Y1947637D1*
X1108738Y1908101D1*
X1107637Y1915575D1*
Y1924441D1*
X1109024Y1933198D1*
X1111763Y1941630D1*
X1115788Y1949530D1*
X1121000Y1956702D1*
X1127269Y1962971D1*
X1134441Y1968183D1*
X1142341Y1972208D1*
X1144796Y1973113D1*
X1138312Y1975916D1*
X1130753Y1980548D1*
X1124011Y1986306D1*
X1118253Y1993048D1*
X1113621Y2000607D1*
X1110228Y2008798D1*
X1108158Y2017419D1*
X1107462Y2026258D1*
X1108158Y2035096D1*
X1110228Y2043717D1*
X1113621Y2051908D1*
X1118253Y2059468D1*
X1124011Y2066209D1*
X1130753Y2071967D1*
X1137662Y2076236D1*
X1130753Y2080547D1*
X1124011Y2086305D1*
X1118253Y2093047D1*
X1113621Y2100606D1*
X1110228Y2108797D1*
X1108158Y2117418D1*
X1107462Y2126256D1*
X1108158Y2135095D1*
X1110228Y2143716D1*
X1113621Y2151907D1*
X1118253Y2159466D1*
X1124011Y2166208D1*
X1130753Y2171966D1*
X1138312Y2176598D1*
X1146503Y2179991D1*
X1155124Y2182061D1*
X1163962Y2182756D1*
X1172801Y2182061D1*
X1181422Y2179991D1*
X1189613Y2176598D1*
X1197172Y2171966D1*
X1203914Y2166208D1*
X1209672Y2159466D1*
X1214304Y2151907D1*
X1217697Y2143716D1*
X1219767Y2135095D1*
X1220462Y2126256D1*
X1219767Y2117418D1*
X1217697Y2108797D1*
X1214304Y2100606D1*
X1209672Y2093047D1*
X1203914Y2086305D1*
X1197172Y2080547D1*
X1190263Y2076279D1*
X1197172Y2071967D1*
X1203914Y2066209D1*
X1209672Y2059468D1*
X1214304Y2051908D1*
X1217697Y2043717D1*
X1219767Y2035096D1*
X1220462Y2026258D1*
X1219767Y2017419D1*
X1217697Y2008798D1*
X1214304Y2000607D1*
X1209672Y1993048D1*
X1203914Y1986306D1*
X1197172Y1980548D1*
X1189613Y1975916D1*
X1183129Y1973153D1*
X1189613Y1970350D1*
X1197172Y1965718D1*
X1203914Y1959960D1*
X1209672Y1953218D1*
X1214304Y1945659D1*
X1217697Y1937468D1*
X1219767Y1928847D1*
X1220462Y1920008D1*
X1220288Y1915575D1*
X1545288Y1365574D2*
X1543901Y1356817D1*
X1541162Y1348385D1*
X1537137Y1340486D1*
X1531925Y1333313D1*
X1525656Y1327044D1*
X1518484Y1321833D1*
X1510584Y1317808D1*
X1502152Y1315068D1*
X1493395Y1313681D1*
X1484530D1*
X1475773Y1315068D1*
X1467341Y1317808D1*
X1459441Y1321833D1*
X1452269Y1327044D1*
X1446000Y1333313D1*
X1440788Y1340486D1*
X1436763Y1348385D1*
X1434024Y1356817D1*
X1432637Y1365574D1*
Y1374440D1*
X1434024Y1383197D1*
X1436763Y1391629D1*
X1440788Y1399528D1*
X1446000Y1406701D1*
X1452269Y1412970D1*
X1459441Y1418181D1*
X1467341Y1422206D1*
X1475773Y1424946D1*
X1484530Y1426333D1*
X1493395D1*
X1502152Y1424946D1*
X1510584Y1422206D1*
X1518484Y1418181D1*
X1525656Y1412970D1*
X1531925Y1406701D1*
X1537137Y1399528D1*
X1541162Y1391629D1*
X1543901Y1383197D1*
X1545288Y1374440D1*
Y1365574D1*
X2151539Y2003074D2*
X2150152Y1994317D1*
X2147412Y1985885D1*
X2143387Y1977986D1*
X2138176Y1970813D1*
X2131907Y1964544D1*
X2124734Y1959333D1*
X2116835Y1955308D1*
X2108403Y1952568D1*
X2099646Y1951181D1*
X2090780D1*
X2082023Y1952568D1*
X2073592Y1955308D1*
X2065692Y1959333D1*
X2058519Y1964544D1*
X2052250Y1970813D1*
X2047039Y1977986D1*
X2043014Y1985885D1*
X2040274Y1994317D1*
X2038887Y2003074D1*
Y2011940D1*
X2040274Y2020697D1*
X2043014Y2029129D1*
X2047039Y2037028D1*
X2052250Y2044201D1*
X2058519Y2050470D1*
X2065692Y2055681D1*
X2073592Y2059706D1*
X2082023Y2062446D1*
X2090780Y2063833D1*
X2099646D1*
X2108403Y2062446D1*
X2116835Y2059706D1*
X2124734Y2055681D1*
X2131907Y2050470D1*
X2138176Y2044201D1*
X2143387Y2037028D1*
X2147412Y2029129D1*
X2150152Y2020697D1*
X2151539Y2011940D1*
Y2003074D1*
X2789039Y1771825D2*
X2787652Y1763068D1*
X2784912Y1754636D1*
X2780887Y1746737D1*
X2775676Y1739564D1*
X2769203Y1733134D1*
X2769213Y1628881D1*
X2786256Y1611833D1*
X2786356Y1617406D1*
X2787498Y1624613D1*
X2789753Y1631553D1*
X2793065Y1638054D1*
X2796215Y1642512D1*
X2796213Y1886155D1*
X2742581Y1939771D1*
X2717774Y1939758D1*
X2713260Y1936610D1*
X2706759Y1933297D1*
X2699819Y1931043D1*
X2692612Y1929901D1*
X2685315D1*
X2678109Y1931043D1*
X2671169Y1933297D1*
X2664668Y1936610D1*
X2658764Y1940899D1*
X2653605Y1946058D1*
X2649316Y1951962D1*
X2646003Y1958463D1*
X2643749Y1965403D1*
X2642607Y1972609D1*
Y1979906D1*
X2643749Y1987113D1*
X2646003Y1994053D1*
X2649316Y2000554D1*
X2653605Y2006457D1*
X2658764Y2011617D1*
X2664668Y2015906D1*
X2671169Y2019218D1*
X2678109Y2021473D1*
X2685315Y2022614D1*
X2692612D1*
X2699819Y2021473D1*
X2706759Y2019218D1*
X2713260Y2015906D1*
X2717718Y2012756D1*
X2760577Y2012645D1*
X2766234Y2011749D1*
X2771681Y2009979D1*
X2776784Y2007379D1*
X2781418Y2004013D1*
X2816001Y1969589D1*
X2860468Y1924963D1*
X2863835Y1920329D1*
X2866435Y1915226D1*
X2868205Y1909779D1*
X2869101Y1904122D1*
X2869213Y1855326D1*
Y1701849D1*
X2902759Y1735263D1*
X2907393Y1738630D1*
X2912496Y1741230D1*
X2917943Y1743000D1*
X2923600Y1743896D1*
X2972396Y1744008D1*
X2984273D1*
X2984245Y2120540D1*
X2984694Y2126250D1*
X2986031Y2131819D1*
X2988223Y2137111D1*
X2991215Y2141994D1*
X2994935Y2146349D1*
X3024039Y2175453D1*
X3024998Y2180864D1*
X3027253Y2187803D1*
X3030565Y2194305D1*
X3034854Y2200208D1*
X3040014Y2205367D1*
X3045917Y2209656D1*
X3052418Y2212969D1*
X3059358Y2215224D1*
X3066565Y2216365D1*
X3073861D1*
X3081068Y2215224D1*
X3088008Y2212969D1*
X3094509Y2209656D1*
X3100412Y2205367D1*
X3105572Y2200208D1*
X3109861Y2194305D1*
X3113174Y2187803D1*
X3115509Y2180458D1*
X3120305Y2185503D1*
X3116104Y2189809D1*
X3111815Y2195712D1*
X3108502Y2202214D1*
X3106247Y2209153D1*
X3105322Y2214533D1*
X3092589Y2227263D1*
X2947849Y2227258D1*
X2894200Y2173625D1*
X2894213Y2098796D1*
X2897361Y2094305D1*
X2900674Y2087803D1*
X2902928Y2080864D1*
X2904070Y2073657D1*
Y2066360D1*
X2902928Y2059153D1*
X2900674Y2052214D1*
X2897361Y2045712D1*
X2893072Y2039809D1*
X2887912Y2034650D1*
X2882009Y2030361D1*
X2875508Y2027048D1*
X2868568Y2024793D1*
X2861361Y2023652D1*
X2854065D1*
X2846858Y2024793D1*
X2839918Y2027048D1*
X2833417Y2030361D1*
X2827514Y2034650D1*
X2822354Y2039809D1*
X2818065Y2045712D1*
X2814753Y2052214D1*
X2812498Y2059153D1*
X2811356Y2066360D1*
Y2073657D1*
X2812498Y2080864D1*
X2814753Y2087803D1*
X2818065Y2094305D1*
X2821215Y2098763D1*
X2821326Y2191622D1*
X2822222Y2197279D1*
X2823991Y2202726D1*
X2826592Y2207829D1*
X2829958Y2212463D1*
X2864382Y2247046D1*
X2909008Y2291513D1*
X2913642Y2294879D1*
X2918745Y2297479D1*
X2924192Y2299249D1*
X2929849Y2300145D1*
X2978645Y2300258D1*
X3083965D1*
X3083960Y2633501D1*
X2850435Y2633508D1*
X2850351Y2567143D1*
X2849455Y2561486D1*
X2847685Y2556039D1*
X2845085Y2550936D1*
X2841719Y2546302D1*
X2814775Y2519199D1*
X2810419Y2515479D1*
X2805536Y2512487D1*
X2800244Y2510295D1*
X2794675Y2508958D1*
X2788954Y2508509D1*
X2472431Y2508508D1*
X2476583Y2503590D1*
X2480396Y2497368D1*
X2483188Y2490627D1*
X2484891Y2483532D1*
X2485464Y2476258D1*
X2484891Y2468984D1*
X2483188Y2461888D1*
X2480396Y2455147D1*
X2476583Y2448926D1*
X2471844Y2443377D1*
X2469215Y2440947D1*
X2469213Y2122612D1*
X2760468Y1831212D1*
X2763835Y1826578D1*
X2765240Y1824068D1*
X2769407Y1819221D1*
X2775676Y1812952D1*
X2780887Y1805779D1*
X2784912Y1797879D1*
X2787652Y1789447D1*
X2789039Y1780691D1*
Y1771825D1*
X3110247Y1671008D2*
X2941548D1*
X2924539Y1653965D1*
X2930112Y1653865D1*
X2937319Y1652724D1*
X2944259Y1650469D1*
X2950760Y1647156D1*
X2955218Y1644006D1*
X3183072Y1644009D1*
X3190206Y1651156D1*
X3190209Y1688682D1*
X3188490Y1693139D1*
X3186787Y1700234D1*
X3186574Y1702033D1*
X3184990Y1700234D1*
X3183286Y1693139D1*
X3180494Y1686398D1*
X3176681Y1680176D1*
X3171943Y1674628D1*
X3166394Y1669889D1*
X3160173Y1666077D1*
X3153431Y1663284D1*
X3146336Y1661581D1*
X3139062Y1661008D1*
X3131788Y1661581D1*
X3124693Y1663284D1*
X3117952Y1666077D1*
X3111730Y1669889D1*
X3110308Y1671010D1*
X3057239Y1744008D2*
X3110276D1*
X3114766Y1747156D1*
X3121267Y1750469D1*
X3128207Y1752724D1*
X3134805Y1753793D1*
X3123954Y1764809D1*
X3120588Y1769442D1*
X3117988Y1774546D1*
X3116218Y1779993D1*
X3115322Y1785650D1*
X3115209Y1834445D1*
Y2122416D1*
X3112061Y2126962D1*
X3108749Y2133463D1*
X3106413Y2140808D1*
X3103094Y2137128D1*
X3097545Y2132389D1*
X3091324Y2128577D1*
X3084582Y2125784D1*
X3077487Y2124081D1*
X3075689Y2123868D1*
X3057226Y2105402D1*
X3057245Y1744007D1*
X2878854Y1608282D2*
X2877928Y1602903D1*
X2875674Y1595963D1*
X2874163Y1592686D1*
X2910468Y1556213D1*
X2913835Y1551580D1*
X2916435Y1546476D1*
X2918205Y1541029D1*
X2919101Y1535372D1*
X2919213Y1486577D1*
Y1350253D1*
X3104328Y1350145D1*
X3109985Y1349249D1*
X3115432Y1347479D1*
X3120535Y1344879D1*
X3125169Y1341513D1*
X3145213Y1321628D1*
X3151142Y1326130D1*
X3156245Y1328730D1*
X3161692Y1330500D1*
X3167349Y1331396D1*
X3180225Y1331508D1*
X3180782Y1339783D1*
X3182485Y1346878D1*
X3185277Y1353619D1*
X3189090Y1359840D1*
X3190211Y1361263D1*
X3190209Y1571031D1*
X2955278Y1571008D1*
X2950760Y1567861D1*
X2944259Y1564548D1*
X2937319Y1562293D1*
X2930112Y1561152D1*
X2922815D1*
X2915609Y1562293D1*
X2908669Y1564548D1*
X2902168Y1567861D1*
X2896264Y1572150D1*
X2891105Y1577309D1*
X2886816Y1583212D1*
X2883503Y1589714D1*
X2881249Y1596653D1*
X2880107Y1603860D1*
X2880040Y1609461D1*
X1669151Y2414312D2*
X1670077Y2419692D1*
X1672331Y2426631D1*
X1675644Y2433133D1*
X1679933Y2439036D1*
X1685093Y2444195D1*
X1690996Y2448484D1*
X1697497Y2451797D1*
X1704437Y2454052D1*
X1711644Y2455193D1*
X1718940D1*
X1726147Y2454052D1*
X1733087Y2451797D1*
X1739588Y2448484D1*
X1745491Y2444195D1*
X1750651Y2439036D1*
X1754940Y2433133D1*
X1758252Y2426631D1*
X1760507Y2419692D1*
X1761432Y2414312D1*
X3927238Y1417617D2*
X3921858Y1418543D1*
X3914918Y1420797D1*
X3908417Y1424110D1*
X3903959Y1427260D1*
Y1500256D2*
X3908417Y1503406D1*
X3914918Y1506718D1*
X3921858Y1508973D1*
X3929065Y1510114D1*
X3936361D1*
X3943568Y1508973D1*
X3950508Y1506718D1*
X3957009Y1503406D1*
X3962912Y1499117D1*
X3968072Y1493957D1*
X3972361Y1488054D1*
X3975674Y1481553D1*
X3977928Y1474613D1*
X3978854Y1469233D1*
X1139962Y1486322D2*
X1140075Y1504120D1*
X1140971Y1509777D1*
X1142741Y1515224D1*
X1145341Y1520328D1*
X1148708Y1524961D1*
X1169404Y1545817D1*
X1173759Y1549536D1*
X1178642Y1552529D1*
X1183934Y1554721D1*
X1189503Y1556058D1*
X1195213Y1556507D1*
X1241396D1*
X1245917Y1559655D1*
X1252418Y1562967D1*
X1259358Y1565222D1*
X1266565Y1566364D1*
X1273861D1*
X1281068Y1565222D1*
X1288008Y1562967D1*
X1294509Y1559655D1*
X1300412Y1555366D1*
X1305572Y1550206D1*
X1309861Y1544303D1*
X1313174Y1537802D1*
X1315428Y1530862D1*
X1316570Y1523655D1*
Y1516359D1*
X1315428Y1509152D1*
X1313174Y1502212D1*
X1309861Y1495711D1*
X1305572Y1489808D1*
X1300412Y1484648D1*
X1294509Y1480359D1*
X1288008Y1477047D1*
X1281068Y1474792D1*
X1273861Y1473650D1*
X1266565D1*
X1259358Y1474792D1*
X1252418Y1477047D1*
X1245917Y1480359D1*
X1241459Y1483509D1*
X1214987Y1483507D1*
X1217894Y1478618D1*
X1220687Y1471876D1*
X1222390Y1464781D1*
X1222962Y1457507D1*
X1222390Y1450233D1*
X1220687Y1443138D1*
X1217894Y1436397D1*
X1214082Y1430175D1*
X1209343Y1424627D1*
X1203794Y1419888D1*
X1197573Y1416075D1*
X1190832Y1413283D1*
X1183737Y1411580D1*
X1176462Y1411007D1*
X1169188Y1411580D1*
X1162093Y1413283D1*
X1155352Y1416075D1*
X1149130Y1419888D1*
X1143582Y1424627D1*
X1138843Y1430175D1*
X1135031Y1436397D1*
X1132238Y1443138D1*
X1130535Y1450233D1*
X1129962Y1457507D1*
X1130535Y1464781D1*
X1132238Y1471876D1*
X1135031Y1478618D1*
X1138843Y1484839D1*
X1139965Y1486262D1*
X2258712Y1486323D2*
Y1641200D1*
X2255565Y1645711D1*
X2252252Y1652212D1*
X2249997Y1659152D1*
X2248856Y1666359D1*
Y1673655D1*
X2249997Y1680862D1*
X2252252Y1687802D1*
X2255565Y1694303D1*
X2259854Y1700206D1*
X2265013Y1705366D1*
X2270916Y1709655D1*
X2277418Y1712967D1*
X2284357Y1715222D1*
X2291564Y1716364D1*
X2298861D1*
X2306068Y1715222D1*
X2313007Y1712967D1*
X2319509Y1709655D1*
X2325412Y1705366D1*
X2330704Y1700038D1*
X2334890Y1702529D1*
X2340182Y1704721D1*
X2345751Y1706058D1*
X2351461Y1706507D1*
X2422619D1*
X2427166Y1709655D1*
X2433668Y1712967D1*
X2440607Y1715222D1*
X2447814Y1716364D1*
X2455111D1*
X2462318Y1715222D1*
X2469257Y1712967D1*
X2475759Y1709655D1*
X2481662Y1705366D1*
X2486821Y1700206D1*
X2491110Y1694303D1*
X2494423Y1687802D1*
X2496678Y1680862D1*
X2497819Y1673655D1*
Y1666359D1*
X2496678Y1659152D1*
X2494423Y1652212D1*
X2491110Y1645711D1*
X2486821Y1639808D1*
X2481662Y1634648D1*
X2475759Y1630359D1*
X2469257Y1627047D1*
X2462318Y1624792D1*
X2455111Y1623650D1*
X2447814D1*
X2440607Y1624792D1*
X2433668Y1627047D1*
X2427166Y1630359D1*
X2422708Y1633509D1*
X2369180Y1633507D1*
X2369213Y1426258D1*
X2368764Y1420548D1*
X2367427Y1414979D1*
X2365235Y1409687D1*
X2362242Y1404804D1*
X2358514Y1400441D1*
X2331418Y1373503D1*
X2326784Y1370136D1*
X2321681Y1367536D1*
X2316234Y1365766D1*
X2310577Y1364870D1*
X2280262Y1364758D1*
X2275759Y1361610D1*
X2269257Y1358297D1*
X2262318Y1356043D1*
X2255111Y1354901D1*
X2247814D1*
X2240607Y1356043D1*
X2233668Y1358297D1*
X2227166Y1361610D1*
X2221263Y1365899D1*
X2216104Y1371058D1*
X2211815Y1376962D1*
X2208502Y1383463D1*
X2206247Y1390403D1*
X2205106Y1397609D1*
Y1404906D1*
X2206247Y1412113D1*
X2208502Y1419053D1*
X2211815Y1425554D1*
X2216104Y1431457D1*
X2221263Y1436617D1*
X2227166Y1440906D1*
X2233668Y1444218D1*
X2240607Y1446473D1*
X2247814Y1447614D1*
X2249767Y1447691D1*
X2248856Y1453860D1*
Y1461157D1*
X2249997Y1468364D1*
X2252252Y1475303D1*
X2255565Y1481805D1*
X2258715Y1486263D1*
X2530322Y1662984D2*
X2531247Y1668364D1*
X2533502Y1675303D1*
X2536815Y1681805D1*
X2539965Y1686263D1*
X2612960D2*
X2616110Y1681805D1*
X2619423Y1675303D1*
X2621678Y1668364D1*
X2622819Y1661157D1*
Y1653860D1*
X2621678Y1646653D1*
X2619423Y1639714D1*
X2616110Y1633212D1*
X2614755Y1631184D1*
X1814958Y1919384D2*
X1758668Y1862967D1*
X1765607Y1865222D1*
X1770987Y1866147D1*
X1814976Y1910140D1*
X1814962Y1919372D1*
X1758715Y2060003D2*
X1755565Y2064462D1*
X1753781Y2067647D1*
X1822603Y1814532D2*
X1821678Y1809152D1*
X1819423Y1802212D1*
X1816110Y1795711D1*
X1812960Y1791253D1*
X1739965D2*
X1736815Y1795711D1*
X1733502Y1802212D1*
X1731247Y1809152D1*
X1730106Y1816359D1*
Y1823655D1*
X1731247Y1830862D1*
X1733616Y1838048D1*
X1758422Y1862854D2*
X1765607Y1865222D1*
X1770987Y1866147D1*
X1678792Y2636322D2*
X1678781Y2786397D1*
X1675989Y2793138D1*
X1674286Y2800233D1*
X1673713Y2807507D1*
X1674286Y2814781D1*
X1675989Y2821876D1*
X1678781Y2828618D1*
X1682594Y2834839D1*
X1687333Y2840388D1*
X1692881Y2845126D1*
X1699103Y2848939D1*
X1705844Y2851731D1*
X1712939Y2853435D1*
X1720213Y2854007D1*
X1727487Y2853435D1*
X1734582Y2851731D1*
X1741324Y2848939D1*
X1747545Y2845126D1*
X1753094Y2840388D1*
X1757832Y2834839D1*
X1761645Y2828618D1*
X1764437Y2821876D1*
X1766141Y2814781D1*
X1766713Y2807507D1*
X1766141Y2800233D1*
X1764437Y2793138D1*
X1761645Y2786397D1*
X1757832Y2780175D1*
X1753094Y2774627D1*
X1751784Y2773416D1*
X1751792Y2636334D1*
X1754940Y2631803D1*
X1758252Y2625302D1*
X1760507Y2618362D1*
X1761649Y2611155D1*
Y2603859D1*
X1760507Y2596652D1*
X1758252Y2589712D1*
X1754940Y2583211D1*
X1750651Y2577308D1*
X1745491Y2572148D1*
X1739588Y2567859D1*
X1733087Y2564547D1*
X1726147Y2562292D1*
X1718940Y2561150D1*
X1711644D1*
X1704437Y2562292D1*
X1697497Y2564547D1*
X1690996Y2567859D1*
X1685093Y2572148D1*
X1679933Y2577308D1*
X1675644Y2583211D1*
X1672331Y2589712D1*
X1670077Y2596652D1*
X1668935Y2603859D1*
Y2611155D1*
X1670077Y2618362D1*
X1672331Y2625302D1*
X1675644Y2631803D1*
X1678794Y2636262D1*
X1567777Y2544007D2*
X1903869D1*
X1908417Y2547155D1*
X1914918Y2550467D1*
X1921858Y2552722D1*
X1929065Y2553864D1*
X1936361D1*
X1943568Y2552722D1*
X1950508Y2550467D1*
X1957009Y2547155D1*
X1962912Y2542866D1*
X1968072Y2537706D1*
X1972361Y2531803D1*
X1975674Y2525302D1*
X1977928Y2518362D1*
X1979070Y2511155D1*
Y2503859D1*
X1977928Y2496652D1*
X1975674Y2489712D1*
X1972361Y2483211D1*
X1968072Y2477308D1*
X1962912Y2472148D1*
X1957009Y2467859D1*
X1950508Y2464547D1*
X1943568Y2462292D1*
X1936361Y2461150D1*
X1929065D1*
X1921858Y2462292D1*
X1914918Y2464547D1*
X1908417Y2467859D1*
X1903959Y2471009D1*
X1567807Y2471007D1*
X1563259Y2467859D1*
X1556757Y2464547D1*
X1549818Y2462292D1*
X1542611Y2461150D1*
X1535314D1*
X1528107Y2462292D1*
X1521168Y2464547D1*
X1514666Y2467859D1*
X1508763Y2472148D1*
X1503604Y2477308D1*
X1499315Y2483211D1*
X1496002Y2489712D1*
X1493747Y2496652D1*
X1492606Y2503859D1*
Y2511155D1*
X1493747Y2518362D1*
X1496002Y2525302D1*
X1499315Y2531803D1*
X1503604Y2537706D1*
X1508763Y2542866D1*
X1514666Y2547155D1*
X1521168Y2550467D1*
X1528107Y2552722D1*
X1535314Y2553864D1*
X1542611D1*
X1549818Y2552722D1*
X1556757Y2550467D1*
X1563259Y2547155D1*
X1567717Y2544005D1*
X2511477Y2827258D2*
X2477746D1*
X2475674Y2820963D1*
X2472361Y2814462D1*
X2468072Y2808558D1*
X2462912Y2803399D1*
X2457009Y2799110D1*
X2450508Y2795797D1*
X2443568Y2793543D1*
X2436361Y2792401D1*
X2429065D1*
X2421858Y2793543D1*
X2414918Y2795797D1*
X2408417Y2799110D1*
X2402514Y2803399D1*
X2397354Y2808558D1*
X2393065Y2814462D1*
X2389753Y2820963D1*
X2387498Y2827903D1*
X2386356Y2835109D1*
Y2842406D1*
X2387498Y2849613D1*
X2389753Y2856553D1*
X2393065Y2863054D1*
X2397354Y2868957D1*
X2402514Y2874117D1*
X2408417Y2878406D1*
X2414918Y2881718D1*
X2421858Y2883973D1*
X2427238Y2884898D1*
X2434008Y2891513D1*
X2438642Y2894879D1*
X2443745Y2897479D1*
X2449192Y2899249D1*
X2454849Y2900145D1*
X2475404Y2900258D1*
X2472708Y2902260D1*
X1660301Y2902258D1*
X1637960Y2879886D1*
X1637963Y2636318D1*
X1641110Y2631803D1*
X1644423Y2625302D1*
X1646678Y2618362D1*
X1647819Y2611155D1*
Y2603859D1*
X1646678Y2596652D1*
X1644423Y2589712D1*
X1641110Y2583211D1*
X1636821Y2577308D1*
X1631662Y2572148D1*
X1625759Y2567859D1*
X1619257Y2564547D1*
X1612318Y2562292D1*
X1605111Y2561150D1*
X1597814D1*
X1590607Y2562292D1*
X1583668Y2564547D1*
X1577166Y2567859D1*
X1571263Y2572148D1*
X1566104Y2577308D1*
X1561815Y2583211D1*
X1558502Y2589712D1*
X1556247Y2596652D1*
X1555106Y2603859D1*
Y2611155D1*
X1556247Y2618362D1*
X1558502Y2625302D1*
X1561815Y2631803D1*
X1564965Y2636262D1*
X1565075Y2897871D1*
X1565971Y2903528D1*
X1567741Y2908975D1*
X1570341Y2914078D1*
X1573708Y2918712D1*
X1608132Y2953295D1*
X1621508Y2966513D1*
X1626142Y2969879D1*
X1631245Y2972479D1*
X1636692Y2974249D1*
X1642349Y2975145D1*
X1691145Y2975258D1*
X2472667D1*
X2477166Y2978406D1*
X2483668Y2981718D1*
X2490607Y2983973D1*
X2497814Y2985114D1*
X2505111D1*
X2512318Y2983973D1*
X2519257Y2981718D1*
X2525759Y2978406D1*
X2531662Y2974117D1*
X2536821Y2968957D1*
X2541110Y2963054D1*
X2544423Y2956553D1*
X2546678Y2949613D1*
X2547819Y2942406D1*
Y2935109D1*
X2546678Y2927903D1*
X2544423Y2920963D1*
X2541110Y2914462D1*
X2538119Y2910205D1*
X2543940Y2910114D1*
X2551147Y2908973D1*
X2558087Y2906718D1*
X2564588Y2903406D1*
X2570491Y2899117D1*
X2575651Y2893957D1*
X2579940Y2888054D1*
X2583252Y2881553D1*
X2585507Y2874613D1*
X2586649Y2867406D1*
Y2860109D1*
X2585507Y2852903D1*
X2583252Y2845963D1*
X2579940Y2839462D1*
X2575651Y2833558D1*
X2570491Y2828399D1*
X2564588Y2824110D1*
X2558087Y2820797D1*
X2551147Y2818543D1*
X2543940Y2817401D1*
X2536644D1*
X2529437Y2818543D1*
X2522497Y2820797D1*
X2515996Y2824110D1*
X2511537Y2827260D1*
X2963147Y2467573D2*
X2912669Y2417253D1*
X2908035Y2413887D1*
X2902932Y2411287D1*
X2897485Y2409517D1*
X2891828Y2408621D1*
X2843032Y2408508D1*
X2735344D1*
X2703878Y2377053D1*
X2702928Y2371652D1*
X2700674Y2364712D1*
X2697361Y2358211D1*
X2693072Y2352308D1*
X2687912Y2347148D1*
X2682009Y2342859D1*
X2675508Y2339547D1*
X2668568Y2337292D1*
X2661361Y2336150D1*
X2654065D1*
X2646858Y2337292D1*
X2639918Y2339547D1*
X2633417Y2342859D1*
X2627514Y2347148D1*
X2622354Y2352308D1*
X2618065Y2358211D1*
X2614753Y2364712D1*
X2612498Y2371652D1*
X2611356Y2378859D1*
Y2386155D1*
X2612498Y2393362D1*
X2614753Y2400302D1*
X2618065Y2406803D1*
X2622354Y2412706D1*
X2627514Y2417866D1*
X2633417Y2422155D1*
X2639918Y2425467D1*
X2646858Y2427722D1*
X2652238Y2428647D1*
X2696509Y2472763D1*
X2701143Y2476130D1*
X2706246Y2478730D1*
X2711694Y2480500D1*
X2717351Y2481396D1*
X2766146Y2481509D1*
X2873835D1*
X2911542Y2519206D1*
X2912498Y2524613D1*
X2914753Y2531553D1*
X2918065Y2538054D1*
X2922354Y2543957D1*
X2927514Y2549117D1*
X2933417Y2553406D1*
X2939918Y2556718D1*
X2946858Y2558973D1*
X2954065Y2560114D1*
X2961361D1*
X2968568Y2558973D1*
X2975508Y2556718D1*
X2982009Y2553406D1*
X2987912Y2549117D1*
X2993072Y2543957D1*
X2997361Y2538054D1*
X3000674Y2531553D1*
X3002928Y2524613D1*
X3004070Y2517406D1*
Y2510109D1*
X3002928Y2502903D1*
X3000674Y2495963D1*
X2997361Y2489462D1*
X2993072Y2483558D1*
X2987912Y2478399D1*
X2982009Y2474110D1*
X2975508Y2470797D1*
X2968568Y2468543D1*
X2963189Y2467617D1*
X3730317Y1558509D2*
X3725858Y1555359D1*
X3719357Y1552047D1*
X3712417Y1549792D1*
X3705211Y1548650D1*
X3697914D1*
X3690707Y1549792D1*
X3683767Y1552047D1*
X3677266Y1555359D1*
X3672808Y1558509D1*
X3657094Y1631503D2*
X3655635Y1637733D1*
X3655062Y1645007D1*
X3655635Y1652281D1*
X3657338Y1659376D1*
X3660130Y1666118D1*
X3663943Y1672339D1*
X3665064Y1673762D1*
X1863962Y3699621D2*
D14*
Y3540393D1*
X1784349Y3620007D2*
X1943576D1*
X2063962Y3699621D2*
Y3540393D1*
X1984349Y3620007D2*
X2143576D1*
X2063962Y3820007D2*
Y3740393D1*
X1984349Y3820007D2*
X2143576D1*
X1863962D2*
Y3740393D1*
X1784349Y3820007D2*
X1943576D1*
X3832713Y2755871D2*
Y2596644D1*
Y2676258D2*
X3912327D1*
X3832713Y2555871D2*
Y2396644D1*
Y2476258D2*
X3912327D1*
X4032713Y2555871D2*
Y2396644D1*
X3953099Y2476258D2*
X4032713D1*
Y2755871D2*
Y2596644D1*
X3953099Y2676258D2*
X4032713D1*
X2376462Y3699621D2*
Y3540393D1*
X2296849Y3620007D2*
X2456076D1*
X2576462Y3699621D2*
Y3540393D1*
X2496849Y3620007D2*
X2656076D1*
X2576462Y3820007D2*
Y3740393D1*
X2496849Y3820007D2*
X2656076D1*
X2376462D2*
Y3740393D1*
X2296849Y3820007D2*
X2456076D1*
X722982Y1977852D2*
X842445D1*
X722982Y1869151D2*
X842445D1*
X3826464Y3180871D2*
Y3021644D1*
X3746850Y3101258D2*
X3906078D1*
X3826464Y2980871D2*
Y2821644D1*
Y2901258D2*
X3906078D1*
X4026464Y2980871D2*
Y2821644D1*
X3946850Y2901258D2*
X4106078D1*
X4026464Y3180871D2*
Y3021644D1*
X3946850Y3101258D2*
X4106078D1*
D19*
X1863962Y3620007D3*
X2063962D3*
Y3820007D3*
X1863962D3*
D20*
X1963962Y3720007D3*
D19*
X3832713Y2676258D3*
Y2476258D3*
X4032713D3*
Y2676258D3*
D20*
X3932713Y2576258D3*
D19*
X2376462Y3620007D3*
X2576462D3*
Y3820007D3*
X2376462D3*
D20*
X2476462Y3720007D3*
D21*
X782714Y2738758D3*
D22*
Y2630057D3*
Y2521356D3*
Y2412655D3*
Y2303955D3*
Y2195254D3*
Y2086553D3*
Y1977852D3*
Y1869151D3*
Y1760451D3*
Y1651750D3*
Y1543049D3*
Y1434348D3*
X670903Y2684401D3*
Y2575700D3*
Y2466999D3*
Y2358298D3*
Y2249598D3*
Y2140897D3*
Y2032196D3*
Y1923495D3*
Y1814794D3*
Y1706094D3*
Y1597393D3*
Y1488692D3*
D23*
X726808Y1160333D3*
Y3012773D3*
D19*
X3826464Y3101258D3*
Y2901258D3*
X4026464D3*
Y3101258D3*
D20*
X3926464Y3001258D3*
D24*
X3657713Y2495008D3*
D25*
Y2995008D3*
X3357713D3*
Y2695008D3*
Y2495008D3*
D24*
X3757713Y1813758D3*
D25*
Y2313758D3*
X3457713D3*
Y2013758D3*
Y1813758D3*
D26*
X1163962Y1920008D3*
X1488962Y1370007D3*
X1163962Y2126256D3*
Y2026258D3*
X1626462Y1720008D3*
X1501462Y2301258D3*
X2095213Y2007507D3*
X2138964Y1626258D3*
X2601462Y1576258D3*
X2732713Y1776258D3*
X2670263Y2888758D3*
M02*
