G04 DipTrace 3.3.1.3*
G04 BottomMask.gbr*
%MOIN*%
G04 #@! TF.FileFunction,Soldermask,Bot*
G04 #@! TF.Part,Single*
%ADD30C,0.125*%
%ADD42C,0.06788*%
%ADD44C,0.066935*%
%ADD46R,0.066935X0.066935*%
%ADD48C,0.195282*%
%ADD50C,0.074415*%
%ADD52R,0.074415X0.074415*%
%ADD54C,0.106305*%
%ADD56C,0.114179*%
%FSLAX26Y26*%
G04*
G70*
G90*
G75*
G01*
G04 BotMask*
%LPD*%
D30*
X595213Y3638756D3*
Y738759D3*
X3970213Y595008D3*
Y3745008D3*
D56*
X1863962Y3620007D3*
X2063962D3*
Y3820007D3*
X1863962D3*
D54*
X1963962Y3720007D3*
D56*
X3832713Y2676258D3*
Y2476258D3*
X4032713D3*
Y2676258D3*
D54*
X3932713Y2576258D3*
D56*
X2376462Y3620007D3*
X2576462D3*
Y3820007D3*
X2376462D3*
D54*
X2476462Y3720007D3*
D52*
X782714Y2738758D3*
D50*
Y2630057D3*
Y2521356D3*
Y2412655D3*
Y2303955D3*
Y2195254D3*
Y2086553D3*
Y1977852D3*
Y1869151D3*
Y1760451D3*
Y1651750D3*
Y1543049D3*
Y1434348D3*
X670903Y2684401D3*
Y2575700D3*
Y2466999D3*
Y2358298D3*
Y2249598D3*
Y2140897D3*
Y2032196D3*
Y1923495D3*
Y1814794D3*
Y1706094D3*
Y1597393D3*
Y1488692D3*
D48*
X726808Y1160333D3*
Y3012773D3*
D56*
X3826464Y3101258D3*
Y2901258D3*
X4026464D3*
Y3101258D3*
D54*
X3926464Y3001258D3*
D46*
X3657713Y2495008D3*
D44*
Y2995008D3*
X3357713D3*
Y2695008D3*
Y2495008D3*
D46*
X3757713Y1813758D3*
D44*
Y2313758D3*
X3457713D3*
Y2013758D3*
Y1813758D3*
D42*
X1163962Y1920008D3*
X1488962Y1370007D3*
X1163962Y2126256D3*
Y2026258D3*
X1626462Y1720008D3*
X1501462Y2301258D3*
X2095213Y2007507D3*
X2138964Y1626258D3*
X2601462Y1576258D3*
X2732713Y1776258D3*
X2670263Y2888758D3*
M02*
