M48
INCH
T01C0.019
T02C0.0354
T03C0.038
T04C0.0429
T05C0.0591
T06C0.0669
T07C0.125
T08C0.1283
%
T01
X+021265Y+017388
X+022390Y+018200
X+022952Y+016700
X+024515Y+016700
X+025390Y+017450
X+025765Y+016575
X+025515Y+015013
X+022952Y+014575
X+022515Y+014013
X+022390Y+015200
X+022782Y+011950
X+024577Y+011888
X+027515Y+012450
X+028265Y+012450
X+029202Y+012200
X+029202Y+011700
X+028328Y+013825
X+028327Y+016138
X+029265Y+016075
X+031391Y+017075
X+032327Y+017075
X+033015Y+017075
X+033015Y+019013
X+032265Y+021513
X+031517Y+021513
X+031515Y+022200
X+030702Y+021700
X+032265Y+023388
X+029577Y+025138
X+028202Y+026763
X+028140Y+027263
X+027390Y+025888
X+025327Y+026138
X+024265Y+025450
X+024390Y+024763
X+023702Y+023450
X+023390Y+022325
X+021640Y+024138
X+021702Y+024638
X+020676Y+025888
X+019890Y+025888
X+019327Y+025075
X+019640Y+023575
X+020202Y+022448
X+019077Y+020263
X+017952Y+020888
X+017202Y+020263
X+015892Y+018950
X+017765Y+018200
X+019890Y+018263
X+018952Y+013950
X+015140Y+012138
X+013952Y+012825
X+013515Y+014138
X+012702Y+015200
X+011765Y+014575
X+011765Y+016200
X+012764Y+016700
X+012765Y+017200
X+014015Y+017200
X+012827Y+019763
X+012765Y+021763
X+012765Y+022263
X+014891Y+022263
X+013452Y+024575
X+012426Y+025075
X+012390Y+025825
X+015390Y+025075
X+016015Y+026075
X+017153Y+026075
X+017202Y+025575
X+017153Y+024088
X+018077Y+027075
X+017202Y+028075
X+023765Y+027388
X+024327Y+027263
X+024327Y+028388
X+025403Y+028638
X+025015Y+029388
X+026703Y+029763
X+026490Y+027825
X+029702Y+029638
X+030266Y+027763
X+030266Y+027263
X+031205Y+027763
X+032015Y+029825
X+035327Y+029950
X+035077Y+026825
X+028577Y+020700
X+026890Y+019763
X+026140Y+018200
X+026577Y+023825
X+033015Y+014575
X+032267Y+013325
X+032265Y+012575
X+033015Y+012450
X+031452Y+012700
X+036327Y+012263
X+037016Y+015950
X+037016Y+016450
X+039327Y+016450
X+039327Y+015638
X+039327Y+014638
X+040077Y+013888
X+009765Y+020763
X+010327Y+023200
X+011140Y+032700
X+013327Y+033890
X+013327Y+036261
X+011140Y+036263
T02
X+036577Y+024950
X+037577Y+023138
X+034577Y+023138
X+033577Y+024950
X+033577Y+026950
X+033577Y+029950
X+036577Y+029950
X+034577Y+020138
X+034577Y+018138
X+037577Y+018138
T03
X+011640Y+019200
X+011640Y+020263
X+011640Y+021263
X+015015Y+023013
X+016265Y+017200
X+014890Y+013700
X+021390Y+016263
X+020952Y+020075
X+026015Y+015763
X+027327Y+017763
X+026703Y+028888
T04
X+007827Y+027388
X+007827Y+026301
X+007827Y+025214
X+007827Y+024127
X+007827Y+023040
X+007827Y+021953
X+007827Y+020866
X+007827Y+019779
X+007827Y+018692
X+007827Y+017605
X+007827Y+016517
X+007827Y+015430
X+007827Y+014343
X+006709Y+014887
X+006709Y+015974
X+006709Y+017061
X+006709Y+018148
X+006709Y+019235
X+006709Y+020322
X+006709Y+021409
X+006709Y+022496
X+006709Y+023583
X+006709Y+024670
X+006709Y+025757
X+006709Y+026844
T05
X+019640Y+037200
X+024765Y+037200
X+039265Y+030013
X+039327Y+025763
T06
X+018640Y+036200
X+020640Y+036200
X+020640Y+038200
X+018640Y+038200
X+023765Y+038200
X+023765Y+036200
X+025765Y+036200
X+025765Y+038200
X+038265Y+031013
X+038265Y+029013
X+040265Y+029013
X+040265Y+031013
X+040327Y+026763
X+040327Y+024763
X+038327Y+024763
X+038327Y+026763
T07
X+005952Y+036388
X+005952Y+007388
X+039702Y+005950
X+039702Y+037450
T08
X+007268Y+011603
X+007268Y+030128
T00
M30
