G04 DipTrace 3.3.1.3*
G04 TopPaste.gbr*
%MOIN*%
G04 #@! TF.FileFunction,Paste,Top*
G04 #@! TF.Part,Single*
%ADD41R,0.07086X0.015742*%
%ADD59R,0.086608X0.086608*%
%ADD61R,0.043301X0.051175*%
%ADD63R,0.051175X0.043301*%
%FSLAX26Y26*%
G04*
G70*
G90*
G75*
G01*
G04 TopPaste*
%LPD*%
D63*
X1176462Y1457507D3*
Y1532310D3*
D61*
X1663962Y2226258D3*
X1589159D3*
X1663962Y2307507D3*
X1589159D3*
D63*
X2538962Y1745008D3*
Y1819812D3*
X2613962Y1745008D3*
Y1819812D3*
D61*
X1663962Y1820008D3*
X1589159D3*
X1663962Y1895008D3*
X1589159D3*
D63*
X2076462Y1826258D3*
Y1901061D3*
X2151462Y1826258D3*
Y1901061D3*
X1176462Y1620008D3*
Y1694812D3*
X2451462Y1407507D3*
Y1332704D3*
X2020213Y2170008D3*
Y2244812D3*
D61*
X1167752Y2432508D3*
X1242556D3*
X1167752Y2507508D3*
X1242556D3*
X1874002Y2407508D3*
X1799199D3*
X1874002Y2338756D3*
X1799199D3*
D63*
X2067752Y2438758D3*
Y2513561D3*
X1992752Y2438758D3*
Y2513561D3*
D61*
X2649003Y2707508D3*
X2723806D3*
X2649003Y2782508D3*
X2723806D3*
X2970263Y2970008D3*
X2895460D3*
X3195263Y2776258D3*
X3120460D3*
X3196995Y2851258D3*
X3122192D3*
X2738964Y2588758D3*
X2813767D3*
X2738964Y2520008D3*
X2813767D3*
D63*
X3201512Y2982508D3*
Y3057312D3*
D61*
X3001512Y2307507D3*
X2926709D3*
X3226512Y2151258D3*
X3151709D3*
X3226512Y2220008D3*
X3151709D3*
X2757763Y2051258D3*
X2682960D3*
X2757763Y1976258D3*
X2682960D3*
D63*
X3226512Y2338758D3*
Y2413561D3*
D61*
X3063914Y1895008D3*
X2989111D3*
X3301512Y1707508D3*
X3226709D3*
X3301512Y1776258D3*
X3226709D3*
D63*
X2832713Y1682507D3*
Y1607704D3*
X2757713Y1682507D3*
Y1607704D3*
X3301512Y1901258D3*
Y1976061D3*
D61*
X3057763Y1457508D3*
X2982960D3*
X3301512Y1263758D3*
X3226709D3*
X3301512Y1332508D3*
X3226709D3*
X2751512Y1245008D3*
X2826315D3*
X2751512Y1170008D3*
X2826315D3*
D63*
X3301512Y1457508D3*
Y1532312D3*
D61*
X3557713Y1226258D3*
X3632516D3*
X3557713Y1151258D3*
X3632516D3*
D59*
X2451464Y1195007D3*
X2278235D3*
X2163962Y2245008D3*
X2337191D3*
D63*
X1226463Y3388758D3*
Y3463561D3*
X1332713Y3463758D3*
Y3388955D3*
D61*
X4007713Y1645008D3*
X3932910D3*
X4007713Y1570008D3*
X3932910D3*
D63*
X1013963Y3463561D3*
Y3388758D3*
X1120213D3*
Y3463561D3*
D61*
X1663962Y1620007D3*
X1589159D3*
X1663962Y1545008D3*
X1589159D3*
X1176464Y1770007D3*
X1101661D3*
X1420212Y2307507D3*
X1345409D3*
D63*
X1013963Y3551258D3*
Y3626061D3*
X1120213Y3551258D3*
Y3626061D3*
X1226463Y3551258D3*
Y3626061D3*
X1332713Y3551258D3*
Y3626061D3*
X3932713Y1388758D3*
Y1463561D3*
X4007713Y1463758D3*
Y1388955D3*
D61*
X1167752Y2582507D3*
X1242556D3*
X1992752Y2588758D3*
X2067556D3*
X2745263Y3051258D3*
X2820066D3*
X2895361D3*
X2970165D3*
X2670263Y2976258D3*
X2745066D3*
X3045263Y3051258D3*
X3120066D3*
X2789014Y2382507D3*
X2863817D3*
X2926512D3*
X3001315D3*
X3070263Y2413758D3*
X3145066D3*
X2645262Y2382507D3*
X2720065D3*
X2845262Y1976258D3*
X2920065D3*
X2989012D3*
X3063815D3*
D63*
X2845212Y1820008D3*
Y1894812D3*
D61*
X3145262Y1976258D3*
X3220065D3*
X2832763Y1532508D3*
X2907566D3*
X2982763D3*
X3057566D3*
X3139012D3*
X3213815D3*
D63*
X2832763Y1382508D3*
Y1457312D3*
D41*
X1276414Y1820007D3*
Y1770007D3*
Y1720007D3*
Y1670007D3*
Y1620007D3*
Y1570007D3*
Y1520007D3*
Y1470007D3*
X1489012D3*
Y1520007D3*
Y1570007D3*
Y1620007D3*
Y1670007D3*
Y1720007D3*
Y1770007D3*
Y1820007D3*
X1276462Y2226256D3*
Y2176256D3*
Y2126256D3*
Y2076256D3*
Y2026256D3*
Y1976256D3*
Y1926256D3*
X1489061D3*
Y1976256D3*
Y2026256D3*
Y2076256D3*
Y2126256D3*
Y2176256D3*
Y2226256D3*
X2238962Y1820007D3*
Y1770007D3*
Y1720007D3*
Y1670007D3*
Y1620007D3*
Y1570007D3*
Y1520007D3*
X2451561D3*
Y1570007D3*
Y1620007D3*
Y1670007D3*
Y1720007D3*
Y1770007D3*
Y1820007D3*
X2813964Y2826258D3*
Y2776258D3*
Y2726258D3*
Y2676258D3*
X3026562D3*
Y2726258D3*
Y2776258D3*
Y2826258D3*
X1776462Y1820007D3*
Y1770007D3*
Y1720007D3*
Y1670007D3*
Y1620007D3*
Y1570007D3*
Y1520007D3*
X1989061D3*
Y1570007D3*
Y1620007D3*
Y1670007D3*
Y1720007D3*
Y1770007D3*
Y1820007D3*
X2857713Y2220008D3*
Y2170008D3*
Y2120008D3*
Y2070008D3*
X3070312D3*
Y2120008D3*
Y2170008D3*
Y2220008D3*
X1345213Y2857507D3*
Y2807507D3*
Y2757507D3*
Y2707507D3*
Y2657507D3*
Y2607507D3*
Y2557507D3*
Y2507507D3*
Y2457507D3*
Y2407507D3*
X1715292D3*
Y2457507D3*
Y2507507D3*
Y2557507D3*
Y2607507D3*
Y2657507D3*
Y2707507D3*
Y2757507D3*
Y2807507D3*
Y2857507D3*
X2170213Y2863758D3*
Y2813758D3*
Y2763758D3*
Y2713758D3*
Y2663758D3*
Y2613758D3*
Y2563758D3*
Y2513758D3*
Y2463758D3*
Y2413758D3*
X2540292D3*
Y2463758D3*
Y2513758D3*
Y2563758D3*
Y2613758D3*
Y2663758D3*
Y2713758D3*
Y2763758D3*
Y2813758D3*
Y2863758D3*
X2926464Y1757508D3*
Y1707508D3*
Y1657508D3*
Y1607508D3*
X3139062D3*
Y1657508D3*
Y1707508D3*
Y1757508D3*
X2920213Y1320008D3*
Y1270008D3*
Y1220008D3*
Y1170008D3*
X3132812D3*
Y1220008D3*
Y1270008D3*
Y1320008D3*
X3488964Y1645007D3*
Y1595007D3*
Y1545007D3*
Y1495007D3*
Y1445007D3*
Y1395007D3*
Y1345007D3*
Y1295007D3*
X3701562D3*
Y1345007D3*
Y1395007D3*
Y1445007D3*
Y1495007D3*
Y1545007D3*
Y1595007D3*
Y1645007D3*
M02*
