G04 DipTrace 3.3.1.3*
G04 TopSilk.gbr*
%MOIN*%
G04 #@! TF.FileFunction,Legend,Top*
G04 #@! TF.Part,Single*
%ADD10C,0.004724*%
%ADD17C,0.023631*%
%ADD64C,0.00772*%
%FSLAX26Y26*%
G04*
G70*
G90*
G75*
G01*
G04 TopSilk*
%LPD*%
X1202033Y1416148D2*
D10*
X1150892D1*
X1705322Y2251829D2*
Y2200687D1*
Y2333078D2*
Y2281936D1*
X2564533Y1703649D2*
X2513392D1*
X2639533D2*
X2588392D1*
X1705322Y1845579D2*
Y1794438D1*
Y1920579D2*
Y1869438D1*
X2102033Y1784898D2*
X2050892D1*
X2177033D2*
X2125892D1*
X1202033Y1578649D2*
X1150892D1*
X2425892Y1448867D2*
X2477033D1*
X2045784Y2128649D2*
X1994642D1*
X1126393Y2406938D2*
Y2458079D1*
Y2481938D2*
Y2533079D1*
X1915361Y2433079D2*
Y2381938D1*
Y2364327D2*
Y2313186D1*
X2093323Y2397398D2*
X2042182D1*
X2018323D2*
X1967182D1*
X2607644Y2681938D2*
Y2733079D1*
Y2756938D2*
Y2808079D1*
X3011623Y2995579D2*
Y2944438D1*
X3236623Y2801829D2*
Y2750687D1*
X3238355Y2876829D2*
Y2825687D1*
X2697604Y2563187D2*
Y2614329D1*
Y2494438D2*
Y2545579D1*
X3227083Y2941149D2*
X3175941D1*
X3042872Y2333078D2*
Y2281936D1*
X3267872Y2176829D2*
Y2125687D1*
Y2245579D2*
Y2194438D1*
X2799123Y2076829D2*
Y2025687D1*
Y2001829D2*
Y1950687D1*
X3252083Y2297398D2*
X3200941D1*
X3105273Y1920579D2*
Y1869438D1*
X3342872Y1733079D2*
Y1681938D1*
Y1801829D2*
Y1750687D1*
X2807142Y1723867D2*
X2858284D1*
X2732142D2*
X2783284D1*
X3327083Y1859898D2*
X3275941D1*
X3099123Y1483079D2*
Y1431938D1*
X3342872Y1289329D2*
Y1238187D1*
Y1358079D2*
Y1306938D1*
X2710153Y1219438D2*
Y1270579D1*
Y1144438D2*
Y1195579D1*
X3327083Y1416149D2*
X3275941D1*
X3516354Y1200687D2*
Y1251829D1*
Y1125687D2*
Y1176829D1*
X2453436Y1124138D2*
X2276264D1*
X2453436Y1265874D2*
X2276264D1*
Y1124138D2*
Y1133988D1*
X2453436Y1124138D2*
Y1133988D1*
X2276264Y1256023D2*
Y1265874D1*
X2453436Y1256023D2*
Y1265874D1*
D17*
X2525278Y1195006D3*
X2161990Y2315878D2*
D10*
X2339162D1*
X2161990Y2174142D2*
X2339162D1*
Y2315878D2*
Y2306027D1*
X2161990Y2315878D2*
Y2306027D1*
X2339162Y2183992D2*
Y2174142D1*
X2161990Y2183992D2*
Y2174142D1*
D17*
X2090148Y2245010D3*
X1810419Y3877452D2*
D10*
Y3916838D1*
X2117506D1*
Y3877452D1*
X1806482Y3779068D2*
Y3660991D1*
X1904907Y3877452D2*
X2023018D1*
X2121443Y3779068D2*
Y3660991D1*
X1904907Y3562527D2*
X2023018D1*
X1845852Y3916838D2*
Y4369613D1*
X2082073D1*
Y3916838D1*
X4090158Y2729801D2*
X4129544D1*
Y2422714D1*
X4090158D1*
X3991774Y2733738D2*
X3873697D1*
X4090158Y2635313D2*
Y2517203D1*
X3991774Y2418777D2*
X3873697D1*
X3775233Y2635313D2*
Y2517203D1*
X4129544Y2694368D2*
X4582319D1*
Y2458148D1*
X4129544D1*
X2322919Y3877452D2*
Y3916838D1*
X2630006D1*
Y3877452D1*
X2318982Y3779068D2*
Y3660991D1*
X2417407Y3877452D2*
X2535518D1*
X2633943Y3779068D2*
Y3660991D1*
X2417407Y3562527D2*
X2535518D1*
X2358352Y3916838D2*
Y4369613D1*
X2594573D1*
Y3916838D1*
X143975Y2868384D2*
G03X116285Y2841207I276J-27977D01*
G01*
X352380Y1273293D2*
G03X324690Y1300470I-27967J-799D01*
G01*
Y2868384D2*
G03X352380Y2895561I-276J27977D01*
G01*
X116285Y1327648D2*
G03X143975Y1300470I27967J799D01*
G01*
X141789Y1160403D2*
G03X141789Y1060057I51488J-50173D01*
G01*
Y1258659D2*
G03X141789Y1158313I51488J-50173D01*
G01*
X325419D2*
G03X325419Y1258659I-51488J50173D01*
G01*
Y1060057D2*
G03X325419Y1160403I-51488J50173D01*
G01*
X141789Y3010541D2*
G03X141789Y2910195I51488J-50173D01*
G01*
Y3108797D2*
G03X141789Y3010541I48918J-49128D01*
G01*
X325419D2*
G03X325419Y3108797I-48918J49128D01*
G01*
Y2910195D2*
G03X325419Y3010541I-51488J50173D01*
G01*
X352380Y3129703D2*
X844974D1*
X352380Y1039151D2*
X844974D1*
Y3129703D2*
Y1039151D1*
X470428Y2793124D2*
X844974D1*
X352380Y3129703D2*
Y1039151D1*
X470428Y1375730D2*
X844974D1*
X116285Y2841207D2*
Y1327648D1*
X143975Y2868384D2*
X324690D1*
X143975Y1300470D2*
X324690D1*
X470428Y3129703D2*
Y1039151D1*
X350194Y1085144D2*
X325419Y1060057D1*
X141789D2*
X325419D1*
X116285Y1085144D2*
X141061Y1060057D1*
X116285Y1233573D2*
Y1085144D1*
X141061Y1258659D2*
X116285Y1233573D1*
X183324Y1258659D2*
X191340D1*
X141789D2*
X325419D1*
X350194Y1233573D1*
X141789Y1158313D2*
X325419D1*
X350194Y2935281D2*
X325419Y2910195D1*
X141789D2*
X325419D1*
X116285Y2935281D2*
X141061Y2910195D1*
X116285Y3083710D2*
Y2935281D1*
X141061Y3108797D2*
X116285Y3083710D1*
X183324Y3108797D2*
X191340D1*
X141789D2*
X325419D1*
X350194Y3083710D1*
X141789Y3010541D2*
X325419D1*
X4083909Y3154801D2*
X4123294D1*
Y2847714D1*
X4083909D1*
X3985525Y3158738D2*
X3867448D1*
X4083909Y3060313D2*
Y2942203D1*
X3985525Y2843777D2*
X3867448D1*
X3768983Y3060313D2*
Y2942203D1*
X4123294Y3119368D2*
X4576070D1*
Y2883148D1*
X4123294D1*
X3314800Y2453670D2*
Y3036347D1*
X3700627D1*
Y2453670D1*
X3314800D1*
X3414800Y1772419D2*
Y2355096D1*
X3800627D1*
Y1772419D1*
X3414800D1*
X1120655Y1920008D2*
G02X1120655Y1920008I43307J0D01*
G01*
X1445655Y1370007D2*
G02X1445655Y1370007I43307J0D01*
G01*
X1120655Y2126256D2*
G02X1120655Y2126256I43307J0D01*
G01*
Y2026258D2*
G02X1120655Y2026258I43307J0D01*
G01*
X1583155Y1720008D2*
G02X1583155Y1720008I43307J0D01*
G01*
X1458155Y2301258D2*
G02X1458155Y2301258I43307J0D01*
G01*
X2051906Y2007507D2*
G02X2051906Y2007507I43307J0D01*
G01*
X2095657Y1626258D2*
G02X2095657Y1626258I43307J0D01*
G01*
X2558155Y1576258D2*
G02X2558155Y1576258I43307J0D01*
G01*
X2689406Y1776258D2*
G02X2689406Y1776258I43307J0D01*
G01*
X2626956Y2888758D2*
G02X2626956Y2888758I43307J0D01*
G01*
X1331525Y1841842D2*
Y1448172D1*
X1433901Y1841842D2*
Y1448172D1*
X1331525D2*
X1433901D1*
X1331525Y1841842D2*
X1363019D1*
X1402408D2*
X1433901D1*
X1363019D2*
G03X1402408Y1841842I19694J11D01*
G01*
X1331573Y2245553D2*
Y1906960D1*
X1433950Y2245553D2*
Y1906960D1*
X1331573D2*
X1433950D1*
X1331573Y2245553D2*
X1363067D1*
X1402456D2*
X1433950D1*
X1363067D2*
G03X1402456Y2245553I19694J-12D01*
G01*
X2294073Y1839304D2*
Y1500710D1*
X2396450Y1839304D2*
Y1500710D1*
X2294073D2*
X2396450D1*
X2294073Y1839304D2*
X2325567D1*
X2364956D2*
X2396450D1*
X2325567D2*
G03X2364956Y1839304I19694J-12D01*
G01*
X2869075Y2849685D2*
Y2652831D1*
X2971451Y2849685D2*
Y2652831D1*
X2869075D2*
X2971451D1*
X2900569Y2849685D2*
X2869075D1*
X2939957D2*
X2971451D1*
X2900569D2*
G03X2939957Y2849685I19694J9D01*
G01*
X1831573Y1839304D2*
Y1500710D1*
X1933950Y1839304D2*
Y1500710D1*
X1831573D2*
X1933950D1*
X1831573Y1839304D2*
X1863067D1*
X1902456D2*
X1933950D1*
X1863067D2*
G03X1902456Y1839304I19694J-12D01*
G01*
X2912824Y2243436D2*
Y2046581D1*
X3015201Y2243436D2*
Y2046581D1*
X2912824D2*
X3015201D1*
X2944318Y2243436D2*
X2912824D1*
X2983707D2*
X3015201D1*
X2944318D2*
G03X2983707Y2243436I19694J9D01*
G01*
X1402294Y2884452D2*
Y2380562D1*
X1654261Y2884452D2*
Y2380562D1*
X1402294D2*
X1654261D1*
X1402294Y2884452D2*
X1496771D1*
X1559785D2*
X1654261D1*
X1496771D2*
G03X1559785Y2884452I31507J64D01*
G01*
X2227294Y2890703D2*
Y2386813D1*
X2479261Y2890703D2*
Y2386813D1*
X2227294D2*
X2479261D1*
X2227294Y2890703D2*
X2321771D1*
X2384785D2*
X2479261D1*
X2321771D2*
G03X2384785Y2890703I31507J64D01*
G01*
X2981575Y1780936D2*
Y1584081D1*
X3083951Y1780936D2*
Y1584081D1*
X2981575D2*
X3083951D1*
X3013069Y1780936D2*
X2981575D1*
X3052457D2*
X3083951D1*
X3013069D2*
G03X3052457Y1780936I19694J9D01*
G01*
X2975324Y1343436D2*
Y1146581D1*
X3077701Y1343436D2*
Y1146581D1*
X2975324D2*
X3077701D1*
X3006818Y1343436D2*
X2975324D1*
X3046207D2*
X3077701D1*
X3006818D2*
G03X3046207Y1343436I19694J9D01*
G01*
X3544075Y1666842D2*
Y1273172D1*
X3646451Y1666842D2*
Y1273172D1*
X3544075D2*
X3646451D1*
X3544075Y1666842D2*
X3575569D1*
X3614957D2*
X3646451D1*
X3575569D2*
G03X3614957Y1666842I19694J11D01*
G01*
X1962212Y4442836D2*
D64*
Y4404590D1*
X1959835Y4397405D1*
X1957404Y4395028D1*
X1952650Y4392596D1*
X1947842D1*
X1943089Y4395028D1*
X1940712Y4397405D1*
X1938280Y4404590D1*
Y4409343D1*
X1977651Y4433220D2*
X1982460Y4435651D1*
X1989645Y4442781D1*
Y4392596D1*
X4166276Y2806961D2*
Y2768715D1*
X4163899Y2761530D1*
X4161467Y2759153D1*
X4156714Y2756721D1*
X4151906D1*
X4147152Y2759153D1*
X4144776Y2761530D1*
X4142344Y2768715D1*
Y2773468D1*
X4186523Y2806906D2*
X4212776D1*
X4198462Y2787783D1*
X4205647D1*
X4210400Y2785406D1*
X4212776Y2783029D1*
X4215208Y2775844D1*
Y2771091D1*
X4212776Y2763906D1*
X4208023Y2759098D1*
X4200838Y2756721D1*
X4193653D1*
X4186523Y2759098D1*
X4184147Y2761530D1*
X4181715Y2766283D1*
X2462774Y4442836D2*
Y4404590D1*
X2460397Y4397405D1*
X2457965Y4395028D1*
X2453212Y4392596D1*
X2448404D1*
X2443650Y4395028D1*
X2441274Y4397405D1*
X2438842Y4404590D1*
Y4409343D1*
X2502145Y4392596D2*
Y4442781D1*
X2478213Y4409343D1*
X2514083D1*
X468123Y3202926D2*
Y3164679D1*
X465747Y3157494D1*
X463315Y3155118D1*
X458562Y3152686D1*
X453753D1*
X449000Y3155118D1*
X446624Y3157494D1*
X444192Y3164679D1*
Y3169432D1*
X512248Y3202870D2*
X488371D1*
X485995Y3181371D1*
X488371Y3183747D1*
X495556Y3186179D1*
X502686D1*
X509871Y3183747D1*
X514679Y3178994D1*
X517056Y3171809D1*
Y3167056D1*
X514679Y3159871D1*
X509871Y3155062D1*
X502686Y3152686D1*
X495556D1*
X488371Y3155062D1*
X485995Y3157494D1*
X483563Y3162247D1*
X4161242Y3231961D2*
Y3193715D1*
X4158866Y3186530D1*
X4156434Y3184153D1*
X4151681Y3181721D1*
X4146872D1*
X4142119Y3184153D1*
X4139742Y3186530D1*
X4137311Y3193715D1*
Y3198468D1*
X4205366Y3224776D2*
X4202990Y3229529D1*
X4195805Y3231906D1*
X4191052D1*
X4183867Y3229529D1*
X4179058Y3222344D1*
X4176682Y3210406D1*
Y3198468D1*
X4179058Y3188906D1*
X4183867Y3184098D1*
X4191052Y3181721D1*
X4193428D1*
X4200558Y3184098D1*
X4205366Y3188906D1*
X4207743Y3196091D1*
Y3198468D1*
X4205366Y3205653D1*
X4200558Y3210406D1*
X4193428Y3212783D1*
X4191052D1*
X4183867Y3210406D1*
X4179058Y3205653D1*
X4176682Y3198468D1*
X3477250Y3109570D2*
Y3059330D1*
X3510743Y3109570D2*
X3477250Y3076077D1*
X3489188Y3088070D2*
X3510743Y3059330D1*
X3526183Y3099953D2*
X3530991Y3102385D1*
X3538176Y3109515D1*
Y3059330D1*
X3566500Y2428319D2*
Y2378079D1*
X3599994Y2428319D2*
X3566500Y2394826D1*
X3578438Y2406820D2*
X3599994Y2378079D1*
X3617865Y2416326D2*
Y2418703D1*
X3620241Y2423511D1*
X3622618Y2425888D1*
X3627426Y2428264D1*
X3636988D1*
X3641741Y2425888D1*
X3644118Y2423511D1*
X3646549Y2418703D1*
Y2413949D1*
X3644118Y2409141D1*
X3639364Y2402011D1*
X3615433Y2378079D1*
X3648926D1*
X2304049Y1912527D2*
Y1876657D1*
X2306425Y1869472D1*
X2311234Y1864719D1*
X2318419Y1862287D1*
X2323172D1*
X2330357Y1864719D1*
X2335165Y1869472D1*
X2337542Y1876657D1*
Y1912527D1*
X2357790Y1912471D2*
X2384043D1*
X2369728Y1893348D1*
X2376913D1*
X2381666Y1890972D1*
X2384043Y1888595D1*
X2386475Y1881410D1*
Y1876657D1*
X2384043Y1869472D1*
X2379290Y1864663D1*
X2372105Y1862287D1*
X2364920D1*
X2357790Y1864663D1*
X2355413Y1867095D1*
X2352981Y1871848D1*
X2877862Y2922908D2*
Y2887038D1*
X2880238Y2879853D1*
X2885047Y2875100D1*
X2892232Y2872668D1*
X2896985D1*
X2904170Y2875100D1*
X2908978Y2879853D1*
X2911355Y2887038D1*
Y2922908D1*
X2950726Y2872668D2*
Y2922853D1*
X2926794Y2889415D1*
X2962664D1*
X1841549Y1912527D2*
Y1876657D1*
X1843925Y1869472D1*
X1848734Y1864719D1*
X1855919Y1862287D1*
X1860672D1*
X1867857Y1864719D1*
X1872665Y1869472D1*
X1875042Y1876657D1*
Y1912527D1*
X1919166Y1912471D2*
X1895290D1*
X1892913Y1890972D1*
X1895290Y1893348D1*
X1902475Y1895780D1*
X1909605D1*
X1916790Y1893348D1*
X1921598Y1888595D1*
X1923975Y1881410D1*
Y1876657D1*
X1921598Y1869472D1*
X1916790Y1864663D1*
X1909605Y1862287D1*
X1902475D1*
X1895290Y1864663D1*
X1892913Y1867095D1*
X1890481Y1871848D1*
X1489040Y2957675D2*
Y2921805D1*
X1491416Y2914620D1*
X1496225Y2909867D1*
X1503410Y2907435D1*
X1508163D1*
X1515348Y2909867D1*
X1520156Y2914620D1*
X1522533Y2921805D1*
Y2957675D1*
X1547534Y2907435D2*
X1571465Y2957620D1*
X1537972D1*
X2314067Y2963926D2*
Y2928056D1*
X2316444Y2920871D1*
X2321252Y2916118D1*
X2328437Y2913686D1*
X2333190D1*
X2340375Y2916118D1*
X2345184Y2920871D1*
X2347561Y2928056D1*
Y2963926D1*
X2374938Y2963870D2*
X2367808Y2961494D1*
X2365376Y2956741D1*
Y2951932D1*
X2367808Y2947179D1*
X2372561Y2944747D1*
X2382123Y2942371D1*
X2389308Y2939994D1*
X2394061Y2935186D1*
X2396438Y2930432D1*
Y2923247D1*
X2394061Y2918494D1*
X2391685Y2916062D1*
X2384500Y2913686D1*
X2374938D1*
X2367808Y2916062D1*
X2365376Y2918494D1*
X2363000Y2923247D1*
Y2930432D1*
X2365376Y2935186D1*
X2370185Y2939994D1*
X2377315Y2942371D1*
X2386876Y2944747D1*
X2391685Y2947179D1*
X2394061Y2951932D1*
Y2956741D1*
X2391685Y2961494D1*
X2384500Y2963870D1*
X2374938D1*
X2992738Y1854159D2*
Y1818289D1*
X2995115Y1811104D1*
X2999923Y1806350D1*
X3007108Y1803919D1*
X3011862D1*
X3019047Y1806350D1*
X3023855Y1811104D1*
X3026232Y1818289D1*
Y1854159D1*
X3072788Y1837412D2*
X3070356Y1830227D1*
X3065603Y1825418D1*
X3058418Y1823042D1*
X3056041D1*
X3048856Y1825418D1*
X3044103Y1830227D1*
X3041671Y1837412D1*
Y1839789D1*
X3044103Y1846974D1*
X3048856Y1851727D1*
X3056041Y1854103D1*
X3058418D1*
X3065603Y1851727D1*
X3070356Y1846974D1*
X3072788Y1837412D1*
Y1825418D1*
X3070356Y1813480D1*
X3065603Y1806295D1*
X3058418Y1803919D1*
X3053664D1*
X3046479Y1806295D1*
X3044103Y1811104D1*
X2971583Y1416659D2*
Y1380789D1*
X2973960Y1373604D1*
X2978768Y1368850D1*
X2985953Y1366419D1*
X2990706D1*
X2997891Y1368850D1*
X3002700Y1373604D1*
X3005076Y1380789D1*
Y1416659D1*
X3020516Y1407042D2*
X3025324Y1409474D1*
X3032509Y1416603D1*
Y1366419D1*
X3062318Y1416603D2*
X3055133Y1414227D1*
X3050325Y1407042D1*
X3047948Y1395104D1*
Y1387918D1*
X3050325Y1375980D1*
X3055133Y1368795D1*
X3062318Y1366419D1*
X3067072D1*
X3074257Y1368795D1*
X3079010Y1375980D1*
X3081442Y1387918D1*
Y1395104D1*
X3079010Y1407042D1*
X3074257Y1414227D1*
X3067072Y1416603D1*
X3062318D1*
X3079010Y1407042D2*
X3050325Y1375980D1*
X3540334Y1740065D2*
Y1704195D1*
X3542710Y1697010D1*
X3547519Y1692257D1*
X3554704Y1689825D1*
X3559457D1*
X3566642Y1692257D1*
X3571450Y1697010D1*
X3573827Y1704195D1*
Y1740065D1*
X3589266Y1730448D2*
X3594075Y1732880D1*
X3601260Y1740010D1*
Y1689825D1*
X3621507Y1740010D2*
X3647760D1*
X3633446Y1720886D1*
X3640631D1*
X3645384Y1718510D1*
X3647760Y1716133D1*
X3650192Y1708948D1*
Y1704195D1*
X3647760Y1697010D1*
X3643007Y1692201D1*
X3635822Y1689825D1*
X3628637D1*
X3621507Y1692201D1*
X3619131Y1694633D1*
X3616699Y1699386D1*
M02*
