G04 DipTrace 3.3.1.3*
G04 BottomMask.gbr*
%MOIN*%
G04 #@! TF.FileFunction,Soldermask,Bot*
G04 #@! TF.Part,Single*
%ADD35C,0.125*%
%ADD47C,0.05588*%
%ADD55C,0.06788*%
%ADD57C,0.098431*%
%ADD59R,0.098431X0.098431*%
%ADD61C,0.074809*%
%ADD63R,0.074809X0.074809*%
%ADD65C,0.195282*%
%ADD67C,0.074415*%
%ADD69R,0.074415X0.074415*%
%ADD71C,0.106305*%
%ADD73C,0.114179*%
%FSLAX26Y26*%
G04*
G70*
G90*
G75*
G01*
G04 BotMask*
%LPD*%
D35*
X595212Y3638758D3*
Y738759D3*
X3970212Y595008D3*
Y3745008D3*
D73*
X3851462Y3307508D3*
Y3107508D3*
X4051462D3*
Y3307508D3*
D71*
X3951462Y3207508D3*
D73*
X1282713Y720008D3*
X1082713D3*
Y520008D3*
X1282713D3*
D71*
X1182713Y620008D3*
D69*
X845212Y1332508D3*
D67*
Y1441564D3*
Y1550619D3*
Y1659674D3*
Y1768729D3*
X733401Y1387036D3*
Y1496091D3*
Y1605146D3*
Y1714201D3*
D65*
X789307Y1058690D3*
Y2042548D3*
D63*
X1026461Y2007508D3*
D61*
X1126461D3*
X1026461Y1907508D3*
X1126461D3*
X1026461Y1807508D3*
X1126461D3*
D69*
X3738967Y1201259D3*
D67*
Y1309960D3*
Y1418661D3*
Y1527361D3*
Y1636062D3*
Y1744763D3*
Y1853464D3*
Y1962165D3*
Y2070865D3*
Y2179566D3*
Y2288267D3*
Y2396968D3*
Y2505669D3*
X3850778Y1255616D3*
Y1364317D3*
Y1473018D3*
Y1581718D3*
Y1690419D3*
Y1799120D3*
Y1907821D3*
Y2016522D3*
Y2125222D3*
Y2233923D3*
Y2342624D3*
Y2451325D3*
D65*
X3794873Y2779684D3*
Y927243D3*
D73*
X1107712Y3645008D3*
X1307712D3*
Y3845008D3*
X1107712D3*
D71*
X1207712Y3745008D3*
D73*
X707713Y3088758D3*
Y3288758D3*
X507713D3*
Y3088758D3*
D71*
X607713Y3188758D3*
D59*
X2676461Y2876258D3*
D57*
X2538666D3*
X2400871D3*
X2263075D3*
X2125280D3*
X1987485D3*
X1849690D3*
X1711894D3*
D59*
X2676461Y1613758D3*
D57*
X2538666D3*
X2400871D3*
X2263075D3*
X2125280D3*
X1987485D3*
X1849690D3*
X1711894D3*
D55*
X2638962Y3107508D3*
X3388913Y3420008D3*
X3163913Y3232508D3*
X2588962Y1932508D3*
X2045163Y3582508D3*
X863962Y3532508D3*
X3670212Y3538759D3*
X1149680Y3107508D3*
X1295163Y3101258D3*
X2307712D3*
X2782713Y3107508D3*
X1776462Y3101258D3*
X1062180Y3107508D3*
X2588962Y2020008D3*
Y2107508D3*
Y2195008D3*
Y2282508D3*
Y2370008D3*
Y2451258D3*
Y2538758D3*
X2363961Y713758D3*
X1782713Y1945010D3*
X2363961Y801258D3*
Y888758D3*
Y976258D3*
Y1063758D3*
Y1151258D3*
Y1238758D3*
Y1326258D3*
X1301461Y2520008D3*
X1782713Y2032510D3*
Y2120008D3*
Y2207508D3*
X1570210Y1545008D3*
Y1457508D3*
Y1370008D3*
Y1282508D3*
X1388962Y2688758D3*
X1688962Y2726259D3*
X2957713Y3026258D3*
Y2782508D3*
Y2538758D3*
X2957712Y1982508D3*
X2957713Y1751258D3*
Y1513758D3*
X2932713Y1263759D3*
Y1013759D3*
X2932712Y763759D3*
D47*
X1082712Y2270008D3*
Y2460008D3*
M02*
