G04 DipTrace 3.3.1.3*
G04 Bottom.gbr*
%MOIN*%
G04 #@! TF.FileFunction,Copper,L2,Bot*
G04 #@! TF.Part,Single*
G04 #@! TA.AperFunction,Conductor*
%ADD12C,0.01*%
G04 #@! TA.AperFunction,CopperBalancing*
%ADD13C,0.025*%
%ADD14C,0.013*%
G04 #@! TA.AperFunction,ComponentPad*
%ADD18C,0.106299*%
%ADD19C,0.098425*%
%ADD20R,0.066535X0.066535*%
%ADD21C,0.066535*%
%ADD22C,0.187402*%
%ADD23R,0.066929X0.066929*%
%ADD24C,0.066929*%
%ADD25R,0.090551X0.090551*%
%ADD26C,0.090551*%
%ADD27C,0.06*%
%ADD32C,0.048*%
G04 #@! TA.AperFunction,ViaPad*
%ADD33C,0.04*%
%FSLAX26Y26*%
G04*
G70*
G90*
G75*
G01*
G04 Bottom*
%LPD*%
X3738967Y1527361D2*
D12*
X3623210Y1643118D1*
Y3482756D1*
X1126461Y1807508D2*
X1235935Y1698035D1*
Y1624402D1*
X4051462Y3107508D2*
Y3307508D1*
X1838962Y3409099D2*
X1871754D1*
X2045163Y3582508D1*
X707713Y3088758D2*
Y3288758D1*
X1307712Y3845008D2*
Y3645008D1*
X1107712D2*
Y3845008D1*
X507713Y3088758D2*
Y3288758D1*
X1235935Y1624402D2*
Y1573402D1*
X1054927Y1392394D1*
Y1272237D1*
X1082713Y1244451D1*
Y720008D1*
X1995212Y513759D2*
Y520008D1*
X2075833D1*
X2091833Y536008D1*
Y845008D1*
X1282713Y520008D2*
X1988962D1*
X1995212Y513759D1*
X1082713Y520008D2*
X1282713D1*
X1082713Y720008D2*
Y520008D1*
X845212Y1332508D2*
X905484Y1272237D1*
X1054927D1*
X3851462Y3307508D2*
X3670212Y3488759D1*
Y3538759D1*
X4051462Y3307508D2*
X3851462D1*
X2255462Y3433851D2*
X2695313D1*
X2045163Y3582508D2*
X2106805D1*
X2255462Y3433851D1*
X707713Y3288758D2*
X863962Y3445007D1*
Y3532508D1*
X1307712Y3645008D2*
Y3420008D1*
X1301462Y3413759D1*
X1563962Y2368276D2*
X1568480D1*
X1601462Y2401258D1*
X1695212D1*
X1720212Y2426258D1*
Y2557508D1*
X1638962Y2638758D1*
Y2751258D1*
X1657712Y2770008D1*
X1826462D1*
X1851462Y2795008D1*
X3738967Y1418661D2*
X3390797Y1766831D1*
Y3260552D1*
X3374796Y3276553D1*
X2695312D1*
X1363913Y3276455D2*
X1295163D1*
X1704462Y3139481D2*
X1567489Y3276455D1*
X1363913D1*
X2232712D2*
X1841436D1*
X1704462Y3139481D1*
X2695312Y3276553D2*
Y3335449D1*
X2504714D1*
X2488714Y3319449D1*
Y3276455D1*
X2232712D1*
X2073671Y3332508D2*
X1223714D1*
X1207712Y3348511D1*
Y3745008D1*
X1378588Y2051973D2*
X981994D1*
X965994Y2035973D1*
Y1403036D1*
X949994Y1387036D1*
X733401D1*
X2638962Y3107508D2*
Y3185627D1*
X2536140Y3288449D1*
X3163913Y3232508D2*
X3090100D1*
Y3195008D1*
X2172687Y1269760D2*
X2182687Y1279760D1*
X2388962D1*
X2404962Y1263760D1*
Y1208260D1*
X2388962Y1192260D1*
X2245939D1*
X2173687Y1120008D1*
X2147608Y2175536D2*
X2201431Y2229359D1*
Y2916536D1*
X2217431Y2932536D1*
X2482388D1*
X2538666Y2876258D1*
X1665896Y1841016D2*
Y2007658D1*
X2341077Y1857508D2*
X2294077Y1810508D1*
X1810360D1*
Y1841016D1*
X1665896Y2007658D2*
Y2191508D1*
X1681896Y2207508D1*
X1782713D1*
X1773085Y1242819D2*
Y1292335D1*
X1695407Y1370012D1*
X1711894Y1613758D2*
X1642210D1*
Y1545008D1*
X1711896Y2133638D2*
X1711894Y1613758D1*
X1695407Y1370012D2*
Y1031788D1*
X1823714Y1986008D2*
X2003144D1*
X2066455Y2049319D1*
X2147608D1*
X1782713Y2120008D2*
X1839714Y2177010D1*
Y2266882D1*
X1811088Y2295508D1*
X2147608Y2049319D2*
X2263075Y2164787D1*
Y2876258D1*
X1570210Y1457508D2*
X1527376Y1500343D1*
Y2123304D1*
X1987485Y1613758D2*
Y1286356D1*
X2122833Y1151008D1*
Y1070008D1*
X1782713Y2032510D2*
X1967624D1*
X1983624Y2048510D1*
Y2250536D1*
Y2296536D1*
X2170431Y2250536D2*
X1983624D1*
X1941833Y2482508D2*
X1987485Y2528161D1*
Y2876258D1*
X1983624Y2250536D2*
X1941833Y2292327D1*
Y2482508D1*
X1570210Y1370008D2*
X1474226Y1465993D1*
Y1768851D1*
X1611210Y814233D2*
Y1176008D1*
X1474226Y1768851D2*
Y2123304D1*
X2095015Y1970008D2*
X1918923D1*
X1893924Y1945010D1*
X1782713D1*
X1941836Y2570323D2*
X1907462Y2604697D1*
Y2916536D1*
X1891462Y2932536D1*
X1768172D1*
X1711894Y2876258D1*
X1782713Y1945010D2*
X1727896Y1999827D1*
Y2057512D1*
X1743896Y2073512D1*
X1891462D1*
X1907462Y2089512D1*
Y2535949D1*
X1941836Y2570323D1*
X1316588Y2092304D2*
X949994D1*
X933994Y2076304D1*
Y1530345D1*
X845212Y1441564D1*
X1082712Y2460008D2*
X1242683Y2300037D1*
Y2248225D1*
X1082712Y2270008D2*
Y2231701D1*
X1098712Y2215701D1*
X1157462D1*
X1316588Y1917516D2*
X1282132Y1951973D1*
X1081997D1*
X1026461Y2007508D1*
X1185927Y1907508D2*
X1126461D1*
X1347588Y1997004D2*
Y1867973D1*
X1331588Y1851973D1*
X1070926D1*
X1026461Y1807508D1*
X1170927Y2123304D2*
X1393588D1*
X1409588Y2107304D1*
Y1114008D1*
X1425588Y1098008D1*
X1497911D1*
X1513911Y1114008D1*
Y1226209D1*
X1570210Y1282508D1*
X1845844Y1068142D2*
X2007025D1*
X2041907Y1033260D1*
X2271207D1*
X2342707Y1104760D1*
X2522663D1*
X2538666Y1120763D1*
Y1613758D1*
X1695407Y664012D2*
X1797321D1*
X1813317Y680008D1*
Y1100670D1*
X1825844D1*
X1845844Y1080670D1*
Y1068142D1*
X1570210Y1282508D2*
Y789209D1*
X1695407Y664012D1*
X1666931Y2475249D2*
X1595212Y2546967D1*
Y2751231D1*
X1647962Y2803981D1*
X1777413D1*
X1849690Y2876258D1*
X1987486Y2363508D2*
X2125280Y2501302D1*
Y2876258D1*
X1913057Y1907508D2*
X2167608D1*
X2279077Y2018977D1*
Y2754464D1*
X2400871Y2876258D1*
X2483010Y2226008D2*
Y2236008D1*
X2613962D1*
X2629962Y2220008D1*
X2704592Y2294638D1*
Y2773914D1*
X2676461Y2802045D1*
Y2876258D1*
X2629962Y2220008D2*
Y2077512D1*
X2613962Y2061512D1*
X2392439D1*
X2588962Y2538758D2*
X2673592Y2538756D1*
X2341077Y2532508D2*
X2347326Y2538758D1*
X2588962D1*
Y2451258D2*
X2326077D1*
X2310077Y2467258D1*
Y2582508D1*
X1378588Y1917516D2*
Y636008D1*
X1362588Y620008D1*
X1182713D1*
X2932713Y1263759D2*
X2848565Y1347907D1*
Y3057260D1*
X2588962Y2195008D2*
X2358384D1*
X2588962Y2107508D2*
X2440911D1*
X2390911Y2157508D1*
X2588962Y1932508D2*
X2375911D1*
X2359911Y1948508D1*
Y2107508D1*
X1849690Y1613758D2*
Y1136008D1*
X1865690Y1120008D1*
X2091833D1*
X2125280Y1613758D2*
X2125281Y1269760D1*
X1741407Y695008D2*
Y765382D1*
X1642210Y864579D1*
Y1113197D1*
Y1388528D1*
X1768171Y1514489D1*
Y1670036D1*
X1784171Y1686036D1*
X2328592D1*
X2400871Y1613758D1*
X1970683Y1017260D2*
X2388962D1*
X2404962Y1001260D1*
X2660459D1*
X2676461Y1017263D1*
Y1613758D1*
X2404962Y1001260D2*
Y858260D1*
X2388962Y842260D1*
X2320431D1*
X2304431Y826260D1*
Y745008D1*
X2363961Y1326258D2*
X2420962Y1326256D1*
X2165561Y1320008D2*
X2171810Y1326258D1*
X2363961D1*
Y1238758D2*
X2109364D1*
X2093364Y1254758D1*
Y1370008D1*
X2363961Y976258D2*
X2107833D1*
X2091833Y960258D1*
Y895008D1*
X2363961Y888758D2*
X2179083D1*
X2122833Y945008D1*
X2363961Y713758D2*
X2188687D1*
X2172687Y729758D1*
Y857756D1*
X2390911Y1901508D2*
X2326077D1*
X2310077Y1917508D1*
Y2382508D1*
X2326077Y1901508D2*
X2282077Y1857508D1*
X2179840D1*
X1688962Y2726259D2*
X1732713Y2682508D1*
X1770213D1*
X1770212Y2407508D1*
X1845015Y2682508D2*
Y2374654D1*
X1829015Y2358654D1*
X1627210D1*
X1611210Y2342654D1*
Y1339508D1*
X1595210Y1323508D1*
X1498911D1*
X1482909Y1307506D1*
Y1145008D1*
X2170015Y2645008D2*
X2181557Y2656550D1*
Y2932536D1*
X2165557Y2948536D1*
X1530159D1*
X1514158Y2932535D1*
Y2519680D1*
X1289683Y2295205D1*
D33*
X1563962Y2368276D3*
X1851462Y2795008D3*
X3623210Y3482756D3*
X1235935Y1624402D3*
X1995212Y513759D3*
X1301462Y3413759D3*
X2695313Y3433851D3*
X2255462D3*
X1838962Y3409099D3*
X2091833Y845008D3*
X2695312Y3276553D3*
X1295163Y3276455D3*
X1704462Y3139481D3*
X1363913Y3276455D3*
X2232712D3*
X2073671Y3332508D3*
X2536140Y3288449D3*
X3090100Y3195008D3*
X1665896Y2007658D3*
Y1841016D3*
X1810360D3*
X2147608Y2175536D3*
X2341077Y1857508D3*
X1642210Y1545008D3*
X1711896Y2133638D3*
X1695407Y1031788D3*
Y1370012D3*
X1773085Y1242819D3*
X1811088Y2295508D3*
X1823714Y1986008D3*
X2147608Y2049319D3*
X1527376Y2123304D3*
X2122833Y1070008D3*
X1983624Y2296536D3*
X2170431Y2250536D3*
X1941833Y2482508D3*
X1611210Y1176008D3*
X1474226Y2123304D3*
X1611210Y814233D3*
X1474226Y1768851D3*
X2095015Y1970008D3*
X1941836Y2570323D3*
X1289683Y2295205D3*
X2170015Y2645008D3*
X1378588Y2051973D3*
X1316588Y2092304D3*
X1242683Y2248225D3*
X1157462Y2215701D3*
X1316588Y1917516D3*
X1185927Y1907508D3*
X1347588Y1997004D3*
X1666931Y2475249D3*
X1987486Y2363508D3*
X1913057Y1907508D3*
X2167608D3*
X2483010Y2226008D3*
X2392439Y2061512D3*
X2673592Y2538756D3*
X2341077Y2532508D3*
X2310077Y2582508D3*
X1378588Y1917516D3*
X1845844Y1068142D3*
X1170927Y2123304D3*
X1695407Y664012D3*
X2358384Y2195008D3*
X2390911Y2157508D3*
X2359911Y2107508D3*
X2091833Y1120008D3*
X2125281Y1269760D3*
X1741407Y695008D3*
X1642210Y1113197D3*
X1970683Y1017260D3*
X2304431Y745008D3*
X2420962Y1326256D3*
X2165561Y1320008D3*
X2093364Y1370008D3*
X2091833Y895008D3*
X2122833Y945008D3*
X2172687Y857756D3*
X2179840Y1857508D3*
X2310077Y2382508D3*
X2390911Y1901508D3*
X1770212Y2407508D3*
X1770213Y2682508D3*
X2173687Y1120008D3*
X2172687Y1269760D3*
X1482909Y1145008D3*
X1845015Y2682508D3*
X2848565Y3057260D3*
X466480Y3876389D2*
D13*
X1032002D1*
X1183410D2*
X1232021D1*
X1383428D2*
X3926708D1*
X4013703D2*
X4080292D1*
X466480Y3851520D2*
X1025830D1*
X1189582D2*
X1225813D1*
X1389600D2*
X3880561D1*
X4059886D2*
X4080328D1*
X466480Y3826651D2*
X1027696D1*
X1187716D2*
X1227715D1*
X1387734D2*
X3856913D1*
X466480Y3801783D2*
X1038318D1*
X1377113D2*
X3842344D1*
X466480Y3776914D2*
X1063903D1*
X1351527D2*
X3833840D1*
X466480Y3752045D2*
X514552D1*
X675864D2*
X1129823D1*
X1285608D2*
X3830251D1*
X466480Y3727176D2*
X487245D1*
X703172D2*
X1131617D1*
X1283778D2*
X3831256D1*
X719786Y3702308D2*
X1049873D1*
X1365522D2*
X3836890D1*
X729798Y3677439D2*
X1032469D1*
X1382962D2*
X3847799D1*
X734642Y3652570D2*
X1025938D1*
X1389493D2*
X3865741D1*
X734893Y3627701D2*
X1027481D1*
X1387950D2*
X2008770D1*
X2081555D2*
X3895740D1*
X4044707D2*
X4080723D1*
X730587Y3602833D2*
X1037636D1*
X1377795D2*
X1989931D1*
X2100394D2*
X4080759D1*
X721186Y3577964D2*
X827893D1*
X900032D2*
X1062217D1*
X1153195D2*
X1173709D1*
X1241722D2*
X1262199D1*
X1353214D2*
X1986342D1*
X2103983D2*
X3627039D1*
X3713389D2*
X4080831D1*
X466480Y3553095D2*
X484984D1*
X705433D2*
X808839D1*
X919087D2*
X1173709D1*
X1241722D2*
X1994416D1*
X2095909D2*
X3613044D1*
X3727348D2*
X4080866D1*
X466480Y3528226D2*
X510713D1*
X679704D2*
X805143D1*
X922783D2*
X1173709D1*
X1241722D2*
X2026999D1*
X2063326D2*
X3610963D1*
X3728209D2*
X4080902D1*
X466480Y3503357D2*
X568020D1*
X622397D2*
X813073D1*
X914853D2*
X1173709D1*
X1241722D2*
X3579026D1*
X3716762D2*
X4080938D1*
X466480Y3478489D2*
X844902D1*
X883023D2*
X1173709D1*
X1241722D2*
X3574397D1*
X3672014D2*
X4080974D1*
X466480Y3453620D2*
X1173709D1*
X1241722D2*
X3341006D1*
X3436829D2*
X3584480D1*
X3661967D2*
X4081046D1*
X466480Y3428751D2*
X1173709D1*
X1241722D2*
X3330600D1*
X3447236D2*
X3589217D1*
X3657194D2*
X4081082D1*
X466480Y3403882D2*
X1173709D1*
X1241722D2*
X3332251D1*
X3445549D2*
X3589217D1*
X3657194D2*
X4081118D1*
X466480Y3379014D2*
X1173709D1*
X1241722D2*
X3347537D1*
X3430298D2*
X3589217D1*
X3657194D2*
X3813888D1*
X3889042D2*
X4013871D1*
X555688Y3354145D2*
X659740D1*
X755706D2*
X1173709D1*
X2117332D2*
X2476377D1*
X2723164D2*
X3589217D1*
X3657194D2*
X3784391D1*
X3918538D2*
X3984410D1*
X578797Y3329276D2*
X636630D1*
X778780D2*
X1180276D1*
X2122571D2*
X2456282D1*
X2729301D2*
X3589217D1*
X3657194D2*
X3772334D1*
X3930596D2*
X3972353D1*
X588307Y3304407D2*
X627121D1*
X788325D2*
X1206974D1*
X3392010D2*
X3589217D1*
X3657194D2*
X3769356D1*
X3933538D2*
X3969374D1*
X589311Y3279539D2*
X626116D1*
X789330D2*
X1246267D1*
X1611436D2*
X1797484D1*
X2592115D2*
X2646396D1*
X3418421D2*
X3589217D1*
X3657194D2*
X3774380D1*
X782189Y3254670D2*
X1251578D1*
X1636304D2*
X1772616D1*
X2616983D2*
X2651779D1*
X3424808D2*
X3589217D1*
X3657194D2*
X3789379D1*
X763780Y3229801D2*
X1567107D1*
X1661208D2*
X1747748D1*
X1841813D2*
X2547750D1*
X2641851D2*
X3056086D1*
X3222852D2*
X3356795D1*
X3424808D2*
X3589217D1*
X3657194D2*
X3831471D1*
X4071441D2*
X4081441D1*
X466480Y3204932D2*
X531239D1*
X684189D2*
X1591975D1*
X1686076D2*
X1722881D1*
X1816945D2*
X2572618D1*
X2666360D2*
X3042163D1*
X3215711D2*
X3356795D1*
X3424808D2*
X3589217D1*
X3657194D2*
X3873276D1*
X4029636D2*
X4081476D1*
X466480Y3180064D2*
X530019D1*
X685409D2*
X1616843D1*
X1792077D2*
X2597486D1*
X2672962D2*
X3043562D1*
X3187434D2*
X3356795D1*
X3424808D2*
X3589217D1*
X3657194D2*
X3816113D1*
X754163Y3155195D2*
X1029383D1*
X1094991D2*
X1116869D1*
X1182477D2*
X1275835D1*
X1314495D2*
X1641711D1*
X1795774D2*
X2288380D1*
X2327039D2*
X2604950D1*
X2672962D2*
X2749922D1*
X2815530D2*
X3063586D1*
X3116635D2*
X3356795D1*
X3424808D2*
X3589217D1*
X3657194D2*
X3785181D1*
X778170Y3130326D2*
X1007996D1*
X1203864D2*
X1244222D1*
X1346109D2*
X1656387D1*
X1827423D2*
X2256766D1*
X2358653D2*
X2584783D1*
X2693165D2*
X2728535D1*
X2836917D2*
X3356795D1*
X3424808D2*
X3589217D1*
X3657194D2*
X3772657D1*
X3930273D2*
X3972640D1*
X588091Y3105457D2*
X627336D1*
X788110D2*
X1003223D1*
X1208636D2*
X1236327D1*
X1354003D2*
X1670274D1*
X1835318D2*
X2248871D1*
X2366547D2*
X2580010D1*
X2697938D2*
X2723762D1*
X2841690D2*
X3356795D1*
X3424808D2*
X3589217D1*
X3657194D2*
X3769356D1*
X3933574D2*
X3969338D1*
X589455Y3080588D2*
X625973D1*
X789437D2*
X1010005D1*
X1201854D2*
X1240095D1*
X1350235D2*
X1721374D1*
X1831550D2*
X2252639D1*
X2362780D2*
X2586792D1*
X2691120D2*
X2730545D1*
X2891282D2*
X2939713D1*
X2975717D2*
X3356795D1*
X3424808D2*
X3589217D1*
X3657194D2*
X3773985D1*
X3928909D2*
X3974003D1*
X582673Y3055720D2*
X632755D1*
X782691D2*
X1037098D1*
X1087276D2*
X1124584D1*
X1174762D2*
X1259221D1*
X1331109D2*
X1740536D1*
X1812424D2*
X2271765D1*
X2343653D2*
X2613885D1*
X2664063D2*
X2757637D1*
X2897526D2*
X2906987D1*
X3008408D2*
X3356795D1*
X3424808D2*
X3589217D1*
X3657194D2*
X3788446D1*
X3914484D2*
X3988465D1*
X564910Y3030851D2*
X650518D1*
X764893D2*
X2807803D1*
X2889344D2*
X2898913D1*
X3016518D2*
X3356795D1*
X3424808D2*
X3589217D1*
X3657194D2*
X3827345D1*
X3875585D2*
X4027327D1*
X466480Y3005982D2*
X2814549D1*
X2882562D2*
X2902466D1*
X3012965D2*
X3356795D1*
X3424808D2*
X3589217D1*
X3657194D2*
X4081835D1*
X466480Y2981113D2*
X2814549D1*
X2882562D2*
X2921233D1*
X2994198D2*
X3356795D1*
X3424808D2*
X3589217D1*
X3657194D2*
X4081871D1*
X466480Y2956245D2*
X1490818D1*
X2505635D2*
X2814549D1*
X2882562D2*
X3356795D1*
X3424808D2*
X3589217D1*
X3657194D2*
X4081943D1*
X466480Y2931376D2*
X1480160D1*
X2587128D2*
X2602187D1*
X2750724D2*
X2814549D1*
X2882562D2*
X3356795D1*
X3424808D2*
X3589217D1*
X3657194D2*
X4081979D1*
X466480Y2906507D2*
X1480160D1*
X1548173D2*
X1644294D1*
X2750724D2*
X2814549D1*
X2882562D2*
X3356795D1*
X3424808D2*
X3589217D1*
X3657194D2*
X4082015D1*
X466480Y2881638D2*
X1480160D1*
X1548173D2*
X1637835D1*
X2750724D2*
X2814549D1*
X2882562D2*
X3356795D1*
X3424808D2*
X3589217D1*
X3657194D2*
X3728699D1*
X3861052D2*
X4082051D1*
X466480Y2856770D2*
X1480160D1*
X1548173D2*
X1640311D1*
X2750724D2*
X2814549D1*
X2882562D2*
X3356795D1*
X3424808D2*
X3589217D1*
X3657194D2*
X3700135D1*
X3889616D2*
X4082087D1*
X466480Y2831901D2*
X1480160D1*
X1548173D2*
X1630874D1*
X2046425D2*
X2066364D1*
X2459810D2*
X2479750D1*
X2750724D2*
X2814549D1*
X2882562D2*
X2927764D1*
X2987631D2*
X3356795D1*
X3424808D2*
X3589217D1*
X3657194D2*
X3684095D1*
X3905656D2*
X4082158D1*
X466480Y2807032D2*
X1480160D1*
X1548173D2*
X1603960D1*
X1941463D2*
X1953472D1*
X2021485D2*
X2091268D1*
X2422347D2*
X2517213D1*
X2560143D2*
X2602187D1*
X2750724D2*
X2814549D1*
X2882562D2*
X2904296D1*
X3011099D2*
X3356795D1*
X3424808D2*
X3589217D1*
X3657194D2*
X3675339D1*
X3914412D2*
X4082194D1*
X466480Y2782163D2*
X1480160D1*
X1548173D2*
X1579093D1*
X1802627D2*
X1873451D1*
X1941463D2*
X1953472D1*
X2021485D2*
X2091268D1*
X2353809D2*
X2649518D1*
X2737482D2*
X2814549D1*
X2882562D2*
X2898698D1*
X3016697D2*
X3356795D1*
X3424808D2*
X3589217D1*
X3657194D2*
X3672181D1*
X3917534D2*
X4082230D1*
X466480Y2757294D2*
X1480160D1*
X1548173D2*
X1561797D1*
X1738682D2*
X1873451D1*
X1941463D2*
X1953472D1*
X2021485D2*
X2091268D1*
X2328941D2*
X2670582D1*
X2738595D2*
X2814549D1*
X2882562D2*
X2904655D1*
X3010776D2*
X3356795D1*
X3424808D2*
X3589217D1*
X3657194D2*
X3674263D1*
X3915452D2*
X4082266D1*
X466480Y2732426D2*
X1350618D1*
X1427315D2*
X1480160D1*
X1548173D2*
X1561222D1*
X1747617D2*
X1873451D1*
X1941463D2*
X1953472D1*
X2021485D2*
X2091268D1*
X2313080D2*
X2670582D1*
X2738595D2*
X2814549D1*
X2882562D2*
X2929056D1*
X2986375D2*
X3356795D1*
X3424808D2*
X3589217D1*
X3657194D2*
X3681834D1*
X3907881D2*
X4082338D1*
X466480Y2707557D2*
X1333178D1*
X1444754D2*
X1480160D1*
X1548173D2*
X1561222D1*
X1941463D2*
X1953472D1*
X2021485D2*
X2091268D1*
X2313080D2*
X2670582D1*
X2738595D2*
X2814549D1*
X2882562D2*
X3356795D1*
X3424808D2*
X3589217D1*
X3657194D2*
X3696224D1*
X3893527D2*
X4082374D1*
X466480Y2682688D2*
X1330272D1*
X1447625D2*
X1480160D1*
X1548173D2*
X1561222D1*
X1629199D2*
X1650502D1*
X1941463D2*
X1953472D1*
X2021485D2*
X2091268D1*
X2313080D2*
X2670582D1*
X2738595D2*
X2814549D1*
X2882562D2*
X3356795D1*
X3424808D2*
X3589217D1*
X3657194D2*
X3721379D1*
X3868372D2*
X4082409D1*
X466480Y2657819D2*
X1339171D1*
X1438726D2*
X1480160D1*
X1548173D2*
X1561222D1*
X1629199D2*
X1710644D1*
X1941463D2*
X1953472D1*
X2021485D2*
X2091268D1*
X2313080D2*
X2670582D1*
X2738595D2*
X2814549D1*
X2882562D2*
X3356795D1*
X3424808D2*
X3589217D1*
X3657194D2*
X4082445D1*
X466480Y2632951D2*
X1377639D1*
X1400294D2*
X1480160D1*
X1548173D2*
X1561222D1*
X1629199D2*
X1736230D1*
X1941463D2*
X1953472D1*
X2021485D2*
X2091268D1*
X2313080D2*
X2670582D1*
X2738595D2*
X2814549D1*
X2882562D2*
X3356795D1*
X3424808D2*
X3589217D1*
X3657194D2*
X4082517D1*
X466480Y2608082D2*
X1480160D1*
X1548173D2*
X1561222D1*
X1629199D2*
X1736230D1*
X2021485D2*
X2091268D1*
X2351404D2*
X2670582D1*
X2738595D2*
X2814549D1*
X2882562D2*
X3356795D1*
X3424808D2*
X3589217D1*
X3657194D2*
X4082553D1*
X466480Y2583213D2*
X1480160D1*
X1548173D2*
X1561222D1*
X1629199D2*
X1736230D1*
X2021485D2*
X2091268D1*
X2159280D2*
X2167431D1*
X2359084D2*
X2551590D1*
X2626349D2*
X2657448D1*
X2738595D2*
X2814549D1*
X2882562D2*
X2920336D1*
X2995095D2*
X3356795D1*
X3424808D2*
X3589217D1*
X3657194D2*
X4082589D1*
X466480Y2558344D2*
X1257463D1*
X1345463D2*
X1480160D1*
X1548173D2*
X1561222D1*
X1630886D2*
X1736230D1*
X2021485D2*
X2091268D1*
X2159280D2*
X2167431D1*
X2738595D2*
X2814549D1*
X2882562D2*
X2902214D1*
X3013216D2*
X3356795D1*
X3424808D2*
X3589217D1*
X3657194D2*
X3708245D1*
X3769691D2*
X4082625D1*
X466480Y2533476D2*
X1244078D1*
X1358848D2*
X1480160D1*
X1548173D2*
X1564237D1*
X1655753D2*
X1736230D1*
X2021485D2*
X2091268D1*
X2159280D2*
X2167431D1*
X2738595D2*
X2814549D1*
X2882562D2*
X2898949D1*
X3016482D2*
X3356795D1*
X3424808D2*
X3589217D1*
X3657194D2*
X3683557D1*
X3794379D2*
X4082697D1*
X466480Y2508607D2*
X1066487D1*
X1098939D2*
X1243611D1*
X1359314D2*
X1456046D1*
X1546163D2*
X1586521D1*
X1701829D2*
X1736230D1*
X2014667D2*
X2085526D1*
X2159280D2*
X2167431D1*
X2738595D2*
X2814549D1*
X2882562D2*
X2907418D1*
X3008013D2*
X3356795D1*
X3424808D2*
X3589217D1*
X3657194D2*
X3676775D1*
X3801161D2*
X3831220D1*
X3870346D2*
X4082732D1*
X466480Y2483738D2*
X1035627D1*
X1129799D2*
X1255633D1*
X1347293D2*
X1431178D1*
X1525279D2*
X1611389D1*
X1715142D2*
X1736230D1*
X1990804D2*
X2060659D1*
X2153934D2*
X2167414D1*
X2344084D2*
X2540215D1*
X2637688D2*
X2670582D1*
X2738595D2*
X2814549D1*
X2882562D2*
X2942369D1*
X2973062D2*
X3356795D1*
X3424808D2*
X3589217D1*
X3657194D2*
X3680865D1*
X3903503D2*
X4082768D1*
X466480Y2458869D2*
X1029742D1*
X1135684D2*
X1406310D1*
X1500411D2*
X1620898D1*
X1712953D2*
X1736230D1*
X1984381D2*
X2035791D1*
X2129891D2*
X2167414D1*
X2647449D2*
X2670582D1*
X2738595D2*
X2814549D1*
X2882562D2*
X3356795D1*
X3424808D2*
X3589217D1*
X3657194D2*
X3699274D1*
X3778626D2*
X3788984D1*
X3912582D2*
X4082804D1*
X466480Y2434001D2*
X1036919D1*
X1155779D2*
X1381443D1*
X1475543D2*
X1642967D1*
X1690884D2*
X1729483D1*
X1975840D2*
X2010923D1*
X2105023D2*
X2167414D1*
X2645260D2*
X2670582D1*
X2738595D2*
X2814549D1*
X2882562D2*
X3356795D1*
X3424808D2*
X3589217D1*
X3657194D2*
X3689549D1*
X3910465D2*
X4082876D1*
X466480Y2409132D2*
X1086546D1*
X1180647D2*
X1356575D1*
X1450639D2*
X1721230D1*
X2080156D2*
X2167414D1*
X2350687D2*
X2545705D1*
X2632234D2*
X2670582D1*
X2738595D2*
X2814549D1*
X2882562D2*
X3356795D1*
X3424808D2*
X3589217D1*
X3657194D2*
X3677959D1*
X3895608D2*
X4082912D1*
X466480Y2384263D2*
X1111414D1*
X1205515D2*
X1331707D1*
X1425772D2*
X1606365D1*
X2055288D2*
X2167414D1*
X2359048D2*
X2531782D1*
X2646121D2*
X2670582D1*
X2738595D2*
X2814549D1*
X2882562D2*
X3356795D1*
X3424808D2*
X3589217D1*
X3657194D2*
X3678066D1*
X3896147D2*
X4082948D1*
X466480Y2359394D2*
X1136282D1*
X1230382D2*
X1306839D1*
X1400904D2*
X1582035D1*
X2036305D2*
X2167414D1*
X2352911D2*
X2530957D1*
X2646946D2*
X2670582D1*
X2738595D2*
X2814549D1*
X2882562D2*
X3356795D1*
X3424808D2*
X3589217D1*
X3657194D2*
X3689980D1*
X3910644D2*
X4082984D1*
X466480Y2334525D2*
X1161150D1*
X1376036D2*
X1577227D1*
X1851753D2*
X1873451D1*
X2026365D2*
X2167414D1*
X2344084D2*
X2542511D1*
X2635428D2*
X2670582D1*
X2738595D2*
X2814549D1*
X2882562D2*
X3356795D1*
X3424808D2*
X3589217D1*
X3657194D2*
X3698628D1*
X3779308D2*
X3789056D1*
X3912510D2*
X4083055D1*
X466480Y2309657D2*
X1048940D1*
X1116486D2*
X1186017D1*
X1351168D2*
X1577227D1*
X1645204D2*
X1764291D1*
X1857889D2*
X1873451D1*
X2030743D2*
X2167414D1*
X2344084D2*
X2536913D1*
X2641026D2*
X2670582D1*
X2738595D2*
X2814549D1*
X2882562D2*
X3356795D1*
X3424808D2*
X3589217D1*
X3657194D2*
X3680650D1*
X3903144D2*
X4083091D1*
X466480Y2284788D2*
X1031931D1*
X1133495D2*
X1208696D1*
X1337497D2*
X1577227D1*
X1645204D2*
X1763358D1*
X2031102D2*
X2136482D1*
X2344084D2*
X2530024D1*
X2737016D2*
X2814549D1*
X2882562D2*
X3356795D1*
X3424808D2*
X3589217D1*
X3657194D2*
X3676811D1*
X3801125D2*
X3816902D1*
X3884664D2*
X4083127D1*
X466480Y2259919D2*
X1030746D1*
X1174367D2*
X1195168D1*
X1322461D2*
X1577227D1*
X1645204D2*
X1759124D1*
X2344084D2*
X2448710D1*
X2716921D2*
X2814549D1*
X2882562D2*
X3356795D1*
X3424808D2*
X3589217D1*
X3657194D2*
X3683844D1*
X3907091D2*
X4083163D1*
X466480Y2235050D2*
X1043772D1*
X1289771D2*
X1577227D1*
X1645204D2*
X1664102D1*
X1941463D2*
X1949625D1*
X2384525D2*
X2434895D1*
X2692053D2*
X2814549D1*
X2882562D2*
X3356795D1*
X3424808D2*
X3589217D1*
X3657194D2*
X3709250D1*
X3768686D2*
X3788518D1*
X3913048D2*
X4083199D1*
X466480Y2210182D2*
X1057193D1*
X1271936D2*
X1577227D1*
X1941463D2*
X1949625D1*
X2017610D2*
X2114090D1*
X2667185D2*
X2814549D1*
X2882562D2*
X3356795D1*
X3424808D2*
X3589217D1*
X3657194D2*
X3685136D1*
X3908132D2*
X4083271D1*
X466480Y2185313D2*
X1087910D1*
X1195144D2*
X1577227D1*
X1941463D2*
X1949625D1*
X2017610D2*
X2099665D1*
X2204423D2*
X2229063D1*
X2663956D2*
X2814549D1*
X2882562D2*
X3356795D1*
X3424808D2*
X3589217D1*
X3657194D2*
X3676990D1*
X3800946D2*
X3813493D1*
X3888037D2*
X4083307D1*
X466480Y2160444D2*
X763373D1*
X815238D2*
X1140444D1*
X1201424D2*
X1443738D1*
X1557861D2*
X1577227D1*
X1941463D2*
X1949625D1*
X2017610D2*
X2101136D1*
X2194088D2*
X2211695D1*
X2439823D2*
X2541758D1*
X2663956D2*
X2814549D1*
X2882562D2*
X3356795D1*
X3424808D2*
X3589217D1*
X3657194D2*
X3679825D1*
X3901565D2*
X4083342D1*
X466480Y2135575D2*
X710695D1*
X867916D2*
X1123579D1*
X1845330D2*
X1873451D1*
X1941463D2*
X1949625D1*
X2017610D2*
X2121339D1*
X2173885D2*
X2186827D1*
X2663956D2*
X2814549D1*
X2882562D2*
X3356795D1*
X3424808D2*
X3589217D1*
X3657194D2*
X3696009D1*
X3912151D2*
X4083378D1*
X466480Y2110707D2*
X687801D1*
X890810D2*
X921336D1*
X1840952D2*
X1873451D1*
X1941463D2*
X1949625D1*
X2017610D2*
X2161960D1*
X2663956D2*
X2814549D1*
X2882562D2*
X3356795D1*
X3424808D2*
X3589217D1*
X3657194D2*
X3691918D1*
X3911254D2*
X4083450D1*
X466480Y2085838D2*
X674668D1*
X1561378D2*
X1577227D1*
X1941248D2*
X1949625D1*
X2017610D2*
X2116315D1*
X2231156D2*
X2245067D1*
X2663956D2*
X2814549D1*
X2882562D2*
X3356795D1*
X3424808D2*
X3589217D1*
X3657194D2*
X3678605D1*
X3898228D2*
X4083486D1*
X466480Y2060969D2*
X668029D1*
X1561378D2*
X1577227D1*
X2017610D2*
X2031054D1*
X2206289D2*
X2245067D1*
X2659255D2*
X2814549D1*
X2882562D2*
X3356795D1*
X3424808D2*
X3589217D1*
X3657194D2*
X3677528D1*
X3800408D2*
X3808326D1*
X3893240D2*
X4083522D1*
X466480Y2036100D2*
X666773D1*
X1561378D2*
X1577227D1*
X2194698D2*
X2245067D1*
X2645619D2*
X2814549D1*
X2882562D2*
X2937309D1*
X2978122D2*
X3356795D1*
X3424808D2*
X3589217D1*
X3657194D2*
X3687863D1*
X3909747D2*
X4083558D1*
X466480Y2011231D2*
X670756D1*
X1188793D2*
X1300811D1*
X1561378D2*
X1577227D1*
X2176792D2*
X2224290D1*
X2393927D2*
X2530634D1*
X2647269D2*
X2814549D1*
X2882562D2*
X2906556D1*
X3008874D2*
X3356795D1*
X3424808D2*
X3589217D1*
X3657194D2*
X3702324D1*
X3775576D2*
X3788733D1*
X3912797D2*
X4083630D1*
X466480Y1986363D2*
X680553D1*
X1185061D2*
X1299806D1*
X1561378D2*
X1577227D1*
X2141051D2*
X2199423D1*
X2393927D2*
X2541076D1*
X2636863D2*
X2814549D1*
X2882562D2*
X2898841D1*
X3016589D2*
X3356795D1*
X3424808D2*
X3589217D1*
X3657194D2*
X3681834D1*
X3904867D2*
X4083665D1*
X466480Y1961494D2*
X698028D1*
X880583D2*
X899985D1*
X1561378D2*
X1577227D1*
X2143240D2*
X2174555D1*
X2639949D2*
X2814549D1*
X2882562D2*
X2902753D1*
X3012642D2*
X3356795D1*
X3424808D2*
X3589217D1*
X3657194D2*
X3676703D1*
X3801233D2*
X3821998D1*
X3879568D2*
X4083701D1*
X466480Y1936625D2*
X730001D1*
X848610D2*
X899985D1*
X1561378D2*
X1577227D1*
X2243788D2*
X2276071D1*
X2647808D2*
X2814549D1*
X2882562D2*
X2922238D1*
X2993193D2*
X3356795D1*
X3424808D2*
X3589217D1*
X3657194D2*
X3682444D1*
X3905656D2*
X4083737D1*
X466480Y1911756D2*
X899985D1*
X1234724D2*
X1267941D1*
X1561378D2*
X1577227D1*
X1830904D2*
X1864264D1*
X2218920D2*
X2276610D1*
X2644004D2*
X2814549D1*
X2882562D2*
X3356795D1*
X3424808D2*
X3589217D1*
X3657194D2*
X3704370D1*
X3773566D2*
X3788626D1*
X3912905D2*
X4083809D1*
X466480Y1886888D2*
X899985D1*
X1230095D2*
X1279101D1*
X1561378D2*
X1577227D1*
X1745895D2*
X1800247D1*
X1820498D2*
X1868893D1*
X2437562D2*
X2553133D1*
X2624806D2*
X2814549D1*
X2882562D2*
X3356795D1*
X3424808D2*
X3589217D1*
X3657194D2*
X3686930D1*
X3909244D2*
X4083845D1*
X466480Y1862019D2*
X899985D1*
X1561378D2*
X1577227D1*
X1745895D2*
X1766372D1*
X1854337D2*
X1900902D1*
X1925208D2*
X2131063D1*
X2417969D2*
X2814549D1*
X2882562D2*
X3356795D1*
X3424808D2*
X3589217D1*
X3657194D2*
X3677313D1*
X3800623D2*
X3809869D1*
X3891661D2*
X4083881D1*
X466480Y1837150D2*
X899985D1*
X1561378D2*
X1577227D1*
X1745895D2*
X1761528D1*
X2385387D2*
X2814549D1*
X2882562D2*
X3356795D1*
X3424808D2*
X3589217D1*
X3657194D2*
X3678964D1*
X3899376D2*
X4083917D1*
X466480Y1812281D2*
X801769D1*
X888657D2*
X899985D1*
X1188721D2*
X1344590D1*
X1561378D2*
X1577227D1*
X1745895D2*
X1771288D1*
X2354383D2*
X2814549D1*
X2882562D2*
X3356795D1*
X3424808D2*
X3589217D1*
X3657194D2*
X3693138D1*
X3911577D2*
X4083988D1*
X466480Y1787413D2*
X785945D1*
X1185455D2*
X1344590D1*
X1561378D2*
X1577227D1*
X1645204D2*
X1677882D1*
X1745895D2*
X1786432D1*
X2317996D2*
X2814549D1*
X2882562D2*
X2911796D1*
X3003635D2*
X3356795D1*
X3424808D2*
X3589217D1*
X3657194D2*
X3694609D1*
X3911900D2*
X4084024D1*
X466480Y1762544D2*
X695768D1*
X771029D2*
X783253D1*
X1068616D2*
X1084286D1*
X1168626D2*
X1344590D1*
X1561378D2*
X1577227D1*
X1645204D2*
X1677882D1*
X1745895D2*
X2814549D1*
X2882562D2*
X2899846D1*
X3015585D2*
X3357082D1*
X3442140D2*
X3589217D1*
X3657194D2*
X3679394D1*
X3900561D2*
X4084060D1*
X466480Y1737675D2*
X675924D1*
X1000006D2*
X1344590D1*
X1561378D2*
X1577227D1*
X1645204D2*
X1677882D1*
X1745895D2*
X2814549D1*
X2882562D2*
X2900384D1*
X3015046D2*
X3372907D1*
X3467008D2*
X3589217D1*
X3657194D2*
X3677133D1*
X3800802D2*
X3811699D1*
X3889867D2*
X4084096D1*
X466480Y1712806D2*
X671151D1*
X795645D2*
X815334D1*
X875093D2*
X899985D1*
X1000006D2*
X1344590D1*
X1561378D2*
X1577227D1*
X1645204D2*
X1677882D1*
X1745895D2*
X1765080D1*
X2347708D2*
X2814549D1*
X2882562D2*
X2913805D1*
X3001626D2*
X3397775D1*
X3491876D2*
X3589217D1*
X3657194D2*
X3685961D1*
X3908706D2*
X4084168D1*
X466480Y1687938D2*
X677215D1*
X1000006D2*
X1344590D1*
X1561378D2*
X1577227D1*
X1645204D2*
X1677882D1*
X2373724D2*
X2814549D1*
X2882562D2*
X3422643D1*
X3516743D2*
X3589217D1*
X3657194D2*
X3706774D1*
X3771162D2*
X3788554D1*
X3913012D2*
X4084204D1*
X466480Y1663069D2*
X699966D1*
X766830D2*
X783038D1*
X1000006D2*
X1344590D1*
X1561378D2*
X1577227D1*
X1645204D2*
X1657248D1*
X2455540D2*
X2484020D1*
X2593335D2*
X2602187D1*
X2750724D2*
X2814549D1*
X2882562D2*
X3447511D1*
X3541611D2*
X3589217D1*
X3657194D2*
X3683162D1*
X3906410D2*
X4084240D1*
X466480Y1638200D2*
X681091D1*
X1000006D2*
X1344590D1*
X1561378D2*
X1577227D1*
X2750724D2*
X2814549D1*
X2882562D2*
X3472378D1*
X3566479D2*
X3589612D1*
X3801197D2*
X3819199D1*
X3882367D2*
X4084275D1*
X466480Y1613331D2*
X671689D1*
X795107D2*
X804963D1*
X885464D2*
X899985D1*
X1000006D2*
X1344590D1*
X1561378D2*
X1577227D1*
X2750724D2*
X2814549D1*
X2882562D2*
X3497246D1*
X3591346D2*
X3605939D1*
X3904005D2*
X4084311D1*
X466480Y1588462D2*
X673519D1*
X1000006D2*
X1344590D1*
X2750724D2*
X2814549D1*
X2882562D2*
X3522114D1*
X3616214D2*
X3630807D1*
X3777621D2*
X3788877D1*
X3912653D2*
X4084383D1*
X466480Y1563594D2*
X687945D1*
X1000006D2*
X1344590D1*
X1903534D2*
X1933664D1*
X2041329D2*
X2071460D1*
X2179124D2*
X2209255D1*
X2316920D2*
X2347050D1*
X2454715D2*
X2484845D1*
X2592510D2*
X2602187D1*
X2750724D2*
X2814549D1*
X2882562D2*
X2928589D1*
X2986841D2*
X3546982D1*
X3641082D2*
X3655675D1*
X3910249D2*
X4084419D1*
X466480Y1538725D2*
X689021D1*
X1000006D2*
X1344590D1*
X1690776D2*
X1734184D1*
X1802161D2*
X1815677D1*
X1883690D2*
X1953472D1*
X2021485D2*
X2091268D1*
X2159280D2*
X2504654D1*
X2572666D2*
X2642449D1*
X2710461D2*
X2814549D1*
X2882562D2*
X2904511D1*
X3010884D2*
X3571849D1*
X3665950D2*
X3677779D1*
X3894783D2*
X4084455D1*
X466480Y1513856D2*
X673842D1*
X1000006D2*
X1344590D1*
X1679222D2*
X1720476D1*
X1802161D2*
X1815677D1*
X1883690D2*
X1953472D1*
X2021485D2*
X2091268D1*
X2159280D2*
X2504654D1*
X2572666D2*
X2642449D1*
X2710461D2*
X2814549D1*
X2882562D2*
X2898698D1*
X3016697D2*
X3596717D1*
X3896900D2*
X4084491D1*
X466480Y1488987D2*
X671546D1*
X795251D2*
X806327D1*
X1000006D2*
X1344590D1*
X1645204D2*
X1695609D1*
X1789709D2*
X1815677D1*
X1883690D2*
X1953472D1*
X2021485D2*
X2091268D1*
X2159280D2*
X2504654D1*
X2572666D2*
X2642449D1*
X2710461D2*
X2814549D1*
X2882562D2*
X2904439D1*
X3010992D2*
X3621585D1*
X3910859D2*
X4084563D1*
X466480Y1464119D2*
X680409D1*
X914817D2*
X931993D1*
X1000006D2*
X1344590D1*
X1645204D2*
X1670741D1*
X1764841D2*
X1815677D1*
X1883690D2*
X1953472D1*
X2021485D2*
X2091268D1*
X2159280D2*
X2504654D1*
X2572666D2*
X2642449D1*
X2710461D2*
X2814549D1*
X2882562D2*
X2928230D1*
X2987200D2*
X3646452D1*
X3780277D2*
X3789164D1*
X3912366D2*
X4084598D1*
X466480Y1439250D2*
X701832D1*
X765000D2*
X783002D1*
X907425D2*
X931993D1*
X1000006D2*
X1344590D1*
X1443606D2*
X1453929D1*
X1739974D2*
X1815677D1*
X1883690D2*
X1953472D1*
X2021485D2*
X2091268D1*
X2159280D2*
X2504654D1*
X2572666D2*
X2642449D1*
X2710461D2*
X2814549D1*
X2882562D2*
X3671320D1*
X3902606D2*
X4084634D1*
X466480Y1414381D2*
X677754D1*
X1000006D2*
X1344590D1*
X1443606D2*
X1478796D1*
X1715106D2*
X1815677D1*
X1883690D2*
X1953472D1*
X2021485D2*
X2076950D1*
X2159280D2*
X2504654D1*
X2572666D2*
X2642449D1*
X2710461D2*
X2814549D1*
X2882562D2*
X3676846D1*
X3801090D2*
X3815646D1*
X3885920D2*
X4084670D1*
X466480Y1389512D2*
X671187D1*
X996956D2*
X1344590D1*
X1443606D2*
X1503664D1*
X1740117D2*
X1815677D1*
X1883690D2*
X1953472D1*
X2021485D2*
X2048637D1*
X2159280D2*
X2504654D1*
X2572666D2*
X2642449D1*
X2710461D2*
X2814549D1*
X2882562D2*
X3684274D1*
X3907486D2*
X4084742D1*
X466480Y1364644D2*
X675493D1*
X974636D2*
X1344590D1*
X1443606D2*
X1511451D1*
X1747832D2*
X1815677D1*
X1883690D2*
X1953472D1*
X2021485D2*
X2044690D1*
X2181098D2*
X2319994D1*
X2449691D2*
X2504654D1*
X2572666D2*
X2642449D1*
X2710461D2*
X2814549D1*
X2882562D2*
X3710900D1*
X3767035D2*
X3788518D1*
X3913048D2*
X4084778D1*
X466480Y1339775D2*
X694332D1*
X772500D2*
X782954D1*
X907496D2*
X1344590D1*
X1443606D2*
X1468139D1*
X1772700D2*
X1815677D1*
X1883690D2*
X1953472D1*
X2021485D2*
X2055527D1*
X2467956D2*
X2504654D1*
X2572666D2*
X2642449D1*
X2710461D2*
X2815626D1*
X2903734D2*
X3684669D1*
X3907773D2*
X4084814D1*
X466480Y1314906D2*
X782930D1*
X907496D2*
X1344590D1*
X1797568D2*
X1815677D1*
X1883690D2*
X1953472D1*
X2021485D2*
X2059367D1*
X2468566D2*
X2504654D1*
X2572666D2*
X2642449D1*
X2710461D2*
X2834501D1*
X2959211D2*
X3676918D1*
X3801018D2*
X3814642D1*
X3886889D2*
X4084850D1*
X466480Y1290037D2*
X782930D1*
X907496D2*
X1344590D1*
X1807077D2*
X1815677D1*
X1883690D2*
X1953472D1*
X2030851D2*
X2059367D1*
X2452634D2*
X2504654D1*
X2572666D2*
X2642449D1*
X2710461D2*
X2859405D1*
X2985227D2*
X3680112D1*
X3902139D2*
X4084921D1*
X466480Y1265169D2*
X1344590D1*
X1883690D2*
X1961690D1*
X2438926D2*
X2504654D1*
X2572666D2*
X2642449D1*
X2710461D2*
X2873722D1*
X2991686D2*
X3696906D1*
X3781030D2*
X3789272D1*
X3912295D2*
X4084957D1*
X466480Y1240300D2*
X1344590D1*
X1883690D2*
X1986486D1*
X2438962D2*
X2504654D1*
X2572666D2*
X2642449D1*
X2710461D2*
X2878818D1*
X2986626D2*
X3676703D1*
X3911039D2*
X4084993D1*
X466480Y1215431D2*
X1344590D1*
X1883690D2*
X2011354D1*
X2438962D2*
X2504654D1*
X2572666D2*
X2642449D1*
X2710461D2*
X2900959D1*
X2964486D2*
X3676703D1*
X3897510D2*
X4085029D1*
X466480Y1190562D2*
X1344590D1*
X1729424D2*
X1815677D1*
X1883690D2*
X2036221D1*
X2130322D2*
X2197198D1*
X2433507D2*
X2504654D1*
X2572666D2*
X2642449D1*
X2710461D2*
X3676703D1*
X3801233D2*
X4085101D1*
X466480Y1165693D2*
X732047D1*
X846565D2*
X1344590D1*
X1729424D2*
X1815677D1*
X1883690D2*
X2061089D1*
X2153216D2*
X2162534D1*
X2421091D2*
X2504654D1*
X2572666D2*
X2642449D1*
X2710461D2*
X3676703D1*
X3801233D2*
X4085137D1*
X466480Y1140825D2*
X699033D1*
X879579D2*
X1344590D1*
X1729424D2*
X1815677D1*
X2241563D2*
X2305927D1*
X2421988D2*
X2504654D1*
X2572666D2*
X2642449D1*
X2710461D2*
X4085173D1*
X466480Y1115956D2*
X681127D1*
X897485D2*
X1344590D1*
X1729424D2*
X1783274D1*
X2222508D2*
X2306860D1*
X2572307D2*
X2642449D1*
X2710461D2*
X4085208D1*
X466480Y1091087D2*
X671043D1*
X907568D2*
X1344590D1*
X1729424D2*
X1779326D1*
X2212604D2*
X2281992D1*
X2556052D2*
X2642449D1*
X2710461D2*
X4085280D1*
X466480Y1066218D2*
X666845D1*
X911767D2*
X1344590D1*
X1412602D2*
X1536211D1*
X1729424D2*
X1779326D1*
X2056006D2*
X2073972D1*
X2171660D2*
X2257124D1*
X2422921D2*
X2642449D1*
X2710461D2*
X2909248D1*
X2956196D2*
X4085316D1*
X466480Y1041350D2*
X667850D1*
X910762D2*
X1344590D1*
X1412602D2*
X1536211D1*
X1743419D2*
X1779326D1*
X2418328D2*
X2642449D1*
X2710461D2*
X2880899D1*
X2984509D2*
X3754572D1*
X3835144D2*
X4085352D1*
X466480Y1016481D2*
X674273D1*
X904339D2*
X1344590D1*
X1412602D2*
X1536211D1*
X1741804D2*
X1779326D1*
X1847303D2*
X1921679D1*
X2710461D2*
X2873794D1*
X2991650D2*
X3711833D1*
X3877918D2*
X4085388D1*
X466480Y991612D2*
X687048D1*
X891564D2*
X1344590D1*
X1412602D2*
X1536211D1*
X1721314D2*
X1779326D1*
X1847303D2*
X1929394D1*
X2697866D2*
X2878244D1*
X2987200D2*
X3690877D1*
X3898874D2*
X4085424D1*
X466480Y966743D2*
X709368D1*
X869244D2*
X1344590D1*
X1412602D2*
X1536211D1*
X1676207D2*
X1779326D1*
X1847303D2*
X2058505D1*
X2438962D2*
X2898877D1*
X2966531D2*
X3678856D1*
X3910895D2*
X4085496D1*
X466480Y941875D2*
X758493D1*
X820118D2*
X1344590D1*
X1412602D2*
X1536211D1*
X1676207D2*
X1779326D1*
X1847303D2*
X2057824D1*
X2173024D2*
X2316620D1*
X2438962D2*
X3673079D1*
X3916673D2*
X4085531D1*
X466480Y917006D2*
X1344590D1*
X1412602D2*
X1536211D1*
X1676207D2*
X1779326D1*
X1847303D2*
X2048350D1*
X2438962D2*
X3672612D1*
X3917139D2*
X4085567D1*
X466480Y892137D2*
X1344590D1*
X1412602D2*
X1536211D1*
X1676207D2*
X1779326D1*
X1847303D2*
X2042932D1*
X2438962D2*
X3677421D1*
X3912331D2*
X4085603D1*
X466480Y867268D2*
X543439D1*
X646977D2*
X1344590D1*
X1412602D2*
X1536211D1*
X1686578D2*
X1779326D1*
X1847303D2*
X2052010D1*
X2438962D2*
X3688186D1*
X3901529D2*
X4085675D1*
X466480Y842399D2*
X502137D1*
X688280D2*
X1344590D1*
X1412602D2*
X1536211D1*
X1711446D2*
X1779326D1*
X1847303D2*
X2126291D1*
X2219063D2*
X2274887D1*
X2434691D2*
X3707240D1*
X3882511D2*
X4085711D1*
X466480Y817531D2*
X479852D1*
X710564D2*
X1344590D1*
X1412602D2*
X1536211D1*
X1736313D2*
X1779326D1*
X1847303D2*
X2138671D1*
X2206683D2*
X2270437D1*
X2420553D2*
X2912872D1*
X2952572D2*
X3743268D1*
X3846483D2*
X4085747D1*
X724344Y792662D2*
X1047576D1*
X1117850D2*
X1247559D1*
X1317868D2*
X1344590D1*
X1412602D2*
X1536211D1*
X1654892D2*
X1667081D1*
X1761181D2*
X1779326D1*
X1847303D2*
X2138671D1*
X2206683D2*
X2270437D1*
X2422311D2*
X2881653D1*
X2983755D2*
X4085783D1*
X732238Y767793D2*
X1016500D1*
X1148925D2*
X1216483D1*
X1412602D2*
X1544608D1*
X1638673D2*
X1691949D1*
X1847303D2*
X2138671D1*
X2206683D2*
X2261395D1*
X2411977D2*
X2873866D1*
X2991578D2*
X4085854D1*
X735288Y742924D2*
X1003941D1*
X1161485D2*
X1203924D1*
X1412602D2*
X1569440D1*
X1663540D2*
X1707415D1*
X1847303D2*
X2138671D1*
X2414848D2*
X2877706D1*
X2987739D2*
X4085890D1*
X733781Y718056D2*
X1000604D1*
X1164822D2*
X1200586D1*
X1412602D2*
X1594308D1*
X1688408D2*
X1698525D1*
X1847303D2*
X2140931D1*
X2422814D2*
X2897011D1*
X2968433D2*
X3906039D1*
X4034373D2*
X4085926D1*
X727573Y693187D2*
X1005233D1*
X1412602D2*
X1619175D1*
X1847303D2*
X2162211D1*
X2419082D2*
X3871267D1*
X4069180D2*
X4085962D1*
X466480Y668318D2*
X474493D1*
X715947D2*
X1019622D1*
X1412602D2*
X1644043D1*
X1845078D2*
X2327888D1*
X2400027D2*
X3851244D1*
X466480Y643449D2*
X493417D1*
X697000D2*
X1058234D1*
X1412602D2*
X1651184D1*
X1823799D2*
X3838899D1*
X466480Y618581D2*
X525641D1*
X664776D2*
X1104524D1*
X1407327D2*
X1683013D1*
X1707821D2*
X3832117D1*
X466480Y593712D2*
X1050016D1*
X1382424D2*
X3830072D1*
X466480Y568843D2*
X1017290D1*
X1348118D2*
X3832584D1*
X466480Y543974D2*
X1004264D1*
X1161162D2*
X1204247D1*
X1361180D2*
X3839904D1*
X466480Y519106D2*
X1000568D1*
X1164858D2*
X1200586D1*
X1364840D2*
X3852894D1*
X466480Y494237D2*
X1004838D1*
X1160588D2*
X1204857D1*
X1360570D2*
X3873958D1*
X4066453D2*
X4086321D1*
X466480Y469368D2*
X1018725D1*
X1146700D2*
X1218744D1*
X1346683D2*
X3911529D1*
X4028882D2*
X4086393D1*
X466480Y444499D2*
X1054861D1*
X1110565D2*
X1254879D1*
X1310548D2*
X4086428D1*
X904980Y1355538D2*
Y1272741D1*
X785444D1*
Y1355540D1*
X784173Y1355536D1*
X778849Y1348220D1*
X772217Y1341588D1*
X764630Y1336076D1*
X756273Y1331818D1*
X747354Y1328920D1*
X738090Y1327452D1*
X728712D1*
X719449Y1328920D1*
X710529Y1331818D1*
X702173Y1336076D1*
X694585Y1341588D1*
X687953Y1348220D1*
X682441Y1355807D1*
X678183Y1364164D1*
X675285Y1373083D1*
X673818Y1382347D1*
Y1391725D1*
X675285Y1400988D1*
X678183Y1409908D1*
X682441Y1418265D1*
X687953Y1425852D1*
X694585Y1432484D1*
X702173Y1437996D1*
X708981Y1441540D1*
X702173Y1445131D1*
X694585Y1450643D1*
X687953Y1457275D1*
X682441Y1464863D1*
X678183Y1473219D1*
X675285Y1482139D1*
X673818Y1491402D1*
Y1500780D1*
X675285Y1510044D1*
X678183Y1518963D1*
X682441Y1527320D1*
X687953Y1534907D1*
X694585Y1541539D1*
X702173Y1547051D1*
X708981Y1550595D1*
X702173Y1554186D1*
X694585Y1559698D1*
X687953Y1566330D1*
X682441Y1573918D1*
X678183Y1582274D1*
X675285Y1591194D1*
X673818Y1600457D1*
Y1609836D1*
X675285Y1619099D1*
X678183Y1628018D1*
X682441Y1636375D1*
X687953Y1643962D1*
X694585Y1650594D1*
X702173Y1656107D1*
X708981Y1659651D1*
X702173Y1663241D1*
X694585Y1668754D1*
X687953Y1675385D1*
X682441Y1682973D1*
X678183Y1691329D1*
X675285Y1700249D1*
X673818Y1709512D1*
Y1718891D1*
X675285Y1728154D1*
X678183Y1737073D1*
X682441Y1745430D1*
X687953Y1753017D1*
X694585Y1759649D1*
X702173Y1765162D1*
X710529Y1769419D1*
X719449Y1772318D1*
X728712Y1773785D1*
X738090D1*
X747354Y1772318D1*
X756273Y1769419D1*
X764630Y1765162D1*
X772217Y1759649D1*
X778849Y1753017D1*
X784362Y1745430D1*
X788619Y1737073D1*
X791517Y1728154D1*
X792985Y1718891D1*
Y1709512D1*
X791517Y1700249D1*
X788619Y1691329D1*
X784362Y1682973D1*
X778849Y1675385D1*
X772217Y1668754D1*
X764630Y1663241D1*
X757822Y1659697D1*
X764630Y1656107D1*
X772217Y1650594D1*
X778849Y1643962D1*
X784362Y1636375D1*
X788619Y1628018D1*
X791517Y1619099D1*
X792985Y1609836D1*
Y1600457D1*
X791517Y1591194D1*
X788619Y1582274D1*
X784362Y1573918D1*
X778849Y1566330D1*
X772217Y1559698D1*
X764630Y1554186D1*
X757822Y1550642D1*
X764630Y1547051D1*
X772217Y1541539D1*
X778849Y1534907D1*
X784362Y1527320D1*
X788619Y1518963D1*
X791517Y1510044D1*
X792985Y1500780D1*
Y1491402D1*
X791517Y1482139D1*
X788619Y1473219D1*
X784362Y1464863D1*
X778849Y1457275D1*
X772217Y1450643D1*
X764630Y1445131D1*
X757822Y1441587D1*
X764630Y1437996D1*
X772217Y1432484D1*
X778849Y1425852D1*
X784188Y1418524D1*
X789994Y1418691D1*
X787096Y1427611D1*
X785629Y1436874D1*
Y1446253D1*
X787096Y1455516D1*
X789994Y1464436D1*
X794252Y1472792D1*
X799764Y1480380D1*
X806396Y1487011D1*
X813984Y1492524D1*
X820792Y1496068D1*
X813984Y1499658D1*
X806396Y1505171D1*
X799764Y1511803D1*
X794252Y1519390D1*
X789994Y1527747D1*
X787096Y1536666D1*
X785629Y1545929D1*
Y1555308D1*
X787096Y1564571D1*
X789994Y1573491D1*
X794252Y1581847D1*
X799764Y1589435D1*
X806396Y1596066D1*
X813984Y1601579D1*
X820792Y1605123D1*
X813984Y1608713D1*
X806396Y1614226D1*
X799764Y1620858D1*
X794252Y1628445D1*
X789994Y1636802D1*
X787096Y1645721D1*
X785629Y1654984D1*
Y1664363D1*
X787096Y1673626D1*
X789994Y1682546D1*
X794252Y1690902D1*
X799764Y1698490D1*
X806396Y1705121D1*
X813984Y1710634D1*
X820792Y1714178D1*
X813984Y1717769D1*
X806396Y1723281D1*
X799764Y1729913D1*
X794252Y1737500D1*
X789994Y1745857D1*
X787096Y1754776D1*
X785629Y1764040D1*
Y1773418D1*
X787096Y1782681D1*
X789994Y1791601D1*
X794252Y1799957D1*
X799764Y1807545D1*
X806396Y1814177D1*
X813984Y1819689D1*
X822340Y1823947D1*
X831260Y1826845D1*
X840523Y1828312D1*
X849902D1*
X859165Y1826845D1*
X868084Y1823947D1*
X876441Y1819689D1*
X884028Y1814177D1*
X890660Y1807545D1*
X896173Y1799957D1*
X900430Y1791601D1*
X902498Y1785628D1*
X902494Y2002115D1*
X897090Y1989341D1*
X892713Y1981267D1*
X887732Y1973551D1*
X882177Y1966237D1*
X876080Y1959369D1*
X869476Y1952987D1*
X862404Y1947127D1*
X854905Y1941825D1*
X847023Y1937110D1*
X838804Y1933011D1*
X830297Y1929552D1*
X821550Y1926752D1*
X812615Y1924628D1*
X803543Y1923193D1*
X794389Y1922454D1*
X785205Y1922417D1*
X776045Y1923081D1*
X766962Y1924442D1*
X758010Y1926493D1*
X749241Y1929221D1*
X740705Y1932611D1*
X732453Y1936643D1*
X724533Y1941293D1*
X716991Y1946534D1*
X709872Y1952335D1*
X703216Y1958664D1*
X697062Y1965481D1*
X691448Y1972749D1*
X686404Y1980425D1*
X681961Y1988463D1*
X678145Y1996817D1*
X674978Y2005437D1*
X672478Y2014275D1*
X670661Y2023277D1*
X669536Y2032392D1*
X669110Y2041566D1*
X669386Y2050746D1*
X670362Y2059878D1*
X672032Y2068909D1*
X674387Y2077786D1*
X677413Y2086458D1*
X681092Y2094873D1*
X685403Y2102982D1*
X690321Y2110739D1*
X695816Y2118097D1*
X701857Y2125015D1*
X708409Y2131451D1*
X715433Y2137368D1*
X722888Y2142732D1*
X730731Y2147510D1*
X738916Y2151676D1*
X747395Y2155205D1*
X756119Y2158076D1*
X765037Y2160273D1*
X774096Y2161782D1*
X783244Y2162596D1*
X792427Y2162708D1*
X801592Y2162119D1*
X810686Y2160832D1*
X819655Y2158854D1*
X828446Y2156198D1*
X837009Y2152878D1*
X845294Y2148914D1*
X853251Y2144328D1*
X860836Y2139149D1*
X868003Y2133406D1*
X874710Y2127132D1*
X880919Y2120365D1*
X886593Y2113143D1*
X891699Y2105509D1*
X896207Y2097508D1*
X900091Y2089185D1*
X902936Y2081631D1*
X904036Y2086038D1*
X905927Y2090604D1*
X908510Y2094819D1*
X911727Y2098584D1*
X929536Y2116257D1*
X933535Y2119162D1*
X937939Y2121406D1*
X942640Y2122933D1*
X947522Y2123707D1*
X1014298Y2123804D1*
X1124427D1*
X1125000Y2130578D1*
X1126703Y2137673D1*
X1129495Y2144414D1*
X1133308Y2150636D1*
X1138047Y2156184D1*
X1143595Y2160923D1*
X1149816Y2164735D1*
X1156558Y2167528D1*
X1163653Y2169231D1*
X1170927Y2169804D1*
X1178201Y2169231D1*
X1185296Y2167528D1*
X1192038Y2164735D1*
X1198259Y2160923D1*
X1203807Y2156184D1*
X1205076Y2154812D1*
X1396060Y2154707D1*
X1400942Y2153933D1*
X1405643Y2152406D1*
X1410047Y2150162D1*
X1414046Y2147257D1*
X1428676Y2132764D1*
X1430002Y2137673D1*
X1432794Y2144414D1*
X1436607Y2150636D1*
X1441346Y2156184D1*
X1446894Y2160923D1*
X1453116Y2164735D1*
X1459857Y2167528D1*
X1466952Y2169231D1*
X1474226Y2169804D1*
X1481500Y2169231D1*
X1488596Y2167528D1*
X1495337Y2164735D1*
X1500787Y2161438D1*
X1506265Y2164735D1*
X1513007Y2167528D1*
X1520102Y2169231D1*
X1527376Y2169804D1*
X1534650Y2169231D1*
X1541745Y2167528D1*
X1548486Y2164735D1*
X1554708Y2160923D1*
X1560256Y2156184D1*
X1564995Y2150636D1*
X1568808Y2144414D1*
X1571600Y2137673D1*
X1573303Y2130578D1*
X1573876Y2123304D1*
X1573303Y2116029D1*
X1571600Y2108934D1*
X1568808Y2102193D1*
X1564995Y2095972D1*
X1560256Y2090423D1*
X1558884Y2089155D1*
X1558876Y1600363D1*
X1565778Y1601334D1*
X1574643D1*
X1579712Y1600681D1*
X1579807Y2345126D1*
X1580581Y2350008D1*
X1582108Y2354709D1*
X1584352Y2359113D1*
X1587258Y2363112D1*
X1604937Y2380928D1*
X1608695Y2384138D1*
X1612910Y2386721D1*
X1617476Y2388612D1*
X1622283Y2389766D1*
X1627220Y2390154D1*
X1727076D1*
X1724997Y2396653D1*
X1723855Y2403860D1*
Y2411157D1*
X1724997Y2418364D1*
X1727251Y2425303D1*
X1730564Y2431805D1*
X1734853Y2437708D1*
X1738703Y2441657D1*
X1738713Y2648327D1*
X1736064Y2651000D1*
X1727785Y2651396D1*
X1722979Y2652550D1*
X1718412Y2654442D1*
X1714198Y2657024D1*
X1710433Y2660242D1*
X1699858Y2670815D1*
X1693395Y2669933D1*
X1684530D1*
X1675773Y2671320D1*
X1667341Y2674060D1*
X1659441Y2678085D1*
X1652269Y2683296D1*
X1646000Y2689565D1*
X1640788Y2696738D1*
X1636763Y2704637D1*
X1634024Y2713069D1*
X1632637Y2721826D1*
Y2730692D1*
X1634024Y2739449D1*
X1636763Y2747881D1*
X1637061Y2748526D1*
X1626720Y2738191D1*
X1626713Y2560004D1*
X1665012Y2521716D1*
X1670579Y2521605D1*
X1677786Y2520464D1*
X1684726Y2518209D1*
X1691227Y2514896D1*
X1697130Y2510607D1*
X1702290Y2505448D1*
X1706579Y2499545D1*
X1709891Y2493043D1*
X1712146Y2486104D1*
X1713288Y2478897D1*
Y2471600D1*
X1712146Y2464393D1*
X1709891Y2457454D1*
X1706579Y2450952D1*
X1702290Y2445049D1*
X1697130Y2439890D1*
X1691227Y2435601D1*
X1684726Y2432288D1*
X1677786Y2430033D1*
X1670579Y2428892D1*
X1663283D1*
X1656076Y2430033D1*
X1649136Y2432288D1*
X1642635Y2435601D1*
X1636732Y2439890D1*
X1631572Y2445049D1*
X1627283Y2450952D1*
X1623971Y2457454D1*
X1621716Y2464393D1*
X1620574Y2471600D1*
X1620504Y2477115D1*
X1571260Y2526509D1*
X1568354Y2530508D1*
X1566110Y2534912D1*
X1564583Y2539614D1*
X1563809Y2544496D1*
X1563712Y2611272D1*
X1563809Y2753702D1*
X1564583Y2758584D1*
X1566110Y2763285D1*
X1568354Y2767690D1*
X1571260Y2771689D1*
X1618409Y2818975D1*
X1627505Y2827934D1*
X1631504Y2830839D1*
X1635908Y2833083D1*
X1640609Y2834611D1*
X1645491Y2835384D1*
X1652807Y2835481D1*
X1647942Y2843672D1*
X1643632Y2854078D1*
X1641002Y2865030D1*
X1640119Y2876258D1*
X1641002Y2887486D1*
X1643632Y2898438D1*
X1647942Y2908843D1*
X1652885Y2917037D1*
X1545658Y2917036D1*
X1545561Y2517209D1*
X1544788Y2512327D1*
X1543260Y2507626D1*
X1541016Y2503222D1*
X1538111Y2499223D1*
X1490962Y2451936D1*
X1336155Y2297130D1*
X1336040Y2291557D1*
X1334898Y2284350D1*
X1332643Y2277410D1*
X1329331Y2270909D1*
X1325042Y2265006D1*
X1319882Y2259846D1*
X1313979Y2255557D1*
X1307478Y2252245D1*
X1300538Y2249990D1*
X1293331Y2248849D1*
X1289184Y2248725D1*
X1288610Y2240951D1*
X1286907Y2233856D1*
X1284115Y2227114D1*
X1280302Y2220893D1*
X1275563Y2215344D1*
X1270015Y2210606D1*
X1263793Y2206793D1*
X1257052Y2204001D1*
X1249957Y2202297D1*
X1242683Y2201725D1*
X1235409Y2202297D1*
X1228314Y2204001D1*
X1221572Y2206793D1*
X1215351Y2210606D1*
X1209802Y2215344D1*
X1205064Y2220893D1*
X1203297Y2223537D1*
X1203962Y2215701D1*
X1203390Y2208427D1*
X1201687Y2201332D1*
X1198894Y2194591D1*
X1195082Y2188369D1*
X1190343Y2182821D1*
X1184794Y2178082D1*
X1178573Y2174270D1*
X1171832Y2171477D1*
X1164737Y2169774D1*
X1157462Y2169201D1*
X1150188Y2169774D1*
X1143093Y2171477D1*
X1136352Y2174270D1*
X1130130Y2178082D1*
X1124582Y2182821D1*
X1123314Y2184193D1*
X1096240Y2184298D1*
X1091358Y2185072D1*
X1086657Y2186599D1*
X1082253Y2188843D1*
X1078254Y2191749D1*
X1060438Y2209427D1*
X1057228Y2213186D1*
X1054645Y2217401D1*
X1052754Y2221967D1*
X1051600Y2226774D1*
X1051309Y2229240D1*
X1049915Y2231608D1*
X1044311Y2237211D1*
X1039653Y2243622D1*
X1036056Y2250683D1*
X1033607Y2258219D1*
X1032367Y2266046D1*
Y2273971D1*
X1033607Y2281797D1*
X1036056Y2289334D1*
X1039653Y2296395D1*
X1044311Y2302806D1*
X1049915Y2308409D1*
X1056326Y2313067D1*
X1063386Y2316664D1*
X1070923Y2319113D1*
X1078750Y2320353D1*
X1086674D1*
X1094501Y2319113D1*
X1102037Y2316664D1*
X1109098Y2313067D1*
X1115509Y2308409D1*
X1121112Y2302806D1*
X1125770Y2296395D1*
X1129368Y2289334D1*
X1131816Y2281797D1*
X1133056Y2273971D1*
Y2266046D1*
X1131816Y2258219D1*
X1130413Y2253517D1*
X1136352Y2257133D1*
X1143093Y2259925D1*
X1150188Y2261629D1*
X1157462Y2262201D1*
X1164737Y2261629D1*
X1171832Y2259925D1*
X1178573Y2257133D1*
X1184794Y2253321D1*
X1190343Y2248582D1*
X1195082Y2243033D1*
X1196849Y2240389D1*
X1196183Y2248225D1*
X1196755Y2255499D1*
X1198459Y2262594D1*
X1201251Y2269335D1*
X1205064Y2275557D1*
X1209802Y2281105D1*
X1211174Y2282374D1*
X1211183Y2287016D1*
X1088338Y2409835D1*
X1082712Y2409508D1*
X1074812Y2410130D1*
X1067106Y2411980D1*
X1059785Y2415013D1*
X1053029Y2419153D1*
X1047003Y2424300D1*
X1041856Y2430325D1*
X1037716Y2437082D1*
X1034683Y2444403D1*
X1032834Y2452108D1*
X1032212Y2460008D1*
X1032834Y2467908D1*
X1034683Y2475614D1*
X1037716Y2482935D1*
X1041856Y2489692D1*
X1047003Y2495717D1*
X1053029Y2500864D1*
X1059785Y2505004D1*
X1067106Y2508037D1*
X1074812Y2509887D1*
X1082712Y2510508D1*
X1090612Y2509887D1*
X1098317Y2508037D1*
X1105638Y2505004D1*
X1112395Y2500864D1*
X1118421Y2495717D1*
X1123567Y2489692D1*
X1127708Y2482935D1*
X1130740Y2475614D1*
X1132590Y2467908D1*
X1133212Y2460008D1*
X1132861Y2454400D1*
X1258016Y2329252D1*
X1262351Y2332825D1*
X1268572Y2336637D1*
X1275314Y2339429D1*
X1282409Y2341133D1*
X1289683Y2341705D1*
X1291550Y2341632D1*
X1482656Y2532726D1*
X1482755Y2935006D1*
X1483528Y2939888D1*
X1485056Y2944589D1*
X1487300Y2948993D1*
X1490205Y2952992D1*
X1507885Y2970810D1*
X1511644Y2974020D1*
X1515859Y2976603D1*
X1520425Y2978494D1*
X1525232Y2979648D1*
X1530169Y2980036D1*
X2168028Y2979939D1*
X2172910Y2979166D1*
X2177611Y2977638D1*
X2182016Y2975394D1*
X2186015Y2972489D1*
X2199934Y2958706D1*
X2205376Y2961638D1*
X2210077Y2963166D1*
X2214960Y2963939D1*
X2281735Y2964036D1*
X2484859Y2963939D1*
X2489741Y2963166D1*
X2494442Y2961638D1*
X2498846Y2959394D1*
X2502845Y2956489D1*
X2515344Y2944127D1*
X2521910Y2946050D1*
X2533034Y2947812D1*
X2544297D1*
X2555422Y2946050D1*
X2566133Y2942570D1*
X2576169Y2937456D1*
X2585280Y2930836D1*
X2593244Y2922872D1*
X2599865Y2913760D1*
X2604692Y2904345D1*
X2604686Y2948033D1*
X2748237D1*
Y2804482D1*
X2718561D1*
X2728545Y2794372D1*
X2731451Y2790373D1*
X2733695Y2785968D1*
X2735222Y2781267D1*
X2735995Y2776385D1*
X2736092Y2709609D1*
X2735995Y2292167D1*
X2735222Y2287285D1*
X2733695Y2282584D1*
X2731451Y2278180D1*
X2728545Y2274181D1*
X2681396Y2226894D1*
X2661478Y2206976D1*
X2661365Y2075041D1*
X2660592Y2070159D1*
X2659065Y2065458D1*
X2656821Y2061054D1*
X2653915Y2057055D1*
X2640387Y2043389D1*
X2642697Y2037468D1*
X2644767Y2028847D1*
X2645462Y2020008D1*
X2644767Y2011170D1*
X2642697Y2002549D1*
X2639304Y1994358D1*
X2634672Y1986799D1*
X2628914Y1980057D1*
X2624690Y1976284D1*
X2628914Y1972460D1*
X2634672Y1965718D1*
X2639304Y1958159D1*
X2642697Y1949968D1*
X2644767Y1941347D1*
X2645462Y1932508D1*
X2644767Y1923670D1*
X2642697Y1915049D1*
X2639304Y1906858D1*
X2634672Y1899299D1*
X2628914Y1892557D1*
X2622172Y1886799D1*
X2614613Y1882167D1*
X2606422Y1878774D1*
X2597801Y1876704D1*
X2588962Y1876008D1*
X2580124Y1876704D1*
X2571503Y1878774D1*
X2563312Y1882167D1*
X2555753Y1886799D1*
X2549011Y1892557D1*
X2543253Y1899299D1*
X2542107Y1901013D1*
X2437424Y1901008D1*
X2436839Y1894234D1*
X2435135Y1887139D1*
X2432343Y1880398D1*
X2428531Y1874176D1*
X2423792Y1868628D1*
X2418243Y1863889D1*
X2412022Y1860077D1*
X2405281Y1857284D1*
X2398185Y1855581D1*
X2390911Y1855008D1*
X2387505Y1855142D1*
X2387004Y1850234D1*
X2385301Y1843139D1*
X2382508Y1836398D1*
X2378696Y1830176D1*
X2373957Y1824628D1*
X2368409Y1819889D1*
X2362187Y1816077D1*
X2355446Y1813284D1*
X2348351Y1811581D1*
X2341077Y1811008D1*
X2339210Y1811082D1*
X2314534Y1786556D1*
X2310535Y1783650D1*
X2306131Y1781406D1*
X2301430Y1779879D1*
X2296548Y1779105D1*
X2229772Y1779008D1*
X1807889Y1779105D1*
X1803007Y1779879D1*
X1798306Y1781406D1*
X1793901Y1783650D1*
X1789902Y1786556D1*
X1786407Y1790051D1*
X1783502Y1794050D1*
X1781258Y1798454D1*
X1779730Y1803155D1*
X1779247Y1805590D1*
X1777480Y1808136D1*
X1772741Y1813684D1*
X1768928Y1819906D1*
X1766136Y1826647D1*
X1764433Y1833742D1*
X1763860Y1841016D1*
X1764433Y1848290D1*
X1766136Y1855386D1*
X1768928Y1862127D1*
X1772741Y1868348D1*
X1777480Y1873897D1*
X1783028Y1878636D1*
X1789250Y1882448D1*
X1795991Y1885240D1*
X1803086Y1886944D1*
X1810360Y1887516D1*
X1817634Y1886944D1*
X1824729Y1885240D1*
X1831471Y1882448D1*
X1837692Y1878636D1*
X1843241Y1873897D1*
X1847979Y1868348D1*
X1851792Y1862127D1*
X1854584Y1855386D1*
X1856288Y1848290D1*
X1856821Y1842000D1*
X2136009Y1842008D1*
X2134625Y1846653D1*
X2133484Y1853860D1*
Y1861157D1*
X2134625Y1868364D1*
X2136135Y1873283D1*
X2133459Y1876000D1*
X1947243Y1876008D1*
X1943256Y1872150D1*
X1937353Y1867861D1*
X1930852Y1864548D1*
X1923912Y1862293D1*
X1916705Y1861152D1*
X1909409D1*
X1902202Y1862293D1*
X1895262Y1864548D1*
X1888761Y1867861D1*
X1882858Y1872150D1*
X1877698Y1877309D1*
X1873409Y1883212D1*
X1870097Y1889714D1*
X1867842Y1896653D1*
X1866700Y1903860D1*
Y1911157D1*
X1866980Y1913522D1*
X1829584Y1913510D1*
X1825676Y1908316D1*
X1819407Y1902047D1*
X1812234Y1896836D1*
X1804335Y1892811D1*
X1795903Y1890071D1*
X1787146Y1888684D1*
X1778280D1*
X1769523Y1890071D1*
X1761092Y1892811D1*
X1753192Y1896836D1*
X1746019Y1902047D1*
X1743385Y1904482D1*
X1743395Y1689500D1*
X1752393Y1698806D1*
X1763713Y1709989D1*
X1767712Y1712894D1*
X1772117Y1715138D1*
X1776818Y1716666D1*
X1781700Y1717439D1*
X1848476Y1717536D1*
X2331064Y1717439D1*
X2335946Y1716666D1*
X2340647Y1715138D1*
X2345051Y1712894D1*
X2349050Y1709989D1*
X2377534Y1681642D1*
X2384115Y1683550D1*
X2395239Y1685312D1*
X2406502D1*
X2417626Y1683550D1*
X2428338Y1680070D1*
X2438373Y1674956D1*
X2447485Y1668336D1*
X2455449Y1660372D1*
X2462069Y1651260D1*
X2467183Y1641225D1*
X2469737Y1633798D1*
X2472354Y1641225D1*
X2477467Y1651260D1*
X2484087Y1660372D1*
X2492051Y1668336D1*
X2501163Y1674956D1*
X2511199Y1680070D1*
X2521910Y1683550D1*
X2533034Y1685312D1*
X2544297D1*
X2555422Y1683550D1*
X2566133Y1680070D1*
X2576169Y1674956D1*
X2585280Y1668336D1*
X2593244Y1660372D1*
X2599865Y1651260D1*
X2604692Y1641845D1*
X2604686Y1685533D1*
X2748237D1*
Y1541982D1*
X2707939D1*
X2707864Y1014792D1*
X2707091Y1009909D1*
X2705563Y1005208D1*
X2703319Y1000804D1*
X2700414Y996805D1*
X2682732Y978986D1*
X2678974Y975776D1*
X2674759Y973194D1*
X2670193Y971302D1*
X2665386Y970148D1*
X2660449Y969761D1*
X2436434Y969760D1*
X2436365Y855789D1*
X2435592Y850907D1*
X2434065Y846206D1*
X2431821Y841802D1*
X2428915Y837803D1*
X2415539Y824289D1*
X2417696Y818717D1*
X2419766Y810096D1*
X2420461Y801258D1*
X2419766Y792419D1*
X2417696Y783798D1*
X2414303Y775607D1*
X2409671Y768048D1*
X2403913Y761306D1*
X2399689Y757533D1*
X2403913Y753709D1*
X2409671Y746968D1*
X2414303Y739408D1*
X2417696Y731217D1*
X2419766Y722596D1*
X2420461Y713758D1*
X2419766Y704919D1*
X2417696Y696298D1*
X2414303Y688107D1*
X2409671Y680548D1*
X2403913Y673806D1*
X2397171Y668048D1*
X2389612Y663416D1*
X2381421Y660023D1*
X2372800Y657953D1*
X2363961Y657258D1*
X2355123Y657953D1*
X2346502Y660023D1*
X2338311Y663416D1*
X2330751Y668048D1*
X2324010Y673806D1*
X2318252Y680548D1*
X2317106Y682263D1*
X2186215Y682355D1*
X2181333Y683128D1*
X2176632Y684656D1*
X2172228Y686900D1*
X2168229Y689805D1*
X2150413Y707484D1*
X2147203Y711242D1*
X2144620Y715457D1*
X2142729Y720024D1*
X2141575Y724830D1*
X2141187Y729758D1*
Y823523D1*
X2137328Y827557D1*
X2133039Y833460D1*
X2129726Y839962D1*
X2127472Y846901D1*
X2126330Y854108D1*
Y861405D1*
X2126660Y864195D1*
X2122032Y859650D1*
X2116129Y855361D1*
X2109627Y852048D1*
X2102688Y849793D1*
X2095481Y848652D1*
X2088184D1*
X2080977Y849793D1*
X2074038Y852048D1*
X2067536Y855361D1*
X2061633Y859650D1*
X2056474Y864809D1*
X2052185Y870712D1*
X2048872Y877214D1*
X2046617Y884153D1*
X2045476Y891360D1*
Y898657D1*
X2046617Y905864D1*
X2048872Y912803D1*
X2052185Y919305D1*
X2056474Y925208D1*
X2060324Y929157D1*
X2060429Y962729D1*
X2061203Y967611D1*
X2062730Y972312D1*
X2064974Y976717D1*
X2067880Y980715D1*
X2069566Y982538D1*
X2067440Y985760D1*
X2004894D1*
X2000882Y981901D1*
X1994979Y977613D1*
X1988478Y974300D1*
X1981538Y972045D1*
X1974331Y970904D1*
X1967035D1*
X1959828Y972045D1*
X1952888Y974300D1*
X1946387Y977613D1*
X1940484Y981901D1*
X1935324Y987061D1*
X1931035Y992964D1*
X1927723Y999466D1*
X1925468Y1006405D1*
X1924326Y1013612D1*
Y1020909D1*
X1925468Y1028116D1*
X1927723Y1035055D1*
X1928457Y1036648D1*
X1880031Y1036642D1*
X1876044Y1032783D1*
X1870141Y1028494D1*
X1863639Y1025182D1*
X1856700Y1022927D1*
X1849493Y1021786D1*
X1844804Y1021683D1*
X1844720Y677537D1*
X1843947Y672655D1*
X1842419Y667954D1*
X1840175Y663550D1*
X1837270Y659551D1*
X1819595Y641738D1*
X1815836Y638528D1*
X1811621Y635946D1*
X1807055Y634054D1*
X1802248Y632900D1*
X1797311Y632513D1*
X1729607Y632512D1*
X1725607Y628653D1*
X1719704Y624365D1*
X1713202Y621052D1*
X1706263Y618797D1*
X1699056Y617656D1*
X1691759D1*
X1684552Y618797D1*
X1677613Y621052D1*
X1671111Y624365D1*
X1665208Y628653D1*
X1660048Y633813D1*
X1655760Y639716D1*
X1652447Y646218D1*
X1650192Y653157D1*
X1649051Y660364D1*
X1648981Y665879D1*
X1546258Y768752D1*
X1543352Y772750D1*
X1541108Y777155D1*
X1539581Y781856D1*
X1538808Y786738D1*
X1538710Y853514D1*
Y1094619D1*
X1536178Y1091728D1*
X1518369Y1074056D1*
X1514370Y1071150D1*
X1509966Y1068906D1*
X1505265Y1067379D1*
X1500383Y1066605D1*
X1433607Y1066508D1*
X1423117Y1066605D1*
X1418235Y1067379D1*
X1413534Y1068906D1*
X1411279Y1069946D1*
X1410089Y1063186D1*
X1409992Y633537D1*
X1409218Y628655D1*
X1407691Y623954D1*
X1405447Y619550D1*
X1402541Y615551D1*
X1384862Y597735D1*
X1381104Y594524D1*
X1376889Y591942D1*
X1372322Y590050D1*
X1367516Y588896D1*
X1362588Y588508D1*
X1323367D1*
X1330224Y583936D1*
X1337265Y578044D1*
X1343582Y571381D1*
X1349089Y564035D1*
X1353715Y556104D1*
X1357397Y547693D1*
X1360086Y538915D1*
X1361748Y529885D1*
X1362360Y520724D1*
X1362024Y512670D1*
X1360652Y503591D1*
X1358245Y494731D1*
X1354835Y486207D1*
X1350466Y478132D1*
X1345197Y470613D1*
X1339097Y463751D1*
X1332248Y457636D1*
X1324742Y452350D1*
X1316676Y447963D1*
X1308160Y444533D1*
X1299305Y442106D1*
X1290230Y440714D1*
X1281055Y440376D1*
X1271902Y441096D1*
X1262893Y442864D1*
X1254147Y445658D1*
X1245780Y449439D1*
X1237905Y454158D1*
X1230624Y459752D1*
X1224036Y466147D1*
X1218228Y473257D1*
X1213276Y480989D1*
X1209247Y489239D1*
X1206194Y497898D1*
X1204158Y506850D1*
X1203166Y515978D1*
X1203230Y525159D1*
X1204351Y534271D1*
X1206513Y543194D1*
X1208454Y548802D1*
X1200388Y546388D1*
X1194557Y545228D1*
X1188653Y544529D1*
X1182713Y544296D1*
X1176773Y544529D1*
X1170869Y545228D1*
X1165038Y546388D1*
X1156942Y548878D1*
X1159630Y540694D1*
X1161499Y531705D1*
X1162322Y522561D1*
X1162172Y514501D1*
X1161010Y505394D1*
X1158808Y496480D1*
X1155595Y487880D1*
X1151414Y479706D1*
X1146319Y472068D1*
X1140380Y465066D1*
X1133674Y458795D1*
X1126291Y453337D1*
X1118329Y448765D1*
X1109894Y445140D1*
X1101097Y442510D1*
X1092057Y440909D1*
X1082892Y440359D1*
X1073725Y440868D1*
X1064677Y442428D1*
X1055869Y445019D1*
X1047418Y448606D1*
X1039435Y453142D1*
X1032028Y458567D1*
X1025294Y464808D1*
X1019323Y471782D1*
X1014194Y479398D1*
X1009976Y487552D1*
X1006724Y496139D1*
X1004482Y505042D1*
X1003280Y514144D1*
X1003133Y523324D1*
X1004043Y532460D1*
X1005998Y541431D1*
X1008973Y550117D1*
X1012928Y558403D1*
X1017810Y566178D1*
X1023554Y573340D1*
X1030085Y579794D1*
X1037315Y585453D1*
X1045148Y590243D1*
X1053480Y594099D1*
X1062200Y596971D1*
X1071193Y598821D1*
X1080339Y599623D1*
X1089517Y599367D1*
X1098604Y598057D1*
X1107481Y595709D1*
X1111513Y594264D1*
X1109092Y602334D1*
X1107933Y608164D1*
X1107234Y614068D1*
X1107001Y620008D1*
X1107234Y625949D1*
X1107933Y631852D1*
X1109092Y637683D1*
X1111582Y645780D1*
X1102880Y642954D1*
X1093879Y641145D1*
X1084729Y640384D1*
X1075553Y640681D1*
X1066471Y642032D1*
X1057606Y644419D1*
X1049074Y647811D1*
X1040989Y652162D1*
X1033459Y657414D1*
X1026582Y663498D1*
X1020452Y670333D1*
X1015149Y677828D1*
X1010744Y685883D1*
X1007295Y694392D1*
X1004848Y703241D1*
X1003436Y712313D1*
X1003077Y721488D1*
X1003777Y730642D1*
X1005525Y739656D1*
X1008299Y748408D1*
X1012061Y756783D1*
X1016762Y764669D1*
X1022340Y771962D1*
X1028720Y778564D1*
X1035817Y784389D1*
X1043538Y789358D1*
X1051779Y793405D1*
X1060430Y796478D1*
X1069379Y798534D1*
X1078504Y799547D1*
X1087685Y799503D1*
X1096800Y798402D1*
X1105728Y796260D1*
X1114350Y793105D1*
X1122552Y788979D1*
X1130224Y783936D1*
X1137265Y778044D1*
X1143582Y771381D1*
X1149089Y764035D1*
X1153715Y756104D1*
X1157397Y747693D1*
X1160086Y738915D1*
X1161748Y729885D1*
X1162360Y720724D1*
X1162024Y712670D1*
X1160652Y703591D1*
X1158245Y694731D1*
X1156975Y691215D1*
X1165038Y693629D1*
X1170869Y694789D1*
X1176773Y695488D1*
X1182713Y695721D1*
X1188653Y695488D1*
X1194557Y694789D1*
X1200388Y693629D1*
X1208484Y691139D1*
X1205704Y699668D1*
X1203875Y708666D1*
X1203094Y717814D1*
X1203370Y726991D1*
X1204701Y736075D1*
X1207068Y744946D1*
X1210440Y753485D1*
X1214773Y761580D1*
X1220008Y769122D1*
X1226077Y776012D1*
X1232898Y782158D1*
X1240381Y787477D1*
X1248427Y791901D1*
X1256928Y795369D1*
X1265771Y797835D1*
X1274840Y799268D1*
X1284014Y799647D1*
X1293170Y798969D1*
X1302187Y797241D1*
X1310945Y794487D1*
X1319329Y790743D1*
X1327225Y786059D1*
X1334531Y780498D1*
X1341148Y774133D1*
X1347092Y766903D1*
X1347088Y1824529D1*
X1341323Y1822015D1*
X1336516Y1820861D1*
X1331588Y1820473D1*
X1185024Y1820396D1*
X1186161Y1813140D1*
X1186398Y1805671D1*
X1185723Y1798358D1*
X1184160Y1791182D1*
X1181732Y1784250D1*
X1178474Y1777668D1*
X1174436Y1771533D1*
X1169678Y1765938D1*
X1164272Y1760967D1*
X1158298Y1756694D1*
X1151847Y1753183D1*
X1145016Y1750487D1*
X1137905Y1748646D1*
X1130624Y1747688D1*
X1123279Y1747628D1*
X1115983Y1748466D1*
X1108844Y1750190D1*
X1101969Y1752774D1*
X1095461Y1756179D1*
X1089418Y1760353D1*
X1083932Y1765236D1*
X1079083Y1770752D1*
X1076466Y1774411D1*
X1072059Y1768565D1*
X1065405Y1761911D1*
X1057793Y1756380D1*
X1049409Y1752108D1*
X1040460Y1749201D1*
X1031166Y1747729D1*
X1021756D1*
X1012463Y1749201D1*
X1003514Y1752108D1*
X997489Y1755059D1*
X997397Y1400564D1*
X996624Y1395682D1*
X995096Y1390981D1*
X992852Y1386577D1*
X989947Y1382578D1*
X972268Y1364762D1*
X968509Y1361552D1*
X964295Y1358969D1*
X959728Y1357078D1*
X954922Y1355924D1*
X949994Y1355536D1*
X904959D1*
X904796Y1436874D2*
X903329Y1427611D1*
X900361Y1418542D1*
X934460Y1418536D1*
X934494Y1486323D1*
X903414Y1455217D1*
X904796Y1446253D1*
Y1436874D1*
X869633Y1605123D2*
X876441Y1601579D1*
X884028Y1596066D1*
X890660Y1589435D1*
X896173Y1581847D1*
X900430Y1573491D1*
X902498Y1567518D1*
X902494Y1642627D1*
X900430Y1636802D1*
X896173Y1628445D1*
X890660Y1620858D1*
X884028Y1614226D1*
X876441Y1608713D1*
X869633Y1605169D1*
Y1714178D2*
X876441Y1710634D1*
X884028Y1705121D1*
X890660Y1698490D1*
X896173Y1690902D1*
X900430Y1682546D1*
X902498Y1676573D1*
X902494Y1751643D1*
X900430Y1745857D1*
X896173Y1737500D1*
X890660Y1729913D1*
X884028Y1723281D1*
X876441Y1717769D1*
X869633Y1714224D1*
X909157Y1049512D2*
X908106Y1040388D1*
X906362Y1031371D1*
X903935Y1022514D1*
X900838Y1013867D1*
X897090Y1005483D1*
X892713Y997409D1*
X887732Y989692D1*
X882177Y982379D1*
X876080Y975511D1*
X869476Y969129D1*
X862404Y963269D1*
X854905Y957967D1*
X847023Y953252D1*
X838804Y949153D1*
X830297Y945694D1*
X821550Y942894D1*
X812615Y940770D1*
X803543Y939335D1*
X794389Y938596D1*
X785205Y938559D1*
X776045Y939223D1*
X766962Y940584D1*
X758010Y942635D1*
X749241Y945363D1*
X740705Y948753D1*
X732453Y952784D1*
X724533Y957434D1*
X716991Y962675D1*
X709872Y968477D1*
X703216Y974805D1*
X697062Y981623D1*
X691448Y988891D1*
X686404Y996566D1*
X681961Y1004604D1*
X678145Y1012958D1*
X674978Y1021579D1*
X672478Y1030416D1*
X670661Y1039419D1*
X669536Y1048534D1*
X669110Y1057708D1*
X669386Y1066888D1*
X670362Y1076020D1*
X672032Y1085051D1*
X674387Y1093928D1*
X677413Y1102599D1*
X681092Y1111014D1*
X685403Y1119124D1*
X690321Y1126881D1*
X695816Y1134239D1*
X701857Y1141157D1*
X708409Y1147593D1*
X715433Y1153510D1*
X722888Y1158873D1*
X730731Y1163652D1*
X738916Y1167818D1*
X747395Y1171347D1*
X756119Y1174218D1*
X765037Y1176415D1*
X774096Y1177924D1*
X783244Y1178737D1*
X792427Y1178850D1*
X801592Y1178261D1*
X810686Y1176974D1*
X819655Y1174996D1*
X828446Y1172340D1*
X837009Y1169019D1*
X845294Y1165055D1*
X853251Y1160470D1*
X860836Y1155291D1*
X868003Y1149548D1*
X874710Y1143274D1*
X880919Y1136506D1*
X886593Y1129285D1*
X891699Y1121651D1*
X896207Y1113649D1*
X900091Y1105327D1*
X903328Y1096732D1*
X905900Y1087916D1*
X907791Y1078928D1*
X908991Y1069823D1*
X909507Y1058690D1*
X909157Y1049512D1*
X1186241Y2002804D2*
X1184769Y1993510D1*
X1181861Y1984561D1*
X1181361Y1983475D1*
X1284603Y1983376D1*
X1289485Y1982603D1*
X1294186Y1981075D1*
X1298590Y1978831D1*
X1302589Y1975926D1*
X1314682Y1963970D1*
X1309969Y1969672D1*
X1306157Y1975894D1*
X1303364Y1982635D1*
X1301661Y1989730D1*
X1301088Y1997004D1*
X1301661Y2004279D1*
X1303364Y2011374D1*
X1306157Y2018115D1*
X1307474Y2020467D1*
X1184993Y2020473D1*
X1186241Y2012213D1*
Y2002804D1*
X3931091Y3305671D2*
X3930350Y3296520D1*
X3928562Y3287515D1*
X3925725Y3278715D1*
X3933788Y3281129D1*
X3939618Y3282289D1*
X3945522Y3282988D1*
X3951462Y3283221D1*
X3957403Y3282988D1*
X3963307Y3282289D1*
X3969137Y3281129D1*
X3977234Y3278639D1*
X3974454Y3287168D1*
X3972625Y3296166D1*
X3971843Y3305314D1*
X3972119Y3314491D1*
X3973450Y3323575D1*
X3975817Y3332446D1*
X3979190Y3340985D1*
X3983522Y3349080D1*
X3988758Y3356622D1*
X3994826Y3363512D1*
X4001647Y3369658D1*
X4009130Y3374977D1*
X4017176Y3379401D1*
X4025677Y3382869D1*
X4034521Y3385335D1*
X4043589Y3386768D1*
X4052763Y3387147D1*
X4061919Y3386469D1*
X4070936Y3384741D1*
X4079695Y3381987D1*
X4083669Y3380351D1*
X4083155Y3666387D1*
X4078307Y3659815D1*
X4072384Y3652796D1*
X4066006Y3646186D1*
X4059202Y3640017D1*
X4052001Y3634316D1*
X4044436Y3629107D1*
X4036541Y3624415D1*
X4028350Y3620259D1*
X4019900Y3616660D1*
X4011229Y3613631D1*
X4002375Y3611188D1*
X3993378Y3609341D1*
X3984278Y3608098D1*
X3975115Y3607465D1*
X3965931Y3607444D1*
X3956765Y3608036D1*
X3947659Y3609237D1*
X3938654Y3611044D1*
X3929790Y3613447D1*
X3921105Y3616436D1*
X3912639Y3619998D1*
X3904429Y3624116D1*
X3896513Y3628773D1*
X3888924Y3633947D1*
X3881698Y3639616D1*
X3874866Y3645754D1*
X3868458Y3652334D1*
X3862503Y3659327D1*
X3857029Y3666702D1*
X3852058Y3674425D1*
X3847613Y3682463D1*
X3843715Y3690779D1*
X3840379Y3699337D1*
X3837622Y3708098D1*
X3835456Y3717023D1*
X3833889Y3726073D1*
X3832930Y3735208D1*
X3832582Y3744386D1*
X3832847Y3753566D1*
X3833724Y3762709D1*
X3835208Y3771773D1*
X3837294Y3780718D1*
X3839971Y3789503D1*
X3843229Y3798091D1*
X3847052Y3806442D1*
X3851424Y3814520D1*
X3856325Y3822288D1*
X3861732Y3829711D1*
X3867623Y3836758D1*
X3873971Y3843396D1*
X3880748Y3849596D1*
X3887922Y3855330D1*
X3895464Y3860573D1*
X3903338Y3865301D1*
X3911510Y3869493D1*
X3919943Y3873131D1*
X3928601Y3876199D1*
X3937443Y3878682D1*
X3946432Y3880570D1*
X3955526Y3881854D1*
X3964686Y3882529D1*
X3973870Y3882591D1*
X3983039Y3882041D1*
X3992150Y3880880D1*
X4001163Y3879114D1*
X4010038Y3876751D1*
X4018737Y3873802D1*
X4027219Y3870278D1*
X4035447Y3866197D1*
X4043384Y3861577D1*
X4050996Y3856437D1*
X4058248Y3850801D1*
X4065108Y3844693D1*
X4071545Y3838142D1*
X4077531Y3831176D1*
X4082889Y3824027D1*
X4082735Y3901285D1*
X1364103Y3901258D1*
X1369749Y3894963D1*
X1375085Y3887492D1*
X1379527Y3879456D1*
X1383014Y3870963D1*
X1385501Y3862125D1*
X1386953Y3853059D1*
X1387361Y3845008D1*
X1386832Y3835842D1*
X1385252Y3826798D1*
X1382641Y3817996D1*
X1379035Y3809553D1*
X1374481Y3801580D1*
X1369039Y3794185D1*
X1362783Y3787465D1*
X1355795Y3781510D1*
X1348169Y3776399D1*
X1340004Y3772199D1*
X1331411Y3768966D1*
X1322503Y3766744D1*
X1313398Y3765562D1*
X1304217Y3765435D1*
X1295083Y3766366D1*
X1286117Y3768342D1*
X1278912Y3770751D1*
X1281332Y3762683D1*
X1282492Y3756852D1*
X1283191Y3750949D1*
X1283424Y3745008D1*
X1283191Y3739068D1*
X1282492Y3733164D1*
X1281332Y3727334D1*
X1278843Y3719237D1*
X1287199Y3721971D1*
X1296192Y3723821D1*
X1305338Y3724623D1*
X1314516Y3724367D1*
X1323603Y3723057D1*
X1332479Y3720709D1*
X1341026Y3717356D1*
X1349131Y3713042D1*
X1356685Y3707823D1*
X1363588Y3701770D1*
X1369749Y3694963D1*
X1375085Y3687492D1*
X1379527Y3679456D1*
X1383014Y3670963D1*
X1385501Y3662125D1*
X1386953Y3653059D1*
X1387361Y3645008D1*
X1386832Y3635842D1*
X1385252Y3626798D1*
X1382641Y3617996D1*
X1379035Y3609553D1*
X1374481Y3601580D1*
X1369039Y3594185D1*
X1362783Y3587465D1*
X1355795Y3581510D1*
X1348169Y3576399D1*
X1340004Y3572199D1*
X1331411Y3568966D1*
X1322503Y3566744D1*
X1313398Y3565562D1*
X1304217Y3565435D1*
X1295083Y3566366D1*
X1286117Y3568342D1*
X1277438Y3571336D1*
X1269161Y3575310D1*
X1261396Y3580209D1*
X1254247Y3585970D1*
X1247808Y3592515D1*
X1242165Y3599757D1*
X1239212Y3604367D1*
Y3364026D1*
X2039470Y3364008D1*
X2043472Y3367867D1*
X2049375Y3372156D1*
X2055876Y3375469D1*
X2062816Y3377724D1*
X2070023Y3378865D1*
X2077319D1*
X2084526Y3377724D1*
X2091466Y3375469D1*
X2097967Y3372156D1*
X2103870Y3367867D1*
X2109030Y3362708D1*
X2113319Y3356805D1*
X2116632Y3350303D1*
X2118886Y3343364D1*
X2120028Y3336157D1*
Y3328860D1*
X2118886Y3321653D1*
X2116632Y3314714D1*
X2113152Y3307963D1*
X2198520Y3307955D1*
X2202512Y3311813D1*
X2208416Y3316102D1*
X2214917Y3319415D1*
X2221857Y3321670D1*
X2229063Y3322811D1*
X2236360D1*
X2243567Y3321670D1*
X2250507Y3319415D1*
X2257008Y3316102D1*
X2262911Y3311813D1*
X2266861Y3307963D1*
X2457239Y3307955D1*
X2457311Y3321921D1*
X2458085Y3326803D1*
X2459612Y3331504D1*
X2461856Y3335908D1*
X2464762Y3339907D1*
X2482440Y3357723D1*
X2486199Y3360934D1*
X2490414Y3363516D1*
X2494980Y3365408D1*
X2499787Y3366562D1*
X2504724Y3366949D1*
X2697783Y3366852D1*
X2702665Y3366079D1*
X2707366Y3364552D1*
X2711770Y3362308D1*
X2715769Y3359402D1*
X2719264Y3355907D1*
X2722170Y3351908D1*
X2724414Y3347504D1*
X2725941Y3342803D1*
X2726715Y3337921D1*
X2726812Y3310725D1*
X2729460Y3308061D1*
X3377267Y3307956D1*
X3382149Y3307183D1*
X3386850Y3305655D1*
X3391255Y3303411D1*
X3395253Y3300506D1*
X3413071Y3282826D1*
X3416281Y3279067D1*
X3418864Y3274852D1*
X3420755Y3270286D1*
X3421909Y3265479D1*
X3422297Y3260542D1*
Y1779863D1*
X3679371Y1522805D1*
X3679384Y1532051D1*
X3680790Y1541008D1*
X3599258Y1622661D1*
X3596352Y1626659D1*
X3594108Y1631064D1*
X3592581Y1635765D1*
X3591808Y1640647D1*
X3591710Y1707423D1*
Y3448559D1*
X3587852Y3452557D1*
X3583563Y3458460D1*
X3580250Y3464962D1*
X3577995Y3471901D1*
X3576854Y3479108D1*
Y3486405D1*
X3577995Y3493612D1*
X3580250Y3500551D1*
X3583563Y3507053D1*
X3587852Y3512956D1*
X3593011Y3518115D1*
X3598914Y3522404D1*
X3605416Y3525717D1*
X3612355Y3527972D1*
X3614650Y3528508D1*
X3613789Y3535801D1*
X3613882Y3543144D1*
X3614927Y3550414D1*
X3616906Y3557486D1*
X3619785Y3564242D1*
X3623516Y3570567D1*
X3628036Y3576355D1*
X3633269Y3581508D1*
X3639126Y3585939D1*
X3645508Y3589572D1*
X3652307Y3592347D1*
X3659409Y3594217D1*
X3666694Y3595149D1*
X3674038Y3595129D1*
X3681317Y3594157D1*
X3688408Y3592249D1*
X3695193Y3589437D1*
X3701555Y3585768D1*
X3707387Y3581306D1*
X3712592Y3576124D1*
X3717080Y3570312D1*
X3720777Y3563966D1*
X3723619Y3557195D1*
X3725560Y3550112D1*
X3726564Y3542837D1*
X3726592Y3535087D1*
X3725640Y3527805D1*
X3723751Y3520708D1*
X3720957Y3513917D1*
X3717306Y3507544D1*
X3712860Y3501700D1*
X3707693Y3496481D1*
X3701892Y3491977D1*
X3695557Y3488263D1*
X3688793Y3485402D1*
X3681715Y3483443D1*
X3674443Y3482418D1*
X3669704Y3482269D1*
X3669138Y3475482D1*
X3667435Y3468387D1*
X3664642Y3461646D1*
X3660830Y3455424D1*
X3656091Y3449876D1*
X3654719Y3448608D1*
X3654711Y1656144D1*
X3679359Y1631518D1*
X3679384Y1640752D1*
X3680851Y1650015D1*
X3683749Y1658934D1*
X3688007Y1667291D1*
X3693520Y1674878D1*
X3700151Y1681510D1*
X3707739Y1687023D1*
X3714147Y1690382D1*
X3707739Y1693803D1*
X3700151Y1699315D1*
X3693520Y1705947D1*
X3688007Y1713534D1*
X3683749Y1721891D1*
X3680851Y1730810D1*
X3679384Y1740074D1*
Y1749452D1*
X3680851Y1758715D1*
X3683749Y1767635D1*
X3688007Y1775992D1*
X3693520Y1783579D1*
X3700151Y1790211D1*
X3707739Y1795723D1*
X3714147Y1799083D1*
X3707739Y1802503D1*
X3700151Y1808016D1*
X3693520Y1814648D1*
X3688007Y1822235D1*
X3683749Y1830592D1*
X3680851Y1839511D1*
X3679384Y1848774D1*
Y1858153D1*
X3680851Y1867416D1*
X3683749Y1876336D1*
X3688007Y1884692D1*
X3693520Y1892280D1*
X3700151Y1898912D1*
X3707739Y1904424D1*
X3714147Y1907784D1*
X3707739Y1911204D1*
X3700151Y1916717D1*
X3693520Y1923349D1*
X3688007Y1930936D1*
X3683749Y1939292D1*
X3680851Y1948212D1*
X3679384Y1957475D1*
Y1966854D1*
X3680851Y1976117D1*
X3683749Y1985037D1*
X3688007Y1993393D1*
X3693520Y2000981D1*
X3700151Y2007612D1*
X3707739Y2013125D1*
X3714147Y2016485D1*
X3707739Y2019905D1*
X3700151Y2025418D1*
X3693520Y2032049D1*
X3688007Y2039637D1*
X3683749Y2047993D1*
X3680851Y2056913D1*
X3679384Y2066176D1*
Y2075555D1*
X3680851Y2084818D1*
X3683749Y2093737D1*
X3688007Y2102094D1*
X3693520Y2109681D1*
X3700151Y2116313D1*
X3707739Y2121826D1*
X3714147Y2125186D1*
X3707739Y2128606D1*
X3700151Y2134118D1*
X3693520Y2140750D1*
X3688007Y2148338D1*
X3683749Y2156694D1*
X3680851Y2165614D1*
X3679384Y2174877D1*
Y2184255D1*
X3680851Y2193519D1*
X3683749Y2202438D1*
X3688007Y2210795D1*
X3693520Y2218382D1*
X3700151Y2225014D1*
X3707739Y2230526D1*
X3714147Y2233886D1*
X3707739Y2237307D1*
X3700151Y2242819D1*
X3693520Y2249451D1*
X3688007Y2257038D1*
X3683749Y2265395D1*
X3680851Y2274314D1*
X3679384Y2283578D1*
Y2292956D1*
X3680851Y2302219D1*
X3683749Y2311139D1*
X3688007Y2319495D1*
X3693520Y2327083D1*
X3700151Y2333715D1*
X3707739Y2339227D1*
X3714147Y2342587D1*
X3707739Y2346007D1*
X3700151Y2351520D1*
X3693520Y2358152D1*
X3688007Y2365739D1*
X3683749Y2374096D1*
X3680851Y2383015D1*
X3679384Y2392278D1*
Y2401657D1*
X3680851Y2410920D1*
X3683749Y2419840D1*
X3688007Y2428196D1*
X3693520Y2435784D1*
X3700151Y2442415D1*
X3707739Y2447928D1*
X3714147Y2451288D1*
X3707739Y2454708D1*
X3700151Y2460221D1*
X3693520Y2466852D1*
X3688007Y2474440D1*
X3683749Y2482796D1*
X3680851Y2491716D1*
X3679384Y2500979D1*
Y2510358D1*
X3680851Y2519621D1*
X3683749Y2528541D1*
X3688007Y2536897D1*
X3693520Y2544485D1*
X3700151Y2551116D1*
X3707739Y2556629D1*
X3716095Y2560887D1*
X3725015Y2563785D1*
X3734278Y2565252D1*
X3743657D1*
X3752920Y2563785D1*
X3761839Y2560887D1*
X3770196Y2556629D1*
X3777783Y2551116D1*
X3784415Y2544485D1*
X3789928Y2536897D1*
X3794185Y2528541D1*
X3797084Y2519621D1*
X3798551Y2510358D1*
Y2500979D1*
X3797084Y2491716D1*
X3794185Y2482796D1*
X3789928Y2474440D1*
X3784415Y2466852D1*
X3777783Y2460221D1*
X3770196Y2454708D1*
X3763787Y2451348D1*
X3770196Y2447928D1*
X3777783Y2442415D1*
X3784415Y2435784D1*
X3789928Y2428196D1*
X3794185Y2419840D1*
X3797084Y2410920D1*
X3798551Y2401657D1*
Y2392278D1*
X3797084Y2383015D1*
X3794185Y2374096D1*
X3789928Y2365739D1*
X3784415Y2358152D1*
X3777783Y2351520D1*
X3770196Y2346007D1*
X3763787Y2342647D1*
X3770196Y2339227D1*
X3777783Y2333715D1*
X3784415Y2327083D1*
X3789928Y2319495D1*
X3794185Y2311139D1*
X3797084Y2302219D1*
X3798551Y2292956D1*
Y2283578D1*
X3797084Y2274314D1*
X3794185Y2265395D1*
X3789928Y2257038D1*
X3784415Y2249451D1*
X3777783Y2242819D1*
X3770196Y2237307D1*
X3763787Y2233947D1*
X3770196Y2230526D1*
X3777783Y2225014D1*
X3784415Y2218382D1*
X3789928Y2210795D1*
X3794185Y2202438D1*
X3797084Y2193519D1*
X3798551Y2184255D1*
Y2174877D1*
X3797084Y2165614D1*
X3794185Y2156694D1*
X3789928Y2148338D1*
X3784415Y2140750D1*
X3777783Y2134118D1*
X3770196Y2128606D1*
X3763787Y2125246D1*
X3770196Y2121826D1*
X3777783Y2116313D1*
X3784415Y2109681D1*
X3789928Y2102094D1*
X3794185Y2093737D1*
X3797084Y2084818D1*
X3798551Y2075555D1*
Y2066176D1*
X3797084Y2056913D1*
X3794185Y2047993D1*
X3789928Y2039637D1*
X3784415Y2032049D1*
X3777783Y2025418D1*
X3770196Y2019905D1*
X3763787Y2016545D1*
X3770196Y2013125D1*
X3777783Y2007612D1*
X3784415Y2000981D1*
X3789928Y1993393D1*
X3794185Y1985037D1*
X3797084Y1976117D1*
X3798551Y1966854D1*
Y1957475D1*
X3797084Y1948212D1*
X3794185Y1939292D1*
X3789928Y1930936D1*
X3784415Y1923349D1*
X3777783Y1916717D1*
X3770196Y1911204D1*
X3763787Y1907844D1*
X3770196Y1904424D1*
X3777783Y1898912D1*
X3784415Y1892280D1*
X3789928Y1884692D1*
X3794185Y1876336D1*
X3797084Y1867416D1*
X3798551Y1858153D1*
Y1848774D1*
X3797084Y1839511D1*
X3794185Y1830592D1*
X3789928Y1822235D1*
X3784415Y1814648D1*
X3777783Y1808016D1*
X3770196Y1802503D1*
X3763787Y1799144D1*
X3770196Y1795723D1*
X3777783Y1790211D1*
X3784415Y1783579D1*
X3789928Y1775992D1*
X3794185Y1767635D1*
X3797084Y1758715D1*
X3798551Y1749452D1*
Y1740074D1*
X3797084Y1730810D1*
X3794185Y1721891D1*
X3789928Y1713534D1*
X3784415Y1705947D1*
X3777783Y1699315D1*
X3770196Y1693803D1*
X3763787Y1690443D1*
X3770196Y1687023D1*
X3777783Y1681510D1*
X3784415Y1674878D1*
X3789928Y1667291D1*
X3794185Y1658934D1*
X3797084Y1650015D1*
X3798551Y1640752D1*
Y1631373D1*
X3797084Y1622110D1*
X3794185Y1613190D1*
X3789928Y1604834D1*
X3784415Y1597246D1*
X3777783Y1590614D1*
X3770196Y1585102D1*
X3763787Y1581742D1*
X3770196Y1578322D1*
X3777783Y1572809D1*
X3784415Y1566177D1*
X3789928Y1558590D1*
X3794185Y1550234D1*
X3797084Y1541314D1*
X3798551Y1532051D1*
Y1522672D1*
X3797084Y1513409D1*
X3794185Y1504489D1*
X3789928Y1496133D1*
X3784415Y1488545D1*
X3777783Y1481914D1*
X3770196Y1476401D1*
X3763787Y1473041D1*
X3770196Y1469621D1*
X3777783Y1464108D1*
X3784415Y1457477D1*
X3789928Y1449889D1*
X3794185Y1441533D1*
X3797084Y1432613D1*
X3798551Y1423350D1*
Y1413971D1*
X3797084Y1404708D1*
X3794185Y1395789D1*
X3789928Y1387432D1*
X3784415Y1379845D1*
X3777783Y1373213D1*
X3770196Y1367700D1*
X3763787Y1364340D1*
X3770196Y1360920D1*
X3777783Y1355408D1*
X3784415Y1348776D1*
X3789928Y1341188D1*
X3794185Y1332832D1*
X3797084Y1323912D1*
X3798551Y1314649D1*
Y1305271D1*
X3797084Y1296007D1*
X3794185Y1287088D1*
X3789928Y1278731D1*
X3784415Y1271144D1*
X3777783Y1264512D1*
X3773229Y1261026D1*
X3791266Y1261027D1*
X3792662Y1269569D1*
X3795560Y1278488D1*
X3799818Y1286845D1*
X3805331Y1294432D1*
X3811962Y1301064D1*
X3819550Y1306576D1*
X3825958Y1309936D1*
X3819550Y1313356D1*
X3811962Y1318869D1*
X3805331Y1325501D1*
X3799818Y1333088D1*
X3795560Y1341445D1*
X3792662Y1350364D1*
X3791195Y1359627D1*
Y1369006D1*
X3792662Y1378269D1*
X3795560Y1387189D1*
X3799818Y1395545D1*
X3805331Y1403133D1*
X3811962Y1409765D1*
X3819550Y1415277D1*
X3825958Y1418637D1*
X3819550Y1422057D1*
X3811962Y1427570D1*
X3805331Y1434202D1*
X3799818Y1441789D1*
X3795560Y1450145D1*
X3792662Y1459065D1*
X3791195Y1468328D1*
Y1477707D1*
X3792662Y1486970D1*
X3795560Y1495890D1*
X3799818Y1504246D1*
X3805331Y1511834D1*
X3811962Y1518465D1*
X3819550Y1523978D1*
X3825958Y1527338D1*
X3819550Y1530758D1*
X3811962Y1536271D1*
X3805331Y1542902D1*
X3799818Y1550490D1*
X3795560Y1558846D1*
X3792662Y1567766D1*
X3791195Y1577029D1*
Y1586408D1*
X3792662Y1595671D1*
X3795560Y1604590D1*
X3799818Y1612947D1*
X3805331Y1620534D1*
X3811962Y1627166D1*
X3819550Y1632679D1*
X3825958Y1636039D1*
X3819550Y1639459D1*
X3811962Y1644971D1*
X3805331Y1651603D1*
X3799818Y1659191D1*
X3795560Y1667547D1*
X3792662Y1676467D1*
X3791195Y1685730D1*
Y1695108D1*
X3792662Y1704372D1*
X3795560Y1713291D1*
X3799818Y1721648D1*
X3805331Y1729235D1*
X3811962Y1735867D1*
X3819550Y1741380D1*
X3825958Y1744739D1*
X3819550Y1748160D1*
X3811962Y1753672D1*
X3805331Y1760304D1*
X3799818Y1767891D1*
X3795560Y1776248D1*
X3792662Y1785167D1*
X3791195Y1794431D1*
Y1803809D1*
X3792662Y1813072D1*
X3795560Y1821992D1*
X3799818Y1830348D1*
X3805331Y1837936D1*
X3811962Y1844568D1*
X3819550Y1850080D1*
X3825958Y1853440D1*
X3819524Y1856876D1*
X3813512Y1861094D1*
X3808062Y1866017D1*
X3803257Y1871572D1*
X3799170Y1877674D1*
X3795863Y1884232D1*
X3793384Y1891145D1*
X3791772Y1898311D1*
X3791051Y1905620D1*
X3791232Y1912962D1*
X3792312Y1920227D1*
X3794275Y1927304D1*
X3797091Y1934087D1*
X3800718Y1940473D1*
X3805101Y1946367D1*
X3810174Y1951678D1*
X3815859Y1956327D1*
X3822072Y1960244D1*
X3825917Y1962165D1*
X3819550Y1965561D1*
X3811962Y1971074D1*
X3805331Y1977705D1*
X3799818Y1985293D1*
X3795560Y1993649D1*
X3792662Y2002569D1*
X3791195Y2011832D1*
Y2021211D1*
X3792662Y2030474D1*
X3795560Y2039394D1*
X3799818Y2047750D1*
X3805331Y2055338D1*
X3811962Y2061969D1*
X3819550Y2067482D1*
X3825958Y2070842D1*
X3819550Y2074262D1*
X3811962Y2079775D1*
X3805331Y2086406D1*
X3799818Y2093994D1*
X3795560Y2102350D1*
X3792662Y2111270D1*
X3791195Y2120533D1*
Y2129912D1*
X3792662Y2139175D1*
X3795560Y2148094D1*
X3799818Y2156451D1*
X3805331Y2164038D1*
X3811962Y2170670D1*
X3819550Y2176183D1*
X3825958Y2179543D1*
X3819550Y2182963D1*
X3811962Y2188475D1*
X3805331Y2195107D1*
X3799818Y2202695D1*
X3795560Y2211051D1*
X3792662Y2219971D1*
X3791195Y2229234D1*
Y2238612D1*
X3792662Y2247876D1*
X3795560Y2256795D1*
X3799818Y2265152D1*
X3805331Y2272739D1*
X3811962Y2279371D1*
X3819550Y2284883D1*
X3825958Y2288243D1*
X3819550Y2291664D1*
X3811962Y2297176D1*
X3805331Y2303808D1*
X3799818Y2311395D1*
X3795560Y2319752D1*
X3792662Y2328671D1*
X3791195Y2337935D1*
Y2347313D1*
X3792662Y2356576D1*
X3795560Y2365496D1*
X3799818Y2373852D1*
X3805331Y2381440D1*
X3811962Y2388072D1*
X3819550Y2393584D1*
X3825958Y2396944D1*
X3819550Y2400364D1*
X3811962Y2405877D1*
X3805331Y2412509D1*
X3799818Y2420096D1*
X3795560Y2428453D1*
X3792662Y2437372D1*
X3791195Y2446635D1*
Y2456014D1*
X3792662Y2465277D1*
X3795560Y2474197D1*
X3799818Y2482553D1*
X3805331Y2490141D1*
X3811962Y2496772D1*
X3819550Y2502285D1*
X3827906Y2506543D1*
X3836826Y2509441D1*
X3846089Y2510908D1*
X3855468D1*
X3864731Y2509441D1*
X3873650Y2506543D1*
X3882007Y2502285D1*
X3889594Y2496772D1*
X3896226Y2490141D1*
X3901739Y2482553D1*
X3905996Y2474197D1*
X3908895Y2465277D1*
X3910362Y2456014D1*
Y2446635D1*
X3908895Y2437372D1*
X3905996Y2428453D1*
X3901739Y2420096D1*
X3896226Y2412509D1*
X3889594Y2405877D1*
X3882007Y2400364D1*
X3875598Y2397004D1*
X3882007Y2393584D1*
X3889594Y2388072D1*
X3896226Y2381440D1*
X3901739Y2373852D1*
X3905996Y2365496D1*
X3908895Y2356576D1*
X3910362Y2347313D1*
Y2337935D1*
X3908895Y2328671D1*
X3905996Y2319752D1*
X3901739Y2311395D1*
X3896226Y2303808D1*
X3889594Y2297176D1*
X3882007Y2291664D1*
X3875598Y2288304D1*
X3882007Y2284883D1*
X3889594Y2279371D1*
X3896226Y2272739D1*
X3901739Y2265152D1*
X3905996Y2256795D1*
X3908895Y2247876D1*
X3910362Y2238612D1*
Y2229234D1*
X3908895Y2219971D1*
X3905996Y2211051D1*
X3901739Y2202695D1*
X3896226Y2195107D1*
X3889594Y2188475D1*
X3882007Y2182963D1*
X3875598Y2179603D1*
X3882007Y2176183D1*
X3889594Y2170670D1*
X3896226Y2164038D1*
X3901739Y2156451D1*
X3905996Y2148094D1*
X3908895Y2139175D1*
X3910362Y2129912D1*
Y2120533D1*
X3908895Y2111270D1*
X3905996Y2102350D1*
X3901739Y2093994D1*
X3896226Y2086406D1*
X3889594Y2079775D1*
X3882007Y2074262D1*
X3875598Y2070902D1*
X3882007Y2067482D1*
X3889594Y2061969D1*
X3896226Y2055338D1*
X3901739Y2047750D1*
X3905996Y2039394D1*
X3908895Y2030474D1*
X3910362Y2021211D1*
Y2011832D1*
X3908895Y2002569D1*
X3905996Y1993649D1*
X3901739Y1985293D1*
X3896226Y1977705D1*
X3889594Y1971074D1*
X3882007Y1965561D1*
X3875598Y1962201D1*
X3881721Y1958955D1*
X3887759Y1954774D1*
X3893239Y1949884D1*
X3898077Y1944358D1*
X3902202Y1938281D1*
X3905549Y1931744D1*
X3908070Y1924846D1*
X3909725Y1917690D1*
X3910491Y1910386D1*
X3910292Y1902317D1*
X3909168Y1895059D1*
X3907162Y1887994D1*
X3904304Y1881228D1*
X3900638Y1874864D1*
X3896220Y1868997D1*
X3891115Y1863717D1*
X3885401Y1859103D1*
X3879164Y1855224D1*
X3875636Y1853471D1*
X3882007Y1850080D1*
X3889594Y1844568D1*
X3896226Y1837936D1*
X3901739Y1830348D1*
X3905996Y1821992D1*
X3908895Y1813072D1*
X3910362Y1803809D1*
Y1794431D1*
X3908895Y1785167D1*
X3905996Y1776248D1*
X3901739Y1767891D1*
X3896226Y1760304D1*
X3889594Y1753672D1*
X3882007Y1748160D1*
X3875598Y1744800D1*
X3882007Y1741380D1*
X3889594Y1735867D1*
X3896226Y1729235D1*
X3901739Y1721648D1*
X3905996Y1713291D1*
X3908895Y1704372D1*
X3910362Y1695108D1*
Y1685730D1*
X3908895Y1676467D1*
X3905996Y1667547D1*
X3901739Y1659191D1*
X3896226Y1651603D1*
X3889594Y1644971D1*
X3882007Y1639459D1*
X3875598Y1636099D1*
X3882007Y1632679D1*
X3889594Y1627166D1*
X3896226Y1620534D1*
X3901739Y1612947D1*
X3905996Y1604590D1*
X3908895Y1595671D1*
X3910362Y1586408D1*
Y1577029D1*
X3908895Y1567766D1*
X3905996Y1558846D1*
X3901739Y1550490D1*
X3896226Y1542902D1*
X3889594Y1536271D1*
X3882007Y1530758D1*
X3875598Y1527398D1*
X3882007Y1523978D1*
X3889594Y1518465D1*
X3896226Y1511834D1*
X3901739Y1504246D1*
X3905996Y1495890D1*
X3908895Y1486970D1*
X3910362Y1477707D1*
Y1468328D1*
X3908895Y1459065D1*
X3905996Y1450145D1*
X3901739Y1441789D1*
X3896226Y1434202D1*
X3889594Y1427570D1*
X3882007Y1422057D1*
X3875598Y1418697D1*
X3882007Y1415277D1*
X3889594Y1409765D1*
X3896226Y1403133D1*
X3901739Y1395545D1*
X3905996Y1387189D1*
X3908895Y1378269D1*
X3910362Y1369006D1*
Y1359627D1*
X3908895Y1350364D1*
X3905996Y1341445D1*
X3901739Y1333088D1*
X3896226Y1325501D1*
X3889594Y1318869D1*
X3882007Y1313356D1*
X3875598Y1309997D1*
X3882007Y1306576D1*
X3889594Y1301064D1*
X3896226Y1294432D1*
X3901739Y1286845D1*
X3905996Y1278488D1*
X3908895Y1269569D1*
X3910362Y1260305D1*
Y1250927D1*
X3908895Y1241664D1*
X3905996Y1232744D1*
X3901739Y1224387D1*
X3896226Y1216800D1*
X3889594Y1210168D1*
X3882007Y1204656D1*
X3873650Y1200398D1*
X3864731Y1197500D1*
X3855468Y1196033D1*
X3846089D1*
X3836826Y1197500D1*
X3827906Y1200398D1*
X3819550Y1204656D1*
X3811962Y1210168D1*
X3805331Y1216800D1*
X3799818Y1224387D1*
X3798734Y1226323D1*
X3798735Y1141491D1*
X3679200D1*
Y1261027D1*
X3704642D1*
X3700151Y1264512D1*
X3693520Y1271144D1*
X3688007Y1278731D1*
X3683749Y1287088D1*
X3680851Y1296007D1*
X3679384Y1305271D1*
Y1314649D1*
X3680851Y1323912D1*
X3683749Y1332832D1*
X3688007Y1341188D1*
X3693520Y1348776D1*
X3700151Y1355408D1*
X3707739Y1360920D1*
X3714147Y1364280D1*
X3707739Y1367700D1*
X3700151Y1373213D1*
X3693520Y1379845D1*
X3688007Y1387432D1*
X3683749Y1395789D1*
X3680851Y1404708D1*
X3679384Y1413971D1*
Y1423350D1*
X3680790Y1432307D1*
X3366844Y1746373D1*
X3363939Y1750372D1*
X3361695Y1754776D1*
X3360167Y1759477D1*
X3359394Y1764359D1*
X3359297Y1831135D1*
Y3245080D1*
X3219023Y3245053D1*
X3220238Y3236941D1*
Y3228075D1*
X3218851Y3219319D1*
X3216112Y3210887D1*
X3212087Y3202987D1*
X3206876Y3195815D1*
X3200606Y3189545D1*
X3193434Y3184334D1*
X3185534Y3180309D1*
X3177102Y3177569D1*
X3168346Y3176183D1*
X3159480D1*
X3150723Y3177569D1*
X3142291Y3180309D1*
X3135253Y3183852D1*
X3133061Y3177214D1*
X3129748Y3170712D1*
X3125459Y3164809D1*
X3120300Y3159650D1*
X3114396Y3155361D1*
X3107895Y3152048D1*
X3100955Y3149793D1*
X3093749Y3148652D1*
X3086452D1*
X3079245Y3149793D1*
X3072305Y3152048D1*
X3065804Y3155361D1*
X3059901Y3159650D1*
X3054741Y3164809D1*
X3050452Y3170712D1*
X3047140Y3177214D1*
X3044885Y3184153D1*
X3043744Y3191360D1*
Y3198657D1*
X3044885Y3205864D1*
X3047140Y3212803D1*
X3050452Y3219305D1*
X3054741Y3225208D1*
X3058592Y3229157D1*
X3058988Y3237436D1*
X3060142Y3242242D1*
X3061002Y3244572D1*
X3053273Y3245053D1*
X2729490D1*
X2725511Y3241194D1*
X2719608Y3236905D1*
X2713106Y3233593D1*
X2706167Y3231338D1*
X2698960Y3230196D1*
X2691663D1*
X2684456Y3231338D1*
X2677517Y3233593D1*
X2671015Y3236905D1*
X2665112Y3241194D1*
X2659953Y3246354D1*
X2655664Y3252257D1*
X2652351Y3258758D1*
X2650096Y3265698D1*
X2648955Y3272905D1*
Y3280201D1*
X2650096Y3287408D1*
X2652351Y3294348D1*
X2655664Y3300849D1*
X2657736Y3303941D1*
X2580016Y3303949D1*
X2582067Y3295724D1*
X2582640Y3288449D1*
X2582566Y3286582D1*
X2662915Y3206084D1*
X2665821Y3202085D1*
X2668065Y3197681D1*
X2669592Y3192980D1*
X2670365Y3188098D1*
X2670463Y3154443D1*
X2675656Y3150471D1*
X2681925Y3144202D1*
X2687137Y3137030D1*
X2691162Y3129130D1*
X2693901Y3120698D1*
X2695288Y3111941D1*
Y3103075D1*
X2693901Y3094319D1*
X2691162Y3085887D1*
X2687137Y3077987D1*
X2681925Y3070815D1*
X2675656Y3064545D1*
X2668484Y3059334D1*
X2660584Y3055309D1*
X2652152Y3052569D1*
X2643395Y3051183D1*
X2634530D1*
X2625773Y3052569D1*
X2617341Y3055309D1*
X2609441Y3059334D1*
X2602269Y3064545D1*
X2596000Y3070815D1*
X2590788Y3077987D1*
X2586763Y3085887D1*
X2584024Y3094319D1*
X2582637Y3103075D1*
Y3111941D1*
X2584024Y3120698D1*
X2586763Y3129130D1*
X2590788Y3137030D1*
X2596000Y3144202D1*
X2602269Y3150471D1*
X2607467Y3154364D1*
X2607462Y3172566D1*
X2538055Y3241986D1*
X2532491Y3242093D1*
X2525284Y3243234D1*
X2518345Y3245489D1*
X2511843Y3248802D1*
X2507945Y3251510D1*
X2503015Y3248388D1*
X2498449Y3246496D1*
X2493642Y3245342D1*
X2488705Y3244955D1*
X2266914D1*
X2262911Y3241096D1*
X2257008Y3236807D1*
X2250507Y3233494D1*
X2243567Y3231239D1*
X2236360Y3230098D1*
X2229063D1*
X2221857Y3231239D1*
X2214917Y3233494D1*
X2208416Y3236807D1*
X2202512Y3241096D1*
X2198563Y3244946D1*
X1854457Y3244954D1*
X1766401Y3156872D1*
X1772030Y3157584D1*
X1780895D1*
X1789652Y3156197D1*
X1798084Y3153457D1*
X1805984Y3149432D1*
X1813156Y3144221D1*
X1819425Y3137952D1*
X1824637Y3130779D1*
X1828662Y3122879D1*
X1831401Y3114447D1*
X1832788Y3105691D1*
Y3096825D1*
X1831401Y3088068D1*
X1828662Y3079636D1*
X1824637Y3071737D1*
X1819425Y3064564D1*
X1813156Y3058295D1*
X1805984Y3053084D1*
X1798084Y3049059D1*
X1789652Y3046319D1*
X1780895Y3044932D1*
X1772030D1*
X1763273Y3046319D1*
X1754841Y3049059D1*
X1746941Y3053084D1*
X1739769Y3058295D1*
X1733500Y3064564D1*
X1728288Y3071737D1*
X1724263Y3079636D1*
X1721524Y3088068D1*
X1720265Y3095741D1*
X1715318Y3094266D1*
X1708111Y3093124D1*
X1700814D1*
X1693607Y3094266D1*
X1686668Y3096520D1*
X1680166Y3099833D1*
X1674263Y3104122D1*
X1669104Y3109282D1*
X1664815Y3115185D1*
X1661502Y3121686D1*
X1659247Y3128626D1*
X1658106Y3135832D1*
X1658036Y3141348D1*
X1554431Y3244965D1*
X1398151Y3244954D1*
X1394112Y3241096D1*
X1388209Y3236807D1*
X1381707Y3233494D1*
X1374768Y3231239D1*
X1367561Y3230098D1*
X1360264D1*
X1353057Y3231239D1*
X1346118Y3233494D1*
X1339616Y3236807D1*
X1333713Y3241096D1*
X1329764Y3244946D1*
X1322495Y3238835D1*
X1316274Y3235023D1*
X1309533Y3232230D1*
X1302437Y3230527D1*
X1295163Y3229955D1*
X1287889Y3230527D1*
X1280794Y3232230D1*
X1274053Y3235023D1*
X1267831Y3238835D1*
X1262283Y3243574D1*
X1257544Y3249123D1*
X1253731Y3255344D1*
X1250939Y3262085D1*
X1249236Y3269180D1*
X1248663Y3276455D1*
X1249236Y3283729D1*
X1250939Y3290824D1*
X1253731Y3297565D1*
X1255682Y3301000D1*
X1221243Y3301105D1*
X1216361Y3301879D1*
X1211660Y3303406D1*
X1207256Y3305650D1*
X1203257Y3308556D1*
X1185438Y3326237D1*
X1182228Y3329996D1*
X1179645Y3334210D1*
X1177754Y3338777D1*
X1176600Y3343583D1*
X1176212Y3348511D1*
Y3604401D1*
X1171318Y3597068D1*
X1165378Y3590066D1*
X1158673Y3583795D1*
X1151290Y3578337D1*
X1143328Y3573765D1*
X1134893Y3570140D1*
X1126096Y3567510D1*
X1117056Y3565909D1*
X1107891Y3565359D1*
X1098724Y3565868D1*
X1089676Y3567428D1*
X1080868Y3570019D1*
X1072416Y3573606D1*
X1064434Y3578142D1*
X1057027Y3583567D1*
X1050293Y3589808D1*
X1044322Y3596782D1*
X1039193Y3604398D1*
X1034975Y3612552D1*
X1031723Y3621139D1*
X1029481Y3630042D1*
X1028278Y3639144D1*
X1028131Y3648324D1*
X1029042Y3657460D1*
X1030997Y3666431D1*
X1033972Y3675117D1*
X1037927Y3683403D1*
X1042809Y3691178D1*
X1048553Y3698340D1*
X1055084Y3704794D1*
X1062313Y3710453D1*
X1070146Y3715243D1*
X1078478Y3719099D1*
X1087199Y3721971D1*
X1096192Y3723821D1*
X1105338Y3724623D1*
X1114516Y3724367D1*
X1123603Y3723057D1*
X1132479Y3720709D1*
X1136512Y3719264D1*
X1134091Y3727334D1*
X1132931Y3733164D1*
X1132233Y3739068D1*
X1131999Y3745008D1*
X1132233Y3750949D1*
X1132931Y3756852D1*
X1134091Y3762683D1*
X1136581Y3770780D1*
X1127879Y3767954D1*
X1118877Y3766145D1*
X1109728Y3765384D1*
X1100551Y3765681D1*
X1091470Y3767032D1*
X1082605Y3769419D1*
X1074073Y3772811D1*
X1065988Y3777162D1*
X1058457Y3782414D1*
X1051581Y3788498D1*
X1045451Y3795333D1*
X1040148Y3802828D1*
X1035743Y3810883D1*
X1032294Y3819392D1*
X1029847Y3828241D1*
X1028435Y3837313D1*
X1028076Y3846488D1*
X1028775Y3855642D1*
X1030523Y3864656D1*
X1033297Y3873408D1*
X1037060Y3881783D1*
X1041761Y3889669D1*
X1047339Y3896962D1*
X1051326Y3901259D1*
X463984Y3901258D1*
X463962Y3680188D1*
X468229Y3691840D1*
X472052Y3700191D1*
X476424Y3708269D1*
X481325Y3716037D1*
X486732Y3723461D1*
X492623Y3730507D1*
X498971Y3737145D1*
X505748Y3743345D1*
X512922Y3749079D1*
X520464Y3754322D1*
X528338Y3759050D1*
X536510Y3763242D1*
X544943Y3766880D1*
X553601Y3769948D1*
X562443Y3772431D1*
X571432Y3774319D1*
X580526Y3775603D1*
X589686Y3776278D1*
X598870Y3776340D1*
X608039Y3775790D1*
X617150Y3774629D1*
X626163Y3772864D1*
X635038Y3770501D1*
X643737Y3767551D1*
X652219Y3764028D1*
X660447Y3759947D1*
X668384Y3755326D1*
X675996Y3750186D1*
X683248Y3744550D1*
X690108Y3738443D1*
X696545Y3731891D1*
X702531Y3724925D1*
X708040Y3717576D1*
X713045Y3709875D1*
X717526Y3701857D1*
X721462Y3693559D1*
X724836Y3685017D1*
X727633Y3676268D1*
X729840Y3667352D1*
X731447Y3658310D1*
X732448Y3649180D1*
X732843Y3638758D1*
X732537Y3629578D1*
X731619Y3620440D1*
X730093Y3611382D1*
X727967Y3602447D1*
X725249Y3593674D1*
X721953Y3585101D1*
X718092Y3576767D1*
X713684Y3568710D1*
X708748Y3560964D1*
X703307Y3553565D1*
X697384Y3546545D1*
X691006Y3539936D1*
X684202Y3533767D1*
X677001Y3528065D1*
X669436Y3522857D1*
X661541Y3518164D1*
X653350Y3514009D1*
X644900Y3510409D1*
X636229Y3507381D1*
X627375Y3504937D1*
X618378Y3503090D1*
X609278Y3501847D1*
X600115Y3501214D1*
X590931Y3501193D1*
X581765Y3501785D1*
X572659Y3502987D1*
X563654Y3504793D1*
X554790Y3507196D1*
X546105Y3510185D1*
X537639Y3513747D1*
X529429Y3517865D1*
X521513Y3522522D1*
X513924Y3527696D1*
X506698Y3533365D1*
X499866Y3539503D1*
X493458Y3546084D1*
X487503Y3553077D1*
X482029Y3560451D1*
X477058Y3568174D1*
X472613Y3576212D1*
X468715Y3584528D1*
X463969Y3597569D1*
X463962Y3355292D1*
X470148Y3358992D1*
X478480Y3362849D1*
X487200Y3365721D1*
X496193Y3367570D1*
X505339Y3368372D1*
X514517Y3368116D1*
X523604Y3366806D1*
X532481Y3364459D1*
X541028Y3361106D1*
X549132Y3356791D1*
X556686Y3351573D1*
X563589Y3345520D1*
X569750Y3338712D1*
X575087Y3331241D1*
X579528Y3323206D1*
X583015Y3314712D1*
X585502Y3305874D1*
X586955Y3296809D1*
X587363Y3288758D1*
X586834Y3279592D1*
X585253Y3270548D1*
X582642Y3261745D1*
X581975Y3259964D1*
X590038Y3262378D1*
X595869Y3263538D1*
X601773Y3264237D1*
X607713Y3264470D1*
X613653Y3264237D1*
X619557Y3263538D1*
X625388Y3262378D1*
X633484Y3259889D1*
X630704Y3268418D1*
X628875Y3277415D1*
X628094Y3286563D1*
X628370Y3295740D1*
X629701Y3304824D1*
X632068Y3313695D1*
X635440Y3322235D1*
X639773Y3330329D1*
X645008Y3337872D1*
X651077Y3344761D1*
X657898Y3350907D1*
X665381Y3356227D1*
X673427Y3360650D1*
X681928Y3364118D1*
X690771Y3366585D1*
X699840Y3368017D1*
X709014Y3368397D1*
X718170Y3367718D1*
X727187Y3365990D1*
X735945Y3363236D1*
X744329Y3359492D1*
X752225Y3354809D1*
X759531Y3349247D1*
X766148Y3342882D1*
X771988Y3335798D1*
X776974Y3328089D1*
X781040Y3319857D1*
X784132Y3311212D1*
X786208Y3302269D1*
X787242Y3293146D1*
X787278Y3285085D1*
X786327Y3275953D1*
X784331Y3266991D1*
X781317Y3258318D1*
X777325Y3250050D1*
X772408Y3242297D1*
X766632Y3235160D1*
X760072Y3228736D1*
X752817Y3223110D1*
X744963Y3218355D1*
X736613Y3214536D1*
X727880Y3211704D1*
X718879Y3209895D1*
X709729Y3209134D1*
X700553Y3209431D1*
X691471Y3210782D1*
X682606Y3213169D1*
X678913Y3214500D1*
X681334Y3206432D1*
X682494Y3200602D1*
X683192Y3194698D1*
X683426Y3188758D1*
X683192Y3182817D1*
X682494Y3176914D1*
X681334Y3171083D1*
X678844Y3162986D1*
X687200Y3165721D1*
X696193Y3167570D1*
X705339Y3168372D1*
X714517Y3168116D1*
X723604Y3166806D1*
X732481Y3164459D1*
X741028Y3161106D1*
X749132Y3156791D1*
X756686Y3151573D1*
X763589Y3145520D1*
X769750Y3138712D1*
X775087Y3131241D1*
X779528Y3123206D1*
X783015Y3114712D1*
X785502Y3105874D1*
X786955Y3096809D1*
X787363Y3088758D1*
X786834Y3079592D1*
X785253Y3070548D1*
X782642Y3061745D1*
X779036Y3053302D1*
X774482Y3045330D1*
X769041Y3037935D1*
X762785Y3031215D1*
X755797Y3025259D1*
X748170Y3020148D1*
X740006Y3015948D1*
X731412Y3012716D1*
X722504Y3010493D1*
X713399Y3009311D1*
X704219Y3009185D1*
X695085Y3010116D1*
X686119Y3012091D1*
X677439Y3015086D1*
X669162Y3019059D1*
X661398Y3023959D1*
X654248Y3029719D1*
X647809Y3036264D1*
X642166Y3043506D1*
X637394Y3051350D1*
X633557Y3059691D1*
X630704Y3068418D1*
X628875Y3077415D1*
X628094Y3086563D1*
X628370Y3095740D1*
X629701Y3104824D1*
X632068Y3113695D1*
X633454Y3117551D1*
X625388Y3115137D1*
X619557Y3113977D1*
X613653Y3113279D1*
X607713Y3113045D1*
X601773Y3113279D1*
X595869Y3113977D1*
X590038Y3115137D1*
X581942Y3117627D1*
X584630Y3109444D1*
X586499Y3100455D1*
X587322Y3091310D1*
X587172Y3083250D1*
X586010Y3074143D1*
X583808Y3065230D1*
X580595Y3056629D1*
X576414Y3048455D1*
X571319Y3040817D1*
X565380Y3033816D1*
X558674Y3027545D1*
X551291Y3022087D1*
X543329Y3017515D1*
X534894Y3013889D1*
X526097Y3011259D1*
X517057Y3009658D1*
X507892Y3009108D1*
X498725Y3009617D1*
X489677Y3011177D1*
X480869Y3013768D1*
X472418Y3017355D1*
X464435Y3021892D1*
X463963Y3022205D1*
X463962Y780171D1*
X468229Y791842D1*
X472052Y800193D1*
X476424Y808270D1*
X481325Y816038D1*
X486732Y823462D1*
X492623Y830509D1*
X498971Y837147D1*
X505748Y843346D1*
X512922Y849081D1*
X520464Y854323D1*
X528338Y859051D1*
X536510Y863244D1*
X544943Y866882D1*
X553601Y869949D1*
X562443Y872432D1*
X571432Y874320D1*
X580526Y875605D1*
X589686Y876279D1*
X598870Y876342D1*
X608039Y875791D1*
X617150Y874631D1*
X626163Y872865D1*
X635038Y870502D1*
X643737Y867552D1*
X652219Y864029D1*
X660447Y859948D1*
X668384Y855327D1*
X675996Y850187D1*
X683248Y844551D1*
X690108Y838444D1*
X696545Y831893D1*
X702531Y824927D1*
X708040Y817577D1*
X713045Y809876D1*
X717526Y801859D1*
X721462Y793560D1*
X724836Y785018D1*
X727633Y776269D1*
X729840Y767354D1*
X731447Y758311D1*
X732448Y749181D1*
X732843Y738759D1*
X732537Y729580D1*
X731619Y720441D1*
X730093Y711384D1*
X727967Y702449D1*
X725249Y693675D1*
X721953Y685102D1*
X718092Y676769D1*
X713684Y668711D1*
X708748Y660965D1*
X703307Y653566D1*
X697384Y646546D1*
X691006Y639937D1*
X684202Y633768D1*
X677001Y628066D1*
X669436Y622858D1*
X661541Y618165D1*
X653350Y614010D1*
X644900Y610410D1*
X636229Y607382D1*
X627375Y604939D1*
X618378Y603092D1*
X609278Y601849D1*
X600115Y601215D1*
X590931Y601194D1*
X581765Y601786D1*
X572659Y602988D1*
X563654Y604795D1*
X554790Y607198D1*
X546105Y610187D1*
X537639Y613748D1*
X529429Y617866D1*
X521513Y622523D1*
X513924Y627697D1*
X506698Y633366D1*
X499866Y639505D1*
X493458Y646085D1*
X487503Y653078D1*
X482029Y660452D1*
X477058Y668176D1*
X472613Y676213D1*
X468715Y684530D1*
X463969Y697570D1*
X463962Y432525D1*
X4088934Y432508D1*
X4088684Y524960D1*
X4083748Y517215D1*
X4078307Y509815D1*
X4072384Y502796D1*
X4066006Y496186D1*
X4059202Y490017D1*
X4052001Y484316D1*
X4044436Y479107D1*
X4036541Y474415D1*
X4028350Y470259D1*
X4019900Y466660D1*
X4011229Y463631D1*
X4002375Y461188D1*
X3993378Y459341D1*
X3984278Y458098D1*
X3975115Y457465D1*
X3965931Y457444D1*
X3956765Y458036D1*
X3947659Y459237D1*
X3938654Y461044D1*
X3929790Y463447D1*
X3921105Y466436D1*
X3912639Y469998D1*
X3904429Y474116D1*
X3896513Y478773D1*
X3888924Y483947D1*
X3881698Y489616D1*
X3874866Y495754D1*
X3868458Y502334D1*
X3862503Y509327D1*
X3857029Y516702D1*
X3852058Y524425D1*
X3847613Y532463D1*
X3843715Y540779D1*
X3840379Y549337D1*
X3837622Y558098D1*
X3835456Y567023D1*
X3833889Y576073D1*
X3832930Y585208D1*
X3832582Y594386D1*
X3832847Y603566D1*
X3833724Y612709D1*
X3835208Y621773D1*
X3837294Y630718D1*
X3839971Y639503D1*
X3843229Y648091D1*
X3847052Y656442D1*
X3851424Y664520D1*
X3856325Y672288D1*
X3861732Y679711D1*
X3867623Y686758D1*
X3873971Y693396D1*
X3880748Y699596D1*
X3887922Y705330D1*
X3895464Y710573D1*
X3903338Y715301D1*
X3911510Y719493D1*
X3919943Y723131D1*
X3928601Y726199D1*
X3937443Y728682D1*
X3946432Y730570D1*
X3955526Y731854D1*
X3964686Y732529D1*
X3973870Y732591D1*
X3983039Y732041D1*
X3992150Y730880D1*
X4001163Y729114D1*
X4010038Y726751D1*
X4018737Y723802D1*
X4027219Y720278D1*
X4035447Y716197D1*
X4043384Y711577D1*
X4050996Y706437D1*
X4058248Y700801D1*
X4065108Y694693D1*
X4071545Y688142D1*
X4077531Y681176D1*
X4083040Y673826D1*
X4088518Y665280D1*
X4084285Y3034970D1*
X4076909Y3032033D1*
X4068054Y3029606D1*
X4058979Y3028214D1*
X4049804Y3027876D1*
X4040651Y3028596D1*
X4031642Y3030364D1*
X4022896Y3033158D1*
X4014530Y3036939D1*
X4006654Y3041658D1*
X3999374Y3047252D1*
X3992785Y3053647D1*
X3986977Y3060757D1*
X3982025Y3068489D1*
X3977996Y3076739D1*
X3974943Y3085398D1*
X3972907Y3094350D1*
X3971915Y3103478D1*
X3971980Y3112659D1*
X3973100Y3121771D1*
X3975262Y3130694D1*
X3977203Y3136302D1*
X3969137Y3133888D1*
X3963307Y3132728D1*
X3957403Y3132029D1*
X3951462Y3131796D1*
X3945522Y3132029D1*
X3939618Y3132728D1*
X3933788Y3133888D1*
X3925691Y3136378D1*
X3928379Y3128194D1*
X3930249Y3119205D1*
X3931071Y3110061D1*
X3930921Y3102001D1*
X3929760Y3092894D1*
X3927558Y3083980D1*
X3924345Y3075380D1*
X3920163Y3067206D1*
X3915069Y3059568D1*
X3909129Y3052566D1*
X3902423Y3046295D1*
X3895040Y3040837D1*
X3887078Y3036265D1*
X3878643Y3032640D1*
X3869847Y3030010D1*
X3860806Y3028409D1*
X3851641Y3027859D1*
X3842474Y3028368D1*
X3833426Y3029928D1*
X3824618Y3032519D1*
X3816167Y3036106D1*
X3808185Y3040642D1*
X3800777Y3046067D1*
X3794043Y3052308D1*
X3788072Y3059282D1*
X3782944Y3066898D1*
X3778725Y3075052D1*
X3775474Y3083639D1*
X3773232Y3092542D1*
X3772029Y3101644D1*
X3771882Y3110824D1*
X3772792Y3119960D1*
X3774748Y3128931D1*
X3777723Y3137617D1*
X3781677Y3145903D1*
X3786559Y3153678D1*
X3792304Y3160840D1*
X3798834Y3167294D1*
X3806064Y3172953D1*
X3813897Y3177743D1*
X3822229Y3181599D1*
X3830950Y3184471D1*
X3839943Y3186321D1*
X3849089Y3187123D1*
X3858266Y3186867D1*
X3867354Y3185557D1*
X3876230Y3183209D1*
X3880263Y3181764D1*
X3877842Y3189834D1*
X3876682Y3195664D1*
X3875983Y3201568D1*
X3875750Y3207508D1*
X3875983Y3213449D1*
X3876682Y3219352D1*
X3877842Y3225183D1*
X3880332Y3233280D1*
X3871629Y3230454D1*
X3862628Y3228645D1*
X3853478Y3227884D1*
X3844302Y3228181D1*
X3835221Y3229532D1*
X3826355Y3231919D1*
X3817823Y3235311D1*
X3809738Y3239662D1*
X3802208Y3244914D1*
X3795332Y3250998D1*
X3789202Y3257833D1*
X3783899Y3265328D1*
X3779493Y3273383D1*
X3776044Y3281892D1*
X3773598Y3290741D1*
X3772185Y3299813D1*
X3771827Y3308988D1*
X3772526Y3318142D1*
X3774274Y3327156D1*
X3777048Y3335908D1*
X3780810Y3344283D1*
X3785512Y3352169D1*
X3791089Y3359462D1*
X3797469Y3366064D1*
X3804567Y3371889D1*
X3812287Y3376858D1*
X3820528Y3380905D1*
X3829180Y3383978D1*
X3838128Y3386034D1*
X3847253Y3387047D1*
X3856434Y3387003D1*
X3865549Y3385902D1*
X3874477Y3383760D1*
X3883099Y3380605D1*
X3891301Y3376479D1*
X3898974Y3371436D1*
X3906015Y3365544D1*
X3912331Y3358881D1*
X3917838Y3351535D1*
X3922464Y3343604D1*
X3926146Y3335193D1*
X3928836Y3326415D1*
X3930497Y3317385D1*
X3931109Y3308224D1*
X3931091Y3305671D1*
X4022665Y3181766D2*
X4030950Y3184471D1*
X4039943Y3186321D1*
X4049089Y3187123D1*
X4058266Y3186867D1*
X4067354Y3185557D1*
X4076230Y3183209D1*
X4084023Y3180193D1*
X4083755Y3234699D1*
X4075162Y3231466D1*
X4066253Y3229244D1*
X4057148Y3228062D1*
X4047968Y3227935D1*
X4038834Y3228866D1*
X4029868Y3230842D1*
X4022663Y3233251D1*
X4025083Y3225183D1*
X4026243Y3219352D1*
X4026942Y3213449D1*
X4027175Y3207508D1*
X4026942Y3201568D1*
X4026243Y3195664D1*
X4025083Y3189834D1*
X4022593Y3181737D1*
X1233451Y3816217D2*
X1230703Y3824668D1*
X1228874Y3833666D1*
X1228092Y3842814D1*
X1228369Y3851991D1*
X1229699Y3861075D1*
X1232067Y3869946D1*
X1235439Y3878485D1*
X1239772Y3886580D1*
X1245007Y3894122D1*
X1251076Y3901012D1*
X1251326Y3901259D1*
X1164084Y3901258D1*
X1169749Y3894963D1*
X1175085Y3887492D1*
X1179527Y3879456D1*
X1183014Y3870963D1*
X1185501Y3862125D1*
X1186953Y3853059D1*
X1187361Y3845008D1*
X1186832Y3835842D1*
X1185252Y3826798D1*
X1182641Y3817996D1*
X1181974Y3816215D1*
X1190037Y3818629D1*
X1195868Y3819789D1*
X1201771Y3820488D1*
X1207712Y3820721D1*
X1213652Y3820488D1*
X1219556Y3819789D1*
X1225387Y3818629D1*
X1233483Y3816139D1*
X3445238Y3415575D2*
X3443851Y3406819D1*
X3441112Y3398387D1*
X3437087Y3390487D1*
X3431876Y3383315D1*
X3425606Y3377045D1*
X3418434Y3371834D1*
X3410534Y3367809D1*
X3402102Y3365069D1*
X3393346Y3363683D1*
X3384480D1*
X3375723Y3365069D1*
X3367291Y3367809D1*
X3359391Y3371834D1*
X3352219Y3377045D1*
X3345950Y3383315D1*
X3340738Y3390487D1*
X3336713Y3398387D1*
X3333974Y3406819D1*
X3332587Y3415575D1*
Y3424441D1*
X3333974Y3433198D1*
X3336713Y3441630D1*
X3340738Y3449530D1*
X3345950Y3456702D1*
X3352219Y3462971D1*
X3359391Y3468183D1*
X3367291Y3472208D1*
X3375723Y3474947D1*
X3384480Y3476334D1*
X3393346D1*
X3402102Y3474947D1*
X3410534Y3472208D1*
X3418434Y3468183D1*
X3425606Y3462971D1*
X3431876Y3456702D1*
X3437087Y3449530D1*
X3441112Y3441630D1*
X3443851Y3433198D1*
X3445238Y3424441D1*
Y3415575D1*
X2101633Y3580671D2*
X2100918Y3573362D1*
X2099261Y3566208D1*
X2096690Y3559329D1*
X2093248Y3552841D1*
X2088994Y3546855D1*
X2083999Y3541471D1*
X2078348Y3536781D1*
X2072137Y3532863D1*
X2065470Y3529784D1*
X2058459Y3527595D1*
X2051224Y3526334D1*
X2043887Y3526023D1*
X2036571Y3526665D1*
X2029401Y3528252D1*
X2022497Y3530754D1*
X2015975Y3534132D1*
X2009947Y3538326D1*
X2004514Y3543267D1*
X1999767Y3548871D1*
X1995788Y3555043D1*
X1992643Y3561680D1*
X1990385Y3568668D1*
X1989052Y3575890D1*
X1988668Y3583224D1*
X1989238Y3590545D1*
X1990753Y3597731D1*
X1993187Y3604660D1*
X1996499Y3611215D1*
X2000634Y3617284D1*
X2005520Y3622766D1*
X2011077Y3627568D1*
X2017209Y3631609D1*
X2023814Y3634820D1*
X2030779Y3637147D1*
X2037988Y3638551D1*
X2045317Y3639008D1*
X2052645Y3638511D1*
X2059845Y3637067D1*
X2066798Y3634702D1*
X2073385Y3631455D1*
X2079495Y3627381D1*
X2085025Y3622549D1*
X2089882Y3617041D1*
X2093983Y3610949D1*
X2097260Y3604376D1*
X2099656Y3597434D1*
X2101132Y3590240D1*
X2101663Y3582508D1*
X2101633Y3580671D1*
X920433Y3530671D2*
X919717Y3523362D1*
X918060Y3516208D1*
X915489Y3509329D1*
X912047Y3502841D1*
X907793Y3496855D1*
X902798Y3491471D1*
X897147Y3486781D1*
X890936Y3482863D1*
X884269Y3479784D1*
X877258Y3477595D1*
X870024Y3476334D1*
X862686Y3476023D1*
X855371Y3476665D1*
X848200Y3478252D1*
X841296Y3480754D1*
X834774Y3484132D1*
X828746Y3488326D1*
X823313Y3493267D1*
X818567Y3498871D1*
X814587Y3505043D1*
X811442Y3511680D1*
X809184Y3518668D1*
X807851Y3525890D1*
X807467Y3533224D1*
X808037Y3540545D1*
X809552Y3547731D1*
X811986Y3554660D1*
X815298Y3561215D1*
X819433Y3567284D1*
X824320Y3572766D1*
X829876Y3577568D1*
X836008Y3581609D1*
X842613Y3584820D1*
X849579Y3587147D1*
X856787Y3588551D1*
X864117Y3589008D1*
X871444Y3588511D1*
X878644Y3587067D1*
X885597Y3584702D1*
X892184Y3581455D1*
X898294Y3577381D1*
X903825Y3572549D1*
X908681Y3567041D1*
X912783Y3560949D1*
X916059Y3554376D1*
X918455Y3547434D1*
X919931Y3540240D1*
X920462Y3532508D1*
X920433Y3530671D1*
X1206006Y3103075D2*
X1204619Y3094319D1*
X1201880Y3085887D1*
X1197854Y3077987D1*
X1192643Y3070815D1*
X1186374Y3064545D1*
X1179201Y3059334D1*
X1171302Y3055309D1*
X1162870Y3052569D1*
X1154113Y3051183D1*
X1145247D1*
X1136491Y3052569D1*
X1128059Y3055309D1*
X1120159Y3059334D1*
X1112987Y3064545D1*
X1106717Y3070815D1*
X1105956Y3071781D1*
X1102132Y3067557D1*
X1095390Y3061799D1*
X1087831Y3057167D1*
X1079640Y3053774D1*
X1071019Y3051704D1*
X1062180Y3051008D1*
X1053342Y3051704D1*
X1044721Y3053774D1*
X1036530Y3057167D1*
X1028970Y3061799D1*
X1022229Y3067557D1*
X1016471Y3074299D1*
X1011838Y3081858D1*
X1008446Y3090049D1*
X1006376Y3098670D1*
X1005680Y3107508D1*
X1006376Y3116347D1*
X1008446Y3124968D1*
X1011838Y3133159D1*
X1016471Y3140718D1*
X1022229Y3147460D1*
X1028970Y3153218D1*
X1036530Y3157850D1*
X1044721Y3161243D1*
X1053342Y3163313D1*
X1062180Y3164008D1*
X1071019Y3163313D1*
X1079640Y3161243D1*
X1087831Y3157850D1*
X1095390Y3153218D1*
X1102132Y3147460D1*
X1105905Y3143236D1*
X1109729Y3147460D1*
X1116470Y3153218D1*
X1124030Y3157850D1*
X1132221Y3161243D1*
X1140842Y3163313D1*
X1149680Y3164008D1*
X1158519Y3163313D1*
X1167140Y3161243D1*
X1175331Y3157850D1*
X1182890Y3153218D1*
X1189632Y3147460D1*
X1195390Y3140718D1*
X1200022Y3133159D1*
X1203415Y3124968D1*
X1205485Y3116347D1*
X1206180Y3107508D1*
X1206006Y3103075D1*
X1351489Y3096825D2*
X1350102Y3088068D1*
X1347362Y3079636D1*
X1343337Y3071737D1*
X1338126Y3064564D1*
X1331857Y3058295D1*
X1324684Y3053084D1*
X1316785Y3049059D1*
X1308353Y3046319D1*
X1299596Y3044932D1*
X1290730D1*
X1281974Y3046319D1*
X1273542Y3049059D1*
X1265642Y3053084D1*
X1258469Y3058295D1*
X1252200Y3064564D1*
X1246989Y3071737D1*
X1242964Y3079636D1*
X1240224Y3088068D1*
X1238837Y3096825D1*
Y3105691D1*
X1240224Y3114447D1*
X1242964Y3122879D1*
X1246989Y3130779D1*
X1252200Y3137952D1*
X1258469Y3144221D1*
X1265642Y3149432D1*
X1273542Y3153457D1*
X1281974Y3156197D1*
X1290730Y3157584D1*
X1299596D1*
X1308353Y3156197D1*
X1316785Y3153457D1*
X1324684Y3149432D1*
X1331857Y3144221D1*
X1338126Y3137952D1*
X1343337Y3130779D1*
X1347362Y3122879D1*
X1350102Y3114447D1*
X1351489Y3105691D1*
Y3096825D1*
X2364038D2*
X2362651Y3088068D1*
X2359911Y3079636D1*
X2355886Y3071737D1*
X2350675Y3064564D1*
X2344406Y3058295D1*
X2337233Y3053084D1*
X2329333Y3049059D1*
X2320901Y3046319D1*
X2312145Y3044932D1*
X2303279D1*
X2294522Y3046319D1*
X2286090Y3049059D1*
X2278191Y3053084D1*
X2271018Y3058295D1*
X2264749Y3064564D1*
X2259538Y3071737D1*
X2255513Y3079636D1*
X2252773Y3088068D1*
X2251386Y3096825D1*
Y3105691D1*
X2252773Y3114447D1*
X2255513Y3122879D1*
X2259538Y3130779D1*
X2264749Y3137952D1*
X2271018Y3144221D1*
X2278191Y3149432D1*
X2286090Y3153457D1*
X2294522Y3156197D1*
X2303279Y3157584D1*
X2312145D1*
X2320901Y3156197D1*
X2329333Y3153457D1*
X2337233Y3149432D1*
X2344406Y3144221D1*
X2350675Y3137952D1*
X2355886Y3130779D1*
X2359911Y3122879D1*
X2362651Y3114447D1*
X2364038Y3105691D1*
Y3096825D1*
X2839039Y3103075D2*
X2839004Y3102783D1*
X2844916Y3103617D1*
X2852213D1*
X2859420Y3102476D1*
X2866360Y3100221D1*
X2872861Y3096908D1*
X2878764Y3092619D1*
X2883924Y3087460D1*
X2888213Y3081557D1*
X2891525Y3075055D1*
X2893780Y3068116D1*
X2894921Y3060909D1*
Y3053612D1*
X2893780Y3046405D1*
X2891525Y3039466D1*
X2888213Y3032964D1*
X2883924Y3027061D1*
X2880073Y3023112D1*
X2880065Y1360979D1*
X2921815Y1319205D1*
X2928280Y1320085D1*
X2937146D1*
X2945903Y1318698D1*
X2954335Y1315958D1*
X2962234Y1311933D1*
X2969407Y1306722D1*
X2975676Y1300453D1*
X2980887Y1293280D1*
X2984912Y1285381D1*
X2987652Y1276949D1*
X2989039Y1268192D1*
Y1259326D1*
X2987652Y1250569D1*
X2984912Y1242137D1*
X2980887Y1234238D1*
X2975676Y1227065D1*
X2969407Y1220796D1*
X2962234Y1215585D1*
X2954335Y1211560D1*
X2945903Y1208820D1*
X2937146Y1207433D1*
X2928280D1*
X2919523Y1208820D1*
X2911092Y1211560D1*
X2903192Y1215585D1*
X2896019Y1220796D1*
X2889750Y1227065D1*
X2884539Y1234238D1*
X2880514Y1242137D1*
X2877774Y1250569D1*
X2876387Y1259326D1*
Y1268192D1*
X2877311Y1274620D1*
X2824612Y1327450D1*
X2821707Y1331449D1*
X2819463Y1335853D1*
X2817935Y1340554D1*
X2817162Y1345436D1*
X2817065Y1412212D1*
Y3023089D1*
X2813206Y3027061D1*
X2808917Y3032964D1*
X2805604Y3039466D1*
X2803350Y3046405D1*
X2802208Y3053612D1*
X2802175Y3054453D1*
X2795903Y3052569D1*
X2787146Y3051183D1*
X2778280D1*
X2769523Y3052569D1*
X2761092Y3055309D1*
X2753192Y3059334D1*
X2746019Y3064545D1*
X2739750Y3070815D1*
X2734539Y3077987D1*
X2730514Y3085887D1*
X2727774Y3094319D1*
X2726387Y3103075D1*
Y3111941D1*
X2727774Y3120698D1*
X2730514Y3129130D1*
X2734539Y3137030D1*
X2739750Y3144202D1*
X2746019Y3150471D1*
X2753192Y3155683D1*
X2761092Y3159708D1*
X2769523Y3162447D1*
X2778280Y3163834D1*
X2787146D1*
X2795903Y3162447D1*
X2804335Y3159708D1*
X2812234Y3155683D1*
X2819407Y3150471D1*
X2825676Y3144202D1*
X2830887Y3137030D1*
X2834912Y3129130D1*
X2837652Y3120698D1*
X2839039Y3111941D1*
Y3103075D1*
X1839039Y2115575D2*
X1837652Y2106819D1*
X1837139Y2105001D1*
X1875985Y2105012D1*
X1875962Y2368799D1*
X1874117Y2362599D1*
X1871873Y2358195D1*
X1868968Y2354196D1*
X1851289Y2336380D1*
X1847530Y2333170D1*
X1843307Y2330583D1*
X1843969Y2328389D1*
X1848708Y2322840D1*
X1852520Y2316619D1*
X1855313Y2309878D1*
X1857016Y2302783D1*
X1857588Y2295508D1*
X1857515Y2293641D1*
X1863667Y2287340D1*
X1866573Y2283341D1*
X1868817Y2278937D1*
X1870344Y2274236D1*
X1871117Y2269354D1*
X1871214Y2202578D1*
X1871117Y2174538D1*
X1870344Y2169656D1*
X1868817Y2164955D1*
X1866573Y2160551D1*
X1863667Y2156552D1*
X1838162Y2130910D1*
X1839039Y2124441D1*
Y2115575D1*
X1735858Y2239004D2*
X1739750Y2244202D1*
X1746019Y2250471D1*
X1753192Y2255683D1*
X1761092Y2259708D1*
X1769523Y2262447D1*
X1777162Y2263702D1*
X1773469Y2268176D1*
X1769657Y2274398D1*
X1766864Y2281139D1*
X1765161Y2288234D1*
X1764588Y2295508D1*
X1765161Y2302783D1*
X1766864Y2309878D1*
X1769657Y2316619D1*
X1773469Y2322840D1*
X1777075Y2327164D1*
X1642740Y2327154D1*
X1642711Y2212861D1*
X1661438Y2231461D1*
X1665437Y2234367D1*
X1669841Y2236611D1*
X1674542Y2238138D1*
X1679424Y2238911D1*
X1735829Y2239008D1*
X1515784Y1355001D2*
X1514406Y1361170D1*
X1513710Y1370008D1*
X1514406Y1378847D1*
X1514808Y1380870D1*
X1450273Y1445535D1*
X1447368Y1449534D1*
X1445124Y1453938D1*
X1443596Y1458639D1*
X1442823Y1463521D1*
X1442726Y1530297D1*
Y1734658D1*
X1441084Y1736253D1*
X1441089Y1165308D1*
X1443261Y1169305D1*
X1447550Y1175208D1*
X1451400Y1179157D1*
X1451506Y1309977D1*
X1452279Y1314859D1*
X1453806Y1319560D1*
X1456050Y1323965D1*
X1458956Y1327963D1*
X1476637Y1345782D1*
X1480396Y1348993D1*
X1484611Y1351575D1*
X1489177Y1353467D1*
X1493984Y1354621D1*
X1498921Y1355008D1*
X1515741Y1355009D1*
X536513Y3214498D2*
X527880Y3211704D1*
X518879Y3209895D1*
X509729Y3209134D1*
X500553Y3209431D1*
X491471Y3210782D1*
X482606Y3213169D1*
X474074Y3216560D1*
X465989Y3220911D1*
X463963Y3222205D1*
X463962Y3155345D1*
X471778Y3159840D1*
X480196Y3163503D1*
X488981Y3166173D1*
X498014Y3167815D1*
X507176Y3168406D1*
X516346Y3167938D1*
X525400Y3166419D1*
X534220Y3163867D1*
X536513Y3163013D1*
X534092Y3171083D1*
X532933Y3176914D1*
X532234Y3182817D1*
X532001Y3188758D1*
X532234Y3194698D1*
X532933Y3200602D1*
X534092Y3206432D1*
X536582Y3214529D1*
X2644926Y2804482D2*
X2604686D1*
Y2848081D1*
X2599865Y2838755D1*
X2593244Y2829643D1*
X2585280Y2821679D1*
X2576169Y2815059D1*
X2566133Y2809946D1*
X2555422Y2806465D1*
X2544297Y2804703D1*
X2533034D1*
X2521910Y2806465D1*
X2511199Y2809946D1*
X2501163Y2815059D1*
X2492051Y2821679D1*
X2484087Y2829643D1*
X2477467Y2838755D1*
X2472354Y2848790D1*
X2469800Y2856218D1*
X2467183Y2848790D1*
X2462069Y2838755D1*
X2455449Y2829643D1*
X2447485Y2821679D1*
X2438373Y2815059D1*
X2428338Y2809946D1*
X2417626Y2806465D1*
X2406502Y2804703D1*
X2395239D1*
X2384115Y2806465D1*
X2377555Y2808414D1*
X2310560Y2741400D1*
X2310577Y2628977D1*
X2317351Y2628436D1*
X2324446Y2626733D1*
X2331187Y2623940D1*
X2337409Y2620128D1*
X2342957Y2615389D1*
X2347696Y2609840D1*
X2351508Y2603619D1*
X2354301Y2596878D1*
X2356004Y2589783D1*
X2356577Y2582508D1*
X2356153Y2576495D1*
X2362187Y2573940D1*
X2368207Y2570262D1*
X2542069Y2570258D1*
X2546000Y2575452D1*
X2552269Y2581721D1*
X2559441Y2586932D1*
X2567341Y2590957D1*
X2575773Y2593697D1*
X2584530Y2595084D1*
X2593395D1*
X2602152Y2593697D1*
X2610584Y2590957D1*
X2618484Y2586932D1*
X2625656Y2581721D1*
X2631925Y2575452D1*
X2635818Y2570253D1*
X2640712Y2571637D1*
X2646260Y2576376D1*
X2652482Y2580188D1*
X2659223Y2582981D1*
X2666318Y2584684D1*
X2673094Y2585237D1*
X2673092Y2760882D1*
X2652508Y2781587D1*
X2649603Y2785586D1*
X2647359Y2789991D1*
X2645831Y2794692D1*
X2645058Y2799574D1*
X2644961Y2804449D1*
X2093794Y2811798D2*
X2087777Y2815059D1*
X2078666Y2821679D1*
X2070701Y2829643D1*
X2064081Y2838755D1*
X2058968Y2848790D1*
X2056414Y2856218D1*
X2053797Y2848790D1*
X2048684Y2838755D1*
X2042063Y2829643D1*
X2034099Y2821679D1*
X2024987Y2815059D1*
X2018971Y2811798D1*
X2018888Y2525689D1*
X2018115Y2520807D1*
X2016587Y2516106D1*
X2014343Y2511702D1*
X2011438Y2507703D1*
X1988318Y2484446D1*
X1988189Y2478860D1*
X1987048Y2471653D1*
X1984793Y2464714D1*
X1981480Y2458212D1*
X1977191Y2452309D1*
X1973341Y2448360D1*
X1973333Y2407833D1*
X1980212Y2409436D1*
X1987486Y2410008D1*
X1989353Y2409935D1*
X2093782Y2514352D1*
X2093780Y2811736D1*
X1955999Y2811798D2*
X1949982Y2815059D1*
X1940870Y2821679D1*
X1938947Y2823457D1*
X1938963Y2617728D1*
X1941836Y2616823D1*
X1949111Y2616251D1*
X1955972Y2614613D1*
X1955985Y2811753D1*
X1875980Y2809511D2*
X1866445Y2806465D1*
X1855321Y2804703D1*
X1844058D1*
X1832934Y2806465D1*
X1826374Y2808414D1*
X1797870Y2780028D1*
X1793871Y2777123D1*
X1789467Y2774879D1*
X1784766Y2773351D1*
X1779884Y2772578D1*
X1721469Y2772481D1*
X1725656Y2769222D1*
X1731925Y2762953D1*
X1737137Y2755780D1*
X1741162Y2747881D1*
X1743901Y2739449D1*
X1745288Y2730692D1*
X1745282Y2721774D1*
X1752418Y2725469D1*
X1759358Y2727724D1*
X1766565Y2728865D1*
X1773861D1*
X1781068Y2727724D1*
X1788008Y2725469D1*
X1794509Y2722156D1*
X1800412Y2717867D1*
X1805572Y2712708D1*
X1807612Y2710120D1*
X1812134Y2715389D1*
X1817683Y2720128D1*
X1823904Y2723940D1*
X1830646Y2726733D1*
X1837741Y2728436D1*
X1845015Y2729008D1*
X1852289Y2728436D1*
X1859384Y2726733D1*
X1866126Y2723940D1*
X1872347Y2720128D1*
X1875958Y2717180D1*
X1875962Y2809488D1*
X2542107Y1964004D2*
X2546000Y1969202D1*
X2552269Y1975471D1*
X2553235Y1976233D1*
X2549011Y1980057D1*
X2543253Y1986799D1*
X2538621Y1994358D1*
X2535228Y2002549D1*
X2533158Y2011170D1*
X2532462Y2020008D1*
X2533158Y2028847D1*
X2533391Y2030020D1*
X2426611Y2030012D1*
X2422638Y2026153D1*
X2416735Y2021865D1*
X2410234Y2018552D1*
X2403294Y2016297D1*
X2396087Y2015156D1*
X2391398Y2015053D1*
X2391411Y1964008D1*
X2542091D1*
X2542107Y2139004D2*
X2546000Y2144202D1*
X2552269Y2150471D1*
X2553235Y2151233D1*
X2549011Y2155057D1*
X2543253Y2161799D1*
X2542107Y2163513D1*
X2436993Y2163508D1*
X2437411Y2157508D1*
X2437338Y2155641D1*
X2453961Y2139006D1*
X2542069Y2139008D1*
X2534536Y2267501D2*
X2533158Y2273670D1*
X2532462Y2282508D1*
X2533158Y2291347D1*
X2535228Y2299968D1*
X2538621Y2308159D1*
X2543253Y2315718D1*
X2549011Y2322460D1*
X2553235Y2326233D1*
X2549011Y2330057D1*
X2543253Y2336799D1*
X2538621Y2344358D1*
X2535228Y2352549D1*
X2533158Y2361170D1*
X2532462Y2370008D1*
X2533158Y2378847D1*
X2535228Y2387468D1*
X2538621Y2395659D1*
X2543253Y2403218D1*
X2549011Y2409960D1*
X2549711Y2410607D1*
X2546000Y2414564D1*
X2542107Y2419763D1*
X2337881Y2419758D1*
X2342957Y2415389D1*
X2347696Y2409840D1*
X2351508Y2403619D1*
X2354301Y2396878D1*
X2356004Y2389783D1*
X2356577Y2382508D1*
X2356004Y2375234D1*
X2354301Y2368139D1*
X2351508Y2361398D1*
X2347696Y2355176D1*
X2342957Y2349628D1*
X2341585Y2348360D1*
X2341577Y2238362D1*
X2347529Y2240224D1*
X2354735Y2241365D1*
X2362032D1*
X2369239Y2240224D1*
X2376179Y2237969D1*
X2382680Y2234656D1*
X2388583Y2230367D1*
X2392532Y2226517D1*
X2436504Y2226508D1*
X2437082Y2233283D1*
X2438786Y2240378D1*
X2441578Y2247119D1*
X2445390Y2253340D1*
X2450129Y2258889D1*
X2455678Y2263628D1*
X2461899Y2267440D1*
X2468640Y2270233D1*
X2475736Y2271936D1*
X2483010Y2272508D1*
X2490284Y2271936D1*
X2497379Y2270233D1*
X2503978Y2267506D1*
X2534504Y2267508D1*
X2624690Y2326233D2*
X2628914Y2322460D1*
X2634672Y2315718D1*
X2639304Y2308159D1*
X2642697Y2299968D1*
X2644767Y2291347D1*
X2645462Y2282508D1*
X2645362Y2279963D1*
X2673077Y2307671D1*
X2673092Y2492253D1*
X2666318Y2492829D1*
X2659223Y2494532D1*
X2652482Y2497325D1*
X2646260Y2501137D1*
X2640712Y2505876D1*
X2639444Y2507248D1*
X2635878Y2507257D1*
X2631925Y2502064D1*
X2625656Y2495795D1*
X2624690Y2495033D1*
X2628914Y2491209D1*
X2634672Y2484468D1*
X2639304Y2476908D1*
X2642697Y2468717D1*
X2644767Y2460096D1*
X2645462Y2451258D1*
X2644767Y2442419D1*
X2642697Y2433798D1*
X2639304Y2425607D1*
X2634672Y2418048D1*
X2628914Y2411306D1*
X2628214Y2410659D1*
X2631925Y2406702D1*
X2637137Y2399530D1*
X2641162Y2391630D1*
X2643901Y2383198D1*
X2645288Y2374441D1*
Y2365575D1*
X2643901Y2356819D1*
X2641162Y2348387D1*
X2637137Y2340487D1*
X2631925Y2333315D1*
X2625656Y2327045D1*
X2624690Y2326284D1*
X2542107Y2482753D2*
X2546000Y2487952D1*
X2552269Y2494221D1*
X2553235Y2494982D1*
X2549011Y2498806D1*
X2543253Y2505548D1*
X2542107Y2507263D1*
X2380152Y2507258D1*
X2376436Y2502309D1*
X2371276Y2497150D1*
X2365373Y2492861D1*
X2358871Y2489548D1*
X2351932Y2487293D1*
X2344725Y2486152D1*
X2341575Y2486028D1*
X2344449Y2482758D1*
X2542064D1*
X2644926Y1541982D2*
X2604686D1*
Y1585581D1*
X2599865Y1576255D1*
X2593244Y1567143D1*
X2585280Y1559179D1*
X2576169Y1552559D1*
X2570152Y1549298D1*
X2570069Y1118292D1*
X2569296Y1113409D1*
X2567768Y1108708D1*
X2565524Y1104304D1*
X2562619Y1100305D1*
X2544937Y1082486D1*
X2541179Y1079276D1*
X2536964Y1076694D1*
X2532397Y1074802D1*
X2527591Y1073648D1*
X2522654Y1073261D1*
X2419640Y1073260D1*
X2420287Y1068191D1*
Y1059325D1*
X2418900Y1050568D1*
X2416160Y1042136D1*
X2413719Y1037064D1*
X2418011Y1032759D1*
X2644992Y1032760D1*
X2644961Y1541997D1*
X2507180Y1549298D2*
X2501163Y1552559D1*
X2492051Y1559179D1*
X2484087Y1567143D1*
X2477467Y1576255D1*
X2472354Y1586290D1*
X2469800Y1593718D1*
X2467183Y1586290D1*
X2462069Y1576255D1*
X2455449Y1567143D1*
X2447485Y1559179D1*
X2438373Y1552559D1*
X2428338Y1547446D1*
X2417626Y1543965D1*
X2406502Y1542203D1*
X2395239D1*
X2384115Y1543965D1*
X2373403Y1547446D1*
X2363368Y1552559D1*
X2354256Y1559179D1*
X2346292Y1567143D1*
X2339672Y1576255D1*
X2334559Y1586290D1*
X2332004Y1593718D1*
X2329387Y1586290D1*
X2324274Y1576255D1*
X2317654Y1567143D1*
X2309690Y1559179D1*
X2300578Y1552559D1*
X2290543Y1547446D1*
X2279831Y1543965D1*
X2268707Y1542203D1*
X2257444D1*
X2246320Y1543965D1*
X2235608Y1547446D1*
X2225573Y1552559D1*
X2216461Y1559179D1*
X2208497Y1567143D1*
X2201877Y1576255D1*
X2196763Y1586290D1*
X2194209Y1593718D1*
X2191592Y1586290D1*
X2186479Y1576255D1*
X2179859Y1567143D1*
X2171895Y1559179D1*
X2162783Y1552559D1*
X2156766Y1549298D1*
X2156781Y1365690D1*
X2161913Y1366365D1*
X2169209D1*
X2176416Y1365224D1*
X2183356Y1362969D1*
X2189857Y1359656D1*
X2192691Y1357762D1*
X2317034Y1357758D1*
X2320998Y1362952D1*
X2327267Y1369221D1*
X2334440Y1374432D1*
X2342340Y1378457D1*
X2350771Y1381197D1*
X2359528Y1382584D1*
X2368394D1*
X2377151Y1381197D1*
X2385583Y1378457D1*
X2393482Y1374432D1*
X2400655Y1369221D1*
X2401457Y1368480D1*
X2406593Y1370481D1*
X2413688Y1372184D1*
X2420962Y1372756D1*
X2428237Y1372184D1*
X2435332Y1370481D1*
X2442073Y1367688D1*
X2448294Y1363876D1*
X2453843Y1359137D1*
X2458582Y1353588D1*
X2462394Y1347367D1*
X2465187Y1340626D1*
X2466890Y1333531D1*
X2467462Y1326256D1*
X2466890Y1318982D1*
X2465187Y1311887D1*
X2462394Y1305146D1*
X2458582Y1298924D1*
X2453843Y1293376D1*
X2448294Y1288637D1*
X2442073Y1284825D1*
X2435332Y1282032D1*
X2431356Y1280949D1*
X2434065Y1275815D1*
X2435592Y1271114D1*
X2436365Y1266232D1*
X2436463Y1208260D1*
X2436075Y1203333D1*
X2434921Y1198526D1*
X2433029Y1193960D1*
X2430447Y1189745D1*
X2427236Y1185986D1*
X2415539Y1174289D1*
X2417696Y1168717D1*
X2419766Y1160096D1*
X2420461Y1151258D1*
X2419766Y1142419D1*
X2418387Y1136250D1*
X2507164Y1136260D1*
X2507166Y1549256D1*
X2093794Y1549298D2*
X2087777Y1552559D1*
X2078666Y1559179D1*
X2070701Y1567143D1*
X2064081Y1576255D1*
X2058968Y1586290D1*
X2056414Y1593718D1*
X2053797Y1586290D1*
X2048684Y1576255D1*
X2042063Y1567143D1*
X2034099Y1559179D1*
X2024987Y1552559D1*
X2018971Y1549298D1*
X2018985Y1299376D1*
X2061851Y1256537D1*
X2061864Y1335820D1*
X2058005Y1339809D1*
X2053716Y1345712D1*
X2050404Y1352214D1*
X2048149Y1359153D1*
X2047007Y1366360D1*
Y1373657D1*
X2048149Y1380864D1*
X2050404Y1387803D1*
X2053716Y1394305D1*
X2058005Y1400208D1*
X2063165Y1405367D1*
X2069068Y1409656D1*
X2075569Y1412969D1*
X2082509Y1415224D1*
X2089716Y1416365D1*
X2093777Y1416492D1*
X2093780Y1549262D1*
X1955999Y1549298D2*
X1949982Y1552559D1*
X1940870Y1559179D1*
X1932906Y1567143D1*
X1926286Y1576255D1*
X1921173Y1586290D1*
X1918619Y1593718D1*
X1916002Y1586290D1*
X1910888Y1576255D1*
X1904268Y1567143D1*
X1896304Y1559179D1*
X1887192Y1552559D1*
X1881175Y1549298D1*
X1881190Y1151534D1*
X2057634Y1151508D1*
X2061633Y1155367D1*
X2067536Y1159656D1*
X2068893Y1160416D1*
X1963532Y1265899D1*
X1960627Y1269897D1*
X1958383Y1274302D1*
X1956855Y1279003D1*
X1956082Y1283885D1*
X1955985Y1350661D1*
Y1549280D1*
X1818204Y1549298D2*
X1812187Y1552559D1*
X1803075Y1559179D1*
X1799664Y1562332D1*
X1799574Y1512017D1*
X1798801Y1507135D1*
X1797273Y1502434D1*
X1795029Y1498030D1*
X1792124Y1494031D1*
X1744975Y1446745D1*
X1711760Y1413530D1*
X1716518Y1411444D1*
X1722739Y1407632D1*
X1728288Y1402893D1*
X1733027Y1397344D1*
X1736839Y1391123D1*
X1739631Y1384382D1*
X1741335Y1377287D1*
X1741907Y1370012D1*
X1741834Y1368145D1*
X1797037Y1312793D1*
X1799943Y1308794D1*
X1802187Y1304390D1*
X1803714Y1299689D1*
X1804488Y1294807D1*
X1804585Y1277013D1*
X1808443Y1273019D1*
X1812732Y1267116D1*
X1816045Y1260614D1*
X1818187Y1254073D1*
X1818189Y1549287D1*
X1736656Y1546448D2*
X1728650Y1543965D1*
X1717526Y1542203D1*
X1706263D1*
X1695139Y1543965D1*
X1688702Y1545868D1*
X1688138Y1537734D1*
X1686435Y1530639D1*
X1683642Y1523898D1*
X1679830Y1517676D1*
X1675091Y1512128D1*
X1669543Y1507389D1*
X1663321Y1503577D1*
X1656580Y1500784D1*
X1649485Y1499081D1*
X1642709Y1498528D1*
X1642711Y1433600D1*
X1736682Y1527548D1*
X1736671Y1546390D1*
X1647435Y1645244D2*
X1650695Y1651260D1*
X1657316Y1660372D1*
X1665280Y1668336D1*
X1674392Y1674956D1*
X1680408Y1678217D1*
X1680265Y1796792D1*
X1673170Y1795089D1*
X1665896Y1794516D1*
X1658621Y1795089D1*
X1651526Y1796792D1*
X1644785Y1799584D1*
X1642711Y1800659D1*
Y1645245D1*
X2317106Y920253D2*
X2320998Y925452D1*
X2327267Y931721D1*
X2328234Y932482D1*
X2324010Y936306D1*
X2318252Y943048D1*
X2317106Y944763D1*
X2169361Y944758D1*
X2171089Y941299D1*
X2192124Y920264D1*
X2317058Y920258D1*
X2315558Y1122145D2*
X2311762Y1129636D1*
X2309022Y1138068D1*
X2307635Y1146825D1*
Y1155691D1*
X2308289Y1160759D1*
X2258954Y1160760D1*
X2220129Y1121903D1*
X2220044Y1116360D1*
X2218902Y1109153D1*
X2216647Y1102214D1*
X2213335Y1095712D1*
X2209046Y1089809D1*
X2203886Y1084650D1*
X2197983Y1080361D1*
X2191482Y1077048D1*
X2184542Y1074793D1*
X2177335Y1073652D1*
X2170039D1*
X2169189Y1073657D1*
Y1066360D1*
X2169000Y1064760D1*
X2258181D1*
X2315539Y1122141D1*
X1357787Y2515575D2*
X1356400Y2506819D1*
X1353660Y2498387D1*
X1349635Y2490487D1*
X1344424Y2483315D1*
X1338155Y2477045D1*
X1330982Y2471834D1*
X1323083Y2467809D1*
X1314651Y2465069D1*
X1305894Y2463683D1*
X1297028D1*
X1288271Y2465069D1*
X1279840Y2467809D1*
X1271940Y2471834D1*
X1264767Y2477045D1*
X1258498Y2483315D1*
X1253287Y2490487D1*
X1249262Y2498387D1*
X1246522Y2506819D1*
X1245135Y2515575D1*
Y2524441D1*
X1246522Y2533198D1*
X1249262Y2541630D1*
X1253287Y2549530D1*
X1258498Y2556702D1*
X1264767Y2562971D1*
X1271940Y2568183D1*
X1279840Y2572208D1*
X1288271Y2574947D1*
X1297028Y2576334D1*
X1305894D1*
X1314651Y2574947D1*
X1323083Y2572208D1*
X1330982Y2568183D1*
X1338155Y2562971D1*
X1344424Y2556702D1*
X1349635Y2549530D1*
X1353660Y2541630D1*
X1356400Y2533198D1*
X1357787Y2524441D1*
Y2515575D1*
X1445288Y2684325D2*
X1443901Y2675568D1*
X1441162Y2667136D1*
X1437137Y2659237D1*
X1431925Y2652064D1*
X1425656Y2645795D1*
X1418484Y2640584D1*
X1410584Y2636559D1*
X1402152Y2633819D1*
X1393395Y2632432D1*
X1384530D1*
X1375773Y2633819D1*
X1367341Y2636559D1*
X1359441Y2640584D1*
X1352269Y2645795D1*
X1346000Y2652064D1*
X1340788Y2659237D1*
X1336763Y2667136D1*
X1334024Y2675568D1*
X1332637Y2684325D1*
Y2693191D1*
X1334024Y2701947D1*
X1336763Y2710379D1*
X1340788Y2718279D1*
X1346000Y2725452D1*
X1352269Y2731721D1*
X1359441Y2736932D1*
X1367341Y2740957D1*
X1375773Y2743697D1*
X1384530Y2745084D1*
X1393395D1*
X1402152Y2743697D1*
X1410584Y2740957D1*
X1418484Y2736932D1*
X1425656Y2731721D1*
X1431925Y2725452D1*
X1437137Y2718279D1*
X1441162Y2710379D1*
X1443901Y2701947D1*
X1445288Y2693191D1*
Y2684325D1*
X3014039Y3021825D2*
X3012652Y3013068D1*
X3009912Y3004636D1*
X3005887Y2996737D1*
X3000676Y2989564D1*
X2994407Y2983295D1*
X2987234Y2978084D1*
X2979335Y2974059D1*
X2970903Y2971319D1*
X2962146Y2969932D1*
X2953280D1*
X2944523Y2971319D1*
X2936092Y2974059D1*
X2928192Y2978084D1*
X2921019Y2983295D1*
X2914750Y2989564D1*
X2909539Y2996737D1*
X2905514Y3004636D1*
X2902774Y3013068D1*
X2901387Y3021825D1*
Y3030691D1*
X2902774Y3039447D1*
X2905514Y3047879D1*
X2909539Y3055779D1*
X2914750Y3062952D1*
X2921019Y3069221D1*
X2928192Y3074432D1*
X2936092Y3078457D1*
X2944523Y3081197D1*
X2953280Y3082584D1*
X2962146D1*
X2970903Y3081197D1*
X2979335Y3078457D1*
X2987234Y3074432D1*
X2994407Y3069221D1*
X3000676Y3062952D1*
X3005887Y3055779D1*
X3009912Y3047879D1*
X3012652Y3039447D1*
X3014039Y3030691D1*
Y3021825D1*
Y2778075D2*
X3012652Y2769319D1*
X3009912Y2760887D1*
X3005887Y2752987D1*
X3000676Y2745815D1*
X2994407Y2739545D1*
X2987234Y2734334D1*
X2979335Y2730309D1*
X2970903Y2727569D1*
X2962146Y2726183D1*
X2953280D1*
X2944523Y2727569D1*
X2936092Y2730309D1*
X2928192Y2734334D1*
X2921019Y2739545D1*
X2914750Y2745815D1*
X2909539Y2752987D1*
X2905514Y2760887D1*
X2902774Y2769319D1*
X2901387Y2778075D1*
Y2786941D1*
X2902774Y2795698D1*
X2905514Y2804130D1*
X2909539Y2812030D1*
X2914750Y2819202D1*
X2921019Y2825471D1*
X2928192Y2830683D1*
X2936092Y2834708D1*
X2944523Y2837447D1*
X2953280Y2838834D1*
X2962146D1*
X2970903Y2837447D1*
X2979335Y2834708D1*
X2987234Y2830683D1*
X2994407Y2825471D1*
X3000676Y2819202D1*
X3005887Y2812030D1*
X3009912Y2804130D1*
X3012652Y2795698D1*
X3014039Y2786941D1*
Y2778075D1*
Y2534325D2*
X3012652Y2525568D1*
X3009912Y2517136D1*
X3005887Y2509237D1*
X3000676Y2502064D1*
X2994407Y2495795D1*
X2987234Y2490584D1*
X2979335Y2486559D1*
X2970903Y2483819D1*
X2962146Y2482432D1*
X2953280D1*
X2944523Y2483819D1*
X2936092Y2486559D1*
X2928192Y2490584D1*
X2921019Y2495795D1*
X2914750Y2502064D1*
X2909539Y2509237D1*
X2905514Y2517136D1*
X2902774Y2525568D1*
X2901387Y2534325D1*
Y2543191D1*
X2902774Y2551947D1*
X2905514Y2560379D1*
X2909539Y2568279D1*
X2914750Y2575452D1*
X2921019Y2581721D1*
X2928192Y2586932D1*
X2936092Y2590957D1*
X2944523Y2593697D1*
X2953280Y2595084D1*
X2962146D1*
X2970903Y2593697D1*
X2979335Y2590957D1*
X2987234Y2586932D1*
X2994407Y2581721D1*
X3000676Y2575452D1*
X3005887Y2568279D1*
X3009912Y2560379D1*
X3012652Y2551947D1*
X3014039Y2543191D1*
Y2534325D1*
X3014038Y1978075D2*
X3012651Y1969319D1*
X3009911Y1960887D1*
X3005886Y1952987D1*
X3000675Y1945815D1*
X2994406Y1939545D1*
X2987233Y1934334D1*
X2979333Y1930309D1*
X2970901Y1927569D1*
X2962145Y1926183D1*
X2953279D1*
X2944522Y1927569D1*
X2936090Y1930309D1*
X2928191Y1934334D1*
X2921018Y1939545D1*
X2914749Y1945815D1*
X2909538Y1952987D1*
X2905513Y1960887D1*
X2902773Y1969319D1*
X2901386Y1978075D1*
Y1986941D1*
X2902773Y1995698D1*
X2905513Y2004130D1*
X2909538Y2012030D1*
X2914749Y2019202D1*
X2921018Y2025471D1*
X2928191Y2030683D1*
X2936090Y2034708D1*
X2944522Y2037447D1*
X2953279Y2038834D1*
X2962145D1*
X2970901Y2037447D1*
X2979333Y2034708D1*
X2987233Y2030683D1*
X2994406Y2025471D1*
X3000675Y2019202D1*
X3005886Y2012030D1*
X3009911Y2004130D1*
X3012651Y1995698D1*
X3014038Y1986941D1*
Y1978075D1*
X3014039Y1746825D2*
X3012652Y1738068D1*
X3009912Y1729636D1*
X3005887Y1721737D1*
X3000676Y1714564D1*
X2994407Y1708295D1*
X2987234Y1703084D1*
X2979335Y1699059D1*
X2970903Y1696319D1*
X2962146Y1694932D1*
X2953280D1*
X2944523Y1696319D1*
X2936092Y1699059D1*
X2928192Y1703084D1*
X2921019Y1708295D1*
X2914750Y1714564D1*
X2909539Y1721737D1*
X2905514Y1729636D1*
X2902774Y1738068D1*
X2901387Y1746825D1*
Y1755691D1*
X2902774Y1764447D1*
X2905514Y1772879D1*
X2909539Y1780779D1*
X2914750Y1787952D1*
X2921019Y1794221D1*
X2928192Y1799432D1*
X2936092Y1803457D1*
X2944523Y1806197D1*
X2953280Y1807584D1*
X2962146D1*
X2970903Y1806197D1*
X2979335Y1803457D1*
X2987234Y1799432D1*
X2994407Y1794221D1*
X3000676Y1787952D1*
X3005887Y1780779D1*
X3009912Y1772879D1*
X3012652Y1764447D1*
X3014039Y1755691D1*
Y1746825D1*
Y1509325D2*
X3012652Y1500568D1*
X3009912Y1492136D1*
X3005887Y1484237D1*
X3000676Y1477064D1*
X2994407Y1470795D1*
X2987234Y1465584D1*
X2979335Y1461559D1*
X2970903Y1458819D1*
X2962146Y1457432D1*
X2953280D1*
X2944523Y1458819D1*
X2936092Y1461559D1*
X2928192Y1465584D1*
X2921019Y1470795D1*
X2914750Y1477064D1*
X2909539Y1484237D1*
X2905514Y1492136D1*
X2902774Y1500568D1*
X2901387Y1509325D1*
Y1518191D1*
X2902774Y1526947D1*
X2905514Y1535379D1*
X2909539Y1543279D1*
X2914750Y1550452D1*
X2921019Y1556721D1*
X2928192Y1561932D1*
X2936092Y1565957D1*
X2944523Y1568697D1*
X2953280Y1570084D1*
X2962146D1*
X2970903Y1568697D1*
X2979335Y1565957D1*
X2987234Y1561932D1*
X2994407Y1556721D1*
X3000676Y1550452D1*
X3005887Y1543279D1*
X3009912Y1535379D1*
X3012652Y1526947D1*
X3014039Y1518191D1*
Y1509325D1*
X2989039Y1009326D2*
X2987652Y1000569D1*
X2984912Y992137D1*
X2980887Y984238D1*
X2975676Y977065D1*
X2969407Y970796D1*
X2962234Y965585D1*
X2954335Y961560D1*
X2945903Y958820D1*
X2937146Y957433D1*
X2928280D1*
X2919523Y958820D1*
X2911092Y961560D1*
X2903192Y965585D1*
X2896019Y970796D1*
X2889750Y977065D1*
X2884539Y984238D1*
X2880514Y992137D1*
X2877774Y1000569D1*
X2876387Y1009326D1*
Y1018192D1*
X2877774Y1026949D1*
X2880514Y1035381D1*
X2884539Y1043280D1*
X2889750Y1050453D1*
X2896019Y1056722D1*
X2903192Y1061933D1*
X2911092Y1065958D1*
X2919523Y1068698D1*
X2928280Y1070085D1*
X2937146D1*
X2945903Y1068698D1*
X2954335Y1065958D1*
X2962234Y1061933D1*
X2969407Y1056722D1*
X2975676Y1050453D1*
X2980887Y1043280D1*
X2984912Y1035381D1*
X2987652Y1026949D1*
X2989039Y1018192D1*
Y1009326D1*
X2989038Y759326D2*
X2987651Y750569D1*
X2984911Y742137D1*
X2980886Y734238D1*
X2975675Y727065D1*
X2969406Y720796D1*
X2962233Y715585D1*
X2954333Y711560D1*
X2945901Y708820D1*
X2937145Y707433D1*
X2928279D1*
X2919522Y708820D1*
X2911090Y711560D1*
X2903191Y715585D1*
X2896018Y720796D1*
X2889749Y727065D1*
X2884538Y734238D1*
X2880513Y742137D1*
X2877773Y750569D1*
X2876386Y759326D1*
Y768192D1*
X2877773Y776949D1*
X2880513Y785381D1*
X2884538Y793280D1*
X2889749Y800453D1*
X2896018Y806722D1*
X2903191Y811933D1*
X2911090Y815958D1*
X2919522Y818698D1*
X2928279Y820085D1*
X2937145D1*
X2945901Y818698D1*
X2954333Y815958D1*
X2962233Y811933D1*
X2969406Y806722D1*
X2975675Y800453D1*
X2980886Y793280D1*
X2984911Y785381D1*
X2987651Y776949D1*
X2989038Y768192D1*
Y759326D1*
X3914723Y2770507D2*
X3913672Y2761383D1*
X3911928Y2752366D1*
X3909501Y2743509D1*
X3906404Y2734862D1*
X3902656Y2726478D1*
X3898279Y2718404D1*
X3893299Y2710687D1*
X3887743Y2703374D1*
X3881646Y2696506D1*
X3875042Y2690123D1*
X3867970Y2684264D1*
X3860471Y2678961D1*
X3852589Y2674247D1*
X3844371Y2670148D1*
X3835863Y2666689D1*
X3827116Y2663889D1*
X3818181Y2661765D1*
X3809110Y2660330D1*
X3799955Y2659591D1*
X3790771Y2659553D1*
X3781611Y2660217D1*
X3772528Y2661579D1*
X3763576Y2663629D1*
X3754807Y2666358D1*
X3746271Y2669747D1*
X3738019Y2673779D1*
X3730099Y2678429D1*
X3722557Y2683670D1*
X3715438Y2689472D1*
X3708782Y2695800D1*
X3702628Y2702618D1*
X3697014Y2709886D1*
X3691970Y2717561D1*
X3687527Y2725599D1*
X3683711Y2733953D1*
X3680544Y2742574D1*
X3678044Y2751411D1*
X3676227Y2760414D1*
X3675102Y2769529D1*
X3674676Y2778703D1*
X3674952Y2787883D1*
X3675928Y2797015D1*
X3677598Y2806046D1*
X3679953Y2814923D1*
X3682979Y2823594D1*
X3686658Y2832009D1*
X3690969Y2840119D1*
X3695887Y2847875D1*
X3701382Y2855234D1*
X3707423Y2862151D1*
X3713975Y2868588D1*
X3720999Y2874505D1*
X3728454Y2879868D1*
X3736297Y2884647D1*
X3744482Y2888813D1*
X3752961Y2892342D1*
X3761685Y2895213D1*
X3770603Y2897409D1*
X3779662Y2898919D1*
X3788810Y2899732D1*
X3797993Y2899845D1*
X3807159Y2899256D1*
X3816252Y2897968D1*
X3825221Y2895991D1*
X3834012Y2893334D1*
X3842575Y2890014D1*
X3850860Y2886050D1*
X3858817Y2881465D1*
X3866402Y2876286D1*
X3873569Y2870542D1*
X3880276Y2864269D1*
X3886485Y2857501D1*
X3892159Y2850279D1*
X3897265Y2842645D1*
X3901773Y2834644D1*
X3905657Y2826322D1*
X3908895Y2817727D1*
X3911466Y2808910D1*
X3913357Y2799923D1*
X3914557Y2790818D1*
X3915074Y2779684D1*
X3914723Y2770507D1*
Y918066D2*
X3913672Y908942D1*
X3911928Y899925D1*
X3909501Y891068D1*
X3906404Y882421D1*
X3902656Y874037D1*
X3898279Y865963D1*
X3893299Y858246D1*
X3887743Y850933D1*
X3881646Y844065D1*
X3875042Y837682D1*
X3867970Y831823D1*
X3860471Y826520D1*
X3852589Y821806D1*
X3844371Y817707D1*
X3835863Y814248D1*
X3827116Y811448D1*
X3818181Y809324D1*
X3809110Y807889D1*
X3799955Y807150D1*
X3790771Y807113D1*
X3781611Y807776D1*
X3772528Y809138D1*
X3763576Y811188D1*
X3754807Y813917D1*
X3746271Y817307D1*
X3738019Y821338D1*
X3730099Y825988D1*
X3722557Y831229D1*
X3715438Y837031D1*
X3708782Y843359D1*
X3702628Y850177D1*
X3697014Y857445D1*
X3691970Y865120D1*
X3687527Y873158D1*
X3683711Y881512D1*
X3680544Y890133D1*
X3678044Y898970D1*
X3676227Y907973D1*
X3675102Y917088D1*
X3674676Y926262D1*
X3674952Y935442D1*
X3675928Y944574D1*
X3677598Y953605D1*
X3679953Y962482D1*
X3682979Y971153D1*
X3686658Y979568D1*
X3690969Y987678D1*
X3695887Y995434D1*
X3701382Y1002793D1*
X3707423Y1009710D1*
X3713975Y1016147D1*
X3720999Y1022064D1*
X3728454Y1027427D1*
X3736297Y1032206D1*
X3744482Y1036372D1*
X3752961Y1039901D1*
X3761685Y1042772D1*
X3770603Y1044968D1*
X3779662Y1046478D1*
X3788810Y1047291D1*
X3797993Y1047404D1*
X3807159Y1046815D1*
X3816252Y1045528D1*
X3825221Y1043550D1*
X3834012Y1040893D1*
X3842575Y1037573D1*
X3850860Y1033609D1*
X3858817Y1029024D1*
X3866402Y1023845D1*
X3873569Y1018101D1*
X3880276Y1011828D1*
X3886485Y1005060D1*
X3892159Y997838D1*
X3897265Y990205D1*
X3901773Y982203D1*
X3905657Y973881D1*
X3908895Y965286D1*
X3911466Y956469D1*
X3913357Y947482D1*
X3914557Y938377D1*
X3915074Y927243D1*
X3914723Y918066D1*
X1702596Y3185907D2*
X1706329D1*
X1820986Y3300413D1*
X1816453Y3301008D1*
X1587189D1*
X1596258Y3292233D1*
X1702550Y3185941D1*
X2193965Y2171888D2*
X2192823Y2164681D1*
X2190569Y2157741D1*
X2187256Y2151240D1*
X2182967Y2145337D1*
X2177807Y2140177D1*
X2171904Y2135888D1*
X2165403Y2132576D1*
X2158463Y2130321D1*
X2151256Y2129179D1*
X2143960D1*
X2136753Y2130321D1*
X2129813Y2132576D1*
X2123312Y2135888D1*
X2117409Y2140177D1*
X2112249Y2145337D1*
X2107960Y2151240D1*
X2104648Y2157741D1*
X2102393Y2164681D1*
X2101251Y2171888D1*
Y2179184D1*
X2102393Y2186391D1*
X2104648Y2193331D1*
X2107960Y2199832D1*
X2112249Y2205735D1*
X2117409Y2210895D1*
X2123312Y2215184D1*
X2129813Y2218496D1*
X2131272Y2219034D1*
X2015088Y2219036D1*
X2015027Y2046038D1*
X2014734Y2043573D1*
X2019844Y2047257D1*
X2045997Y2073272D1*
X2049996Y2076178D1*
X2054400Y2078422D1*
X2059101Y2079949D1*
X2063983Y2080722D1*
X2113427Y2080820D1*
X2117409Y2084678D1*
X2123312Y2088967D1*
X2129813Y2092280D1*
X2136753Y2094535D1*
X2143960Y2095676D1*
X2149475Y2095746D1*
X2231575Y2177834D1*
X2231389Y2219625D1*
X2229498Y2215058D1*
X2226915Y2210843D1*
X2223705Y2207085D1*
X2194094Y2177473D1*
X2193965Y2171888D1*
X1741764Y1028140D2*
X1740623Y1020933D1*
X1738368Y1013993D1*
X1735055Y1007492D1*
X1730766Y1001589D1*
X1725607Y996429D1*
X1719704Y992140D1*
X1713202Y988828D1*
X1706263Y986573D1*
X1699056Y985431D1*
X1691759D1*
X1684552Y986573D1*
X1677613Y988828D1*
X1673712Y990684D1*
X1673711Y877618D1*
X1765360Y785840D1*
X1768266Y781841D1*
X1770510Y777437D1*
X1772037Y772736D1*
X1772810Y767854D1*
X1772907Y729247D1*
X1776766Y725208D1*
X1781055Y719305D1*
X1781815Y717948D1*
X1781914Y1103141D1*
X1782687Y1108023D1*
X1784215Y1112724D1*
X1786459Y1117129D1*
X1789364Y1121127D1*
X1792859Y1124623D1*
X1796858Y1127528D1*
X1801262Y1129772D1*
X1805963Y1131300D1*
X1810845Y1132073D1*
X1818416Y1132170D1*
X1818189Y1145195D1*
Y1231496D1*
X1816045Y1225025D1*
X1812732Y1218523D1*
X1808443Y1212620D1*
X1803284Y1207461D1*
X1797381Y1203172D1*
X1790879Y1199859D1*
X1783940Y1197604D1*
X1776733Y1196463D1*
X1769436D1*
X1762229Y1197604D1*
X1755290Y1199859D1*
X1748788Y1203172D1*
X1742885Y1207461D1*
X1737726Y1212620D1*
X1733437Y1218523D1*
X1730124Y1225025D1*
X1727869Y1231964D1*
X1726907Y1237656D1*
Y1065966D1*
X1730766Y1061987D1*
X1735055Y1056084D1*
X1738368Y1049583D1*
X1740623Y1042643D1*
X1741764Y1035436D1*
Y1028140D1*
X1726907Y1247983D2*
X1727869Y1253675D1*
X1730124Y1260614D1*
X1733437Y1267116D1*
X1737726Y1273019D1*
X1741576Y1276968D1*
X1737819Y1283053D1*
X1726883Y1293989D1*
X1726907Y1248257D1*
X2193965Y2045671D2*
X2192823Y2038464D1*
X2190569Y2031525D1*
X2187256Y2025023D1*
X2182967Y2019120D1*
X2177807Y2013961D1*
X2171904Y2009672D1*
X2165403Y2006359D1*
X2158463Y2004104D1*
X2151256Y2002963D1*
X2143960D1*
X2136753Y2004104D1*
X2129813Y2006359D1*
X2123312Y2009672D1*
X2117409Y2013961D1*
X2113459Y2017811D1*
X2079536Y2017819D1*
X2072210Y2010527D1*
X2077220Y2012969D1*
X2084160Y2015224D1*
X2091367Y2016365D1*
X2098663D1*
X2105870Y2015224D1*
X2112810Y2012969D1*
X2119311Y2009656D1*
X2125214Y2005367D1*
X2130374Y2000208D1*
X2134663Y1994305D1*
X2137975Y1987803D1*
X2140230Y1980864D1*
X2141372Y1973657D1*
Y1966360D1*
X2140230Y1959153D1*
X2137975Y1952214D1*
X2134663Y1945712D1*
X2130374Y1939809D1*
X2129628Y1939003D1*
X2134728Y1940389D1*
X2140276Y1945128D1*
X2146498Y1948940D1*
X2153239Y1951733D1*
X2160334Y1953436D1*
X2167608Y1954008D1*
X2169475Y1953935D1*
X2247566Y2032014D1*
X2247577Y2104776D1*
X2194079Y2051243D1*
X2193965Y2045671D1*
X2076665Y1064760D2*
X2076333Y1070008D1*
X2076756Y1076022D1*
X2070722Y1078577D1*
X2064501Y1082389D1*
X2058952Y1087128D1*
X2057684Y1088500D1*
X2031224Y1088508D1*
X2054952Y1064763D1*
X2076607Y1064760D1*
X2029981Y2292888D2*
X2028839Y2285681D1*
X2027804Y2282046D1*
X2136239Y2282036D1*
X2140232Y2285895D1*
X2146135Y2290184D1*
X2152636Y2293496D1*
X2159576Y2295751D1*
X2166783Y2296893D1*
X2169932Y2297016D1*
X2169931Y2598499D1*
X2162741Y2599081D1*
X2156785Y2600463D1*
X2156683Y2498831D1*
X2155910Y2493949D1*
X2154382Y2489248D1*
X2152138Y2484844D1*
X2149233Y2480845D1*
X2102084Y2433558D1*
X2033955Y2365429D1*
X2033843Y2359860D1*
X2032701Y2352653D1*
X2030446Y2345714D1*
X2027134Y2339212D1*
X2022845Y2333309D1*
X2017696Y2328159D1*
X2021243Y2323868D1*
X2025056Y2317647D1*
X2027848Y2310905D1*
X2029551Y2303810D1*
X2030124Y2296536D1*
X2029981Y2292888D1*
X1442718Y2089155D2*
X1441084Y2090706D1*
X1441089Y1801463D1*
X1442718Y1803000D1*
X1442726Y2089117D1*
X1656829Y805406D2*
X1655435Y799864D1*
X1652642Y793122D1*
X1648830Y786901D1*
X1644091Y781352D1*
X1638543Y776614D1*
X1632321Y772801D1*
X1631531Y772437D1*
X1693498Y710469D1*
X1697531Y710429D1*
X1699976Y716119D1*
X1703788Y722340D1*
X1708527Y727889D1*
X1709899Y729157D1*
X1709907Y752315D1*
X1656840Y805402D1*
X1895410Y2568456D2*
Y2572190D1*
X1883510Y2584240D1*
X1880604Y2588239D1*
X1878360Y2592643D1*
X1876831Y2597353D1*
X1876515Y2581459D1*
Y2541807D1*
X1878360Y2548004D1*
X1880604Y2552408D1*
X1883510Y2556407D1*
X1895363Y2568398D1*
X1284975Y1883464D2*
X1281230Y1887317D1*
X1276941Y1893220D1*
X1273628Y1899721D1*
X1271373Y1906661D1*
X1270232Y1913868D1*
X1270162Y1919383D1*
X1263759Y1920473D1*
X1230566D1*
X1231855Y1914783D1*
X1232427Y1907508D1*
X1231855Y1900234D1*
X1230151Y1893139D1*
X1227359Y1886398D1*
X1225721Y1883474D1*
X1284903Y1883473D1*
X2213965Y1903860D2*
X2212823Y1896653D1*
X2211314Y1891734D1*
X2213989Y1889017D1*
X2269013Y1889008D1*
X2282411Y1902390D1*
X2280118Y1907774D1*
X2278964Y1912581D1*
X2278577Y1917508D1*
Y1973954D1*
X2214089Y1909442D1*
X2213965Y1903860D1*
X2257940Y745251D2*
X2258503Y752283D1*
X2260207Y759378D1*
X2262999Y766119D1*
X2266812Y772340D1*
X2271551Y777889D1*
X2272922Y779157D1*
X2273028Y828732D1*
X2273801Y833614D1*
X2275329Y838315D1*
X2277573Y842719D1*
X2280478Y846718D1*
X2290860Y857238D1*
X2219168Y857258D1*
X2218614Y850482D1*
X2216911Y843387D1*
X2214119Y836646D1*
X2210306Y830424D1*
X2205567Y824876D1*
X2204195Y823608D1*
X2204187Y745260D1*
X2257907Y745258D1*
X1801720Y2441657D2*
X1805571Y2437708D1*
X1809860Y2431805D1*
X1813172Y2425303D1*
X1813513Y2424380D1*
X1813515Y2648271D1*
X1809656Y2652309D1*
X1807616Y2654896D1*
X1803094Y2649628D1*
X1801722Y2648360D1*
X1801712Y2441689D1*
X2152564Y1161433D2*
X2159318Y1164233D1*
X2166413Y1165936D1*
X2173687Y1166508D1*
X2175554Y1166435D1*
X2216396Y1207265D1*
X2111134Y1207258D1*
X2146785Y1171466D1*
X2149691Y1167467D1*
X2151938Y1163054D1*
X1926501Y2064010D2*
X1952122D1*
X1952124Y2237512D1*
X1938945Y2250667D1*
X1938865Y2087041D1*
X1938092Y2082159D1*
X1936565Y2077458D1*
X1934321Y2073054D1*
X1931415Y2069055D1*
X1929729Y2067232D1*
X2718552Y2804502D2*
X2728545Y2794372D1*
X845212Y1332508D2*
D14*
Y1272777D1*
X785480Y1332508D2*
X904944D1*
X1126461Y1807508D2*
Y1747580D1*
Y1807508D2*
X1186390D1*
X3851462Y3387122D2*
Y3227895D1*
X3771849Y3307508D2*
X3931076D1*
X3851462Y3187122D2*
Y3027895D1*
X3771849Y3107508D2*
X3931076D1*
X4051462Y3187122D2*
Y3027895D1*
X3971849Y3107508D2*
X4051462D1*
Y3387122D2*
Y3227895D1*
X3971849Y3307508D2*
X4051462D1*
X1107712Y3724622D2*
Y3565395D1*
X1028098Y3645008D2*
X1107712D1*
X1307712Y3724622D2*
Y3565395D1*
Y3645008D2*
X1387326D1*
X1307712Y3845008D2*
Y3765395D1*
X1228098Y3845008D2*
X1387326D1*
X1107712D2*
Y3765395D1*
X1028098Y3845008D2*
X1187326D1*
X2045163Y3638973D2*
Y3526044D1*
X1988699Y3582508D2*
X2101627D1*
X863962Y3588973D2*
Y3476044D1*
X807498Y3532508D2*
X920427D1*
X3670212Y3595223D2*
Y3482295D1*
X3613748Y3538759D2*
X3726676D1*
X707713Y3168371D2*
Y3009144D1*
X628099Y3088758D2*
X787327D1*
X707713Y3368371D2*
Y3209144D1*
X628099Y3288758D2*
X787327D1*
X507713Y3368371D2*
Y3209144D1*
Y3288758D2*
X587327D1*
X507713Y3168371D2*
Y3009144D1*
Y3088758D2*
X587327D1*
X1282713Y799622D2*
Y720008D1*
X1203099D2*
X1282713D1*
X1082713Y799622D2*
Y640395D1*
X1003099Y720008D2*
X1162327D1*
X1082713Y599622D2*
Y440395D1*
X1003099Y520008D2*
X1162327D1*
X1282713D2*
Y440395D1*
X1203099Y520008D2*
X1362327D1*
X3791046Y1907821D2*
X3910510D1*
D18*
X3851462Y3307508D3*
Y3107508D3*
X4051462D3*
Y3307508D3*
D19*
X3951462Y3207508D3*
D18*
X1282713Y720008D3*
X1082713D3*
Y520008D3*
X1282713D3*
D19*
X1182713Y620008D3*
D20*
X845212Y1332508D3*
D21*
Y1441564D3*
Y1550619D3*
Y1659674D3*
Y1768729D3*
X733401Y1387036D3*
Y1496091D3*
Y1605146D3*
Y1714201D3*
D22*
X789307Y1058690D3*
Y2042548D3*
D23*
X1026461Y2007508D3*
D24*
X1126461D3*
X1026461Y1907508D3*
X1126461D3*
X1026461Y1807508D3*
X1126461D3*
D20*
X3738967Y1201259D3*
D21*
Y1309960D3*
Y1418661D3*
Y1527361D3*
Y1636062D3*
Y1744763D3*
Y1853464D3*
Y1962165D3*
Y2070865D3*
Y2179566D3*
Y2288267D3*
Y2396968D3*
Y2505669D3*
X3850778Y1255616D3*
Y1364317D3*
Y1473018D3*
Y1581718D3*
Y1690419D3*
Y1799120D3*
Y1907821D3*
Y2016522D3*
Y2125222D3*
Y2233923D3*
Y2342624D3*
Y2451325D3*
D22*
X3794873Y2779684D3*
Y927243D3*
D18*
X1107712Y3645008D3*
X1307712D3*
Y3845008D3*
X1107712D3*
D19*
X1207712Y3745008D3*
D18*
X707713Y3088758D3*
Y3288758D3*
X507713D3*
Y3088758D3*
D19*
X607713Y3188758D3*
D25*
X2676461Y2876258D3*
D26*
X2538666D3*
X2400871D3*
X2263075D3*
X2125280D3*
X1987485D3*
X1849690D3*
X1711894D3*
D25*
X2676461Y1613758D3*
D26*
X2538666D3*
X2400871D3*
X2263075D3*
X2125280D3*
X1987485D3*
X1849690D3*
X1711894D3*
D27*
X2638962Y3107508D3*
X3388913Y3420008D3*
X3163913Y3232508D3*
X2588962Y1932508D3*
X2045163Y3582508D3*
X863962Y3532508D3*
X3670212Y3538759D3*
X1149680Y3107508D3*
X1295163Y3101258D3*
X2307712D3*
X2782713Y3107508D3*
X1776462Y3101258D3*
X1062180Y3107508D3*
X2588962Y2020008D3*
Y2107508D3*
Y2195008D3*
Y2282508D3*
Y2370008D3*
Y2451258D3*
Y2538758D3*
X2363961Y713758D3*
X1782713Y1945010D3*
X2363961Y801258D3*
Y888758D3*
Y976258D3*
Y1063758D3*
Y1151258D3*
Y1238758D3*
Y1326258D3*
X1301461Y2520008D3*
X1782713Y2032510D3*
Y2120008D3*
Y2207508D3*
X1570210Y1545008D3*
Y1457508D3*
Y1370008D3*
Y1282508D3*
X1388962Y2688758D3*
X1688962Y2726259D3*
X2957713Y3026258D3*
Y2782508D3*
Y2538758D3*
X2957712Y1982508D3*
X2957713Y1751258D3*
Y1513758D3*
X2932713Y1263759D3*
Y1013759D3*
X2932712Y763759D3*
D32*
X1082712Y2270008D3*
Y2460008D3*
M02*
