G04 DipTrace 3.3.1.3*
G04 Top.gbr*
%MOIN*%
G04 #@! TF.FileFunction,Copper,L1,Top*
G04 #@! TF.Part,Single*
G04 #@! TA.AperFunction,Conductor*
%ADD12C,0.01*%
G04 #@! TA.AperFunction,CopperBalancing*
%ADD13C,0.025*%
%ADD14C,0.013*%
%ADD15R,0.059055X0.051181*%
%ADD16R,0.051181X0.059055*%
%ADD17R,0.070866X0.062992*%
G04 #@! TA.AperFunction,ComponentPad*
%ADD18C,0.106299*%
%ADD19C,0.098425*%
%ADD20R,0.066535X0.066535*%
%ADD21C,0.066535*%
%ADD22C,0.187402*%
%ADD23R,0.066929X0.066929*%
%ADD24C,0.066929*%
%ADD25R,0.090551X0.090551*%
%ADD26C,0.090551*%
%ADD27C,0.06*%
%ADD28R,0.07874X0.023622*%
%ADD30R,0.019685X0.066929*%
%ADD31R,0.066929X0.019685*%
G04 #@! TA.AperFunction,ComponentPad*
%ADD32C,0.048*%
G04 #@! TA.AperFunction,ViaPad*
%ADD33C,0.04*%
%FSLAX26Y26*%
G04*
G70*
G90*
G75*
G01*
G04 Top*
%LPD*%
X1670163Y3488955D2*
D12*
Y3482508D1*
X1738913D1*
Y3488955D1*
X2601512Y3376258D2*
X2570213D1*
X2550714Y3395756D1*
Y3463011D1*
X2576560Y3488856D1*
X2603098D1*
X1738913Y3488955D2*
X2070788D1*
X2094892Y3464851D1*
X2151364D1*
Y3507607D1*
X3145213Y3488955D2*
Y3392260D1*
X3129210Y3376258D1*
X3070262D1*
X3738967Y1527361D2*
X3663246D1*
X3662142Y1526258D1*
X3576266D1*
X3145213Y3488955D2*
X3617012D1*
X3623210Y3482756D1*
X3071847Y3488856D2*
X3145213Y3488955D1*
X2670212D2*
X3071847Y3488856D1*
X2603098D2*
X2670212Y3488955D1*
X2226462Y3507705D2*
Y3525447D1*
X2583524D1*
X2603098Y3505873D1*
Y3488856D1*
X2151364Y3507607D2*
X2226462Y3507705D1*
X2094892Y3464851D2*
X2078892Y3448851D1*
Y3398508D1*
X2094892Y3382508D1*
X2145262D1*
X1226461Y2520008D2*
X1301461D1*
X1226462Y2607508D2*
X1226461Y2520008D1*
X1670212Y3376258D2*
X1601462D1*
X1569258Y3344053D1*
Y3044256D1*
X1226462Y2701461D1*
Y2607508D1*
X1738913Y3488955D2*
X1723435D1*
Y3376258D1*
X1670212D1*
X2255462Y3433851D2*
X2232712Y3411100D1*
Y3351258D1*
X1307712Y3645008D2*
X1388962Y3563758D1*
X1670163D1*
X1406728Y2188758D2*
Y2233225D1*
X1469720D1*
X1485003Y2248508D1*
X1604490D1*
Y2264508D1*
Y2368276D1*
X1563962D1*
X2245212Y2057508D2*
X2295585D1*
Y1980319D1*
X2147608D1*
X2131608Y1964319D1*
Y1841016D1*
X2115608Y1825016D1*
X2151867Y1788758D1*
X2320212D1*
X2091833Y845008D2*
X2026462D1*
X2238913Y2482508D2*
X2171431D1*
X2155431Y2498508D1*
Y2539319D1*
X2139431Y2555319D1*
X2041557D1*
X2025557Y2571319D1*
Y2591508D1*
Y2629008D1*
X2041557Y2645008D1*
X2095212D1*
X2025557Y2591508D2*
X2009557Y2607508D1*
X1770212D1*
X3339159Y1420008D2*
X3338962Y1526258D1*
X1995212Y513759D2*
X2030613D1*
X2036864Y507508D1*
X2101462D1*
X4051462Y3107508D2*
X3851462D1*
X1107712Y3645008D2*
X976462D1*
X863962Y3532508D1*
X2251462Y1432508D2*
Y1501259D1*
X2115608Y1825016D2*
X1892462D1*
X1876462Y1841016D1*
X1857360D1*
X1825364Y1809020D1*
X1438224D1*
Y1858049D1*
X1913764Y770008D2*
Y838758D1*
X839158Y2457508D2*
Y2270008D1*
X1876462Y1841016D2*
Y1970008D1*
X1457613Y3326258D2*
X1420213D1*
X1395213Y3351258D1*
X1363913D1*
X1469720Y2233225D2*
Y2188758D1*
X2463962Y2651259D2*
X2500553D1*
Y2760536D1*
X2794451D1*
X2898191Y2656796D1*
X3038962D1*
Y2395571D1*
Y2338758D1*
Y2288758D1*
X2951561D1*
X1763962Y3359241D2*
Y3409099D1*
X1838962D1*
X1876462Y2195008D2*
X1839714D1*
X1823714Y2211008D1*
Y2232508D1*
X1791714Y2264508D1*
X1604490D1*
X3338962Y1638759D2*
Y1827729D1*
X3285474Y1881217D1*
X3030323Y2136369D1*
X3038962Y2127729D1*
Y2188758D1*
X2951561D1*
X2101462Y507508D2*
Y576259D1*
X2103196D1*
X3030323Y2136369D2*
Y2138758D1*
X2951561D1*
X3038962Y2395571D2*
X3032149Y2388758D1*
X2951561D1*
X1601561Y2557508D2*
X1538962D1*
X1488962Y2507508D1*
Y2541508D1*
X1472962Y2557508D1*
X1395212D1*
Y2507508D1*
X1388962D1*
X1082713Y720008D2*
X1282713D1*
X1307712Y3845008D2*
X1107712D1*
X1488962Y2370008D2*
Y2507508D1*
X1581069D1*
X1601561D1*
X2301462Y3351258D2*
X2439285D1*
Y3326258D1*
X2388914D1*
X2232712Y3351258D2*
X2301462D1*
X3145213Y3563758D2*
X3579714D1*
X3604713Y3538759D1*
X3670212D1*
X3071847Y3563659D2*
X3145213Y3563758D1*
X2670212D2*
X2924801D1*
X2924899Y3563659D1*
X3071847D1*
X2603098D2*
X2670212Y3563758D1*
X2226462Y3582508D2*
X2603098D1*
Y3563659D1*
X2151364Y3582410D2*
X2226462Y3582508D1*
X2045163D2*
X2151364Y3582410D1*
X1738913Y3563758D2*
X1891566D1*
X1910317Y3582508D1*
X2045163D1*
X1670163Y3563758D2*
X1738913D1*
X707713Y3088758D2*
X507713D1*
X839158Y2457508D2*
X723714D1*
X707713Y2473510D1*
Y3088758D1*
X1226461Y2445205D2*
X1169931D1*
X1101100Y2514036D1*
X855158D1*
X839158Y2498036D1*
Y2457508D1*
X1345212Y2370008D2*
X1242462D1*
X1226461Y2386010D1*
Y2445205D1*
X1413961Y2368276D2*
Y2370008D1*
X1345212D1*
X1488962D2*
X1413961D1*
X1563962Y2368276D2*
Y2370008D1*
X1488962D1*
X1982712Y1445008D2*
Y1398835D1*
X1970683Y1386806D1*
Y1270008D1*
X2026462D1*
X1982909Y1513759D2*
X1982712Y1445008D1*
X2251462Y1501259D2*
Y1513759D1*
X1982909D1*
X2320212Y1720008D2*
Y1557788D1*
X2304212Y1541788D1*
X2251462D1*
Y1501259D1*
X2320212Y1788758D2*
Y1720008D1*
X1913961Y976259D2*
Y1016787D1*
X1897960Y1032788D1*
X1795305D1*
X1758085Y1070008D1*
X1707713D1*
X1913961Y907508D2*
Y976259D1*
X1913764Y838758D2*
X1913961Y907508D1*
X2026462Y845008D2*
X1913764D1*
Y838758D1*
X3038962Y2288758D2*
Y2238758D1*
X2951561D1*
X3038962Y2338758D2*
X2951561D1*
X2463962Y2720008D2*
Y2651259D1*
X2095212Y2720008D2*
X1950750D1*
Y2804288D1*
X2420210D1*
X2463962Y2760536D1*
Y2720008D1*
X2095212Y2645008D2*
Y2720008D1*
X1395212Y2557508D2*
X1388962D1*
X1770212Y2517745D2*
Y2523508D1*
X1651931D1*
Y2557508D1*
X1601561D1*
X1770212Y2607508D2*
Y2517745D1*
X3038962Y2288758D2*
Y2188758D1*
X3338962Y1526258D2*
Y1638759D1*
X2695312Y1101258D2*
X2701462D1*
Y1151258D1*
X2695312D1*
Y1051258D2*
X2701462D1*
Y1101258D1*
X2695312Y1001258D2*
X2701462D1*
Y1051258D1*
X2695312Y951258D2*
X2701462D1*
Y1001258D1*
X2695312Y901258D2*
X2701462D1*
Y951258D1*
X2101462Y507508D2*
Y470008D1*
X2126462Y445008D1*
X2590970D1*
X2628943Y482981D1*
Y866239D1*
X2663961Y901258D1*
X2695312D1*
X3851462Y3107508D2*
X3782712Y3176259D1*
X3388913D1*
X839158Y2270008D2*
X684604D1*
X668604Y2254008D1*
Y1348508D1*
X684604Y1332508D1*
X845212D1*
X1276461Y1702993D2*
Y1664928D1*
X1235935Y1624402D1*
X1345210Y1701260D2*
Y1702993D1*
X1276461D1*
X1823714Y2232508D2*
X1839714Y2248508D1*
X1876462D1*
Y2282508D1*
Y2120008D2*
Y2195008D1*
Y2045008D2*
Y2120008D1*
Y1970008D2*
Y2045008D1*
X1295163Y3351258D2*
Y3413759D1*
X1301462D1*
X1363913Y3351258D2*
X1295163D1*
X1838962Y3357508D2*
X1879490D1*
Y3332508D1*
X1932663D1*
X1838962Y3409099D2*
Y3357508D1*
X2770213Y3351258D2*
X2826464D1*
X2857663Y3320058D1*
Y3326258D1*
X2695312Y3351356D2*
X2770213Y3351258D1*
X2695313Y3433851D2*
X2695312Y3351356D1*
X1563962Y2368276D2*
D3*
X1851462Y2795008D2*
Y2801258D1*
X1863962Y2813758D1*
X1945257D1*
X1950750Y2808265D1*
Y2804288D1*
X3850778Y1907821D2*
X3312078D1*
X3285474Y1881217D1*
X1376414Y3201258D2*
X1294966D1*
X1295163Y3101258D1*
X3388913Y3251062D2*
X3463914Y3251258D1*
X3388814Y3326258D2*
X3388913Y3251062D1*
Y3420008D2*
X3388814Y3326258D1*
X1704462Y3139481D2*
X1718057D1*
X1738057Y3159481D1*
Y3235536D1*
X1763962D1*
X1838962D1*
Y3282705D1*
X3738967Y1418661D2*
X3663367D1*
X3662019Y1420008D1*
X3576266D1*
X1363913Y3276455D2*
X1436926D1*
X1437123Y3276258D1*
X1457613D1*
X2695312Y3276553D2*
X2770213Y3276455D1*
X1838962Y3282705D2*
X1911978D1*
X1912175Y3282508D1*
X1932663D1*
X1763962Y3235536D2*
Y3284438D1*
X2301462Y3276455D2*
X2368226D1*
X2368423Y3276258D1*
X2388914D1*
X2232712Y3276455D2*
X2301462D1*
X2770213D2*
X2836978D1*
X2837175Y3276258D1*
X2857663D1*
X2232712Y3276455D2*
D3*
X2695312Y3276553D2*
D3*
X1363913Y3276455D2*
D3*
X1295163D2*
D3*
X2145262Y3332508D2*
X2073671D1*
X2957713Y3026258D2*
Y2945008D1*
X2082516Y3126259D2*
Y3042260D1*
X2098519Y3026258D1*
X2957713D1*
X2080881Y3195008D2*
Y3126259D1*
X2082516D1*
X2073671Y3332508D2*
Y3285289D1*
X2080881Y3278079D1*
Y3195008D1*
X2857615D2*
Y3251536D1*
X2924829D1*
Y3360256D1*
X2908827Y3376258D1*
X2857663D1*
X2924829Y3251536D2*
X2945423D1*
X2961423Y3235536D1*
Y3195008D1*
X2924829D1*
Y3126258D1*
X2926462D1*
X1144966Y3201258D2*
X1181561D1*
X1220163D1*
Y3123510D1*
X1204162Y3107508D1*
X1149680D1*
X1857713Y3195008D2*
X1812860D1*
X1776266D1*
Y3147264D1*
X1817462D1*
Y3131258D1*
X1787462Y3101258D1*
X1776462D1*
X1378588Y2051973D2*
X1397263Y2070648D1*
X1587830D1*
X2536140Y3288449D2*
Y3310935D1*
X2551462Y3326258D1*
X2601512D1*
X2638962Y3107508D2*
Y3195008D1*
X2532516Y3126258D2*
X2569107D1*
X2587856Y3107508D1*
X2638962D1*
X2532516Y3195008D2*
Y3126258D1*
X2382516Y3195008D2*
X2457713D1*
Y3360256D1*
X2441712Y3376258D1*
X2388914D1*
X2457713Y3126258D2*
Y3195008D1*
X1932516D2*
Y3251536D1*
X1983033D1*
Y3382508D1*
X1932663D1*
X2006078Y3195008D2*
Y3235536D1*
X1990078Y3251536D1*
X1983033D1*
X2007713Y3126259D2*
X2006078D1*
Y3195008D1*
X1951266Y2195008D2*
X2020212D1*
X3090100Y3195008D2*
X2999632D1*
X3070262Y3326258D2*
X3163914D1*
X2999632Y3195008D2*
X3001266D1*
Y3126258D1*
X3163914Y3326258D2*
X3163913Y3232508D1*
X2232516Y3195008D2*
X2307713D1*
X2307712Y3101258D1*
X2782713Y3107508D2*
X2782812Y3195008D1*
Y3235536D1*
X2713766D1*
Y3195008D1*
X3314011Y3326258D2*
X3238717D1*
X1062180Y3107508D2*
Y3148508D1*
X1070163Y3156491D1*
Y3201258D1*
X717470D1*
X704970Y3188758D1*
X607713D1*
X1701462Y3195008D2*
X1650305D1*
X1644056Y3201258D1*
X1607466D1*
Y3126258D1*
Y3201258D2*
Y3307263D1*
X1626461Y3326258D1*
X1670212D1*
X1451217Y3201258D2*
X1487809D1*
X1532663D1*
Y3360256D1*
X1516662Y3376258D1*
X1457613D1*
X1532663Y3126258D2*
Y3201258D1*
X2957713Y1907508D2*
X2957712Y1982508D1*
X3017931Y2042728D1*
Y2095571D1*
X3001931Y2111571D1*
X2901191D1*
X2885191Y2127571D1*
Y2438758D1*
X2951561D1*
X2026462Y645008D2*
X2076833D1*
Y729008D1*
X2092833Y745008D1*
X2107478D1*
X2123478Y761008D1*
Y792800D1*
X2141687Y811008D1*
Y904938D1*
X2153833Y917083D1*
Y984508D1*
X2076833Y1061508D1*
Y1070008D1*
X2026462D1*
Y1063758D1*
X2013964D1*
X1984902Y1092819D1*
X1986683D1*
X1970683Y1108819D1*
Y1144197D1*
Y1157978D1*
X1982713Y1170008D1*
X2026462D1*
X2172687Y1269760D2*
Y1236008D1*
X2188687Y1220008D1*
X2239061D1*
X2123478Y761008D2*
X2139481Y745006D1*
Y711008D1*
X2155481Y695008D1*
X2239061D1*
X2141687Y811008D2*
X2157687Y795008D1*
X2239061D1*
X2092833Y745008D2*
X2026462D1*
X2173687Y1120008D2*
X2239061D1*
X2026462Y1170008D2*
X2137833D1*
X2153833Y1154008D1*
Y1139863D1*
X2173687Y1120008D1*
X1557712Y1145008D2*
Y1101259D1*
X1563962Y1095008D1*
X1584833D1*
X1594305Y1104481D1*
Y1128197D1*
X1610305Y1144197D1*
X1970683D1*
X2457810Y1857508D2*
X2341077D1*
X1587830Y2007655D2*
X1665896Y2007658D1*
X1810360Y1841016D2*
X1665896D1*
X2095015Y2195008D2*
Y2235536D1*
X2079015Y2251536D1*
X2038687D1*
Y2332508D1*
X2089061D1*
X2147608Y2175536D2*
X2142608Y2180536D1*
X2095015D1*
Y2195008D1*
X2341077Y1857508D2*
Y2064319D1*
X2325077Y2080319D1*
X2179608D1*
X2163608Y2096319D1*
Y2128008D1*
X2147608Y2144008D1*
Y2175536D1*
X1773085Y1242819D2*
X1970683D1*
Y1220008D1*
X2026462D1*
X1587830Y2133640D2*
X1711896Y2133638D1*
X1695407Y976259D2*
Y1031788D1*
X1642210Y1545008D2*
X1570210D1*
X1695407Y1370012D2*
Y1450312D1*
X1647210Y1498508D1*
Y1540008D1*
X1642210Y1545008D1*
X1707713Y1370008D2*
X1695407Y1370012D1*
X2095015Y2120008D2*
X2131608D1*
X2147608Y2104008D1*
Y2049319D1*
X1587830Y1976159D2*
X1680893D1*
X1696896Y1992162D1*
Y2034191D1*
X1782713Y2120008D1*
X2147608Y2049319D2*
X2189419Y2007508D1*
X2245212D1*
X1811088Y2295508D2*
X1816648Y2301067D1*
Y2382508D1*
X1876462D1*
X1782713Y2120008D2*
X1823714Y2079007D1*
Y1986008D1*
X1987485Y1613758D2*
X1915207Y1686036D1*
X1548741D1*
X1513210Y1650506D1*
Y1514508D1*
X1570210Y1457508D1*
X2122833Y1070008D2*
X2239061D1*
X1570210Y1457508D2*
X1611210Y1416508D1*
Y1270012D1*
X1627214Y1254008D1*
X1609214Y1236008D1*
X1535502D1*
X1519502Y1220008D1*
Y923508D1*
X1535502Y907508D1*
X1695407D1*
X1627214Y1254008D2*
X1643214Y1270008D1*
X1707713D1*
X1527376Y2123304D2*
X1532712Y2128640D1*
Y2188758D1*
X1983624Y2296536D2*
Y2251536D1*
X1999624Y2235536D1*
X2056805D1*
Y2045008D1*
X2095015D1*
X1782713Y2032510D2*
X1694867Y1944663D1*
X1587830D1*
X2170431Y2250536D2*
X2305297D1*
X2337270Y2282508D1*
X2451511D1*
X1941833Y2482508D2*
X1876462D1*
X1474226Y1768851D2*
X2107982D1*
X2263075Y1613758D1*
X1570210Y1370008D2*
X1430317Y1230115D1*
Y830233D1*
X1446317Y814233D1*
X1611210D1*
X1695407Y838759D2*
X1720212D1*
X1731998Y826973D1*
Y726008D1*
X1950356D1*
Y779008D1*
X1966356Y795008D1*
X2026462D1*
X1611210Y814233D2*
X1642210D1*
Y822759D1*
X1658210Y838759D1*
X1695407D1*
X1611210Y1176008D2*
X1617210Y1170008D1*
X1707713D1*
X1474226Y2123304D2*
X1476372D1*
X1496372Y2143304D1*
Y2188758D1*
X1501216D1*
X1782713Y1945010D2*
X1728896D1*
X1697053Y1913167D1*
X1587830D1*
X1941836Y2570323D2*
X1988833D1*
Y2521319D1*
X2004833Y2505319D1*
X2139431D1*
Y2448508D1*
X2155431Y2432508D1*
X2238913D1*
X1876462Y2582508D2*
Y2575323D1*
X1936836D1*
X1941836Y2570323D1*
X2095015Y1970008D2*
D3*
X2020212Y2120008D2*
X1951266D1*
X2020212Y2045008D2*
X1951266D1*
X2020212Y1970008D2*
Y1929480D1*
X2004213Y1913481D1*
X1951266D1*
Y1970008D1*
X2957713Y2620205D2*
Y2538758D1*
X2869191Y2450235D1*
Y2104760D1*
X2885193Y2088758D1*
X2951561D1*
X2957713Y2695008D2*
Y2782508D1*
Y2870205D1*
X2538766Y2720008D2*
Y2651259D1*
X2176266Y507508D2*
Y576259D1*
X2177999D1*
X2239061Y845008D2*
X2289431D1*
Y917819D1*
X2188687D1*
Y1017260D1*
X2204687Y1033260D1*
X2289431D1*
Y1270008D1*
X2239061D1*
X2538766Y2651259D2*
Y2605319D1*
X2401140D1*
Y2482508D1*
X2451511D1*
X2177999Y576259D2*
X2549085D1*
X2565085Y592259D1*
Y1008071D1*
X2533085Y1040071D1*
Y1416508D1*
X2517085Y1432508D1*
X2326266D1*
X2538766Y2651259D2*
X2745212D1*
X2805333Y2591138D1*
Y1885296D1*
X2821333Y1869296D1*
X3002175D1*
X3032712Y1838759D1*
Y1420010D1*
X3089241Y1363481D1*
X3522057D1*
X3538057Y1379481D1*
Y1638759D1*
X3576266D1*
X3661342D1*
X3664039Y1636062D1*
X3738967D1*
X2395015Y1788758D2*
X2492183D1*
X2508183Y1804758D1*
Y1869296D1*
X2524183Y1885296D1*
Y2041508D1*
X2508183Y2057508D1*
X2457810D1*
X2805333Y1885296D2*
X2789333Y1869296D1*
X2540183D1*
X2524183Y1885296D1*
X2395015Y1720008D2*
Y1788758D1*
X2326266Y1501259D2*
X2413964D1*
X2457148Y1544443D1*
Y1704008D1*
X2441148Y1720008D1*
X2395015D1*
X2326266Y1432508D2*
Y1501259D1*
X2289431Y1033260D2*
X2305431Y1017260D1*
X2417557D1*
X2424368Y1024071D1*
X2533085D1*
Y1040071D1*
X1316588Y2092304D2*
X1587830D1*
Y2102144D1*
X1242683Y2248225D2*
X1343735D1*
Y2188758D1*
X1082712Y2460008D2*
X1016962D1*
X1014462Y2457508D1*
X913961D1*
X1157462Y2215701D2*
X1184406Y2188758D1*
X1312239D1*
X1082712Y2270008D2*
X913961D1*
X1316588Y1917516D2*
X1312239Y1913167D1*
X1257121D1*
X1026461Y1907508D2*
X1075920Y1858049D1*
X1312239D1*
X1185927Y1907508D2*
Y1944663D1*
X1257121D1*
X1347588Y1997004D2*
X1408108D1*
X1450255Y2039151D1*
X1587830D1*
X1695407Y770008D2*
Y664012D1*
X1845844Y1068142D2*
Y1104008D1*
X1861844Y1120008D1*
X1920312D1*
X1695407Y664012D2*
X1742632Y616788D1*
X2078722D1*
X2106943Y645008D1*
X2239061D1*
X1170927Y2123304D2*
X1181263Y2133640D1*
X1257121D1*
X1666931Y2475249D2*
X1816648D1*
Y2532508D1*
X1876462D1*
X1956833D1*
X1972833Y2516508D1*
Y2421319D1*
X1988833Y2405319D1*
X2139431D1*
X2155431Y2389319D1*
Y2348508D1*
X2171431Y2332508D1*
X2238913D1*
X1876462Y2432508D2*
X1936628D1*
X1952628Y2416508D1*
Y2398367D1*
X1987486Y2363508D1*
X1991297Y2359697D1*
X2139431D1*
Y2321319D1*
X2155431Y2305319D1*
X2281285D1*
X2297285Y2321319D1*
X2323951D1*
X2385140Y2382508D1*
X2451511D1*
X1913057Y1907508D2*
Y2228646D1*
X1926833Y2242422D1*
Y2332508D1*
X1876462D1*
X2167608Y1907508D2*
X2245212D1*
X2483010Y2226008D2*
X2312789D1*
X2297789Y2211008D1*
X2155431D1*
X2139431Y2227008D1*
Y2282508D1*
X2089061D1*
X2392439Y2061512D2*
Y2050319D1*
X2412439Y2030319D1*
X2508183D1*
Y1957508D1*
X2457810D1*
X2673592Y2538756D2*
Y2438758D1*
X2738962D1*
X2341077Y2532508D2*
X2238913D1*
X2588962Y2451258D2*
X2651462Y2388758D1*
X2738962D1*
X2310077Y2582508D2*
X2238913D1*
X1378588Y1917516D2*
X1501216D1*
Y1858049D1*
X1838961Y770008D2*
X1770210D1*
Y838759D2*
X1838961Y838758D1*
X1839158Y907508D2*
X1770210D1*
Y976259D2*
Y1016788D1*
X1839158D1*
Y976259D1*
X2738962Y2338758D2*
X2661213D1*
X2629962Y2370008D1*
X2588962D1*
X2533884Y2425087D1*
Y2566508D1*
X2517884Y2582508D1*
X2451511D1*
X3951462Y3207508D2*
X3538717D1*
Y3251258D1*
X2848565Y3057260D2*
X2173714D1*
X2157713Y3073262D1*
Y3195008D1*
X2932713Y1263759D2*
Y1176258D1*
Y851455D2*
X2715999D1*
X2715802Y851258D1*
X2695312D1*
X2932712Y763759D2*
X2932713Y851455D1*
X2738962Y2288758D2*
X2649905D1*
X2643655Y2282508D1*
X2588962D1*
X2517884Y2353587D1*
Y2516508D1*
X2501884Y2532508D1*
X2451511D1*
X2588962Y2195008D2*
X2632712Y2238758D1*
X2738962D1*
X2358384Y2195008D2*
X2195608D1*
X2179608Y2179008D1*
Y2107508D1*
X2245212D1*
X2588962D2*
X2659930D1*
X2663990Y2111569D1*
X2789333D1*
Y2188758D1*
X2738962D1*
X2390911Y2157508D2*
X2245212D1*
X2738962Y2138758D2*
X2665898D1*
X2656144Y2148512D1*
X2556187D1*
X2540187Y2132512D1*
Y2068784D1*
X2588962Y2020008D1*
X2540187Y2132512D2*
X2524183D1*
X2508183Y2148512D1*
Y2157508D1*
X2457810D1*
X2588962Y1932508D2*
X2649990Y1993536D1*
Y2072756D1*
X2665991Y2088758D1*
X2738962D1*
X2359911Y2107508D2*
X2457810D1*
X1849690Y1613758D2*
Y1336008D1*
X1833690Y1320008D1*
X1707713D1*
X2091833Y1120008D2*
X2026462D1*
X2239061Y1170008D2*
X2185431D1*
X2160431Y1195008D1*
X2151462D1*
X2120167D1*
X2122356Y1197197D1*
X1711773D1*
X1688962Y1220008D1*
X1707713D1*
X2151462Y1195008D2*
X2125281Y1221190D1*
Y1269760D1*
X1741407Y695008D2*
X2026462D1*
X1642210Y1113197D2*
X1647210Y1118197D1*
X1707713D1*
Y1120008D1*
X1970683Y1017260D2*
Y1070008D1*
X1920312D1*
X2304431Y745008D2*
X2239061D1*
X2420962Y1326256D2*
Y1201258D1*
X2482713D1*
X2165561Y1320008D2*
X2026462D1*
X2363961Y1238758D2*
X2404962Y1197756D1*
Y1167260D1*
X2420965Y1151258D1*
X2482713D1*
X2093364Y1370008D2*
X2026462D1*
X2482713Y1101258D2*
X2406713D1*
X2403210Y1104760D1*
X2363961D1*
Y1151258D1*
X2321431Y1193788D1*
Y1354008D1*
X2305431Y1370008D1*
X2239061D1*
X2482713Y1051258D2*
X2417462D1*
X2404962Y1063758D1*
X2363961D1*
X2305431Y1122288D1*
Y1304008D1*
X2289431Y1320008D1*
X2239061D1*
X2363961Y976258D2*
X2404962D1*
X2429962Y1001258D1*
X2482713D1*
X2091833Y895008D2*
X2026462D1*
X2363961Y888758D2*
X2426461Y951258D1*
X2482713D1*
X2122833Y945008D2*
X2026462D1*
X2482713Y901258D2*
X2420962D1*
Y858259D1*
X2363961Y801258D1*
X2305431Y859788D1*
Y929008D1*
X2289431Y945008D1*
X2239061D1*
X2363961Y713758D2*
X2517085D1*
X2533085Y729758D1*
Y825886D1*
X2507713Y851258D1*
X2482713D1*
X2172687Y857756D2*
Y872483D1*
X2195212Y895008D1*
X2239061D1*
X1988961Y2763758D2*
X2369138D1*
X2385140Y2747756D1*
Y2448510D1*
X2401141Y2432508D1*
X2451511D1*
X2501884D1*
Y2332508D1*
Y2305319D1*
X2316691D1*
X2293880Y2282508D1*
X2238913D1*
X2179840Y1857508D2*
X2245212D1*
X2385140Y2448510D2*
X2326078D1*
X2310077Y2432508D1*
Y2382508D1*
X2501884Y2332508D2*
X2451511D1*
X2390911Y1901508D2*
Y1991508D1*
X2406911Y2007508D1*
X2457810D1*
Y1907508D2*
X2396911D1*
X2390911Y1901508D1*
X2245212Y1857508D2*
X2295585D1*
Y1957508D1*
X2245212D1*
X2310077Y2382508D2*
X2238913D1*
X1688962Y2726259D2*
X1641990D1*
Y2744812D1*
X1601462D1*
X1388962Y2607508D2*
X1301266D1*
X1388962Y2688758D2*
X1439333D1*
X1455333Y2672758D1*
Y2623508D1*
X1439333Y2607508D1*
X1388962D1*
X1601462Y2744812D2*
X1445016D1*
X1388962Y2688758D1*
X1770212Y2407508D2*
D3*
Y2682508D2*
X1770213D1*
X1601561Y2607508D2*
X1601462Y2670008D1*
X1695409Y2607508D2*
X1651931D1*
X1601561D1*
X1845015Y2682508D2*
X1898155D1*
X1914158Y2698511D1*
Y2763758D1*
X1845015Y2682508D2*
D3*
X1482909Y1145008D2*
D3*
X2957713Y1595205D2*
Y1513758D1*
X2865903Y1421948D1*
Y1217260D1*
X2849901Y1201258D1*
X2695312D1*
X2957713Y1670008D2*
Y1751258D1*
Y1832705D1*
X2932713Y926258D2*
Y1013759D1*
Y1101455D1*
X1343735Y1858049D2*
Y1776064D1*
X1345210D1*
X2170015Y2720008D2*
Y2645008D1*
X1126461Y2007508D2*
X1070926Y1951973D1*
X997994D1*
X981994Y1935973D1*
Y1773205D1*
X997994Y1757205D1*
X954990Y1714201D1*
X733401D1*
X1289683Y2295205D2*
X1142461D1*
X1126461Y2279205D1*
Y2007508D1*
X1345212Y2295205D2*
X1289683D1*
X1413961Y2293473D2*
Y2295205D1*
X1345212D1*
X1488962D2*
X1413961D1*
X1563962Y2293473D2*
Y2295205D1*
X1488962D1*
X1907909Y1445008D2*
X1865691D1*
Y1370008D1*
X1920312D1*
X1908106Y1513759D2*
X1907909Y1445008D1*
X1345210Y1776064D2*
Y1737851D1*
X2027762D1*
X2043762Y1721851D1*
Y1570288D1*
X2027762Y1554288D1*
X1908106D1*
Y1513759D1*
X1276461Y1777796D2*
X1218710D1*
X1198120Y1757205D1*
X997994D1*
X1345210Y1776064D2*
Y1777796D1*
X1276461D1*
X2170015Y2645008D2*
Y2598508D1*
X2154015Y2582508D1*
X2089061D1*
X1375231Y2188758D2*
Y2144292D1*
X1438224D1*
Y2188758D1*
X1413961Y2293473D2*
Y2249225D1*
X1391234D1*
X1375231Y2233222D1*
Y2188758D1*
X2170015Y2645008D2*
D3*
X3413962Y1420008D2*
X3501462D1*
X3413766Y1526258D2*
X3501462D1*
X3413766Y1638759D2*
X3450359D1*
X3501462D1*
D33*
X1563962Y2368276D3*
X1851462Y2795008D3*
X3623210Y3482756D3*
X1235935Y1624402D3*
X1995212Y513759D3*
X1301462Y3413759D3*
X2695313Y3433851D3*
X2255462D3*
X1838962Y3409099D3*
X2091833Y845008D3*
X2695312Y3276553D3*
X1295163Y3276455D3*
X1704462Y3139481D3*
X1363913Y3276455D3*
X2232712D3*
X2073671Y3332508D3*
X2536140Y3288449D3*
X3090100Y3195008D3*
X1665896Y2007658D3*
Y1841016D3*
X1810360D3*
X2147608Y2175536D3*
X2341077Y1857508D3*
X1642210Y1545008D3*
X1711896Y2133638D3*
X1695407Y1031788D3*
Y1370012D3*
X1773085Y1242819D3*
X1811088Y2295508D3*
X1823714Y1986008D3*
X2147608Y2049319D3*
X1527376Y2123304D3*
X2122833Y1070008D3*
X1983624Y2296536D3*
X2170431Y2250536D3*
X1941833Y2482508D3*
X1611210Y1176008D3*
X1474226Y2123304D3*
X1611210Y814233D3*
X1474226Y1768851D3*
X2095015Y1970008D3*
X1941836Y2570323D3*
X1289683Y2295205D3*
X2170015Y2645008D3*
X1378588Y2051973D3*
X1316588Y2092304D3*
X1242683Y2248225D3*
X1157462Y2215701D3*
X1316588Y1917516D3*
X1185927Y1907508D3*
X1347588Y1997004D3*
X1666931Y2475249D3*
X1987486Y2363508D3*
X1913057Y1907508D3*
X2167608D3*
X2483010Y2226008D3*
X2392439Y2061512D3*
X2673592Y2538756D3*
X2341077Y2532508D3*
X2310077Y2582508D3*
X1378588Y1917516D3*
X1845844Y1068142D3*
X1170927Y2123304D3*
X1695407Y664012D3*
X2358384Y2195008D3*
X2390911Y2157508D3*
X2359911Y2107508D3*
X2091833Y1120008D3*
X2125281Y1269760D3*
X1741407Y695008D3*
X1642210Y1113197D3*
X1970683Y1017260D3*
X2304431Y745008D3*
X2420962Y1326256D3*
X2165561Y1320008D3*
X2093364Y1370008D3*
X2091833Y895008D3*
X2122833Y945008D3*
X2172687Y857756D3*
X2179840Y1857508D3*
X2310077Y2382508D3*
X2390911Y1901508D3*
X1770212Y2407508D3*
X1770213Y2682508D3*
X2173687Y1120008D3*
X2172687Y1269760D3*
X1482909Y1145008D3*
X1845015Y2682508D3*
X2848565Y3057260D3*
X472730Y3876389D2*
D13*
X1032009D1*
X1183417D2*
X1231992D1*
X1383435D2*
X3926715D1*
X4013710D2*
X4086543D1*
X472730Y3851520D2*
X1025837D1*
X1189589D2*
X1225820D1*
X1389607D2*
X3880532D1*
X4059893D2*
X4086579D1*
X472730Y3826651D2*
X1027703D1*
X1187723D2*
X1227722D1*
X1387705D2*
X3856920D1*
X472730Y3801783D2*
X1038325D1*
X1377120D2*
X3842351D1*
X472730Y3776914D2*
X1063910D1*
X1351534D2*
X3833847D1*
X472730Y3752045D2*
X514559D1*
X675871D2*
X1129830D1*
X1285579D2*
X3830258D1*
X472730Y3727176D2*
X487251D1*
X703179D2*
X1131624D1*
X1283785D2*
X3831227D1*
X719793Y3702308D2*
X1049880D1*
X1365529D2*
X3836861D1*
X729805Y3677439D2*
X1032476D1*
X1382969D2*
X3847805D1*
X734649Y3652570D2*
X1025909D1*
X1189517D2*
X1225927D1*
X1389500D2*
X3865748D1*
X4074677D2*
X4086896D1*
X734900Y3627701D2*
X1027452D1*
X1187974D2*
X1227470D1*
X1387957D2*
X2008741D1*
X2081562D2*
X2092860D1*
X2284989D2*
X3895747D1*
X4044678D2*
X4086974D1*
X730558Y3602833D2*
X1037643D1*
X1177783D2*
X1237662D1*
X1377765D2*
X1611647D1*
X1797431D2*
X1989938D1*
X2284989D2*
X2544564D1*
X2728733D2*
X3013319D1*
X3203732D2*
X4087009D1*
X721193Y3577964D2*
X827900D1*
X900003D2*
X1062224D1*
X1153202D2*
X1262206D1*
X1353221D2*
X1611647D1*
X1797431D2*
X1986349D1*
X2284989D2*
X2544564D1*
X2728733D2*
X3013319D1*
X3203732D2*
X3627010D1*
X3713395D2*
X4087081D1*
X472730Y3553095D2*
X484974D1*
X705439D2*
X808845D1*
X919094D2*
X1611647D1*
X1797431D2*
X1994423D1*
X2728733D2*
X3013319D1*
X3203732D2*
X3613051D1*
X3727354D2*
X4087117D1*
X472730Y3528226D2*
X510720D1*
X679710D2*
X805114D1*
X922790D2*
X1611647D1*
X1797431D2*
X2027006D1*
X2063333D2*
X2092853D1*
X2728733D2*
X3013319D1*
X3203732D2*
X3610970D1*
X3728216D2*
X4087153D1*
X472730Y3503357D2*
X568027D1*
X622403D2*
X813080D1*
X914859D2*
X1611647D1*
X3716733D2*
X4087189D1*
X472730Y3478489D2*
X844909D1*
X883030D2*
X1611647D1*
X2284989D2*
X2520772D1*
X3672021D2*
X4087225D1*
X472730Y3453620D2*
X1389236D1*
X1525967D2*
X1601850D1*
X1797431D2*
X1864307D1*
X2001038D2*
X2045271D1*
X2213616D2*
X2320539D1*
X2457269D2*
X2516717D1*
X2728733D2*
X2789294D1*
X2926025D2*
X3001908D1*
X3203732D2*
X3341013D1*
X3436836D2*
X3584487D1*
X3661937D2*
X4087297D1*
X472730Y3428751D2*
X1389236D1*
X1525967D2*
X1601850D1*
X1757420D2*
X1864307D1*
X2001038D2*
X2044876D1*
X2213616D2*
X2320539D1*
X2457269D2*
X2516717D1*
X2669883D2*
X2789294D1*
X2926025D2*
X3001908D1*
X3179223D2*
X3330607D1*
X3447242D2*
X4087332D1*
X472730Y3403882D2*
X1389236D1*
X1534292D2*
X1583836D1*
X2008681D2*
X2044876D1*
X2213616D2*
X2320539D1*
X2459351D2*
X2516717D1*
X2669883D2*
X2789294D1*
X2926455D2*
X3001908D1*
X3179223D2*
X3332257D1*
X3445556D2*
X4087368D1*
X472730Y3379014D2*
X1236621D1*
X2017042D2*
X2051658D1*
X2485510D2*
X2521526D1*
X2952651D2*
X3001908D1*
X3443403D2*
X3813859D1*
X3889048D2*
X4013877D1*
X555695Y3354145D2*
X659747D1*
X755677D2*
X1236621D1*
X2017042D2*
X2030020D1*
X2491718D2*
X2533152D1*
X2958823D2*
X3001908D1*
X3443403D2*
X3784398D1*
X3918545D2*
X3984381D1*
X578804Y3329276D2*
X636637D1*
X778787D2*
X1236621D1*
X2017042D2*
X2024750D1*
X2491718D2*
X2508033D1*
X2958823D2*
X3001908D1*
X3443403D2*
X3772341D1*
X3930566D2*
X3972359D1*
X588313Y3304407D2*
X627128D1*
X788296D2*
X1236621D1*
X2017042D2*
X2034111D1*
X2958823D2*
X3001908D1*
X3593291D2*
X3769363D1*
X3933545D2*
X3969381D1*
X589318Y3279539D2*
X626087D1*
X789337D2*
X1236621D1*
X2017042D2*
X2040211D1*
X2962339D2*
X3001908D1*
X3593291D2*
X3774386D1*
X782196Y3254670D2*
X1015574D1*
X2033585D2*
X2046886D1*
X2491718D2*
X2501682D1*
X2988930D2*
X3001908D1*
X3218373D2*
X3330391D1*
X3593291D2*
X3789350D1*
X3222859Y3229801D2*
X3330391D1*
X4071448D2*
X4087691D1*
X472730Y3204932D2*
X531245D1*
X3215718D2*
X3330391D1*
X4029643D2*
X4087727D1*
X472730Y3180064D2*
X529989D1*
X3187441D2*
X3330391D1*
X3447458D2*
X3520757D1*
X754134Y3155195D2*
X1015574D1*
X3055854D2*
X3063593D1*
X3116641D2*
X3330391D1*
X3447458D2*
X3785152D1*
X778141Y3130326D2*
X1008003D1*
X1346116D2*
X1478086D1*
X1851437D2*
X1953120D1*
X2191726D2*
X2256772D1*
X2358660D2*
X2403108D1*
X2693136D2*
X2728542D1*
X2836888D2*
X2871863D1*
X3055854D2*
X3330391D1*
X3447458D2*
X3772664D1*
X3930279D2*
X3972647D1*
X588098Y3105457D2*
X627343D1*
X788081D2*
X1003230D1*
X1354010D2*
X1478086D1*
X1662040D2*
X1670272D1*
X1838698D2*
X1953120D1*
X2191726D2*
X2248878D1*
X2366554D2*
X2403108D1*
X2697909D2*
X2723733D1*
X2841661D2*
X2871863D1*
X3055854D2*
X3769327D1*
X3933581D2*
X3969345D1*
X589426Y3080588D2*
X625980D1*
X789444D2*
X1010012D1*
X1223033D2*
X1240066D1*
X1350242D2*
X1478086D1*
X1662040D2*
X1721380D1*
X1831557D2*
X1953120D1*
X3055854D2*
X3773992D1*
X3928916D2*
X3974010D1*
X582680Y3055720D2*
X632726D1*
X782698D2*
X1037105D1*
X1087283D2*
X1124590D1*
X1174769D2*
X1259228D1*
X1331116D2*
X1533670D1*
X1603262D2*
X1740507D1*
X1812395D2*
X2048501D1*
X3008415D2*
X3788453D1*
X3914490D2*
X3988436D1*
X564917Y3030851D2*
X650524D1*
X764899D2*
X1508802D1*
X1600247D2*
X2050654D1*
X3016524D2*
X3827351D1*
X3875592D2*
X4027334D1*
X4075574D2*
X4088050D1*
X472730Y3005982D2*
X1483935D1*
X1578035D2*
X2071754D1*
X3012936D2*
X4088086D1*
X472730Y2981113D2*
X1459067D1*
X1553167D2*
X2899171D1*
X3016237D2*
X4088122D1*
X472730Y2956245D2*
X1434199D1*
X1528300D2*
X2899171D1*
X3016237D2*
X4088194D1*
X472730Y2931376D2*
X1409331D1*
X1503432D2*
X1663427D1*
X1760363D2*
X1801223D1*
X1898158D2*
X1939018D1*
X2035953D2*
X2076813D1*
X2173748D2*
X2214608D1*
X2311544D2*
X2352404D1*
X2449339D2*
X2490199D1*
X2587134D2*
X2602194D1*
X2750730D2*
X2899171D1*
X3016237D2*
X4088230D1*
X472730Y2906507D2*
X1384464D1*
X1478564D2*
X1644301D1*
X2750730D2*
X2899171D1*
X3016237D2*
X4088265D1*
X472730Y2881638D2*
X1359596D1*
X1453696D2*
X1637806D1*
X2750730D2*
X2899171D1*
X3016237D2*
X3728706D1*
X3861023D2*
X4088301D1*
X472730Y2856770D2*
X1334728D1*
X1428829D2*
X1640318D1*
X2750730D2*
X2899171D1*
X3016237D2*
X3700142D1*
X3889587D2*
X4088337D1*
X472730Y2831901D2*
X1309860D1*
X1403961D2*
X1652949D1*
X1770805D2*
X1790744D1*
X1908600D2*
X1928540D1*
X2046396D2*
X2066335D1*
X2184191D2*
X2204130D1*
X2321986D2*
X2341926D1*
X2459781D2*
X2479721D1*
X2750730D2*
X2899171D1*
X3016237D2*
X3684102D1*
X3905627D2*
X4088409D1*
X472730Y2807032D2*
X1284993D1*
X1379093D2*
X1690448D1*
X1733342D2*
X1828243D1*
X2043561D2*
X2103834D1*
X2146728D2*
X2241629D1*
X2284523D2*
X2379425D1*
X2422318D2*
X2517220D1*
X2560114D2*
X2602194D1*
X2750730D2*
X2904303D1*
X3011106D2*
X3675310D1*
X3914419D2*
X4088445D1*
X472730Y2782163D2*
X1260125D1*
X1354225D2*
X1542928D1*
X1659995D2*
X1678283D1*
X1699647D2*
X1859570D1*
X2397773D2*
X2898705D1*
X3016704D2*
X3672188D1*
X3917541D2*
X4088481D1*
X472730Y2757294D2*
X1235257D1*
X1329358D2*
X1410444D1*
X1738689D2*
X1859570D1*
X2593342D2*
X2904661D1*
X3010783D2*
X3674270D1*
X3915459D2*
X4088517D1*
X472730Y2732426D2*
X1210390D1*
X1304490D2*
X1350625D1*
X2593342D2*
X2899171D1*
X3016237D2*
X3681841D1*
X3907888D2*
X4088588D1*
X472730Y2707557D2*
X1193057D1*
X1279622D2*
X1333185D1*
X1467584D2*
X1542928D1*
X1948145D2*
X2040606D1*
X2224596D2*
X2351148D1*
X2593342D2*
X2899171D1*
X3016237D2*
X3696231D1*
X3893534D2*
X4088624D1*
X472730Y2682688D2*
X1192447D1*
X1260460D2*
X1330279D1*
X1487715D2*
X1542928D1*
X1943910D2*
X2040606D1*
X2224596D2*
X2351148D1*
X2749833D2*
X2899171D1*
X3016237D2*
X3721385D1*
X3868379D2*
X4088660D1*
X472730Y2657819D2*
X1171886D1*
X1489329D2*
X1542928D1*
X1920227D2*
X2040606D1*
X2224596D2*
X2351148D1*
X2785682D2*
X2899171D1*
X3016237D2*
X4088696D1*
X472730Y2632951D2*
X1171886D1*
X1489329D2*
X1533204D1*
X1899593D2*
X2040606D1*
X2224596D2*
X2351148D1*
X2810585D2*
X2899171D1*
X3016237D2*
X4088768D1*
X472730Y2608082D2*
X1171886D1*
X1485310D2*
X1533204D1*
X1971469D2*
X2020690D1*
X2593342D2*
X2741352D1*
X2834376D2*
X2899171D1*
X3016237D2*
X4088804D1*
X472730Y2583213D2*
X1171886D1*
X1461878D2*
X1533204D1*
X2626320D2*
X2657455D1*
X2689727D2*
X2766220D1*
X2839328D2*
X2899171D1*
X3016237D2*
X4088840D1*
X472730Y2558344D2*
X1167939D1*
X1457321D2*
X1533204D1*
X2718255D2*
X2771316D1*
X2839328D2*
X2902221D1*
X3013223D2*
X3708216D1*
X3769698D2*
X4088875D1*
X472730Y2533476D2*
X1167939D1*
X1457321D2*
X1533204D1*
X1669935D2*
X1705771D1*
X2157421D2*
X2170543D1*
X2722274D2*
X2771316D1*
X2839328D2*
X2898956D1*
X3016453D2*
X3683564D1*
X3794386D2*
X4088947D1*
X472730Y2508607D2*
X784552D1*
X968542D2*
X1066494D1*
X1098945D2*
X1167939D1*
X1457321D2*
X1533204D1*
X2711509D2*
X2771316D1*
X2839328D2*
X2880511D1*
X3007984D2*
X3676781D1*
X3801168D2*
X3831227D1*
X3870353D2*
X4088983D1*
X472730Y2483738D2*
X784552D1*
X1129806D2*
X1167939D1*
X1457321D2*
X1533204D1*
X2307274D2*
X2351148D1*
X2707598D2*
X2771316D1*
X2839328D2*
X2855644D1*
X2973069D2*
X3680872D1*
X3903510D2*
X4089019D1*
X472730Y2458869D2*
X784552D1*
X1135691D2*
X1167939D1*
X1285005D2*
X1320590D1*
X1457321D2*
X1533204D1*
X2006815D2*
X2020690D1*
X3019933D2*
X3699281D1*
X3778633D2*
X3788991D1*
X3912553D2*
X4089055D1*
X472730Y2434001D2*
X784552D1*
X1128514D2*
X1167939D1*
X1285005D2*
X1320590D1*
X1457321D2*
X1533204D1*
X1690891D2*
X1705771D1*
X3019933D2*
X3689556D1*
X3910471D2*
X4089127D1*
X472730Y2409132D2*
X784552D1*
X968542D2*
X1167939D1*
X1622496D2*
X1705771D1*
X3019933D2*
X3677966D1*
X3895615D2*
X4089162D1*
X472730Y2384263D2*
X1286679D1*
X1622496D2*
X1705771D1*
X3019933D2*
X3678073D1*
X3896154D2*
X4089198D1*
X472730Y2359394D2*
X1286679D1*
X1622496D2*
X1705771D1*
X3019933D2*
X3689987D1*
X3910651D2*
X4089234D1*
X472730Y2334525D2*
X1262350D1*
X1622496D2*
X1782635D1*
X3019933D2*
X3698635D1*
X3779315D2*
X3789063D1*
X3912481D2*
X4089270D1*
X472730Y2309657D2*
X784552D1*
X968542D2*
X1048947D1*
X1622496D2*
X1764298D1*
X3019933D2*
X3680657D1*
X3903115D2*
X4089342D1*
X472730Y2284788D2*
X784552D1*
X1622496D2*
X1763329D1*
X3019933D2*
X3676817D1*
X3801132D2*
X3816909D1*
X3884671D2*
X4089378D1*
X472730Y2259919D2*
X784552D1*
X1174338D2*
X1195175D1*
X1622496D2*
X1759095D1*
X2519887D2*
X2534660D1*
X3019933D2*
X3683851D1*
X3907098D2*
X4089414D1*
X472730Y2235050D2*
X784552D1*
X968542D2*
X1043779D1*
X1571540D2*
X1730890D1*
X2531119D2*
X2546609D1*
X3019933D2*
X3709257D1*
X3768657D2*
X3788525D1*
X3913019D2*
X4089450D1*
X472730Y2210182D2*
X1092474D1*
X1571540D2*
X1723785D1*
X3019933D2*
X3685142D1*
X3908139D2*
X4089521D1*
X472730Y2185313D2*
X1092474D1*
X1571540D2*
X1728270D1*
X2647133D2*
X2670589D1*
X3019933D2*
X3676961D1*
X3800953D2*
X3813500D1*
X3888044D2*
X4089557D1*
X472730Y2160444D2*
X763380D1*
X815245D2*
X1092474D1*
X3019933D2*
X3679832D1*
X3901572D2*
X4089593D1*
X472730Y2135575D2*
X710702D1*
X867923D2*
X1092474D1*
X3024814D2*
X3696015D1*
X3912158D2*
X4089629D1*
X472730Y2110707D2*
X687808D1*
X890817D2*
X1092474D1*
X3048067D2*
X3691925D1*
X3911261D2*
X4089701D1*
X472730Y2085838D2*
X674675D1*
X903951D2*
X1092474D1*
X1650306D2*
X1701501D1*
X3051942D2*
X3678612D1*
X3898235D2*
X4089737D1*
X472730Y2060969D2*
X668036D1*
X910589D2*
X964009D1*
X1160451D2*
X1194672D1*
X1650306D2*
X1676633D1*
X2839328D2*
X2867844D1*
X3051942D2*
X3677535D1*
X3800415D2*
X3808300D1*
X3893247D2*
X4089773D1*
X472730Y2036100D2*
X666780D1*
X911845D2*
X964009D1*
X1181658D2*
X1194672D1*
X2683986D2*
X2771316D1*
X2839328D2*
X2937316D1*
X3051225D2*
X3687834D1*
X3909754D2*
X4089808D1*
X472730Y2011231D2*
X670763D1*
X907862D2*
X964009D1*
X2683986D2*
X2771316D1*
X2839328D2*
X2906563D1*
X3033498D2*
X3702331D1*
X3775583D2*
X3788740D1*
X3912804D2*
X4089880D1*
X472730Y1986363D2*
X680560D1*
X898066D2*
X964009D1*
X1185067D2*
X1194672D1*
X1444510D2*
X1525381D1*
X2149598D2*
X2163509D1*
X2683160D2*
X2771316D1*
X2839328D2*
X2898848D1*
X3016596D2*
X3681805D1*
X3904873D2*
X4089916D1*
X472730Y1961494D2*
X698035D1*
X880554D2*
X960456D1*
X1396210D2*
X1525381D1*
X2149598D2*
X2176858D1*
X2665003D2*
X2771316D1*
X2839328D2*
X2902760D1*
X3012649D2*
X3676710D1*
X3801240D2*
X3821969D1*
X3879575D2*
X4089952D1*
X472730Y1936625D2*
X729972D1*
X848617D2*
X948004D1*
X2647814D2*
X2771316D1*
X2839328D2*
X2899171D1*
X3016237D2*
X3682415D1*
X3905663D2*
X4089988D1*
X472730Y1911756D2*
X948004D1*
X1830875D2*
X1864235D1*
X2048764D2*
X2118798D1*
X2644011D2*
X2771316D1*
X2839328D2*
X2899171D1*
X3016237D2*
X3704340D1*
X3773573D2*
X3788632D1*
X3912911D2*
X4090060D1*
X472730Y1886888D2*
X948004D1*
X1716907D2*
X1800254D1*
X1820491D2*
X1868864D1*
X2023609D2*
X2123427D1*
X3031632D2*
X3686937D1*
X3909251D2*
X4090095D1*
X472730Y1862019D2*
X948004D1*
X1571540D2*
X1621909D1*
X1854343D2*
X1900909D1*
X1925215D2*
X2131070D1*
X3056499D2*
X3677320D1*
X3800630D2*
X3809897D1*
X3891668D2*
X4090131D1*
X472730Y1837150D2*
X948004D1*
X1571540D2*
X1617065D1*
X1859188D2*
X2135520D1*
X2542171D2*
X2899171D1*
X3066726D2*
X3678970D1*
X3899383D2*
X4090167D1*
X472730Y1812281D2*
X801776D1*
X888628D2*
X948004D1*
X1188728D2*
X1217925D1*
X1571540D2*
X1626826D1*
X1849427D2*
X2166524D1*
X2193162D2*
X2265636D1*
X2542171D2*
X2899171D1*
X3066726D2*
X3693145D1*
X3911584D2*
X4090239D1*
X472730Y1787413D2*
X785951D1*
X904489D2*
X948004D1*
X1403746D2*
X1429104D1*
X2136465D2*
X2265636D1*
X2536968D2*
X2899171D1*
X3066726D2*
X3694580D1*
X3911871D2*
X4090275D1*
X472730Y1762544D2*
X695739D1*
X771036D2*
X783260D1*
X907144D2*
X949870D1*
X2161333D2*
X2265636D1*
X2512136D2*
X2899853D1*
X3066726D2*
X3679401D1*
X3900531D2*
X4090311D1*
X472730Y1737675D2*
X675930D1*
X2186200D2*
X2265636D1*
X2470547D2*
X2900355D1*
X3066726D2*
X3677104D1*
X3800809D2*
X3811670D1*
X3889874D2*
X4090347D1*
X472730Y1712806D2*
X671158D1*
X1000659D2*
X1217925D1*
X2077758D2*
X2116968D1*
X2211068D2*
X2265636D1*
X2489888D2*
X2899171D1*
X3066726D2*
X3685968D1*
X3908677D2*
X4090383D1*
X472730Y1687938D2*
X677222D1*
X974894D2*
X1217925D1*
X1403746D2*
X1503599D1*
X1960345D2*
X2009746D1*
X2077758D2*
X2141835D1*
X2235936D2*
X2265636D1*
X2491144D2*
X2899171D1*
X3066726D2*
X3284388D1*
X3630862D2*
X3706781D1*
X3771169D2*
X3788561D1*
X3912983D2*
X4090454D1*
X472730Y1663069D2*
X699973D1*
X766837D2*
X783045D1*
X907396D2*
X1217925D1*
X1403746D2*
X1481818D1*
X2317716D2*
X2346232D1*
X2593306D2*
X2602194D1*
X2750730D2*
X2899171D1*
X3066726D2*
X3284388D1*
X3906416D2*
X4090490D1*
X472730Y1638200D2*
X681098D1*
X903484D2*
X1479198D1*
X1547964D2*
X1641897D1*
X2750730D2*
X2899171D1*
X3066726D2*
X3284388D1*
X3801204D2*
X3819206D1*
X3882338D2*
X4090526D1*
X472730Y1613331D2*
X671696D1*
X795114D2*
X804977D1*
X885470D2*
X1479198D1*
X1547211D2*
X1637627D1*
X2750730D2*
X2899171D1*
X3066726D2*
X3284388D1*
X3904012D2*
X4090562D1*
X472730Y1588462D2*
X673526D1*
X893975D2*
X1479198D1*
X1608824D2*
X1623165D1*
X2750730D2*
X2899171D1*
X3066726D2*
X3284388D1*
X3630862D2*
X3700321D1*
X3777628D2*
X3788884D1*
X3912660D2*
X4090634D1*
X472730Y1563594D2*
X687952D1*
X906068D2*
X1479198D1*
X1765745D2*
X1795840D1*
X2179131D2*
X2209226D1*
X2316926D2*
X2347021D1*
X2592517D2*
X2602194D1*
X2750730D2*
X2899171D1*
X3066726D2*
X3284388D1*
X3630862D2*
X3688946D1*
X3910220D2*
X4090670D1*
X472730Y1538725D2*
X689028D1*
X906283D2*
X1479198D1*
X1690783D2*
X1815684D1*
X2059242D2*
X2196882D1*
X2380872D2*
X2404364D1*
X2490642D2*
X2904518D1*
X3066726D2*
X3284388D1*
X3894790D2*
X4090706D1*
X472730Y1513856D2*
X673849D1*
X894836D2*
X1479234D1*
X1681202D2*
X1815684D1*
X2037496D2*
X2196882D1*
X2473597D2*
X2898705D1*
X3066726D2*
X3284388D1*
X3896907D2*
X4090741D1*
X472730Y1488987D2*
X671553D1*
X795257D2*
X806354D1*
X884071D2*
X1491686D1*
X1703773D2*
X1815684D1*
X2037496D2*
X2196882D1*
X2448729D2*
X2885894D1*
X3066726D2*
X3284388D1*
X3630862D2*
X3690633D1*
X3910866D2*
X4090813D1*
X472730Y1464119D2*
X680416D1*
X903054D2*
X1511601D1*
X1726237D2*
X1815684D1*
X2037496D2*
X2196882D1*
X2380872D2*
X2861026D1*
X2987207D2*
X2998714D1*
X3066726D2*
X3284567D1*
X3630862D2*
X3697666D1*
X3780284D2*
X3789154D1*
X3912373D2*
X4090849D1*
X472730Y1439250D2*
X701803D1*
X764971D2*
X782973D1*
X907431D2*
X1514257D1*
X1635522D2*
X1659408D1*
X1729395D2*
X1815684D1*
X2037317D2*
X2196882D1*
X2557386D2*
X2837091D1*
X2930259D2*
X2998714D1*
X3066726D2*
X3284567D1*
X3902577D2*
X4090885D1*
X472730Y1414381D2*
X677761D1*
X900936D2*
X1531194D1*
X1645210D2*
X1661418D1*
X1729395D2*
X1815684D1*
X2037317D2*
X2076957D1*
X2109767D2*
X2196882D1*
X2567075D2*
X2831888D1*
X2905391D2*
X2999216D1*
X3085386D2*
X3284567D1*
X3801096D2*
X3815617D1*
X3885927D2*
X4090921D1*
X472730Y1389512D2*
X671194D1*
X907467D2*
X1514687D1*
X1776080D2*
X1815684D1*
X2138080D2*
X2170686D1*
X2380872D2*
X2499098D1*
X2567075D2*
X2831888D1*
X2899901D2*
X3016154D1*
X3907493D2*
X4090993D1*
X472730Y1364644D2*
X675500D1*
X907467D2*
X1511458D1*
X1776080D2*
X1815684D1*
X2142063D2*
X2150017D1*
X2449698D2*
X2499098D1*
X2567075D2*
X2831888D1*
X2899901D2*
X3041021D1*
X3630862D2*
X3710871D1*
X3767042D2*
X3788525D1*
X3913055D2*
X4091028D1*
X472730Y1339775D2*
X694303D1*
X772471D2*
X782937D1*
X907467D2*
X1492942D1*
X2467963D2*
X2499098D1*
X2567075D2*
X2831888D1*
X2899901D2*
X3065997D1*
X3545314D2*
X3684676D1*
X3907780D2*
X4091064D1*
X472730Y1314906D2*
X782937D1*
X907467D2*
X1468074D1*
X2468573D2*
X2499098D1*
X2567075D2*
X2831888D1*
X2959217D2*
X3676889D1*
X3801025D2*
X3814648D1*
X3886895D2*
X4091100D1*
X472730Y1290037D2*
X782937D1*
X907467D2*
X1443206D1*
X2454973D2*
X2499098D1*
X2567075D2*
X2831888D1*
X2985233D2*
X3680119D1*
X3902146D2*
X4091172D1*
X472730Y1265169D2*
X1418338D1*
X2454973D2*
X2499098D1*
X2567075D2*
X2831888D1*
X2991693D2*
X3696912D1*
X3781037D2*
X3789256D1*
X3912266D2*
X4091208D1*
X472730Y1240300D2*
X1397992D1*
X2454973D2*
X2499098D1*
X2567075D2*
X2831888D1*
X2986597D2*
X3676710D1*
X3911045D2*
X4091244D1*
X472730Y1215431D2*
X1396305D1*
X1464318D2*
X1485514D1*
X2567075D2*
X2626954D1*
X2991226D2*
X3676710D1*
X3897517D2*
X4091280D1*
X472730Y1190562D2*
X1396305D1*
X2567075D2*
X2626954D1*
X2991226D2*
X3676710D1*
X3801240D2*
X4091351D1*
X472730Y1165693D2*
X732053D1*
X846572D2*
X1396305D1*
X2567075D2*
X2626954D1*
X2763685D2*
X2874196D1*
X2991226D2*
X3676710D1*
X3801240D2*
X4091387D1*
X472730Y1140825D2*
X699040D1*
X879585D2*
X1396305D1*
X2567075D2*
X2626954D1*
X2763685D2*
X2874196D1*
X2991226D2*
X4091423D1*
X472730Y1115956D2*
X681134D1*
X897492D2*
X1396305D1*
X2567075D2*
X2626954D1*
X2763685D2*
X2874196D1*
X2991226D2*
X4091459D1*
X472730Y1091087D2*
X671050D1*
X907575D2*
X1396305D1*
X1776080D2*
X1802909D1*
X2567075D2*
X2626954D1*
X2763685D2*
X2874196D1*
X2991226D2*
X4091495D1*
X472730Y1066218D2*
X666852D1*
X911773D2*
X1396305D1*
X1464318D2*
X1485514D1*
X1600104D2*
X1639349D1*
X1776080D2*
X1796881D1*
X2567075D2*
X2626954D1*
X2763685D2*
X2874196D1*
X2991226D2*
X4091567D1*
X472730Y1041350D2*
X667857D1*
X910733D2*
X1396305D1*
X1464318D2*
X1485514D1*
X1553490D2*
X1639349D1*
X2578845D2*
X2626954D1*
X2763685D2*
X2880906D1*
X2984516D2*
X3754578D1*
X3835150D2*
X4091603D1*
X472730Y1016481D2*
X674244D1*
X904345D2*
X1396305D1*
X1464318D2*
X1485514D1*
X1553490D2*
X1640820D1*
X2019662D2*
X2074804D1*
X2597935D2*
X2626954D1*
X2763685D2*
X2873765D1*
X2991657D2*
X3711840D1*
X3877889D2*
X4091639D1*
X472730Y991612D2*
X687055D1*
X891535D2*
X1396305D1*
X1464318D2*
X1485514D1*
X1553490D2*
X1640820D1*
X2011983D2*
X2099671D1*
X2222695D2*
X2284654D1*
X2599084D2*
X2626954D1*
X2763685D2*
X2878251D1*
X2987207D2*
X3690848D1*
X3898881D2*
X4091674D1*
X472730Y966743D2*
X709375D1*
X869215D2*
X1396305D1*
X1464318D2*
X1485514D1*
X1553490D2*
X1640820D1*
X2599084D2*
X2626954D1*
X2763685D2*
X2874196D1*
X2991226D2*
X3678863D1*
X3910902D2*
X4091746D1*
X472730Y941875D2*
X758464D1*
X820125D2*
X1396305D1*
X1464318D2*
X1485514D1*
X1553490D2*
X1640820D1*
X2599084D2*
X2626954D1*
X2763685D2*
X2874196D1*
X2991226D2*
X3673049D1*
X3916679D2*
X4091782D1*
X472730Y917006D2*
X1396305D1*
X1464318D2*
X1486195D1*
X2599084D2*
X2626954D1*
X2763685D2*
X2874196D1*
X2991226D2*
X3672619D1*
X3917146D2*
X4091818D1*
X472730Y892137D2*
X1396305D1*
X1464318D2*
X1503815D1*
X2599084D2*
X2626954D1*
X2763685D2*
X2874196D1*
X2991226D2*
X3677427D1*
X3912337D2*
X4091854D1*
X472730Y867268D2*
X543446D1*
X646984D2*
X1396305D1*
X1464318D2*
X1640820D1*
X2599084D2*
X2626954D1*
X2991226D2*
X3688193D1*
X3901536D2*
X4091926D1*
X472730Y842399D2*
X502143D1*
X688287D2*
X1396305D1*
X2094839D2*
X2107674D1*
X2599084D2*
X2626954D1*
X2991226D2*
X3707211D1*
X3882518D2*
X4091961D1*
X710571Y817531D2*
X1398997D1*
X2599084D2*
X2626954D1*
X2763685D2*
X2874196D1*
X2991226D2*
X3743275D1*
X3846490D2*
X4091997D1*
X724350Y792662D2*
X1047583D1*
X1117856D2*
X1247566D1*
X1317839D2*
X1420850D1*
X2422318D2*
X2499098D1*
X2599084D2*
X2881660D1*
X2983762D2*
X4092033D1*
X732245Y767793D2*
X1016507D1*
X1148932D2*
X1216490D1*
X1348950D2*
X1606336D1*
X1616077D2*
X1640820D1*
X2411984D2*
X2499098D1*
X2599084D2*
X2873873D1*
X2991585D2*
X4092105D1*
X735295Y742924D2*
X1003948D1*
X1161491D2*
X1203930D1*
X1361510D2*
X1640820D1*
X2599084D2*
X2877676D1*
X2987745D2*
X4092141D1*
X733788Y718056D2*
X1000575D1*
X1164829D2*
X1200593D1*
X1364847D2*
X1640820D1*
X2599084D2*
X2896982D1*
X2968440D2*
X3906045D1*
X4034379D2*
X4092177D1*
X727580Y693187D2*
X1005204D1*
X1360218D2*
X1656681D1*
X2599084D2*
X3871274D1*
X4069151D2*
X4092213D1*
X715953Y668318D2*
X1019629D1*
X1345829D2*
X1646598D1*
X2307417D2*
X2327895D1*
X2400034D2*
X2531071D1*
X2599084D2*
X3851214D1*
X472730Y643449D2*
X493423D1*
X697007D2*
X1058241D1*
X1307181D2*
X1651191D1*
X2307417D2*
X2531071D1*
X2599084D2*
X3838870D1*
X472730Y618581D2*
X525647D1*
X664783D2*
X1104531D1*
X1260927D2*
X1682984D1*
X2307417D2*
X2531071D1*
X2599084D2*
X3832124D1*
X472730Y593712D2*
X1050023D1*
X1315399D2*
X1718689D1*
X2599084D2*
X3830079D1*
X472730Y568843D2*
X1017297D1*
X1348125D2*
X2048608D1*
X2588713D2*
X3832591D1*
X472730Y543974D2*
X1004271D1*
X1161169D2*
X1204253D1*
X1361187D2*
X2046886D1*
X2232599D2*
X3839875D1*
X472730Y519106D2*
X1000575D1*
X1164865D2*
X1200557D1*
X1364847D2*
X2046886D1*
X2230840D2*
X3852901D1*
X472730Y494237D2*
X1004845D1*
X1160594D2*
X1204863D1*
X1360577D2*
X2046886D1*
X2230840D2*
X3873965D1*
X4066460D2*
X4092571D1*
X472730Y469368D2*
X1018732D1*
X1146707D2*
X1218751D1*
X1346690D2*
X2046886D1*
X2230840D2*
X3911536D1*
X4028889D2*
X4092607D1*
X472730Y444499D2*
X1054867D1*
X1110572D2*
X1254850D1*
X1310554D2*
X4092679D1*
X3017657Y3615750D2*
X3201241Y3615848D1*
Y3520483D1*
X3595954Y3520455D1*
X3602100Y3524188D1*
X3608841Y3526981D1*
X3614650Y3528508D1*
X3613789Y3535801D1*
X3613882Y3543144D1*
X3614927Y3550414D1*
X3616906Y3557486D1*
X3619785Y3564242D1*
X3623516Y3570567D1*
X3628036Y3576355D1*
X3633269Y3581508D1*
X3639126Y3585939D1*
X3645508Y3589572D1*
X3652307Y3592347D1*
X3659409Y3594217D1*
X3666694Y3595149D1*
X3674038Y3595129D1*
X3681317Y3594157D1*
X3688408Y3592249D1*
X3695193Y3589437D1*
X3701555Y3585768D1*
X3707387Y3581306D1*
X3712592Y3576124D1*
X3717080Y3570312D1*
X3720777Y3563966D1*
X3723619Y3557195D1*
X3725560Y3550112D1*
X3726564Y3542837D1*
X3726592Y3535087D1*
X3725640Y3527805D1*
X3723751Y3520708D1*
X3720957Y3513917D1*
X3717306Y3507544D1*
X3712860Y3501700D1*
X3707693Y3496481D1*
X3701892Y3491977D1*
X3695557Y3488263D1*
X3688793Y3485402D1*
X3681715Y3483443D1*
X3674443Y3482418D1*
X3669704Y3482269D1*
X3669138Y3475482D1*
X3667435Y3468387D1*
X3664642Y3461646D1*
X3660830Y3455424D1*
X3656091Y3449876D1*
X3650543Y3445137D1*
X3644321Y3441325D1*
X3637580Y3438532D1*
X3630485Y3436829D1*
X3623210Y3436256D1*
X3615936Y3436829D1*
X3608841Y3438532D1*
X3602100Y3441325D1*
X3595878Y3445137D1*
X3590330Y3449876D1*
X3585591Y3455424D1*
X3584236Y3457452D1*
X3431240Y3457454D1*
X3434622Y3453218D1*
X3439254Y3445659D1*
X3442647Y3437468D1*
X3444717Y3428847D1*
X3445413Y3420008D1*
X3444717Y3411170D1*
X3442647Y3402549D1*
X3439254Y3394358D1*
X3434622Y3386799D1*
X3430923Y3382284D1*
X3440905Y3382285D1*
Y3307251D1*
X3590808Y3307285D1*
Y3238998D1*
X3810827Y3239008D1*
X3803665Y3243795D1*
X3796650Y3249719D1*
X3790364Y3256410D1*
X3784889Y3263781D1*
X3780300Y3271733D1*
X3776655Y3280160D1*
X3774005Y3288950D1*
X3772384Y3297987D1*
X3771814Y3307151D1*
X3772302Y3316319D1*
X3773841Y3325370D1*
X3776413Y3334184D1*
X3779981Y3342643D1*
X3784499Y3350636D1*
X3789907Y3358055D1*
X3796133Y3364803D1*
X3803094Y3370790D1*
X3810698Y3375936D1*
X3818843Y3380172D1*
X3827422Y3383443D1*
X3836320Y3385705D1*
X3845420Y3386928D1*
X3854599Y3387096D1*
X3863737Y3386206D1*
X3872712Y3384271D1*
X3881405Y3381316D1*
X3889700Y3377380D1*
X3897486Y3372515D1*
X3904662Y3366787D1*
X3911130Y3360271D1*
X3916805Y3353054D1*
X3921612Y3345232D1*
X3925488Y3336908D1*
X3928379Y3328194D1*
X3930249Y3319205D1*
X3931071Y3310061D1*
X3930921Y3302001D1*
X3929760Y3292894D1*
X3927558Y3283980D1*
X3925725Y3278715D1*
X3933788Y3281129D1*
X3939618Y3282289D1*
X3945522Y3282988D1*
X3951462Y3283221D1*
X3957403Y3282988D1*
X3963307Y3282289D1*
X3969137Y3281129D1*
X3977234Y3278639D1*
X3974454Y3287168D1*
X3972625Y3296166D1*
X3971843Y3305314D1*
X3972119Y3314491D1*
X3973450Y3323575D1*
X3975817Y3332446D1*
X3979190Y3340985D1*
X3983522Y3349080D1*
X3988758Y3356622D1*
X3994826Y3363512D1*
X4001647Y3369658D1*
X4009130Y3374977D1*
X4017176Y3379401D1*
X4025677Y3382869D1*
X4034521Y3385335D1*
X4043589Y3386768D1*
X4052763Y3387147D1*
X4061919Y3386469D1*
X4070936Y3384741D1*
X4079695Y3381987D1*
X4088078Y3378243D1*
X4089919Y3377256D1*
X4089388Y3676148D1*
X4083748Y3667215D1*
X4078307Y3659815D1*
X4072384Y3652796D1*
X4066006Y3646186D1*
X4059202Y3640017D1*
X4052001Y3634316D1*
X4044436Y3629107D1*
X4036541Y3624415D1*
X4028350Y3620259D1*
X4019900Y3616660D1*
X4011229Y3613631D1*
X4002375Y3611188D1*
X3993378Y3609341D1*
X3984278Y3608098D1*
X3975115Y3607465D1*
X3965931Y3607444D1*
X3956765Y3608036D1*
X3947659Y3609237D1*
X3938654Y3611044D1*
X3929790Y3613447D1*
X3921105Y3616436D1*
X3912639Y3619998D1*
X3904429Y3624116D1*
X3896513Y3628773D1*
X3888924Y3633947D1*
X3881698Y3639616D1*
X3874866Y3645754D1*
X3868458Y3652334D1*
X3862503Y3659327D1*
X3857029Y3666702D1*
X3852058Y3674425D1*
X3847613Y3682463D1*
X3843715Y3690779D1*
X3840379Y3699337D1*
X3837622Y3708098D1*
X3835456Y3717023D1*
X3833889Y3726073D1*
X3832930Y3735208D1*
X3832582Y3744386D1*
X3832847Y3753566D1*
X3833724Y3762709D1*
X3835208Y3771773D1*
X3837294Y3780718D1*
X3839971Y3789503D1*
X3843229Y3798091D1*
X3847052Y3806442D1*
X3851424Y3814520D1*
X3856325Y3822288D1*
X3861732Y3829711D1*
X3867623Y3836758D1*
X3873971Y3843396D1*
X3880748Y3849596D1*
X3887922Y3855330D1*
X3895464Y3860573D1*
X3903338Y3865301D1*
X3911510Y3869493D1*
X3919943Y3873131D1*
X3928601Y3876199D1*
X3937443Y3878682D1*
X3946432Y3880570D1*
X3955526Y3881854D1*
X3964686Y3882529D1*
X3973870Y3882591D1*
X3983039Y3882041D1*
X3992150Y3880880D1*
X4001163Y3879114D1*
X4010038Y3876751D1*
X4018737Y3873802D1*
X4027219Y3870278D1*
X4035447Y3866197D1*
X4043384Y3861577D1*
X4050996Y3856437D1*
X4058248Y3850801D1*
X4065108Y3844693D1*
X4071545Y3838142D1*
X4077531Y3831176D1*
X4083040Y3823826D1*
X4089148Y3814153D1*
X4088985Y3901285D1*
X1364110Y3901258D1*
X1369749Y3894963D1*
X1375085Y3887492D1*
X1379527Y3879456D1*
X1383014Y3870963D1*
X1385501Y3862125D1*
X1386953Y3853059D1*
X1387361Y3845008D1*
X1386832Y3835842D1*
X1385252Y3826798D1*
X1382641Y3817996D1*
X1379035Y3809553D1*
X1374481Y3801580D1*
X1369039Y3794185D1*
X1362783Y3787465D1*
X1355795Y3781510D1*
X1348169Y3776399D1*
X1340004Y3772199D1*
X1331411Y3768966D1*
X1322503Y3766744D1*
X1313398Y3765562D1*
X1304217Y3765435D1*
X1295083Y3766366D1*
X1286117Y3768342D1*
X1278912Y3770751D1*
X1281332Y3762683D1*
X1282492Y3756852D1*
X1283191Y3750949D1*
X1283424Y3745008D1*
X1283191Y3739068D1*
X1282492Y3733164D1*
X1281332Y3727334D1*
X1278843Y3719237D1*
X1287199Y3721971D1*
X1296192Y3723821D1*
X1305338Y3724623D1*
X1314516Y3724367D1*
X1323603Y3723057D1*
X1332479Y3720709D1*
X1341026Y3717356D1*
X1349131Y3713042D1*
X1356685Y3707823D1*
X1363588Y3701770D1*
X1369749Y3694963D1*
X1375085Y3687492D1*
X1379527Y3679456D1*
X1383014Y3670963D1*
X1385501Y3662125D1*
X1386953Y3653059D1*
X1387361Y3645008D1*
X1386832Y3635842D1*
X1385252Y3626798D1*
X1382641Y3617996D1*
X1379035Y3609553D1*
X1374481Y3601580D1*
X1369039Y3594185D1*
X1362783Y3587465D1*
X1355795Y3581510D1*
X1348169Y3576399D1*
X1340004Y3572199D1*
X1331411Y3568966D1*
X1322503Y3566744D1*
X1313398Y3565562D1*
X1304217Y3565435D1*
X1295083Y3566366D1*
X1286117Y3568342D1*
X1277438Y3571336D1*
X1269161Y3575310D1*
X1261396Y3580209D1*
X1254247Y3585970D1*
X1247808Y3592515D1*
X1242165Y3599757D1*
X1237393Y3607601D1*
X1233555Y3615941D1*
X1230703Y3624668D1*
X1228874Y3633666D1*
X1228092Y3642814D1*
X1228369Y3651991D1*
X1229699Y3661075D1*
X1232067Y3669946D1*
X1233453Y3673802D1*
X1225387Y3671388D1*
X1219556Y3670228D1*
X1213652Y3669529D1*
X1207712Y3669296D1*
X1201771Y3669529D1*
X1195868Y3670228D1*
X1190037Y3671388D1*
X1181941Y3673878D1*
X1184628Y3665694D1*
X1186498Y3656705D1*
X1187321Y3647561D1*
X1187171Y3639501D1*
X1186009Y3630394D1*
X1183807Y3621480D1*
X1180594Y3612880D1*
X1176412Y3604706D1*
X1171318Y3597068D1*
X1165378Y3590066D1*
X1158673Y3583795D1*
X1151290Y3578337D1*
X1143328Y3573765D1*
X1134893Y3570140D1*
X1126096Y3567510D1*
X1117056Y3565909D1*
X1107891Y3565359D1*
X1098724Y3565868D1*
X1089676Y3567428D1*
X1080868Y3570019D1*
X1072416Y3573606D1*
X1064434Y3578142D1*
X1057027Y3583567D1*
X1050293Y3589808D1*
X1044322Y3596782D1*
X1039193Y3604398D1*
X1034975Y3612552D1*
X1031723Y3621139D1*
X1029481Y3630042D1*
X1028278Y3639144D1*
X1028131Y3648324D1*
X1029042Y3657460D1*
X1030997Y3666431D1*
X1033972Y3675117D1*
X1037927Y3683403D1*
X1042809Y3691178D1*
X1048553Y3698340D1*
X1055084Y3704794D1*
X1062313Y3710453D1*
X1070146Y3715243D1*
X1078478Y3719099D1*
X1087199Y3721971D1*
X1096192Y3723821D1*
X1105338Y3724623D1*
X1114516Y3724367D1*
X1123603Y3723057D1*
X1132479Y3720709D1*
X1136512Y3719264D1*
X1134091Y3727334D1*
X1132931Y3733164D1*
X1132233Y3739068D1*
X1131999Y3745008D1*
X1132233Y3750949D1*
X1132931Y3756852D1*
X1134091Y3762683D1*
X1136581Y3770780D1*
X1127879Y3767954D1*
X1118877Y3766145D1*
X1109728Y3765384D1*
X1100551Y3765681D1*
X1091470Y3767032D1*
X1082605Y3769419D1*
X1074073Y3772811D1*
X1065988Y3777162D1*
X1058457Y3782414D1*
X1051581Y3788498D1*
X1045451Y3795333D1*
X1040148Y3802828D1*
X1035743Y3810883D1*
X1032294Y3819392D1*
X1029847Y3828241D1*
X1028435Y3837313D1*
X1028076Y3846488D1*
X1028775Y3855642D1*
X1030523Y3864656D1*
X1033297Y3873408D1*
X1037060Y3881783D1*
X1041761Y3889669D1*
X1047339Y3896962D1*
X1051326Y3901259D1*
X470235Y3901258D1*
X470213Y3696335D1*
X476424Y3708269D1*
X481325Y3716037D1*
X486732Y3723461D1*
X492623Y3730507D1*
X498971Y3737145D1*
X505748Y3743345D1*
X512922Y3749079D1*
X520464Y3754322D1*
X528338Y3759050D1*
X536510Y3763242D1*
X544943Y3766880D1*
X553601Y3769948D1*
X562443Y3772431D1*
X571432Y3774319D1*
X580526Y3775603D1*
X589686Y3776278D1*
X598870Y3776340D1*
X608039Y3775790D1*
X617150Y3774629D1*
X626163Y3772864D1*
X635038Y3770501D1*
X643737Y3767551D1*
X652219Y3764028D1*
X660447Y3759947D1*
X668384Y3755326D1*
X675996Y3750186D1*
X683248Y3744550D1*
X690108Y3738443D1*
X696545Y3731891D1*
X702531Y3724925D1*
X708040Y3717576D1*
X713045Y3709875D1*
X717526Y3701857D1*
X721462Y3693559D1*
X724836Y3685017D1*
X727633Y3676268D1*
X729840Y3667352D1*
X731447Y3658310D1*
X732448Y3649180D1*
X732843Y3638758D1*
X732537Y3629578D1*
X731619Y3620440D1*
X730093Y3611382D1*
X727967Y3602447D1*
X725249Y3593674D1*
X721953Y3585101D1*
X718092Y3576767D1*
X713684Y3568710D1*
X708748Y3560964D1*
X703307Y3553565D1*
X697384Y3546545D1*
X691006Y3539936D1*
X684202Y3533767D1*
X677001Y3528065D1*
X669436Y3522857D1*
X661541Y3518164D1*
X653350Y3514009D1*
X644900Y3510409D1*
X636229Y3507381D1*
X627375Y3504937D1*
X618378Y3503090D1*
X609278Y3501847D1*
X600115Y3501214D1*
X590931Y3501193D1*
X581765Y3501785D1*
X572659Y3502987D1*
X563654Y3504793D1*
X554790Y3507196D1*
X546105Y3510185D1*
X537639Y3513747D1*
X529429Y3517865D1*
X521513Y3522522D1*
X513924Y3527696D1*
X506698Y3533365D1*
X499866Y3539503D1*
X493458Y3546084D1*
X487503Y3553077D1*
X482029Y3560451D1*
X477058Y3568174D1*
X472613Y3576212D1*
X470222Y3581312D1*
X470213Y3359024D1*
X478480Y3362849D1*
X487200Y3365721D1*
X496193Y3367570D1*
X505339Y3368372D1*
X514517Y3368116D1*
X523604Y3366806D1*
X532481Y3364459D1*
X541028Y3361106D1*
X549132Y3356791D1*
X556686Y3351573D1*
X563589Y3345520D1*
X569750Y3338712D1*
X575087Y3331241D1*
X579528Y3323206D1*
X583015Y3314712D1*
X585502Y3305874D1*
X586955Y3296809D1*
X587363Y3288758D1*
X586834Y3279592D1*
X585253Y3270548D1*
X582642Y3261745D1*
X581975Y3259964D1*
X590038Y3262378D1*
X595869Y3263538D1*
X601773Y3264237D1*
X607713Y3264470D1*
X613653Y3264237D1*
X619557Y3263538D1*
X625388Y3262378D1*
X633484Y3259889D1*
X630704Y3268418D1*
X628875Y3277415D1*
X628094Y3286563D1*
X628370Y3295740D1*
X629701Y3304824D1*
X632068Y3313695D1*
X635440Y3322235D1*
X639773Y3330329D1*
X645008Y3337872D1*
X651077Y3344761D1*
X657898Y3350907D1*
X665381Y3356227D1*
X673427Y3360650D1*
X681928Y3364118D1*
X690771Y3366585D1*
X699840Y3368017D1*
X709014Y3368397D1*
X718170Y3367718D1*
X727187Y3365990D1*
X735945Y3363236D1*
X744329Y3359492D1*
X752225Y3354809D1*
X759531Y3349247D1*
X766148Y3342882D1*
X771988Y3335798D1*
X776974Y3328089D1*
X781040Y3319857D1*
X784132Y3311212D1*
X786208Y3302269D1*
X787242Y3293146D1*
X787278Y3285085D1*
X786327Y3275953D1*
X784331Y3266991D1*
X781317Y3258318D1*
X777325Y3250050D1*
X772408Y3242297D1*
X766632Y3235160D1*
X764353Y3232762D1*
X1018072Y3232758D1*
X1018073Y3257285D1*
X1239159D1*
X1239136Y3403348D1*
X1391747D1*
X1391743Y3464569D1*
X1523484D1*
Y3406997D1*
X1528717Y3405360D1*
X1533121Y3403116D1*
X1537120Y3400211D1*
X1554937Y3382530D1*
X1558153Y3378764D1*
X1559975Y3379318D1*
X1581005Y3400211D1*
X1585004Y3403116D1*
X1589408Y3405360D1*
X1594109Y3406888D1*
X1598991Y3407661D1*
X1601472Y3407757D1*
X1604342Y3411437D1*
Y3464569D1*
X1614138D1*
X1614136Y3615848D1*
X1794940D1*
Y3520483D1*
X2073259Y3520358D1*
X2078141Y3519584D1*
X2082842Y3518057D1*
X2087247Y3515813D1*
X2091246Y3512907D1*
X2095320Y3508970D1*
X2095337Y3556536D1*
X2091218Y3549779D1*
X2086584Y3544082D1*
X2081250Y3539034D1*
X2075306Y3534721D1*
X2068853Y3531215D1*
X2062000Y3528575D1*
X2054862Y3526847D1*
X2047561Y3526059D1*
X2040219Y3526225D1*
X2032960Y3527342D1*
X2025908Y3529391D1*
X2019181Y3532337D1*
X2012893Y3536131D1*
X2007150Y3540708D1*
X2002049Y3545992D1*
X1997677Y3551892D1*
X1994107Y3558310D1*
X1991400Y3565137D1*
X1989601Y3572257D1*
X1988741Y3579550D1*
X1988834Y3586894D1*
X1989878Y3594163D1*
X1991857Y3601235D1*
X1994736Y3607991D1*
X1998468Y3614317D1*
X2002988Y3620105D1*
X2008220Y3625257D1*
X2014077Y3629688D1*
X2020459Y3633321D1*
X2027259Y3636096D1*
X2034361Y3637966D1*
X2041645Y3638899D1*
X2048989Y3638879D1*
X2056268Y3637906D1*
X2063360Y3635998D1*
X2070144Y3633186D1*
X2076506Y3629518D1*
X2082339Y3625055D1*
X2087543Y3619874D1*
X2092032Y3614061D1*
X2095335Y3608474D1*
X2095337Y3634500D1*
X2282490Y3634599D1*
Y3556961D1*
X2547088Y3556947D1*
X2547070Y3615750D1*
X2726239Y3615848D1*
Y3520412D1*
X3015820Y3520370D1*
X3015819Y3615750D1*
X3017657D1*
X3201241Y3457471D2*
Y3436864D1*
X3176732D1*
X3176616Y3389789D1*
X3175843Y3384907D1*
X3175168Y3382517D1*
X3185314Y3382285D1*
X3346859D1*
X3343203Y3386799D1*
X3338571Y3394358D1*
X3335178Y3402549D1*
X3333108Y3411170D1*
X3332413Y3420008D1*
X3333108Y3428847D1*
X3335178Y3437468D1*
X3338571Y3445659D1*
X3343203Y3453218D1*
X3346644Y3457453D1*
X3201222Y3457454D1*
X1020115Y3145230D2*
X1018073D1*
Y3169739D1*
X730519Y3169758D1*
X727237Y3166477D1*
X727187Y3165990D1*
X735945Y3163236D1*
X744329Y3159492D1*
X752225Y3154809D1*
X759531Y3149247D1*
X766148Y3142882D1*
X771988Y3135798D1*
X776974Y3128089D1*
X781040Y3119857D1*
X784132Y3111212D1*
X786208Y3102269D1*
X787242Y3093146D1*
X787278Y3085085D1*
X786327Y3075953D1*
X784331Y3066991D1*
X781317Y3058318D1*
X777325Y3050050D1*
X772408Y3042297D1*
X766632Y3035160D1*
X760072Y3028736D1*
X752817Y3023110D1*
X744963Y3018355D1*
X736613Y3014536D1*
X727880Y3011704D1*
X718879Y3009895D1*
X709729Y3009134D1*
X700553Y3009431D1*
X691471Y3010782D1*
X682606Y3013169D1*
X674074Y3016560D1*
X665989Y3020911D1*
X658459Y3026163D1*
X651582Y3032248D1*
X645452Y3039082D1*
X640149Y3046577D1*
X635744Y3054633D1*
X632295Y3063142D1*
X629848Y3071991D1*
X628436Y3081063D1*
X628077Y3090237D1*
X628777Y3099392D1*
X630525Y3108405D1*
X633299Y3117157D1*
X633454Y3117551D1*
X625388Y3115137D1*
X619557Y3113977D1*
X613653Y3113279D1*
X607713Y3113045D1*
X601773Y3113279D1*
X595869Y3113977D1*
X590038Y3115137D1*
X581942Y3117627D1*
X584630Y3109444D1*
X586499Y3100455D1*
X587322Y3091310D1*
X587172Y3083250D1*
X586010Y3074143D1*
X583808Y3065230D1*
X580595Y3056629D1*
X576414Y3048455D1*
X571319Y3040817D1*
X565380Y3033816D1*
X558674Y3027545D1*
X551291Y3022087D1*
X543329Y3017515D1*
X534894Y3013889D1*
X526097Y3011259D1*
X517057Y3009658D1*
X507892Y3009108D1*
X498725Y3009617D1*
X489677Y3011177D1*
X480869Y3013768D1*
X472418Y3017355D1*
X470218Y3018491D1*
X470213Y796391D1*
X476424Y808270D1*
X481325Y816038D1*
X486732Y823462D1*
X492623Y830509D1*
X498971Y837147D1*
X505748Y843346D1*
X512922Y849081D1*
X520464Y854323D1*
X528338Y859051D1*
X536510Y863244D1*
X544943Y866882D1*
X553601Y869949D1*
X562443Y872432D1*
X571432Y874320D1*
X580526Y875605D1*
X589686Y876279D1*
X598870Y876342D1*
X608039Y875791D1*
X617150Y874631D1*
X626163Y872865D1*
X635038Y870502D1*
X643737Y867552D1*
X652219Y864029D1*
X660447Y859948D1*
X668384Y855327D1*
X675996Y850187D1*
X683248Y844551D1*
X690108Y838444D1*
X696545Y831893D1*
X702531Y824927D1*
X708040Y817577D1*
X713045Y809876D1*
X717526Y801859D1*
X721462Y793560D1*
X724836Y785018D1*
X727633Y776269D1*
X729840Y767354D1*
X731447Y758311D1*
X732448Y749181D1*
X732843Y738759D1*
X732537Y729580D1*
X731619Y720441D1*
X730093Y711384D1*
X727967Y702449D1*
X725249Y693675D1*
X721953Y685102D1*
X718092Y676769D1*
X713684Y668711D1*
X708748Y660965D1*
X703307Y653566D1*
X697384Y646546D1*
X691006Y639937D1*
X684202Y633768D1*
X677001Y628066D1*
X669436Y622858D1*
X661541Y618165D1*
X653350Y614010D1*
X644900Y610410D1*
X636229Y607382D1*
X627375Y604939D1*
X618378Y603092D1*
X609278Y601849D1*
X600115Y601215D1*
X590931Y601194D1*
X581765Y601786D1*
X572659Y602988D1*
X563654Y604795D1*
X554790Y607198D1*
X546105Y610187D1*
X537639Y613748D1*
X529429Y617866D1*
X521513Y622523D1*
X513924Y627697D1*
X506698Y633366D1*
X499866Y639505D1*
X493458Y646085D1*
X487503Y653078D1*
X482029Y660452D1*
X477058Y668176D1*
X472613Y676213D1*
X470222Y681314D1*
X470213Y432525D1*
X4095185Y432508D1*
X4095003Y536932D1*
X4088684Y524960D1*
X4083748Y517215D1*
X4078307Y509815D1*
X4072384Y502796D1*
X4066006Y496186D1*
X4059202Y490017D1*
X4052001Y484316D1*
X4044436Y479107D1*
X4036541Y474415D1*
X4028350Y470259D1*
X4019900Y466660D1*
X4011229Y463631D1*
X4002375Y461188D1*
X3993378Y459341D1*
X3984278Y458098D1*
X3975115Y457465D1*
X3965931Y457444D1*
X3956765Y458036D1*
X3947659Y459237D1*
X3938654Y461044D1*
X3929790Y463447D1*
X3921105Y466436D1*
X3912639Y469998D1*
X3904429Y474116D1*
X3896513Y478773D1*
X3888924Y483947D1*
X3881698Y489616D1*
X3874866Y495754D1*
X3868458Y502334D1*
X3862503Y509327D1*
X3857029Y516702D1*
X3852058Y524425D1*
X3847613Y532463D1*
X3843715Y540779D1*
X3840379Y549337D1*
X3837622Y558098D1*
X3835456Y567023D1*
X3833889Y576073D1*
X3832930Y585208D1*
X3832582Y594386D1*
X3832847Y603566D1*
X3833724Y612709D1*
X3835208Y621773D1*
X3837294Y630718D1*
X3839971Y639503D1*
X3843229Y648091D1*
X3847052Y656442D1*
X3851424Y664520D1*
X3856325Y672288D1*
X3861732Y679711D1*
X3867623Y686758D1*
X3873971Y693396D1*
X3880748Y699596D1*
X3887922Y705330D1*
X3895464Y710573D1*
X3903338Y715301D1*
X3911510Y719493D1*
X3919943Y723131D1*
X3928601Y726199D1*
X3937443Y728682D1*
X3946432Y730570D1*
X3955526Y731854D1*
X3964686Y732529D1*
X3973870Y732591D1*
X3983039Y732041D1*
X3992150Y730880D1*
X4001163Y729114D1*
X4010038Y726751D1*
X4018737Y723802D1*
X4027219Y720278D1*
X4035447Y716197D1*
X4043384Y711577D1*
X4050996Y706437D1*
X4058248Y700801D1*
X4065108Y694693D1*
X4071545Y688142D1*
X4077531Y681176D1*
X4083040Y673826D1*
X4088045Y666126D1*
X4094786Y653343D1*
X4090529Y3038128D1*
X4083755Y3034699D1*
X4075162Y3031466D1*
X4066253Y3029244D1*
X4057148Y3028062D1*
X4047968Y3027935D1*
X4038834Y3028866D1*
X4029868Y3030842D1*
X4021189Y3033836D1*
X4012912Y3037810D1*
X4005147Y3042709D1*
X3997998Y3048470D1*
X3991559Y3055015D1*
X3985916Y3062257D1*
X3981144Y3070101D1*
X3977306Y3078441D1*
X3974454Y3087168D1*
X3972625Y3096166D1*
X3971843Y3105314D1*
X3972119Y3114491D1*
X3973450Y3123575D1*
X3975817Y3132446D1*
X3977203Y3136302D1*
X3969137Y3133888D1*
X3963307Y3132728D1*
X3957403Y3132029D1*
X3951462Y3131796D1*
X3945522Y3132029D1*
X3939618Y3132728D1*
X3933788Y3133888D1*
X3925691Y3136378D1*
X3928379Y3128194D1*
X3930249Y3119205D1*
X3931071Y3110061D1*
X3930921Y3102001D1*
X3929760Y3092894D1*
X3927558Y3083980D1*
X3924345Y3075380D1*
X3920163Y3067206D1*
X3915069Y3059568D1*
X3909129Y3052566D1*
X3902423Y3046295D1*
X3895040Y3040837D1*
X3887078Y3036265D1*
X3878643Y3032640D1*
X3869847Y3030010D1*
X3860806Y3028409D1*
X3851641Y3027859D1*
X3842474Y3028368D1*
X3833426Y3029928D1*
X3824618Y3032519D1*
X3816167Y3036106D1*
X3808185Y3040642D1*
X3800777Y3046067D1*
X3794043Y3052308D1*
X3788072Y3059282D1*
X3782944Y3066898D1*
X3778725Y3075052D1*
X3775474Y3083639D1*
X3773232Y3092542D1*
X3772029Y3101644D1*
X3771882Y3110824D1*
X3772792Y3119960D1*
X3774748Y3128931D1*
X3777723Y3137617D1*
X3781677Y3145903D1*
X3786559Y3153678D1*
X3792304Y3160840D1*
X3798834Y3167294D1*
X3806064Y3172953D1*
X3810828Y3176011D1*
X3536246Y3176105D1*
X3531364Y3176879D1*
X3526663Y3178406D1*
X3522258Y3180650D1*
X3518259Y3183556D1*
X3514764Y3187051D1*
X3511859Y3191050D1*
X3510646Y3193216D1*
X3508131Y3195230D1*
X3444918D1*
X3444940Y3124168D1*
X3332885D1*
Y3270202D1*
X3205942Y3270230D1*
X3209622Y3265718D1*
X3214254Y3258159D1*
X3217647Y3249968D1*
X3219717Y3241347D1*
X3220413Y3232508D1*
X3219717Y3223670D1*
X3217647Y3215049D1*
X3214254Y3206858D1*
X3209622Y3199299D1*
X3203864Y3192557D1*
X3197122Y3186799D1*
X3189563Y3182167D1*
X3181372Y3178774D1*
X3172751Y3176704D1*
X3163913Y3176008D1*
X3155074Y3176704D1*
X3146453Y3178774D1*
X3138262Y3182167D1*
X3135253Y3183852D1*
X3133061Y3177214D1*
X3129748Y3170712D1*
X3125459Y3164809D1*
X3120300Y3159650D1*
X3114396Y3155361D1*
X3107895Y3152048D1*
X3100955Y3149793D1*
X3093749Y3148652D1*
X3086452D1*
X3079245Y3149793D1*
X3072305Y3152048D1*
X3065804Y3155361D1*
X3059901Y3159650D1*
X3055952Y3163500D1*
X3053356Y3154726D1*
Y3070230D1*
X2993179D1*
X2997665Y3066209D1*
X3003423Y3059468D1*
X3008055Y3051908D1*
X3011448Y3043717D1*
X3013518Y3035096D1*
X3014213Y3026258D1*
X3013518Y3017419D1*
X3011448Y3008798D1*
X3008055Y3000607D1*
X3006082Y2997084D1*
X3013741Y2997099D1*
Y2818115D1*
X3001576D1*
X3005887Y2812030D1*
X3009912Y2804130D1*
X3012652Y2795698D1*
X3014039Y2786941D1*
Y2778075D1*
X3012652Y2769319D1*
X3009912Y2760887D1*
X3005887Y2752987D1*
X3001695Y2747107D1*
X3013741Y2747099D1*
Y2568115D1*
X3005954D1*
X3009912Y2560379D1*
X3012652Y2551947D1*
X3014039Y2543191D1*
Y2534325D1*
X3012652Y2525568D1*
X3009912Y2517136D1*
X3005887Y2509237D1*
X3000676Y2502064D1*
X2994407Y2495795D1*
X2987234Y2490584D1*
X2979335Y2486559D1*
X2970903Y2483819D1*
X2962146Y2482432D1*
X2953280D1*
X2946852Y2483356D1*
X2940809Y2477068D1*
X3017431D1*
Y2138995D1*
X3022389Y2135524D1*
X3040205Y2117845D1*
X3043415Y2114087D1*
X3045998Y2109872D1*
X3047889Y2105305D1*
X3049043Y2100499D1*
X3049431Y2095562D1*
X3049334Y2040256D1*
X3048561Y2035374D1*
X3047033Y2030673D1*
X3044789Y2026269D1*
X3041884Y2022270D1*
X3013131Y1993380D1*
X3014038Y1986941D1*
Y1978075D1*
X3012651Y1969319D1*
X3009911Y1960887D1*
X3009323Y1959612D1*
X3013741Y1959599D1*
Y1898632D1*
X3018634Y1896154D1*
X3022633Y1893249D1*
X3054986Y1861033D1*
X3058196Y1857274D1*
X3060779Y1853060D1*
X3062670Y1848493D1*
X3063824Y1843687D1*
X3064212Y1838759D1*
Y1433088D1*
X3102308Y1394961D1*
X3287070Y1394981D1*
X3286872Y1481254D1*
Y1582285D1*
X3506536D1*
X3498435Y1582731D1*
X3286872D1*
Y1694786D1*
X3628356Y1694787D1*
Y1670278D1*
X3663813Y1670162D1*
X3668695Y1669389D1*
X3673405Y1667857D1*
X3688189Y1667562D1*
X3693520Y1674878D1*
X3700151Y1681510D1*
X3707739Y1687023D1*
X3714147Y1690382D1*
X3707739Y1693803D1*
X3700151Y1699315D1*
X3693520Y1705947D1*
X3688007Y1713534D1*
X3683749Y1721891D1*
X3680851Y1730810D1*
X3679384Y1740074D1*
Y1749452D1*
X3680851Y1758715D1*
X3683749Y1767635D1*
X3688007Y1775992D1*
X3693520Y1783579D1*
X3700151Y1790211D1*
X3707739Y1795723D1*
X3714147Y1799083D1*
X3707739Y1802503D1*
X3700151Y1808016D1*
X3693520Y1814648D1*
X3688007Y1822235D1*
X3683749Y1830592D1*
X3680851Y1839511D1*
X3679384Y1848774D1*
Y1858153D1*
X3680851Y1867416D1*
X3683749Y1876336D1*
X3688007Y1884692D1*
X3693520Y1892280D1*
X3700151Y1898912D1*
X3707739Y1904424D1*
X3714147Y1907784D1*
X3707739Y1911204D1*
X3700151Y1916717D1*
X3693520Y1923349D1*
X3688007Y1930936D1*
X3683749Y1939292D1*
X3680851Y1948212D1*
X3679384Y1957475D1*
Y1966854D1*
X3680851Y1976117D1*
X3683749Y1985037D1*
X3688007Y1993393D1*
X3693520Y2000981D1*
X3700151Y2007612D1*
X3707739Y2013125D1*
X3714147Y2016485D1*
X3707739Y2019905D1*
X3700151Y2025418D1*
X3693520Y2032049D1*
X3688007Y2039637D1*
X3683749Y2047993D1*
X3680851Y2056913D1*
X3679384Y2066176D1*
Y2075555D1*
X3680851Y2084818D1*
X3683749Y2093737D1*
X3688007Y2102094D1*
X3693520Y2109681D1*
X3700151Y2116313D1*
X3707739Y2121826D1*
X3714147Y2125186D1*
X3707739Y2128606D1*
X3700151Y2134118D1*
X3693520Y2140750D1*
X3688007Y2148338D1*
X3683749Y2156694D1*
X3680851Y2165614D1*
X3679384Y2174877D1*
Y2184255D1*
X3680851Y2193519D1*
X3683749Y2202438D1*
X3688007Y2210795D1*
X3693520Y2218382D1*
X3700151Y2225014D1*
X3707739Y2230526D1*
X3714147Y2233886D1*
X3707739Y2237307D1*
X3700151Y2242819D1*
X3693520Y2249451D1*
X3688007Y2257038D1*
X3683749Y2265395D1*
X3680851Y2274314D1*
X3679384Y2283578D1*
Y2292956D1*
X3680851Y2302219D1*
X3683749Y2311139D1*
X3688007Y2319495D1*
X3693520Y2327083D1*
X3700151Y2333715D1*
X3707739Y2339227D1*
X3714147Y2342587D1*
X3707739Y2346007D1*
X3700151Y2351520D1*
X3693520Y2358152D1*
X3688007Y2365739D1*
X3683749Y2374096D1*
X3680851Y2383015D1*
X3679384Y2392278D1*
Y2401657D1*
X3680851Y2410920D1*
X3683749Y2419840D1*
X3688007Y2428196D1*
X3693520Y2435784D1*
X3700151Y2442415D1*
X3707739Y2447928D1*
X3714147Y2451288D1*
X3707739Y2454708D1*
X3700151Y2460221D1*
X3693520Y2466852D1*
X3688007Y2474440D1*
X3683749Y2482796D1*
X3680851Y2491716D1*
X3679384Y2500979D1*
Y2510358D1*
X3680851Y2519621D1*
X3683749Y2528541D1*
X3688007Y2536897D1*
X3693520Y2544485D1*
X3700151Y2551116D1*
X3707739Y2556629D1*
X3716095Y2560887D1*
X3725015Y2563785D1*
X3734278Y2565252D1*
X3743657D1*
X3752920Y2563785D1*
X3761839Y2560887D1*
X3770196Y2556629D1*
X3777783Y2551116D1*
X3784415Y2544485D1*
X3789928Y2536897D1*
X3794185Y2528541D1*
X3797084Y2519621D1*
X3798551Y2510358D1*
Y2500979D1*
X3797084Y2491716D1*
X3794185Y2482796D1*
X3789928Y2474440D1*
X3784415Y2466852D1*
X3777783Y2460221D1*
X3770196Y2454708D1*
X3763787Y2451348D1*
X3770196Y2447928D1*
X3777783Y2442415D1*
X3784415Y2435784D1*
X3789928Y2428196D1*
X3794185Y2419840D1*
X3797084Y2410920D1*
X3798551Y2401657D1*
Y2392278D1*
X3797084Y2383015D1*
X3794185Y2374096D1*
X3789928Y2365739D1*
X3784415Y2358152D1*
X3777783Y2351520D1*
X3770196Y2346007D1*
X3763787Y2342647D1*
X3770196Y2339227D1*
X3777783Y2333715D1*
X3784415Y2327083D1*
X3789928Y2319495D1*
X3794185Y2311139D1*
X3797084Y2302219D1*
X3798551Y2292956D1*
Y2283578D1*
X3797084Y2274314D1*
X3794185Y2265395D1*
X3789928Y2257038D1*
X3784415Y2249451D1*
X3777783Y2242819D1*
X3770196Y2237307D1*
X3763787Y2233947D1*
X3770196Y2230526D1*
X3777783Y2225014D1*
X3784415Y2218382D1*
X3789928Y2210795D1*
X3794185Y2202438D1*
X3797084Y2193519D1*
X3798551Y2184255D1*
Y2174877D1*
X3797084Y2165614D1*
X3794185Y2156694D1*
X3789928Y2148338D1*
X3784415Y2140750D1*
X3777783Y2134118D1*
X3770196Y2128606D1*
X3763787Y2125246D1*
X3770196Y2121826D1*
X3777783Y2116313D1*
X3784415Y2109681D1*
X3789928Y2102094D1*
X3794185Y2093737D1*
X3797084Y2084818D1*
X3798551Y2075555D1*
Y2066176D1*
X3797084Y2056913D1*
X3794185Y2047993D1*
X3789928Y2039637D1*
X3784415Y2032049D1*
X3777783Y2025418D1*
X3770196Y2019905D1*
X3763787Y2016545D1*
X3770196Y2013125D1*
X3777783Y2007612D1*
X3784415Y2000981D1*
X3789928Y1993393D1*
X3794185Y1985037D1*
X3797084Y1976117D1*
X3798551Y1966854D1*
Y1957475D1*
X3797084Y1948212D1*
X3794185Y1939292D1*
X3789928Y1930936D1*
X3784415Y1923349D1*
X3777783Y1916717D1*
X3770196Y1911204D1*
X3763787Y1907844D1*
X3770196Y1904424D1*
X3777783Y1898912D1*
X3784415Y1892280D1*
X3789928Y1884692D1*
X3794185Y1876336D1*
X3797084Y1867416D1*
X3798551Y1858153D1*
Y1848774D1*
X3797084Y1839511D1*
X3794185Y1830592D1*
X3789928Y1822235D1*
X3784415Y1814648D1*
X3777783Y1808016D1*
X3770196Y1802503D1*
X3763787Y1799144D1*
X3770196Y1795723D1*
X3777783Y1790211D1*
X3784415Y1783579D1*
X3789928Y1775992D1*
X3794185Y1767635D1*
X3797084Y1758715D1*
X3798551Y1749452D1*
Y1740074D1*
X3797084Y1730810D1*
X3794185Y1721891D1*
X3789928Y1713534D1*
X3784415Y1705947D1*
X3777783Y1699315D1*
X3770196Y1693803D1*
X3763787Y1690443D1*
X3770196Y1687023D1*
X3777783Y1681510D1*
X3784415Y1674878D1*
X3789928Y1667291D1*
X3794185Y1658934D1*
X3797084Y1650015D1*
X3798551Y1640752D1*
Y1631373D1*
X3797084Y1622110D1*
X3794185Y1613190D1*
X3789928Y1604834D1*
X3784415Y1597246D1*
X3777783Y1590614D1*
X3770196Y1585102D1*
X3763787Y1581742D1*
X3770196Y1578322D1*
X3777783Y1572809D1*
X3784415Y1566177D1*
X3789928Y1558590D1*
X3794185Y1550234D1*
X3797084Y1541314D1*
X3798551Y1532051D1*
Y1522672D1*
X3797084Y1513409D1*
X3794185Y1504489D1*
X3789928Y1496133D1*
X3784415Y1488545D1*
X3777783Y1481914D1*
X3770196Y1476401D1*
X3763787Y1473041D1*
X3770196Y1469621D1*
X3777783Y1464108D1*
X3784415Y1457477D1*
X3789928Y1449889D1*
X3794185Y1441533D1*
X3797084Y1432613D1*
X3798551Y1423350D1*
Y1413971D1*
X3797084Y1404708D1*
X3794185Y1395789D1*
X3789928Y1387432D1*
X3784415Y1379845D1*
X3777783Y1373213D1*
X3770196Y1367700D1*
X3763787Y1364340D1*
X3770196Y1360920D1*
X3777783Y1355408D1*
X3784415Y1348776D1*
X3789928Y1341188D1*
X3794185Y1332832D1*
X3797084Y1323912D1*
X3798551Y1314649D1*
Y1305271D1*
X3797084Y1296007D1*
X3794185Y1287088D1*
X3789928Y1278731D1*
X3784415Y1271144D1*
X3777783Y1264512D1*
X3773229Y1261026D1*
X3791266Y1261027D1*
X3792662Y1269569D1*
X3795560Y1278488D1*
X3799818Y1286845D1*
X3805331Y1294432D1*
X3811962Y1301064D1*
X3819550Y1306576D1*
X3825958Y1309936D1*
X3819550Y1313356D1*
X3811962Y1318869D1*
X3805331Y1325501D1*
X3799818Y1333088D1*
X3795560Y1341445D1*
X3792662Y1350364D1*
X3791195Y1359627D1*
Y1369006D1*
X3792662Y1378269D1*
X3795560Y1387189D1*
X3799818Y1395545D1*
X3805331Y1403133D1*
X3811962Y1409765D1*
X3819550Y1415277D1*
X3825958Y1418637D1*
X3819550Y1422057D1*
X3811962Y1427570D1*
X3805331Y1434202D1*
X3799818Y1441789D1*
X3795560Y1450145D1*
X3792662Y1459065D1*
X3791195Y1468328D1*
Y1477707D1*
X3792662Y1486970D1*
X3795560Y1495890D1*
X3799818Y1504246D1*
X3805331Y1511834D1*
X3811962Y1518465D1*
X3819550Y1523978D1*
X3825958Y1527338D1*
X3819550Y1530758D1*
X3811962Y1536271D1*
X3805331Y1542902D1*
X3799818Y1550490D1*
X3795560Y1558846D1*
X3792662Y1567766D1*
X3791195Y1577029D1*
Y1586408D1*
X3792662Y1595671D1*
X3795560Y1604590D1*
X3799818Y1612947D1*
X3805331Y1620534D1*
X3811962Y1627166D1*
X3819550Y1632679D1*
X3825958Y1636039D1*
X3819550Y1639459D1*
X3811962Y1644971D1*
X3805331Y1651603D1*
X3799818Y1659191D1*
X3795560Y1667547D1*
X3792662Y1676467D1*
X3791195Y1685730D1*
Y1695108D1*
X3792662Y1704372D1*
X3795560Y1713291D1*
X3799818Y1721648D1*
X3805331Y1729235D1*
X3811962Y1735867D1*
X3819550Y1741380D1*
X3825958Y1744739D1*
X3819550Y1748160D1*
X3811962Y1753672D1*
X3805331Y1760304D1*
X3799818Y1767891D1*
X3795560Y1776248D1*
X3792662Y1785167D1*
X3791195Y1794431D1*
Y1803809D1*
X3792662Y1813072D1*
X3795560Y1821992D1*
X3799818Y1830348D1*
X3805331Y1837936D1*
X3811962Y1844568D1*
X3819550Y1850080D1*
X3825958Y1853440D1*
X3819524Y1856876D1*
X3813512Y1861094D1*
X3808062Y1866017D1*
X3803257Y1871572D1*
X3799170Y1877674D1*
X3795863Y1884232D1*
X3793384Y1891145D1*
X3791772Y1898311D1*
X3791051Y1905620D1*
X3791232Y1912962D1*
X3792312Y1920227D1*
X3794275Y1927304D1*
X3797091Y1934087D1*
X3800718Y1940473D1*
X3805101Y1946367D1*
X3810174Y1951678D1*
X3815859Y1956327D1*
X3822072Y1960244D1*
X3825917Y1962165D1*
X3819550Y1965561D1*
X3811962Y1971074D1*
X3805331Y1977705D1*
X3799818Y1985293D1*
X3795560Y1993649D1*
X3792662Y2002569D1*
X3791195Y2011832D1*
Y2021211D1*
X3792662Y2030474D1*
X3795560Y2039394D1*
X3799818Y2047750D1*
X3805331Y2055338D1*
X3811962Y2061969D1*
X3819550Y2067482D1*
X3825958Y2070842D1*
X3819550Y2074262D1*
X3811962Y2079775D1*
X3805331Y2086406D1*
X3799818Y2093994D1*
X3795560Y2102350D1*
X3792662Y2111270D1*
X3791195Y2120533D1*
Y2129912D1*
X3792662Y2139175D1*
X3795560Y2148094D1*
X3799818Y2156451D1*
X3805331Y2164038D1*
X3811962Y2170670D1*
X3819550Y2176183D1*
X3825958Y2179543D1*
X3819550Y2182963D1*
X3811962Y2188475D1*
X3805331Y2195107D1*
X3799818Y2202695D1*
X3795560Y2211051D1*
X3792662Y2219971D1*
X3791195Y2229234D1*
Y2238612D1*
X3792662Y2247876D1*
X3795560Y2256795D1*
X3799818Y2265152D1*
X3805331Y2272739D1*
X3811962Y2279371D1*
X3819550Y2284883D1*
X3825958Y2288243D1*
X3819550Y2291664D1*
X3811962Y2297176D1*
X3805331Y2303808D1*
X3799818Y2311395D1*
X3795560Y2319752D1*
X3792662Y2328671D1*
X3791195Y2337935D1*
Y2347313D1*
X3792662Y2356576D1*
X3795560Y2365496D1*
X3799818Y2373852D1*
X3805331Y2381440D1*
X3811962Y2388072D1*
X3819550Y2393584D1*
X3825958Y2396944D1*
X3819550Y2400364D1*
X3811962Y2405877D1*
X3805331Y2412509D1*
X3799818Y2420096D1*
X3795560Y2428453D1*
X3792662Y2437372D1*
X3791195Y2446635D1*
Y2456014D1*
X3792662Y2465277D1*
X3795560Y2474197D1*
X3799818Y2482553D1*
X3805331Y2490141D1*
X3811962Y2496772D1*
X3819550Y2502285D1*
X3827906Y2506543D1*
X3836826Y2509441D1*
X3846089Y2510908D1*
X3855468D1*
X3864731Y2509441D1*
X3873650Y2506543D1*
X3882007Y2502285D1*
X3889594Y2496772D1*
X3896226Y2490141D1*
X3901739Y2482553D1*
X3905996Y2474197D1*
X3908895Y2465277D1*
X3910362Y2456014D1*
Y2446635D1*
X3908895Y2437372D1*
X3905996Y2428453D1*
X3901739Y2420096D1*
X3896226Y2412509D1*
X3889594Y2405877D1*
X3882007Y2400364D1*
X3875598Y2397004D1*
X3882007Y2393584D1*
X3889594Y2388072D1*
X3896226Y2381440D1*
X3901739Y2373852D1*
X3905996Y2365496D1*
X3908895Y2356576D1*
X3910362Y2347313D1*
Y2337935D1*
X3908895Y2328671D1*
X3905996Y2319752D1*
X3901739Y2311395D1*
X3896226Y2303808D1*
X3889594Y2297176D1*
X3882007Y2291664D1*
X3875598Y2288304D1*
X3882007Y2284883D1*
X3889594Y2279371D1*
X3896226Y2272739D1*
X3901739Y2265152D1*
X3905996Y2256795D1*
X3908895Y2247876D1*
X3910362Y2238612D1*
Y2229234D1*
X3908895Y2219971D1*
X3905996Y2211051D1*
X3901739Y2202695D1*
X3896226Y2195107D1*
X3889594Y2188475D1*
X3882007Y2182963D1*
X3875598Y2179603D1*
X3882007Y2176183D1*
X3889594Y2170670D1*
X3896226Y2164038D1*
X3901739Y2156451D1*
X3905996Y2148094D1*
X3908895Y2139175D1*
X3910362Y2129912D1*
Y2120533D1*
X3908895Y2111270D1*
X3905996Y2102350D1*
X3901739Y2093994D1*
X3896226Y2086406D1*
X3889594Y2079775D1*
X3882007Y2074262D1*
X3875598Y2070902D1*
X3882007Y2067482D1*
X3889594Y2061969D1*
X3896226Y2055338D1*
X3901739Y2047750D1*
X3905996Y2039394D1*
X3908895Y2030474D1*
X3910362Y2021211D1*
Y2011832D1*
X3908895Y2002569D1*
X3905996Y1993649D1*
X3901739Y1985293D1*
X3896226Y1977705D1*
X3889594Y1971074D1*
X3882007Y1965561D1*
X3875598Y1962201D1*
X3881721Y1958955D1*
X3887759Y1954774D1*
X3893239Y1949884D1*
X3898077Y1944358D1*
X3902202Y1938281D1*
X3905549Y1931744D1*
X3908070Y1924846D1*
X3909725Y1917690D1*
X3910491Y1910386D1*
X3910292Y1902317D1*
X3909168Y1895059D1*
X3907162Y1887994D1*
X3904304Y1881228D1*
X3900638Y1874864D1*
X3896220Y1868997D1*
X3891115Y1863717D1*
X3885401Y1859103D1*
X3879164Y1855224D1*
X3875636Y1853471D1*
X3882007Y1850080D1*
X3889594Y1844568D1*
X3896226Y1837936D1*
X3901739Y1830348D1*
X3905996Y1821992D1*
X3908895Y1813072D1*
X3910362Y1803809D1*
Y1794431D1*
X3908895Y1785167D1*
X3905996Y1776248D1*
X3901739Y1767891D1*
X3896226Y1760304D1*
X3889594Y1753672D1*
X3882007Y1748160D1*
X3875598Y1744800D1*
X3882007Y1741380D1*
X3889594Y1735867D1*
X3896226Y1729235D1*
X3901739Y1721648D1*
X3905996Y1713291D1*
X3908895Y1704372D1*
X3910362Y1695108D1*
Y1685730D1*
X3908895Y1676467D1*
X3905996Y1667547D1*
X3901739Y1659191D1*
X3896226Y1651603D1*
X3889594Y1644971D1*
X3882007Y1639459D1*
X3875598Y1636099D1*
X3882007Y1632679D1*
X3889594Y1627166D1*
X3896226Y1620534D1*
X3901739Y1612947D1*
X3905996Y1604590D1*
X3908895Y1595671D1*
X3910362Y1586408D1*
Y1577029D1*
X3908895Y1567766D1*
X3905996Y1558846D1*
X3901739Y1550490D1*
X3896226Y1542902D1*
X3889594Y1536271D1*
X3882007Y1530758D1*
X3875598Y1527398D1*
X3882007Y1523978D1*
X3889594Y1518465D1*
X3896226Y1511834D1*
X3901739Y1504246D1*
X3905996Y1495890D1*
X3908895Y1486970D1*
X3910362Y1477707D1*
Y1468328D1*
X3908895Y1459065D1*
X3905996Y1450145D1*
X3901739Y1441789D1*
X3896226Y1434202D1*
X3889594Y1427570D1*
X3882007Y1422057D1*
X3875598Y1418697D1*
X3882007Y1415277D1*
X3889594Y1409765D1*
X3896226Y1403133D1*
X3901739Y1395545D1*
X3905996Y1387189D1*
X3908895Y1378269D1*
X3910362Y1369006D1*
Y1359627D1*
X3908895Y1350364D1*
X3905996Y1341445D1*
X3901739Y1333088D1*
X3896226Y1325501D1*
X3889594Y1318869D1*
X3882007Y1313356D1*
X3875598Y1309997D1*
X3882007Y1306576D1*
X3889594Y1301064D1*
X3896226Y1294432D1*
X3901739Y1286845D1*
X3905996Y1278488D1*
X3908895Y1269569D1*
X3910362Y1260305D1*
Y1250927D1*
X3908895Y1241664D1*
X3905996Y1232744D1*
X3901739Y1224387D1*
X3896226Y1216800D1*
X3889594Y1210168D1*
X3882007Y1204656D1*
X3873650Y1200398D1*
X3864731Y1197500D1*
X3855468Y1196033D1*
X3846089D1*
X3836826Y1197500D1*
X3827906Y1200398D1*
X3819550Y1204656D1*
X3811962Y1210168D1*
X3805331Y1216800D1*
X3799818Y1224387D1*
X3798734Y1226323D1*
X3798735Y1141491D1*
X3679200D1*
Y1261027D1*
X3704642D1*
X3700151Y1264512D1*
X3693520Y1271144D1*
X3688007Y1278731D1*
X3683749Y1287088D1*
X3680851Y1296007D1*
X3679384Y1305271D1*
Y1314649D1*
X3680851Y1323912D1*
X3683749Y1332832D1*
X3688007Y1341188D1*
X3693520Y1348776D1*
X3700151Y1355408D1*
X3707739Y1360920D1*
X3714147Y1364280D1*
X3707739Y1367700D1*
X3700151Y1373213D1*
X3693520Y1379845D1*
X3688180Y1387173D1*
X3660895Y1387258D1*
X3652833Y1388508D1*
X3628324D1*
X3628356Y1363981D1*
X3565451D1*
X3562010Y1359023D1*
X3544331Y1341207D1*
X3540572Y1337997D1*
X3536358Y1335414D1*
X3531791Y1333522D1*
X3526985Y1332369D1*
X3522047Y1331981D1*
X3086769Y1332078D1*
X3081887Y1332851D1*
X3077186Y1334379D1*
X3072782Y1336623D1*
X3068783Y1339528D1*
X3021497Y1386677D1*
X3008759Y1399552D1*
X3005854Y1403551D1*
X3003610Y1407955D1*
X3002082Y1412656D1*
X3001309Y1417538D1*
X3001212Y1477676D1*
X2994407Y1470795D1*
X2987234Y1465584D1*
X2979335Y1461559D1*
X2970903Y1458819D1*
X2962146Y1457432D1*
X2953280D1*
X2946852Y1458356D1*
X2897395Y1408892D1*
X2897403Y1307872D1*
X2903192Y1311933D1*
X2911092Y1315958D1*
X2919523Y1318698D1*
X2928280Y1320085D1*
X2937146D1*
X2945903Y1318698D1*
X2954335Y1315958D1*
X2962234Y1311933D1*
X2969407Y1306722D1*
X2975676Y1300453D1*
X2980887Y1293280D1*
X2984912Y1285381D1*
X2987652Y1276949D1*
X2989039Y1268192D1*
Y1259326D1*
X2987652Y1250569D1*
X2984912Y1242137D1*
X2980887Y1234238D1*
X2976695Y1228358D1*
X2988741Y1228348D1*
Y1049364D1*
X2976576D1*
X2980887Y1043280D1*
X2984912Y1035381D1*
X2987652Y1026949D1*
X2989039Y1018192D1*
Y1009326D1*
X2987652Y1000569D1*
X2984912Y992137D1*
X2980887Y984238D1*
X2976695Y978358D1*
X2988741Y978348D1*
Y799364D1*
X2976576D1*
X2980886Y793280D1*
X2984911Y785381D1*
X2987651Y776949D1*
X2989038Y768192D1*
Y759326D1*
X2987651Y750569D1*
X2984911Y742137D1*
X2980886Y734238D1*
X2975675Y727065D1*
X2969406Y720796D1*
X2962233Y715585D1*
X2954333Y711560D1*
X2945901Y708820D1*
X2937145Y707433D1*
X2928279D1*
X2919522Y708820D1*
X2911090Y711560D1*
X2903191Y715585D1*
X2896018Y720796D1*
X2889749Y727065D1*
X2884538Y734238D1*
X2880513Y742137D1*
X2877773Y750569D1*
X2876386Y759326D1*
Y768192D1*
X2877773Y776949D1*
X2880513Y785381D1*
X2884538Y793280D1*
X2888880Y799351D1*
X2876686Y799364D1*
Y819925D1*
X2761151Y819955D1*
X2761182Y812947D1*
X2629442D1*
Y1239569D1*
X2761182D1*
Y1232786D1*
X2834435Y1232758D1*
X2834500Y1424419D1*
X2835274Y1429302D1*
X2836801Y1434003D1*
X2839045Y1438407D1*
X2841951Y1442406D1*
X2889100Y1489692D1*
X2902269Y1502861D1*
X2901387Y1509325D1*
Y1518191D1*
X2902774Y1526947D1*
X2905514Y1535379D1*
X2909446Y1543113D1*
X2901686Y1543115D1*
Y1722099D1*
X2909329D1*
X2905514Y1729636D1*
X2902774Y1738068D1*
X2901387Y1746825D1*
Y1755691D1*
X2902774Y1764447D1*
X2905514Y1772879D1*
X2909446Y1780613D1*
X2901686Y1780615D1*
Y1837778D1*
X2818861Y1837893D1*
X2813979Y1838666D1*
X2809278Y1840194D1*
X2807023Y1841234D1*
X2803633Y1841229D1*
X2799067Y1839337D1*
X2794260Y1838184D1*
X2789333Y1837796D1*
X2540173D1*
X2539683Y1832550D1*
X2539586Y1802286D1*
X2538813Y1797404D1*
X2537285Y1792703D1*
X2535041Y1788299D1*
X2532136Y1784300D1*
X2514457Y1766484D1*
X2510698Y1763274D1*
X2506484Y1760691D1*
X2501917Y1758799D1*
X2497111Y1757645D1*
X2492173Y1757258D1*
X2447077D1*
X2447106Y1750948D1*
X2453202Y1749111D1*
X2457606Y1746867D1*
X2461605Y1743961D1*
X2479421Y1726282D1*
X2482632Y1722524D1*
X2485214Y1718309D1*
X2487106Y1713742D1*
X2488260Y1708936D1*
X2488647Y1703999D1*
X2488648Y1665218D1*
X2496477Y1671825D1*
X2506080Y1677710D1*
X2516486Y1682020D1*
X2527438Y1684650D1*
X2538666Y1685533D1*
X2549894Y1684650D1*
X2560846Y1682020D1*
X2571251Y1677710D1*
X2580855Y1671825D1*
X2589419Y1664511D1*
X2596734Y1655946D1*
X2602618Y1646343D1*
X2604692Y1641845D1*
X2604686Y1685533D1*
X2748237D1*
Y1541982D1*
X2604686D1*
Y1585581D1*
X2599865Y1576255D1*
X2593244Y1567143D1*
X2585280Y1559179D1*
X2576169Y1552559D1*
X2566133Y1547446D1*
X2555422Y1543965D1*
X2544297Y1542203D1*
X2533034D1*
X2521910Y1543965D1*
X2511199Y1547446D1*
X2501163Y1552559D1*
X2492051Y1559179D1*
X2488640Y1562332D1*
X2488550Y1541971D1*
X2487777Y1537089D1*
X2486250Y1532388D1*
X2484006Y1527984D1*
X2481100Y1523985D1*
X2436238Y1478985D1*
X2432479Y1475775D1*
X2428265Y1473192D1*
X2423698Y1471301D1*
X2418891Y1470147D1*
X2413954Y1469759D1*
X2378331D1*
X2378356Y1464023D1*
X2519556Y1463911D1*
X2524438Y1463138D1*
X2529139Y1461611D1*
X2533543Y1459367D1*
X2537542Y1456461D1*
X2555358Y1438782D1*
X2558569Y1435024D1*
X2561151Y1430809D1*
X2563043Y1426242D1*
X2564197Y1421436D1*
X2564584Y1416499D1*
X2564585Y1053109D1*
X2589037Y1028529D1*
X2591943Y1024530D1*
X2594187Y1020126D1*
X2595714Y1015425D1*
X2596488Y1010543D1*
X2596585Y943767D1*
X2596488Y589788D1*
X2595714Y584905D1*
X2594187Y580204D1*
X2591943Y575800D1*
X2589037Y571801D1*
X2571358Y553985D1*
X2567600Y550775D1*
X2563385Y548192D1*
X2558819Y546301D1*
X2554012Y545147D1*
X2549075Y544759D1*
X2230110D1*
X2230090Y520231D1*
X2228331D1*
X2228356Y451481D1*
X2049372D1*
Y563536D1*
X2051102D1*
X2051106Y585289D1*
X1740160Y585385D1*
X1735278Y586158D1*
X1730577Y587686D1*
X1726173Y589930D1*
X1722174Y592835D1*
X1697344Y617528D1*
X1691759Y617656D1*
X1684552Y618797D1*
X1677613Y621052D1*
X1671111Y624365D1*
X1665208Y628653D1*
X1660048Y633813D1*
X1655760Y639716D1*
X1652447Y646218D1*
X1650192Y653157D1*
X1649051Y660364D1*
Y667661D1*
X1650192Y674868D1*
X1652447Y681807D1*
X1655760Y688309D1*
X1660048Y694212D1*
X1663899Y698161D1*
X1663907Y713999D1*
X1643317Y713981D1*
Y780617D1*
X1638543Y776614D1*
X1632321Y772801D1*
X1625580Y770009D1*
X1618485Y768305D1*
X1611210Y767733D1*
X1603936Y768305D1*
X1596841Y770009D1*
X1590100Y772801D1*
X1583878Y776614D1*
X1578330Y781352D1*
X1577062Y782724D1*
X1443845Y782830D1*
X1438963Y783603D1*
X1434262Y785130D1*
X1429858Y787375D1*
X1425859Y790280D1*
X1408043Y807959D1*
X1404833Y811717D1*
X1402250Y815932D1*
X1400358Y820499D1*
X1399204Y825305D1*
X1398817Y830242D1*
X1398914Y1232586D1*
X1399687Y1237468D1*
X1401214Y1242169D1*
X1403459Y1246573D1*
X1406364Y1250572D1*
X1453513Y1297859D1*
X1514791Y1359137D1*
X1513885Y1365575D1*
Y1374441D1*
X1515272Y1383198D1*
X1518011Y1391630D1*
X1522036Y1399530D1*
X1527248Y1406702D1*
X1533517Y1412971D1*
X1534483Y1413733D1*
X1530259Y1417557D1*
X1524501Y1424299D1*
X1519869Y1431858D1*
X1516476Y1440049D1*
X1514406Y1448670D1*
X1513710Y1457508D1*
X1514406Y1466347D1*
X1514808Y1468370D1*
X1489258Y1494051D1*
X1486352Y1498050D1*
X1484108Y1502454D1*
X1482581Y1507155D1*
X1481808Y1512037D1*
X1481710Y1578813D1*
X1481808Y1652977D1*
X1482581Y1657859D1*
X1484108Y1662560D1*
X1486352Y1666965D1*
X1489258Y1670963D1*
X1524500Y1706343D1*
X1401260Y1706351D1*
X1401238Y1649170D1*
X1289183D1*
Y1650899D1*
X1220434Y1650902D1*
X1220394Y1734931D1*
X1216635Y1731721D1*
X1212421Y1729138D1*
X1207854Y1727247D1*
X1203048Y1726093D1*
X1198120Y1725705D1*
X1011056D1*
X975448Y1690248D1*
X971449Y1687343D1*
X967045Y1685099D1*
X962344Y1683572D1*
X957461Y1682798D1*
X900338Y1682701D1*
X902055Y1678143D1*
X904244Y1669023D1*
X904980Y1659674D1*
X904244Y1650324D1*
X902055Y1641205D1*
X898466Y1632540D1*
X893565Y1624543D1*
X887474Y1617412D1*
X880343Y1611321D1*
X872346Y1606420D1*
X869633Y1605169D1*
X876441Y1601579D1*
X884028Y1596066D1*
X890660Y1589435D1*
X896173Y1581847D1*
X900430Y1573491D1*
X903329Y1564571D1*
X904796Y1555308D1*
Y1545929D1*
X903329Y1536666D1*
X900430Y1527747D1*
X896173Y1519390D1*
X890660Y1511803D1*
X884028Y1505171D1*
X876441Y1499658D1*
X869633Y1496114D1*
X876441Y1492524D1*
X884028Y1487011D1*
X890660Y1480380D1*
X896173Y1472792D1*
X900430Y1464436D1*
X903329Y1455516D1*
X904796Y1446253D1*
Y1436874D1*
X903329Y1427611D1*
X900430Y1418691D1*
X896173Y1410335D1*
X890660Y1402747D1*
X884028Y1396116D1*
X879145Y1392276D1*
X904980D1*
Y1272741D1*
X785444D1*
Y1357650D1*
X781754Y1351905D1*
X775663Y1344774D1*
X768532Y1338683D1*
X760535Y1333783D1*
X751870Y1330193D1*
X742751Y1328004D1*
X733401Y1327268D1*
X724051Y1328004D1*
X714932Y1330193D1*
X706267Y1333783D1*
X698271Y1338683D1*
X691139Y1344774D1*
X685048Y1351905D1*
X680148Y1359902D1*
X676559Y1368567D1*
X674369Y1377686D1*
X673633Y1387036D1*
X674369Y1396386D1*
X676559Y1405505D1*
X680148Y1414170D1*
X685048Y1422167D1*
X691139Y1429298D1*
X698271Y1435389D1*
X706267Y1440289D1*
X708981Y1441540D1*
X702173Y1445131D1*
X694585Y1450643D1*
X687953Y1457275D1*
X682441Y1464863D1*
X678183Y1473219D1*
X675285Y1482139D1*
X673818Y1491402D1*
Y1500780D1*
X675285Y1510044D1*
X678183Y1518963D1*
X682441Y1527320D1*
X687953Y1534907D1*
X694585Y1541539D1*
X702173Y1547051D1*
X708981Y1550595D1*
X702173Y1554186D1*
X694585Y1559698D1*
X687953Y1566330D1*
X682441Y1573918D1*
X678183Y1582274D1*
X675285Y1591194D1*
X673818Y1600457D1*
Y1609836D1*
X675285Y1619099D1*
X678183Y1628018D1*
X682441Y1636375D1*
X687953Y1643962D1*
X694585Y1650594D1*
X702173Y1656107D1*
X708981Y1659651D1*
X702173Y1663241D1*
X694585Y1668754D1*
X687953Y1675385D1*
X682441Y1682973D1*
X678183Y1691329D1*
X675285Y1700249D1*
X673818Y1709512D1*
Y1718891D1*
X675285Y1728154D1*
X678183Y1737073D1*
X682441Y1745430D1*
X687953Y1753017D1*
X694585Y1759649D1*
X702173Y1765162D1*
X710529Y1769419D1*
X719449Y1772318D1*
X728712Y1773785D1*
X738090D1*
X747354Y1772318D1*
X756273Y1769419D1*
X764630Y1765162D1*
X772217Y1759649D1*
X778849Y1753017D1*
X784188Y1745689D1*
X789994Y1745857D1*
X787096Y1754776D1*
X785629Y1764040D1*
Y1773418D1*
X787096Y1782681D1*
X789994Y1791601D1*
X794252Y1799957D1*
X799764Y1807545D1*
X806396Y1814177D1*
X813984Y1819689D1*
X822340Y1823947D1*
X831260Y1826845D1*
X840523Y1828312D1*
X849902D1*
X859165Y1826845D1*
X868084Y1823947D1*
X876441Y1819689D1*
X884028Y1814177D1*
X890660Y1807545D1*
X896173Y1799957D1*
X900430Y1791601D1*
X903329Y1782681D1*
X904796Y1773418D1*
Y1764040D1*
X903329Y1754776D1*
X900361Y1745707D1*
X941924Y1745701D1*
X954360Y1758119D1*
X952036Y1763471D1*
X950882Y1768278D1*
X950494Y1773215D1*
X950591Y1938444D1*
X951364Y1943326D1*
X952892Y1948028D1*
X955136Y1952432D1*
X958041Y1956431D1*
X966495Y1965022D1*
X966497Y2067473D1*
X1086426D1*
Y2052150D1*
X1091215Y2056021D1*
X1094962Y2058524D1*
X1094961Y2220983D1*
X1086674Y2219664D1*
X1078750D1*
X1070923Y2220904D1*
X1063386Y2223352D1*
X1056326Y2226950D1*
X1049915Y2231608D1*
X1044311Y2237211D1*
X1043285Y2238513D1*
X966052Y2238508D1*
Y2213981D1*
X787068D1*
Y2326036D1*
X966052D1*
Y2301527D1*
X1043252Y2301508D1*
X1047003Y2305717D1*
X1053029Y2310864D1*
X1059785Y2315004D1*
X1067106Y2318037D1*
X1074812Y2319887D1*
X1082712Y2320508D1*
X1090612Y2319887D1*
X1098317Y2318037D1*
X1105638Y2315004D1*
X1112395Y2310864D1*
X1113064Y2310336D1*
X1122004Y2319158D1*
X1126002Y2322063D1*
X1130407Y2324308D1*
X1135108Y2325835D1*
X1139990Y2326608D1*
X1206766Y2326705D1*
X1255460D1*
X1259484Y2330564D1*
X1265387Y2334853D1*
X1271888Y2338166D1*
X1278828Y2340420D1*
X1286035Y2341562D1*
X1289184Y2341802D1*
Y2422099D1*
X1323095D1*
X1323083Y2467809D1*
X1314651Y2465069D1*
X1305894Y2463683D1*
X1297028D1*
X1288271Y2465069D1*
X1282490Y2466832D1*
X1282489Y2393115D1*
X1170434D1*
Y2572099D1*
X1174345D1*
X1174372Y2663536D1*
X1194934D1*
X1195059Y2703933D1*
X1195833Y2708815D1*
X1197360Y2713516D1*
X1199604Y2717920D1*
X1202510Y2721919D1*
X1249659Y2769205D1*
X1537780Y3057326D1*
X1537758Y3070201D1*
X1480573Y3070230D1*
Y3145264D1*
X1330658Y3145230D1*
X1335115Y3141209D1*
X1340873Y3134468D1*
X1345505Y3126908D1*
X1348898Y3118717D1*
X1350968Y3110096D1*
X1351663Y3101258D1*
X1350968Y3092419D1*
X1348898Y3083798D1*
X1345505Y3075607D1*
X1340873Y3068048D1*
X1335115Y3061306D1*
X1328373Y3055548D1*
X1320814Y3050916D1*
X1312623Y3047523D1*
X1304002Y3045453D1*
X1295163Y3044758D1*
X1286325Y3045453D1*
X1277704Y3047523D1*
X1269513Y3050916D1*
X1261953Y3055548D1*
X1255212Y3061306D1*
X1249454Y3068048D1*
X1244821Y3075607D1*
X1241429Y3083798D1*
X1239359Y3092419D1*
X1238807Y3097604D1*
X1224620Y3083556D1*
X1220621Y3080650D1*
X1216217Y3078406D1*
X1211515Y3076879D1*
X1206633Y3076105D1*
X1196590Y3076008D1*
X1192643Y3070815D1*
X1186374Y3064545D1*
X1179201Y3059334D1*
X1171302Y3055309D1*
X1162870Y3052569D1*
X1154113Y3051183D1*
X1145247D1*
X1136491Y3052569D1*
X1128059Y3055309D1*
X1120159Y3059334D1*
X1112987Y3064545D1*
X1106717Y3070815D1*
X1105956Y3071781D1*
X1102132Y3067557D1*
X1095390Y3061799D1*
X1087831Y3057167D1*
X1079640Y3053774D1*
X1071019Y3051704D1*
X1062180Y3051008D1*
X1053342Y3051704D1*
X1044721Y3053774D1*
X1036530Y3057167D1*
X1028970Y3061799D1*
X1022229Y3067557D1*
X1016471Y3074299D1*
X1011838Y3081858D1*
X1008446Y3090049D1*
X1006376Y3098670D1*
X1005680Y3107508D1*
X1006376Y3116347D1*
X1008446Y3124968D1*
X1011838Y3133159D1*
X1016471Y3140718D1*
X1020170Y3145233D1*
X2030415Y3070231D2*
X1955623D1*
Y3138950D1*
X1873058Y3138981D1*
X1848980D1*
X1848866Y3128786D1*
X1848092Y3123904D1*
X1846565Y3119203D1*
X1844321Y3114799D1*
X1841415Y3110800D1*
X1832962Y3102209D1*
X1832788Y3096825D1*
X1831401Y3088068D1*
X1828662Y3079636D1*
X1824637Y3071737D1*
X1819425Y3064564D1*
X1813156Y3058295D1*
X1805984Y3053084D1*
X1798084Y3049059D1*
X1789652Y3046319D1*
X1780895Y3044932D1*
X1772030D1*
X1763273Y3046319D1*
X1754841Y3049059D1*
X1746941Y3053084D1*
X1739769Y3058295D1*
X1733500Y3064564D1*
X1728288Y3071737D1*
X1724263Y3079636D1*
X1721524Y3088068D1*
X1720265Y3095741D1*
X1715318Y3094266D1*
X1708111Y3093124D1*
X1700814D1*
X1693607Y3094266D1*
X1686668Y3096520D1*
X1680166Y3099833D1*
X1674263Y3104122D1*
X1669104Y3109282D1*
X1664815Y3115185D1*
X1661502Y3121686D1*
X1659561Y3127514D1*
X1659557Y3070230D1*
X1600743D1*
X1600661Y3041785D1*
X1599888Y3036903D1*
X1598360Y3032202D1*
X1596116Y3027798D1*
X1593211Y3023799D1*
X1546062Y2976512D1*
X1257940Y2688391D1*
X1257963Y2663532D1*
X1338419Y2663536D1*
X1335228Y2671298D1*
X1333158Y2679919D1*
X1332462Y2688758D1*
X1333158Y2697596D1*
X1335228Y2706217D1*
X1338621Y2714408D1*
X1343253Y2721968D1*
X1349011Y2728709D1*
X1355753Y2734467D1*
X1363312Y2739100D1*
X1371503Y2742492D1*
X1380124Y2744562D1*
X1388962Y2745258D1*
X1397801Y2744562D1*
X1399824Y2744160D1*
X1424559Y2768764D1*
X1428558Y2771670D1*
X1432962Y2773914D1*
X1437663Y2775441D1*
X1442545Y2776214D1*
X1509321Y2776312D1*
X1545456D1*
X1545435Y2796902D1*
X1657490D1*
Y2773183D1*
X1663312Y2776601D1*
X1671503Y2779994D1*
X1680124Y2782063D1*
X1688962Y2782759D1*
X1697801Y2782063D1*
X1706422Y2779994D1*
X1714613Y2776601D1*
X1722172Y2771969D1*
X1728914Y2766211D1*
X1734672Y2759469D1*
X1739304Y2751910D1*
X1742697Y2743719D1*
X1744081Y2738548D1*
X1862074Y2738536D1*
X1862067Y2805586D1*
X1855321Y2804703D1*
X1844058D1*
X1832934Y2806465D1*
X1822222Y2809946D1*
X1812187Y2815059D1*
X1803075Y2821679D1*
X1795111Y2829643D1*
X1788491Y2838755D1*
X1783378Y2848790D1*
X1780823Y2856218D1*
X1778206Y2848790D1*
X1773093Y2838755D1*
X1766473Y2829643D1*
X1758509Y2821679D1*
X1749397Y2815059D1*
X1739362Y2809946D1*
X1728650Y2806465D1*
X1717526Y2804703D1*
X1706263D1*
X1695139Y2806465D1*
X1684427Y2809946D1*
X1674392Y2815059D1*
X1665280Y2821679D1*
X1657316Y2829643D1*
X1650695Y2838755D1*
X1645582Y2848790D1*
X1642102Y2859502D1*
X1640340Y2870626D1*
Y2881889D1*
X1642102Y2893013D1*
X1645582Y2903725D1*
X1650695Y2913760D1*
X1657316Y2922872D1*
X1665280Y2930836D1*
X1674392Y2937456D1*
X1684427Y2942570D1*
X1695139Y2946050D1*
X1706263Y2947812D1*
X1717526D1*
X1728650Y2946050D1*
X1739362Y2942570D1*
X1749397Y2937456D1*
X1758509Y2930836D1*
X1766473Y2922872D1*
X1773093Y2913760D1*
X1778206Y2903725D1*
X1780760Y2896298D1*
X1783378Y2903725D1*
X1788491Y2913760D1*
X1795111Y2922872D1*
X1803075Y2930836D1*
X1812187Y2937456D1*
X1822222Y2942570D1*
X1832934Y2946050D1*
X1844058Y2947812D1*
X1855321D1*
X1866445Y2946050D1*
X1877157Y2942570D1*
X1887192Y2937456D1*
X1896304Y2930836D1*
X1904268Y2922872D1*
X1910888Y2913760D1*
X1916002Y2903725D1*
X1918556Y2896298D1*
X1921173Y2903725D1*
X1926286Y2913760D1*
X1932906Y2922872D1*
X1940870Y2930836D1*
X1949982Y2937456D1*
X1960017Y2942570D1*
X1970729Y2946050D1*
X1981853Y2947812D1*
X1993116D1*
X2004240Y2946050D1*
X2014952Y2942570D1*
X2024987Y2937456D1*
X2034099Y2930836D1*
X2042063Y2922872D1*
X2048684Y2913760D1*
X2053797Y2903725D1*
X2056351Y2896298D1*
X2058968Y2903725D1*
X2064081Y2913760D1*
X2070701Y2922872D1*
X2078666Y2930836D1*
X2087777Y2937456D1*
X2097813Y2942570D1*
X2108524Y2946050D1*
X2119649Y2947812D1*
X2130912D1*
X2142036Y2946050D1*
X2152747Y2942570D1*
X2162783Y2937456D1*
X2171895Y2930836D1*
X2179859Y2922872D1*
X2186479Y2913760D1*
X2191592Y2903725D1*
X2194146Y2896298D1*
X2196763Y2903725D1*
X2201877Y2913760D1*
X2208497Y2922872D1*
X2216461Y2930836D1*
X2225573Y2937456D1*
X2235608Y2942570D1*
X2246320Y2946050D1*
X2257444Y2947812D1*
X2268707D1*
X2279831Y2946050D1*
X2290543Y2942570D1*
X2300578Y2937456D1*
X2309690Y2930836D1*
X2317654Y2922872D1*
X2324274Y2913760D1*
X2329387Y2903725D1*
X2331942Y2896298D1*
X2334559Y2903725D1*
X2339672Y2913760D1*
X2346292Y2922872D1*
X2354256Y2930836D1*
X2363368Y2937456D1*
X2373403Y2942570D1*
X2384115Y2946050D1*
X2395239Y2947812D1*
X2406502D1*
X2417626Y2946050D1*
X2428338Y2942570D1*
X2438373Y2937456D1*
X2447485Y2930836D1*
X2455449Y2922872D1*
X2462069Y2913760D1*
X2467183Y2903725D1*
X2469737Y2896298D1*
X2472354Y2903725D1*
X2477467Y2913760D1*
X2484087Y2922872D1*
X2492051Y2930836D1*
X2501163Y2937456D1*
X2511199Y2942570D1*
X2521910Y2946050D1*
X2533034Y2947812D1*
X2544297D1*
X2555422Y2946050D1*
X2566133Y2942570D1*
X2576169Y2937456D1*
X2585280Y2930836D1*
X2593244Y2922872D1*
X2599865Y2913760D1*
X2604692Y2904345D1*
X2604686Y2948033D1*
X2748237D1*
Y2804482D1*
X2604686D1*
Y2848081D1*
X2599865Y2838755D1*
X2593244Y2829643D1*
X2585280Y2821679D1*
X2576169Y2815059D1*
X2566133Y2809946D1*
X2555422Y2806465D1*
X2544297Y2804703D1*
X2533034D1*
X2521910Y2806465D1*
X2511199Y2809946D1*
X2501163Y2815059D1*
X2492051Y2821679D1*
X2484087Y2829643D1*
X2477467Y2838755D1*
X2472354Y2848790D1*
X2469800Y2856218D1*
X2467183Y2848790D1*
X2462069Y2838755D1*
X2455449Y2829643D1*
X2447485Y2821679D1*
X2438373Y2815059D1*
X2428338Y2809946D1*
X2417626Y2806465D1*
X2406502Y2804703D1*
X2395239D1*
X2384115Y2806465D1*
X2373403Y2809946D1*
X2363368Y2815059D1*
X2354256Y2821679D1*
X2346292Y2829643D1*
X2339672Y2838755D1*
X2334559Y2848790D1*
X2332004Y2856218D1*
X2329387Y2848790D1*
X2324274Y2838755D1*
X2317654Y2829643D1*
X2309690Y2821679D1*
X2300578Y2815059D1*
X2290543Y2809946D1*
X2279831Y2806465D1*
X2268707Y2804703D1*
X2257444D1*
X2246320Y2806465D1*
X2235608Y2809946D1*
X2225573Y2815059D1*
X2216461Y2821679D1*
X2208497Y2829643D1*
X2201877Y2838755D1*
X2196763Y2848790D1*
X2194209Y2856218D1*
X2191592Y2848790D1*
X2186479Y2838755D1*
X2179859Y2829643D1*
X2171895Y2821679D1*
X2162783Y2815059D1*
X2152747Y2809946D1*
X2142036Y2806465D1*
X2130912Y2804703D1*
X2119649D1*
X2108524Y2806465D1*
X2097813Y2809946D1*
X2087777Y2815059D1*
X2078666Y2821679D1*
X2070701Y2829643D1*
X2064081Y2838755D1*
X2058968Y2848790D1*
X2056414Y2856218D1*
X2053797Y2848790D1*
X2048684Y2838755D1*
X2042063Y2829643D1*
X2034099Y2821679D1*
X2031696Y2819785D1*
X2041052D1*
Y2795276D1*
X2371610Y2795161D1*
X2376492Y2794387D1*
X2381193Y2792860D1*
X2385597Y2790616D1*
X2389596Y2787711D1*
X2407414Y2770030D1*
X2411872Y2765030D1*
Y2776036D1*
X2590856D1*
Y2682773D1*
X2747683Y2682662D1*
X2752565Y2681889D1*
X2757266Y2680361D1*
X2761671Y2678117D1*
X2765669Y2675212D1*
X2812956Y2628063D1*
X2829285Y2611596D1*
X2832191Y2607597D1*
X2834435Y2603193D1*
X2835962Y2598492D1*
X2836735Y2593610D1*
X2836833Y2526834D1*
Y1900762D1*
X2901677Y1900796D1*
X2901686Y1959599D1*
X2906099D1*
X2903977Y1965049D1*
X2901907Y1973670D1*
X2901212Y1982508D1*
X2901907Y1991347D1*
X2903977Y1999968D1*
X2907370Y2008159D1*
X2912002Y2015718D1*
X2917760Y2022460D1*
X2924502Y2028218D1*
X2932061Y2032850D1*
X2940252Y2036243D1*
X2948873Y2038313D1*
X2957712Y2039008D1*
X2966550Y2038313D1*
X2968573Y2037910D1*
X2981086Y2050430D1*
X2885691Y2050447D1*
Y2057229D1*
X2880266Y2057645D1*
X2875459Y2058799D1*
X2870893Y2060691D1*
X2866678Y2063274D1*
X2862913Y2066491D1*
X2845238Y2084303D1*
X2842333Y2088302D1*
X2840088Y2092706D1*
X2838561Y2097407D1*
X2837788Y2102289D1*
X2837691Y2169065D1*
X2837788Y2452707D1*
X2838561Y2457589D1*
X2840088Y2462290D1*
X2842333Y2466694D1*
X2845238Y2470693D1*
X2892387Y2517980D1*
X2902257Y2527850D1*
X2901387Y2534325D1*
Y2543191D1*
X2902774Y2551947D1*
X2905514Y2560379D1*
X2909446Y2568113D1*
X2901686Y2568115D1*
Y2747099D1*
X2913707D1*
X2909539Y2752987D1*
X2905514Y2760887D1*
X2902774Y2769319D1*
X2901387Y2778075D1*
Y2786941D1*
X2902774Y2795698D1*
X2905514Y2804130D1*
X2909539Y2812030D1*
X2913903Y2818127D1*
X2901686Y2818115D1*
Y2994763D1*
X2096047Y2994855D1*
X2091165Y2995628D1*
X2086464Y2997155D1*
X2082060Y2999399D1*
X2078061Y3002305D1*
X2060242Y3019986D1*
X2057032Y3023745D1*
X2054449Y3027960D1*
X2052558Y3032526D1*
X2051404Y3037333D1*
X2051017Y3042270D1*
X2051016Y3070214D1*
X2030426Y3070267D1*
X2405623Y3088782D2*
Y3139017D1*
X2349741Y3138981D1*
X2353421Y3134468D1*
X2358054Y3126908D1*
X2361447Y3118717D1*
X2363516Y3110096D1*
X2364212Y3101258D1*
X2363516Y3092419D1*
X2362789Y3088765D1*
X2405634Y3088760D1*
X2584595Y3182285D2*
X2584607Y3153685D1*
X2585574Y3153111D1*
X2586872Y3157353D1*
Y3237913D1*
X2584598Y3237947D1*
X2584607Y3182318D1*
X2247272Y3403348D2*
X2323038D1*
X2323044Y3464568D1*
X2454784D1*
Y3404916D1*
X2460227Y3401742D1*
X2463992Y3398525D1*
X2481666Y3380714D1*
X2484571Y3376715D1*
X2486815Y3372311D1*
X2488343Y3367610D1*
X2489116Y3362728D1*
X2489213Y3295952D1*
Y3251061D1*
X2508519Y3251036D1*
X2503259Y3255569D1*
X2498520Y3261117D1*
X2494708Y3267339D1*
X2491916Y3274080D1*
X2490212Y3281175D1*
X2489640Y3288449D1*
X2490212Y3295724D1*
X2491916Y3302819D1*
X2494708Y3309560D1*
X2498520Y3315781D1*
X2503259Y3321330D1*
X2508304Y3325671D1*
X2510656Y3329450D1*
X2513866Y3333209D1*
X2531005Y3350211D1*
X2535012Y3353121D1*
X2535678Y3364569D1*
X2535642Y3366259D1*
X2526762Y3375299D1*
X2523856Y3379298D1*
X2521612Y3383702D1*
X2520085Y3388403D1*
X2519311Y3393285D1*
X2519214Y3463011D1*
X2519602Y3467939D1*
X2520756Y3472745D1*
X2522648Y3477312D1*
X2525230Y3481526D1*
X2528441Y3485285D1*
X2537093Y3493937D1*
X2282492Y3493947D1*
X2282490Y3455615D1*
X2211116D1*
X2211132Y3403321D1*
X2247272Y3403348D1*
X2751340D2*
X2791789D1*
X2791793Y3457454D1*
X2726239Y3457441D1*
Y3436864D1*
X2667353D1*
X2667382Y3403458D1*
X2751339Y3403353D1*
X2874372Y3095959D2*
Y3138948D1*
X2829648Y3138981D1*
X2833055Y3133159D1*
X2836448Y3124968D1*
X2838518Y3116347D1*
X2839213Y3107508D1*
X2839004Y3102783D1*
X2844916Y3103617D1*
X2852213D1*
X2859420Y3102476D1*
X2866360Y3100221D1*
X2872861Y3096908D1*
X2874367Y3095902D1*
X1819989Y3409599D2*
X1866796D1*
X1866793Y3457461D1*
X1794946Y3457455D1*
X1794940Y3436864D1*
X1754930D1*
X1754935Y3411337D1*
X1819990Y3411331D1*
Y3409602D1*
X1619990Y2419197D2*
Y2241382D1*
X1569071D1*
X1569054Y2169956D1*
X1647795Y2169982D1*
Y2165138D1*
X1677720Y2165139D1*
X1681696Y2168997D1*
X1687599Y2173286D1*
X1694101Y2176599D1*
X1701040Y2178854D1*
X1708247Y2179995D1*
X1715544D1*
X1722751Y2178854D1*
X1729690Y2176599D1*
X1736192Y2173286D1*
X1739664Y2170913D1*
X1734539Y2177987D1*
X1730514Y2185887D1*
X1727774Y2194319D1*
X1726387Y2203075D1*
Y2211941D1*
X1727774Y2220698D1*
X1730514Y2229130D1*
X1734539Y2237030D1*
X1739750Y2244202D1*
X1746019Y2250471D1*
X1753192Y2255683D1*
X1761092Y2259708D1*
X1769523Y2262447D1*
X1777162Y2263702D1*
X1773469Y2268176D1*
X1769657Y2274398D1*
X1766864Y2281139D1*
X1765161Y2288234D1*
X1764588Y2295508D1*
X1765161Y2302783D1*
X1766864Y2309878D1*
X1769657Y2316619D1*
X1773469Y2322840D1*
X1778208Y2328389D1*
X1783756Y2333128D1*
X1785144Y2334055D1*
X1785147Y2349547D1*
X1708279Y2349512D1*
Y2443780D1*
X1701136Y2443749D1*
X1697130Y2439890D1*
X1691227Y2435601D1*
X1684726Y2432288D1*
X1677786Y2430033D1*
X1670579Y2428892D1*
X1667430Y2428768D1*
X1667431Y2419197D1*
X1619956D1*
X1454832Y2422099D2*
X1535686D1*
X1535691Y2645819D1*
X1545416D1*
X1545435Y2713334D1*
X1459038Y2713312D1*
X1468102Y2704536D1*
X1479285Y2693215D1*
X1482191Y2689217D1*
X1484435Y2684812D1*
X1485962Y2680111D1*
X1486736Y2675229D1*
X1486833Y2623508D1*
X1486445Y2618581D1*
X1485291Y2613774D1*
X1483399Y2609208D1*
X1480817Y2604993D1*
X1477607Y2601234D1*
X1459790Y2583555D1*
X1455783Y2580645D1*
X1454833Y2579284D1*
Y2422096D1*
X1401238Y1798119D2*
Y1769340D1*
X1427708Y1769351D1*
X1428299Y1776125D1*
X1430002Y1783220D1*
X1432794Y1789961D1*
X1436607Y1796183D1*
X1438099Y1798076D1*
X1401881Y1798092D1*
X1220434Y1809279D2*
X1220376Y1826549D1*
X1183307D1*
X1185024Y1820396D1*
X1186161Y1813140D1*
X1186398Y1805671D1*
X1185723Y1798358D1*
X1184160Y1791182D1*
X1183395Y1788707D1*
X1188838Y1792471D1*
X1198253Y1801749D1*
X1202252Y1804654D1*
X1206656Y1806898D1*
X1211357Y1808426D1*
X1216239Y1809199D1*
X1218720Y1809295D1*
X871057Y2513536D2*
X966052D1*
Y2489027D1*
X1004908Y2489111D1*
X1009609Y2490638D1*
X1014491Y2491411D1*
X1043266Y2491508D1*
X1047003Y2495717D1*
X1053029Y2500864D1*
X1059785Y2505004D1*
X1067106Y2508037D1*
X1074812Y2509887D1*
X1082712Y2510508D1*
X1090612Y2509887D1*
X1098317Y2508037D1*
X1105638Y2505004D1*
X1112395Y2500864D1*
X1118421Y2495717D1*
X1123567Y2489692D1*
X1127708Y2482935D1*
X1130740Y2475614D1*
X1132590Y2467908D1*
X1133212Y2460008D1*
X1132590Y2452108D1*
X1130740Y2444403D1*
X1127708Y2437082D1*
X1123567Y2430325D1*
X1118421Y2424300D1*
X1112395Y2419153D1*
X1105638Y2415013D1*
X1098317Y2411980D1*
X1090612Y2410130D1*
X1082712Y2409508D1*
X1074812Y2410130D1*
X1067106Y2411980D1*
X1059785Y2415013D1*
X1053029Y2419153D1*
X1047003Y2424300D1*
X1043285Y2428513D1*
X1026517Y2428406D1*
X1021816Y2426879D1*
X1016934Y2426105D1*
X966055Y2426008D1*
X966052Y2401481D1*
X787068D1*
Y2513536D1*
X871057D1*
X2034803Y1457738D2*
Y1408318D1*
X2066989Y1408319D1*
X2072253Y1411440D1*
X2078995Y1414233D1*
X2086090Y1415936D1*
X2093364Y1416508D1*
X2100638Y1415936D1*
X2107733Y1414233D1*
X2114475Y1411440D1*
X2120696Y1407628D1*
X2126245Y1402889D1*
X2130983Y1397340D1*
X2134796Y1391119D1*
X2137588Y1384378D1*
X2139292Y1377283D1*
X2139864Y1370008D1*
X2139292Y1362734D1*
X2138229Y1357628D1*
X2144450Y1361440D1*
X2151192Y1364233D1*
X2158287Y1365936D1*
X2165561Y1366508D1*
X2173185Y1365866D1*
X2173191Y1408319D1*
X2199351D1*
X2199372Y1557286D1*
X2218771D1*
X2212322Y1563005D1*
X2205008Y1571569D1*
X2199123Y1581172D1*
X2194813Y1591578D1*
X2194209Y1593718D1*
X2191592Y1586290D1*
X2186479Y1576255D1*
X2179859Y1567143D1*
X2171895Y1559179D1*
X2162783Y1552559D1*
X2152747Y1547446D1*
X2142036Y1543965D1*
X2130912Y1542203D1*
X2119649D1*
X2108524Y1543965D1*
X2097813Y1547446D1*
X2087777Y1552559D1*
X2078666Y1559179D1*
X2074391Y1562934D1*
X2072864Y1558233D1*
X2070620Y1553829D1*
X2067714Y1549830D1*
X2050036Y1532014D1*
X2046277Y1528804D1*
X2042062Y1526221D1*
X2037496Y1524330D1*
X2035106Y1523656D1*
X2034999Y1503645D1*
X2034805Y1457731D1*
X2043126Y2663981D2*
X2043121Y2732254D1*
X2041052Y2727921D1*
Y2707730D1*
X1945636D1*
X1945561Y2696040D1*
X1944788Y2691157D1*
X1943260Y2686456D1*
X1941016Y2682052D1*
X1938111Y2678053D1*
X1920429Y2660235D1*
X1916671Y2657024D1*
X1912456Y2654442D1*
X1907889Y2652550D1*
X1903083Y2651396D1*
X1898146Y2651009D1*
X1897106Y2646672D1*
Y2626481D1*
X1822287D1*
X1822302Y2620812D1*
X1942333Y2620819D1*
Y2616836D1*
X1949111Y2616251D1*
X1956206Y2614547D1*
X1962947Y2611755D1*
X1969168Y2607943D1*
X1974717Y2603204D1*
X1975985Y2601832D1*
X1991304Y2601726D1*
X1996186Y2600953D1*
X2000887Y2599426D1*
X2005291Y2597182D1*
X2009290Y2594276D1*
X2012785Y2590781D1*
X2015691Y2586782D1*
X2017935Y2582378D1*
X2019462Y2577677D1*
X2020236Y2572795D1*
X2020333Y2536843D1*
X2023191Y2540129D1*
Y2620819D1*
X2043107D1*
X2043121Y2663986D1*
X2222106Y2732293D2*
Y2620835D1*
X2283745Y2620819D1*
X2288966Y2623940D1*
X2295707Y2626733D1*
X2302802Y2628436D1*
X2310077Y2629008D1*
X2317351Y2628436D1*
X2324446Y2626733D1*
X2331187Y2623940D1*
X2337409Y2620128D1*
X2342957Y2615389D1*
X2347696Y2609840D1*
X2351508Y2603619D1*
X2353644Y2598657D1*
X2353640Y2732246D1*
X2222121Y2732258D1*
X1867012Y1913981D2*
X1829936D1*
X1825676Y1908316D1*
X1819407Y1902047D1*
X1812234Y1896836D1*
X1804335Y1892811D1*
X1795903Y1890071D1*
X1787146Y1888684D1*
X1778280D1*
X1769523Y1890071D1*
X1761092Y1892811D1*
X1753192Y1896836D1*
X1746019Y1902047D1*
X1739750Y1908316D1*
X1738431Y1909990D1*
X1717511Y1889214D1*
X1713512Y1886309D1*
X1709108Y1884065D1*
X1704407Y1882537D1*
X1699524Y1881764D1*
X1688477Y1881667D1*
X1693228Y1878636D1*
X1698776Y1873897D1*
X1700044Y1872525D1*
X1776168Y1872516D1*
X1780161Y1876375D1*
X1786064Y1880664D1*
X1792565Y1883977D1*
X1799505Y1886231D1*
X1806712Y1887373D1*
X1814008D1*
X1821215Y1886231D1*
X1828155Y1883977D1*
X1834656Y1880664D1*
X1840559Y1876375D1*
X1845719Y1871216D1*
X1850008Y1865312D1*
X1853321Y1858811D1*
X1855575Y1851871D1*
X1856717Y1844665D1*
Y1837368D1*
X1855575Y1830161D1*
X1853321Y1823221D1*
X1850008Y1816720D1*
X1845719Y1810817D1*
X1840559Y1805657D1*
X1834656Y1801369D1*
X1832827Y1800344D1*
X2110454Y1800254D1*
X2115336Y1799481D1*
X2120037Y1797953D1*
X2124441Y1795709D1*
X2128440Y1792804D1*
X2175726Y1745655D1*
X2239745Y1681636D1*
X2246320Y1683550D1*
X2257444Y1685312D1*
X2268113Y1685335D1*
X2268122Y1819204D1*
X2206193Y1819197D1*
X2200951Y1816077D1*
X2194210Y1813284D1*
X2187115Y1811581D1*
X2179840Y1811008D1*
X2172566Y1811581D1*
X2165471Y1813284D1*
X2158730Y1816077D1*
X2152508Y1819889D1*
X2146960Y1824628D1*
X2142221Y1830176D1*
X2138409Y1836398D1*
X2135616Y1843139D1*
X2133913Y1850234D1*
X2133340Y1857508D1*
X2133913Y1864783D1*
X2135616Y1871878D1*
X2136135Y1873283D1*
X2132249Y1877309D1*
X2127960Y1883212D1*
X2124648Y1889714D1*
X2122393Y1896653D1*
X2121251Y1903860D1*
Y1911157D1*
X2121585Y1913975D1*
X2047671Y1913981D1*
X2044165Y1909022D1*
X2026487Y1891207D1*
X2022728Y1887997D1*
X2018514Y1885414D1*
X2013947Y1883522D1*
X2009141Y1882369D1*
X2004213Y1881981D1*
X1951896D1*
X1948416Y1877309D1*
X1943256Y1872150D1*
X1937353Y1867861D1*
X1930852Y1864548D1*
X1923912Y1862293D1*
X1916705Y1861152D1*
X1909409D1*
X1902202Y1862293D1*
X1895262Y1864548D1*
X1888761Y1867861D1*
X1882858Y1872150D1*
X1877698Y1877309D1*
X1873409Y1883212D1*
X1870097Y1889714D1*
X1867842Y1896653D1*
X1866700Y1903860D1*
Y1911157D1*
X1867034Y1913975D1*
X792944Y1392276D2*
X811403D1*
X806396Y1396116D1*
X799764Y1402747D1*
X794252Y1410335D1*
X789994Y1418691D1*
X787096Y1427611D1*
X785629Y1436874D1*
Y1446253D1*
X787096Y1455516D1*
X789994Y1464436D1*
X794252Y1472792D1*
X799764Y1480380D1*
X806396Y1487011D1*
X813984Y1492524D1*
X820792Y1496068D1*
X813984Y1499658D1*
X806396Y1505171D1*
X799764Y1511803D1*
X794252Y1519390D1*
X789994Y1527747D1*
X787096Y1536666D1*
X785629Y1545929D1*
Y1555308D1*
X787096Y1564571D1*
X789994Y1573491D1*
X794252Y1581847D1*
X799764Y1589435D1*
X806396Y1596066D1*
X813984Y1601579D1*
X820792Y1605123D1*
X813984Y1608713D1*
X806396Y1614226D1*
X799764Y1620858D1*
X794252Y1628445D1*
X789994Y1636802D1*
X787096Y1645721D1*
X785629Y1654984D1*
Y1664363D1*
X787096Y1673626D1*
X790063Y1682696D1*
X784217Y1682701D1*
X778849Y1675385D1*
X772217Y1668754D1*
X764630Y1663241D1*
X757822Y1659697D1*
X764630Y1656107D1*
X772217Y1650594D1*
X778849Y1643962D1*
X784362Y1636375D1*
X788619Y1628018D1*
X791517Y1619099D1*
X792985Y1609836D1*
Y1600457D1*
X791517Y1591194D1*
X788619Y1582274D1*
X784362Y1573918D1*
X778849Y1566330D1*
X772217Y1559698D1*
X764630Y1554186D1*
X757822Y1550642D1*
X764630Y1547051D1*
X772217Y1541539D1*
X778849Y1534907D1*
X784362Y1527320D1*
X788619Y1518963D1*
X791517Y1510044D1*
X792985Y1500780D1*
Y1491402D1*
X791517Y1482139D1*
X788619Y1473219D1*
X784362Y1464863D1*
X778849Y1457275D1*
X772217Y1450643D1*
X764630Y1445131D1*
X757822Y1441587D1*
X764630Y1437996D1*
X772217Y1432484D1*
X778849Y1425852D1*
X784362Y1418265D1*
X788619Y1409908D1*
X791517Y1400988D1*
X792918Y1392290D1*
X909157Y1049512D2*
X908106Y1040388D1*
X906362Y1031371D1*
X903935Y1022514D1*
X900838Y1013867D1*
X897090Y1005483D1*
X892713Y997409D1*
X887732Y989692D1*
X882177Y982379D1*
X876080Y975511D1*
X869476Y969129D1*
X862404Y963269D1*
X854905Y957967D1*
X847023Y953252D1*
X838804Y949153D1*
X830297Y945694D1*
X821550Y942894D1*
X812615Y940770D1*
X803543Y939335D1*
X794389Y938596D1*
X785205Y938559D1*
X776045Y939223D1*
X766962Y940584D1*
X758010Y942635D1*
X749241Y945363D1*
X740705Y948753D1*
X732453Y952784D1*
X724533Y957434D1*
X716991Y962675D1*
X709872Y968477D1*
X703216Y974805D1*
X697062Y981623D1*
X691448Y988891D1*
X686404Y996566D1*
X681961Y1004604D1*
X678145Y1012958D1*
X674978Y1021579D1*
X672478Y1030416D1*
X670661Y1039419D1*
X669536Y1048534D1*
X669110Y1057708D1*
X669386Y1066888D1*
X670362Y1076020D1*
X672032Y1085051D1*
X674387Y1093928D1*
X677413Y1102599D1*
X681092Y1111014D1*
X685403Y1119124D1*
X690321Y1126881D1*
X695816Y1134239D1*
X701857Y1141157D1*
X708409Y1147593D1*
X715433Y1153510D1*
X722888Y1158873D1*
X730731Y1163652D1*
X738916Y1167818D1*
X747395Y1171347D1*
X756119Y1174218D1*
X765037Y1176415D1*
X774096Y1177924D1*
X783244Y1178737D1*
X792427Y1178850D1*
X801592Y1178261D1*
X810686Y1176974D1*
X819655Y1174996D1*
X828446Y1172340D1*
X837009Y1169019D1*
X845294Y1165055D1*
X853251Y1160470D1*
X860836Y1155291D1*
X868003Y1149548D1*
X874710Y1143274D1*
X880919Y1136506D1*
X886593Y1129285D1*
X891699Y1121651D1*
X896207Y1113649D1*
X900091Y1105327D1*
X903328Y1096732D1*
X905900Y1087916D1*
X907791Y1078928D1*
X908991Y1069823D1*
X909507Y1058690D1*
X909157Y1049512D1*
Y2033370D2*
X908106Y2024247D1*
X906362Y2015230D1*
X903935Y2006372D1*
X900838Y1997726D1*
X897090Y1989341D1*
X892713Y1981267D1*
X887732Y1973551D1*
X882177Y1966237D1*
X876080Y1959369D1*
X869476Y1952987D1*
X862404Y1947127D1*
X854905Y1941825D1*
X847023Y1937110D1*
X838804Y1933011D1*
X830297Y1929552D1*
X821550Y1926752D1*
X812615Y1924628D1*
X803543Y1923193D1*
X794389Y1922454D1*
X785205Y1922417D1*
X776045Y1923081D1*
X766962Y1924442D1*
X758010Y1926493D1*
X749241Y1929221D1*
X740705Y1932611D1*
X732453Y1936643D1*
X724533Y1941293D1*
X716991Y1946534D1*
X709872Y1952335D1*
X703216Y1958664D1*
X697062Y1965481D1*
X691448Y1972749D1*
X686404Y1980425D1*
X681961Y1988463D1*
X678145Y1996817D1*
X674978Y2005437D1*
X672478Y2014275D1*
X670661Y2023277D1*
X669536Y2032392D1*
X669110Y2041566D1*
X669386Y2050746D1*
X670362Y2059878D1*
X672032Y2068909D1*
X674387Y2077786D1*
X677413Y2086458D1*
X681092Y2094873D1*
X685403Y2102982D1*
X690321Y2110739D1*
X695816Y2118097D1*
X701857Y2125015D1*
X708409Y2131451D1*
X715433Y2137368D1*
X722888Y2142732D1*
X730731Y2147510D1*
X738916Y2151676D1*
X747395Y2155205D1*
X756119Y2158076D1*
X765037Y2160273D1*
X774096Y2161782D1*
X783244Y2162596D1*
X792427Y2162708D1*
X801592Y2162119D1*
X810686Y2160832D1*
X819655Y2158854D1*
X828446Y2156198D1*
X837009Y2152878D1*
X845294Y2148914D1*
X853251Y2144328D1*
X860836Y2139149D1*
X868003Y2133406D1*
X874710Y2127132D1*
X880919Y2120365D1*
X886593Y2113143D1*
X891699Y2105509D1*
X896207Y2097508D1*
X900091Y2089185D1*
X903328Y2080591D1*
X905900Y2071774D1*
X907791Y2062787D1*
X908991Y2053681D1*
X909507Y2042548D1*
X909157Y2033370D1*
X1186241Y2002804D2*
X1184769Y1993510D1*
X1181861Y1984561D1*
X1177589Y1976177D1*
X1176639Y1974755D1*
X1180999Y1975776D1*
X1185927Y1976163D1*
X1197159D1*
X1197157Y2084927D1*
X1192038Y2081872D1*
X1185296Y2079080D1*
X1178201Y2077376D1*
X1170927Y2076804D1*
X1163653Y2077376D1*
X1157972Y2078681D1*
X1157961Y2058553D1*
X1165405Y2053106D1*
X1172059Y2046452D1*
X1177589Y2038840D1*
X1181861Y2030456D1*
X1184769Y2021507D1*
X1186241Y2012213D1*
Y2002804D1*
X4022665Y3181766D2*
X4030950Y3184471D1*
X4039943Y3186321D1*
X4049089Y3187123D1*
X4058266Y3186867D1*
X4067354Y3185557D1*
X4076230Y3183209D1*
X4084777Y3179856D1*
X4090281Y3177052D1*
X4090172Y3237931D1*
X4083755Y3234699D1*
X4075162Y3231466D1*
X4066253Y3229244D1*
X4057148Y3228062D1*
X4047968Y3227935D1*
X4038834Y3228866D1*
X4029868Y3230842D1*
X4022663Y3233251D1*
X4025083Y3225183D1*
X4026243Y3219352D1*
X4026942Y3213449D1*
X4027175Y3207508D1*
X4026942Y3201568D1*
X4026243Y3195664D1*
X4025083Y3189834D1*
X4022593Y3181737D1*
X1233451Y3816217D2*
X1230703Y3824668D1*
X1228874Y3833666D1*
X1228092Y3842814D1*
X1228369Y3851991D1*
X1229699Y3861075D1*
X1232067Y3869946D1*
X1235439Y3878485D1*
X1239772Y3886580D1*
X1245007Y3894122D1*
X1251076Y3901012D1*
X1251326Y3901259D1*
X1164091Y3901258D1*
X1169749Y3894963D1*
X1175085Y3887492D1*
X1179527Y3879456D1*
X1183014Y3870963D1*
X1185501Y3862125D1*
X1186953Y3853059D1*
X1187361Y3845008D1*
X1186832Y3835842D1*
X1185252Y3826798D1*
X1182641Y3817996D1*
X1181974Y3816215D1*
X1190037Y3818629D1*
X1195868Y3819789D1*
X1201771Y3820488D1*
X1207712Y3820721D1*
X1213652Y3820488D1*
X1219556Y3819789D1*
X1225387Y3818629D1*
X1233483Y3816139D1*
X2988844Y3251036D2*
X3004418D1*
X3004392Y3414569D1*
Y3457383D1*
X2923530Y3457392D1*
X2923533Y3404126D1*
X2927343Y3401742D1*
X2931108Y3398525D1*
X2948781Y3380714D1*
X2951687Y3376715D1*
X2953931Y3372311D1*
X2955458Y3367610D1*
X2956232Y3362728D1*
X2956329Y3295952D1*
Y3281060D1*
X2961882Y3278394D1*
X2965881Y3275489D1*
X2983697Y3257810D1*
X2986907Y3254051D1*
X2988286Y3251986D1*
X2265624Y3138981D2*
X2189191D1*
X2189213Y3088755D1*
X2252624Y3088760D1*
X2251386Y3096825D1*
Y3105691D1*
X2252773Y3114447D1*
X2255513Y3122879D1*
X2259538Y3130779D1*
X2264749Y3137952D1*
X2265702Y3138982D1*
X2735821Y3138981D2*
X2685871D1*
X2689304Y3133159D1*
X2692697Y3124968D1*
X2694767Y3116347D1*
X2695462Y3107508D1*
X2694767Y3098670D1*
X2692697Y3090049D1*
X2692223Y3088765D1*
X2729381Y3088760D1*
X2727774Y3094319D1*
X2726387Y3103075D1*
Y3111941D1*
X2727774Y3120698D1*
X2730514Y3129130D1*
X2734539Y3137030D1*
X2735839Y3138975D1*
X2033471Y3251036D2*
X2049404D1*
X2049381Y3265234D1*
X2046813Y3268830D1*
X2044569Y3273235D1*
X2043041Y3277936D1*
X2042268Y3282818D1*
X2042171Y3298315D1*
X2038312Y3302309D1*
X2034023Y3308212D1*
X2030711Y3314714D1*
X2028456Y3321653D1*
X2027314Y3328860D1*
Y3336157D1*
X2028456Y3343364D1*
X2030711Y3350303D1*
X2034023Y3356805D1*
X2038312Y3362708D1*
X2043472Y3367867D1*
X2049375Y3372156D1*
X2055876Y3375469D1*
X2056987Y3375879D1*
X2053407Y3379993D1*
X2050825Y3384208D1*
X2048933Y3388774D1*
X2047779Y3393581D1*
X2047392Y3398518D1*
X2047489Y3451322D1*
X2048264Y3456214D1*
X2043229Y3457455D1*
X1998553D1*
X1998534Y3409946D1*
X2003491Y3406461D1*
X2006986Y3402966D1*
X2009892Y3398967D1*
X2012136Y3394563D1*
X2013663Y3389862D1*
X2014436Y3384980D1*
X2014533Y3318204D1*
Y3271662D1*
X2030031Y3255994D1*
X2032941Y3251986D1*
X2147106Y2002819D2*
Y1949279D1*
X2153239Y1951733D1*
X2160334Y1953436D1*
X2167608Y1954008D1*
X2174882Y1953436D1*
X2179356Y1952472D1*
X2179342Y1977630D1*
X2175118Y1979442D1*
X2170904Y1982024D1*
X2167139Y1985242D1*
X2149510Y2002869D1*
X2147109Y2002839D1*
X1643317Y866521D2*
Y875994D1*
X1533030Y876105D1*
X1528148Y876879D1*
X1523447Y878406D1*
X1519043Y880650D1*
X1515044Y883555D1*
X1497228Y901234D1*
X1494018Y904993D1*
X1491435Y909208D1*
X1489543Y913774D1*
X1488390Y918581D1*
X1488002Y923518D1*
Y1088970D1*
X1461831Y1088981D1*
X1461817Y845759D1*
X1576971Y845733D1*
X1581011Y849592D1*
X1586914Y853881D1*
X1593416Y857193D1*
X1600355Y859448D1*
X1607562Y860589D1*
X1614859D1*
X1622066Y859448D1*
X1629005Y857193D1*
X1631116Y856220D1*
X1637753Y862712D1*
X1641760Y865622D1*
X1643317Y939002D2*
Y1031697D1*
X1641843D1*
Y1066699D1*
X1634936Y1067270D1*
X1627841Y1068973D1*
X1621100Y1071766D1*
X1614878Y1075578D1*
X1612112Y1077759D1*
X1605290Y1071055D1*
X1601291Y1068150D1*
X1596887Y1065906D1*
X1592186Y1064379D1*
X1587304Y1063605D1*
X1561491D1*
X1556609Y1064379D1*
X1551899Y1065910D1*
X1551002Y1063840D1*
Y938999D1*
X1643334Y939009D1*
X920433Y3530671D2*
X919717Y3523362D1*
X918060Y3516208D1*
X915489Y3509329D1*
X912047Y3502841D1*
X907793Y3496855D1*
X902798Y3491471D1*
X897147Y3486781D1*
X890936Y3482863D1*
X884269Y3479784D1*
X877258Y3477595D1*
X870024Y3476334D1*
X862686Y3476023D1*
X855371Y3476665D1*
X848200Y3478252D1*
X841296Y3480754D1*
X834774Y3484132D1*
X828746Y3488326D1*
X823313Y3493267D1*
X818567Y3498871D1*
X814587Y3505043D1*
X811442Y3511680D1*
X809184Y3518668D1*
X807851Y3525890D1*
X807467Y3533224D1*
X808037Y3540545D1*
X809552Y3547731D1*
X811986Y3554660D1*
X815298Y3561215D1*
X819433Y3567284D1*
X824320Y3572766D1*
X829876Y3577568D1*
X836008Y3581609D1*
X842613Y3584820D1*
X849579Y3587147D1*
X856787Y3588551D1*
X864117Y3589008D1*
X871444Y3588511D1*
X878644Y3587067D1*
X885597Y3584702D1*
X892184Y3581455D1*
X898294Y3577381D1*
X903825Y3572549D1*
X908681Y3567041D1*
X912783Y3560949D1*
X916059Y3554376D1*
X918455Y3547434D1*
X919931Y3540240D1*
X920462Y3532508D1*
X920433Y3530671D1*
X2173055Y2544197D2*
X2173043Y2557439D1*
X2168316Y2554442D1*
X2163749Y2552550D1*
X2158943Y2551396D1*
X2156477Y2551105D1*
X2154931Y2547329D1*
Y2532746D1*
X2159889Y2529272D1*
X2163384Y2525777D1*
X2166289Y2521778D1*
X2168533Y2517374D1*
X2170061Y2512673D1*
X2170834Y2507791D1*
X2170931Y2464017D1*
X2173043Y2464407D1*
Y2544184D1*
X2304783Y2501004D2*
Y2471723D1*
X2309619Y2475368D1*
X2314023Y2477612D1*
X2318724Y2479140D1*
X2323606Y2479913D1*
X2353673Y2480010D1*
X2353640Y2487731D1*
X2348351Y2486581D1*
X2341077Y2486008D1*
X2333802Y2486581D1*
X2326707Y2488284D1*
X2319966Y2491077D1*
X2313745Y2494889D1*
X2308196Y2499628D1*
X2306928Y2501000D1*
X2517381Y2277866D2*
Y2257340D1*
X2520629Y2253340D1*
X2524442Y2247119D1*
X2527234Y2240378D1*
X2528937Y2233283D1*
X2529510Y2226008D1*
X2528937Y2218734D1*
X2527234Y2211639D1*
X2524442Y2204898D1*
X2520629Y2198676D1*
X2518377Y2195820D1*
X2523680Y2195819D1*
Y2184946D1*
X2528641Y2181461D1*
X2532136Y2177966D1*
X2535046Y2173959D1*
X2536763Y2173387D1*
X2534024Y2181819D1*
X2532637Y2190575D1*
Y2199441D1*
X2534024Y2208198D1*
X2536763Y2216630D1*
X2540788Y2224530D1*
X2546000Y2231702D1*
X2552269Y2237971D1*
X2553235Y2238733D1*
X2549011Y2242557D1*
X2543253Y2249299D1*
X2538621Y2256858D1*
X2535228Y2265049D1*
X2533158Y2273670D1*
X2532462Y2282508D1*
X2533158Y2291347D1*
X2533560Y2293370D1*
X2530986Y2293265D1*
X2528742Y2288861D1*
X2525837Y2284862D1*
X2522341Y2281367D1*
X2518334Y2278456D1*
X1613356Y1508546D2*
X1606904Y1502045D1*
X1605938Y1501284D1*
X1610162Y1497460D1*
X1615920Y1490718D1*
X1617277Y1488687D1*
X1616098Y1493581D1*
X1615710Y1498508D1*
Y1506798D1*
X1613389Y1508563D1*
X1544702Y1595416D2*
X1552751Y1598743D1*
X1561372Y1600813D1*
X1570210Y1601508D1*
X1579049Y1600813D1*
X1587670Y1598743D1*
X1595861Y1595350D1*
X1603420Y1590718D1*
X1610162Y1584960D1*
X1613356Y1581471D1*
X1617914Y1584656D1*
X1624416Y1587969D1*
X1631355Y1590224D1*
X1638562Y1591365D1*
X1643632Y1591578D1*
X1641002Y1602530D1*
X1640119Y1613758D1*
X1641002Y1624986D1*
X1643632Y1635938D1*
X1647942Y1646343D1*
X1652885Y1654537D1*
X1561783Y1654536D1*
X1544702Y1637449D1*
X1544711Y1595424D1*
X1626536Y1453075D2*
X1625613Y1446647D1*
X1635163Y1436966D1*
X1638069Y1432967D1*
X1640313Y1428563D1*
X1641840Y1423862D1*
X1642613Y1418980D1*
X1642711Y1408291D1*
X1663912Y1408319D1*
X1663907Y1437295D1*
X1623252Y1478058D1*
X1625149Y1470698D1*
X1626536Y1461941D1*
Y1453075D1*
X1517621Y1261944D2*
X1515272Y1269319D1*
X1515072Y1270322D1*
X1461834Y1217084D1*
X1461817Y1201013D1*
X1487982Y1201036D1*
X1488099Y1222480D1*
X1488872Y1227362D1*
X1490400Y1232063D1*
X1492644Y1236467D1*
X1495549Y1240466D1*
X1513228Y1258282D1*
X1516995Y1261498D1*
X2705065Y2477069D2*
X2773819D1*
X2773833Y2578112D1*
X2732184Y2619739D1*
X2590874Y2619759D1*
X2590856Y2595231D1*
X2568572D1*
X2566828Y2591010D1*
X2571503Y2592492D1*
X2580124Y2594562D1*
X2588287Y2595231D1*
X2593395Y2595084D1*
X2602152Y2593697D1*
X2610584Y2590957D1*
X2618484Y2586932D1*
X2625656Y2581721D1*
X2631925Y2575452D1*
X2637348Y2567901D1*
X2640712Y2571637D1*
X2646260Y2576376D1*
X2652482Y2580188D1*
X2659223Y2582981D1*
X2666318Y2584684D1*
X2673592Y2585256D1*
X2680867Y2584684D1*
X2687962Y2582981D1*
X2694703Y2580188D1*
X2700924Y2576376D1*
X2706473Y2571637D1*
X2711212Y2566088D1*
X2715024Y2559867D1*
X2717817Y2553126D1*
X2719520Y2546031D1*
X2720092Y2538756D1*
X2719520Y2531482D1*
X2717817Y2524387D1*
X2715024Y2517646D1*
X2711212Y2511424D1*
X2706473Y2505876D1*
X2705101Y2504608D1*
X2705092Y2477072D1*
X2673105Y2200447D2*
X2673092Y2207229D1*
X2645771Y2207258D1*
X2644767Y2203847D1*
X2645462Y2195008D1*
X2644767Y2186170D1*
X2643389Y2180001D1*
X2658615Y2179915D1*
X2663497Y2179142D1*
X2668198Y2177615D1*
X2672610Y2175365D1*
X2673093Y2178006D1*
Y2200433D1*
X2773865Y2050447D2*
X2681499D1*
X2681393Y1991064D1*
X2680620Y1986182D1*
X2679092Y1981481D1*
X2676848Y1977077D1*
X2673943Y1973078D1*
X2644378Y1943376D1*
X2645288Y1936941D1*
Y1928075D1*
X2643901Y1919319D1*
X2641162Y1910887D1*
X2637137Y1902987D1*
X2635664Y1900783D1*
X2773825Y1900796D1*
X2773833Y2050471D1*
X1569054Y1876854D2*
Y1800349D1*
X1643348Y1800351D1*
X1638564Y1803397D1*
X1633015Y1808136D1*
X1628276Y1813684D1*
X1624464Y1819906D1*
X1621671Y1826647D1*
X1619968Y1833742D1*
X1619396Y1841016D1*
X1619968Y1848290D1*
X1621671Y1855386D1*
X1624464Y1862127D1*
X1628276Y1868348D1*
X1633015Y1873897D1*
X1636267Y1876825D1*
X1569029D1*
X1527865Y1934275D2*
X1527866Y2007624D1*
X1463276Y2007651D1*
X1428566Y1973052D1*
X1424567Y1970146D1*
X1420163Y1967902D1*
X1415462Y1966375D1*
X1410580Y1965601D1*
X1381805Y1965504D1*
X1380312Y1963979D1*
X1385863Y1963444D1*
X1392958Y1961740D1*
X1399699Y1958948D1*
X1405920Y1955136D1*
X1411469Y1950397D1*
X1412737Y1949025D1*
X1503687Y1948919D1*
X1508569Y1948146D1*
X1513270Y1946619D1*
X1517674Y1944375D1*
X1521673Y1941469D1*
X1525169Y1937974D1*
X1526705Y1936024D1*
X1647795Y2065831D2*
Y2050472D1*
X1655040Y2052873D1*
X1662247Y2054015D1*
X1669544D1*
X1672164Y2053705D1*
X1681117Y2062961D1*
X1705705Y2087548D1*
X1697526Y2089414D1*
X1690785Y2092207D1*
X1684564Y2096019D1*
X1679015Y2100758D1*
X1677747Y2102130D1*
X1647770Y2102139D1*
X1647759Y2065801D1*
X2452476Y1239568D2*
X2501566D1*
X2501584Y1401030D1*
X2378392Y1401008D1*
X2378356Y1380919D1*
X2385583Y1378457D1*
X2393482Y1374432D1*
X2400655Y1369221D1*
X2401457Y1368480D1*
X2406593Y1370481D1*
X2413688Y1372184D1*
X2420962Y1372756D1*
X2428237Y1372184D1*
X2435332Y1370481D1*
X2442073Y1367688D1*
X2448294Y1363876D1*
X2453843Y1359137D1*
X2458582Y1353588D1*
X2462394Y1347367D1*
X2465187Y1340626D1*
X2466890Y1333531D1*
X2467462Y1326256D1*
X2466890Y1318982D1*
X2465187Y1311887D1*
X2462394Y1305146D1*
X2458582Y1298924D1*
X2453843Y1293376D1*
X2452471Y1292108D1*
X2452463Y1239596D1*
X2501467Y812947D2*
X2420226D1*
X2419766Y810096D1*
X2420461Y801258D1*
X2419766Y792419D1*
X2417696Y783798D1*
X2414303Y775607D1*
X2409671Y768048D1*
X2403913Y761306D1*
X2399689Y757533D1*
X2403913Y753709D1*
X2409671Y746968D1*
X2410816Y745253D1*
X2501577Y745258D1*
X2501584Y812830D1*
X2761182Y912950D2*
Y882951D1*
X2876653Y882955D1*
X2876686Y978348D1*
X2888707D1*
X2884539Y984238D1*
X2880514Y992137D1*
X2877774Y1000569D1*
X2876387Y1009326D1*
Y1018192D1*
X2877774Y1026949D1*
X2880514Y1035381D1*
X2884539Y1043280D1*
X2888881Y1049351D1*
X2876686Y1049364D1*
Y1183484D1*
X2870358Y1177305D1*
X2866360Y1174399D1*
X2861955Y1172155D1*
X2857254Y1170628D1*
X2852372Y1169855D1*
X2785596Y1169758D1*
X2761159D1*
X2761175Y912947D1*
X2023191Y2436792D2*
Y2473802D1*
X2004823Y2473820D1*
X2004333Y2470577D1*
Y2436810D1*
X2023174Y2436820D1*
X1726925Y1408319D2*
X1773583D1*
Y1351537D1*
X1818201Y1351508D1*
X1818189Y1549268D1*
X1812187Y1552559D1*
X1803075Y1559179D1*
X1795111Y1567143D1*
X1788491Y1576255D1*
X1783378Y1586290D1*
X1780823Y1593718D1*
X1778206Y1586290D1*
X1773093Y1576255D1*
X1766473Y1567143D1*
X1758509Y1559179D1*
X1749397Y1552559D1*
X1739362Y1547446D1*
X1728650Y1543965D1*
X1717526Y1542203D1*
X1706263D1*
X1695139Y1543965D1*
X1688702Y1545868D1*
X1688138Y1537734D1*
X1686435Y1530639D1*
X1683642Y1523898D1*
X1679830Y1517676D1*
X1678708Y1516254D1*
X1678711Y1511552D1*
X1719360Y1470769D1*
X1722266Y1466770D1*
X1724510Y1462366D1*
X1726037Y1457665D1*
X1726810Y1452783D1*
X1726907Y1408291D1*
X1773583Y1112710D2*
Y1048285D1*
X1803762Y1048288D1*
X1801620Y1053773D1*
X1799917Y1060868D1*
X1799344Y1068142D1*
X1799917Y1075416D1*
X1801620Y1082512D1*
X1804413Y1089253D1*
X1808225Y1095474D1*
X1812964Y1101023D1*
X1814336Y1102291D1*
X1814732Y1108936D1*
X1815217Y1111371D1*
X1814515Y1112697D1*
X1773571D1*
X1854442Y1274292D2*
Y1296325D1*
X1850148Y1293150D1*
X1845744Y1290906D1*
X1841043Y1289379D1*
X1836161Y1288605D1*
X1781765Y1288508D1*
X1787454Y1287044D1*
X1794195Y1284251D1*
X1800417Y1280439D1*
X1805965Y1275700D1*
X1807233Y1274328D1*
X1854434Y1274319D1*
X536513Y3214498D2*
X527880Y3211704D1*
X518879Y3209895D1*
X509729Y3209134D1*
X500553Y3209431D1*
X491471Y3210782D1*
X482606Y3213169D1*
X474074Y3216560D1*
X470218Y3218491D1*
X470213Y3159006D1*
X476779Y3162155D1*
X485430Y3165227D1*
X494379Y3167283D1*
X503504Y3168296D1*
X512685Y3168252D1*
X521800Y3167152D1*
X530728Y3165010D1*
X536513Y3163013D1*
X534092Y3171083D1*
X532933Y3176914D1*
X532234Y3182817D1*
X532001Y3188758D1*
X532234Y3194698D1*
X532933Y3200602D1*
X534092Y3206432D1*
X536582Y3214529D1*
X1362342Y718171D2*
X1361601Y709020D1*
X1359812Y700015D1*
X1356999Y691275D1*
X1353199Y682917D1*
X1348462Y675052D1*
X1342852Y667784D1*
X1336443Y661210D1*
X1329319Y655418D1*
X1321577Y650484D1*
X1313318Y646473D1*
X1304652Y643440D1*
X1295695Y641424D1*
X1286565Y640452D1*
X1277384Y640537D1*
X1268274Y641678D1*
X1259356Y643860D1*
X1253913Y645751D1*
X1256334Y637683D1*
X1257494Y631852D1*
X1258192Y625949D1*
X1258426Y620008D1*
X1258192Y614068D1*
X1257494Y608164D1*
X1256334Y602334D1*
X1253844Y594237D1*
X1262200Y596971D1*
X1271193Y598821D1*
X1280339Y599623D1*
X1289517Y599367D1*
X1298604Y598057D1*
X1307481Y595709D1*
X1316028Y592356D1*
X1324132Y588042D1*
X1331686Y582823D1*
X1338589Y576770D1*
X1344750Y569963D1*
X1350087Y562492D1*
X1354528Y554456D1*
X1358015Y545963D1*
X1360502Y537125D1*
X1361955Y528059D1*
X1362363Y520008D1*
X1361834Y510842D1*
X1360253Y501798D1*
X1357642Y492996D1*
X1354036Y484553D1*
X1349482Y476580D1*
X1344041Y469185D1*
X1337785Y462465D1*
X1330797Y456510D1*
X1323170Y451399D1*
X1315006Y447199D1*
X1306412Y443966D1*
X1297504Y441744D1*
X1288399Y440562D1*
X1279219Y440435D1*
X1270085Y441366D1*
X1261119Y443342D1*
X1252439Y446336D1*
X1244162Y450310D1*
X1236398Y455209D1*
X1229248Y460970D1*
X1222809Y467515D1*
X1217166Y474757D1*
X1212394Y482601D1*
X1208557Y490941D1*
X1205704Y499668D1*
X1203875Y508666D1*
X1203094Y517814D1*
X1203370Y526991D1*
X1204701Y536075D1*
X1207068Y544946D1*
X1208454Y548802D1*
X1200388Y546388D1*
X1194557Y545228D1*
X1188653Y544529D1*
X1182713Y544296D1*
X1176773Y544529D1*
X1170869Y545228D1*
X1165038Y546388D1*
X1156942Y548878D1*
X1159630Y540694D1*
X1161499Y531705D1*
X1162322Y522561D1*
X1162172Y514501D1*
X1161010Y505394D1*
X1158808Y496480D1*
X1155595Y487880D1*
X1151414Y479706D1*
X1146319Y472068D1*
X1140380Y465066D1*
X1133674Y458795D1*
X1126291Y453337D1*
X1118329Y448765D1*
X1109894Y445140D1*
X1101097Y442510D1*
X1092057Y440909D1*
X1082892Y440359D1*
X1073725Y440868D1*
X1064677Y442428D1*
X1055869Y445019D1*
X1047418Y448606D1*
X1039435Y453142D1*
X1032028Y458567D1*
X1025294Y464808D1*
X1019323Y471782D1*
X1014194Y479398D1*
X1009976Y487552D1*
X1006724Y496139D1*
X1004482Y505042D1*
X1003280Y514144D1*
X1003133Y523324D1*
X1004043Y532460D1*
X1005998Y541431D1*
X1008973Y550117D1*
X1012928Y558403D1*
X1017810Y566178D1*
X1023554Y573340D1*
X1030085Y579794D1*
X1037315Y585453D1*
X1045148Y590243D1*
X1053480Y594099D1*
X1062200Y596971D1*
X1071193Y598821D1*
X1080339Y599623D1*
X1089517Y599367D1*
X1098604Y598057D1*
X1107481Y595709D1*
X1111513Y594264D1*
X1109092Y602334D1*
X1107933Y608164D1*
X1107234Y614068D1*
X1107001Y620008D1*
X1107234Y625949D1*
X1107933Y631852D1*
X1109092Y637683D1*
X1111582Y645780D1*
X1102880Y642954D1*
X1093879Y641145D1*
X1084729Y640384D1*
X1075553Y640681D1*
X1066471Y642032D1*
X1057606Y644419D1*
X1049074Y647811D1*
X1040989Y652162D1*
X1033459Y657414D1*
X1026582Y663498D1*
X1020452Y670333D1*
X1015149Y677828D1*
X1010744Y685883D1*
X1007295Y694392D1*
X1004848Y703241D1*
X1003436Y712313D1*
X1003077Y721488D1*
X1003777Y730642D1*
X1005525Y739656D1*
X1008299Y748408D1*
X1012061Y756783D1*
X1016762Y764669D1*
X1022340Y771962D1*
X1028720Y778564D1*
X1035817Y784389D1*
X1043538Y789358D1*
X1051779Y793405D1*
X1060430Y796478D1*
X1069379Y798534D1*
X1078504Y799547D1*
X1087685Y799503D1*
X1096800Y798402D1*
X1105728Y796260D1*
X1114350Y793105D1*
X1122552Y788979D1*
X1130224Y783936D1*
X1137265Y778044D1*
X1143582Y771381D1*
X1149089Y764035D1*
X1153715Y756104D1*
X1157397Y747693D1*
X1160086Y738915D1*
X1161748Y729885D1*
X1162360Y720724D1*
X1162024Y712670D1*
X1160652Y703591D1*
X1158245Y694731D1*
X1156975Y691215D1*
X1165038Y693629D1*
X1170869Y694789D1*
X1176773Y695488D1*
X1182713Y695721D1*
X1188653Y695488D1*
X1194557Y694789D1*
X1200388Y693629D1*
X1208484Y691139D1*
X1205704Y699668D1*
X1203875Y708666D1*
X1203094Y717814D1*
X1203370Y726991D1*
X1204701Y736075D1*
X1207068Y744946D1*
X1210440Y753485D1*
X1214773Y761580D1*
X1220008Y769122D1*
X1226077Y776012D1*
X1232898Y782158D1*
X1240381Y787477D1*
X1248427Y791901D1*
X1256928Y795369D1*
X1265771Y797835D1*
X1274840Y799268D1*
X1284014Y799647D1*
X1293170Y798969D1*
X1302187Y797241D1*
X1310945Y794487D1*
X1319329Y790743D1*
X1327225Y786059D1*
X1334531Y780498D1*
X1341148Y774133D1*
X1346988Y767049D1*
X1351974Y759340D1*
X1356040Y751108D1*
X1359132Y742463D1*
X1361208Y733519D1*
X1362242Y724396D1*
X1362342Y718171D1*
X1943273Y2819785D2*
X1936732Y2825505D1*
X1929417Y2834069D1*
X1923532Y2843672D1*
X1919222Y2854078D1*
X1918619Y2856218D1*
X1916002Y2848790D1*
X1910888Y2838755D1*
X1904268Y2829643D1*
X1896304Y2821679D1*
X1893901Y2819785D1*
X1943202D1*
X2062082Y1031697D2*
X2014907Y1031630D1*
X2016610Y1024535D1*
X2017183Y1017260D1*
X2016610Y1009986D1*
X2014907Y1002891D1*
X2012115Y996150D1*
X2008302Y989928D1*
X2003563Y984380D1*
X2002422Y983325D1*
X2092333Y983319D1*
Y980126D1*
X2098536Y984656D1*
X2105613Y988181D1*
X2062110Y1031683D1*
X2092333Y848504D2*
X2092366Y797727D1*
X2093520Y802534D1*
X2095411Y807100D1*
X2097994Y811315D1*
X2101204Y815074D1*
X2110212Y824081D1*
X2110187Y852311D1*
X2102688Y849793D1*
X2095481Y848652D1*
X2092331Y848528D1*
X1960605Y656697D2*
X1960593Y663479D1*
X1775596Y663508D1*
X1771607Y659650D1*
X1765704Y655361D1*
X1759202Y652048D1*
X1753759Y650215D1*
X1761004Y648288D1*
X1960628D1*
X1960593Y656684D1*
X2304931Y656729D2*
Y607761D1*
X2533576Y607759D1*
X2533543Y686900D1*
X2529139Y684656D1*
X2524438Y683128D1*
X2519556Y682355D1*
X2452780Y682258D1*
X2410831D1*
X2406924Y677064D1*
X2400655Y670795D1*
X2393482Y665584D1*
X2385583Y661559D1*
X2377151Y658819D1*
X2368394Y657432D1*
X2359528D1*
X2350771Y658819D1*
X2342340Y661559D1*
X2334440Y665584D1*
X2327267Y670795D1*
X2320998Y677064D1*
X2315787Y684237D1*
X2311762Y692136D1*
X2309526Y698783D1*
X2304930Y698528D1*
X2304895Y656697D1*
X2220164Y983319D2*
X2304931D1*
Y972446D1*
X2305898Y971861D1*
X2307635Y971825D1*
Y980691D1*
X2308289Y985759D1*
X2300503Y986148D1*
X2295697Y987302D1*
X2291130Y989194D1*
X2286916Y991776D1*
X2283150Y994994D1*
X2276382Y1001761D1*
X2220210Y1001760D1*
X2220187Y983350D1*
X2410896Y1542724D2*
X2400871Y1541982D1*
X2389642Y1542866D1*
X2378691Y1545495D1*
X2378340Y1545625D1*
X2378356Y1532778D1*
X2400941Y1532759D1*
X2410847Y1542690D1*
X2356659Y1557285D2*
X2350118Y1563005D1*
X2342803Y1571569D1*
X2336918Y1581172D1*
X2332608Y1591578D1*
X2332004Y1593718D1*
X2329387Y1586290D1*
X2324274Y1576255D1*
X2317654Y1567143D1*
X2309690Y1559179D1*
X2307287Y1557285D1*
X2356601Y1557286D1*
X2332004Y1633798D2*
X2334559Y1641225D1*
X2339672Y1651260D1*
X2346292Y1660372D1*
X2349624Y1663977D1*
X2314349Y1663981D1*
X2321143Y1655946D1*
X2327028Y1646343D1*
X2331338Y1635938D1*
X2331942Y1633798D1*
X2075255Y1665183D2*
X2083091Y1671825D1*
X2092695Y1677710D1*
X2103100Y1682020D1*
X2114052Y1684650D1*
X2125280Y1685533D1*
X2136508Y1684650D1*
X2147460Y1682020D1*
X2151901Y1680382D1*
X2094927Y1737359D1*
X2071201Y1737351D1*
X2073720Y1731585D1*
X2074874Y1726779D1*
X2075262Y1721851D1*
Y1665262D1*
X1964169Y1681601D2*
X1970729Y1683550D1*
X1981853Y1685312D1*
X1993116D1*
X2004240Y1683550D1*
X2012246Y1681068D1*
X2012262Y1706325D1*
X1939451Y1706351D1*
X1964148Y1681642D1*
X1708279Y2506750D2*
Y2551476D1*
X1667442Y2551481D1*
X1667431Y2521747D1*
X1674205Y2521176D1*
X1681300Y2519473D1*
X1688042Y2516680D1*
X1694263Y2512868D1*
X1699811Y2508129D1*
X1701080Y2506757D1*
X1708305Y2506749D1*
X1657490Y2679361D2*
Y2663500D1*
X1718129Y2663536D1*
X1718122Y2677831D1*
X1710584Y2674060D1*
X1702152Y2671320D1*
X1693395Y2669933D1*
X1684530D1*
X1675773Y2671320D1*
X1667341Y2674060D1*
X1659441Y2678085D1*
X1657496Y2679385D1*
X3688180Y1450148D2*
X3693520Y1457477D1*
X3700151Y1464108D1*
X3707739Y1469621D1*
X3714147Y1472981D1*
X3707739Y1476401D1*
X3700151Y1481914D1*
X3693520Y1488545D1*
X3688180Y1495874D1*
X3670393Y1495861D1*
X3664614Y1494855D1*
X3628375Y1494758D1*
X3628356Y1451527D1*
X3664490Y1451411D1*
X3672553Y1450161D1*
X3688163D1*
X3688180Y1558849D2*
X3693520Y1566177D1*
X3700151Y1572809D1*
X3707739Y1578322D1*
X3714147Y1581682D1*
X3707739Y1585102D1*
X3700151Y1590614D1*
X3693520Y1597246D1*
X3688180Y1604575D1*
X3661567Y1604659D1*
X3656685Y1605432D1*
X3651975Y1606964D1*
X3628364Y1607259D1*
X3628356Y1582731D1*
X3569542D1*
X3570107Y1582285D1*
X3628356D1*
Y1557776D1*
X3654960Y1557758D1*
X3660774Y1558764D1*
X3688185Y1558862D1*
X3914723Y2770507D2*
X3913672Y2761383D1*
X3911928Y2752366D1*
X3909501Y2743509D1*
X3906404Y2734862D1*
X3902656Y2726478D1*
X3898279Y2718404D1*
X3893299Y2710687D1*
X3887743Y2703374D1*
X3881646Y2696506D1*
X3875042Y2690123D1*
X3867970Y2684264D1*
X3860471Y2678961D1*
X3852589Y2674247D1*
X3844371Y2670148D1*
X3835863Y2666689D1*
X3827116Y2663889D1*
X3818181Y2661765D1*
X3809110Y2660330D1*
X3799955Y2659591D1*
X3790771Y2659553D1*
X3781611Y2660217D1*
X3772528Y2661579D1*
X3763576Y2663629D1*
X3754807Y2666358D1*
X3746271Y2669747D1*
X3738019Y2673779D1*
X3730099Y2678429D1*
X3722557Y2683670D1*
X3715438Y2689472D1*
X3708782Y2695800D1*
X3702628Y2702618D1*
X3697014Y2709886D1*
X3691970Y2717561D1*
X3687527Y2725599D1*
X3683711Y2733953D1*
X3680544Y2742574D1*
X3678044Y2751411D1*
X3676227Y2760414D1*
X3675102Y2769529D1*
X3674676Y2778703D1*
X3674952Y2787883D1*
X3675928Y2797015D1*
X3677598Y2806046D1*
X3679953Y2814923D1*
X3682979Y2823594D1*
X3686658Y2832009D1*
X3690969Y2840119D1*
X3695887Y2847875D1*
X3701382Y2855234D1*
X3707423Y2862151D1*
X3713975Y2868588D1*
X3720999Y2874505D1*
X3728454Y2879868D1*
X3736297Y2884647D1*
X3744482Y2888813D1*
X3752961Y2892342D1*
X3761685Y2895213D1*
X3770603Y2897409D1*
X3779662Y2898919D1*
X3788810Y2899732D1*
X3797993Y2899845D1*
X3807159Y2899256D1*
X3816252Y2897968D1*
X3825221Y2895991D1*
X3834012Y2893334D1*
X3842575Y2890014D1*
X3850860Y2886050D1*
X3858817Y2881465D1*
X3866402Y2876286D1*
X3873569Y2870542D1*
X3880276Y2864269D1*
X3886485Y2857501D1*
X3892159Y2850279D1*
X3897265Y2842645D1*
X3901773Y2834644D1*
X3905657Y2826322D1*
X3908895Y2817727D1*
X3911466Y2808910D1*
X3913357Y2799923D1*
X3914557Y2790818D1*
X3915074Y2779684D1*
X3914723Y2770507D1*
Y918066D2*
X3913672Y908942D1*
X3911928Y899925D1*
X3909501Y891068D1*
X3906404Y882421D1*
X3902656Y874037D1*
X3898279Y865963D1*
X3893299Y858246D1*
X3887743Y850933D1*
X3881646Y844065D1*
X3875042Y837682D1*
X3867970Y831823D1*
X3860471Y826520D1*
X3852589Y821806D1*
X3844371Y817707D1*
X3835863Y814248D1*
X3827116Y811448D1*
X3818181Y809324D1*
X3809110Y807889D1*
X3799955Y807150D1*
X3790771Y807113D1*
X3781611Y807776D1*
X3772528Y809138D1*
X3763576Y811188D1*
X3754807Y813917D1*
X3746271Y817307D1*
X3738019Y821338D1*
X3730099Y825988D1*
X3722557Y831229D1*
X3715438Y837031D1*
X3708782Y843359D1*
X3702628Y850177D1*
X3697014Y857445D1*
X3691970Y865120D1*
X3687527Y873158D1*
X3683711Y881512D1*
X3680544Y890133D1*
X3678044Y898970D1*
X3676227Y907973D1*
X3675102Y917088D1*
X3674676Y926262D1*
X3674952Y935442D1*
X3675928Y944574D1*
X3677598Y953605D1*
X3679953Y962482D1*
X3682979Y971153D1*
X3686658Y979568D1*
X3690969Y987678D1*
X3695887Y995434D1*
X3701382Y1002793D1*
X3707423Y1009710D1*
X3713975Y1016147D1*
X3720999Y1022064D1*
X3728454Y1027427D1*
X3736297Y1032206D1*
X3744482Y1036372D1*
X3752961Y1039901D1*
X3761685Y1042772D1*
X3770603Y1044968D1*
X3779662Y1046478D1*
X3788810Y1047291D1*
X3797993Y1047404D1*
X3807159Y1046815D1*
X3816252Y1045528D1*
X3825221Y1043550D1*
X3834012Y1040893D1*
X3842575Y1037573D1*
X3850860Y1033609D1*
X3858817Y1029024D1*
X3866402Y1023845D1*
X3873569Y1018101D1*
X3880276Y1011828D1*
X3886485Y1005060D1*
X3892159Y997838D1*
X3897265Y990205D1*
X3901773Y982203D1*
X3905657Y973881D1*
X3908895Y965286D1*
X3911466Y956469D1*
X3913357Y947482D1*
X3914557Y938377D1*
X3915074Y927243D1*
X3914723Y918066D1*
X1700044Y1809508D2*
X1696095Y1805657D1*
X1690192Y1801369D1*
X1688362Y1800344D1*
X1787818Y1800351D1*
X1783028Y1803397D1*
X1777480Y1808136D1*
X1776211Y1809508D1*
X1700088Y1809516D1*
X1205567Y2220254D2*
X1203297Y2223537D1*
X1203710Y2220270D1*
X1196870Y2240377D2*
X1196183Y2248225D1*
X1196755Y2255499D1*
X1198459Y2262594D1*
X1198869Y2263705D1*
X1157952D1*
X1161111Y2262058D1*
X1168318Y2260917D1*
X1175257Y2258662D1*
X1181759Y2255349D1*
X1187662Y2251060D1*
X1192821Y2245901D1*
X1196849Y2240389D1*
X3071847Y3615714D2*
D14*
Y3563659D1*
X3015855D2*
X3071847D1*
X3145213Y3615812D2*
Y3563758D1*
X3201205D1*
X2301462Y3403312D2*
Y3351258D1*
X2232712Y3403312D2*
Y3351258D1*
X2770213Y3403312D2*
Y3351258D1*
X2695312Y3403411D2*
Y3351356D1*
X2603098Y3615714D2*
Y3563659D1*
X2547106D2*
X2603098D1*
X2670212Y3615812D2*
Y3563758D1*
X2726204D1*
X3388913Y3176259D2*
Y3124204D1*
X3332921Y3176259D2*
X3444904D1*
X1838962Y3409563D2*
Y3357508D1*
X1363913Y3403312D2*
Y3351258D1*
X1295163Y3403312D2*
Y3351258D1*
X1239172D2*
X1295163D1*
X1670163Y3615812D2*
Y3563758D1*
X1614172D2*
X1670163D1*
X1738913Y3615812D2*
Y3563758D1*
X1794904D1*
X1563962Y2368276D2*
X1619954D1*
X1488962Y2422063D2*
Y2370008D1*
X1763962Y3411295D2*
Y3359241D1*
X2151364Y3634465D2*
Y3582410D1*
X2226462Y3634563D2*
Y3582508D1*
X2282454D1*
X1289220Y2370008D2*
X1345212D1*
X1345210Y1701260D2*
Y1649206D1*
Y1701260D2*
X1401202D1*
X1276461Y1702993D2*
Y1650938D1*
X1220470Y1702993D2*
X1276461D1*
X839158Y2513500D2*
Y2401516D1*
X787104Y2457508D2*
X839158D1*
Y2326000D2*
Y2214016D1*
X787104Y2270008D2*
X839158D1*
X1982712Y1445008D2*
X2034767D1*
X1982909Y1513759D2*
X2034963D1*
X2043157Y2720008D2*
X2095212D1*
X2043157Y2645008D2*
X2095212D1*
X1876462Y1970008D2*
Y1914017D1*
X845212Y1332508D2*
Y1272777D1*
X785480Y1332508D2*
X904944D1*
X1126461Y1807508D2*
X1186390D1*
X3851462Y3387122D2*
Y3307508D1*
X3771849D2*
X3931076D1*
X3851462Y3107508D2*
Y3027895D1*
X3771849Y3107508D2*
X3931076D1*
X4051462Y3187122D2*
Y3027895D1*
X3971849Y3107508D2*
X4051462D1*
Y3387122D2*
Y3227895D1*
X3971849Y3307508D2*
X4051462D1*
X1107712Y3724622D2*
Y3565395D1*
X1028098Y3645008D2*
X1187326D1*
X1307712Y3724622D2*
Y3565395D1*
X1228098Y3645008D2*
X1387326D1*
X1307712Y3845008D2*
Y3765395D1*
X1228098Y3845008D2*
X1387326D1*
X1107712D2*
Y3765395D1*
X1028098Y3845008D2*
X1187326D1*
X2045163Y3638973D2*
Y3526044D1*
X1988699Y3582508D2*
X2045163D1*
X863962Y3588973D2*
Y3476044D1*
X807498Y3532508D2*
X920427D1*
X3670212Y3595223D2*
Y3482295D1*
X3613748Y3538759D2*
X3726676D1*
X2173079Y2482508D2*
X2304747D1*
X2951561Y2138758D2*
X3017395D1*
X2951561Y2188758D2*
X3017395D1*
X2951561Y2238758D2*
X3017395D1*
X2951561Y2288758D2*
X3017395D1*
X2951561Y2338758D2*
X3017395D1*
X2951561Y2388758D2*
X3017395D1*
X1438224Y1858049D2*
Y1798120D1*
X2629477Y901258D2*
X2761146D1*
X2629477Y951258D2*
X2761146D1*
X2629477Y1001258D2*
X2761146D1*
X2629477Y1051258D2*
X2761146D1*
X2629477Y1101258D2*
X2761146D1*
X2629478Y1151258D2*
X2761146D1*
X1641879Y1070008D2*
X1773547D1*
X707713Y3088758D2*
Y3009144D1*
X628099Y3088758D2*
X787327D1*
X707713Y3368371D2*
Y3288758D1*
X628099D2*
X787327D1*
X507713Y3368371D2*
Y3209144D1*
Y3288758D2*
X587327D1*
X507713Y3168371D2*
Y3009144D1*
Y3088758D2*
X587327D1*
X1282713Y799622D2*
Y640395D1*
X1203099Y720008D2*
X1362327D1*
X1082713Y799622D2*
Y640395D1*
X1003099Y720008D2*
X1162327D1*
X1082713Y599622D2*
Y440395D1*
X1003099Y520008D2*
X1162327D1*
X1282713Y599622D2*
Y440395D1*
X1203099Y520008D2*
X1362327D1*
X2026462Y845008D2*
X2092297D1*
X1226461Y2445205D2*
Y2393151D1*
X1170469Y2445205D2*
X1282453D1*
X1708315Y2517745D2*
X1770212D1*
X1388962Y2557508D2*
X1454797D1*
X1388962Y2507508D2*
X1454797D1*
X1535727D2*
X1601561D1*
X1535727Y2557508D2*
X1667395D1*
X2463962Y2776000D2*
Y2720008D1*
X2268157Y1788758D2*
X2320212D1*
Y1720008D2*
Y1664017D1*
X2268157Y1720008D2*
X2320212D1*
X2051141Y576259D2*
X2103196D1*
X2101462Y507508D2*
Y451517D1*
X2049408Y507508D2*
X2101462D1*
X2199408Y1432508D2*
X2251462D1*
X2199408Y1501259D2*
X2251462D1*
X3791046Y1907821D2*
X3910510D1*
X3287105Y1420008D2*
X3339159D1*
X3338962Y1582249D2*
Y1526258D1*
X3286908D2*
X3338962D1*
Y1694750D2*
Y1582767D1*
X3286908Y1638759D2*
X3338962D1*
D15*
X3071847Y3563659D3*
Y3488856D3*
X3145213Y3563758D3*
Y3488955D3*
D16*
X1070163Y3201258D3*
X1144966D3*
X2007713Y3126259D3*
X2082516D3*
X2457713Y3126258D3*
X2532516D3*
D15*
X2301462Y3351258D3*
Y3276455D3*
X2232712Y3351258D3*
Y3276455D3*
X2770213Y3351258D3*
Y3276455D3*
X2695312Y3351356D3*
Y3276553D3*
D16*
X2926462Y3126258D3*
X3001266D3*
D15*
X2603098Y3563659D3*
Y3488856D3*
X2670212Y3563758D3*
Y3488955D3*
X3388913Y3176259D3*
Y3251062D3*
X1838962Y3357508D3*
Y3282705D3*
X1363913Y3351258D3*
Y3276455D3*
X1295163Y3351258D3*
Y3276455D3*
X1670163Y3563758D3*
Y3488955D3*
X1738913Y3563758D3*
Y3488955D3*
D16*
X1532663Y3126258D3*
X1607466D3*
D15*
X1563962Y2368276D3*
Y2293473D3*
X1488962Y2370008D3*
Y2295205D3*
X1763962Y3359241D3*
Y3284438D3*
X2151364Y3582410D3*
Y3507607D3*
X2226462Y3582508D3*
Y3507705D3*
X1413961Y2368276D3*
Y2293473D3*
X1345212Y2370008D3*
Y2295205D3*
X1345210Y1701260D3*
Y1776064D3*
X1276461Y1702993D3*
Y1777796D3*
D16*
X913961Y2457508D3*
X839158D3*
X913961Y2270008D3*
X839158D3*
X1982712Y1445008D3*
X1907909D3*
X1982909Y1513759D3*
X1908106D3*
X2095212Y2720008D3*
X2170015D3*
X2095212Y2645008D3*
X2170015D3*
D15*
X1226461Y2520008D3*
Y2445205D3*
D17*
X1770212Y2407508D3*
Y2517745D3*
D16*
X2463962Y2651259D3*
X2538766D3*
X2463962Y2720008D3*
X2538766D3*
X2320212Y1788758D3*
X2395015D3*
X2320212Y1720008D3*
X2395015D3*
X2103196Y576259D3*
X2177999D3*
X2101462Y507508D3*
X2176266D3*
X2251462Y1432508D3*
X2326266D3*
X2251462Y1501259D3*
X2326266D3*
X1876462Y2120008D3*
X1951266D3*
X1876462Y2195008D3*
X1951266D3*
X1876462Y2045008D3*
X1951266D3*
X1876462Y1970008D3*
X1951266D3*
X1913764Y770008D3*
X1838961D3*
X1913764Y838758D3*
X1838961D3*
X1913961Y907508D3*
X1839158D3*
X1913961Y976259D3*
X1839158D3*
X3413962Y1420008D3*
X3339159D3*
X3338962Y1526258D3*
X3413766D3*
X3338962Y1638759D3*
X3413766D3*
D18*
X3851462Y3307508D3*
Y3107508D3*
X4051462D3*
Y3307508D3*
D19*
X3951462Y3207508D3*
D18*
X1282713Y720008D3*
X1082713D3*
Y520008D3*
X1282713D3*
D19*
X1182713Y620008D3*
D20*
X845212Y1332508D3*
D21*
Y1441564D3*
Y1550619D3*
Y1659674D3*
Y1768729D3*
X733401Y1387036D3*
Y1496091D3*
Y1605146D3*
Y1714201D3*
D22*
X789307Y1058690D3*
Y2042548D3*
D23*
X1026461Y2007508D3*
D24*
X1126461D3*
X1026461Y1907508D3*
X1126461D3*
X1026461Y1807508D3*
X1126461D3*
D20*
X3738967Y1201259D3*
D21*
Y1309960D3*
Y1418661D3*
Y1527361D3*
Y1636062D3*
Y1744763D3*
Y1853464D3*
Y1962165D3*
Y2070865D3*
Y2179566D3*
Y2288267D3*
Y2396968D3*
Y2505669D3*
X3850778Y1255616D3*
Y1364317D3*
Y1473018D3*
Y1581718D3*
Y1690419D3*
Y1799120D3*
Y1907821D3*
Y2016522D3*
Y2125222D3*
Y2233923D3*
Y2342624D3*
Y2451325D3*
D22*
X3794873Y2779684D3*
Y927243D3*
D18*
X1107712Y3645008D3*
X1307712D3*
Y3845008D3*
X1107712D3*
D19*
X1207712Y3745008D3*
D18*
X707713Y3088758D3*
Y3288758D3*
X507713D3*
Y3088758D3*
D19*
X607713Y3188758D3*
D25*
X2676461Y2876258D3*
D26*
X2538666D3*
X2400871D3*
X2263075D3*
X2125280D3*
X1987485D3*
X1849690D3*
X1711894D3*
D25*
X2676461Y1613758D3*
D26*
X2538666D3*
X2400871D3*
X2263075D3*
X2125280D3*
X1987485D3*
X1849690D3*
X1711894D3*
D16*
X2307713Y3195008D3*
X2382516D3*
X2457713D3*
X2532516D3*
X2782812D3*
X2857615D3*
X2924829D3*
X2999632D3*
X3314011Y3326258D3*
X3388814D3*
X1220163Y3201258D3*
X1294966D3*
X2157713Y3195008D3*
X2232516D3*
X2638962D3*
X2713766D3*
X3163914Y3326258D3*
X3238717D3*
X1857713Y3195008D3*
X1932516D3*
X1701462D3*
X1776266D3*
X2006078D3*
X2080881D3*
X1532663Y3201258D3*
X1607466D3*
X1376414D3*
X1451217D3*
X1770212Y2682508D3*
X1845015D3*
X2020212Y2195008D3*
X2095015D3*
X2020212Y2120008D3*
X2095015D3*
X2020212Y2045008D3*
X2095015D3*
X2020212Y1970008D3*
X2095015D3*
X1770210Y770008D3*
X1695407D3*
X1770210Y838759D3*
X1695407D3*
X1770210Y907508D3*
X1695407D3*
X1770210Y976259D3*
X1695407D3*
X3463914Y3251258D3*
X3538717D3*
X1226462Y2607508D3*
X1301266D3*
D15*
X1601462Y2670008D3*
Y2744812D3*
D16*
X1770212Y2607508D3*
X1695409D3*
X1988961Y2763758D3*
X1914158D3*
X1557712Y1145008D3*
X1482909D3*
D15*
X2957713Y2945008D3*
Y2870205D3*
Y2695008D3*
Y2620205D3*
Y1907508D3*
Y1832705D3*
Y1670008D3*
Y1595205D3*
X2932713Y1176258D3*
Y1101455D3*
Y926258D3*
Y851455D3*
D16*
X3501462Y1420008D3*
X3576266D3*
X3501462Y1526258D3*
X3576266D3*
X3501462Y1638759D3*
X3576266D3*
D27*
X2638962Y3107508D3*
X3388913Y3420008D3*
X3163913Y3232508D3*
X2588962Y1932508D3*
X2045163Y3582508D3*
X863962Y3532508D3*
X3670212Y3538759D3*
X1149680Y3107508D3*
X1295163Y3101258D3*
X2307712D3*
X2782713Y3107508D3*
X1776462Y3101258D3*
X1062180Y3107508D3*
X2588962Y2020008D3*
Y2107508D3*
Y2195008D3*
Y2282508D3*
Y2370008D3*
Y2451258D3*
Y2538758D3*
X2363961Y713758D3*
X1782713Y1945010D3*
X2363961Y801258D3*
Y888758D3*
Y976258D3*
Y1063758D3*
Y1151258D3*
Y1238758D3*
Y1326258D3*
X1301461Y2520008D3*
X1782713Y2032510D3*
Y2120008D3*
Y2207508D3*
X1570210Y1545008D3*
Y1457508D3*
Y1370008D3*
Y1282508D3*
X1388962Y2688758D3*
X1688962Y2726259D3*
X2957713Y3026258D3*
Y2782508D3*
Y2538758D3*
X2957712Y1982508D3*
X2957713Y1751258D3*
Y1513758D3*
X2932713Y1263759D3*
Y1013759D3*
X2932712Y763759D3*
D28*
X2857663Y3426258D3*
Y3376258D3*
Y3326258D3*
Y3276258D3*
X3070262D3*
Y3326258D3*
Y3376258D3*
Y3426258D3*
X1457613D3*
Y3376258D3*
Y3326258D3*
Y3276258D3*
X1670212D3*
Y3326258D3*
Y3376258D3*
Y3426258D3*
X1932663Y3432508D3*
Y3382508D3*
Y3332508D3*
Y3282508D3*
X2145262D3*
Y3332508D3*
Y3382508D3*
Y3432508D3*
X2738962Y2438758D3*
Y2388758D3*
Y2338758D3*
Y2288758D3*
Y2238758D3*
Y2188758D3*
Y2138758D3*
Y2088758D3*
X2951561D3*
Y2138758D3*
Y2188758D3*
Y2238758D3*
Y2288758D3*
Y2338758D3*
Y2388758D3*
Y2438758D3*
X2388914Y3426258D3*
Y3376258D3*
Y3326258D3*
Y3276258D3*
X2601512D3*
Y3326258D3*
Y3376258D3*
Y3426258D3*
D30*
X1532712Y2188758D3*
X1501216D3*
X1469720D3*
X1438224D3*
X1406728D3*
X1375231D3*
X1343735D3*
X1312239D3*
D31*
X1257121Y2133640D3*
Y2102144D3*
Y2070648D3*
Y2039151D3*
Y2007655D3*
Y1976159D3*
Y1944663D3*
Y1913167D3*
D30*
X1312239Y1858049D3*
X1343735D3*
X1375231D3*
X1406728D3*
X1438224D3*
X1469720D3*
X1501216D3*
X1532712D3*
D31*
X1587830Y1913167D3*
Y1944663D3*
Y1976159D3*
Y2007655D3*
Y2039151D3*
Y2070648D3*
Y2102144D3*
Y2133640D3*
D28*
X2482713Y1201258D3*
Y1151258D3*
Y1101258D3*
Y1051258D3*
Y1001258D3*
Y951258D3*
Y901258D3*
Y851258D3*
X2695312D3*
Y901258D3*
Y951258D3*
Y1001258D3*
Y1051258D3*
Y1101258D3*
Y1151258D3*
Y1201258D3*
X1876462Y2582508D3*
Y2532508D3*
Y2482508D3*
Y2432508D3*
Y2382508D3*
Y2332508D3*
Y2282508D3*
X2089061D3*
Y2332508D3*
Y2382508D3*
Y2432508D3*
Y2482508D3*
Y2532508D3*
Y2582508D3*
X1707713Y1370008D3*
Y1320008D3*
Y1270008D3*
Y1220008D3*
Y1170008D3*
Y1120008D3*
Y1070008D3*
X1920312D3*
Y1120008D3*
Y1170008D3*
Y1220008D3*
Y1270008D3*
Y1320008D3*
Y1370008D3*
X2238913Y2582508D3*
Y2532508D3*
Y2482508D3*
Y2432508D3*
Y2382508D3*
Y2332508D3*
Y2282508D3*
X2451511D3*
Y2332508D3*
Y2382508D3*
Y2432508D3*
Y2482508D3*
Y2532508D3*
Y2582508D3*
X2026462Y945008D3*
Y895008D3*
Y845008D3*
Y795008D3*
Y745008D3*
Y695008D3*
Y645008D3*
X2239061D3*
Y695008D3*
Y745008D3*
Y795008D3*
Y845008D3*
Y895008D3*
Y945008D3*
X1388962Y2607508D3*
Y2557508D3*
Y2507508D3*
Y2457508D3*
X1601561D3*
Y2507508D3*
Y2557508D3*
Y2607508D3*
X2026462Y1370008D3*
Y1320008D3*
Y1270008D3*
Y1220008D3*
Y1170008D3*
Y1120008D3*
Y1070008D3*
X2239061D3*
Y1120008D3*
Y1170008D3*
Y1220008D3*
Y1270008D3*
Y1320008D3*
Y1370008D3*
X2245212Y2157508D3*
Y2107508D3*
Y2057508D3*
Y2007508D3*
Y1957508D3*
Y1907508D3*
Y1857508D3*
X2457810D3*
Y1907508D3*
Y1957508D3*
Y2007508D3*
Y2057508D3*
Y2107508D3*
Y2157508D3*
D32*
X1082712Y2270008D3*
Y2460008D3*
M02*
