G04 DipTrace 3.3.1.3*
G04 TopSilk.gbr*
%MOIN*%
G04 #@! TF.FileFunction,Legend,Top*
G04 #@! TF.Part,Single*
%ADD10C,0.004724*%
%ADD29O,0.016422X0.016542*%
%ADD81C,0.00772*%
%FSLAX26Y26*%
G04*
G70*
G90*
G75*
G01*
G04 TopSilk*
%LPD*%
X3046276Y3605019D2*
D10*
X3097418D1*
X3119642Y3605117D2*
X3170784D1*
X1028804Y3175687D2*
Y3226829D1*
X1966354Y3100688D2*
Y3151830D1*
X2416354Y3100687D2*
Y3151829D1*
X2275892Y3392617D2*
X2327033D1*
X2207141D2*
X2258283D1*
X2744642D2*
X2795784D1*
X2669741Y3392716D2*
X2720882D1*
X2885103Y3100687D2*
Y3151829D1*
X2577527Y3605019D2*
X2628669D1*
X2644641Y3605117D2*
X2695783D1*
X3414483Y3134899D2*
X3363342D1*
X1813392Y3398868D2*
X1864533D1*
X1338342Y3392617D2*
X1389483D1*
X1269592D2*
X1320734D1*
X1644592Y3605117D2*
X1695734D1*
X1713342D2*
X1764483D1*
X1491304Y3100687D2*
Y3151829D1*
X1538392Y2409636D2*
X1589533D1*
X1463392Y2411368D2*
X1514533D1*
X1738392Y3400600D2*
X1789533D1*
X2125793Y3623770D2*
X2176935D1*
X2200892Y3623868D2*
X2252033D1*
X1388390Y2409636D2*
X1439532D1*
X1319641Y2411368D2*
X1370783D1*
X1370781Y1659901D2*
X1319640D1*
X1302032Y1661633D2*
X1250890D1*
X955321Y2483079D2*
Y2431938D1*
Y2295579D2*
Y2244438D1*
X2024071Y1470579D2*
Y1419438D1*
X2024268Y1539330D2*
Y1488188D1*
X2053852Y2694438D2*
Y2745579D1*
Y2619438D2*
Y2670579D1*
X1200890Y2561368D2*
X1252032D1*
X1801676Y2458296D2*
X1738747D1*
X1801676Y2450847D2*
X1738747D1*
X1801676D2*
Y2474406D1*
X1738747Y2450847D2*
Y2474406D1*
X2422603Y2625688D2*
Y2676830D1*
Y2694438D2*
Y2745579D1*
X2278852Y1763187D2*
Y1814329D1*
Y1694438D2*
Y1745579D1*
X2061836Y550688D2*
Y601830D1*
X2060103Y481938D2*
Y533079D1*
X2210103Y1406938D2*
Y1458079D1*
Y1475688D2*
Y1526830D1*
X4108907Y3361052D2*
X4148293D1*
Y3053965D1*
X4108907D1*
X4010523Y3364989D2*
X3892447D1*
X4108907Y3266564D2*
Y3148453D1*
X4010523Y3050028D2*
X3892447D1*
X3793982Y3266564D2*
Y3148453D1*
X4148293Y3325619D2*
X4601069D1*
Y3089398D1*
X4148293D1*
X1336256Y462564D2*
Y423178D1*
X1029170D1*
Y462564D1*
X1340193Y560947D2*
Y679024D1*
X1241768Y462564D2*
X1123658D1*
X1025233Y560947D2*
Y679024D1*
X1241768Y777489D2*
X1123658D1*
X1300823Y423178D2*
Y-29598D1*
X1064603D1*
Y423178D1*
X204408Y2042934D2*
G03X204408Y1942288I52270J-50323D01*
G01*
Y2142367D2*
G03X204408Y2042934I50784J-49717D01*
G01*
X387693D2*
G03X387693Y2142367I-48321J49717D01*
G01*
Y1942288D2*
G03X387693Y2042934I-49756J50323D01*
G01*
X204408Y1058304D2*
G03X204408Y958871I50784J-49717D01*
G01*
Y1158949D2*
G03X204408Y1058304I52270J-50323D01*
G01*
X387693D2*
G03X387693Y1158949I-49756J50323D01*
G01*
Y958871D2*
G03X387693Y1058304I-48321J49717D01*
G01*
X206581Y1899847D2*
G03X179052Y1871957I570J-28093D01*
G01*
X387693Y1899847D2*
G03X415222Y1926524I1442J26055D01*
G01*
X179052Y1229280D2*
G03X206581Y1201390I28098J204D01*
G01*
X415222Y1174713D2*
G03X387693Y1201390I-26087J622D01*
G01*
Y1942288D2*
X413048Y1967752D1*
X387693Y1942288D2*
X204408D1*
X179052Y1967752D1*
Y2118115D1*
X204408Y2142367D1*
X254394D2*
X246426D1*
X387693D2*
X204408D1*
X413048Y2118115D2*
X387693Y2142367D1*
Y2042934D2*
X204408D1*
X387693Y958871D2*
X413048Y983123D1*
X387693Y958871D2*
X204408D1*
X179052Y983123D1*
Y1133485D1*
X204408Y1158949D1*
X254394D2*
X246426D1*
X387693D2*
X204408D1*
X413048Y1133485D2*
X387693Y1158949D1*
Y1058304D2*
X204408D1*
X387693Y1899847D2*
X206581D1*
X387693Y1201390D2*
X206581D1*
X903498Y1275359D2*
X533306D1*
X415222Y944319D2*
Y2156918D1*
X903498Y1825878D2*
X533306D1*
X903498Y944319D2*
Y2156918D1*
X179052Y1229280D2*
Y1871957D1*
X903498Y944319D2*
X415222D1*
X903498Y2156918D2*
X415222D1*
X533306Y944319D2*
Y2156918D1*
X1176461Y2057508D2*
X976461D1*
Y1757508D1*
X1176461D1*
Y2057508D1*
X4377706Y1071633D2*
G03X4405396Y1098810I-276J27977D01*
G01*
X4169301Y2666724D2*
G03X4196991Y2639546I27967J799D01*
G01*
Y1071633D2*
G03X4169301Y1044456I276J-27977D01*
G01*
X4405396Y2612369D2*
G03X4377706Y2639546I-27967J-799D01*
G01*
X4379892Y2779613D2*
G03X4379892Y2879960I-51488J50173D01*
G01*
Y2681357D2*
G03X4379892Y2781704I-51488J50173D01*
G01*
X4196262D2*
G03X4196262Y2681357I51488J-50173D01*
G01*
Y2879960D2*
G03X4196262Y2779613I51488J-50173D01*
G01*
X4379892Y929476D2*
G03X4379892Y1029822I-51488J50173D01*
G01*
Y831220D2*
G03X4379892Y929476I-48918J49128D01*
G01*
X4196262D2*
G03X4196262Y831220I48918J-49128D01*
G01*
Y1029822D2*
G03X4196262Y929476I51488J-50173D01*
G01*
X4169301Y810314D2*
X3676707D1*
X4169301Y2900865D2*
X3676707D1*
Y810314D2*
Y2900865D1*
X4051253Y1146893D2*
X3676707D1*
X4169301Y810314D2*
Y2900865D1*
X4051253Y2564287D2*
X3676707D1*
X4405396Y1098810D2*
Y2612369D1*
X4377706Y1071633D2*
X4196991D1*
X4377706Y2639546D2*
X4196991D1*
X4051253Y810314D2*
Y2900865D1*
X4171487Y2854873D2*
X4196262Y2879960D1*
X4379892D2*
X4196262D1*
X4405396Y2854873D2*
X4380620Y2879960D1*
X4405396Y2706444D2*
Y2854873D1*
X4380620Y2681357D2*
X4405396Y2706444D1*
X4338356Y2681357D2*
X4330341D1*
X4379892D2*
X4196262D1*
X4171487Y2706444D1*
X4379892Y2781704D2*
X4196262D1*
X4171487Y1004735D2*
X4196262Y1029822D1*
X4379892D2*
X4196262D1*
X4405396Y1004735D2*
X4380620Y1029822D1*
X4405396Y856306D2*
Y1004735D1*
X4380620Y831220D2*
X4405396Y856306D1*
X4338356Y831220D2*
X4330341D1*
X4379892D2*
X4196262D1*
X4171487Y856306D1*
X4379892Y929476D2*
X4196262D1*
X1054169Y3902453D2*
Y3941839D1*
X1361255D1*
Y3902453D1*
X1050231Y3804069D2*
Y3685993D1*
X1148657Y3902453D2*
X1266767D1*
X1365192Y3804069D2*
Y3685993D1*
X1148657Y3587528D2*
X1266767D1*
X1089602Y3941839D2*
Y4394615D1*
X1325822D1*
Y3941839D1*
X450268Y3035214D2*
X410882D1*
Y3342301D1*
X450268D1*
X548652Y3031277D2*
X666729D1*
X450268Y3129703D2*
Y3247813D1*
X548652Y3346238D2*
X666729D1*
X765193Y3129703D2*
Y3247813D1*
X410882Y3070648D2*
X-41893D1*
Y3306868D1*
X410882D1*
X2733548Y2821140D2*
X1654808D1*
Y2931376D1*
X2733548D1*
Y2821140D1*
Y1558640D2*
X1654808D1*
Y1668876D1*
X2733548D1*
Y1558640D1*
X2595655Y3107508D2*
G02X2595655Y3107508I43307J0D01*
G01*
X3345606Y3420008D2*
G02X3345606Y3420008I43307J0D01*
G01*
X3120606Y3232508D2*
G02X3120606Y3232508I43307J0D01*
G01*
X2545655Y1932508D2*
G02X2545655Y1932508I43307J0D01*
G01*
X2001856Y3582508D2*
G02X2001856Y3582508I43307J0D01*
G01*
X820655Y3532508D2*
G02X820655Y3532508I43307J0D01*
G01*
X3626905Y3538759D2*
G02X3626905Y3538759I43307J0D01*
G01*
X1106373Y3107508D2*
G02X1106373Y3107508I43307J0D01*
G01*
X1251856Y3101258D2*
G02X1251856Y3101258I43307J0D01*
G01*
X2264405D2*
G02X2264405Y3101258I43307J0D01*
G01*
X2739406Y3107508D2*
G02X2739406Y3107508I43307J0D01*
G01*
X1733155Y3101258D2*
G02X1733155Y3101258I43307J0D01*
G01*
X1018873Y3107508D2*
G02X1018873Y3107508I43307J0D01*
G01*
X2545655Y2020008D2*
G02X2545655Y2020008I43307J0D01*
G01*
Y2107508D2*
G02X2545655Y2107508I43307J0D01*
G01*
Y2195008D2*
G02X2545655Y2195008I43307J0D01*
G01*
Y2282508D2*
G02X2545655Y2282508I43307J0D01*
G01*
Y2370008D2*
G02X2545655Y2370008I43307J0D01*
G01*
Y2451258D2*
G02X2545655Y2451258I43307J0D01*
G01*
Y2538758D2*
G02X2545655Y2538758I43307J0D01*
G01*
X2320654Y713758D2*
G02X2320654Y713758I43307J0D01*
G01*
X1739406Y1945010D2*
G02X1739406Y1945010I43307J0D01*
G01*
X2320654Y801258D2*
G02X2320654Y801258I43307J0D01*
G01*
Y888758D2*
G02X2320654Y888758I43307J0D01*
G01*
Y976258D2*
G02X2320654Y976258I43307J0D01*
G01*
Y1063758D2*
G02X2320654Y1063758I43307J0D01*
G01*
Y1151258D2*
G02X2320654Y1151258I43307J0D01*
G01*
Y1238758D2*
G02X2320654Y1238758I43307J0D01*
G01*
Y1326258D2*
G02X2320654Y1326258I43307J0D01*
G01*
X1258154Y2520008D2*
G02X1258154Y2520008I43307J0D01*
G01*
X1739406Y2032510D2*
G02X1739406Y2032510I43307J0D01*
G01*
Y2120008D2*
G02X1739406Y2120008I43307J0D01*
G01*
Y2207508D2*
G02X1739406Y2207508I43307J0D01*
G01*
X1526903Y1545008D2*
G02X1526903Y1545008I43307J0D01*
G01*
Y1457508D2*
G02X1526903Y1457508I43307J0D01*
G01*
Y1370008D2*
G02X1526903Y1370008I43307J0D01*
G01*
Y1282508D2*
G02X1526903Y1282508I43307J0D01*
G01*
X1345655Y2688758D2*
G02X1345655Y2688758I43307J0D01*
G01*
X1645655Y2726259D2*
G02X1645655Y2726259I43307J0D01*
G01*
X2914406Y3026258D2*
G02X2914406Y3026258I43307J0D01*
G01*
Y2782508D2*
G02X2914406Y2782508I43307J0D01*
G01*
Y2538758D2*
G02X2914406Y2538758I43307J0D01*
G01*
X2914405Y1982508D2*
G02X2914405Y1982508I43307J0D01*
G01*
X2914406Y1751258D2*
G02X2914406Y1751258I43307J0D01*
G01*
Y1513758D2*
G02X2914406Y1513758I43307J0D01*
G01*
X2889406Y1263759D2*
G02X2889406Y1263759I43307J0D01*
G01*
Y1013759D2*
G02X2889406Y1013759I43307J0D01*
G01*
X2889405Y763759D2*
G02X2889405Y763759I43307J0D01*
G01*
X2912774Y3449685D2*
Y3252831D1*
X3015151Y3449685D2*
Y3252831D1*
X2912774D2*
X3015151D1*
X2944268Y3449685D2*
X2912774D1*
X2983657D2*
X3015151D1*
X2944268D2*
G03X2983657Y3449685I19694J9D01*
G01*
X1512724D2*
Y3252831D1*
X1615101Y3449685D2*
Y3252831D1*
X1512724D2*
X1615101D1*
X1544218Y3449685D2*
X1512724D1*
X1583607D2*
X1615101D1*
X1544218D2*
G03X1583607Y3449685I19694J9D01*
G01*
X1987774Y3455936D2*
Y3259081D1*
X2090151Y3455936D2*
Y3259081D1*
X1987774D2*
X2090151D1*
X2019268Y3455936D2*
X1987774D1*
X2058657D2*
X2090151D1*
X2019268D2*
G03X2058657Y3455936I19694J9D01*
G01*
X2794073Y2460592D2*
Y2066923D1*
X2896450Y2460592D2*
Y2066923D1*
X2794073D2*
X2896450D1*
X2794073Y2460592D2*
X2825567D1*
X2864956D2*
X2896450D1*
X2825567D2*
G03X2864956Y2460592I19694J11D01*
G01*
X2444025Y3449685D2*
Y3252831D1*
X2546401Y3449685D2*
Y3252831D1*
X2444025D2*
X2546401D1*
X2475519Y3449685D2*
X2444025D1*
X2514908D2*
X2546401D1*
X2475519D2*
G03X2514908Y3449685I19694J9D01*
G01*
X1534689Y2137565D2*
X1306326D1*
Y1909242D1*
X1534689D1*
Y2137565D1*
D29*
X1565804Y2189218D3*
G36*
X1534689Y2137565D2*
X1503196D1*
X1534689Y2106072D1*
Y2137565D1*
G37*
X2537824Y1223092D2*
D10*
Y829423D1*
X2640201Y1223092D2*
Y829423D1*
X2537824D2*
X2640201D1*
X2537824Y1223092D2*
X2569318D1*
X2608707D2*
X2640201D1*
X2569318D2*
G03X2608707Y1223092I19694J11D01*
G01*
X1931573Y2601805D2*
Y2263212D1*
X2033950Y2601805D2*
Y2263212D1*
X1931573D2*
X2033950D1*
X1931573Y2601805D2*
X1963067D1*
X2002456D2*
X2033950D1*
X1963067D2*
G03X2002456Y2601805I19694J-12D01*
G01*
X1762824Y1389305D2*
Y1050712D1*
X1865201Y1389305D2*
Y1050712D1*
X1762824D2*
X1865201D1*
X1762824Y1389305D2*
X1794318D1*
X1833707D2*
X1865201D1*
X1794318D2*
G03X1833707Y1389305I19694J-12D01*
G01*
X2294024Y2601805D2*
Y2263212D1*
X2396400Y2601805D2*
Y2263212D1*
X2294024D2*
X2396400D1*
X2294024Y2601805D2*
X2325517D1*
X2364906D2*
X2396400D1*
X2325517D2*
G03X2364906Y2601805I19694J-12D01*
G01*
X2081573Y964305D2*
Y625712D1*
X2183950Y964305D2*
Y625712D1*
X2081573D2*
X2183950D1*
X2081573Y964305D2*
X2113067D1*
X2152456D2*
X2183950D1*
X2113067D2*
G03X2152456Y964305I19694J-12D01*
G01*
X1444073Y2630936D2*
Y2434081D1*
X1546450Y2630936D2*
Y2434081D1*
X1444073D2*
X1546450D1*
X1475567Y2630936D2*
X1444073D1*
X1514956D2*
X1546450D1*
X1475567D2*
G03X1514956Y2630936I19694J9D01*
G01*
X2081573Y1389305D2*
Y1050712D1*
X2183950Y1389305D2*
Y1050712D1*
X2081573D2*
X2183950D1*
X2081573Y1389305D2*
X2113067D1*
X2152456D2*
X2183950D1*
X2113067D2*
G03X2152456Y1389305I19694J-12D01*
G01*
X2300323Y2176805D2*
Y1838212D1*
X2402699Y2176805D2*
Y1838212D1*
X2300323D2*
X2402699D1*
X2300323Y2176805D2*
X2331817D1*
X2371206D2*
X2402699D1*
X2331817D2*
G03X2371206Y2176805I19694J-12D01*
G01*
X1175586Y2225344D2*
Y2504673D1*
X989838Y2225344D2*
Y2504673D1*
Y2225344D2*
G03X1175586Y2225344I92874J8216D01*
G01*
Y2504673D2*
G03X989838Y2504673I-92874J-8216D01*
G01*
X4195775Y3438212D2*
D81*
Y3399965D1*
X4193398Y3392780D1*
X4190966Y3390404D1*
X4186213Y3387972D1*
X4181405D1*
X4176652Y3390404D1*
X4174275Y3392780D1*
X4171843Y3399965D1*
Y3404718D1*
X4211214Y3428595D2*
X4216023Y3431027D1*
X4223208Y3438157D1*
Y3387972D1*
X1170213Y850712D2*
Y812465D1*
X1167836Y805280D1*
X1165404Y802904D1*
X1160651Y800472D1*
X1155843D1*
X1151089Y802904D1*
X1148713Y805280D1*
X1146281Y812465D1*
Y817218D1*
X1188084Y838718D2*
Y841095D1*
X1190460Y845903D1*
X1192837Y848280D1*
X1197645Y850657D1*
X1207207D1*
X1211960Y848280D1*
X1214337Y845903D1*
X1216769Y841095D1*
Y836342D1*
X1214337Y831533D1*
X1209584Y824403D1*
X1185652Y800472D1*
X1219145D1*
X528774Y2230141D2*
Y2191894D1*
X526398Y2184709D1*
X523966Y2182333D1*
X519213Y2179901D1*
X514404D1*
X509651Y2182333D1*
X507275Y2184709D1*
X504843Y2191894D1*
Y2196648D1*
X549022Y2230086D2*
X575275D1*
X560960Y2210962D1*
X568145D1*
X572898Y2208586D1*
X575275Y2206209D1*
X577707Y2199024D1*
Y2194271D1*
X575275Y2187086D1*
X570522Y2182278D1*
X563337Y2179901D1*
X556152D1*
X549022Y2182278D1*
X546645Y2184709D1*
X544214Y2189463D1*
X1062772Y2130731D2*
Y2092485D1*
X1060396Y2085300D1*
X1057964Y2082923D1*
X1053211Y2080491D1*
X1048402D1*
X1043649Y2082923D1*
X1041273Y2085300D1*
X1038841Y2092485D1*
Y2097238D1*
X1102143Y2080491D2*
Y2130676D1*
X1078212Y2097238D1*
X1114082D1*
X4028557Y2974088D2*
Y2935842D1*
X4026180Y2928657D1*
X4023748Y2926280D1*
X4018995Y2923848D1*
X4014186D1*
X4009433Y2926280D1*
X4007057Y2928657D1*
X4004625Y2935842D1*
Y2940595D1*
X4072681Y2974033D2*
X4048804D1*
X4046428Y2952533D1*
X4048804Y2954910D1*
X4055989Y2957342D1*
X4063119D1*
X4070304Y2954910D1*
X4075113Y2950157D1*
X4077489Y2942972D1*
Y2938219D1*
X4075113Y2931033D1*
X4070304Y2926225D1*
X4063119Y2923848D1*
X4055989D1*
X4048804Y2926225D1*
X4046428Y2928657D1*
X4043996Y2933410D1*
X1196427Y4467838D2*
Y4429591D1*
X1194051Y4422406D1*
X1191619Y4420030D1*
X1186866Y4417598D1*
X1182057D1*
X1177304Y4420030D1*
X1174927Y4422406D1*
X1172496Y4429591D1*
Y4434344D1*
X1240551Y4460653D2*
X1238175Y4465406D1*
X1230990Y4467783D1*
X1226237D1*
X1219052Y4465406D1*
X1214243Y4458221D1*
X1211867Y4446283D1*
Y4434344D1*
X1214243Y4424783D1*
X1219052Y4419974D1*
X1226237Y4417598D1*
X1228613D1*
X1235743Y4419974D1*
X1240551Y4424783D1*
X1242928Y4431968D1*
Y4434344D1*
X1240551Y4441529D1*
X1235743Y4446283D1*
X1228613Y4448659D1*
X1226237D1*
X1219052Y4446283D1*
X1214243Y4441529D1*
X1211867Y4434344D1*
X349177Y3419461D2*
Y3381215D1*
X346801Y3374030D1*
X344369Y3371653D1*
X339616Y3369221D1*
X334807D1*
X330054Y3371653D1*
X327677Y3374030D1*
X325246Y3381215D1*
Y3385968D1*
X376555Y3419406D2*
X369425Y3417029D1*
X366993Y3412276D1*
Y3407468D1*
X369425Y3402714D1*
X374178Y3400283D1*
X383740Y3397906D1*
X390925Y3395529D1*
X395678Y3390721D1*
X398055Y3385968D1*
Y3378783D1*
X395678Y3374030D1*
X393301Y3371598D1*
X386116Y3369221D1*
X376555D1*
X369425Y3371598D1*
X366993Y3374030D1*
X364617Y3378783D1*
Y3385968D1*
X366993Y3390721D1*
X371802Y3395529D1*
X378931Y3397906D1*
X388493Y3400283D1*
X393301Y3402714D1*
X395678Y3407468D1*
Y3412276D1*
X393301Y3417029D1*
X386116Y3419406D1*
X376555D1*
X2182866Y3004599D2*
Y2966352D1*
X2180489Y2959167D1*
X2178057Y2956791D1*
X2173304Y2954359D1*
X2168495D1*
X2163742Y2956791D1*
X2161366Y2959167D1*
X2158934Y2966352D1*
Y2971106D1*
X2229422Y2987852D2*
X2226990Y2980667D1*
X2222237Y2975859D1*
X2215051Y2973482D1*
X2212675D1*
X2205490Y2975859D1*
X2200737Y2980667D1*
X2198305Y2987852D1*
Y2990229D1*
X2200737Y2997414D1*
X2205490Y3002167D1*
X2212675Y3004544D1*
X2215051D1*
X2222237Y3002167D1*
X2226990Y2997414D1*
X2229422Y2987852D1*
Y2975859D1*
X2226990Y2963921D1*
X2222237Y2956736D1*
X2215051Y2954359D1*
X2210298D1*
X2203113Y2956736D1*
X2200737Y2961544D1*
X2167961Y1742099D2*
Y1703852D1*
X2165584Y1696667D1*
X2163152Y1694291D1*
X2158399Y1691859D1*
X2153591D1*
X2148838Y1694291D1*
X2146461Y1696667D1*
X2144029Y1703852D1*
Y1708606D1*
X2183400Y1732482D2*
X2188209Y1734914D1*
X2195394Y1742044D1*
Y1691859D1*
X2225203Y1742044D2*
X2218018Y1739667D1*
X2213209Y1732482D1*
X2210833Y1720544D1*
Y1713359D1*
X2213209Y1701421D1*
X2218018Y1694236D1*
X2225203Y1691859D1*
X2229956D1*
X2237141Y1694236D1*
X2241894Y1701421D1*
X2244326Y1713359D1*
Y1720544D1*
X2241894Y1732482D1*
X2237141Y1739667D1*
X2229956Y1742044D1*
X2225203D1*
X2241894Y1732482D2*
X2213209Y1701421D1*
X816246Y3649039D2*
Y3598799D1*
X799499Y3649039D2*
X832992D1*
X848432Y3622730D2*
X869987D1*
X877117Y3625107D1*
X879548Y3627539D1*
X881925Y3632292D1*
Y3639477D1*
X879548Y3644230D1*
X877117Y3646662D1*
X869987Y3649039D1*
X848432D1*
Y3598799D1*
X926049Y3641854D2*
X923673Y3646607D1*
X916488Y3648983D1*
X911734D1*
X904549Y3646607D1*
X899741Y3639422D1*
X897364Y3627483D1*
Y3615545D1*
X899741Y3605984D1*
X904549Y3601175D1*
X911734Y3598799D1*
X914111D1*
X921241Y3601175D1*
X926049Y3605984D1*
X928426Y3613169D1*
Y3615545D1*
X926049Y3622730D1*
X921241Y3627483D1*
X914111Y3629860D1*
X911734D1*
X904549Y3627483D1*
X899741Y3622730D1*
X897364Y3615545D1*
X3621279Y3655289D2*
Y3605049D1*
X3604533Y3655289D2*
X3638026D1*
X3653465Y3628981D2*
X3675020D1*
X3682150Y3631358D1*
X3684582Y3633789D1*
X3686958Y3638543D1*
Y3645728D1*
X3684582Y3650481D1*
X3682150Y3652913D1*
X3675020Y3655289D1*
X3653465D1*
Y3605049D1*
X3711959D2*
X3735891Y3655234D1*
X3702398D1*
X2933499Y3522908D2*
Y3487038D1*
X2935876Y3479853D1*
X2940684Y3475100D1*
X2947870Y3472668D1*
X2952623D1*
X2959808Y3475100D1*
X2964616Y3479853D1*
X2966993Y3487038D1*
Y3522908D1*
X2982432Y3513291D2*
X2987240Y3515723D1*
X2994426Y3522853D1*
Y3472668D1*
X1522700Y3522908D2*
Y3487038D1*
X1525076Y3479853D1*
X1529885Y3475100D1*
X1537070Y3472668D1*
X1541823D1*
X1549008Y3475100D1*
X1553816Y3479853D1*
X1556193Y3487038D1*
Y3522908D1*
X1574064Y3510914D2*
Y3513291D1*
X1576441Y3518100D1*
X1578817Y3520476D1*
X1583626Y3522853D1*
X1593187D1*
X1597941Y3520476D1*
X1600317Y3518100D1*
X1602749Y3513291D1*
Y3508538D1*
X1600317Y3503729D1*
X1595564Y3496600D1*
X1571632Y3472668D1*
X1605126D1*
X1997750Y3529159D2*
Y3493289D1*
X2000126Y3486104D1*
X2004935Y3481350D1*
X2012120Y3478919D1*
X2016873D1*
X2024058Y3481350D1*
X2028866Y3486104D1*
X2031243Y3493289D1*
Y3529159D1*
X2051491Y3529103D2*
X2077744D1*
X2063429Y3509980D1*
X2070614D1*
X2075367Y3507604D1*
X2077744Y3505227D1*
X2080175Y3498042D1*
Y3493289D1*
X2077744Y3486104D1*
X2072990Y3481295D1*
X2065805Y3478919D1*
X2058620D1*
X2051491Y3481295D1*
X2049114Y3483727D1*
X2046682Y3488480D1*
X2802860Y2533815D2*
Y2497946D1*
X2805237Y2490760D1*
X2810045Y2486007D1*
X2817231Y2483575D1*
X2821984D1*
X2829169Y2486007D1*
X2833977Y2490760D1*
X2836354Y2497946D1*
Y2533815D1*
X2875725Y2483575D2*
Y2533760D1*
X2851793Y2500322D1*
X2887663D1*
X2454000Y3522908D2*
Y3487038D1*
X2456377Y3479853D1*
X2461185Y3475100D1*
X2468370Y3472668D1*
X2473123D1*
X2480308Y3475100D1*
X2485117Y3479853D1*
X2487494Y3487038D1*
Y3522908D1*
X2531618Y3522853D2*
X2507741D1*
X2505365Y3501353D1*
X2507741Y3503729D1*
X2514926Y3506161D1*
X2522056D1*
X2529241Y3503729D1*
X2534049Y3498976D1*
X2536426Y3491791D1*
Y3487038D1*
X2534049Y3479853D1*
X2529241Y3475045D1*
X2522056Y3472668D1*
X2514926D1*
X2507741Y3475045D1*
X2505365Y3477476D1*
X2502933Y3482230D1*
X1382479Y2295445D2*
Y2259575D1*
X1384855Y2252390D1*
X1389664Y2247637D1*
X1396849Y2245205D1*
X1401602D1*
X1408787Y2247637D1*
X1413595Y2252390D1*
X1415972Y2259575D1*
Y2295445D1*
X1460096Y2288260D2*
X1457719Y2293014D1*
X1450534Y2295390D1*
X1445781D1*
X1438596Y2293014D1*
X1433788Y2285828D1*
X1431411Y2273890D1*
Y2261952D1*
X1433788Y2252390D1*
X1438596Y2247582D1*
X1445781Y2245205D1*
X1448158D1*
X1455288Y2247582D1*
X1460096Y2252390D1*
X1462473Y2259575D1*
Y2261952D1*
X1460096Y2269137D1*
X1455288Y2273890D1*
X1448158Y2276267D1*
X1445781D1*
X1438596Y2273890D1*
X1433788Y2269137D1*
X1431411Y2261952D1*
X2547799Y1296315D2*
Y1260446D1*
X2550176Y1253260D1*
X2554984Y1248507D1*
X2562169Y1246075D1*
X2566923D1*
X2574108Y1248507D1*
X2578916Y1253260D1*
X2581293Y1260446D1*
Y1296315D1*
X2606294Y1246075D2*
X2630225Y1296260D1*
X2596732D1*
X1941576Y2675028D2*
Y2639158D1*
X1943953Y2631973D1*
X1948761Y2627220D1*
X1955946Y2624788D1*
X1960700D1*
X1967885Y2627220D1*
X1972693Y2631973D1*
X1975070Y2639158D1*
Y2675028D1*
X2002447Y2674973D2*
X1995317Y2672596D1*
X1992886Y2667843D1*
Y2663035D1*
X1995317Y2658281D1*
X2000071Y2655850D1*
X2009632Y2653473D1*
X2016817Y2651096D1*
X2021570Y2646288D1*
X2023947Y2641535D1*
Y2634350D1*
X2021570Y2629597D1*
X2019194Y2627165D1*
X2012009Y2624788D1*
X2002447D1*
X1995317Y2627165D1*
X1992886Y2629597D1*
X1990509Y2634350D1*
Y2641535D1*
X1992886Y2646288D1*
X1997694Y2651096D1*
X2004824Y2653473D1*
X2014385Y2655850D1*
X2019194Y2658281D1*
X2021570Y2663035D1*
Y2667843D1*
X2019194Y2672596D1*
X2012009Y2674973D1*
X2002447D1*
X1773988Y1462528D2*
Y1426658D1*
X1776364Y1419473D1*
X1781173Y1414720D1*
X1788358Y1412288D1*
X1793111D1*
X1800296Y1414720D1*
X1805104Y1419473D1*
X1807481Y1426658D1*
Y1462528D1*
X1854037Y1445781D2*
X1851605Y1438596D1*
X1846852Y1433788D1*
X1839667Y1431411D1*
X1837290D1*
X1830105Y1433788D1*
X1825352Y1438596D1*
X1822920Y1445781D1*
Y1448158D1*
X1825352Y1455343D1*
X1830105Y1460096D1*
X1837290Y1462473D1*
X1839667D1*
X1846852Y1460096D1*
X1851605Y1455343D1*
X1854037Y1445781D1*
Y1433788D1*
X1851605Y1421850D1*
X1846852Y1414665D1*
X1839667Y1412288D1*
X1834914D1*
X1827729Y1414665D1*
X1825352Y1419473D1*
X2290282Y2675028D2*
Y2639158D1*
X2292659Y2631973D1*
X2297468Y2627220D1*
X2304653Y2624788D1*
X2309406D1*
X2316591Y2627220D1*
X2321399Y2631973D1*
X2323776Y2639158D1*
Y2675028D1*
X2339215Y2665411D2*
X2344024Y2667843D1*
X2351209Y2674973D1*
Y2624788D1*
X2381018Y2674973D2*
X2373833Y2672596D1*
X2369024Y2665411D1*
X2366648Y2653473D1*
Y2646288D1*
X2369024Y2634350D1*
X2373833Y2627165D1*
X2381018Y2624788D1*
X2385771D1*
X2392956Y2627165D1*
X2397709Y2634350D1*
X2400141Y2646288D1*
Y2653473D1*
X2397709Y2665411D1*
X2392956Y2672596D1*
X2385771Y2674973D1*
X2381018D1*
X2397709Y2665411D2*
X2369024Y2634350D1*
X2088582Y1037528D2*
Y1001658D1*
X2090959Y994473D1*
X2095767Y989720D1*
X2102952Y987288D1*
X2107706D1*
X2114891Y989720D1*
X2119699Y994473D1*
X2122076Y1001658D1*
Y1037528D1*
X2137515Y1027911D2*
X2142323Y1030343D1*
X2149508Y1037473D1*
Y987288D1*
X2164948Y1027911D2*
X2169756Y1030343D1*
X2176941Y1037473D1*
Y987288D1*
X1440332Y2704159D2*
Y2668289D1*
X1442709Y2661104D1*
X1447517Y2656350D1*
X1454702Y2653919D1*
X1459456D1*
X1466641Y2656350D1*
X1471449Y2661104D1*
X1473826Y2668289D1*
Y2704159D1*
X1489265Y2694542D2*
X1494073Y2696974D1*
X1501258Y2704103D1*
Y2653919D1*
X1519130Y2692165D2*
Y2694542D1*
X1521506Y2699350D1*
X1523883Y2701727D1*
X1528691Y2704103D1*
X1538253D1*
X1543006Y2701727D1*
X1545383Y2699350D1*
X1547814Y2694542D1*
Y2689789D1*
X1545383Y2684980D1*
X1540629Y2677850D1*
X1516698Y2653919D1*
X1550191D1*
X2077832Y1462528D2*
Y1426658D1*
X2080209Y1419473D1*
X2085017Y1414720D1*
X2092202Y1412288D1*
X2096956D1*
X2104141Y1414720D1*
X2108949Y1419473D1*
X2111326Y1426658D1*
Y1462528D1*
X2126765Y1452911D2*
X2131573Y1455343D1*
X2138758Y1462473D1*
Y1412288D1*
X2159006Y1462473D2*
X2185259D1*
X2170944Y1443350D1*
X2178129D1*
X2182883Y1440973D1*
X2185259Y1438596D1*
X2187691Y1431411D1*
Y1426658D1*
X2185259Y1419473D1*
X2180506Y1414665D1*
X2173321Y1412288D1*
X2166136D1*
X2159006Y1414665D1*
X2156630Y1417097D1*
X2154198Y1421850D1*
X2295393Y2250028D2*
Y2214158D1*
X2297770Y2206973D1*
X2302578Y2202220D1*
X2309763Y2199788D1*
X2314517D1*
X2321702Y2202220D1*
X2326510Y2206973D1*
X2328887Y2214158D1*
Y2250028D1*
X2344326Y2240411D2*
X2349134Y2242843D1*
X2356319Y2249973D1*
Y2199788D1*
X2395690D2*
Y2249973D1*
X2371759Y2216535D1*
X2407629D1*
X1049872Y2662917D2*
X1068995Y2638985D1*
Y2612677D1*
X1088119Y2662917D2*
X1068995Y2638985D1*
X1103558Y2653300D2*
X1108366Y2655731D1*
X1115551Y2662861D1*
Y2612677D1*
M02*
