G04 DipTrace 3.3.1.3*
G04 BottomMask.gbr*
%MOIN*%
G04 #@! TF.FileFunction,Soldermask,Bot*
G04 #@! TF.Part,Single*
%ADD25C,0.125*%
%ADD34C,0.074809*%
%ADD36R,0.074809X0.074809*%
%ADD40R,0.06103X0.193707*%
%FSLAX26Y26*%
G04*
G70*
G90*
G75*
G01*
G04 BotMask*
%LPD*%
D25*
X595214Y3638759D3*
Y738759D3*
X3970214Y595008D3*
Y3745010D3*
D40*
X2654318Y526259D3*
X2988964D3*
X2451464Y3813759D3*
X2116818D3*
D36*
X3770214Y645010D3*
D34*
X3670214D3*
X3770214Y745010D3*
X3670214D3*
X3770214Y845010D3*
X3670214D3*
X3770214Y945010D3*
X3670214D3*
X3770214Y1045010D3*
X3670214D3*
X3770214Y1145010D3*
X3670214D3*
X3770214Y1245010D3*
X3670214D3*
X3770214Y1345010D3*
X3670214D3*
X3770214Y1445010D3*
X3670214D3*
X3770214Y1545010D3*
X3670214D3*
X3770214Y1645010D3*
X3670214D3*
X3770214Y1745010D3*
X3670214D3*
X3770214Y1845010D3*
X3670214D3*
X3770214Y1945010D3*
X3670214D3*
X3770214Y2045010D3*
X3670214D3*
X3770214Y2145010D3*
X3670214D3*
X3770214Y2245010D3*
X3670214D3*
X3770214Y2345010D3*
X3670214D3*
X3770214Y2445010D3*
X3670214D3*
X3770214Y2545010D3*
X3670214D3*
X3770214Y2645010D3*
X3670214D3*
X3770214Y2745010D3*
X3670214D3*
X3770214Y2845010D3*
X3670214D3*
X3770214Y2945010D3*
X3670214D3*
X3770214Y3045010D3*
X3670214D3*
X3770214Y3145010D3*
X3670214D3*
X3770214Y3245010D3*
X3670214D3*
X3770214Y3345010D3*
X3670214D3*
X3770214Y3445010D3*
X3670214D3*
X3770214Y3545010D3*
X3670214D3*
X3770214Y3645010D3*
X3670214D3*
X3770214Y3745010D3*
X3670214D3*
D40*
X1579318Y526259D3*
X1913964D3*
M02*
