G04 DipTrace 3.3.1.3*
G04 Bottom.gbr*
%MOIN*%
G04 #@! TF.FileFunction,Copper,L2,Bot*
G04 #@! TF.Part,Single*
G04 #@! TA.AperFunction,Conductor*
%ADD12C,0.02*%
G04 #@! TA.AperFunction,CopperBalancing*
%ADD13C,0.025*%
%ADD14C,0.013*%
%ADD17R,0.05315X0.185827*%
G04 #@! TA.AperFunction,ComponentPad*
%ADD19R,0.066929X0.066929*%
%ADD20C,0.066929*%
G04 #@! TA.AperFunction,ViaPad*
%ADD23C,0.04*%
%FSLAX26Y26*%
G04*
G70*
G90*
G75*
G01*
G04 Bottom*
%LPD*%
X3051464Y3176259D2*
D12*
X2620214D1*
X2654318Y526259D2*
X2988964D1*
X1579318D2*
X1913964D1*
X2607763Y2763759D2*
X2588964D1*
X2538964Y2813759D1*
Y3257508D1*
X2545213Y3251259D1*
X3770214Y645010D2*
Y588759D1*
X3695214Y513759D1*
X3445214D1*
X3326464Y632510D1*
Y2507508D1*
X3207713Y2626259D1*
X2738964D1*
X2607763Y2757460D1*
Y2763759D1*
X3220214Y3388759D2*
X2232714D1*
X2057714Y3213759D1*
Y3082510D1*
X2451464Y3813759D2*
X2121315D1*
X2116818D1*
X2820214Y745008D2*
Y1001259D1*
D23*
X3051464Y3176259D3*
X2620214D3*
X2654318Y526259D3*
X2988964D3*
X1579318D3*
X1913964D3*
X2607763Y2763759D3*
X2545213Y3251259D3*
X2607763Y2763759D3*
X3220214Y3388759D3*
X2057714Y3082510D3*
X2451464Y3813759D3*
X2121315D3*
X2820214Y745008D3*
Y1001259D3*
X472910Y3870140D2*
D13*
X2061241D1*
X2172385D2*
X2395896D1*
X2507041D2*
X3910388D1*
X4030039D2*
X4105275D1*
X473054Y3845271D2*
X2061241D1*
X2507041D2*
X3873427D1*
X4066999D2*
X4105312D1*
X473197Y3820402D2*
X2061241D1*
X2507041D2*
X3852579D1*
X4087847D2*
X4105382D1*
X473305Y3795533D2*
X2061241D1*
X2507041D2*
X3635407D1*
X3704999D2*
X3735417D1*
X3805008D2*
X3839696D1*
X473449Y3770665D2*
X553423D1*
X637008D2*
X2061241D1*
X2172385D2*
X2395896D1*
X2507041D2*
X3613519D1*
X473592Y3745796D2*
X506199D1*
X684233D2*
X2061241D1*
X2172385D2*
X2395896D1*
X2507041D2*
X3607741D1*
X473735Y3720927D2*
X482325D1*
X708132D2*
X2061241D1*
X2172385D2*
X2395896D1*
X2507041D2*
X3612801D1*
X722844Y3696058D2*
X2061241D1*
X2172385D2*
X2395896D1*
X2507041D2*
X3633075D1*
X3707331D2*
X3733085D1*
X3807340D2*
X3839086D1*
X731456Y3671190D2*
X3613770D1*
X3826646D2*
X3851539D1*
X4088888D2*
X4105634D1*
X735153Y3646321D2*
X3607777D1*
X3832675D2*
X3871776D1*
X4068650D2*
X4105670D1*
X734255Y3621452D2*
X3612586D1*
X3827867D2*
X3907087D1*
X4033339D2*
X4105742D1*
X728729Y3596583D2*
X3632357D1*
X3708086D2*
X3732367D1*
X3808095D2*
X4105777D1*
X717928Y3571714D2*
X3614020D1*
X3826396D2*
X4105813D1*
X474669Y3546846D2*
X490267D1*
X700165D2*
X3607777D1*
X3832640D2*
X4105850D1*
X474776Y3521977D2*
X519871D1*
X670561D2*
X3612334D1*
X3828082D2*
X4105920D1*
X474920Y3497108D2*
X3631640D1*
X3708802D2*
X3731649D1*
X3808776D2*
X4105957D1*
X475064Y3472239D2*
X3614272D1*
X3826144D2*
X4105993D1*
X475207Y3447371D2*
X3607813D1*
X3832640D2*
X4106028D1*
X475314Y3422502D2*
X2216296D1*
X3254725D2*
X3612119D1*
X3828297D2*
X4106100D1*
X475459Y3397633D2*
X2187481D1*
X3268360D2*
X3630959D1*
X3709485D2*
X3730968D1*
X3809459D2*
X4106137D1*
X475602Y3372764D2*
X2162613D1*
X3266386D2*
X3614558D1*
X3825857D2*
X4106172D1*
X475746Y3347896D2*
X2137745D1*
X2245983D2*
X3195540D1*
X3244892D2*
X3607813D1*
X3832603D2*
X4106208D1*
X475854Y3323027D2*
X2112877D1*
X2221116D2*
X3611939D1*
X3828512D2*
X4106280D1*
X475997Y3298158D2*
X2088010D1*
X2196249D2*
X3630276D1*
X3710130D2*
X3730285D1*
X3810140D2*
X4106315D1*
X476140Y3273289D2*
X2063142D1*
X2171381D2*
X3614846D1*
X3825606D2*
X4106352D1*
X476284Y3248420D2*
X2038275D1*
X2146477D2*
X3607848D1*
X3832567D2*
X4106388D1*
X476392Y3223552D2*
X2020045D1*
X2121609D2*
X3611724D1*
X3828692D2*
X4106460D1*
X476535Y3198683D2*
X2018717D1*
X2096742D2*
X2576968D1*
X3094717D2*
X3629630D1*
X3710776D2*
X3729640D1*
X3810785D2*
X4106495D1*
X476678Y3173814D2*
X2018717D1*
X2096705D2*
X2571262D1*
X3100386D2*
X3615133D1*
X3825319D2*
X4106531D1*
X476822Y3148945D2*
X2018717D1*
X2096705D2*
X2580090D1*
X3091595D2*
X3607885D1*
X3832567D2*
X4106567D1*
X476930Y3124077D2*
X2018717D1*
X2096705D2*
X3611508D1*
X3828907D2*
X4106638D1*
X477073Y3099208D2*
X2011827D1*
X2103595D2*
X3629020D1*
X3711422D2*
X3728994D1*
X3811432D2*
X4106675D1*
X477217Y3074339D2*
X2009423D1*
X2105999D2*
X3615420D1*
X3825032D2*
X4106710D1*
X477360Y3049470D2*
X2022485D1*
X2092938D2*
X3607920D1*
X3832495D2*
X4106746D1*
X477468Y3024602D2*
X3611330D1*
X3829087D2*
X4106818D1*
X477611Y2999733D2*
X3628410D1*
X3712032D2*
X3728384D1*
X3812041D2*
X4106854D1*
X477755Y2974864D2*
X3615707D1*
X3824709D2*
X4106890D1*
X477863Y2949995D2*
X3607956D1*
X3832460D2*
X4106926D1*
X478006Y2925127D2*
X3611150D1*
X3829302D2*
X4106998D1*
X478150Y2900258D2*
X3627800D1*
X3712642D2*
X3727809D1*
X3812616D2*
X4107033D1*
X478293Y2875389D2*
X3616031D1*
X3824422D2*
X4107069D1*
X478401Y2850520D2*
X3607993D1*
X3832424D2*
X4107106D1*
X478544Y2825651D2*
X3610970D1*
X3829481D2*
X4107141D1*
X478688Y2800783D2*
X3627226D1*
X3713217D2*
X3727235D1*
X3813190D2*
X4107213D1*
X478831Y2775914D2*
X3616317D1*
X3824099D2*
X4107249D1*
X478939Y2751045D2*
X3608064D1*
X3832388D2*
X4107285D1*
X479083Y2726176D2*
X3610791D1*
X3829661D2*
X4107321D1*
X479226Y2701308D2*
X3626651D1*
X3713791D2*
X3726661D1*
X3813764D2*
X4107393D1*
X479369Y2676439D2*
X3616640D1*
X3823776D2*
X4107428D1*
X479477Y2651570D2*
X3608100D1*
X3832317D2*
X4107464D1*
X479621Y2626701D2*
X3610612D1*
X3829805D2*
X4107501D1*
X479764Y2601833D2*
X3626113D1*
X3714329D2*
X3726087D1*
X3814338D2*
X4107571D1*
X479907Y2576964D2*
X3616964D1*
X3823453D2*
X4107608D1*
X480015Y2552095D2*
X3608171D1*
X3832245D2*
X4107644D1*
X480159Y2527226D2*
X3610432D1*
X3829983D2*
X4107679D1*
X480302Y2502357D2*
X3625575D1*
X3714867D2*
X3725549D1*
X3814877D2*
X4107751D1*
X480447Y2477489D2*
X3617322D1*
X3823130D2*
X4107787D1*
X480554Y2452620D2*
X3608243D1*
X3832209D2*
X4107823D1*
X480697Y2427751D2*
X3610289D1*
X3830128D2*
X4107859D1*
X480840Y2402882D2*
X3625037D1*
X3715406D2*
X3725046D1*
X3815378D2*
X4107931D1*
X480948Y2378014D2*
X3617645D1*
X3822771D2*
X4107966D1*
X481092Y2353145D2*
X3608315D1*
X3832137D2*
X4108002D1*
X481235Y2328276D2*
X3610145D1*
X3830306D2*
X4108039D1*
X481380Y2303407D2*
X3624535D1*
X3715907D2*
X3724553D1*
X3815917D2*
X4108109D1*
X481487Y2278539D2*
X3618003D1*
X3822413D2*
X4108146D1*
X481630Y2253670D2*
X3608386D1*
X3832065D2*
X4108182D1*
X481773Y2228801D2*
X3609965D1*
X3830451D2*
X4108217D1*
X481918Y2203932D2*
X3624032D1*
X3716410D2*
X3724061D1*
X3816384D2*
X4108289D1*
X482025Y2179064D2*
X3618363D1*
X3822053D2*
X4108325D1*
X482169Y2154195D2*
X3608459D1*
X3831957D2*
X4108361D1*
X482312Y2129326D2*
X3609822D1*
X3830594D2*
X4108397D1*
X482456Y2104457D2*
X3623529D1*
X3816886D2*
X4108469D1*
X482564Y2079588D2*
X3618721D1*
X3821695D2*
X4108504D1*
X482707Y2054720D2*
X3608531D1*
X3831885D2*
X4108541D1*
X482851Y2029851D2*
X3609714D1*
X3830737D2*
X4108577D1*
X482994Y2004982D2*
X3623064D1*
X3817352D2*
X4108649D1*
X483102Y1980113D2*
X3619116D1*
X3821335D2*
X4108684D1*
X483245Y1955245D2*
X3608638D1*
X3831814D2*
X4108720D1*
X483389Y1930376D2*
X3609571D1*
X3830881D2*
X4108756D1*
X483532Y1905507D2*
X3622596D1*
X3817819D2*
X4108827D1*
X483640Y1880638D2*
X3619476D1*
X3820941D2*
X4108864D1*
X483784Y1855770D2*
X3608709D1*
X3831707D2*
X4108899D1*
X483927Y1830901D2*
X3609427D1*
X3830989D2*
X4108935D1*
X484035Y1806032D2*
X3622130D1*
X3818285D2*
X4109007D1*
X484178Y1781163D2*
X3619869D1*
X3820546D2*
X4109043D1*
X484322Y1756294D2*
X3608817D1*
X3831599D2*
X4109079D1*
X484465Y1731426D2*
X3609319D1*
X3831132D2*
X4109115D1*
X484573Y1706557D2*
X3621700D1*
X3818716D2*
X4109187D1*
X484716Y1681688D2*
X3620264D1*
X3820151D2*
X4109222D1*
X484860Y1656819D2*
X3608926D1*
X3831491D2*
X4109258D1*
X485003Y1631951D2*
X3609176D1*
X3831239D2*
X4109294D1*
X485111Y1607082D2*
X3621270D1*
X3819146D2*
X4109365D1*
X485255Y1582213D2*
X3620695D1*
X3819756D2*
X4109402D1*
X485398Y1557344D2*
X3609033D1*
X3831384D2*
X4109438D1*
X485541Y1532476D2*
X3609069D1*
X3831347D2*
X4109473D1*
X485649Y1507607D2*
X3620839D1*
X3819578D2*
X4109545D1*
X485793Y1482738D2*
X3621090D1*
X3819326D2*
X4109582D1*
X485936Y1457869D2*
X3609141D1*
X3831276D2*
X4109617D1*
X486081Y1433001D2*
X3608961D1*
X3831455D2*
X4109653D1*
X486188Y1408132D2*
X3620444D1*
X3820008D2*
X4109725D1*
X486331Y1383263D2*
X3621520D1*
X3818896D2*
X4109760D1*
X486474Y1358394D2*
X3609249D1*
X3831169D2*
X4109797D1*
X486619Y1333525D2*
X3608854D1*
X3831562D2*
X4109833D1*
X486726Y1308657D2*
X3620014D1*
X3820402D2*
X4109905D1*
X486869Y1283788D2*
X3621987D1*
X3818465D2*
X4109940D1*
X487012Y1258919D2*
X3609392D1*
X3831061D2*
X4109976D1*
X487121Y1234050D2*
X3608746D1*
X3831670D2*
X4110012D1*
X487264Y1209182D2*
X3619619D1*
X3820797D2*
X4110083D1*
X487407Y1184313D2*
X3622418D1*
X3817998D2*
X4110120D1*
X487552Y1159444D2*
X3609499D1*
X3830917D2*
X4110155D1*
X487659Y1134575D2*
X3608674D1*
X3831777D2*
X4110191D1*
X487802Y1109707D2*
X3619260D1*
X3821192D2*
X4110263D1*
X487945Y1084838D2*
X3622884D1*
X3817532D2*
X4110298D1*
X488090Y1059969D2*
X3609642D1*
X3830773D2*
X4110335D1*
X488197Y1035100D2*
X2785814D1*
X2854616D2*
X3608566D1*
X3831850D2*
X4110371D1*
X488340Y1010231D2*
X2772070D1*
X2868323D2*
X3618865D1*
X3821550D2*
X4110406D1*
X488485Y985363D2*
X2774007D1*
X2866422D2*
X3623351D1*
X3817065D2*
X4110478D1*
X488628Y960494D2*
X2781221D1*
X2859209D2*
X3609787D1*
X3830629D2*
X4110514D1*
X488735Y935625D2*
X2781221D1*
X2859209D2*
X3608494D1*
X3831957D2*
X4110550D1*
X488878Y910756D2*
X2781221D1*
X2859209D2*
X3618506D1*
X3821945D2*
X4110586D1*
X489023Y885888D2*
X2781221D1*
X2859209D2*
X3623854D1*
X3816599D2*
X4110658D1*
X489166Y861019D2*
X529524D1*
X660907D2*
X2781221D1*
X2859209D2*
X3609930D1*
X3830486D2*
X4110693D1*
X694962Y836150D2*
X2781221D1*
X2859209D2*
X3608423D1*
X3832029D2*
X4110730D1*
X714699Y811281D2*
X2781221D1*
X2859209D2*
X3618148D1*
X3822305D2*
X4110766D1*
X726827Y786413D2*
X2781221D1*
X2859209D2*
X3624355D1*
X3716087D2*
X3724318D1*
X3816096D2*
X4110838D1*
X733430Y761544D2*
X2774259D1*
X2866170D2*
X3610074D1*
X3830343D2*
X4110873D1*
X735331Y736675D2*
X2771962D1*
X2868466D2*
X3608315D1*
X3832102D2*
X4110909D1*
X732676Y711806D2*
X2785167D1*
X2855262D2*
X3617788D1*
X3822663D2*
X3894922D1*
X4045504D2*
X4110945D1*
X725212Y686938D2*
X3624857D1*
X3832675D2*
X3865281D1*
X4075145D2*
X4111016D1*
X712007Y662069D2*
X3610217D1*
X3832675D2*
X3847519D1*
X4092907D2*
X4111053D1*
X490350Y637200D2*
X499812D1*
X690620D2*
X1523731D1*
X1634876D2*
X1858386D1*
X1969532D2*
X2598750D1*
X2709894D2*
X2933405D1*
X3044550D2*
X3608243D1*
X490494Y612331D2*
X538315D1*
X652116D2*
X1523731D1*
X1634876D2*
X1858386D1*
X1969532D2*
X2598750D1*
X2709894D2*
X2933405D1*
X3044550D2*
X3617430D1*
X490637Y587462D2*
X1523731D1*
X1634876D2*
X1858386D1*
X1969532D2*
X2598750D1*
X2709894D2*
X2933405D1*
X3044550D2*
X3650873D1*
X3689569D2*
X3707750D1*
X490745Y562594D2*
X1523731D1*
X1634876D2*
X1858386D1*
X1969532D2*
X2598750D1*
X2709894D2*
X2933405D1*
X3044550D2*
X3833955D1*
X490889Y537725D2*
X1523731D1*
X1634876D2*
X1858386D1*
X1969532D2*
X2598750D1*
X2709894D2*
X2933405D1*
X3044550D2*
X3842567D1*
X4097859D2*
X4111268D1*
X491032Y512856D2*
X1523731D1*
X1634876D2*
X1858386D1*
X1969532D2*
X2598750D1*
X2709894D2*
X2933405D1*
X3044550D2*
X3857280D1*
X4083146D2*
X4111304D1*
X491175Y487987D2*
X1523731D1*
X1634876D2*
X1858386D1*
X1969532D2*
X2598750D1*
X2709894D2*
X2933405D1*
X3044550D2*
X3881179D1*
X4059247D2*
X4111376D1*
X491283Y463119D2*
X1523731D1*
X1634876D2*
X1858386D1*
X1969532D2*
X2598750D1*
X2709894D2*
X2933405D1*
X3044550D2*
X3928367D1*
X4012060D2*
X4111411D1*
X732539Y3629579D2*
X731621Y3620441D1*
X730096Y3611384D1*
X727969Y3602448D1*
X725252Y3593675D1*
X721956Y3585103D1*
X718095Y3576768D1*
X713687Y3568710D1*
X708751Y3560965D1*
X703309Y3553566D1*
X697386Y3546546D1*
X691008Y3539938D1*
X684204Y3533768D1*
X677003Y3528066D1*
X669439Y3522857D1*
X661544Y3518166D1*
X653352Y3514010D1*
X644902Y3510410D1*
X636231Y3507382D1*
X627378Y3504939D1*
X618381Y3503091D1*
X609281Y3501848D1*
X600117Y3501216D1*
X590934Y3501195D1*
X581768Y3501787D1*
X572662Y3502989D1*
X563657Y3504794D1*
X554792Y3507197D1*
X546107Y3510187D1*
X537641Y3513749D1*
X529432Y3517867D1*
X521515Y3522523D1*
X513927Y3527697D1*
X506700Y3533367D1*
X499868Y3539504D1*
X493461Y3546085D1*
X487506Y3553078D1*
X482031Y3560452D1*
X477061Y3568176D1*
X471991Y3577545D1*
X486852Y823627D1*
X492627Y830508D1*
X498974Y837146D1*
X505750Y843347D1*
X512926Y849081D1*
X520466Y854323D1*
X528340Y859052D1*
X536512Y863243D1*
X544945Y866882D1*
X553603Y869949D1*
X562445Y872432D1*
X571435Y874321D1*
X580529Y875604D1*
X589688Y876279D1*
X598873Y876342D1*
X608041Y875792D1*
X617153Y874630D1*
X626166Y872865D1*
X635041Y870502D1*
X643739Y867552D1*
X652221Y864029D1*
X660449Y859948D1*
X668386Y855327D1*
X675999Y850187D1*
X683251Y844552D1*
X690111Y838444D1*
X696548Y831893D1*
X702535Y824927D1*
X708043Y817577D1*
X713048Y809876D1*
X717528Y801859D1*
X721465Y793561D1*
X724839Y785018D1*
X727636Y776270D1*
X729843Y767354D1*
X731449Y758310D1*
X732451Y749180D1*
X732846Y738759D1*
X732539Y729579D1*
X731621Y720441D1*
X730096Y711384D1*
X727969Y702448D1*
X725252Y693675D1*
X721956Y685103D1*
X718095Y676768D1*
X713687Y668710D1*
X708751Y660965D1*
X703309Y653566D1*
X697386Y646546D1*
X691008Y639938D1*
X684204Y633768D1*
X677003Y628066D1*
X669439Y622857D1*
X661544Y618166D1*
X653352Y614010D1*
X644902Y610410D1*
X636231Y607382D1*
X627378Y604939D1*
X618381Y603091D1*
X609281Y601848D1*
X600117Y601216D1*
X590934Y601195D1*
X581768Y601787D1*
X572662Y602989D1*
X563657Y604794D1*
X554792Y607197D1*
X546107Y610187D1*
X537641Y613749D1*
X529432Y617867D1*
X521515Y622523D1*
X513927Y627697D1*
X506700Y633367D1*
X499868Y639504D1*
X493461Y646085D1*
X487762Y652777D1*
X488896Y444982D1*
X1526254Y445010D1*
X1526243Y645672D1*
X1632393D1*
Y445015D1*
X1860910Y445010D1*
X1860889Y645672D1*
X1967039D1*
Y445015D1*
X2601272Y445010D1*
X2601243Y645672D1*
X2707393D1*
Y445015D1*
X2935857Y445010D1*
X2935889Y645672D1*
X3042039D1*
Y445015D1*
X4113935Y445010D1*
X4107735Y3894982D1*
X2504528Y3895008D1*
X2504539Y3694346D1*
X2398389D1*
Y3777273D1*
X2169881Y3777259D1*
X2169893Y3694346D1*
X2063743D1*
Y3894974D1*
X470252Y3895008D1*
X471339Y3698768D1*
X476427Y3708271D1*
X481327Y3716039D1*
X486735Y3723462D1*
X492627Y3730508D1*
X498974Y3737146D1*
X505750Y3743347D1*
X512926Y3749081D1*
X520466Y3754323D1*
X528340Y3759052D1*
X536512Y3763243D1*
X544945Y3766882D1*
X553603Y3769949D1*
X562445Y3772432D1*
X571435Y3774321D1*
X580529Y3775604D1*
X589688Y3776279D1*
X598873Y3776342D1*
X608041Y3775792D1*
X617153Y3774630D1*
X626166Y3772865D1*
X635041Y3770502D1*
X643739Y3767552D1*
X652221Y3764029D1*
X660449Y3759948D1*
X668386Y3755327D1*
X675999Y3750187D1*
X683251Y3744552D1*
X690111Y3738444D1*
X696548Y3731893D1*
X702535Y3724927D1*
X708043Y3717577D1*
X713048Y3709876D1*
X717528Y3701859D1*
X721465Y3693561D1*
X724839Y3685018D1*
X727636Y3676270D1*
X729843Y3667354D1*
X731449Y3658310D1*
X732451Y3649180D1*
X732846Y3638759D1*
X732539Y3629579D1*
X4107539Y585829D2*
X4106621Y576691D1*
X4105096Y567633D1*
X4102969Y558697D1*
X4100252Y549924D1*
X4096956Y541352D1*
X4093095Y533018D1*
X4088687Y524960D1*
X4083751Y517214D1*
X4078309Y509815D1*
X4072386Y502796D1*
X4066008Y496187D1*
X4059204Y490018D1*
X4052003Y484315D1*
X4044439Y479107D1*
X4036544Y474415D1*
X4028352Y470259D1*
X4019902Y466659D1*
X4011231Y463632D1*
X4002378Y461188D1*
X3993381Y459340D1*
X3984281Y458098D1*
X3975117Y457465D1*
X3965934Y457444D1*
X3956768Y458036D1*
X3947662Y459238D1*
X3938657Y461044D1*
X3929792Y463447D1*
X3921107Y466436D1*
X3912641Y469998D1*
X3904432Y474116D1*
X3896515Y478772D1*
X3888927Y483947D1*
X3881700Y489616D1*
X3874868Y495754D1*
X3868461Y502334D1*
X3862506Y509327D1*
X3857031Y516701D1*
X3852061Y524426D1*
X3847616Y532462D1*
X3843717Y540779D1*
X3840382Y549336D1*
X3837625Y558098D1*
X3835459Y567023D1*
X3833892Y576073D1*
X3832932Y585208D1*
X3832585Y594385D1*
X3832850Y603566D1*
X3833726Y612709D1*
X3835210Y621773D1*
X3837296Y630718D1*
X3839974Y639503D1*
X3843231Y648091D1*
X3847054Y656441D1*
X3851427Y664520D1*
X3856327Y672288D1*
X3861735Y679712D1*
X3867627Y686758D1*
X3873974Y693396D1*
X3880750Y699596D1*
X3887926Y705330D1*
X3895466Y710573D1*
X3903340Y715301D1*
X3911512Y719493D1*
X3919945Y723132D1*
X3928603Y726199D1*
X3937445Y728682D1*
X3946435Y730570D1*
X3955529Y731854D1*
X3964688Y732528D1*
X3973873Y732591D1*
X3983041Y732041D1*
X3992153Y730880D1*
X4001166Y729115D1*
X4010041Y726751D1*
X4018739Y723801D1*
X4027221Y720279D1*
X4035449Y716197D1*
X4043386Y711577D1*
X4050999Y706436D1*
X4058251Y700801D1*
X4065111Y694693D1*
X4071548Y688142D1*
X4077535Y681176D1*
X4083043Y673826D1*
X4088048Y666125D1*
X4092528Y658108D1*
X4096465Y649810D1*
X4099839Y641267D1*
X4102636Y632519D1*
X4104843Y623603D1*
X4106449Y614560D1*
X4107451Y605430D1*
X4107846Y595008D1*
X4107539Y585829D1*
Y3735830D2*
X4106621Y3726692D1*
X4105096Y3717634D1*
X4102969Y3708699D1*
X4100252Y3699926D1*
X4096956Y3691354D1*
X4093095Y3683019D1*
X4088687Y3674961D1*
X4083751Y3667216D1*
X4078309Y3659817D1*
X4072386Y3652797D1*
X4066008Y3646188D1*
X4059204Y3640019D1*
X4052003Y3634317D1*
X4044439Y3629108D1*
X4036544Y3624417D1*
X4028352Y3620260D1*
X4019902Y3616661D1*
X4011231Y3613633D1*
X4002378Y3611190D1*
X3993381Y3609342D1*
X3984281Y3608099D1*
X3975117Y3607466D1*
X3965934Y3607445D1*
X3956768Y3608037D1*
X3947662Y3609239D1*
X3938657Y3611045D1*
X3929792Y3613448D1*
X3921107Y3616438D1*
X3912641Y3619999D1*
X3904432Y3624117D1*
X3896515Y3628773D1*
X3888927Y3633948D1*
X3881700Y3639617D1*
X3874868Y3645755D1*
X3868461Y3652335D1*
X3862506Y3659329D1*
X3857031Y3666703D1*
X3852061Y3674427D1*
X3847616Y3682464D1*
X3843717Y3690780D1*
X3840382Y3699338D1*
X3837625Y3708099D1*
X3835459Y3717024D1*
X3833892Y3726074D1*
X3832932Y3735209D1*
X3832585Y3744386D1*
X3832850Y3753567D1*
X3833726Y3762710D1*
X3835210Y3771775D1*
X3837296Y3780720D1*
X3839974Y3789504D1*
X3843231Y3798092D1*
X3847054Y3806443D1*
X3851427Y3814522D1*
X3856327Y3822289D1*
X3861735Y3829713D1*
X3867627Y3836759D1*
X3873974Y3843397D1*
X3880750Y3849598D1*
X3887926Y3855331D1*
X3895466Y3860574D1*
X3903340Y3865302D1*
X3911512Y3869494D1*
X3919945Y3873133D1*
X3928603Y3876200D1*
X3937445Y3878683D1*
X3946435Y3880571D1*
X3955529Y3881855D1*
X3964688Y3882529D1*
X3973873Y3882592D1*
X3983041Y3882043D1*
X3992153Y3880881D1*
X4001166Y3879116D1*
X4010041Y3876752D1*
X4018739Y3873802D1*
X4027221Y3870280D1*
X4035449Y3866199D1*
X4043386Y3861578D1*
X4050999Y3856438D1*
X4058251Y3850802D1*
X4065111Y3844695D1*
X4071548Y3838144D1*
X4077535Y3831178D1*
X4083043Y3823827D1*
X4088048Y3816127D1*
X4092528Y3808109D1*
X4096465Y3799812D1*
X4099839Y3791268D1*
X4102636Y3782520D1*
X4104843Y3773604D1*
X4106449Y3764561D1*
X4107451Y3755431D1*
X4107846Y3745010D1*
X4107539Y3735830D1*
X2398389Y3850263D2*
Y3894974D1*
X2169872Y3895008D1*
X2169893Y3850245D1*
X2398377Y3850259D1*
X3814852Y704974D2*
X3830179D1*
Y585045D1*
X3710250D1*
Y600368D1*
X3705461Y596498D1*
X3697438Y591581D1*
X3688745Y587980D1*
X3679595Y585784D1*
X3670214Y585045D1*
X3660834Y585784D1*
X3651684Y587980D1*
X3642991Y591581D1*
X3634968Y596498D1*
X3627813Y602608D1*
X3621703Y609763D1*
X3616785Y617787D1*
X3613184Y626480D1*
X3610989Y635629D1*
X3610250Y645010D1*
X3610989Y654390D1*
X3613184Y663540D1*
X3616785Y672233D1*
X3621703Y680256D1*
X3627813Y687411D1*
X3634968Y693522D1*
X3637155Y694983D1*
X3631271Y699413D1*
X3624617Y706066D1*
X3619086Y713678D1*
X3614814Y722062D1*
X3611907Y731011D1*
X3610435Y740305D1*
Y749714D1*
X3611907Y759008D1*
X3614814Y767957D1*
X3619086Y776342D1*
X3624617Y783953D1*
X3631271Y790607D1*
X3637155Y794983D1*
X3631271Y799413D1*
X3624617Y806066D1*
X3619086Y813678D1*
X3614814Y822062D1*
X3611907Y831011D1*
X3610435Y840305D1*
Y849714D1*
X3611907Y859008D1*
X3614814Y867957D1*
X3619086Y876342D1*
X3624617Y883953D1*
X3631271Y890607D1*
X3637155Y894983D1*
X3631271Y899413D1*
X3624617Y906066D1*
X3619086Y913678D1*
X3614814Y922062D1*
X3611907Y931011D1*
X3610435Y940305D1*
Y949714D1*
X3611907Y959008D1*
X3614814Y967957D1*
X3619086Y976342D1*
X3624617Y983953D1*
X3631271Y990607D1*
X3637155Y994983D1*
X3631271Y999413D1*
X3624617Y1006066D1*
X3619086Y1013678D1*
X3614814Y1022062D1*
X3611907Y1031011D1*
X3610435Y1040305D1*
Y1049714D1*
X3611907Y1059008D1*
X3614814Y1067957D1*
X3619086Y1076342D1*
X3624617Y1083953D1*
X3631271Y1090607D1*
X3637155Y1094983D1*
X3631271Y1099413D1*
X3624617Y1106066D1*
X3619086Y1113678D1*
X3614814Y1122062D1*
X3611907Y1131011D1*
X3610435Y1140305D1*
Y1149714D1*
X3611907Y1159008D1*
X3614814Y1167957D1*
X3619086Y1176342D1*
X3624617Y1183953D1*
X3631271Y1190607D1*
X3637155Y1194983D1*
X3631271Y1199413D1*
X3624617Y1206066D1*
X3619086Y1213678D1*
X3614814Y1222062D1*
X3611907Y1231011D1*
X3610435Y1240305D1*
Y1249714D1*
X3611907Y1259008D1*
X3614814Y1267957D1*
X3619086Y1276342D1*
X3624617Y1283953D1*
X3631271Y1290607D1*
X3637155Y1294983D1*
X3631271Y1299413D1*
X3624617Y1306066D1*
X3619086Y1313678D1*
X3614814Y1322062D1*
X3611907Y1331011D1*
X3610435Y1340305D1*
Y1349714D1*
X3611907Y1359008D1*
X3614814Y1367957D1*
X3619086Y1376342D1*
X3624617Y1383953D1*
X3631271Y1390607D1*
X3637155Y1394983D1*
X3631271Y1399413D1*
X3624617Y1406066D1*
X3619086Y1413678D1*
X3614814Y1422062D1*
X3611907Y1431011D1*
X3610435Y1440305D1*
Y1449714D1*
X3611907Y1459008D1*
X3614814Y1467957D1*
X3619086Y1476342D1*
X3624617Y1483953D1*
X3631271Y1490607D1*
X3637155Y1494983D1*
X3631271Y1499413D1*
X3624617Y1506066D1*
X3619086Y1513678D1*
X3614814Y1522062D1*
X3611907Y1531011D1*
X3610435Y1540305D1*
Y1549714D1*
X3611907Y1559008D1*
X3614814Y1567957D1*
X3619086Y1576342D1*
X3624617Y1583953D1*
X3631271Y1590607D1*
X3637155Y1594983D1*
X3631271Y1599413D1*
X3624617Y1606066D1*
X3619086Y1613678D1*
X3614814Y1622062D1*
X3611907Y1631011D1*
X3610435Y1640305D1*
Y1649714D1*
X3611907Y1659008D1*
X3614814Y1667957D1*
X3619086Y1676342D1*
X3624617Y1683953D1*
X3631271Y1690607D1*
X3637155Y1694983D1*
X3631271Y1699413D1*
X3624617Y1706066D1*
X3619086Y1713678D1*
X3614814Y1722062D1*
X3611907Y1731011D1*
X3610435Y1740305D1*
Y1749714D1*
X3611907Y1759008D1*
X3614814Y1767957D1*
X3619086Y1776342D1*
X3624617Y1783953D1*
X3631271Y1790607D1*
X3637155Y1794983D1*
X3631271Y1799413D1*
X3624617Y1806066D1*
X3619086Y1813678D1*
X3614814Y1822062D1*
X3611907Y1831011D1*
X3610435Y1840305D1*
Y1849714D1*
X3611907Y1859008D1*
X3614814Y1867957D1*
X3619086Y1876342D1*
X3624617Y1883953D1*
X3631271Y1890607D1*
X3637155Y1894983D1*
X3631271Y1899413D1*
X3624617Y1906066D1*
X3619086Y1913678D1*
X3614814Y1922062D1*
X3611907Y1931011D1*
X3610435Y1940305D1*
Y1949714D1*
X3611907Y1959008D1*
X3614814Y1967957D1*
X3619086Y1976342D1*
X3624617Y1983953D1*
X3631271Y1990607D1*
X3637155Y1994983D1*
X3631271Y1999413D1*
X3624617Y2006066D1*
X3619086Y2013678D1*
X3614814Y2022062D1*
X3611907Y2031011D1*
X3610435Y2040305D1*
Y2049714D1*
X3611907Y2059008D1*
X3614814Y2067957D1*
X3619086Y2076342D1*
X3624617Y2083953D1*
X3631271Y2090607D1*
X3637155Y2094983D1*
X3631271Y2099413D1*
X3624617Y2106066D1*
X3619086Y2113678D1*
X3614814Y2122062D1*
X3611907Y2131011D1*
X3610435Y2140305D1*
Y2149714D1*
X3611907Y2159008D1*
X3614814Y2167957D1*
X3619086Y2176342D1*
X3624617Y2183953D1*
X3631271Y2190607D1*
X3637155Y2194983D1*
X3631271Y2199413D1*
X3624617Y2206066D1*
X3619086Y2213678D1*
X3614814Y2222062D1*
X3611907Y2231011D1*
X3610435Y2240305D1*
Y2249714D1*
X3611907Y2259008D1*
X3614814Y2267957D1*
X3619086Y2276342D1*
X3624617Y2283953D1*
X3631271Y2290607D1*
X3637155Y2294983D1*
X3631271Y2299413D1*
X3624617Y2306066D1*
X3619086Y2313678D1*
X3614814Y2322062D1*
X3611907Y2331011D1*
X3610435Y2340305D1*
Y2349714D1*
X3611907Y2359008D1*
X3614814Y2367957D1*
X3619086Y2376342D1*
X3624617Y2383953D1*
X3631271Y2390607D1*
X3637155Y2394983D1*
X3631271Y2399413D1*
X3624617Y2406066D1*
X3619086Y2413678D1*
X3614814Y2422062D1*
X3611907Y2431011D1*
X3610435Y2440305D1*
Y2449714D1*
X3611907Y2459008D1*
X3614814Y2467957D1*
X3619086Y2476342D1*
X3624617Y2483953D1*
X3631271Y2490607D1*
X3637155Y2494983D1*
X3631271Y2499413D1*
X3624617Y2506066D1*
X3619086Y2513678D1*
X3614814Y2522062D1*
X3611907Y2531011D1*
X3610435Y2540305D1*
Y2549714D1*
X3611907Y2559008D1*
X3614814Y2567957D1*
X3619086Y2576342D1*
X3624617Y2583953D1*
X3631271Y2590607D1*
X3637155Y2594983D1*
X3631271Y2599413D1*
X3624617Y2606066D1*
X3619086Y2613678D1*
X3614814Y2622062D1*
X3611907Y2631011D1*
X3610435Y2640305D1*
Y2649714D1*
X3611907Y2659008D1*
X3614814Y2667957D1*
X3619086Y2676342D1*
X3624617Y2683953D1*
X3631271Y2690607D1*
X3637155Y2694983D1*
X3631271Y2699413D1*
X3624617Y2706066D1*
X3619086Y2713678D1*
X3614814Y2722062D1*
X3611907Y2731011D1*
X3610435Y2740305D1*
Y2749714D1*
X3611907Y2759008D1*
X3614814Y2767957D1*
X3619086Y2776342D1*
X3624617Y2783953D1*
X3631271Y2790607D1*
X3637155Y2794983D1*
X3631271Y2799413D1*
X3624617Y2806066D1*
X3619086Y2813678D1*
X3614814Y2822062D1*
X3611907Y2831011D1*
X3610435Y2840305D1*
Y2849714D1*
X3611907Y2859008D1*
X3614814Y2867957D1*
X3619086Y2876342D1*
X3624617Y2883953D1*
X3631271Y2890607D1*
X3637155Y2894983D1*
X3631271Y2899413D1*
X3624617Y2906066D1*
X3619086Y2913678D1*
X3614814Y2922062D1*
X3611907Y2931011D1*
X3610435Y2940305D1*
Y2949714D1*
X3611907Y2959008D1*
X3614814Y2967957D1*
X3619086Y2976342D1*
X3624617Y2983953D1*
X3631271Y2990607D1*
X3637155Y2994983D1*
X3631271Y2999413D1*
X3624617Y3006066D1*
X3619086Y3013678D1*
X3614814Y3022062D1*
X3611907Y3031011D1*
X3610435Y3040305D1*
Y3049714D1*
X3611907Y3059008D1*
X3614814Y3067957D1*
X3619086Y3076342D1*
X3624617Y3083953D1*
X3631271Y3090607D1*
X3637155Y3094983D1*
X3631271Y3099413D1*
X3624617Y3106066D1*
X3619086Y3113678D1*
X3614814Y3122062D1*
X3611907Y3131011D1*
X3610435Y3140305D1*
Y3149714D1*
X3611907Y3159008D1*
X3614814Y3167957D1*
X3619086Y3176342D1*
X3624617Y3183953D1*
X3631271Y3190607D1*
X3637155Y3194983D1*
X3631271Y3199413D1*
X3624617Y3206066D1*
X3619086Y3213678D1*
X3614814Y3222062D1*
X3611907Y3231011D1*
X3610435Y3240305D1*
Y3249714D1*
X3611907Y3259008D1*
X3614814Y3267957D1*
X3619086Y3276342D1*
X3624617Y3283953D1*
X3631271Y3290607D1*
X3637155Y3294983D1*
X3631271Y3299413D1*
X3624617Y3306066D1*
X3619086Y3313678D1*
X3614814Y3322062D1*
X3611907Y3331011D1*
X3610435Y3340305D1*
Y3349714D1*
X3611907Y3359008D1*
X3614814Y3367957D1*
X3619086Y3376342D1*
X3624617Y3383953D1*
X3631271Y3390607D1*
X3637155Y3394983D1*
X3631271Y3399413D1*
X3624617Y3406066D1*
X3619086Y3413678D1*
X3614814Y3422062D1*
X3611907Y3431011D1*
X3610435Y3440305D1*
Y3449714D1*
X3611907Y3459008D1*
X3614814Y3467957D1*
X3619086Y3476342D1*
X3624617Y3483953D1*
X3631271Y3490607D1*
X3637155Y3494983D1*
X3631271Y3499413D1*
X3624617Y3506066D1*
X3619086Y3513678D1*
X3614814Y3522062D1*
X3611907Y3531011D1*
X3610435Y3540305D1*
Y3549714D1*
X3611907Y3559008D1*
X3614814Y3567957D1*
X3619086Y3576342D1*
X3624617Y3583953D1*
X3631271Y3590607D1*
X3637155Y3594983D1*
X3631271Y3599413D1*
X3624617Y3606066D1*
X3619086Y3613678D1*
X3614814Y3622062D1*
X3611907Y3631011D1*
X3610435Y3640305D1*
Y3649714D1*
X3611907Y3659008D1*
X3614814Y3667957D1*
X3619086Y3676342D1*
X3624617Y3683953D1*
X3631271Y3690607D1*
X3637155Y3694983D1*
X3631271Y3699413D1*
X3624617Y3706066D1*
X3619086Y3713678D1*
X3614814Y3722062D1*
X3611907Y3731011D1*
X3610435Y3740305D1*
Y3749714D1*
X3611907Y3759008D1*
X3614814Y3767957D1*
X3619086Y3776342D1*
X3624617Y3783953D1*
X3631271Y3790607D1*
X3638882Y3796138D1*
X3647267Y3800410D1*
X3656216Y3803317D1*
X3665510Y3804789D1*
X3674919D1*
X3684213Y3803317D1*
X3693162Y3800410D1*
X3701546Y3796138D1*
X3709158Y3790607D1*
X3715812Y3783953D1*
X3720188Y3778069D1*
X3724617Y3783953D1*
X3731271Y3790607D1*
X3738882Y3796138D1*
X3747267Y3800410D1*
X3756216Y3803317D1*
X3765510Y3804789D1*
X3774919D1*
X3784213Y3803317D1*
X3793162Y3800410D1*
X3801546Y3796138D1*
X3809158Y3790607D1*
X3815812Y3783953D1*
X3821343Y3776342D1*
X3825615Y3767957D1*
X3828522Y3759008D1*
X3829994Y3749714D1*
Y3740305D1*
X3828522Y3731011D1*
X3825615Y3722062D1*
X3821343Y3713678D1*
X3815812Y3706066D1*
X3809158Y3699413D1*
X3803273Y3695036D1*
X3809158Y3690607D1*
X3815812Y3683953D1*
X3821343Y3676342D1*
X3825615Y3667957D1*
X3828522Y3659008D1*
X3829994Y3649714D1*
Y3640305D1*
X3828522Y3631011D1*
X3825615Y3622062D1*
X3821343Y3613678D1*
X3815812Y3606066D1*
X3809158Y3599413D1*
X3803273Y3595036D1*
X3809158Y3590607D1*
X3815812Y3583953D1*
X3821343Y3576342D1*
X3825615Y3567957D1*
X3828522Y3559008D1*
X3829994Y3549714D1*
Y3540305D1*
X3828522Y3531011D1*
X3825615Y3522062D1*
X3821343Y3513678D1*
X3815812Y3506066D1*
X3809158Y3499413D1*
X3803273Y3495036D1*
X3809158Y3490607D1*
X3815812Y3483953D1*
X3821343Y3476342D1*
X3825615Y3467957D1*
X3828522Y3459008D1*
X3829994Y3449714D1*
Y3440305D1*
X3828522Y3431011D1*
X3825615Y3422062D1*
X3821343Y3413678D1*
X3815812Y3406066D1*
X3809158Y3399413D1*
X3803273Y3395036D1*
X3809158Y3390607D1*
X3815812Y3383953D1*
X3821343Y3376342D1*
X3825615Y3367957D1*
X3828522Y3359008D1*
X3829994Y3349714D1*
Y3340305D1*
X3828522Y3331011D1*
X3825615Y3322062D1*
X3821343Y3313678D1*
X3815812Y3306066D1*
X3809158Y3299413D1*
X3803273Y3295036D1*
X3809158Y3290607D1*
X3815812Y3283953D1*
X3821343Y3276342D1*
X3825615Y3267957D1*
X3828522Y3259008D1*
X3829994Y3249714D1*
Y3240305D1*
X3828522Y3231011D1*
X3825615Y3222062D1*
X3821343Y3213678D1*
X3815812Y3206066D1*
X3809158Y3199413D1*
X3803273Y3195036D1*
X3809158Y3190607D1*
X3815812Y3183953D1*
X3821343Y3176342D1*
X3825615Y3167957D1*
X3828522Y3159008D1*
X3829994Y3149714D1*
Y3140305D1*
X3828522Y3131011D1*
X3825615Y3122062D1*
X3821343Y3113678D1*
X3815812Y3106066D1*
X3809158Y3099413D1*
X3803273Y3095036D1*
X3809158Y3090607D1*
X3815812Y3083953D1*
X3821343Y3076342D1*
X3825615Y3067957D1*
X3828522Y3059008D1*
X3829994Y3049714D1*
Y3040305D1*
X3828522Y3031011D1*
X3825615Y3022062D1*
X3821343Y3013678D1*
X3815812Y3006066D1*
X3809158Y2999413D1*
X3803273Y2995036D1*
X3809158Y2990607D1*
X3815812Y2983953D1*
X3821343Y2976342D1*
X3825615Y2967957D1*
X3828522Y2959008D1*
X3829994Y2949714D1*
Y2940305D1*
X3828522Y2931011D1*
X3825615Y2922062D1*
X3821343Y2913678D1*
X3815812Y2906066D1*
X3809158Y2899413D1*
X3803273Y2895036D1*
X3809158Y2890607D1*
X3815812Y2883953D1*
X3821343Y2876342D1*
X3825615Y2867957D1*
X3828522Y2859008D1*
X3829994Y2849714D1*
Y2840305D1*
X3828522Y2831011D1*
X3825615Y2822062D1*
X3821343Y2813678D1*
X3815812Y2806066D1*
X3809158Y2799413D1*
X3803273Y2795036D1*
X3809158Y2790607D1*
X3815812Y2783953D1*
X3821343Y2776342D1*
X3825615Y2767957D1*
X3828522Y2759008D1*
X3829994Y2749714D1*
Y2740305D1*
X3828522Y2731011D1*
X3825615Y2722062D1*
X3821343Y2713678D1*
X3815812Y2706066D1*
X3809158Y2699413D1*
X3803273Y2695036D1*
X3809158Y2690607D1*
X3815812Y2683953D1*
X3821343Y2676342D1*
X3825615Y2667957D1*
X3828522Y2659008D1*
X3829994Y2649714D1*
Y2640305D1*
X3828522Y2631011D1*
X3825615Y2622062D1*
X3821343Y2613678D1*
X3815812Y2606066D1*
X3809158Y2599413D1*
X3803273Y2595036D1*
X3809158Y2590607D1*
X3815812Y2583953D1*
X3821343Y2576342D1*
X3825615Y2567957D1*
X3828522Y2559008D1*
X3829994Y2549714D1*
Y2540305D1*
X3828522Y2531011D1*
X3825615Y2522062D1*
X3821343Y2513678D1*
X3815812Y2506066D1*
X3809158Y2499413D1*
X3803273Y2495036D1*
X3809158Y2490607D1*
X3815812Y2483953D1*
X3821343Y2476342D1*
X3825615Y2467957D1*
X3828522Y2459008D1*
X3829994Y2449714D1*
Y2440305D1*
X3828522Y2431011D1*
X3825615Y2422062D1*
X3821343Y2413678D1*
X3815812Y2406066D1*
X3809158Y2399413D1*
X3803273Y2395036D1*
X3809158Y2390607D1*
X3815812Y2383953D1*
X3821343Y2376342D1*
X3825615Y2367957D1*
X3828522Y2359008D1*
X3829994Y2349714D1*
Y2340305D1*
X3828522Y2331011D1*
X3825615Y2322062D1*
X3821343Y2313678D1*
X3815812Y2306066D1*
X3809158Y2299413D1*
X3803273Y2295036D1*
X3809158Y2290607D1*
X3815812Y2283953D1*
X3821343Y2276342D1*
X3825615Y2267957D1*
X3828522Y2259008D1*
X3829994Y2249714D1*
Y2240305D1*
X3828522Y2231011D1*
X3825615Y2222062D1*
X3821343Y2213678D1*
X3815812Y2206066D1*
X3809158Y2199413D1*
X3803273Y2195036D1*
X3809158Y2190607D1*
X3815812Y2183953D1*
X3821343Y2176342D1*
X3825615Y2167957D1*
X3828522Y2159008D1*
X3829994Y2149714D1*
Y2140305D1*
X3828522Y2131011D1*
X3825615Y2122062D1*
X3821343Y2113678D1*
X3815812Y2106066D1*
X3809158Y2099413D1*
X3803273Y2095036D1*
X3809158Y2090607D1*
X3815812Y2083953D1*
X3821343Y2076342D1*
X3825615Y2067957D1*
X3828522Y2059008D1*
X3829994Y2049714D1*
Y2040305D1*
X3828522Y2031011D1*
X3825615Y2022062D1*
X3821343Y2013678D1*
X3815812Y2006066D1*
X3809158Y1999413D1*
X3803273Y1995036D1*
X3809158Y1990607D1*
X3815812Y1983953D1*
X3821343Y1976342D1*
X3825615Y1967957D1*
X3828522Y1959008D1*
X3829994Y1949714D1*
Y1940305D1*
X3828522Y1931011D1*
X3825615Y1922062D1*
X3821343Y1913678D1*
X3815812Y1906066D1*
X3809158Y1899413D1*
X3803273Y1895036D1*
X3809158Y1890607D1*
X3815812Y1883953D1*
X3821343Y1876342D1*
X3825615Y1867957D1*
X3828522Y1859008D1*
X3829994Y1849714D1*
Y1840305D1*
X3828522Y1831011D1*
X3825615Y1822062D1*
X3821343Y1813678D1*
X3815812Y1806066D1*
X3809158Y1799413D1*
X3803273Y1795036D1*
X3809158Y1790607D1*
X3815812Y1783953D1*
X3821343Y1776342D1*
X3825615Y1767957D1*
X3828522Y1759008D1*
X3829994Y1749714D1*
Y1740305D1*
X3828522Y1731011D1*
X3825615Y1722062D1*
X3821343Y1713678D1*
X3815812Y1706066D1*
X3809158Y1699413D1*
X3803273Y1695036D1*
X3809158Y1690607D1*
X3815812Y1683953D1*
X3821343Y1676342D1*
X3825615Y1667957D1*
X3828522Y1659008D1*
X3829994Y1649714D1*
Y1640305D1*
X3828522Y1631011D1*
X3825615Y1622062D1*
X3821343Y1613678D1*
X3815812Y1606066D1*
X3809158Y1599413D1*
X3803273Y1595036D1*
X3809158Y1590607D1*
X3815812Y1583953D1*
X3821343Y1576342D1*
X3825615Y1567957D1*
X3828522Y1559008D1*
X3829994Y1549714D1*
Y1540305D1*
X3828522Y1531011D1*
X3825615Y1522062D1*
X3821343Y1513678D1*
X3815812Y1506066D1*
X3809158Y1499413D1*
X3803273Y1495036D1*
X3809158Y1490607D1*
X3815812Y1483953D1*
X3821343Y1476342D1*
X3825615Y1467957D1*
X3828522Y1459008D1*
X3829994Y1449714D1*
Y1440305D1*
X3828522Y1431011D1*
X3825615Y1422062D1*
X3821343Y1413678D1*
X3815812Y1406066D1*
X3809158Y1399413D1*
X3803273Y1395036D1*
X3809158Y1390607D1*
X3815812Y1383953D1*
X3821343Y1376342D1*
X3825615Y1367957D1*
X3828522Y1359008D1*
X3829994Y1349714D1*
Y1340305D1*
X3828522Y1331011D1*
X3825615Y1322062D1*
X3821343Y1313678D1*
X3815812Y1306066D1*
X3809158Y1299413D1*
X3803273Y1295036D1*
X3809158Y1290607D1*
X3815812Y1283953D1*
X3821343Y1276342D1*
X3825615Y1267957D1*
X3828522Y1259008D1*
X3829994Y1249714D1*
Y1240305D1*
X3828522Y1231011D1*
X3825615Y1222062D1*
X3821343Y1213678D1*
X3815812Y1206066D1*
X3809158Y1199413D1*
X3803273Y1195036D1*
X3809158Y1190607D1*
X3815812Y1183953D1*
X3821343Y1176342D1*
X3825615Y1167957D1*
X3828522Y1159008D1*
X3829994Y1149714D1*
Y1140305D1*
X3828522Y1131011D1*
X3825615Y1122062D1*
X3821343Y1113678D1*
X3815812Y1106066D1*
X3809158Y1099413D1*
X3803273Y1095036D1*
X3809158Y1090607D1*
X3815812Y1083953D1*
X3821343Y1076342D1*
X3825615Y1067957D1*
X3828522Y1059008D1*
X3829994Y1049714D1*
Y1040305D1*
X3828522Y1031011D1*
X3825615Y1022062D1*
X3821343Y1013678D1*
X3815812Y1006066D1*
X3809158Y999413D1*
X3803273Y995036D1*
X3809158Y990607D1*
X3815812Y983953D1*
X3821343Y976342D1*
X3825615Y967957D1*
X3828522Y959008D1*
X3829994Y949714D1*
Y940305D1*
X3828522Y931011D1*
X3825615Y922062D1*
X3821343Y913678D1*
X3815812Y906066D1*
X3809158Y899413D1*
X3803273Y895036D1*
X3809158Y890607D1*
X3815812Y883953D1*
X3821343Y876342D1*
X3825615Y867957D1*
X3828522Y859008D1*
X3829994Y849714D1*
Y840305D1*
X3828522Y831011D1*
X3825615Y822062D1*
X3821343Y813678D1*
X3815812Y806066D1*
X3809158Y799413D1*
X3803273Y795036D1*
X3809158Y790607D1*
X3815812Y783953D1*
X3821343Y776342D1*
X3825615Y767957D1*
X3828522Y759008D1*
X3829994Y749714D1*
Y740305D1*
X3828522Y731011D1*
X3825615Y722062D1*
X3821343Y713678D1*
X3815812Y706066D1*
X3814801Y704972D1*
X3720241Y778069D2*
X3724617Y783953D1*
X3731271Y790607D1*
X3737155Y794983D1*
X3731271Y799413D1*
X3724617Y806066D1*
X3720241Y811951D1*
X3715812Y806066D1*
X3709158Y799413D1*
X3703273Y795036D1*
X3709158Y790607D1*
X3715812Y783953D1*
X3720188Y778069D1*
X3720241Y878069D2*
X3724617Y883953D1*
X3731271Y890607D1*
X3737155Y894983D1*
X3731271Y899413D1*
X3724617Y906066D1*
X3720241Y911951D1*
X3715812Y906066D1*
X3709158Y899413D1*
X3703273Y895036D1*
X3709158Y890607D1*
X3715812Y883953D1*
X3720188Y878069D1*
X3720241Y978069D2*
X3724617Y983953D1*
X3731271Y990607D1*
X3737155Y994983D1*
X3731271Y999413D1*
X3724617Y1006066D1*
X3720241Y1011951D1*
X3715812Y1006066D1*
X3709158Y999413D1*
X3703273Y995036D1*
X3709158Y990607D1*
X3715812Y983953D1*
X3720188Y978069D1*
X3720241Y1078069D2*
X3724617Y1083953D1*
X3731271Y1090607D1*
X3737155Y1094983D1*
X3731271Y1099413D1*
X3724617Y1106066D1*
X3720241Y1111951D1*
X3715812Y1106066D1*
X3709158Y1099413D1*
X3703273Y1095036D1*
X3709158Y1090607D1*
X3715812Y1083953D1*
X3720188Y1078069D1*
X3720241Y1178069D2*
X3724617Y1183953D1*
X3731271Y1190607D1*
X3737155Y1194983D1*
X3731271Y1199413D1*
X3724617Y1206066D1*
X3720241Y1211951D1*
X3715812Y1206066D1*
X3709158Y1199413D1*
X3703273Y1195036D1*
X3709158Y1190607D1*
X3715812Y1183953D1*
X3720188Y1178069D1*
X3720241Y1278069D2*
X3724617Y1283953D1*
X3731271Y1290607D1*
X3737155Y1294983D1*
X3731271Y1299413D1*
X3724617Y1306066D1*
X3720241Y1311951D1*
X3715812Y1306066D1*
X3709158Y1299413D1*
X3703273Y1295036D1*
X3709158Y1290607D1*
X3715812Y1283953D1*
X3720188Y1278069D1*
X3720241Y1378069D2*
X3724617Y1383953D1*
X3731271Y1390607D1*
X3737155Y1394983D1*
X3731271Y1399413D1*
X3724617Y1406066D1*
X3720241Y1411951D1*
X3715812Y1406066D1*
X3709158Y1399413D1*
X3703273Y1395036D1*
X3709158Y1390607D1*
X3715812Y1383953D1*
X3720188Y1378069D1*
X3720241Y1478069D2*
X3724617Y1483953D1*
X3731271Y1490607D1*
X3737155Y1494983D1*
X3731271Y1499413D1*
X3724617Y1506066D1*
X3720241Y1511951D1*
X3715812Y1506066D1*
X3709158Y1499413D1*
X3703273Y1495036D1*
X3709158Y1490607D1*
X3715812Y1483953D1*
X3720188Y1478069D1*
X3720241Y1578069D2*
X3724617Y1583953D1*
X3731271Y1590607D1*
X3737155Y1594983D1*
X3731271Y1599413D1*
X3724617Y1606066D1*
X3720241Y1611951D1*
X3715812Y1606066D1*
X3709158Y1599413D1*
X3703273Y1595036D1*
X3709158Y1590607D1*
X3715812Y1583953D1*
X3720188Y1578069D1*
X3720241Y1678069D2*
X3724617Y1683953D1*
X3731271Y1690607D1*
X3737155Y1694983D1*
X3731271Y1699413D1*
X3724617Y1706066D1*
X3720241Y1711951D1*
X3715812Y1706066D1*
X3709158Y1699413D1*
X3703273Y1695036D1*
X3709158Y1690607D1*
X3715812Y1683953D1*
X3720188Y1678069D1*
X3720241Y1778069D2*
X3724617Y1783953D1*
X3731271Y1790607D1*
X3737155Y1794983D1*
X3731271Y1799413D1*
X3724617Y1806066D1*
X3720241Y1811951D1*
X3715812Y1806066D1*
X3709158Y1799413D1*
X3703273Y1795036D1*
X3709158Y1790607D1*
X3715812Y1783953D1*
X3720188Y1778069D1*
X3720241Y1878069D2*
X3724617Y1883953D1*
X3731271Y1890607D1*
X3737155Y1894983D1*
X3731271Y1899413D1*
X3724617Y1906066D1*
X3720241Y1911951D1*
X3715812Y1906066D1*
X3709158Y1899413D1*
X3703273Y1895036D1*
X3709158Y1890607D1*
X3715812Y1883953D1*
X3720188Y1878069D1*
X3720241Y1978069D2*
X3724617Y1983953D1*
X3731271Y1990607D1*
X3737155Y1994983D1*
X3731271Y1999413D1*
X3724617Y2006066D1*
X3720241Y2011951D1*
X3715812Y2006066D1*
X3709158Y1999413D1*
X3703273Y1995036D1*
X3709158Y1990607D1*
X3715812Y1983953D1*
X3720188Y1978069D1*
X3720241Y2078069D2*
X3724617Y2083953D1*
X3731271Y2090607D1*
X3737155Y2094983D1*
X3731271Y2099413D1*
X3724617Y2106066D1*
X3720241Y2111951D1*
X3715812Y2106066D1*
X3709158Y2099413D1*
X3703273Y2095036D1*
X3709158Y2090607D1*
X3715812Y2083953D1*
X3720188Y2078069D1*
X3720241Y2178069D2*
X3724617Y2183953D1*
X3731271Y2190607D1*
X3737155Y2194983D1*
X3731271Y2199413D1*
X3724617Y2206066D1*
X3720241Y2211951D1*
X3715812Y2206066D1*
X3709158Y2199413D1*
X3703273Y2195036D1*
X3709158Y2190607D1*
X3715812Y2183953D1*
X3720188Y2178069D1*
X3720241Y2278069D2*
X3724617Y2283953D1*
X3731271Y2290607D1*
X3737155Y2294983D1*
X3731271Y2299413D1*
X3724617Y2306066D1*
X3720241Y2311951D1*
X3715812Y2306066D1*
X3709158Y2299413D1*
X3703273Y2295036D1*
X3709158Y2290607D1*
X3715812Y2283953D1*
X3720188Y2278069D1*
X3720241Y2378069D2*
X3724617Y2383953D1*
X3731271Y2390607D1*
X3737155Y2394983D1*
X3731271Y2399413D1*
X3724617Y2406066D1*
X3720241Y2411951D1*
X3715812Y2406066D1*
X3709158Y2399413D1*
X3703273Y2395036D1*
X3709158Y2390607D1*
X3715812Y2383953D1*
X3720188Y2378069D1*
X3720241Y2478069D2*
X3724617Y2483953D1*
X3731271Y2490607D1*
X3737155Y2494983D1*
X3731271Y2499413D1*
X3724617Y2506066D1*
X3720241Y2511951D1*
X3715812Y2506066D1*
X3709158Y2499413D1*
X3703273Y2495036D1*
X3709158Y2490607D1*
X3715812Y2483953D1*
X3720188Y2478069D1*
X3720241Y2578069D2*
X3724617Y2583953D1*
X3731271Y2590607D1*
X3737155Y2594983D1*
X3731271Y2599413D1*
X3724617Y2606066D1*
X3720241Y2611951D1*
X3715812Y2606066D1*
X3709158Y2599413D1*
X3703273Y2595036D1*
X3709158Y2590607D1*
X3715812Y2583953D1*
X3720188Y2578069D1*
X3720241Y2678069D2*
X3724617Y2683953D1*
X3731271Y2690607D1*
X3737155Y2694983D1*
X3731271Y2699413D1*
X3724617Y2706066D1*
X3720241Y2711951D1*
X3715812Y2706066D1*
X3709158Y2699413D1*
X3703273Y2695036D1*
X3709158Y2690607D1*
X3715812Y2683953D1*
X3720188Y2678069D1*
X3720241Y2778069D2*
X3724617Y2783953D1*
X3731271Y2790607D1*
X3737155Y2794983D1*
X3731271Y2799413D1*
X3724617Y2806066D1*
X3720241Y2811951D1*
X3715812Y2806066D1*
X3709158Y2799413D1*
X3703273Y2795036D1*
X3709158Y2790607D1*
X3715812Y2783953D1*
X3720188Y2778069D1*
X3720241Y2878069D2*
X3724617Y2883953D1*
X3731271Y2890607D1*
X3737155Y2894983D1*
X3731271Y2899413D1*
X3724617Y2906066D1*
X3720241Y2911951D1*
X3715812Y2906066D1*
X3709158Y2899413D1*
X3703273Y2895036D1*
X3709158Y2890607D1*
X3715812Y2883953D1*
X3720188Y2878069D1*
X3720241Y2978069D2*
X3724617Y2983953D1*
X3731271Y2990607D1*
X3737155Y2994983D1*
X3731271Y2999413D1*
X3724617Y3006066D1*
X3720241Y3011951D1*
X3715812Y3006066D1*
X3709158Y2999413D1*
X3703273Y2995036D1*
X3709158Y2990607D1*
X3715812Y2983953D1*
X3720188Y2978069D1*
X3720241Y3078069D2*
X3724617Y3083953D1*
X3731271Y3090607D1*
X3737155Y3094983D1*
X3731271Y3099413D1*
X3724617Y3106066D1*
X3720241Y3111951D1*
X3715812Y3106066D1*
X3709158Y3099413D1*
X3703273Y3095036D1*
X3709158Y3090607D1*
X3715812Y3083953D1*
X3720188Y3078069D1*
X3720241Y3178069D2*
X3724617Y3183953D1*
X3731271Y3190607D1*
X3737155Y3194983D1*
X3731271Y3199413D1*
X3724617Y3206066D1*
X3720241Y3211951D1*
X3715812Y3206066D1*
X3709158Y3199413D1*
X3703273Y3195036D1*
X3709158Y3190607D1*
X3715812Y3183953D1*
X3720188Y3178069D1*
X3720241Y3278069D2*
X3724617Y3283953D1*
X3731271Y3290607D1*
X3737155Y3294983D1*
X3731271Y3299413D1*
X3724617Y3306066D1*
X3720241Y3311951D1*
X3715812Y3306066D1*
X3709158Y3299413D1*
X3703273Y3295036D1*
X3709158Y3290607D1*
X3715812Y3283953D1*
X3720188Y3278069D1*
X3720241Y3378069D2*
X3724617Y3383953D1*
X3731271Y3390607D1*
X3737155Y3394983D1*
X3731271Y3399413D1*
X3724617Y3406066D1*
X3720241Y3411951D1*
X3715812Y3406066D1*
X3709158Y3399413D1*
X3703273Y3395036D1*
X3709158Y3390607D1*
X3715812Y3383953D1*
X3720188Y3378069D1*
X3720241Y3478069D2*
X3724617Y3483953D1*
X3731271Y3490607D1*
X3737155Y3494983D1*
X3731271Y3499413D1*
X3724617Y3506066D1*
X3720241Y3511951D1*
X3715812Y3506066D1*
X3709158Y3499413D1*
X3703273Y3495036D1*
X3709158Y3490607D1*
X3715812Y3483953D1*
X3720188Y3478069D1*
X3720241Y3578069D2*
X3724617Y3583953D1*
X3731271Y3590607D1*
X3737155Y3594983D1*
X3731271Y3599413D1*
X3724617Y3606066D1*
X3720241Y3611951D1*
X3715812Y3606066D1*
X3709158Y3599413D1*
X3703273Y3595036D1*
X3709158Y3590607D1*
X3715812Y3583953D1*
X3720188Y3578069D1*
X3720241Y3678069D2*
X3724617Y3683953D1*
X3731271Y3690607D1*
X3737155Y3694983D1*
X3731271Y3699413D1*
X3724617Y3706066D1*
X3720241Y3711951D1*
X3715812Y3706066D1*
X3709158Y3699413D1*
X3703273Y3695036D1*
X3709158Y3690607D1*
X3715812Y3683953D1*
X3720188Y3678069D1*
X3022649Y3139759D2*
X2649023D1*
X2644511Y3136611D1*
X2638010Y3133298D1*
X2631070Y3131044D1*
X2623863Y3129902D1*
X2616566D1*
X2609359Y3131044D1*
X2602419Y3133298D1*
X2595918Y3136611D1*
X2590015Y3140901D1*
X2584856Y3146060D1*
X2580566Y3151962D1*
X2577254Y3158464D1*
X2574999Y3165403D1*
X2573857Y3172611D1*
Y3179907D1*
X2574999Y3187115D1*
X2577254Y3194054D1*
X2580566Y3200556D1*
X2584856Y3206459D1*
X2590015Y3211617D1*
X2595918Y3215907D1*
X2602419Y3219220D1*
X2609359Y3221474D1*
X2616566Y3222616D1*
X2623863D1*
X2631070Y3221474D1*
X2638010Y3219220D1*
X2644511Y3215907D1*
X2648969Y3212756D1*
X3022655Y3212759D1*
X3027167Y3215907D1*
X3033669Y3219220D1*
X3040608Y3221474D1*
X3047815Y3222616D1*
X3055112D1*
X3062319Y3221474D1*
X3069259Y3219220D1*
X3075760Y3215907D1*
X3081663Y3211617D1*
X3086822Y3206459D1*
X3091112Y3200556D1*
X3094424Y3194054D1*
X3096679Y3187115D1*
X3097821Y3179907D1*
Y3172611D1*
X3096679Y3165403D1*
X3094424Y3158464D1*
X3091112Y3151962D1*
X3086822Y3146060D1*
X3081663Y3140901D1*
X3075760Y3136611D1*
X3069259Y3133298D1*
X3062319Y3131044D1*
X3055112Y3129902D1*
X3047815D1*
X3040608Y3131044D1*
X3033669Y3133298D1*
X3027167Y3136611D1*
X3022709Y3139762D1*
X3191399Y3352259D2*
X2247860D1*
X2094228Y3198653D1*
X2094214Y3111310D1*
X2097363Y3106806D1*
X2100675Y3100305D1*
X2102930Y3093365D1*
X2104071Y3086158D1*
Y3078861D1*
X2102930Y3071654D1*
X2100675Y3064714D1*
X2097363Y3058213D1*
X2093073Y3052310D1*
X2087914Y3047151D1*
X2082011Y3042861D1*
X2075510Y3039549D1*
X2068570Y3037294D1*
X2061363Y3036153D1*
X2054066D1*
X2046859Y3037294D1*
X2039919Y3039549D1*
X2033418Y3042861D1*
X2027515Y3047151D1*
X2022356Y3052310D1*
X2018066Y3058213D1*
X2014754Y3064714D1*
X2012499Y3071654D1*
X2011357Y3078861D1*
Y3086158D1*
X2012499Y3093365D1*
X2014754Y3100305D1*
X2018066Y3106806D1*
X2021217Y3111264D1*
X2021327Y3216623D1*
X2022222Y3222280D1*
X2023993Y3227728D1*
X2026592Y3232830D1*
X2029960Y3237464D1*
X2064384Y3272048D1*
X2209010Y3416514D1*
X2213644Y3419881D1*
X2218746Y3422481D1*
X2224193Y3424251D1*
X2229851Y3425146D1*
X2278646Y3425259D1*
X3191432D1*
X3195918Y3428407D1*
X3202419Y3431720D1*
X3209359Y3433974D1*
X3216566Y3435116D1*
X3223863D1*
X3231070Y3433974D1*
X3238010Y3431720D1*
X3244511Y3428407D1*
X3250414Y3424117D1*
X3255573Y3418959D1*
X3259863Y3413056D1*
X3263175Y3406554D1*
X3265430Y3399615D1*
X3266571Y3392407D1*
Y3385111D1*
X3265430Y3377903D1*
X3263175Y3370964D1*
X3259863Y3364462D1*
X3255573Y3358560D1*
X3250414Y3353401D1*
X3244511Y3349111D1*
X3238010Y3345798D1*
X3231070Y3343544D1*
X3223863Y3342402D1*
X3216566D1*
X3209359Y3343544D1*
X3202419Y3345798D1*
X3195918Y3349111D1*
X3191460Y3352262D1*
X2783713Y773825D2*
Y972480D1*
X2780566Y976962D1*
X2777254Y983464D1*
X2774999Y990403D1*
X2773857Y997611D1*
Y1004907D1*
X2774999Y1012115D1*
X2777254Y1019054D1*
X2780566Y1025556D1*
X2784855Y1031459D1*
X2790015Y1036617D1*
X2795918Y1040907D1*
X2802419Y1044220D1*
X2809359Y1046474D1*
X2816565Y1047616D1*
X2823863D1*
X2831069Y1046474D1*
X2838008Y1044220D1*
X2844510Y1040907D1*
X2850413Y1036617D1*
X2855573Y1031459D1*
X2859861Y1025556D1*
X2863174Y1019054D1*
X2865428Y1012115D1*
X2866570Y1004907D1*
Y997611D1*
X2865428Y990403D1*
X2863174Y983464D1*
X2859861Y976962D1*
X2856712Y972504D1*
X2856714Y773789D1*
X2859861Y769305D1*
X2863174Y762804D1*
X2865428Y755864D1*
X2866570Y748658D1*
Y741360D1*
X2865428Y734154D1*
X2863174Y727214D1*
X2859861Y720713D1*
X2855573Y714810D1*
X2850413Y709650D1*
X2844510Y705361D1*
X2838008Y702049D1*
X2831069Y699794D1*
X2823863Y698653D1*
X2816565D1*
X2809359Y699794D1*
X2802419Y702049D1*
X2795918Y705361D1*
X2790015Y709650D1*
X2784855Y714810D1*
X2780566Y720713D1*
X2777254Y727214D1*
X2774999Y734154D1*
X2773857Y741360D1*
Y748658D1*
X2774999Y755864D1*
X2777254Y762804D1*
X2780566Y769305D1*
X2783716Y773763D1*
X2601258Y645640D2*
D14*
X2654318Y526259D1*
X2707378Y645640D2*
X2654318Y526259D1*
X2935903Y645640D2*
X2988964Y526259D1*
X3042024Y645640D2*
X2988964Y526259D1*
X3770214Y645010D2*
X3830154Y585070D1*
Y704949D2*
X3710275Y585070D1*
X1526258Y645640D2*
X1579318Y526259D1*
X1632378Y645640D2*
X1579318Y526259D1*
X1860903Y645640D2*
X1913964Y526259D1*
X1967024Y645640D2*
X1913964Y526259D1*
D17*
X2654318D3*
X2988964D3*
X2451464Y3813759D3*
X2116818D3*
D19*
X3770214Y645010D3*
D20*
X3670214D3*
X3770214Y745010D3*
X3670214D3*
X3770214Y845010D3*
X3670214D3*
X3770214Y945010D3*
X3670214D3*
X3770214Y1045010D3*
X3670214D3*
X3770214Y1145010D3*
X3670214D3*
X3770214Y1245010D3*
X3670214D3*
X3770214Y1345010D3*
X3670214D3*
X3770214Y1445010D3*
X3670214D3*
X3770214Y1545010D3*
X3670214D3*
X3770214Y1645010D3*
X3670214D3*
X3770214Y1745010D3*
X3670214D3*
X3770214Y1845010D3*
X3670214D3*
X3770214Y1945010D3*
X3670214D3*
X3770214Y2045010D3*
X3670214D3*
X3770214Y2145010D3*
X3670214D3*
X3770214Y2245010D3*
X3670214D3*
X3770214Y2345010D3*
X3670214D3*
X3770214Y2445010D3*
X3670214D3*
X3770214Y2545010D3*
X3670214D3*
X3770214Y2645010D3*
X3670214D3*
X3770214Y2745010D3*
X3670214D3*
X3770214Y2845010D3*
X3670214D3*
X3770214Y2945010D3*
X3670214D3*
X3770214Y3045010D3*
X3670214D3*
X3770214Y3145010D3*
X3670214D3*
X3770214Y3245010D3*
X3670214D3*
X3770214Y3345010D3*
X3670214D3*
X3770214Y3445010D3*
X3670214D3*
X3770214Y3545010D3*
X3670214D3*
X3770214Y3645010D3*
X3670214D3*
X3770214Y3745010D3*
X3670214D3*
D17*
X1579318Y526259D3*
X1913964D3*
M02*
