G04 DipTrace 3.3.1.3*
G04 BottomSilk.gbr*
%MOIN*%
G04 #@! TF.FileFunction,Legend,Bot*
G04 #@! TF.Part,Single*
%ADD11C,0.003*%
%FSLAX26Y26*%
G04*
G70*
G90*
G75*
G01*
G04 BotSilk*
%LPD*%
G36*
X557714Y2195010D2*
X1207714D1*
Y1632510D1*
X557714D1*
Y2195010D1*
G37*
G36*
X1832714D2*
X2482714D1*
Y1632510D1*
X1832714D1*
Y2195010D1*
G37*
G36*
X557714Y1532508D2*
X1857714D1*
Y970010D1*
X557714D1*
Y1532508D1*
G37*
X1662714Y2039008D2*
D11*
X1695714D1*
X1651071Y2036008D2*
X1703999D1*
X1371714Y2033008D2*
X1425714D1*
X1524714D2*
X1578714D1*
X1640873D2*
X1711252D1*
X1371714Y2030008D2*
X1425714D1*
X1523099D2*
X1578714D1*
X1632454D2*
X1717038D1*
X1371714Y2027008D2*
X1425714D1*
X1520973D2*
X1578714D1*
X1626065D2*
X1721538D1*
X1371714Y2024008D2*
X1425714D1*
X1518514D2*
X1578714D1*
X1621173D2*
X1725238D1*
X1371714Y2021008D2*
X1425714D1*
X1516090D2*
X1578714D1*
X1619431D2*
X1728533D1*
X1371714Y2018008D2*
X1425714D1*
X1513887D2*
X1578714D1*
X1619641D2*
X1731637D1*
X1371714Y2015008D2*
X1425714D1*
X1511697D2*
X1578714D1*
X1620460D2*
X1734574D1*
X1371714Y2012008D2*
X1425714D1*
X1509337D2*
X1578714D1*
X1621654D2*
X1737196D1*
X1371714Y2009008D2*
X1425714D1*
X1507001D2*
X1578714D1*
X1623035D2*
X1739377D1*
X1371714Y2006008D2*
X1425714D1*
X1504848D2*
X1578714D1*
X1624488D2*
X1741215D1*
X1371714Y2003008D2*
X1425714D1*
X1502670D2*
X1578714D1*
X1625974D2*
X1742857D1*
X1371714Y2000008D2*
X1425714D1*
X1500225D2*
X1578714D1*
X1627466D2*
X1744322D1*
X1371714Y1997008D2*
X1425714D1*
X1497616D2*
X1578714D1*
X1628967D2*
X1745559D1*
X1371714Y1994008D2*
X1425714D1*
X1495129D2*
X1578714D1*
X1630464D2*
X1660430D1*
X1680474D2*
X1746623D1*
X1371714Y1991008D2*
X1425714D1*
X1492901D2*
X1578714D1*
X1631956D2*
X1653176D1*
X1685576D2*
X1747684D1*
X1371714Y1988008D2*
X1425714D1*
X1490690D2*
X1578714D1*
X1633376D2*
X1647376D1*
X1689521D2*
X1748604D1*
X1371714Y1985008D2*
X1425714D1*
X1488233D2*
X1578714D1*
X1634626D2*
X1642785D1*
X1692265D2*
X1749189D1*
X1371714Y1982008D2*
X1425714D1*
X1485619D2*
X1578714D1*
X1635714D2*
X1638714D1*
X1694316D2*
X1749490D1*
X1299714Y1979008D2*
X1314714D1*
X1371714D2*
X1425714D1*
X1483129D2*
X1578714D1*
X1695023D2*
X1749626D1*
X1293945Y1976008D2*
X1320113D1*
X1371714D2*
X1425714D1*
X1480901D2*
X1578714D1*
X1695296D2*
X1749681D1*
X1289233Y1973008D2*
X1324762D1*
X1371714D2*
X1425714D1*
X1478702D2*
X1578714D1*
X1695234D2*
X1749703D1*
X1285478Y1970008D2*
X1328373D1*
X1371714D2*
X1425714D1*
X1476338D2*
X1578714D1*
X1693868D2*
X1749710D1*
X1282580Y1967008D2*
X1331024D1*
X1371714D2*
X1425714D1*
X1474001D2*
X1578714D1*
X1691625D2*
X1749713D1*
X1280535Y1964008D2*
X1332978D1*
X1371714D2*
X1425714D1*
X1471848D2*
X1578714D1*
X1688113D2*
X1749714D1*
X1279081Y1961008D2*
X1334426D1*
X1371714D2*
X1425714D1*
X1469670D2*
X1578714D1*
X1682888D2*
X1749714D1*
X1277852Y1958008D2*
X1335575D1*
X1371714D2*
X1425714D1*
X1467225D2*
X1578714D1*
X1675998D2*
X1749703D1*
X1276864Y1955008D2*
X1336667D1*
X1371714D2*
X1425714D1*
X1464616D2*
X1578714D1*
X1668021D2*
X1749597D1*
X1276254Y1952008D2*
X1337587D1*
X1371714D2*
X1425714D1*
X1462129D2*
X1521829D1*
X1527714D2*
X1578714D1*
X1659584D2*
X1749203D1*
X1275955Y1949008D2*
X1338070D1*
X1371714D2*
X1425714D1*
X1459901D2*
X1519213D1*
X1527714D2*
X1578714D1*
X1651361D2*
X1748379D1*
X1275922Y1946008D2*
X1337990D1*
X1371714D2*
X1425714D1*
X1457702D2*
X1516932D1*
X1527714D2*
X1578714D1*
X1644037D2*
X1747216D1*
X1276247Y1943008D2*
X1337396D1*
X1371714D2*
X1425714D1*
X1455338D2*
X1514702D1*
X1527714D2*
X1578714D1*
X1637883D2*
X1745857D1*
X1276956Y1940008D2*
X1336577D1*
X1371714D2*
X1425714D1*
X1453001D2*
X1512237D1*
X1527714D2*
X1578714D1*
X1632670D2*
X1744310D1*
X1277835Y1937008D2*
X1335681D1*
X1371714D2*
X1425714D1*
X1450848D2*
X1509620D1*
X1527714D2*
X1578714D1*
X1628203D2*
X1742430D1*
X1278855Y1934008D2*
X1334575D1*
X1371714D2*
X1425714D1*
X1448670D2*
X1507130D1*
X1527714D2*
X1578714D1*
X1624385D2*
X1740007D1*
X1280350Y1931008D2*
X1333170D1*
X1371714D2*
X1425714D1*
X1446225D2*
X1504901D1*
X1527714D2*
X1578714D1*
X1621003D2*
X1736943D1*
X1282476Y1928008D2*
X1331260D1*
X1371714D2*
X1425714D1*
X1443616D2*
X1502702D1*
X1527714D2*
X1578714D1*
X1617950D2*
X1733153D1*
X1285153Y1925008D2*
X1328476D1*
X1371714D2*
X1425714D1*
X1441129D2*
X1500338D1*
X1527714D2*
X1578714D1*
X1615370D2*
X1728552D1*
X1288425Y1922008D2*
X1324624D1*
X1371714D2*
X1425726D1*
X1438889D2*
X1498001D1*
X1527714D2*
X1578714D1*
X1613457D2*
X1722998D1*
X1292372Y1919008D2*
X1319868D1*
X1371714D2*
X1425840D1*
X1436564D2*
X1495848D1*
X1527714D2*
X1578714D1*
X1612053D2*
X1716460D1*
X1296714Y1916008D2*
X1314714D1*
X1371714D2*
X1426304D1*
X1433634D2*
X1493670D1*
X1527714D2*
X1578714D1*
X1610842D2*
X1708991D1*
X1371714Y1913008D2*
X1427330D1*
X1429905D2*
X1491225D1*
X1527714D2*
X1578714D1*
X1609860D2*
X1700620D1*
X1371714Y1910008D2*
X1488616D1*
X1527714D2*
X1578714D1*
X1609253D2*
X1691839D1*
X1371714Y1907008D2*
X1486129D1*
X1527714D2*
X1578714D1*
X1608943D2*
X1683588D1*
X1371714Y1904008D2*
X1483901D1*
X1527714D2*
X1578714D1*
X1608804D2*
X1676636D1*
X1371714Y1901008D2*
X1481702D1*
X1527714D2*
X1578714D1*
X1608748D2*
X1671231D1*
X1371714Y1898008D2*
X1479338D1*
X1527714D2*
X1578714D1*
X1608726D2*
X1667388D1*
X1371714Y1895008D2*
X1477001D1*
X1527714D2*
X1578714D1*
X1608719D2*
X1664554D1*
X1371714Y1892008D2*
X1474848D1*
X1527714D2*
X1578714D1*
X1608716D2*
X1663601D1*
X1371714Y1889008D2*
X1472670D1*
X1527714D2*
X1578714D1*
X1608715D2*
X1663090D1*
X1305714Y1886008D2*
X1308714D1*
X1371714D2*
X1470225D1*
X1527714D2*
X1578714D1*
X1608715D2*
X1662872D1*
X1734714D2*
X1737714D1*
X1298108Y1883008D2*
X1315869D1*
X1371714D2*
X1467616D1*
X1527714D2*
X1578714D1*
X1608726D2*
X1662909D1*
X1730563D2*
X1738854D1*
X1291885Y1880008D2*
X1321454D1*
X1371714D2*
X1465129D1*
X1527714D2*
X1578714D1*
X1608832D2*
X1663181D1*
X1726145D2*
X1740143D1*
X1287194Y1877008D2*
X1325750D1*
X1371714D2*
X1462901D1*
X1527714D2*
X1578714D1*
X1609214D2*
X1664739D1*
X1721065D2*
X1741537D1*
X1283913Y1874008D2*
X1329213D1*
X1371714D2*
X1460702D1*
X1527714D2*
X1578714D1*
X1609944D2*
X1669493D1*
X1714215D2*
X1742994D1*
X1281562Y1871008D2*
X1331960D1*
X1371714D2*
X1458338D1*
X1527714D2*
X1578714D1*
X1610819D2*
X1677631D1*
X1703839D2*
X1744485D1*
X1279705Y1868008D2*
X1333936D1*
X1371714D2*
X1456001D1*
X1527714D2*
X1578714D1*
X1611724D2*
X1689976D1*
X1689038D2*
X1746075D1*
X1278167Y1865008D2*
X1335364D1*
X1371714D2*
X1453848D1*
X1527714D2*
X1578714D1*
X1612733D2*
X1747858D1*
X1277004Y1862008D2*
X1336583D1*
X1371714D2*
X1451670D1*
X1527714D2*
X1578714D1*
X1613746D2*
X1749790D1*
X1276311Y1859008D2*
X1337555D1*
X1371714D2*
X1449225D1*
X1527714D2*
X1578714D1*
X1614822D2*
X1751627D1*
X1275965Y1856008D2*
X1338059D1*
X1371714D2*
X1446616D1*
X1527714D2*
X1578714D1*
X1616327D2*
X1753322D1*
X1275824Y1853008D2*
X1337986D1*
X1371714D2*
X1444129D1*
X1527714D2*
X1578714D1*
X1618355D2*
X1754992D1*
X1275868Y1850008D2*
X1337395D1*
X1371714D2*
X1441901D1*
X1527714D2*
X1578714D1*
X1620643D2*
X1756781D1*
X1276238Y1847008D2*
X1336577D1*
X1371714D2*
X1439702D1*
X1527714D2*
X1578714D1*
X1623117D2*
X1758714D1*
X1277066Y1844008D2*
X1335681D1*
X1371714D2*
X1437338D1*
X1527714D2*
X1578714D1*
X1626002D2*
X1755125D1*
X1278332Y1841008D2*
X1334575D1*
X1371714D2*
X1435001D1*
X1527714D2*
X1578714D1*
X1629336D2*
X1750879D1*
X1280072Y1838008D2*
X1333182D1*
X1371714D2*
X1432848D1*
X1527714D2*
X1578714D1*
X1633082D2*
X1745872D1*
X1282349Y1835008D2*
X1331365D1*
X1371714D2*
X1430678D1*
X1527714D2*
X1578714D1*
X1637576D2*
X1740219D1*
X1285100Y1832008D2*
X1328851D1*
X1371714D2*
X1428268D1*
X1527714D2*
X1578714D1*
X1643250D2*
X1733702D1*
X1288405Y1829008D2*
X1325280D1*
X1371714D2*
X1425714D1*
X1527714D2*
X1578714D1*
X1650462D2*
X1725652D1*
X1292365Y1826008D2*
X1320391D1*
X1659200D2*
X1715714D1*
X1296714Y1823008D2*
X1314714D1*
X1668714D2*
X1704714D1*
X2670714Y2039008D2*
X2718714D1*
X2916714D2*
X2955714D1*
X2662197Y2036008D2*
X2727125D1*
X2905432D2*
X2965962D1*
X2655477Y2033008D2*
X2734868D1*
X2895675D2*
X2975216D1*
X2650283Y2030008D2*
X2741755D1*
X2887473D2*
X2983051D1*
X2648125Y2027008D2*
X2747755D1*
X2880654D2*
X2989527D1*
X2647368Y2024008D2*
X2752853D1*
X2874927D2*
X2995208D1*
X2646981Y2021008D2*
X2757332D1*
X2869864D2*
X3000427D1*
X2646815Y2018008D2*
X2761571D1*
X2865231D2*
X3005025D1*
X2646750Y2015008D2*
X2765563D1*
X2861028D2*
X3008946D1*
X2646727Y2012008D2*
X2769163D1*
X2857320D2*
X3012396D1*
X2646719Y2009008D2*
X2772368D1*
X2853968D2*
X3015591D1*
X2646716Y2006008D2*
X2775125D1*
X2850825D2*
X3018669D1*
X2646715Y2003008D2*
X2777463D1*
X2847868D2*
X3021698D1*
X2646715Y2000008D2*
X2779704D1*
X2845227D2*
X3024697D1*
X2646714Y1997008D2*
X2782083D1*
X2842949D2*
X3027595D1*
X2646714Y1994008D2*
X2784413D1*
X2840820D2*
X3030214D1*
X2646714Y1991008D2*
X2786463D1*
X2838737D2*
X3032485D1*
X2646714Y1988008D2*
X2679955D1*
X2705409D2*
X2788247D1*
X2836838D2*
X2924020D1*
X2948421D2*
X3034610D1*
X2646714Y1985008D2*
X2671853D1*
X2714417D2*
X2789880D1*
X2835129D2*
X2915001D1*
X2957534D2*
X3036693D1*
X2646714Y1982008D2*
X2664905D1*
X2721207D2*
X2791431D1*
X2833540D2*
X2908116D1*
X2964707D2*
X3038579D1*
X2574714Y1979008D2*
X2589714D1*
X2646714D2*
X2659130D1*
X2726195D2*
X2792943D1*
X2832096D2*
X2902852D1*
X2970413D2*
X3040195D1*
X2568945Y1976008D2*
X2595113D1*
X2646714D2*
X2654211D1*
X2730094D2*
X2794354D1*
X2830866D2*
X2898605D1*
X2975081D2*
X3041506D1*
X2564233Y1973008D2*
X2599762D1*
X2646714D2*
X2649714D1*
X2733368D2*
X2795570D1*
X2829804D2*
X2895175D1*
X2978878D2*
X3042603D1*
X2560478Y1970008D2*
X2603373D1*
X2736132D2*
X2796627D1*
X2828733D2*
X2892286D1*
X2981921D2*
X3043688D1*
X2557580Y1967008D2*
X2606024D1*
X2738456D2*
X2797697D1*
X2827707D2*
X2889582D1*
X2984372D2*
X3044719D1*
X2555535Y1964008D2*
X2607978D1*
X2740589D2*
X2798722D1*
X2826740D2*
X2887108D1*
X2986557D2*
X3045688D1*
X2554081Y1961008D2*
X2609426D1*
X2742584D2*
X2799689D1*
X2825721D2*
X2885000D1*
X2988573D2*
X3046708D1*
X2552852Y1958008D2*
X2610575D1*
X2744196D2*
X2800708D1*
X2824816D2*
X2883194D1*
X2990192D2*
X3047613D1*
X2551864Y1955008D2*
X2611667D1*
X2745464D2*
X2801613D1*
X2824237D2*
X2881565D1*
X2991463D2*
X3048192D1*
X2551254Y1952008D2*
X2612587D1*
X2746620D2*
X2802192D1*
X2823938D2*
X2880116D1*
X2992619D2*
X3048491D1*
X2550955Y1949008D2*
X2613070D1*
X2747580D2*
X2802491D1*
X2823803D2*
X2878975D1*
X2993580D2*
X3048626D1*
X2550922Y1946008D2*
X2612990D1*
X2748180D2*
X2802626D1*
X2823736D2*
X2878188D1*
X2994180D2*
X3048682D1*
X2551247Y1943008D2*
X2612396D1*
X2748487D2*
X2802682D1*
X2823609D2*
X2877464D1*
X2994487D2*
X3048703D1*
X2551956Y1940008D2*
X2611577D1*
X2748625D2*
X2802703D1*
X2823219D2*
X2876594D1*
X2994625D2*
X3048710D1*
X2552835Y1937008D2*
X2610681D1*
X2748681D2*
X2802710D1*
X2822498D2*
X2875763D1*
X2994681D2*
X3048713D1*
X2553855Y1934008D2*
X2609575D1*
X2748703D2*
X2802713D1*
X2821739D2*
X2875228D1*
X2994703D2*
X3048714D1*
X2555350Y1931008D2*
X2608170D1*
X2748710D2*
X2802714D1*
X2821321D2*
X2875047D1*
X2994710D2*
X3048714D1*
X2557476Y1928008D2*
X2606260D1*
X2748713D2*
X2802714D1*
X2821425D2*
X2875300D1*
X2994713D2*
X3048714D1*
X2560153Y1925008D2*
X2603476D1*
X2748714D2*
X2802714D1*
X2822017D2*
X2875964D1*
X2994702D2*
X3048714D1*
X2563425Y1922008D2*
X2599624D1*
X2748703D2*
X2802714D1*
X2822733D2*
X2876725D1*
X2994597D2*
X3048714D1*
X2567372Y1919008D2*
X2594868D1*
X2748597D2*
X2802714D1*
X2823236D2*
X2877346D1*
X2994203D2*
X3048714D1*
X2571714Y1916008D2*
X2589714D1*
X2748215D2*
X2802703D1*
X2823507D2*
X2878016D1*
X2993379D2*
X3048703D1*
X2747485Y1913008D2*
X2802597D1*
X2823643D2*
X2878989D1*
X2898714D2*
X2922714D1*
X2992216D2*
X3048597D1*
X2746598Y1910008D2*
X2802215D1*
X2823801D2*
X2880424D1*
X2895591D2*
X2936871D1*
X2990869D2*
X3048215D1*
X2745587Y1907008D2*
X2801496D1*
X2824203D2*
X2882641D1*
X2892126D2*
X2949714D1*
X2989427D2*
X3047485D1*
X2744197Y1904008D2*
X2800716D1*
X2824940D2*
X2885886D1*
X2888099D2*
X2946714D1*
X2987941D2*
X3046610D1*
X2742464Y1901008D2*
X2800087D1*
X2825818D2*
X2943714D1*
X2986342D2*
X3045705D1*
X2740620Y1898008D2*
X2799415D1*
X2826724D2*
X2940714D1*
X2984453D2*
X3044696D1*
X2738580Y1895008D2*
X2798463D1*
X2827733D2*
X2937714D1*
X2982116D2*
X3043694D1*
X2736168Y1892008D2*
X2797259D1*
X2828735D2*
X2934714D1*
X2979350D2*
X3042724D1*
X2646714Y1889008D2*
X2649714D1*
X2733358D2*
X2795986D1*
X2829705D2*
X2931714D1*
X2976095D2*
X3041602D1*
X2580714Y1886008D2*
X2583714D1*
X2646714D2*
X2654724D1*
X2729961D2*
X2794814D1*
X2830827D2*
X2928714D1*
X2972191D2*
X3040304D1*
X2573108Y1883008D2*
X2590869D1*
X2646714D2*
X2660230D1*
X2725401D2*
X2793673D1*
X2832125D2*
X2925714D1*
X2967282D2*
X3038902D1*
X2566885Y1880008D2*
X2596454D1*
X2646714D2*
X2667614D1*
X2718482D2*
X2792228D1*
X2833539D2*
X2922714D1*
X2960376D2*
X3037439D1*
X2562194Y1877008D2*
X2600750D1*
X2646714D2*
X2678796D1*
X2707504D2*
X2790476D1*
X2835095D2*
X2919714D1*
X2950069D2*
X3035945D1*
X2558913Y1874008D2*
X2604213D1*
X2646714D2*
X2694516D1*
X2691868D2*
X2788636D1*
X2836866D2*
X2934339D1*
X2935943D2*
X3034355D1*
X2556562Y1871008D2*
X2606960D1*
X2646714D2*
X2786699D1*
X2838804D2*
X3032571D1*
X2554705Y1868008D2*
X2608936D1*
X2646714D2*
X2784680D1*
X2840733D2*
X3030627D1*
X2553167Y1865008D2*
X2610364D1*
X2646714D2*
X2782705D1*
X2842684D2*
X3028685D1*
X2552004Y1862008D2*
X2611583D1*
X2646714D2*
X2780612D1*
X2844483D2*
X3026605D1*
X2551311Y1859008D2*
X2612555D1*
X2646714D2*
X2778192D1*
X2845897D2*
X3024189D1*
X2550965Y1856008D2*
X2613059D1*
X2646714D2*
X2775480D1*
X2845577D2*
X3021490D1*
X2550824Y1853008D2*
X2612986D1*
X2646714D2*
X2772509D1*
X2843683D2*
X3018614D1*
X2550868Y1850008D2*
X2612395D1*
X2646714D2*
X2769170D1*
X2841278D2*
X3015564D1*
X2551238Y1847008D2*
X2611577D1*
X2646714D2*
X2765368D1*
X2838544D2*
X3012191D1*
X2552066Y1844008D2*
X2610681D1*
X2646714D2*
X2761212D1*
X2835652D2*
X3008363D1*
X2553332Y1841008D2*
X2609575D1*
X2646738D2*
X2756844D1*
X2832692D2*
X3004097D1*
X2555072Y1838008D2*
X2608182D1*
X2646984D2*
X2752193D1*
X2829707D2*
X2999357D1*
X2557349Y1835008D2*
X2606365D1*
X2647582D2*
X2746919D1*
X2826712D2*
X2994069D1*
X2560100Y1832008D2*
X2603851D1*
X2650300D2*
X2740653D1*
X2823714D2*
X2877714D1*
X2883899D2*
X2988150D1*
X2563405Y1829008D2*
X2600280D1*
X2656585D2*
X2733292D1*
X2820714D2*
X2874714D1*
X2890971D2*
X2980854D1*
X2567365Y1826008D2*
X2595391D1*
X2664665D2*
X2724829D1*
X2817714D2*
X2871714D1*
X2900497D2*
X2970649D1*
X2571714Y1823008D2*
X2589714D1*
X2673714D2*
X2715714D1*
X2814714D2*
X2868714D1*
X2913544D2*
X2956734D1*
X2827933Y1820008D2*
X2865714D1*
X2928714D2*
X2940714D1*
X2841714Y1817008D2*
X2862714D1*
X2864714Y1376508D2*
X2912714D1*
X3110714D2*
X3149714D1*
X2856197Y1373508D2*
X2921125D1*
X3099432D2*
X3159962D1*
X2021714Y1370508D2*
X2138714D1*
X2159714D2*
X2300714D1*
X2381714D2*
X2441714D1*
X2615714D2*
X2708714D1*
X2849477D2*
X2928868D1*
X3089675D2*
X3169216D1*
X2021714Y1367508D2*
X2138714D1*
X2159714D2*
X2300714D1*
X2381251D2*
X2442190D1*
X2605919D2*
X2708714D1*
X2844283D2*
X2935755D1*
X3081473D2*
X3177051D1*
X2021714Y1364508D2*
X2138714D1*
X2159714D2*
X2300714D1*
X2380495D2*
X2443039D1*
X2597315D2*
X2708714D1*
X2842125D2*
X2941755D1*
X3074654D2*
X3183527D1*
X2021714Y1361508D2*
X2138714D1*
X2159714D2*
X2300714D1*
X2379613D2*
X2444198D1*
X2589980D2*
X2708714D1*
X2841368D2*
X2946853D1*
X3068927D2*
X3189208D1*
X2021714Y1358508D2*
X2138714D1*
X2159714D2*
X2300714D1*
X2378694D2*
X2445454D1*
X2583693D2*
X2708714D1*
X2840981D2*
X2951332D1*
X3063864D2*
X3194427D1*
X2021714Y1355508D2*
X2138714D1*
X2159714D2*
X2300714D1*
X2377591D2*
X2446607D1*
X2578240D2*
X2708714D1*
X2840815D2*
X2955571D1*
X3059231D2*
X3199025D1*
X2021714Y1352508D2*
X2138714D1*
X2159714D2*
X2300714D1*
X2376312D2*
X2447640D1*
X2573395D2*
X2708714D1*
X2840750D2*
X2959563D1*
X3055028D2*
X3202946D1*
X2021714Y1349508D2*
X2138714D1*
X2159714D2*
X2300714D1*
X2375006D2*
X2448701D1*
X2569094D2*
X2708714D1*
X2840727D2*
X2963163D1*
X3051320D2*
X3206396D1*
X2021714Y1346508D2*
X2138714D1*
X2159714D2*
X2300714D1*
X2373833D2*
X2449723D1*
X2565344D2*
X2708714D1*
X2840719D2*
X2966368D1*
X3047968D2*
X3209591D1*
X2021714Y1343508D2*
X2138714D1*
X2159714D2*
X2300714D1*
X2372781D2*
X2450701D1*
X2561977D2*
X2708714D1*
X2840716D2*
X2969125D1*
X3044825D2*
X3212669D1*
X2021714Y1340508D2*
X2138714D1*
X2159714D2*
X2300714D1*
X2371623D2*
X2451826D1*
X2558816D2*
X2708714D1*
X2840715D2*
X2971463D1*
X3041868D2*
X3215698D1*
X2021714Y1337508D2*
X2138714D1*
X2159714D2*
X2300714D1*
X2370324D2*
X2453113D1*
X2555764D2*
X2708714D1*
X2840715D2*
X2973704D1*
X3039227D2*
X3218697D1*
X2021714Y1334508D2*
X2138714D1*
X2159714D2*
X2300714D1*
X2369010D2*
X2454422D1*
X2552845D2*
X2708714D1*
X2840714D2*
X2976083D1*
X3036949D2*
X3221595D1*
X2021714Y1331508D2*
X2138714D1*
X2159714D2*
X2300714D1*
X2367834D2*
X2455596D1*
X2550218D2*
X2708714D1*
X2840714D2*
X2978413D1*
X3034820D2*
X3224214D1*
X2021714Y1328508D2*
X2138714D1*
X2159714D2*
X2300714D1*
X2366793D2*
X2456648D1*
X2547946D2*
X2708714D1*
X2840714D2*
X2980463D1*
X3032737D2*
X3226485D1*
X2087714Y1325508D2*
X2138714D1*
X2204714D2*
X2255714D1*
X2365729D2*
X2457805D1*
X2545819D2*
X2628905D1*
X2657714D2*
X2708714D1*
X2840714D2*
X2873955D1*
X2899409D2*
X2982247D1*
X3030838D2*
X3118020D1*
X3142421D2*
X3228610D1*
X2087714Y1322508D2*
X2138714D1*
X2204714D2*
X2255714D1*
X2364706D2*
X2459105D1*
X2543736D2*
X2619514D1*
X2657714D2*
X2708714D1*
X2840714D2*
X2865853D1*
X2908417D2*
X2983880D1*
X3029129D2*
X3109001D1*
X3151534D2*
X3230693D1*
X2087714Y1319508D2*
X2138714D1*
X2204714D2*
X2255714D1*
X2363728D2*
X2460419D1*
X2541838D2*
X2612004D1*
X2657714D2*
X2708714D1*
X2840714D2*
X2858905D1*
X2915207D2*
X2985431D1*
X3027540D2*
X3102116D1*
X3158707D2*
X3232579D1*
X1949714Y1316508D2*
X1964714D1*
X2087714D2*
X2138714D1*
X2204714D2*
X2255714D1*
X2362603D2*
X2461595D1*
X2540129D2*
X2606247D1*
X2657714D2*
X2708714D1*
X2840714D2*
X2853130D1*
X2920195D2*
X2986943D1*
X3026096D2*
X3096852D1*
X3164413D2*
X3234195D1*
X1943945Y1313508D2*
X1970113D1*
X2087714D2*
X2138714D1*
X2204714D2*
X2255714D1*
X2361316D2*
X2462648D1*
X2538540D2*
X2601825D1*
X2657714D2*
X2708714D1*
X2840714D2*
X2848211D1*
X2924094D2*
X2988354D1*
X3024866D2*
X3092605D1*
X3169081D2*
X3235506D1*
X1939233Y1310508D2*
X1974762D1*
X2087714D2*
X2138714D1*
X2204714D2*
X2255714D1*
X2360007D2*
X2463805D1*
X2537096D2*
X2598273D1*
X2657714D2*
X2708714D1*
X2840714D2*
X2843714D1*
X2927368D2*
X2989570D1*
X3023804D2*
X3089175D1*
X3172878D2*
X3236603D1*
X1935478Y1307508D2*
X1978373D1*
X2087714D2*
X2138714D1*
X2204714D2*
X2255714D1*
X2358833D2*
X2465105D1*
X2535866D2*
X2595381D1*
X2657714D2*
X2708714D1*
X2930132D2*
X2990627D1*
X3022733D2*
X3086286D1*
X3175921D2*
X3237688D1*
X1932580Y1304508D2*
X1981024D1*
X2087714D2*
X2138714D1*
X2204714D2*
X2255714D1*
X2357793D2*
X2466419D1*
X2534804D2*
X2593004D1*
X2657714D2*
X2708714D1*
X2932456D2*
X2991697D1*
X3021707D2*
X3083582D1*
X3178372D2*
X3238719D1*
X1930535Y1301508D2*
X1982978D1*
X2087714D2*
X2138714D1*
X2204714D2*
X2255714D1*
X2356729D2*
X2408251D1*
X2415190D2*
X2467595D1*
X2533745D2*
X2590851D1*
X2657714D2*
X2708714D1*
X2934589D2*
X2992722D1*
X3020740D2*
X3081108D1*
X3180557D2*
X3239688D1*
X1929081Y1298508D2*
X1984426D1*
X2087714D2*
X2138714D1*
X2204714D2*
X2255714D1*
X2355706D2*
X2407495D1*
X2416039D2*
X2468636D1*
X2532813D2*
X2588849D1*
X2657714D2*
X2708714D1*
X2936584D2*
X2993689D1*
X3019721D2*
X3079000D1*
X3182573D2*
X3240708D1*
X1927852Y1295508D2*
X1985575D1*
X2087714D2*
X2138714D1*
X2204714D2*
X2255714D1*
X2354728D2*
X2406613D1*
X2417198D2*
X2469700D1*
X2532123D2*
X2587235D1*
X2657714D2*
X2708714D1*
X2938196D2*
X2994708D1*
X3018816D2*
X3077194D1*
X3184192D2*
X3241613D1*
X1926864Y1292508D2*
X1986667D1*
X2087714D2*
X2138714D1*
X2204714D2*
X2255714D1*
X2353603D2*
X2405705D1*
X2418454D2*
X2470723D1*
X2531439D2*
X2585965D1*
X2657714D2*
X2708714D1*
X2939464D2*
X2995613D1*
X3018237D2*
X3075565D1*
X3185463D2*
X3242192D1*
X1926254Y1289508D2*
X1987587D1*
X2024714D2*
X2138714D1*
X2204714D2*
X2255714D1*
X2352316D2*
X2404696D1*
X2419607D2*
X2471701D1*
X2530585D2*
X2584809D1*
X2657714D2*
X2708714D1*
X2940620D2*
X2996192D1*
X3017938D2*
X3074116D1*
X3186619D2*
X3242491D1*
X1925955Y1286508D2*
X1988070D1*
X2024714D2*
X2138714D1*
X2204714D2*
X2255714D1*
X2351007D2*
X2403694D1*
X2420640D2*
X2472826D1*
X2529760D2*
X2583849D1*
X2657714D2*
X2708714D1*
X2941580D2*
X2996491D1*
X3017803D2*
X3072975D1*
X3187580D2*
X3242626D1*
X1925922Y1283508D2*
X1987990D1*
X2024714D2*
X2138714D1*
X2204714D2*
X2255714D1*
X2349833D2*
X2402736D1*
X2421701D2*
X2474113D1*
X2529216D2*
X2583249D1*
X2657714D2*
X2708714D1*
X2942180D2*
X2996626D1*
X3017736D2*
X3072188D1*
X3188180D2*
X3242682D1*
X1926247Y1280508D2*
X1987396D1*
X2024714D2*
X2138714D1*
X2204714D2*
X2255714D1*
X2348793D2*
X2401707D1*
X2422723D2*
X2475422D1*
X2528930D2*
X2582942D1*
X2657714D2*
X2708714D1*
X2942487D2*
X2996682D1*
X3017609D2*
X3071464D1*
X3188487D2*
X3242703D1*
X1926956Y1277508D2*
X1986577D1*
X2024714D2*
X2138714D1*
X2204714D2*
X2255714D1*
X2347729D2*
X2400698D1*
X2423689D2*
X2476596D1*
X2528800D2*
X2582804D1*
X2657714D2*
X2708714D1*
X2942625D2*
X2996703D1*
X3017219D2*
X3070594D1*
X3188625D2*
X3242710D1*
X1927835Y1274508D2*
X1985681D1*
X2024714D2*
X2138714D1*
X2204714D2*
X2255714D1*
X2346706D2*
X2399737D1*
X2424720D2*
X2477648D1*
X2528746D2*
X2582748D1*
X2657714D2*
X2708714D1*
X2942681D2*
X2996710D1*
X3016498D2*
X3069763D1*
X3188681D2*
X3242713D1*
X1928855Y1271508D2*
X1984575D1*
X2024714D2*
X2138714D1*
X2204714D2*
X2255714D1*
X2345728D2*
X2398708D1*
X2425730D2*
X2478805D1*
X2528726D2*
X2582726D1*
X2657714D2*
X2708714D1*
X2942703D2*
X2996713D1*
X3015739D2*
X3069228D1*
X3188703D2*
X3242714D1*
X1930350Y1268508D2*
X1983170D1*
X2024714D2*
X2138714D1*
X2204714D2*
X2255714D1*
X2344603D2*
X2397698D1*
X2426691D2*
X2480105D1*
X2528718D2*
X2582718D1*
X2657714D2*
X2708714D1*
X2942710D2*
X2996714D1*
X3015321D2*
X3069047D1*
X3188710D2*
X3242714D1*
X1932476Y1265508D2*
X1981260D1*
X2024714D2*
X2138714D1*
X2204714D2*
X2255714D1*
X2343316D2*
X2396737D1*
X2427721D2*
X2481419D1*
X2528716D2*
X2582716D1*
X2657714D2*
X2708714D1*
X2942713D2*
X2996714D1*
X3015425D2*
X3069300D1*
X3188713D2*
X3242714D1*
X1935153Y1262508D2*
X1978476D1*
X2024714D2*
X2138714D1*
X2204714D2*
X2255714D1*
X2342007D2*
X2395708D1*
X2428731D2*
X2482595D1*
X2528715D2*
X2582715D1*
X2657714D2*
X2708714D1*
X2942714D2*
X2996714D1*
X3016017D2*
X3069964D1*
X3188702D2*
X3242714D1*
X1938425Y1259508D2*
X1974624D1*
X2024714D2*
X2138714D1*
X2204714D2*
X2255714D1*
X2340833D2*
X2394698D1*
X2429692D2*
X2483636D1*
X2528726D2*
X2582726D1*
X2657714D2*
X2708714D1*
X2942703D2*
X2996714D1*
X3016733D2*
X3070725D1*
X3188597D2*
X3242714D1*
X1942372Y1256508D2*
X1969868D1*
X2024714D2*
X2138714D1*
X2204714D2*
X2255714D1*
X2339781D2*
X2393726D1*
X2430721D2*
X2484700D1*
X2528832D2*
X2582832D1*
X2657714D2*
X2708714D1*
X2942597D2*
X2996714D1*
X3017236D2*
X3071346D1*
X3188203D2*
X3242714D1*
X1946714Y1253508D2*
X1964714D1*
X2024714D2*
X2138714D1*
X2204714D2*
X2255714D1*
X2338623D2*
X2392591D1*
X2431742D2*
X2485723D1*
X2529214D2*
X2583214D1*
X2657714D2*
X2708714D1*
X2942215D2*
X2996703D1*
X3017507D2*
X3072016D1*
X3187379D2*
X3242703D1*
X2024714Y1250508D2*
X2138714D1*
X2204714D2*
X2255714D1*
X2337324D2*
X2391188D1*
X2432820D2*
X2486701D1*
X2529932D2*
X2583944D1*
X2657714D2*
X2708714D1*
X2941485D2*
X2996597D1*
X3017643D2*
X3072989D1*
X3092714D2*
X3116714D1*
X3186216D2*
X3242597D1*
X2024714Y1247508D2*
X2138714D1*
X2204714D2*
X2255714D1*
X2336010D2*
X2389399D1*
X2434327D2*
X2487826D1*
X2530713D2*
X2584819D1*
X2657714D2*
X2708714D1*
X2940598D2*
X2996215D1*
X3017801D2*
X3074424D1*
X3089591D2*
X3130871D1*
X3184869D2*
X3242215D1*
X2087714Y1244508D2*
X2138714D1*
X2204714D2*
X2255714D1*
X2334834D2*
X2387165D1*
X2436386D2*
X2489113D1*
X2531342D2*
X2585736D1*
X2657714D2*
X2708714D1*
X2939587D2*
X2995496D1*
X3018203D2*
X3076641D1*
X3086126D2*
X3143714D1*
X3183427D2*
X3241485D1*
X2087714Y1241508D2*
X2138714D1*
X2204714D2*
X2255714D1*
X2333793D2*
X2490422D1*
X2532003D2*
X2586850D1*
X2657714D2*
X2708714D1*
X2938197D2*
X2994716D1*
X3018940D2*
X3079886D1*
X3082099D2*
X3140714D1*
X3181941D2*
X3240610D1*
X2087714Y1238508D2*
X2138714D1*
X2204714D2*
X2255714D1*
X2332729D2*
X2491596D1*
X2532860D2*
X2588246D1*
X2657714D2*
X2708714D1*
X2936464D2*
X2994087D1*
X3019818D2*
X3137714D1*
X3180342D2*
X3239705D1*
X2087714Y1235508D2*
X2138714D1*
X2204714D2*
X2255714D1*
X2331706D2*
X2492648D1*
X2533787D2*
X2590040D1*
X2657714D2*
X2708714D1*
X2934620D2*
X2993415D1*
X3020724D2*
X3134714D1*
X3178453D2*
X3238696D1*
X2087714Y1232508D2*
X2138714D1*
X2204714D2*
X2255714D1*
X2330728D2*
X2493805D1*
X2534725D2*
X2592337D1*
X2657714D2*
X2708714D1*
X2932580D2*
X2992463D1*
X3021733D2*
X3131714D1*
X3176116D2*
X3237694D1*
X2087714Y1229508D2*
X2138714D1*
X2204714D2*
X2255714D1*
X2329603D2*
X2495105D1*
X2535834D2*
X2595088D1*
X2657714D2*
X2708714D1*
X2930168D2*
X2991259D1*
X3022735D2*
X3128714D1*
X3173350D2*
X3236724D1*
X2087714Y1226508D2*
X2138714D1*
X2204714D2*
X2255714D1*
X2328316D2*
X2496419D1*
X2537127D2*
X2598337D1*
X2657714D2*
X2708714D1*
X2840714D2*
X2843714D1*
X2927358D2*
X2989986D1*
X3023705D2*
X3125714D1*
X3170095D2*
X3235602D1*
X1955714Y1223508D2*
X1958714D1*
X2087714D2*
X2138714D1*
X2204714D2*
X2255714D1*
X2327007D2*
X2497595D1*
X2538540D2*
X2602239D1*
X2657714D2*
X2708714D1*
X2840714D2*
X2848724D1*
X2923961D2*
X2988814D1*
X3024827D2*
X3122714D1*
X3166191D2*
X3234304D1*
X1948108Y1220508D2*
X1965869D1*
X2087714D2*
X2138714D1*
X2204714D2*
X2255714D1*
X2325833D2*
X2498648D1*
X2540096D2*
X2607194D1*
X2657714D2*
X2708714D1*
X2840714D2*
X2854230D1*
X2919401D2*
X2987673D1*
X3026125D2*
X3119714D1*
X3161282D2*
X3232902D1*
X1941885Y1217508D2*
X1971454D1*
X2087714D2*
X2138714D1*
X2204714D2*
X2255714D1*
X2324793D2*
X2499805D1*
X2541866D2*
X2614557D1*
X2657714D2*
X2708714D1*
X2840714D2*
X2861614D1*
X2912482D2*
X2986228D1*
X3027539D2*
X3116714D1*
X3154376D2*
X3231439D1*
X1937194Y1214508D2*
X1975750D1*
X2087714D2*
X2138714D1*
X2204714D2*
X2255714D1*
X2323729D2*
X2501105D1*
X2543804D2*
X2626718D1*
X2657714D2*
X2708714D1*
X2840714D2*
X2872796D1*
X2901504D2*
X2984476D1*
X3029095D2*
X3113714D1*
X3144069D2*
X3229945D1*
X1933913Y1211508D2*
X1979213D1*
X2087714D2*
X2138714D1*
X2204714D2*
X2255714D1*
X2322706D2*
X2502419D1*
X2545745D2*
X2644947D1*
X2657714D2*
X2708714D1*
X2840714D2*
X2888516D1*
X2885868D2*
X2982636D1*
X3030866D2*
X3128339D1*
X3129943D2*
X3228355D1*
X1931562Y1208508D2*
X1981960D1*
X2021714D2*
X2138714D1*
X2204714D2*
X2255714D1*
X2321728D2*
X2503595D1*
X2547824D2*
X2708714D1*
X2840714D2*
X2980699D1*
X3032804D2*
X3226571D1*
X1929705Y1205508D2*
X1983936D1*
X2021714D2*
X2138714D1*
X2204714D2*
X2255714D1*
X2320603D2*
X2504636D1*
X2550240D2*
X2708714D1*
X2840714D2*
X2978680D1*
X3034733D2*
X3224627D1*
X1928167Y1202508D2*
X1985364D1*
X2021714D2*
X2138714D1*
X2204714D2*
X2255714D1*
X2319316D2*
X2505700D1*
X2552939D2*
X2708714D1*
X2840714D2*
X2976705D1*
X3036684D2*
X3222685D1*
X1927004Y1199508D2*
X1986583D1*
X2021714D2*
X2138714D1*
X2204714D2*
X2255714D1*
X2318007D2*
X2372251D1*
X2450137D2*
X2506723D1*
X2555803D2*
X2708714D1*
X2840714D2*
X2974612D1*
X3038483D2*
X3220605D1*
X1926311Y1196508D2*
X1987555D1*
X2021714D2*
X2138714D1*
X2204714D2*
X2255714D1*
X2316833D2*
X2371495D1*
X2451997D2*
X2507701D1*
X2558747D2*
X2708714D1*
X2840714D2*
X2972192D1*
X3039897D2*
X3218189D1*
X1925965Y1193508D2*
X1988059D1*
X2021714D2*
X2138714D1*
X2204714D2*
X2255714D1*
X2315793D2*
X2370613D1*
X2453395D2*
X2508826D1*
X2561738D2*
X2708714D1*
X2840714D2*
X2969480D1*
X3039577D2*
X3215490D1*
X1925824Y1190508D2*
X1987986D1*
X2021714D2*
X2138714D1*
X2204714D2*
X2255714D1*
X2314729D2*
X2369705D1*
X2454707D2*
X2510113D1*
X2564847D2*
X2708714D1*
X2840714D2*
X2966509D1*
X3037683D2*
X3212614D1*
X1925868Y1187508D2*
X1987395D1*
X2021714D2*
X2138714D1*
X2204714D2*
X2255714D1*
X2313706D2*
X2368696D1*
X2456069D2*
X2511422D1*
X2568332D2*
X2708714D1*
X2840714D2*
X2963170D1*
X3035278D2*
X3209564D1*
X1926238Y1184508D2*
X1986577D1*
X2021714D2*
X2138714D1*
X2204714D2*
X2255714D1*
X2312728D2*
X2367694D1*
X2457406D2*
X2512596D1*
X2572456D2*
X2708714D1*
X2840714D2*
X2959368D1*
X3032544D2*
X3206191D1*
X1927066Y1181508D2*
X1985681D1*
X2021714D2*
X2138714D1*
X2204714D2*
X2255714D1*
X2311603D2*
X2366724D1*
X2458590D2*
X2513648D1*
X2577166D2*
X2708714D1*
X2840714D2*
X2955212D1*
X3029652D2*
X3202363D1*
X1928332Y1178508D2*
X1984575D1*
X2021714D2*
X2138714D1*
X2204714D2*
X2255714D1*
X2310316D2*
X2365602D1*
X2459646D2*
X2514805D1*
X2582375D2*
X2708714D1*
X2840738D2*
X2950844D1*
X3026692D2*
X3198097D1*
X1930072Y1175508D2*
X1983182D1*
X2021714D2*
X2138714D1*
X2204714D2*
X2255714D1*
X2309018D2*
X2364313D1*
X2460814D2*
X2516108D1*
X2588456D2*
X2708714D1*
X2840984D2*
X2946193D1*
X3023707D2*
X3193357D1*
X1932349Y1172508D2*
X1981365D1*
X2021714D2*
X2138714D1*
X2204714D2*
X2255714D1*
X2307942D2*
X2362989D1*
X2462204D2*
X2517437D1*
X2596014D2*
X2708714D1*
X2841582D2*
X2940919D1*
X3020712D2*
X3188069D1*
X1935100Y1169508D2*
X1978851D1*
X2021714D2*
X2138714D1*
X2204714D2*
X2255714D1*
X2307233D2*
X2361780D1*
X2463860D2*
X2518647D1*
X2605334D2*
X2708714D1*
X2844300D2*
X2934653D1*
X3017714D2*
X3071714D1*
X3077899D2*
X3182150D1*
X1938405Y1166508D2*
X1975280D1*
X2021714D2*
X2138714D1*
X2204714D2*
X2255714D1*
X2306714D2*
X2360714D1*
X2465714D2*
X2519714D1*
X2615714D2*
X2708714D1*
X2850585D2*
X2927292D1*
X3014714D2*
X3068714D1*
X3084971D2*
X3174854D1*
X1942365Y1163508D2*
X1970391D1*
X2858665D2*
X2918829D1*
X3011714D2*
X3065714D1*
X3094497D2*
X3164649D1*
X1946714Y1160508D2*
X1964714D1*
X2867714D2*
X2909714D1*
X3008714D2*
X3062714D1*
X3107544D2*
X3150734D1*
X3021933Y1157508D2*
X3059714D1*
X3122714D2*
X3134714D1*
X3035714Y1154508D2*
X3056714D1*
X1662714Y2039008D2*
X1651071Y2036008D1*
X1640873Y2033008D1*
X1632454Y2030008D1*
X1626065Y2027008D1*
X1621173Y2024008D1*
X1619431Y2021008D1*
X1619641Y2018008D1*
X1620460Y2015008D1*
X1621654Y2012008D1*
X1623035Y2009008D1*
X1624488Y2006008D1*
X1625974Y2003008D1*
X1627466Y2000008D1*
X1628967Y1997008D1*
X1630464Y1994008D1*
X1631956Y1991008D1*
X1633376Y1988008D1*
X1634626Y1985008D1*
X1635714Y1982008D1*
X1695714Y2039008D2*
X1703999Y2036008D1*
X1711252Y2033008D1*
X1717038Y2030008D1*
X1721538Y2027008D1*
X1725238Y2024008D1*
X1728533Y2021008D1*
X1731637Y2018008D1*
X1734574Y2015008D1*
X1737196Y2012008D1*
X1739377Y2009008D1*
X1741215Y2006008D1*
X1742857Y2003008D1*
X1744322Y2000008D1*
X1745559Y1997008D1*
X1746623Y1994008D1*
X1747684Y1991008D1*
X1748604Y1988008D1*
X1749189Y1985008D1*
X1749490Y1982008D1*
X1749626Y1979008D1*
X1749681Y1976008D1*
X1749703Y1973008D1*
X1749710Y1970008D1*
X1749713Y1967008D1*
X1749714Y1964008D1*
Y1961008D1*
X1749703Y1958008D1*
X1749597Y1955008D1*
X1749203Y1952008D1*
X1748379Y1949008D1*
X1747216Y1946008D1*
X1745857Y1943008D1*
X1744310Y1940008D1*
X1742430Y1937008D1*
X1740007Y1934008D1*
X1736943Y1931008D1*
X1733153Y1928008D1*
X1728552Y1925008D1*
X1722998Y1922008D1*
X1716460Y1919008D1*
X1708991Y1916008D1*
X1700620Y1913008D1*
X1691839Y1910008D1*
X1683588Y1907008D1*
X1676636Y1904008D1*
X1671231Y1901008D1*
X1667388Y1898008D1*
X1664554Y1895008D1*
X1663601Y1892008D1*
X1663090Y1889008D1*
X1662872Y1886008D1*
X1662909Y1883008D1*
X1663181Y1880008D1*
X1664739Y1877008D1*
X1669493Y1874008D1*
X1677631Y1871008D1*
X1689976Y1868008D1*
X1704714Y1865008D1*
X1371714Y2033008D2*
Y2030008D1*
Y2027008D1*
Y2024008D1*
Y2021008D1*
Y2018008D1*
Y2015008D1*
Y2012008D1*
Y2009008D1*
Y2006008D1*
Y2003008D1*
Y2000008D1*
Y1997008D1*
Y1994008D1*
Y1991008D1*
Y1988008D1*
Y1985008D1*
Y1982008D1*
Y1979008D1*
Y1976008D1*
Y1973008D1*
Y1970008D1*
Y1967008D1*
Y1964008D1*
Y1961008D1*
Y1958008D1*
Y1955008D1*
Y1952008D1*
Y1949008D1*
Y1946008D1*
Y1943008D1*
Y1940008D1*
Y1937008D1*
Y1934008D1*
Y1931008D1*
Y1928008D1*
Y1925008D1*
Y1922008D1*
Y1919008D1*
Y1916008D1*
Y1913008D1*
Y1910008D1*
Y1907008D1*
Y1904008D1*
Y1901008D1*
Y1898008D1*
Y1895008D1*
Y1892008D1*
Y1889008D1*
Y1886008D1*
Y1883008D1*
Y1880008D1*
Y1877008D1*
Y1874008D1*
Y1871008D1*
Y1868008D1*
Y1865008D1*
Y1862008D1*
Y1859008D1*
Y1856008D1*
Y1853008D1*
Y1850008D1*
Y1847008D1*
Y1844008D1*
Y1841008D1*
Y1838008D1*
Y1835008D1*
Y1832008D1*
Y1829008D1*
X1425714Y2033008D2*
Y2030008D1*
Y2027008D1*
Y2024008D1*
Y2021008D1*
Y2018008D1*
Y2015008D1*
Y2012008D1*
Y2009008D1*
Y2006008D1*
Y2003008D1*
Y2000008D1*
Y1997008D1*
Y1994008D1*
Y1991008D1*
Y1988008D1*
Y1985008D1*
Y1982008D1*
Y1979008D1*
Y1976008D1*
Y1973008D1*
Y1970008D1*
Y1967008D1*
Y1964008D1*
Y1961008D1*
Y1958008D1*
Y1955008D1*
Y1952008D1*
Y1949008D1*
Y1946008D1*
Y1943008D1*
Y1940008D1*
Y1937008D1*
Y1934008D1*
Y1931008D1*
Y1928008D1*
Y1925008D1*
X1425726Y1922008D1*
X1425840Y1919008D1*
X1426304Y1916008D1*
X1427330Y1913008D1*
X1428714Y1910008D1*
X1524714Y2033008D2*
X1523099Y2030008D1*
X1520973Y2027008D1*
X1518514Y2024008D1*
X1516090Y2021008D1*
X1513887Y2018008D1*
X1511697Y2015008D1*
X1509337Y2012008D1*
X1507001Y2009008D1*
X1504848Y2006008D1*
X1502670Y2003008D1*
X1500225Y2000008D1*
X1497616Y1997008D1*
X1495129Y1994008D1*
X1492901Y1991008D1*
X1490690Y1988008D1*
X1488233Y1985008D1*
X1485619Y1982008D1*
X1483129Y1979008D1*
X1480901Y1976008D1*
X1478702Y1973008D1*
X1476338Y1970008D1*
X1474001Y1967008D1*
X1471848Y1964008D1*
X1469670Y1961008D1*
X1467225Y1958008D1*
X1464616Y1955008D1*
X1462129Y1952008D1*
X1459901Y1949008D1*
X1457702Y1946008D1*
X1455338Y1943008D1*
X1453001Y1940008D1*
X1450848Y1937008D1*
X1448670Y1934008D1*
X1446225Y1931008D1*
X1443616Y1928008D1*
X1441129Y1925008D1*
X1438889Y1922008D1*
X1436564Y1919008D1*
X1433634Y1916008D1*
X1429905Y1913008D1*
X1425714Y1910008D1*
X1578714Y2033008D2*
Y2030008D1*
Y2027008D1*
Y2024008D1*
Y2021008D1*
Y2018008D1*
Y2015008D1*
Y2012008D1*
Y2009008D1*
Y2006008D1*
Y2003008D1*
Y2000008D1*
Y1997008D1*
Y1994008D1*
Y1991008D1*
Y1988008D1*
Y1985008D1*
Y1982008D1*
Y1979008D1*
Y1976008D1*
Y1973008D1*
Y1970008D1*
Y1967008D1*
Y1964008D1*
Y1961008D1*
Y1958008D1*
Y1955008D1*
Y1952008D1*
Y1949008D1*
Y1946008D1*
Y1943008D1*
Y1940008D1*
Y1937008D1*
Y1934008D1*
Y1931008D1*
Y1928008D1*
Y1925008D1*
Y1922008D1*
Y1919008D1*
Y1916008D1*
Y1913008D1*
Y1910008D1*
Y1907008D1*
Y1904008D1*
Y1901008D1*
Y1898008D1*
Y1895008D1*
Y1892008D1*
Y1889008D1*
Y1886008D1*
Y1883008D1*
Y1880008D1*
Y1877008D1*
Y1874008D1*
Y1871008D1*
Y1868008D1*
Y1865008D1*
Y1862008D1*
Y1859008D1*
Y1856008D1*
Y1853008D1*
Y1850008D1*
Y1847008D1*
Y1844008D1*
Y1841008D1*
Y1838008D1*
Y1835008D1*
Y1832008D1*
Y1829008D1*
X1668714Y1997008D2*
X1660430Y1994008D1*
X1653176Y1991008D1*
X1647376Y1988008D1*
X1642785Y1985008D1*
X1638714Y1982008D1*
X1674714Y1997008D2*
X1680474Y1994008D1*
X1685576Y1991008D1*
X1689521Y1988008D1*
X1692265Y1985008D1*
X1694316Y1982008D1*
X1695023Y1979008D1*
X1695296Y1976008D1*
X1695234Y1973008D1*
X1693868Y1970008D1*
X1691625Y1967008D1*
X1688113Y1964008D1*
X1682888Y1961008D1*
X1675998Y1958008D1*
X1668021Y1955008D1*
X1659584Y1952008D1*
X1651361Y1949008D1*
X1644037Y1946008D1*
X1637883Y1943008D1*
X1632670Y1940008D1*
X1628203Y1937008D1*
X1624385Y1934008D1*
X1621003Y1931008D1*
X1617950Y1928008D1*
X1615370Y1925008D1*
X1613457Y1922008D1*
X1612053Y1919008D1*
X1610842Y1916008D1*
X1609860Y1913008D1*
X1609253Y1910008D1*
X1608943Y1907008D1*
X1608804Y1904008D1*
X1608748Y1901008D1*
X1608726Y1898008D1*
X1608719Y1895008D1*
X1608716Y1892008D1*
X1608715Y1889008D1*
Y1886008D1*
X1608726Y1883008D1*
X1608832Y1880008D1*
X1609214Y1877008D1*
X1609944Y1874008D1*
X1610819Y1871008D1*
X1611724Y1868008D1*
X1612733Y1865008D1*
X1613746Y1862008D1*
X1614822Y1859008D1*
X1616327Y1856008D1*
X1618355Y1853008D1*
X1620643Y1850008D1*
X1623117Y1847008D1*
X1626002Y1844008D1*
X1629336Y1841008D1*
X1633082Y1838008D1*
X1637576Y1835008D1*
X1643250Y1832008D1*
X1650462Y1829008D1*
X1659200Y1826008D1*
X1668714Y1823008D1*
X1299714Y1979008D2*
X1293945Y1976008D1*
X1289233Y1973008D1*
X1285478Y1970008D1*
X1282580Y1967008D1*
X1280535Y1964008D1*
X1279081Y1961008D1*
X1277852Y1958008D1*
X1276864Y1955008D1*
X1276254Y1952008D1*
X1275955Y1949008D1*
X1275922Y1946008D1*
X1276247Y1943008D1*
X1276956Y1940008D1*
X1277835Y1937008D1*
X1278855Y1934008D1*
X1280350Y1931008D1*
X1282476Y1928008D1*
X1285153Y1925008D1*
X1288425Y1922008D1*
X1292372Y1919008D1*
X1296714Y1916008D1*
X1314714Y1979008D2*
X1320113Y1976008D1*
X1324762Y1973008D1*
X1328373Y1970008D1*
X1331024Y1967008D1*
X1332978Y1964008D1*
X1334426Y1961008D1*
X1335575Y1958008D1*
X1336667Y1955008D1*
X1337587Y1952008D1*
X1338070Y1949008D1*
X1337990Y1946008D1*
X1337396Y1943008D1*
X1336577Y1940008D1*
X1335681Y1937008D1*
X1334575Y1934008D1*
X1333170Y1931008D1*
X1331260Y1928008D1*
X1328476Y1925008D1*
X1324624Y1922008D1*
X1319868Y1919008D1*
X1314714Y1916008D1*
X1524714Y1955008D2*
X1521829Y1952008D1*
X1519213Y1949008D1*
X1516932Y1946008D1*
X1514702Y1943008D1*
X1512237Y1940008D1*
X1509620Y1937008D1*
X1507130Y1934008D1*
X1504901Y1931008D1*
X1502702Y1928008D1*
X1500338Y1925008D1*
X1498001Y1922008D1*
X1495848Y1919008D1*
X1493670Y1916008D1*
X1491225Y1913008D1*
X1488616Y1910008D1*
X1486129Y1907008D1*
X1483901Y1904008D1*
X1481702Y1901008D1*
X1479338Y1898008D1*
X1477001Y1895008D1*
X1474848Y1892008D1*
X1472670Y1889008D1*
X1470225Y1886008D1*
X1467616Y1883008D1*
X1465129Y1880008D1*
X1462901Y1877008D1*
X1460702Y1874008D1*
X1458338Y1871008D1*
X1456001Y1868008D1*
X1453848Y1865008D1*
X1451670Y1862008D1*
X1449225Y1859008D1*
X1446616Y1856008D1*
X1444129Y1853008D1*
X1441901Y1850008D1*
X1439702Y1847008D1*
X1437338Y1844008D1*
X1435001Y1841008D1*
X1432848Y1838008D1*
X1430678Y1835008D1*
X1428268Y1832008D1*
X1425714Y1829008D1*
X1527714Y1955008D2*
Y1952008D1*
Y1949008D1*
Y1946008D1*
Y1943008D1*
Y1940008D1*
Y1937008D1*
Y1934008D1*
Y1931008D1*
Y1928008D1*
Y1925008D1*
Y1922008D1*
Y1919008D1*
Y1916008D1*
Y1913008D1*
Y1910008D1*
Y1907008D1*
Y1904008D1*
Y1901008D1*
Y1898008D1*
Y1895008D1*
Y1892008D1*
Y1889008D1*
Y1886008D1*
Y1883008D1*
Y1880008D1*
Y1877008D1*
Y1874008D1*
Y1871008D1*
Y1868008D1*
Y1865008D1*
Y1862008D1*
Y1859008D1*
Y1856008D1*
Y1853008D1*
Y1850008D1*
Y1847008D1*
Y1844008D1*
Y1841008D1*
Y1838008D1*
Y1835008D1*
Y1832008D1*
Y1829008D1*
X1305714Y1886008D2*
X1298108Y1883008D1*
X1291885Y1880008D1*
X1287194Y1877008D1*
X1283913Y1874008D1*
X1281562Y1871008D1*
X1279705Y1868008D1*
X1278167Y1865008D1*
X1277004Y1862008D1*
X1276311Y1859008D1*
X1275965Y1856008D1*
X1275824Y1853008D1*
X1275868Y1850008D1*
X1276238Y1847008D1*
X1277066Y1844008D1*
X1278332Y1841008D1*
X1280072Y1838008D1*
X1282349Y1835008D1*
X1285100Y1832008D1*
X1288405Y1829008D1*
X1292365Y1826008D1*
X1296714Y1823008D1*
X1308714Y1886008D2*
X1315869Y1883008D1*
X1321454Y1880008D1*
X1325750Y1877008D1*
X1329213Y1874008D1*
X1331960Y1871008D1*
X1333936Y1868008D1*
X1335364Y1865008D1*
X1336583Y1862008D1*
X1337555Y1859008D1*
X1338059Y1856008D1*
X1337986Y1853008D1*
X1337395Y1850008D1*
X1336577Y1847008D1*
X1335681Y1844008D1*
X1334575Y1841008D1*
X1333182Y1838008D1*
X1331365Y1835008D1*
X1328851Y1832008D1*
X1325280Y1829008D1*
X1320391Y1826008D1*
X1314714Y1823008D1*
X1734714Y1886008D2*
X1730563Y1883008D1*
X1726145Y1880008D1*
X1721065Y1877008D1*
X1714215Y1874008D1*
X1703839Y1871008D1*
X1689038Y1868008D1*
X1671714Y1865008D1*
X1737714Y1886008D2*
X1738854Y1883008D1*
X1740143Y1880008D1*
X1741537Y1877008D1*
X1742994Y1874008D1*
X1744485Y1871008D1*
X1746075Y1868008D1*
X1747858Y1865008D1*
X1749790Y1862008D1*
X1751627Y1859008D1*
X1753322Y1856008D1*
X1754992Y1853008D1*
X1756781Y1850008D1*
X1758714Y1847008D1*
X1755125Y1844008D1*
X1750879Y1841008D1*
X1745872Y1838008D1*
X1740219Y1835008D1*
X1733702Y1832008D1*
X1725652Y1829008D1*
X1715714Y1826008D1*
X1704714Y1823008D1*
X2670714Y2039008D2*
X2662197Y2036008D1*
X2655477Y2033008D1*
X2650283Y2030008D1*
X2648125Y2027008D1*
X2647368Y2024008D1*
X2646981Y2021008D1*
X2646815Y2018008D1*
X2646750Y2015008D1*
X2646727Y2012008D1*
X2646719Y2009008D1*
X2646716Y2006008D1*
X2646715Y2003008D1*
Y2000008D1*
X2646714Y1997008D1*
Y1994008D1*
Y1991008D1*
Y1988008D1*
Y1985008D1*
Y1982008D1*
Y1979008D1*
Y1976008D1*
Y1973008D1*
X2718714Y2039008D2*
X2727125Y2036008D1*
X2734868Y2033008D1*
X2741755Y2030008D1*
X2747755Y2027008D1*
X2752853Y2024008D1*
X2757332Y2021008D1*
X2761571Y2018008D1*
X2765563Y2015008D1*
X2769163Y2012008D1*
X2772368Y2009008D1*
X2775125Y2006008D1*
X2777463Y2003008D1*
X2779704Y2000008D1*
X2782083Y1997008D1*
X2784413Y1994008D1*
X2786463Y1991008D1*
X2788247Y1988008D1*
X2789880Y1985008D1*
X2791431Y1982008D1*
X2792943Y1979008D1*
X2794354Y1976008D1*
X2795570Y1973008D1*
X2796627Y1970008D1*
X2797697Y1967008D1*
X2798722Y1964008D1*
X2799689Y1961008D1*
X2800708Y1958008D1*
X2801613Y1955008D1*
X2802192Y1952008D1*
X2802491Y1949008D1*
X2802626Y1946008D1*
X2802682Y1943008D1*
X2802703Y1940008D1*
X2802710Y1937008D1*
X2802713Y1934008D1*
X2802714Y1931008D1*
Y1928008D1*
Y1925008D1*
Y1922008D1*
Y1919008D1*
X2802703Y1916008D1*
X2802597Y1913008D1*
X2802215Y1910008D1*
X2801496Y1907008D1*
X2800716Y1904008D1*
X2800087Y1901008D1*
X2799415Y1898008D1*
X2798463Y1895008D1*
X2797259Y1892008D1*
X2795986Y1889008D1*
X2794814Y1886008D1*
X2793673Y1883008D1*
X2792228Y1880008D1*
X2790476Y1877008D1*
X2788636Y1874008D1*
X2786699Y1871008D1*
X2784680Y1868008D1*
X2782705Y1865008D1*
X2780612Y1862008D1*
X2778192Y1859008D1*
X2775480Y1856008D1*
X2772509Y1853008D1*
X2769170Y1850008D1*
X2765368Y1847008D1*
X2761212Y1844008D1*
X2756844Y1841008D1*
X2752193Y1838008D1*
X2746919Y1835008D1*
X2740653Y1832008D1*
X2733292Y1829008D1*
X2724829Y1826008D1*
X2715714Y1823008D1*
X2916714Y2039008D2*
X2905432Y2036008D1*
X2895675Y2033008D1*
X2887473Y2030008D1*
X2880654Y2027008D1*
X2874927Y2024008D1*
X2869864Y2021008D1*
X2865231Y2018008D1*
X2861028Y2015008D1*
X2857320Y2012008D1*
X2853968Y2009008D1*
X2850825Y2006008D1*
X2847868Y2003008D1*
X2845227Y2000008D1*
X2842949Y1997008D1*
X2840820Y1994008D1*
X2838737Y1991008D1*
X2836838Y1988008D1*
X2835129Y1985008D1*
X2833540Y1982008D1*
X2832096Y1979008D1*
X2830866Y1976008D1*
X2829804Y1973008D1*
X2828733Y1970008D1*
X2827707Y1967008D1*
X2826740Y1964008D1*
X2825721Y1961008D1*
X2824816Y1958008D1*
X2824237Y1955008D1*
X2823938Y1952008D1*
X2823803Y1949008D1*
X2823736Y1946008D1*
X2823609Y1943008D1*
X2823219Y1940008D1*
X2822498Y1937008D1*
X2821739Y1934008D1*
X2821321Y1931008D1*
X2821425Y1928008D1*
X2822017Y1925008D1*
X2822733Y1922008D1*
X2823236Y1919008D1*
X2823507Y1916008D1*
X2823643Y1913008D1*
X2823801Y1910008D1*
X2824203Y1907008D1*
X2824940Y1904008D1*
X2825818Y1901008D1*
X2826724Y1898008D1*
X2827733Y1895008D1*
X2828735Y1892008D1*
X2829705Y1889008D1*
X2830827Y1886008D1*
X2832125Y1883008D1*
X2833539Y1880008D1*
X2835095Y1877008D1*
X2836866Y1874008D1*
X2838804Y1871008D1*
X2840733Y1868008D1*
X2842684Y1865008D1*
X2844483Y1862008D1*
X2845897Y1859008D1*
X2845577Y1856008D1*
X2843683Y1853008D1*
X2841278Y1850008D1*
X2838544Y1847008D1*
X2835652Y1844008D1*
X2832692Y1841008D1*
X2829707Y1838008D1*
X2826712Y1835008D1*
X2823714Y1832008D1*
X2820714Y1829008D1*
X2817714Y1826008D1*
X2814714Y1823008D1*
X2827933Y1820008D1*
X2841714Y1817008D1*
X2955714Y2039008D2*
X2965962Y2036008D1*
X2975216Y2033008D1*
X2983051Y2030008D1*
X2989527Y2027008D1*
X2995208Y2024008D1*
X3000427Y2021008D1*
X3005025Y2018008D1*
X3008946Y2015008D1*
X3012396Y2012008D1*
X3015591Y2009008D1*
X3018669Y2006008D1*
X3021698Y2003008D1*
X3024697Y2000008D1*
X3027595Y1997008D1*
X3030214Y1994008D1*
X3032485Y1991008D1*
X3034610Y1988008D1*
X3036693Y1985008D1*
X3038579Y1982008D1*
X3040195Y1979008D1*
X3041506Y1976008D1*
X3042603Y1973008D1*
X3043688Y1970008D1*
X3044719Y1967008D1*
X3045688Y1964008D1*
X3046708Y1961008D1*
X3047613Y1958008D1*
X3048192Y1955008D1*
X3048491Y1952008D1*
X3048626Y1949008D1*
X3048682Y1946008D1*
X3048703Y1943008D1*
X3048710Y1940008D1*
X3048713Y1937008D1*
X3048714Y1934008D1*
Y1931008D1*
Y1928008D1*
Y1925008D1*
Y1922008D1*
Y1919008D1*
X3048703Y1916008D1*
X3048597Y1913008D1*
X3048215Y1910008D1*
X3047485Y1907008D1*
X3046610Y1904008D1*
X3045705Y1901008D1*
X3044696Y1898008D1*
X3043694Y1895008D1*
X3042724Y1892008D1*
X3041602Y1889008D1*
X3040304Y1886008D1*
X3038902Y1883008D1*
X3037439Y1880008D1*
X3035945Y1877008D1*
X3034355Y1874008D1*
X3032571Y1871008D1*
X3030627Y1868008D1*
X3028685Y1865008D1*
X3026605Y1862008D1*
X3024189Y1859008D1*
X3021490Y1856008D1*
X3018614Y1853008D1*
X3015564Y1850008D1*
X3012191Y1847008D1*
X3008363Y1844008D1*
X3004097Y1841008D1*
X2999357Y1838008D1*
X2994069Y1835008D1*
X2988150Y1832008D1*
X2980854Y1829008D1*
X2970649Y1826008D1*
X2956734Y1823008D1*
X2940714Y1820008D1*
X2688714Y1991008D2*
X2679955Y1988008D1*
X2671853Y1985008D1*
X2664905Y1982008D1*
X2659130Y1979008D1*
X2654211Y1976008D1*
X2649714Y1973008D1*
X2694714Y1991008D2*
X2705409Y1988008D1*
X2714417Y1985008D1*
X2721207Y1982008D1*
X2726195Y1979008D1*
X2730094Y1976008D1*
X2733368Y1973008D1*
X2736132Y1970008D1*
X2738456Y1967008D1*
X2740589Y1964008D1*
X2742584Y1961008D1*
X2744196Y1958008D1*
X2745464Y1955008D1*
X2746620Y1952008D1*
X2747580Y1949008D1*
X2748180Y1946008D1*
X2748487Y1943008D1*
X2748625Y1940008D1*
X2748681Y1937008D1*
X2748703Y1934008D1*
X2748710Y1931008D1*
X2748713Y1928008D1*
X2748714Y1925008D1*
X2748703Y1922008D1*
X2748597Y1919008D1*
X2748215Y1916008D1*
X2747485Y1913008D1*
X2746598Y1910008D1*
X2745587Y1907008D1*
X2744197Y1904008D1*
X2742464Y1901008D1*
X2740620Y1898008D1*
X2738580Y1895008D1*
X2736168Y1892008D1*
X2733358Y1889008D1*
X2729961Y1886008D1*
X2725401Y1883008D1*
X2718482Y1880008D1*
X2707504Y1877008D1*
X2691868Y1874008D1*
X2673714Y1871008D1*
X2934714Y1991008D2*
X2924020Y1988008D1*
X2915001Y1985008D1*
X2908116Y1982008D1*
X2902852Y1979008D1*
X2898605Y1976008D1*
X2895175Y1973008D1*
X2892286Y1970008D1*
X2889582Y1967008D1*
X2887108Y1964008D1*
X2885000Y1961008D1*
X2883194Y1958008D1*
X2881565Y1955008D1*
X2880116Y1952008D1*
X2878975Y1949008D1*
X2878188Y1946008D1*
X2877464Y1943008D1*
X2876594Y1940008D1*
X2875763Y1937008D1*
X2875228Y1934008D1*
X2875047Y1931008D1*
X2875300Y1928008D1*
X2875964Y1925008D1*
X2876725Y1922008D1*
X2877346Y1919008D1*
X2878016Y1916008D1*
X2878989Y1913008D1*
X2880424Y1910008D1*
X2882641Y1907008D1*
X2885886Y1904008D1*
X2889714Y1901008D1*
X2937714Y1991008D2*
X2948421Y1988008D1*
X2957534Y1985008D1*
X2964707Y1982008D1*
X2970413Y1979008D1*
X2975081Y1976008D1*
X2978878Y1973008D1*
X2981921Y1970008D1*
X2984372Y1967008D1*
X2986557Y1964008D1*
X2988573Y1961008D1*
X2990192Y1958008D1*
X2991463Y1955008D1*
X2992619Y1952008D1*
X2993580Y1949008D1*
X2994180Y1946008D1*
X2994487Y1943008D1*
X2994625Y1940008D1*
X2994681Y1937008D1*
X2994703Y1934008D1*
X2994710Y1931008D1*
X2994713Y1928008D1*
X2994702Y1925008D1*
X2994597Y1922008D1*
X2994203Y1919008D1*
X2993379Y1916008D1*
X2992216Y1913008D1*
X2990869Y1910008D1*
X2989427Y1907008D1*
X2987941Y1904008D1*
X2986342Y1901008D1*
X2984453Y1898008D1*
X2982116Y1895008D1*
X2979350Y1892008D1*
X2976095Y1889008D1*
X2972191Y1886008D1*
X2967282Y1883008D1*
X2960376Y1880008D1*
X2950069Y1877008D1*
X2935943Y1874008D1*
X2919714Y1871008D1*
X2574714Y1979008D2*
X2568945Y1976008D1*
X2564233Y1973008D1*
X2560478Y1970008D1*
X2557580Y1967008D1*
X2555535Y1964008D1*
X2554081Y1961008D1*
X2552852Y1958008D1*
X2551864Y1955008D1*
X2551254Y1952008D1*
X2550955Y1949008D1*
X2550922Y1946008D1*
X2551247Y1943008D1*
X2551956Y1940008D1*
X2552835Y1937008D1*
X2553855Y1934008D1*
X2555350Y1931008D1*
X2557476Y1928008D1*
X2560153Y1925008D1*
X2563425Y1922008D1*
X2567372Y1919008D1*
X2571714Y1916008D1*
X2589714Y1979008D2*
X2595113Y1976008D1*
X2599762Y1973008D1*
X2603373Y1970008D1*
X2606024Y1967008D1*
X2607978Y1964008D1*
X2609426Y1961008D1*
X2610575Y1958008D1*
X2611667Y1955008D1*
X2612587Y1952008D1*
X2613070Y1949008D1*
X2612990Y1946008D1*
X2612396Y1943008D1*
X2611577Y1940008D1*
X2610681Y1937008D1*
X2609575Y1934008D1*
X2608170Y1931008D1*
X2606260Y1928008D1*
X2603476Y1925008D1*
X2599624Y1922008D1*
X2594868Y1919008D1*
X2589714Y1916008D1*
X2898714Y1913008D2*
X2895591Y1910008D1*
X2892126Y1907008D1*
X2888099Y1904008D1*
X2883714Y1901008D1*
X2922714Y1913008D2*
X2936871Y1910008D1*
X2949714Y1907008D1*
X2946714Y1904008D1*
X2943714Y1901008D1*
X2940714Y1898008D1*
X2937714Y1895008D1*
X2934714Y1892008D1*
X2931714Y1889008D1*
X2928714Y1886008D1*
X2925714Y1883008D1*
X2922714Y1880008D1*
X2919714Y1877008D1*
X2934339Y1874008D1*
X2949714Y1871008D1*
X2646714Y1889008D2*
Y1886008D1*
Y1883008D1*
Y1880008D1*
Y1877008D1*
Y1874008D1*
Y1871008D1*
Y1868008D1*
Y1865008D1*
Y1862008D1*
Y1859008D1*
Y1856008D1*
Y1853008D1*
Y1850008D1*
Y1847008D1*
Y1844008D1*
X2646738Y1841008D1*
X2646984Y1838008D1*
X2647582Y1835008D1*
X2650300Y1832008D1*
X2656585Y1829008D1*
X2664665Y1826008D1*
X2673714Y1823008D1*
X2649714Y1889008D2*
X2654724Y1886008D1*
X2660230Y1883008D1*
X2667614Y1880008D1*
X2678796Y1877008D1*
X2694516Y1874008D1*
X2712714Y1871008D1*
X2580714Y1886008D2*
X2573108Y1883008D1*
X2566885Y1880008D1*
X2562194Y1877008D1*
X2558913Y1874008D1*
X2556562Y1871008D1*
X2554705Y1868008D1*
X2553167Y1865008D1*
X2552004Y1862008D1*
X2551311Y1859008D1*
X2550965Y1856008D1*
X2550824Y1853008D1*
X2550868Y1850008D1*
X2551238Y1847008D1*
X2552066Y1844008D1*
X2553332Y1841008D1*
X2555072Y1838008D1*
X2557349Y1835008D1*
X2560100Y1832008D1*
X2563405Y1829008D1*
X2567365Y1826008D1*
X2571714Y1823008D1*
X2583714Y1886008D2*
X2590869Y1883008D1*
X2596454Y1880008D1*
X2600750Y1877008D1*
X2604213Y1874008D1*
X2606960Y1871008D1*
X2608936Y1868008D1*
X2610364Y1865008D1*
X2611583Y1862008D1*
X2612555Y1859008D1*
X2613059Y1856008D1*
X2612986Y1853008D1*
X2612395Y1850008D1*
X2611577Y1847008D1*
X2610681Y1844008D1*
X2609575Y1841008D1*
X2608182Y1838008D1*
X2606365Y1835008D1*
X2603851Y1832008D1*
X2600280Y1829008D1*
X2595391Y1826008D1*
X2589714Y1823008D1*
X2880714Y1835008D2*
X2877714Y1832008D1*
X2874714Y1829008D1*
X2871714Y1826008D1*
X2868714Y1823008D1*
X2865714Y1820008D1*
X2862714Y1817008D1*
X2877714Y1835008D2*
X2883899Y1832008D1*
X2890971Y1829008D1*
X2900497Y1826008D1*
X2913544Y1823008D1*
X2928714Y1820008D1*
X2864714Y1376508D2*
X2856197Y1373508D1*
X2849477Y1370508D1*
X2844283Y1367508D1*
X2842125Y1364508D1*
X2841368Y1361508D1*
X2840981Y1358508D1*
X2840815Y1355508D1*
X2840750Y1352508D1*
X2840727Y1349508D1*
X2840719Y1346508D1*
X2840716Y1343508D1*
X2840715Y1340508D1*
Y1337508D1*
X2840714Y1334508D1*
Y1331508D1*
Y1328508D1*
Y1325508D1*
Y1322508D1*
Y1319508D1*
Y1316508D1*
Y1313508D1*
Y1310508D1*
X2912714Y1376508D2*
X2921125Y1373508D1*
X2928868Y1370508D1*
X2935755Y1367508D1*
X2941755Y1364508D1*
X2946853Y1361508D1*
X2951332Y1358508D1*
X2955571Y1355508D1*
X2959563Y1352508D1*
X2963163Y1349508D1*
X2966368Y1346508D1*
X2969125Y1343508D1*
X2971463Y1340508D1*
X2973704Y1337508D1*
X2976083Y1334508D1*
X2978413Y1331508D1*
X2980463Y1328508D1*
X2982247Y1325508D1*
X2983880Y1322508D1*
X2985431Y1319508D1*
X2986943Y1316508D1*
X2988354Y1313508D1*
X2989570Y1310508D1*
X2990627Y1307508D1*
X2991697Y1304508D1*
X2992722Y1301508D1*
X2993689Y1298508D1*
X2994708Y1295508D1*
X2995613Y1292508D1*
X2996192Y1289508D1*
X2996491Y1286508D1*
X2996626Y1283508D1*
X2996682Y1280508D1*
X2996703Y1277508D1*
X2996710Y1274508D1*
X2996713Y1271508D1*
X2996714Y1268508D1*
Y1265508D1*
Y1262508D1*
Y1259508D1*
Y1256508D1*
X2996703Y1253508D1*
X2996597Y1250508D1*
X2996215Y1247508D1*
X2995496Y1244508D1*
X2994716Y1241508D1*
X2994087Y1238508D1*
X2993415Y1235508D1*
X2992463Y1232508D1*
X2991259Y1229508D1*
X2989986Y1226508D1*
X2988814Y1223508D1*
X2987673Y1220508D1*
X2986228Y1217508D1*
X2984476Y1214508D1*
X2982636Y1211508D1*
X2980699Y1208508D1*
X2978680Y1205508D1*
X2976705Y1202508D1*
X2974612Y1199508D1*
X2972192Y1196508D1*
X2969480Y1193508D1*
X2966509Y1190508D1*
X2963170Y1187508D1*
X2959368Y1184508D1*
X2955212Y1181508D1*
X2950844Y1178508D1*
X2946193Y1175508D1*
X2940919Y1172508D1*
X2934653Y1169508D1*
X2927292Y1166508D1*
X2918829Y1163508D1*
X2909714Y1160508D1*
X3110714Y1376508D2*
X3099432Y1373508D1*
X3089675Y1370508D1*
X3081473Y1367508D1*
X3074654Y1364508D1*
X3068927Y1361508D1*
X3063864Y1358508D1*
X3059231Y1355508D1*
X3055028Y1352508D1*
X3051320Y1349508D1*
X3047968Y1346508D1*
X3044825Y1343508D1*
X3041868Y1340508D1*
X3039227Y1337508D1*
X3036949Y1334508D1*
X3034820Y1331508D1*
X3032737Y1328508D1*
X3030838Y1325508D1*
X3029129Y1322508D1*
X3027540Y1319508D1*
X3026096Y1316508D1*
X3024866Y1313508D1*
X3023804Y1310508D1*
X3022733Y1307508D1*
X3021707Y1304508D1*
X3020740Y1301508D1*
X3019721Y1298508D1*
X3018816Y1295508D1*
X3018237Y1292508D1*
X3017938Y1289508D1*
X3017803Y1286508D1*
X3017736Y1283508D1*
X3017609Y1280508D1*
X3017219Y1277508D1*
X3016498Y1274508D1*
X3015739Y1271508D1*
X3015321Y1268508D1*
X3015425Y1265508D1*
X3016017Y1262508D1*
X3016733Y1259508D1*
X3017236Y1256508D1*
X3017507Y1253508D1*
X3017643Y1250508D1*
X3017801Y1247508D1*
X3018203Y1244508D1*
X3018940Y1241508D1*
X3019818Y1238508D1*
X3020724Y1235508D1*
X3021733Y1232508D1*
X3022735Y1229508D1*
X3023705Y1226508D1*
X3024827Y1223508D1*
X3026125Y1220508D1*
X3027539Y1217508D1*
X3029095Y1214508D1*
X3030866Y1211508D1*
X3032804Y1208508D1*
X3034733Y1205508D1*
X3036684Y1202508D1*
X3038483Y1199508D1*
X3039897Y1196508D1*
X3039577Y1193508D1*
X3037683Y1190508D1*
X3035278Y1187508D1*
X3032544Y1184508D1*
X3029652Y1181508D1*
X3026692Y1178508D1*
X3023707Y1175508D1*
X3020712Y1172508D1*
X3017714Y1169508D1*
X3014714Y1166508D1*
X3011714Y1163508D1*
X3008714Y1160508D1*
X3021933Y1157508D1*
X3035714Y1154508D1*
X3149714Y1376508D2*
X3159962Y1373508D1*
X3169216Y1370508D1*
X3177051Y1367508D1*
X3183527Y1364508D1*
X3189208Y1361508D1*
X3194427Y1358508D1*
X3199025Y1355508D1*
X3202946Y1352508D1*
X3206396Y1349508D1*
X3209591Y1346508D1*
X3212669Y1343508D1*
X3215698Y1340508D1*
X3218697Y1337508D1*
X3221595Y1334508D1*
X3224214Y1331508D1*
X3226485Y1328508D1*
X3228610Y1325508D1*
X3230693Y1322508D1*
X3232579Y1319508D1*
X3234195Y1316508D1*
X3235506Y1313508D1*
X3236603Y1310508D1*
X3237688Y1307508D1*
X3238719Y1304508D1*
X3239688Y1301508D1*
X3240708Y1298508D1*
X3241613Y1295508D1*
X3242192Y1292508D1*
X3242491Y1289508D1*
X3242626Y1286508D1*
X3242682Y1283508D1*
X3242703Y1280508D1*
X3242710Y1277508D1*
X3242713Y1274508D1*
X3242714Y1271508D1*
Y1268508D1*
Y1265508D1*
Y1262508D1*
Y1259508D1*
Y1256508D1*
X3242703Y1253508D1*
X3242597Y1250508D1*
X3242215Y1247508D1*
X3241485Y1244508D1*
X3240610Y1241508D1*
X3239705Y1238508D1*
X3238696Y1235508D1*
X3237694Y1232508D1*
X3236724Y1229508D1*
X3235602Y1226508D1*
X3234304Y1223508D1*
X3232902Y1220508D1*
X3231439Y1217508D1*
X3229945Y1214508D1*
X3228355Y1211508D1*
X3226571Y1208508D1*
X3224627Y1205508D1*
X3222685Y1202508D1*
X3220605Y1199508D1*
X3218189Y1196508D1*
X3215490Y1193508D1*
X3212614Y1190508D1*
X3209564Y1187508D1*
X3206191Y1184508D1*
X3202363Y1181508D1*
X3198097Y1178508D1*
X3193357Y1175508D1*
X3188069Y1172508D1*
X3182150Y1169508D1*
X3174854Y1166508D1*
X3164649Y1163508D1*
X3150734Y1160508D1*
X3134714Y1157508D1*
X2021714Y1370508D2*
Y1367508D1*
Y1364508D1*
Y1361508D1*
Y1358508D1*
Y1355508D1*
Y1352508D1*
Y1349508D1*
Y1346508D1*
Y1343508D1*
Y1340508D1*
Y1337508D1*
Y1334508D1*
Y1331508D1*
Y1328508D1*
X2138714Y1370508D2*
Y1367508D1*
Y1364508D1*
Y1361508D1*
Y1358508D1*
Y1355508D1*
Y1352508D1*
Y1349508D1*
Y1346508D1*
Y1343508D1*
Y1340508D1*
Y1337508D1*
Y1334508D1*
Y1331508D1*
Y1328508D1*
Y1325508D1*
Y1322508D1*
Y1319508D1*
Y1316508D1*
Y1313508D1*
Y1310508D1*
Y1307508D1*
Y1304508D1*
Y1301508D1*
Y1298508D1*
Y1295508D1*
Y1292508D1*
Y1289508D1*
Y1286508D1*
Y1283508D1*
Y1280508D1*
Y1277508D1*
Y1274508D1*
Y1271508D1*
Y1268508D1*
Y1265508D1*
Y1262508D1*
Y1259508D1*
Y1256508D1*
Y1253508D1*
Y1250508D1*
Y1247508D1*
Y1244508D1*
Y1241508D1*
Y1238508D1*
Y1235508D1*
Y1232508D1*
Y1229508D1*
Y1226508D1*
Y1223508D1*
Y1220508D1*
Y1217508D1*
Y1214508D1*
Y1211508D1*
Y1208508D1*
Y1205508D1*
Y1202508D1*
Y1199508D1*
Y1196508D1*
Y1193508D1*
Y1190508D1*
Y1187508D1*
Y1184508D1*
Y1181508D1*
Y1178508D1*
Y1175508D1*
Y1172508D1*
Y1169508D1*
Y1166508D1*
X2159714Y1370508D2*
Y1367508D1*
Y1364508D1*
Y1361508D1*
Y1358508D1*
Y1355508D1*
Y1352508D1*
Y1349508D1*
Y1346508D1*
Y1343508D1*
Y1340508D1*
Y1337508D1*
Y1334508D1*
Y1331508D1*
Y1328508D1*
X2300714Y1370508D2*
Y1367508D1*
Y1364508D1*
Y1361508D1*
Y1358508D1*
Y1355508D1*
Y1352508D1*
Y1349508D1*
Y1346508D1*
Y1343508D1*
Y1340508D1*
Y1337508D1*
Y1334508D1*
Y1331508D1*
Y1328508D1*
X2381714Y1370508D2*
X2381251Y1367508D1*
X2380495Y1364508D1*
X2379613Y1361508D1*
X2378694Y1358508D1*
X2377591Y1355508D1*
X2376312Y1352508D1*
X2375006Y1349508D1*
X2373833Y1346508D1*
X2372781Y1343508D1*
X2371623Y1340508D1*
X2370324Y1337508D1*
X2369010Y1334508D1*
X2367834Y1331508D1*
X2366793Y1328508D1*
X2365729Y1325508D1*
X2364706Y1322508D1*
X2363728Y1319508D1*
X2362603Y1316508D1*
X2361316Y1313508D1*
X2360007Y1310508D1*
X2358833Y1307508D1*
X2357793Y1304508D1*
X2356729Y1301508D1*
X2355706Y1298508D1*
X2354728Y1295508D1*
X2353603Y1292508D1*
X2352316Y1289508D1*
X2351007Y1286508D1*
X2349833Y1283508D1*
X2348793Y1280508D1*
X2347729Y1277508D1*
X2346706Y1274508D1*
X2345728Y1271508D1*
X2344603Y1268508D1*
X2343316Y1265508D1*
X2342007Y1262508D1*
X2340833Y1259508D1*
X2339781Y1256508D1*
X2338623Y1253508D1*
X2337324Y1250508D1*
X2336010Y1247508D1*
X2334834Y1244508D1*
X2333793Y1241508D1*
X2332729Y1238508D1*
X2331706Y1235508D1*
X2330728Y1232508D1*
X2329603Y1229508D1*
X2328316Y1226508D1*
X2327007Y1223508D1*
X2325833Y1220508D1*
X2324793Y1217508D1*
X2323729Y1214508D1*
X2322706Y1211508D1*
X2321728Y1208508D1*
X2320603Y1205508D1*
X2319316Y1202508D1*
X2318007Y1199508D1*
X2316833Y1196508D1*
X2315793Y1193508D1*
X2314729Y1190508D1*
X2313706Y1187508D1*
X2312728Y1184508D1*
X2311603Y1181508D1*
X2310316Y1178508D1*
X2309018Y1175508D1*
X2307942Y1172508D1*
X2307233Y1169508D1*
X2306714Y1166508D1*
X2441714Y1370508D2*
X2442190Y1367508D1*
X2443039Y1364508D1*
X2444198Y1361508D1*
X2445454Y1358508D1*
X2446607Y1355508D1*
X2447640Y1352508D1*
X2448701Y1349508D1*
X2449723Y1346508D1*
X2450701Y1343508D1*
X2451826Y1340508D1*
X2453113Y1337508D1*
X2454422Y1334508D1*
X2455596Y1331508D1*
X2456648Y1328508D1*
X2457805Y1325508D1*
X2459105Y1322508D1*
X2460419Y1319508D1*
X2461595Y1316508D1*
X2462648Y1313508D1*
X2463805Y1310508D1*
X2465105Y1307508D1*
X2466419Y1304508D1*
X2467595Y1301508D1*
X2468636Y1298508D1*
X2469700Y1295508D1*
X2470723Y1292508D1*
X2471701Y1289508D1*
X2472826Y1286508D1*
X2474113Y1283508D1*
X2475422Y1280508D1*
X2476596Y1277508D1*
X2477648Y1274508D1*
X2478805Y1271508D1*
X2480105Y1268508D1*
X2481419Y1265508D1*
X2482595Y1262508D1*
X2483636Y1259508D1*
X2484700Y1256508D1*
X2485723Y1253508D1*
X2486701Y1250508D1*
X2487826Y1247508D1*
X2489113Y1244508D1*
X2490422Y1241508D1*
X2491596Y1238508D1*
X2492648Y1235508D1*
X2493805Y1232508D1*
X2495105Y1229508D1*
X2496419Y1226508D1*
X2497595Y1223508D1*
X2498648Y1220508D1*
X2499805Y1217508D1*
X2501105Y1214508D1*
X2502419Y1211508D1*
X2503595Y1208508D1*
X2504636Y1205508D1*
X2505700Y1202508D1*
X2506723Y1199508D1*
X2507701Y1196508D1*
X2508826Y1193508D1*
X2510113Y1190508D1*
X2511422Y1187508D1*
X2512596Y1184508D1*
X2513648Y1181508D1*
X2514805Y1178508D1*
X2516108Y1175508D1*
X2517437Y1172508D1*
X2518647Y1169508D1*
X2519714Y1166508D1*
X2615714Y1370508D2*
X2605919Y1367508D1*
X2597315Y1364508D1*
X2589980Y1361508D1*
X2583693Y1358508D1*
X2578240Y1355508D1*
X2573395Y1352508D1*
X2569094Y1349508D1*
X2565344Y1346508D1*
X2561977Y1343508D1*
X2558816Y1340508D1*
X2555764Y1337508D1*
X2552845Y1334508D1*
X2550218Y1331508D1*
X2547946Y1328508D1*
X2545819Y1325508D1*
X2543736Y1322508D1*
X2541838Y1319508D1*
X2540129Y1316508D1*
X2538540Y1313508D1*
X2537096Y1310508D1*
X2535866Y1307508D1*
X2534804Y1304508D1*
X2533745Y1301508D1*
X2532813Y1298508D1*
X2532123Y1295508D1*
X2531439Y1292508D1*
X2530585Y1289508D1*
X2529760Y1286508D1*
X2529216Y1283508D1*
X2528930Y1280508D1*
X2528800Y1277508D1*
X2528746Y1274508D1*
X2528726Y1271508D1*
X2528718Y1268508D1*
X2528716Y1265508D1*
X2528715Y1262508D1*
X2528726Y1259508D1*
X2528832Y1256508D1*
X2529214Y1253508D1*
X2529932Y1250508D1*
X2530713Y1247508D1*
X2531342Y1244508D1*
X2532003Y1241508D1*
X2532860Y1238508D1*
X2533787Y1235508D1*
X2534725Y1232508D1*
X2535834Y1229508D1*
X2537127Y1226508D1*
X2538540Y1223508D1*
X2540096Y1220508D1*
X2541866Y1217508D1*
X2543804Y1214508D1*
X2545745Y1211508D1*
X2547824Y1208508D1*
X2550240Y1205508D1*
X2552939Y1202508D1*
X2555803Y1199508D1*
X2558747Y1196508D1*
X2561738Y1193508D1*
X2564847Y1190508D1*
X2568332Y1187508D1*
X2572456Y1184508D1*
X2577166Y1181508D1*
X2582375Y1178508D1*
X2588456Y1175508D1*
X2596014Y1172508D1*
X2605334Y1169508D1*
X2615714Y1166508D1*
X2708714Y1370508D2*
Y1367508D1*
Y1364508D1*
Y1361508D1*
Y1358508D1*
Y1355508D1*
Y1352508D1*
Y1349508D1*
Y1346508D1*
Y1343508D1*
Y1340508D1*
Y1337508D1*
Y1334508D1*
Y1331508D1*
Y1328508D1*
Y1325508D1*
Y1322508D1*
Y1319508D1*
Y1316508D1*
Y1313508D1*
Y1310508D1*
Y1307508D1*
Y1304508D1*
Y1301508D1*
Y1298508D1*
Y1295508D1*
Y1292508D1*
Y1289508D1*
Y1286508D1*
Y1283508D1*
Y1280508D1*
Y1277508D1*
Y1274508D1*
Y1271508D1*
Y1268508D1*
Y1265508D1*
Y1262508D1*
Y1259508D1*
Y1256508D1*
Y1253508D1*
Y1250508D1*
Y1247508D1*
Y1244508D1*
Y1241508D1*
Y1238508D1*
Y1235508D1*
Y1232508D1*
Y1229508D1*
Y1226508D1*
Y1223508D1*
Y1220508D1*
Y1217508D1*
Y1214508D1*
Y1211508D1*
Y1208508D1*
Y1205508D1*
Y1202508D1*
Y1199508D1*
Y1196508D1*
Y1193508D1*
Y1190508D1*
Y1187508D1*
Y1184508D1*
Y1181508D1*
Y1178508D1*
Y1175508D1*
Y1172508D1*
Y1169508D1*
Y1166508D1*
X2087714Y1328508D2*
Y1325508D1*
Y1322508D1*
Y1319508D1*
Y1316508D1*
Y1313508D1*
Y1310508D1*
Y1307508D1*
Y1304508D1*
Y1301508D1*
Y1298508D1*
Y1295508D1*
Y1292508D1*
Y1289508D1*
X2204714Y1328508D2*
Y1325508D1*
Y1322508D1*
Y1319508D1*
Y1316508D1*
Y1313508D1*
Y1310508D1*
Y1307508D1*
Y1304508D1*
Y1301508D1*
Y1298508D1*
Y1295508D1*
Y1292508D1*
Y1289508D1*
Y1286508D1*
Y1283508D1*
Y1280508D1*
Y1277508D1*
Y1274508D1*
Y1271508D1*
Y1268508D1*
Y1265508D1*
Y1262508D1*
Y1259508D1*
Y1256508D1*
Y1253508D1*
Y1250508D1*
Y1247508D1*
Y1244508D1*
Y1241508D1*
Y1238508D1*
Y1235508D1*
Y1232508D1*
Y1229508D1*
Y1226508D1*
Y1223508D1*
Y1220508D1*
Y1217508D1*
Y1214508D1*
Y1211508D1*
Y1208508D1*
Y1205508D1*
Y1202508D1*
Y1199508D1*
Y1196508D1*
Y1193508D1*
Y1190508D1*
Y1187508D1*
Y1184508D1*
Y1181508D1*
Y1178508D1*
Y1175508D1*
Y1172508D1*
Y1169508D1*
Y1166508D1*
X2255714Y1328508D2*
Y1325508D1*
Y1322508D1*
Y1319508D1*
Y1316508D1*
Y1313508D1*
Y1310508D1*
Y1307508D1*
Y1304508D1*
Y1301508D1*
Y1298508D1*
Y1295508D1*
Y1292508D1*
Y1289508D1*
Y1286508D1*
Y1283508D1*
Y1280508D1*
Y1277508D1*
Y1274508D1*
Y1271508D1*
Y1268508D1*
Y1265508D1*
Y1262508D1*
Y1259508D1*
Y1256508D1*
Y1253508D1*
Y1250508D1*
Y1247508D1*
Y1244508D1*
Y1241508D1*
Y1238508D1*
Y1235508D1*
Y1232508D1*
Y1229508D1*
Y1226508D1*
Y1223508D1*
Y1220508D1*
Y1217508D1*
Y1214508D1*
Y1211508D1*
Y1208508D1*
Y1205508D1*
Y1202508D1*
Y1199508D1*
Y1196508D1*
Y1193508D1*
Y1190508D1*
Y1187508D1*
Y1184508D1*
Y1181508D1*
Y1178508D1*
Y1175508D1*
Y1172508D1*
Y1169508D1*
Y1166508D1*
X2639714Y1328508D2*
X2628905Y1325508D1*
X2619514Y1322508D1*
X2612004Y1319508D1*
X2606247Y1316508D1*
X2601825Y1313508D1*
X2598273Y1310508D1*
X2595381Y1307508D1*
X2593004Y1304508D1*
X2590851Y1301508D1*
X2588849Y1298508D1*
X2587235Y1295508D1*
X2585965Y1292508D1*
X2584809Y1289508D1*
X2583849Y1286508D1*
X2583249Y1283508D1*
X2582942Y1280508D1*
X2582804Y1277508D1*
X2582748Y1274508D1*
X2582726Y1271508D1*
X2582718Y1268508D1*
X2582716Y1265508D1*
X2582715Y1262508D1*
X2582726Y1259508D1*
X2582832Y1256508D1*
X2583214Y1253508D1*
X2583944Y1250508D1*
X2584819Y1247508D1*
X2585736Y1244508D1*
X2586850Y1241508D1*
X2588246Y1238508D1*
X2590040Y1235508D1*
X2592337Y1232508D1*
X2595088Y1229508D1*
X2598337Y1226508D1*
X2602239Y1223508D1*
X2607194Y1220508D1*
X2614557Y1217508D1*
X2626718Y1214508D1*
X2644947Y1211508D1*
X2666714Y1208508D1*
X2657714Y1328508D2*
Y1325508D1*
Y1322508D1*
Y1319508D1*
Y1316508D1*
Y1313508D1*
Y1310508D1*
Y1307508D1*
Y1304508D1*
Y1301508D1*
Y1298508D1*
Y1295508D1*
Y1292508D1*
Y1289508D1*
Y1286508D1*
Y1283508D1*
Y1280508D1*
Y1277508D1*
Y1274508D1*
Y1271508D1*
Y1268508D1*
Y1265508D1*
Y1262508D1*
Y1259508D1*
Y1256508D1*
Y1253508D1*
Y1250508D1*
Y1247508D1*
Y1244508D1*
Y1241508D1*
Y1238508D1*
Y1235508D1*
Y1232508D1*
Y1229508D1*
Y1226508D1*
Y1223508D1*
Y1220508D1*
Y1217508D1*
Y1214508D1*
Y1211508D1*
X2633714Y1208508D1*
X2882714Y1328508D2*
X2873955Y1325508D1*
X2865853Y1322508D1*
X2858905Y1319508D1*
X2853130Y1316508D1*
X2848211Y1313508D1*
X2843714Y1310508D1*
X2888714Y1328508D2*
X2899409Y1325508D1*
X2908417Y1322508D1*
X2915207Y1319508D1*
X2920195Y1316508D1*
X2924094Y1313508D1*
X2927368Y1310508D1*
X2930132Y1307508D1*
X2932456Y1304508D1*
X2934589Y1301508D1*
X2936584Y1298508D1*
X2938196Y1295508D1*
X2939464Y1292508D1*
X2940620Y1289508D1*
X2941580Y1286508D1*
X2942180Y1283508D1*
X2942487Y1280508D1*
X2942625Y1277508D1*
X2942681Y1274508D1*
X2942703Y1271508D1*
X2942710Y1268508D1*
X2942713Y1265508D1*
X2942714Y1262508D1*
X2942703Y1259508D1*
X2942597Y1256508D1*
X2942215Y1253508D1*
X2941485Y1250508D1*
X2940598Y1247508D1*
X2939587Y1244508D1*
X2938197Y1241508D1*
X2936464Y1238508D1*
X2934620Y1235508D1*
X2932580Y1232508D1*
X2930168Y1229508D1*
X2927358Y1226508D1*
X2923961Y1223508D1*
X2919401Y1220508D1*
X2912482Y1217508D1*
X2901504Y1214508D1*
X2885868Y1211508D1*
X2867714Y1208508D1*
X3128714Y1328508D2*
X3118020Y1325508D1*
X3109001Y1322508D1*
X3102116Y1319508D1*
X3096852Y1316508D1*
X3092605Y1313508D1*
X3089175Y1310508D1*
X3086286Y1307508D1*
X3083582Y1304508D1*
X3081108Y1301508D1*
X3079000Y1298508D1*
X3077194Y1295508D1*
X3075565Y1292508D1*
X3074116Y1289508D1*
X3072975Y1286508D1*
X3072188Y1283508D1*
X3071464Y1280508D1*
X3070594Y1277508D1*
X3069763Y1274508D1*
X3069228Y1271508D1*
X3069047Y1268508D1*
X3069300Y1265508D1*
X3069964Y1262508D1*
X3070725Y1259508D1*
X3071346Y1256508D1*
X3072016Y1253508D1*
X3072989Y1250508D1*
X3074424Y1247508D1*
X3076641Y1244508D1*
X3079886Y1241508D1*
X3083714Y1238508D1*
X3131714Y1328508D2*
X3142421Y1325508D1*
X3151534Y1322508D1*
X3158707Y1319508D1*
X3164413Y1316508D1*
X3169081Y1313508D1*
X3172878Y1310508D1*
X3175921Y1307508D1*
X3178372Y1304508D1*
X3180557Y1301508D1*
X3182573Y1298508D1*
X3184192Y1295508D1*
X3185463Y1292508D1*
X3186619Y1289508D1*
X3187580Y1286508D1*
X3188180Y1283508D1*
X3188487Y1280508D1*
X3188625Y1277508D1*
X3188681Y1274508D1*
X3188703Y1271508D1*
X3188710Y1268508D1*
X3188713Y1265508D1*
X3188702Y1262508D1*
X3188597Y1259508D1*
X3188203Y1256508D1*
X3187379Y1253508D1*
X3186216Y1250508D1*
X3184869Y1247508D1*
X3183427Y1244508D1*
X3181941Y1241508D1*
X3180342Y1238508D1*
X3178453Y1235508D1*
X3176116Y1232508D1*
X3173350Y1229508D1*
X3170095Y1226508D1*
X3166191Y1223508D1*
X3161282Y1220508D1*
X3154376Y1217508D1*
X3144069Y1214508D1*
X3129943Y1211508D1*
X3113714Y1208508D1*
X1949714Y1316508D2*
X1943945Y1313508D1*
X1939233Y1310508D1*
X1935478Y1307508D1*
X1932580Y1304508D1*
X1930535Y1301508D1*
X1929081Y1298508D1*
X1927852Y1295508D1*
X1926864Y1292508D1*
X1926254Y1289508D1*
X1925955Y1286508D1*
X1925922Y1283508D1*
X1926247Y1280508D1*
X1926956Y1277508D1*
X1927835Y1274508D1*
X1928855Y1271508D1*
X1930350Y1268508D1*
X1932476Y1265508D1*
X1935153Y1262508D1*
X1938425Y1259508D1*
X1942372Y1256508D1*
X1946714Y1253508D1*
X1964714Y1316508D2*
X1970113Y1313508D1*
X1974762Y1310508D1*
X1978373Y1307508D1*
X1981024Y1304508D1*
X1982978Y1301508D1*
X1984426Y1298508D1*
X1985575Y1295508D1*
X1986667Y1292508D1*
X1987587Y1289508D1*
X1988070Y1286508D1*
X1987990Y1283508D1*
X1987396Y1280508D1*
X1986577Y1277508D1*
X1985681Y1274508D1*
X1984575Y1271508D1*
X1983170Y1268508D1*
X1981260Y1265508D1*
X1978476Y1262508D1*
X1974624Y1259508D1*
X1969868Y1256508D1*
X1964714Y1253508D1*
X2408714Y1304508D2*
X2408251Y1301508D1*
X2407495Y1298508D1*
X2406613Y1295508D1*
X2405705Y1292508D1*
X2404696Y1289508D1*
X2403694Y1286508D1*
X2402736Y1283508D1*
X2401707Y1280508D1*
X2400698Y1277508D1*
X2399737Y1274508D1*
X2398708Y1271508D1*
X2397698Y1268508D1*
X2396737Y1265508D1*
X2395708Y1262508D1*
X2394698Y1259508D1*
X2393726Y1256508D1*
X2392591Y1253508D1*
X2391188Y1250508D1*
X2389399Y1247508D1*
X2387165Y1244508D1*
X2384714Y1241508D1*
X2414714Y1304508D2*
X2415190Y1301508D1*
X2416039Y1298508D1*
X2417198Y1295508D1*
X2418454Y1292508D1*
X2419607Y1289508D1*
X2420640Y1286508D1*
X2421701Y1283508D1*
X2422723Y1280508D1*
X2423689Y1277508D1*
X2424720Y1274508D1*
X2425730Y1271508D1*
X2426691Y1268508D1*
X2427721Y1265508D1*
X2428731Y1262508D1*
X2429692Y1259508D1*
X2430721Y1256508D1*
X2431742Y1253508D1*
X2432820Y1250508D1*
X2434327Y1247508D1*
X2436386Y1244508D1*
X2438714Y1241508D1*
X2024714Y1289508D2*
Y1286508D1*
Y1283508D1*
Y1280508D1*
Y1277508D1*
Y1274508D1*
Y1271508D1*
Y1268508D1*
Y1265508D1*
Y1262508D1*
Y1259508D1*
Y1256508D1*
Y1253508D1*
Y1250508D1*
Y1247508D1*
X3092714Y1250508D2*
X3089591Y1247508D1*
X3086126Y1244508D1*
X3082099Y1241508D1*
X3077714Y1238508D1*
X3116714Y1250508D2*
X3130871Y1247508D1*
X3143714Y1244508D1*
X3140714Y1241508D1*
X3137714Y1238508D1*
X3134714Y1235508D1*
X3131714Y1232508D1*
X3128714Y1229508D1*
X3125714Y1226508D1*
X3122714Y1223508D1*
X3119714Y1220508D1*
X3116714Y1217508D1*
X3113714Y1214508D1*
X3128339Y1211508D1*
X3143714Y1208508D1*
X2087714Y1247508D2*
Y1244508D1*
Y1241508D1*
Y1238508D1*
Y1235508D1*
Y1232508D1*
Y1229508D1*
Y1226508D1*
Y1223508D1*
Y1220508D1*
Y1217508D1*
Y1214508D1*
Y1211508D1*
Y1208508D1*
X2840714Y1226508D2*
Y1223508D1*
Y1220508D1*
Y1217508D1*
Y1214508D1*
Y1211508D1*
Y1208508D1*
Y1205508D1*
Y1202508D1*
Y1199508D1*
Y1196508D1*
Y1193508D1*
Y1190508D1*
Y1187508D1*
Y1184508D1*
Y1181508D1*
X2840738Y1178508D1*
X2840984Y1175508D1*
X2841582Y1172508D1*
X2844300Y1169508D1*
X2850585Y1166508D1*
X2858665Y1163508D1*
X2867714Y1160508D1*
X2843714Y1226508D2*
X2848724Y1223508D1*
X2854230Y1220508D1*
X2861614Y1217508D1*
X2872796Y1214508D1*
X2888516Y1211508D1*
X2906714Y1208508D1*
X1955714Y1223508D2*
X1948108Y1220508D1*
X1941885Y1217508D1*
X1937194Y1214508D1*
X1933913Y1211508D1*
X1931562Y1208508D1*
X1929705Y1205508D1*
X1928167Y1202508D1*
X1927004Y1199508D1*
X1926311Y1196508D1*
X1925965Y1193508D1*
X1925824Y1190508D1*
X1925868Y1187508D1*
X1926238Y1184508D1*
X1927066Y1181508D1*
X1928332Y1178508D1*
X1930072Y1175508D1*
X1932349Y1172508D1*
X1935100Y1169508D1*
X1938405Y1166508D1*
X1942365Y1163508D1*
X1946714Y1160508D1*
X1958714Y1223508D2*
X1965869Y1220508D1*
X1971454Y1217508D1*
X1975750Y1214508D1*
X1979213Y1211508D1*
X1981960Y1208508D1*
X1983936Y1205508D1*
X1985364Y1202508D1*
X1986583Y1199508D1*
X1987555Y1196508D1*
X1988059Y1193508D1*
X1987986Y1190508D1*
X1987395Y1187508D1*
X1986577Y1184508D1*
X1985681Y1181508D1*
X1984575Y1178508D1*
X1983182Y1175508D1*
X1981365Y1172508D1*
X1978851Y1169508D1*
X1975280Y1166508D1*
X1970391Y1163508D1*
X1964714Y1160508D1*
X2021714Y1208508D2*
Y1205508D1*
Y1202508D1*
Y1199508D1*
Y1196508D1*
Y1193508D1*
Y1190508D1*
Y1187508D1*
Y1184508D1*
Y1181508D1*
Y1178508D1*
Y1175508D1*
Y1172508D1*
Y1169508D1*
Y1166508D1*
X2372714Y1202508D2*
X2372251Y1199508D1*
X2371495Y1196508D1*
X2370613Y1193508D1*
X2369705Y1190508D1*
X2368696Y1187508D1*
X2367694Y1184508D1*
X2366724Y1181508D1*
X2365602Y1178508D1*
X2364313Y1175508D1*
X2362989Y1172508D1*
X2361780Y1169508D1*
X2360714Y1166508D1*
X2447714Y1202508D2*
X2450137Y1199508D1*
X2451997Y1196508D1*
X2453395Y1193508D1*
X2454707Y1190508D1*
X2456069Y1187508D1*
X2457406Y1184508D1*
X2458590Y1181508D1*
X2459646Y1178508D1*
X2460814Y1175508D1*
X2462204Y1172508D1*
X2463860Y1169508D1*
X2465714Y1166508D1*
X3074714Y1172508D2*
X3071714Y1169508D1*
X3068714Y1166508D1*
X3065714Y1163508D1*
X3062714Y1160508D1*
X3059714Y1157508D1*
X3056714Y1154508D1*
X3071714Y1172508D2*
X3077899Y1169508D1*
X3084971Y1166508D1*
X3094497Y1163508D1*
X3107544Y1160508D1*
X3122714Y1157508D1*
M02*
