M48
INCH
T01C0.019
T02C0.0433
T03C0.125
%
T01
X+030515Y+031763
X+032202Y+033888
X+026202Y+031763
X+025452Y+032513
X+026078Y+027638
X+020577Y+030825
X+021213Y+038138
X+024515Y+038138
X+028202Y+010013
X+028202Y+007450
X+026543Y+005263
X+029890Y+005263
X+019140Y+005263
X+015793Y+005263
T02
X+037702Y+006450
X+036702Y+006450
X+036702Y+007450
X+037702Y+007450
X+037702Y+008450
X+036702Y+008450
X+036702Y+009450
X+037702Y+009450
X+037702Y+010450
X+036702Y+010450
X+036702Y+011450
X+037702Y+011450
X+037702Y+012450
X+036702Y+012450
X+036702Y+013450
X+037702Y+013450
X+037702Y+014450
X+036702Y+014450
X+036702Y+015450
X+037702Y+015450
X+037702Y+016450
X+036702Y+016450
X+036702Y+017450
X+037702Y+017450
X+037702Y+018450
X+036702Y+018450
X+036702Y+019450
X+037702Y+019450
X+037702Y+020450
X+036702Y+020450
X+036702Y+021450
X+037702Y+021450
X+037702Y+022450
X+036702Y+022450
X+036702Y+023450
X+037702Y+023450
X+037702Y+024450
X+036702Y+024450
X+036702Y+025450
X+037702Y+025450
X+037702Y+026450
X+036702Y+026450
X+036702Y+027450
X+037702Y+027450
X+037702Y+028450
X+036702Y+028450
X+036702Y+029450
X+037702Y+029450
X+037702Y+030450
X+036702Y+030450
X+036702Y+031450
X+037702Y+031450
X+037702Y+032450
X+036702Y+032450
X+036702Y+033450
X+037702Y+033450
X+037702Y+034450
X+036702Y+034450
X+036702Y+035450
X+037702Y+035450
X+037702Y+036450
X+036702Y+036450
X+036702Y+037450
X+037702Y+037450
T03
X+005952Y+036388
X+005952Y+007388
X+039702Y+005950
X+039702Y+037450
T00
M30
