G04 DipTrace 3.3.1.3*
G04 TopMask.gbr*
%MOIN*%
G04 #@! TF.FileFunction,Soldermask,Top*
G04 #@! TF.Part,Single*
%ADD25C,0.125*%
%ADD30R,0.08662X0.031502*%
%ADD32R,0.078746X0.114179*%
%ADD34C,0.074809*%
%ADD36R,0.074809X0.074809*%
%ADD38R,0.041738X0.193707*%
%ADD40R,0.06103X0.193707*%
%ADD42R,0.066935X0.059061*%
%ADD44R,0.059061X0.066935*%
%FSLAX26Y26*%
G04*
G70*
G90*
G75*
G01*
G04 TopMask*
%LPD*%
D44*
X2082763Y2782510D3*
X2157566D3*
X2332763D3*
X2407566D3*
D42*
X2607763Y2763759D3*
Y2838562D3*
D44*
X1982763Y3076259D3*
X2057566D3*
X1982763Y2932510D3*
X2057566D3*
D42*
X2545263Y3251259D3*
Y3176456D3*
X2689014Y3251259D3*
Y3176456D3*
D25*
X595214Y3638759D3*
Y738759D3*
X3970214Y595008D3*
Y3745010D3*
D40*
X2654318Y526259D3*
X2988964D3*
D38*
X2821641D3*
D40*
X2451464Y3813759D3*
X2116818D3*
D38*
X2284141D3*
D36*
X3770214Y645010D3*
D34*
X3670214D3*
X3770214Y745010D3*
X3670214D3*
X3770214Y845010D3*
X3670214D3*
X3770214Y945010D3*
X3670214D3*
X3770214Y1045010D3*
X3670214D3*
X3770214Y1145010D3*
X3670214D3*
X3770214Y1245010D3*
X3670214D3*
X3770214Y1345010D3*
X3670214D3*
X3770214Y1445010D3*
X3670214D3*
X3770214Y1545010D3*
X3670214D3*
X3770214Y1645010D3*
X3670214D3*
X3770214Y1745010D3*
X3670214D3*
X3770214Y1845010D3*
X3670214D3*
X3770214Y1945010D3*
X3670214D3*
X3770214Y2045010D3*
X3670214D3*
X3770214Y2145010D3*
X3670214D3*
X3770214Y2245010D3*
X3670214D3*
X3770214Y2345010D3*
X3670214D3*
X3770214Y2445010D3*
X3670214D3*
X3770214Y2545010D3*
X3670214D3*
X3770214Y2645010D3*
X3670214D3*
X3770214Y2745010D3*
X3670214D3*
X3770214Y2845010D3*
X3670214D3*
X3770214Y2945010D3*
X3670214D3*
X3770214Y3045010D3*
X3670214D3*
X3770214Y3145010D3*
X3670214D3*
X3770214Y3245010D3*
X3670214D3*
X3770214Y3345010D3*
X3670214D3*
X3770214Y3445010D3*
X3670214D3*
X3770214Y3545010D3*
X3670214D3*
X3770214Y3645010D3*
X3670214D3*
X3770214Y3745010D3*
X3670214D3*
D40*
X1579318Y526259D3*
X1913964D3*
D38*
X1746641D3*
D44*
X2532763Y2932510D3*
X2607566D3*
D32*
X2645214Y1007510D3*
X2818443D3*
D44*
X2157763Y2932510D3*
X2232566D3*
X2332763D3*
X2407566D3*
D30*
X2176464Y3226259D3*
Y3176259D3*
Y3126259D3*
Y3076259D3*
X2389062D3*
Y3126259D3*
Y3176259D3*
Y3226259D3*
M02*
