G04 DipTrace 3.3.1.3*
G04 BottomMask.gbr*
%MOIN*%
G04 #@! TF.FileFunction,Soldermask,Bot*
G04 #@! TF.Part,Single*
%ADD27C,0.125*%
%ADD35C,0.06788*%
%ADD39C,0.066935*%
%ADD41C,0.074809*%
%ADD43R,0.074809X0.074809*%
%ADD47R,0.06103X0.193707*%
%FSLAX26Y26*%
G04*
G70*
G90*
G75*
G01*
G04 BotMask*
%LPD*%
D27*
X595213Y3638758D3*
Y738759D3*
X3970213Y595008D3*
Y3745008D3*
D47*
X2113964Y520008D3*
X2448609D3*
Y3788758D3*
X2113964D3*
D43*
X3770213Y645008D3*
D41*
X3670213D3*
X3770213Y745008D3*
X3670213D3*
X3770213Y845008D3*
X3670213D3*
X3770213Y945008D3*
X3670213D3*
X3770213Y1045008D3*
X3670213D3*
X3770213Y1145008D3*
X3670213D3*
X3770213Y1245008D3*
X3670213D3*
X3770213Y1345008D3*
X3670213D3*
X3770213Y1445008D3*
X3670213D3*
X3770213Y1545008D3*
X3670213D3*
X3770213Y1645008D3*
X3670213D3*
X3770213Y1745008D3*
X3670213D3*
X3770213Y1845008D3*
X3670213D3*
X3770213Y1945008D3*
X3670213D3*
X3770213Y2045008D3*
X3670213D3*
X3770213Y2145008D3*
X3670213D3*
X3770213Y2245008D3*
X3670213D3*
X3770213Y2345008D3*
X3670213D3*
X3770213Y2445008D3*
X3670213D3*
X3770213Y2545008D3*
X3670213D3*
X3770213Y2645008D3*
X3670213D3*
X3770213Y2745008D3*
X3670213D3*
X3770213Y2845008D3*
X3670213D3*
X3770213Y2945008D3*
X3670213D3*
X3770213Y3045008D3*
X3670213D3*
X3770213Y3145008D3*
X3670213D3*
X3770213Y3245008D3*
X3670213D3*
X3770213Y3345008D3*
X3670213D3*
X3770213Y3445008D3*
X3670213D3*
X3770213Y3545008D3*
X3670213D3*
X3770213Y3645008D3*
X3670213D3*
X3770213Y3745008D3*
X3670213D3*
D39*
X907713Y3632508D3*
Y3532508D3*
Y3432508D3*
Y3332508D3*
Y3232508D3*
Y3132508D3*
Y3032508D3*
Y2932508D3*
Y3732508D3*
X1007713D3*
Y3632508D3*
Y3532508D3*
Y3432508D3*
Y3332508D3*
Y3232508D3*
Y3132508D3*
Y3032508D3*
Y2932508D3*
X1107713Y3732508D3*
Y3632508D3*
Y3532508D3*
Y3432508D3*
Y3332508D3*
Y3232508D3*
Y3132508D3*
Y3032508D3*
Y2932508D3*
X1207713Y3732508D3*
Y3632508D3*
Y3532508D3*
Y3432508D3*
Y3332508D3*
Y3232508D3*
Y3132508D3*
Y3032508D3*
X1307713Y3732508D3*
Y3632508D3*
Y3532508D3*
Y3432508D3*
Y3332508D3*
Y3232508D3*
Y3132508D3*
Y3032508D3*
X1407713Y3732508D3*
Y3632508D3*
Y3532508D3*
Y3432508D3*
Y3332508D3*
Y3232508D3*
Y3132508D3*
Y3032508D3*
X1507713Y3732508D3*
X1607713D3*
X1707713D3*
X1807713D3*
X1507713Y3632508D3*
X1607713D3*
X1707713D3*
X1807713D3*
Y3532508D3*
X1707713D3*
X1607713D3*
X1507713D3*
Y3432508D3*
X1607713D3*
X1707713D3*
X1807713D3*
Y3332508D3*
X1707713D3*
X1607713D3*
X1507713D3*
Y3232508D3*
X1607713D3*
X1707713D3*
X1807713D3*
Y3132508D3*
X1707713D3*
X1607713D3*
X1507713D3*
Y3032508D3*
X1607713D3*
X1707713D3*
X1807713D3*
X507713Y3432508D3*
X607713D3*
X707713D3*
X807713D3*
Y3332508D3*
Y3232508D3*
Y3132508D3*
Y3032508D3*
Y2932508D3*
X707713D3*
X607713D3*
X507713D3*
Y3032508D3*
Y3132508D3*
Y3232508D3*
Y3332508D3*
X607713D3*
Y3232508D3*
Y3132508D3*
Y3032508D3*
X707713D3*
Y3132508D3*
Y3232508D3*
Y3332508D3*
X2707713Y3732508D3*
Y3632508D3*
Y3532508D3*
Y3432508D3*
Y3332508D3*
Y3232508D3*
Y3132508D3*
Y3032508D3*
X2807713Y3732508D3*
Y3632508D3*
Y3532508D3*
Y3432508D3*
Y3332508D3*
Y3232508D3*
Y3132508D3*
Y3032508D3*
X2907713Y3732508D3*
Y3632508D3*
Y3532508D3*
Y3432508D3*
Y3332508D3*
Y3232508D3*
Y3132508D3*
Y3032508D3*
X3007713Y3732508D3*
Y3632508D3*
Y3532508D3*
Y3432508D3*
Y3332508D3*
Y3232508D3*
Y3132508D3*
Y3032508D3*
X3107713Y3732508D3*
Y3632508D3*
Y3532508D3*
Y3432508D3*
Y3332508D3*
Y3232508D3*
Y3132508D3*
Y3032508D3*
X3207713Y3732508D3*
Y3632508D3*
Y3532508D3*
Y3432508D3*
Y3332508D3*
Y3232508D3*
Y3132508D3*
Y3032508D3*
X3307713Y3732508D3*
Y3632508D3*
Y3532508D3*
Y3432508D3*
Y3332508D3*
Y3232508D3*
Y3132508D3*
Y3032508D3*
X3407713Y3732508D3*
Y3632508D3*
Y3532508D3*
Y3432508D3*
Y3332508D3*
Y3232508D3*
Y3132508D3*
Y3032508D3*
D35*
X2488913Y2482510D3*
X3445163Y2251259D3*
X3151414Y2013760D3*
X1657663Y2476258D3*
X1395163Y2901259D3*
X2270163Y2770010D3*
X2976413Y2613759D3*
X751413Y2476259D3*
X1113913Y2501259D3*
X1901413Y2601259D3*
X2538913Y2101259D3*
X651413Y2670008D3*
M02*
