M48
INCH
T01C0.019
T02C0.038
T03C0.04
T04C0.0433
T05C0.125
%
T01
X+023450Y+024263
X+022702Y+024263
X+022702Y+025888
X+020077Y+022075
X+024514Y+020138
X+026264Y+020138
X+029890Y+020638
X+029765Y+021950
X+030452Y+022638
X+029765Y+024138
X+033764Y+018450
X+024515Y+005200
X+021140Y+005513
X+012764Y+024700
X+015265Y+026825
X+021140Y+037513
X+022813Y+037888
X+024390Y+037513
T02
X+024889Y+024825
X+022702Y+027700
X+019014Y+026013
X+016577Y+024763
X+013952Y+029013
X+011139Y+025013
X+007514Y+024763
X+006514Y+026700
X+025389Y+021013
X+031514Y+020138
X+034452Y+022513
X+029764Y+026138
T03
X+009077Y+036325
X+009077Y+035325
X+009077Y+034325
X+010077Y+034325
X+010077Y+035325
X+010077Y+036325
X+010077Y+037325
X+009077Y+037325
X+011077Y+037325
X+011077Y+036325
X+011077Y+035325
X+011077Y+034325
X+011077Y+033325
X+010077Y+033325
X+010077Y+032325
X+010077Y+031325
X+009077Y+031325
X+009077Y+032325
X+009077Y+033325
X+008077Y+033325
X+008077Y+032325
X+008077Y+031325
X+007077Y+031325
X+006077Y+031325
X+005077Y+031325
X+005077Y+032325
X+005077Y+033325
X+006077Y+033325
X+006077Y+032325
X+007077Y+032325
X+007077Y+033325
X+007077Y+034325
X+006077Y+034325
X+005077Y+034325
X+008077Y+034325
X+011077Y+032325
X+011077Y+031325
X+012077Y+031325
X+013077Y+031325
X+013077Y+032325
X+013077Y+033325
X+014077Y+033325
X+014077Y+032325
X+014077Y+031325
X+014077Y+030325
X+013077Y+030325
X+012077Y+030325
X+011077Y+030325
X+010077Y+030325
X+009077Y+030325
X+009077Y+029325
X+010077Y+029325
X+011077Y+029325
X+008077Y+029325
X+008077Y+030325
X+007077Y+030325
X+007077Y+029325
X+006077Y+029325
X+005077Y+029325
X+005077Y+030325
X+006077Y+030325
X+012077Y+032325
X+012077Y+033325
X+012077Y+034325
X+013077Y+034325
X+013077Y+035325
X+014077Y+035325
X+014077Y+034325
X+015077Y+034325
X+015077Y+035325
X+016077Y+035325
X+016077Y+036325
X+017077Y+036325
X+017077Y+037325
X+016077Y+037325
X+015077Y+037325
X+015077Y+036325
X+014077Y+036325
X+014077Y+037325
X+013077Y+037325
X+013077Y+036325
X+012077Y+036325
X+012077Y+037325
X+012077Y+035325
X+015077Y+033325
X+016077Y+033325
X+016077Y+032325
X+017077Y+032325
X+017077Y+031325
X+016077Y+031325
X+015077Y+031325
X+015077Y+032325
X+015077Y+030325
X+016077Y+030325
X+017077Y+030325
X+018077Y+030325
X+018077Y+031325
X+018077Y+032325
X+018077Y+033325
X+018077Y+034325
X+018077Y+035325
X+018077Y+036325
X+018077Y+037325
X+017077Y+035325
X+017077Y+034325
X+016077Y+034325
X+017077Y+033325
X+027077Y+033325
X+027077Y+032325
X+027077Y+031325
X+028077Y+031325
X+028077Y+032325
X+028077Y+033325
X+029077Y+033325
X+029077Y+032325
X+029077Y+031325
X+029077Y+030325
X+028077Y+030325
X+027077Y+030325
X+030077Y+030325
X+031077Y+030325
X+032077Y+030325
X+033077Y+030325
X+033077Y+031325
X+032077Y+031325
X+031077Y+031325
X+030077Y+031325
X+030077Y+032325
X+030077Y+033325
X+031077Y+033325
X+031077Y+032325
X+032077Y+032325
X+032077Y+033325
X+033077Y+033325
X+033077Y+032325
X+034077Y+032325
X+034077Y+033325
X+034077Y+034325
X+034077Y+035325
X+034077Y+036325
X+034077Y+037325
X+033077Y+037325
X+032077Y+037325
X+032077Y+036325
X+032077Y+035325
X+032077Y+034325
X+031077Y+034325
X+031077Y+035325
X+030077Y+035325
X+030077Y+036325
X+030077Y+037325
X+031077Y+037325
X+031077Y+036325
X+033077Y+036325
X+033077Y+035325
X+033077Y+034325
X+030077Y+034325
X+029077Y+034325
X+029077Y+035325
X+029077Y+036325
X+029077Y+037325
X+028077Y+037325
X+027077Y+037325
X+027077Y+036325
X+028077Y+036325
X+028077Y+035325
X+027077Y+035325
X+027077Y+034325
X+028077Y+034325
X+034077Y+031325
X+034077Y+030325
T04
X+037702Y+006450
X+036702Y+006450
X+036702Y+007450
X+037702Y+007450
X+037702Y+008450
X+036702Y+008450
X+036702Y+009450
X+037702Y+009450
X+037702Y+010450
X+036702Y+010450
X+036702Y+011450
X+037702Y+011450
X+037702Y+012450
X+036702Y+012450
X+036702Y+013450
X+037702Y+013450
X+037702Y+014450
X+036702Y+014450
X+036702Y+015450
X+037702Y+015450
X+037702Y+016450
X+036702Y+016450
X+036702Y+017450
X+037702Y+017450
X+037702Y+018450
X+036702Y+018450
X+036702Y+019450
X+037702Y+019450
X+037702Y+020450
X+036702Y+020450
X+036702Y+021450
X+037702Y+021450
X+037702Y+022450
X+036702Y+022450
X+036702Y+023450
X+037702Y+023450
X+037702Y+024450
X+036702Y+024450
X+036702Y+025450
X+037702Y+025450
X+037702Y+026450
X+036702Y+026450
X+036702Y+027450
X+037702Y+027450
X+037702Y+028450
X+036702Y+028450
X+036702Y+029450
X+037702Y+029450
X+037702Y+030450
X+036702Y+030450
X+036702Y+031450
X+037702Y+031450
X+037702Y+032450
X+036702Y+032450
X+036702Y+033450
X+037702Y+033450
X+037702Y+034450
X+036702Y+034450
X+036702Y+035450
X+037702Y+035450
X+037702Y+036450
X+036702Y+036450
X+036702Y+037450
X+037702Y+037450
T05
X+005952Y+036388
X+005952Y+007388
X+039702Y+005950
X+039702Y+037450
T00
M30
