G04 DipTrace 3.3.1.3*
G04 Top.gbr*
%MOIN*%
G04 #@! TF.FileFunction,Copper,L1,Top*
G04 #@! TF.Part,Single*
G04 #@! TA.AperFunction,Conductor*
%ADD12C,0.02*%
G04 #@! TA.AperFunction,CopperBalancing*
%ADD13C,0.025*%
%ADD14C,0.013*%
%ADD15R,0.051181X0.059055*%
%ADD16R,0.059055X0.051181*%
%ADD17R,0.05315X0.185827*%
%ADD18R,0.033858X0.185827*%
G04 #@! TA.AperFunction,ComponentPad*
%ADD19R,0.066929X0.066929*%
%ADD20C,0.066929*%
%ADD21C,0.059055*%
%ADD22R,0.059055X0.059055*%
G04 #@! TA.AperFunction,ComponentPad*
%ADD23C,0.06*%
%ADD24R,0.07874X0.023622*%
G04 #@! TA.AperFunction,ViaPad*
%ADD25C,0.04*%
%FSLAX26Y26*%
G04*
G70*
G90*
G75*
G01*
G04 Top*
%LPD*%
X1489012Y2520010D2*
D12*
X1576414D1*
X1601413Y2545008D1*
Y2682361D1*
X1601266Y2682508D1*
Y2851259D1*
X2220262Y2257510D2*
X2313913D1*
X2338913Y2282510D1*
Y2420157D1*
X2345016Y2426260D1*
Y2582510D2*
Y2426260D1*
X2989012Y2063760D2*
X3076414D1*
X3095163Y2082510D1*
Y2219861D1*
X3051266Y2263759D1*
Y2413760D1*
X1601266Y2682508D2*
X1857662D1*
X1876413Y2701259D1*
X2320163D1*
X2345163Y2676259D1*
Y2582657D1*
X2345016Y2582510D1*
Y2426260D2*
D3*
X3045163Y2263759D2*
X3051266D1*
X2989012Y2063760D2*
D3*
X995163Y2376259D2*
X1163914D1*
X1526462Y2851259D2*
Y2682508D1*
X1395163Y2901259D2*
Y2876258D1*
X1420162Y2851259D1*
X1526462D1*
X1163914Y2376259D2*
Y2445011D1*
X1188913Y2470010D1*
X1276414D1*
X1845213Y2195008D2*
X1995162D1*
X2007663Y2207510D1*
X1682713Y2195008D2*
X1845213D1*
X2270213Y2426260D2*
Y2582510D1*
X2626462Y2013758D2*
X2776411D1*
X2776414Y2013760D1*
X2457713Y2013758D2*
X2626462D1*
X2976462Y2413760D2*
Y2263759D1*
Y2413760D2*
Y2613709D1*
X2976413Y2613759D1*
X1276414Y2470010D2*
X1338913D1*
X1363913Y2445010D1*
Y2357508D1*
X1382662Y2338759D1*
X1657662D1*
X1682662Y2313759D1*
Y2195060D1*
X1682713Y2195008D1*
X2270163Y2588759D2*
Y2582560D1*
X2270213Y2582510D1*
Y2426260D2*
D3*
X2451413Y2013758D2*
X2457713D1*
X2007663Y2207510D2*
D3*
X2976462Y2263759D2*
Y2195008D1*
Y2413760D2*
D3*
X3376413Y1845008D2*
D3*
X1526462Y2682508D2*
D3*
X1276414Y2470010D2*
D3*
X3770213Y645008D2*
Y526259D1*
X3713962Y470008D1*
X3226464D1*
X3176464Y520008D1*
X2632713Y1063759D1*
X1063962D1*
X745213Y1382508D1*
Y2307508D1*
X813964Y2376259D1*
X995163D1*
X2113964Y520008D2*
Y551258D1*
X2448609Y520008D2*
X2451462D1*
X2448609D2*
X3176464D1*
X2113964Y3788758D2*
Y3751259D1*
X2448609Y3788758D2*
Y3760906D1*
X2438962Y3751259D1*
X976216Y2526259D2*
Y2632310D1*
X1013914Y2670008D1*
X976216Y2526259D2*
X1088913D1*
X1113913Y2501259D1*
X3376217Y2013759D2*
Y2182313D1*
X3445163Y2251259D1*
X3376217Y2013759D2*
Y1920007D1*
X3376413Y1919812D1*
X2281287Y3788758D2*
D3*
X995163Y2301456D2*
X1163914D1*
X1207860D1*
X1276414Y2370010D1*
Y2420010D1*
X1845213Y2120205D2*
X1970359D1*
X1974637Y2124483D1*
X2007663Y2157510D1*
X1845213Y2120205D2*
X1682713D1*
X2626462Y1938955D2*
X2751608D1*
X2776414Y1963760D1*
X2457713Y1938955D2*
X2626462D1*
X1163914Y2301456D2*
X1363716D1*
X1420162Y2245010D1*
Y2151259D1*
X1451413Y2120008D1*
X1682516D1*
X1974637Y2124483D2*
Y1984285D1*
X2020163Y1938759D1*
X2457518D1*
X2457713Y1938955D1*
X3770213Y745008D2*
Y763758D1*
X3738962Y795008D1*
X3132713D1*
X2776414Y1151308D1*
Y1963760D1*
X1276217Y2820010D2*
Y2670008D1*
X1357662D1*
X1382662Y2645008D1*
Y2488760D1*
X1401413Y2470010D1*
X1489012D1*
X1651415D1*
X1657663Y2476258D1*
Y2507510D1*
X1726413Y2576259D1*
X2776414Y2063760D2*
X2676411D1*
X2651413Y2088759D1*
Y2207460D1*
X2651462Y2207510D1*
X2488766D1*
X2651462D2*
Y2370008D1*
X901413Y2526259D2*
Y2638562D1*
X869966Y2670008D1*
X751413Y2476259D2*
X851413D1*
X901413Y2526259D1*
X2095016Y2638760D2*
Y2476260D1*
X2220262Y2207510D2*
X2132662D1*
X2095163Y2245008D1*
Y2476113D1*
X2095016Y2476260D1*
X2220262Y2207510D2*
X2295162D1*
X2319742Y2182930D1*
X2338913Y2163759D1*
Y2101259D1*
X2319742Y2182930D2*
Y2194588D1*
X2488913Y2363759D1*
Y2482510D1*
X2007663Y2257510D2*
X1938911D1*
X1876413Y2320008D1*
Y2476065D1*
X1876217Y2476260D1*
X2020213D1*
Y2638760D1*
X1088717Y2670008D2*
X1201414D1*
Y2820010D1*
Y2670008D2*
Y2551258D1*
X1232662Y2520010D1*
X1276414D1*
X2726266Y2370008D2*
Y2207510D1*
X2989012Y2013760D2*
X3151414D1*
X2989012D2*
X2926411D1*
X2882662Y2057510D1*
Y2182510D1*
X2857662Y2207510D1*
X2726266D1*
X3151414Y2013760D2*
Y2126260D1*
X3201413Y2176259D1*
X1801414Y2476260D2*
Y2576061D1*
X1801216Y2576259D1*
X1876413D1*
X1901413Y2601259D1*
X2413962Y2207510D2*
Y2101506D1*
X2413716Y2101259D1*
X2538913D1*
X3276216Y2176259D2*
Y2038957D1*
X3301414Y2013759D1*
X651413Y2670008D2*
X795163D1*
X2281287Y520008D2*
Y815184D1*
X2145213Y951259D1*
X1020213D1*
X576464Y1395008D1*
Y2595058D1*
X651413Y2670008D1*
D25*
X2345016Y2426260D3*
X3045163Y2263759D3*
X2989012Y2063760D3*
X2270163Y2588759D3*
X2270213Y2426260D3*
X2451413Y2013758D3*
X2007663Y2207510D3*
X2270213Y2426260D3*
X2976462Y2195008D3*
X2626411Y2013758D3*
X2976462Y2413760D3*
X3376413Y1845008D3*
X1526462Y2682508D3*
X1276414Y2470010D3*
X2113964Y551258D3*
X2451462Y520008D3*
X2113964Y3751259D3*
X2438962D3*
X2113964D3*
X2281287Y3788758D3*
X478903Y3870138D2*
D13*
X2058405D1*
X2169550D2*
X2235350D1*
X2327226D2*
X2393025D1*
X2504171D2*
X3910388D1*
X4030039D2*
X4092859D1*
X478867Y3845270D2*
X2058405D1*
X2169550D2*
X2235350D1*
X2327226D2*
X2393025D1*
X2504171D2*
X3873427D1*
X4066999D2*
X4092931D1*
X478796Y3820401D2*
X2058405D1*
X2169550D2*
X2235350D1*
X2327226D2*
X2393025D1*
X2504171D2*
X3852579D1*
X478759Y3795532D2*
X2058405D1*
X2169550D2*
X2232767D1*
X2329773D2*
X2393025D1*
X2504171D2*
X3635407D1*
X3704999D2*
X3735417D1*
X3805008D2*
X3839696D1*
X478724Y3770663D2*
X553423D1*
X637008D2*
X864179D1*
X951247D2*
X964188D1*
X1051256D2*
X1064197D1*
X1151229D2*
X1164171D1*
X1251238D2*
X1264180D1*
X1351247D2*
X1364190D1*
X1451256D2*
X1464199D1*
X1551230D2*
X1564172D1*
X1651239D2*
X1664182D1*
X1751249D2*
X1764191D1*
X1851258D2*
X2058405D1*
X2169550D2*
X2235350D1*
X2327226D2*
X2393025D1*
X2504171D2*
X2664203D1*
X2751233D2*
X2764195D1*
X2851242D2*
X2864184D1*
X2951251D2*
X2964193D1*
X3051225D2*
X3064167D1*
X3151234D2*
X3164176D1*
X3251243D2*
X3264186D1*
X3351252D2*
X3364195D1*
X3451226D2*
X3613519D1*
X478688Y3745794D2*
X506199D1*
X684233D2*
X850794D1*
X1864642D2*
X2058405D1*
X2169550D2*
X2235350D1*
X2327226D2*
X2393025D1*
X2504171D2*
X2650781D1*
X3464648D2*
X3607741D1*
X708132Y3720926D2*
X850399D1*
X1865037D2*
X2058405D1*
X2169550D2*
X2235350D1*
X2327226D2*
X2393025D1*
X2504171D2*
X2650386D1*
X3465041D2*
X3612801D1*
X722844Y3696057D2*
X862672D1*
X952754D2*
X962680D1*
X1052763D2*
X1062659D1*
X1152772D2*
X1162658D1*
X1252746D2*
X1262674D1*
X1352755D2*
X1362646D1*
X1452764D2*
X1462655D1*
X1552773D2*
X1562666D1*
X1652747D2*
X1662675D1*
X1752756D2*
X1762662D1*
X1852766D2*
X2058405D1*
X2169550D2*
X2235350D1*
X2327226D2*
X2393025D1*
X2504171D2*
X2662659D1*
X2752776D2*
X2762655D1*
X2852750D2*
X2862636D1*
X2952759D2*
X2962651D1*
X3052768D2*
X3062661D1*
X3152777D2*
X3162670D1*
X3252751D2*
X3262679D1*
X3352760D2*
X3362651D1*
X3452770D2*
X3633075D1*
X3707331D2*
X3733085D1*
X3807340D2*
X3839086D1*
X731456Y3671188D2*
X864682D1*
X950745D2*
X964691D1*
X1050754D2*
X1064665D1*
X1150763D2*
X1164674D1*
X1250737D2*
X1264683D1*
X1350746D2*
X1364692D1*
X1450755D2*
X1464666D1*
X1550764D2*
X1564675D1*
X1650737D2*
X1664684D1*
X1750746D2*
X1764693D1*
X2750731D2*
X2764678D1*
X2850741D2*
X2864687D1*
X2950750D2*
X2964696D1*
X3050759D2*
X3064670D1*
X3150731D2*
X3164679D1*
X3250741D2*
X3264688D1*
X3350750D2*
X3364697D1*
X3450759D2*
X3613770D1*
X3826646D2*
X3851539D1*
X735153Y3646319D2*
X850902D1*
X3464503D2*
X3607777D1*
X3832675D2*
X3871776D1*
X4068650D2*
X4093649D1*
X734255Y3621451D2*
X850292D1*
X3465149D2*
X3612586D1*
X3827867D2*
X3907087D1*
X4033339D2*
X4093756D1*
X728729Y3596582D2*
X862207D1*
X953220D2*
X962226D1*
X1053193D2*
X1062195D1*
X1153203D2*
X1162251D1*
X1253212D2*
X1262207D1*
X1353221D2*
X1362216D1*
X1453195D2*
X1462225D1*
X1553204D2*
X1562234D1*
X1653213D2*
X1662208D1*
X1753222D2*
X1762210D1*
X2753207D2*
X2762195D1*
X2853216D2*
X2862238D1*
X2953190D2*
X2962239D1*
X3053199D2*
X3062229D1*
X3153208D2*
X3162203D1*
X3253217D2*
X3262212D1*
X3353191D2*
X3362221D1*
X3453200D2*
X3632357D1*
X3708086D2*
X3732367D1*
X3808095D2*
X4093829D1*
X717928Y3571713D2*
X865184D1*
X950242D2*
X965193D1*
X1050251D2*
X1065203D1*
X1150225D2*
X1165176D1*
X1250234D2*
X1265186D1*
X1350243D2*
X1365195D1*
X1450252D2*
X1465204D1*
X1550225D2*
X1565178D1*
X1650234D2*
X1665187D1*
X1750245D2*
X1765196D1*
X2750229D2*
X2765180D1*
X2850238D2*
X2865190D1*
X2950247D2*
X2965199D1*
X3050256D2*
X3065172D1*
X3150230D2*
X3165182D1*
X3250239D2*
X3265191D1*
X3350249D2*
X3365200D1*
X3450221D2*
X3614020D1*
X3826396D2*
X4093936D1*
X478329Y3546844D2*
X490267D1*
X700165D2*
X851046D1*
X3464360D2*
X3607777D1*
X3832640D2*
X4094007D1*
X478258Y3521976D2*
X519871D1*
X670561D2*
X850184D1*
X3465256D2*
X3612334D1*
X3828082D2*
X4094115D1*
X478221Y3497107D2*
X861775D1*
X953651D2*
X961797D1*
X1053624D2*
X1061756D1*
X1153633D2*
X1161801D1*
X1253642D2*
X1261819D1*
X1353651D2*
X1361785D1*
X1453625D2*
X1461794D1*
X1553634D2*
X1561804D1*
X1653644D2*
X1661809D1*
X1753653D2*
X1761785D1*
X2753637D2*
X2761762D1*
X2853646D2*
X2861794D1*
X2953657D2*
X2961792D1*
X3053629D2*
X3061798D1*
X3153638D2*
X3161772D1*
X3253648D2*
X3261781D1*
X3353621D2*
X3361791D1*
X3453630D2*
X3631640D1*
X3708802D2*
X3731649D1*
X3808776D2*
X4094187D1*
X549703Y3472238D2*
X565695D1*
X649712D2*
X665704D1*
X749721D2*
X765713D1*
X849730D2*
X865722D1*
X949704D2*
X965696D1*
X1049713D2*
X1065705D1*
X1149722D2*
X1165714D1*
X1249731D2*
X1265724D1*
X1349705D2*
X1365697D1*
X1449714D2*
X1465707D1*
X1549724D2*
X1565716D1*
X1649733D2*
X1665725D1*
X1749705D2*
X1765697D1*
X2749726D2*
X2765718D1*
X2849735D2*
X2865692D1*
X2949709D2*
X2965701D1*
X3049718D2*
X3065710D1*
X3149728D2*
X3165720D1*
X3249700D2*
X3265693D1*
X3349709D2*
X3365703D1*
X3449720D2*
X3614272D1*
X3826144D2*
X4094294D1*
X3464216Y3447369D2*
X3607813D1*
X3832640D2*
X4094367D1*
X3465329Y3422501D2*
X3612119D1*
X3828297D2*
X4094474D1*
X3454061Y3397632D2*
X3630959D1*
X3709485D2*
X3730968D1*
X3809459D2*
X4094545D1*
X549200Y3372763D2*
X566233D1*
X649174D2*
X666242D1*
X749183D2*
X766251D1*
X849192D2*
X866260D1*
X949166D2*
X966234D1*
X1049175D2*
X1066243D1*
X1149184D2*
X1166252D1*
X1249193D2*
X1266226D1*
X1349166D2*
X1366235D1*
X1449175D2*
X1466245D1*
X1549184D2*
X1566254D1*
X1649195D2*
X1666228D1*
X1749167D2*
X1766237D1*
X2749188D2*
X2766256D1*
X2849197D2*
X2866230D1*
X2949171D2*
X2966239D1*
X3049180D2*
X3066249D1*
X3149190D2*
X3166258D1*
X3249199D2*
X3266231D1*
X3349171D2*
X3366241D1*
X3449180D2*
X3614558D1*
X3825857D2*
X4094654D1*
X3464073Y3347894D2*
X3607813D1*
X3832603D2*
X4094725D1*
X3465436Y3323025D2*
X3611939D1*
X3828512D2*
X4094833D1*
X3454491Y3298157D2*
X3630276D1*
X3710130D2*
X3730285D1*
X3810140D2*
X4094905D1*
X548627Y3273288D2*
X566808D1*
X648636D2*
X666780D1*
X748645D2*
X766789D1*
X848617D2*
X866800D1*
X948627D2*
X966809D1*
X1048637D2*
X1066781D1*
X1148646D2*
X1166791D1*
X1248619D2*
X1266800D1*
X1348628D2*
X1366809D1*
X1448637D2*
X1466783D1*
X1548646D2*
X1566792D1*
X1648620D2*
X1666801D1*
X1748629D2*
X1766810D1*
X2748650D2*
X2766794D1*
X2848623D2*
X2866804D1*
X2948632D2*
X2966777D1*
X3048641D2*
X3066787D1*
X3148650D2*
X3166796D1*
X3248624D2*
X3266805D1*
X3348633D2*
X3366779D1*
X3448642D2*
X3614846D1*
X3825606D2*
X4095012D1*
X3463930Y3248419D2*
X3607848D1*
X3832567D2*
X4095085D1*
X3465508Y3223550D2*
X3611724D1*
X3828692D2*
X4095192D1*
X3454886Y3198682D2*
X3629630D1*
X3710776D2*
X3729640D1*
X3810785D2*
X4095263D1*
X548052Y3173813D2*
X567346D1*
X648061D2*
X667355D1*
X748070D2*
X767364D1*
X848079D2*
X867373D1*
X948053D2*
X967347D1*
X1048062D2*
X1067356D1*
X1148071D2*
X1167365D1*
X1248081D2*
X1267375D1*
X1348054D2*
X1367347D1*
X1448064D2*
X1467357D1*
X1548073D2*
X1567367D1*
X1648082D2*
X1667376D1*
X1748056D2*
X1767348D1*
X2748075D2*
X2767369D1*
X2848085D2*
X2867343D1*
X2948058D2*
X2967352D1*
X3048067D2*
X3067361D1*
X3148077D2*
X3167371D1*
X3248086D2*
X3267343D1*
X3348060D2*
X3367352D1*
X3448069D2*
X3615133D1*
X3825319D2*
X4095371D1*
X3463785Y3148944D2*
X3607885D1*
X3832532D2*
X4095443D1*
X3465616Y3124075D2*
X3611508D1*
X3828907D2*
X4095550D1*
X3455281Y3099207D2*
X3629020D1*
X3711422D2*
X3728994D1*
X3811432D2*
X4095623D1*
X547478Y3074338D2*
X567956D1*
X647487D2*
X667928D1*
X747497D2*
X767938D1*
X847506D2*
X867948D1*
X947478D2*
X967920D1*
X1047489D2*
X1067930D1*
X1147498D2*
X1167939D1*
X1247470D2*
X1267948D1*
X1347480D2*
X1367922D1*
X1447489D2*
X1467931D1*
X1547498D2*
X1567940D1*
X1647472D2*
X1667949D1*
X1747481D2*
X1767923D1*
X2747502D2*
X2767943D1*
X2847474D2*
X2867952D1*
X2947483D2*
X2967926D1*
X3047493D2*
X3067935D1*
X3147502D2*
X3167944D1*
X3247476D2*
X3267953D1*
X3347485D2*
X3367927D1*
X3447494D2*
X3615420D1*
X3825032D2*
X4095730D1*
X3463607Y3049469D2*
X3607920D1*
X3832495D2*
X4095802D1*
X3465687Y3024600D2*
X3611330D1*
X3829087D2*
X4095910D1*
X3455640Y2999731D2*
X3628410D1*
X3712032D2*
X3728384D1*
X3812041D2*
X4095981D1*
X546903Y2974863D2*
X568529D1*
X646877D2*
X668539D1*
X746886D2*
X768548D1*
X846896D2*
X868522D1*
X946905D2*
X968531D1*
X1046878D2*
X1068540D1*
X1146888D2*
X3615707D1*
X3824709D2*
X4096088D1*
X1163430Y2949994D2*
X1364082D1*
X1426246D2*
X3607956D1*
X3832460D2*
X4096161D1*
X1165763Y2925125D2*
X1341439D1*
X1448889D2*
X3611150D1*
X3829302D2*
X4096268D1*
X1156037Y2900256D2*
X1336165D1*
X1454163D2*
X1471878D1*
X1655868D2*
X3627800D1*
X3712642D2*
X3727809D1*
X3812616D2*
X4096340D1*
X477109Y2875388D2*
X1146839D1*
X1330793D2*
X1342444D1*
X1447884D2*
X1471878D1*
X1655868D2*
X3616031D1*
X3824422D2*
X4096448D1*
X477037Y2850519D2*
X1146839D1*
X1330793D2*
X1367814D1*
X1422514D2*
X1471878D1*
X1655868D2*
X3607993D1*
X3832424D2*
X4096519D1*
X477002Y2825650D2*
X1146839D1*
X1330793D2*
X1471878D1*
X1655868D2*
X2257850D1*
X2282478D2*
X3610970D1*
X3829481D2*
X4096627D1*
X476965Y2800781D2*
X1146839D1*
X1330793D2*
X1471878D1*
X1655868D2*
X2220279D1*
X2320049D2*
X3627226D1*
X3713217D2*
X3727235D1*
X3813190D2*
X4096699D1*
X476930Y2775913D2*
X1146839D1*
X1330793D2*
X1562271D1*
X1640259D2*
X2211487D1*
X2328840D2*
X3616317D1*
X3824099D2*
X4096806D1*
X476857Y2751044D2*
X1162413D1*
X1315220D2*
X1562271D1*
X1640259D2*
X2214430D1*
X2325898D2*
X3608064D1*
X3832388D2*
X4096878D1*
X476822Y2726175D2*
X642773D1*
X660012D2*
X1162413D1*
X1315220D2*
X1471878D1*
X1655868D2*
X1847226D1*
X2349367D2*
X3610791D1*
X3829661D2*
X4096986D1*
X476787Y2701306D2*
X601867D1*
X924549D2*
X959309D1*
X1378951D2*
X1471878D1*
X2374199D2*
X3626651D1*
X3713755D2*
X3726661D1*
X3813764D2*
X4097058D1*
X476750Y2676438D2*
X592788D1*
X924549D2*
X959309D1*
X1405361D2*
X1471878D1*
X2384174D2*
X3616640D1*
X3823776D2*
X4097166D1*
X476678Y2651569D2*
X578864D1*
X1421078D2*
X1471878D1*
X1929629D2*
X1965608D1*
X2149599D2*
X2306150D1*
X2384174D2*
X2931934D1*
X3020903D2*
X3608100D1*
X3832317D2*
X4097237D1*
X476642Y2626700D2*
X553997D1*
X690190D2*
X740558D1*
X1330793D2*
X1343665D1*
X1421653D2*
X1471878D1*
X1655868D2*
X1671825D1*
X1954354D2*
X1965608D1*
X2149599D2*
X2215613D1*
X2399604D2*
X2918909D1*
X3033893D2*
X3610612D1*
X3829805D2*
X4097344D1*
X476607Y2601831D2*
X538100D1*
X637368D2*
X862422D1*
X1015228D2*
X1162413D1*
X1640402D2*
X1671825D1*
X2149599D2*
X2215613D1*
X2399604D2*
X2918692D1*
X3034145D2*
X3626113D1*
X3714329D2*
X3726087D1*
X3814338D2*
X4097417D1*
X476570Y2576962D2*
X537455D1*
X615478D2*
X846812D1*
X1030802D2*
X1162413D1*
X1640402D2*
X1671825D1*
X1954927D2*
X1981218D1*
X2134025D2*
X2215613D1*
X2399604D2*
X2931037D1*
X3021800D2*
X3616964D1*
X3823453D2*
X4097524D1*
X476499Y2552094D2*
X537455D1*
X615478D2*
X846812D1*
X1141074D2*
X1162413D1*
X1640402D2*
X1648109D1*
X1931746D2*
X1981218D1*
X2134025D2*
X2215613D1*
X2399604D2*
X3608171D1*
X3832245D2*
X4097596D1*
X476462Y2527225D2*
X537455D1*
X615478D2*
X724519D1*
X778285D2*
X846812D1*
X1930813D2*
X1965608D1*
X2149599D2*
X2215613D1*
X2399604D2*
X2451876D1*
X2525952D2*
X3610432D1*
X3829983D2*
X4097704D1*
X476427Y2502356D2*
X537455D1*
X615478D2*
X698789D1*
X1172903D2*
X1196180D1*
X1710270D2*
X1746823D1*
X2149599D2*
X2306006D1*
X2384031D2*
X2433503D1*
X2544325D2*
X3625575D1*
X3714867D2*
X3725549D1*
X3814877D2*
X4097775D1*
X476392Y2477487D2*
X537455D1*
X615478D2*
X692438D1*
X1030802D2*
X1060144D1*
X1167665D2*
X1208058D1*
X1716657D2*
X1746823D1*
X2149599D2*
X2215613D1*
X2399604D2*
X2430129D1*
X2547699D2*
X3617322D1*
X3823130D2*
X4097882D1*
X476319Y2452619D2*
X537455D1*
X615478D2*
X697606D1*
X881882D2*
X1082679D1*
X1145165D2*
X1208058D1*
X1344788D2*
X1364692D1*
X1711489D2*
X1746823D1*
X2149599D2*
X2215613D1*
X2399604D2*
X2438455D1*
X2539373D2*
X2921886D1*
X3105840D2*
X3608243D1*
X3832209D2*
X4097955D1*
X476284Y2427750D2*
X537455D1*
X615478D2*
X719961D1*
X782878D2*
X936629D1*
X1053696D2*
X1105393D1*
X1344788D2*
X1420636D1*
X1557367D2*
X1626180D1*
X1689133D2*
X1746823D1*
X1930813D2*
X1965608D1*
X2149599D2*
X2215613D1*
X2399604D2*
X2449902D1*
X2527926D2*
X2921886D1*
X3105840D2*
X3610289D1*
X3830128D2*
X4098062D1*
X476247Y2402881D2*
X537455D1*
X615478D2*
X936629D1*
X1053696D2*
X1105393D1*
X1344788D2*
X1420636D1*
X1557367D2*
X1837431D1*
X1915419D2*
X2056180D1*
X2134169D2*
X2215613D1*
X2399604D2*
X2449902D1*
X2527926D2*
X2596884D1*
X2780873D2*
X2921886D1*
X3105840D2*
X3625037D1*
X3715369D2*
X3725046D1*
X3815378D2*
X4098134D1*
X476212Y2378012D2*
X537455D1*
X615478D2*
X936629D1*
X1053696D2*
X1105393D1*
X1315399D2*
X1837431D1*
X1915419D2*
X2056180D1*
X2134169D2*
X2215613D1*
X2399604D2*
X2449040D1*
X2527926D2*
X2596884D1*
X2780873D2*
X2921886D1*
X3105840D2*
X3617645D1*
X3822771D2*
X4098242D1*
X476140Y2353144D2*
X537455D1*
X615478D2*
X936629D1*
X1053696D2*
X1105393D1*
X1311272D2*
X1837431D1*
X1915419D2*
X2056180D1*
X2134169D2*
X2299906D1*
X2377930D2*
X2424172D1*
X2526347D2*
X2596884D1*
X2780873D2*
X3012279D1*
X3090267D2*
X3608315D1*
X3832137D2*
X4098314D1*
X476104Y2328275D2*
X537455D1*
X615478D2*
X936629D1*
X1390972D2*
X1837431D1*
X1922272D2*
X1939306D1*
X2134169D2*
X2151884D1*
X2288615D2*
X2299906D1*
X2377930D2*
X2399305D1*
X2507544D2*
X2596884D1*
X2780873D2*
X3012279D1*
X3090267D2*
X3610145D1*
X3830306D2*
X4098422D1*
X476069Y2303406D2*
X537455D1*
X615478D2*
X936629D1*
X1415875D2*
X1841414D1*
X2134169D2*
X2151884D1*
X2288615D2*
X2299906D1*
X2482676D2*
X2612457D1*
X2765264D2*
X2921886D1*
X3105840D2*
X3420928D1*
X3469419D2*
X3624535D1*
X3715907D2*
X3724553D1*
X3815881D2*
X4098493D1*
X476032Y2278537D2*
X537455D1*
X615478D2*
X936629D1*
X1440743D2*
X1863770D1*
X2134169D2*
X2151884D1*
X2457809D2*
X2612457D1*
X2765264D2*
X2921886D1*
X3105840D2*
X3393190D1*
X3497158D2*
X3618003D1*
X3822413D2*
X4098600D1*
X475961Y2253669D2*
X537455D1*
X615478D2*
X936629D1*
X1053696D2*
X1105393D1*
X1222460D2*
X1357372D1*
X1458111D2*
X1888637D1*
X2140628D2*
X2151884D1*
X2543356D2*
X2596884D1*
X2780873D2*
X2921886D1*
X3115457D2*
X3386228D1*
X3504120D2*
X3608386D1*
X3832065D2*
X4098672D1*
X475924Y2228800D2*
X537455D1*
X615478D2*
X1381163D1*
X1459151D2*
X1624171D1*
X1741237D2*
X1786691D1*
X1903756D2*
X1913864D1*
X2890501D2*
X2921886D1*
X3133041D2*
X3146809D1*
X3330798D2*
X3368573D1*
X3499490D2*
X3609965D1*
X3830451D2*
X4098780D1*
X475889Y2203931D2*
X537455D1*
X615478D2*
X1381163D1*
X1459151D2*
X1624171D1*
X1741237D2*
X1786691D1*
X1903756D2*
X1939306D1*
X2914722D2*
X3056165D1*
X3134154D2*
X3146809D1*
X3330798D2*
X3344315D1*
X3478535D2*
X3624032D1*
X3716410D2*
X3724061D1*
X3816384D2*
X4098852D1*
X475854Y2179062D2*
X537455D1*
X615478D2*
X1381163D1*
X1459151D2*
X1624171D1*
X1741237D2*
X1786691D1*
X1903756D2*
X1939306D1*
X2076036D2*
X2107280D1*
X2921648D2*
X3056165D1*
X3134154D2*
X3146809D1*
X3427077D2*
X3618363D1*
X3822053D2*
X4098960D1*
X475781Y2154193D2*
X537455D1*
X615478D2*
X1381163D1*
X2076036D2*
X2151884D1*
X2561155D2*
X2596884D1*
X2780873D2*
X2843659D1*
X2921648D2*
X3056165D1*
X3415234D2*
X3608459D1*
X3831957D2*
X4099031D1*
X475746Y2129325D2*
X537455D1*
X615478D2*
X1388483D1*
X2076036D2*
X2151884D1*
X2590436D2*
X2612422D1*
X2690410D2*
X2708053D1*
X3415234D2*
X3609822D1*
X3830594D2*
X4099138D1*
X475709Y2104456D2*
X537455D1*
X615478D2*
X1412848D1*
X2013634D2*
X2284333D1*
X2597829D2*
X2612422D1*
X2690410D2*
X2708053D1*
X3190420D2*
X3237201D1*
X3315225D2*
X3337210D1*
X3415234D2*
X3623529D1*
X3816886D2*
X4099210D1*
X475674Y2079587D2*
X537455D1*
X615478D2*
X1624171D1*
X1741237D2*
X1786691D1*
X1903756D2*
X1935645D1*
X2013634D2*
X2284333D1*
X2593594D2*
X2613570D1*
X3190420D2*
X3237201D1*
X3315225D2*
X3337210D1*
X3415234D2*
X3618721D1*
X3821695D2*
X4099318D1*
X475602Y2054718D2*
X537455D1*
X615478D2*
X1935645D1*
X2013634D2*
X2284333D1*
X3192825D2*
X3237201D1*
X3430808D2*
X3608531D1*
X3831885D2*
X4099390D1*
X475566Y2029850D2*
X537455D1*
X615478D2*
X1935645D1*
X2013634D2*
X2399197D1*
X2516228D2*
X2567924D1*
X2844784D2*
X2856218D1*
X3208075D2*
X3238385D1*
X3430808D2*
X3609679D1*
X3830737D2*
X4099498D1*
X475529Y2004981D2*
X537455D1*
X615478D2*
X1935645D1*
X2013634D2*
X2399197D1*
X2516228D2*
X2567924D1*
X2684991D2*
X2708053D1*
X2844784D2*
X2881086D1*
X3209726D2*
X3246818D1*
X3430808D2*
X3623064D1*
X3817352D2*
X4099570D1*
X475494Y1980112D2*
X537455D1*
X615478D2*
X1935861D1*
X2032940D2*
X2399197D1*
X2516228D2*
X2567924D1*
X2684991D2*
X2708053D1*
X2844784D2*
X2909758D1*
X3199319D2*
X3246818D1*
X3430808D2*
X3619081D1*
X3821335D2*
X4099678D1*
X475422Y1955243D2*
X537455D1*
X615478D2*
X1949569D1*
X2844784D2*
X2920630D1*
X3057397D2*
X3317868D1*
X3434935D2*
X3608638D1*
X3831814D2*
X4099749D1*
X475386Y1930375D2*
X537455D1*
X615478D2*
X1974436D1*
X2844784D2*
X2920630D1*
X3057397D2*
X3317868D1*
X3434935D2*
X3609571D1*
X3830881D2*
X4099856D1*
X475351Y1905506D2*
X537455D1*
X615478D2*
X2002606D1*
X2815430D2*
X3317868D1*
X3434935D2*
X3622596D1*
X3817819D2*
X4099928D1*
X475314Y1880637D2*
X537455D1*
X615478D2*
X2737406D1*
X2815430D2*
X3317868D1*
X3434935D2*
X3619476D1*
X3820941D2*
X4100036D1*
X475243Y1855768D2*
X537455D1*
X615478D2*
X2737406D1*
X2815430D2*
X3317868D1*
X3434935D2*
X3608709D1*
X3831707D2*
X4100108D1*
X475207Y1830899D2*
X537455D1*
X615478D2*
X2737406D1*
X2815430D2*
X3317868D1*
X3434935D2*
X3609427D1*
X3830989D2*
X4100216D1*
X475171Y1806031D2*
X537455D1*
X615478D2*
X2737406D1*
X2815430D2*
X3317868D1*
X3434935D2*
X3622130D1*
X3818285D2*
X4100287D1*
X475136Y1781162D2*
X537455D1*
X615478D2*
X2737406D1*
X2815430D2*
X3619869D1*
X3820546D2*
X4100396D1*
X475064Y1756293D2*
X537455D1*
X615478D2*
X2737406D1*
X2815430D2*
X3608817D1*
X3831599D2*
X4100466D1*
X475028Y1731424D2*
X537455D1*
X615478D2*
X2737406D1*
X2815430D2*
X3609319D1*
X3831132D2*
X4100574D1*
X474991Y1706556D2*
X537455D1*
X615478D2*
X2737406D1*
X2815430D2*
X3621700D1*
X3818716D2*
X4100646D1*
X474956Y1681687D2*
X537455D1*
X615478D2*
X2737406D1*
X2815430D2*
X3620264D1*
X3820151D2*
X4100754D1*
X474884Y1656818D2*
X537455D1*
X615478D2*
X2737406D1*
X2815430D2*
X3608926D1*
X3831491D2*
X4100826D1*
X474848Y1631949D2*
X537455D1*
X615478D2*
X2737406D1*
X2815430D2*
X3609176D1*
X3831239D2*
X4100934D1*
X474813Y1607081D2*
X537455D1*
X615478D2*
X2737406D1*
X2815430D2*
X3621270D1*
X3819146D2*
X4101004D1*
X474776Y1582212D2*
X537455D1*
X615478D2*
X2737406D1*
X2815430D2*
X3620695D1*
X3819756D2*
X4101112D1*
X474705Y1557343D2*
X537455D1*
X615478D2*
X2737406D1*
X2815430D2*
X3609033D1*
X3831384D2*
X4101184D1*
X474669Y1532474D2*
X537455D1*
X615478D2*
X2737406D1*
X2815430D2*
X3609069D1*
X3831347D2*
X4101292D1*
X474633Y1507606D2*
X537455D1*
X615478D2*
X2737406D1*
X2815430D2*
X3620839D1*
X3819578D2*
X4101364D1*
X474598Y1482737D2*
X537455D1*
X615478D2*
X2737406D1*
X2815430D2*
X3621090D1*
X3819326D2*
X4101472D1*
X474525Y1457868D2*
X537455D1*
X615478D2*
X2737406D1*
X2815430D2*
X3609141D1*
X3831276D2*
X4101544D1*
X474490Y1432999D2*
X537455D1*
X615478D2*
X2737406D1*
X2815430D2*
X3608961D1*
X3831455D2*
X4101651D1*
X474453Y1408130D2*
X537455D1*
X617452D2*
X2737406D1*
X2815430D2*
X3620444D1*
X3820008D2*
X4101722D1*
X474418Y1383262D2*
X539392D1*
X642319D2*
X2737406D1*
X2815430D2*
X3621520D1*
X3818896D2*
X4101830D1*
X474346Y1358393D2*
X558948D1*
X667187D2*
X2737406D1*
X2815430D2*
X3609249D1*
X3831169D2*
X4101902D1*
X474310Y1333524D2*
X583817D1*
X692056D2*
X2737406D1*
X2815430D2*
X3608854D1*
X3831562D2*
X4102010D1*
X474273Y1308655D2*
X608684D1*
X716923D2*
X2737406D1*
X2815430D2*
X3620014D1*
X3820402D2*
X4102082D1*
X474238Y1283787D2*
X633552D1*
X741791D2*
X2737406D1*
X2815430D2*
X3621987D1*
X3818465D2*
X4102190D1*
X474166Y1258918D2*
X658419D1*
X766658D2*
X2737406D1*
X2815430D2*
X3609392D1*
X3831024D2*
X4102260D1*
X474130Y1234049D2*
X683288D1*
X791527D2*
X2737406D1*
X2815430D2*
X3608746D1*
X3831670D2*
X4102368D1*
X474095Y1209180D2*
X708155D1*
X816394D2*
X2737406D1*
X2815430D2*
X3619619D1*
X3820797D2*
X4102440D1*
X474058Y1184312D2*
X733058D1*
X841262D2*
X2737406D1*
X2815430D2*
X3622418D1*
X3817998D2*
X4102548D1*
X473987Y1159443D2*
X757927D1*
X866166D2*
X2737406D1*
X2822392D2*
X3609499D1*
X3830917D2*
X4102620D1*
X473951Y1134574D2*
X782794D1*
X891033D2*
X2741461D1*
X2847259D2*
X3608674D1*
X3831777D2*
X4102728D1*
X473915Y1109705D2*
X807662D1*
X915901D2*
X2763889D1*
X2872128D2*
X3619260D1*
X3821192D2*
X4102800D1*
X473880Y1084836D2*
X832529D1*
X940768D2*
X2788756D1*
X2896995D2*
X3622884D1*
X3817532D2*
X4102907D1*
X473808Y1059968D2*
X857397D1*
X965636D2*
X2813624D1*
X2921863D2*
X3609642D1*
X3830773D2*
X4102978D1*
X473772Y1035099D2*
X882266D1*
X990504D2*
X2838491D1*
X2946730D2*
X3608566D1*
X3831850D2*
X4103086D1*
X473735Y1010230D2*
X907133D1*
X1015372D2*
X2863359D1*
X2971598D2*
X3618865D1*
X3821550D2*
X4103158D1*
X473700Y985361D2*
X932001D1*
X2160724D2*
X2888228D1*
X2996466D2*
X3623351D1*
X3817065D2*
X4103266D1*
X473628Y960493D2*
X956868D1*
X2190112D2*
X2913095D1*
X3021334D2*
X3609787D1*
X3830629D2*
X4103338D1*
X473592Y935624D2*
X981737D1*
X2214980D2*
X2937962D1*
X3046201D2*
X3608494D1*
X3831922D2*
X4103445D1*
X473557Y910755D2*
X2131609D1*
X2239848D2*
X2962830D1*
X3071069D2*
X3618506D1*
X3821945D2*
X4103516D1*
X473520Y885886D2*
X2156477D1*
X2264716D2*
X2987734D1*
X3095936D2*
X3623854D1*
X3816599D2*
X4103624D1*
X473449Y861018D2*
X529487D1*
X660907D2*
X2181344D1*
X2289583D2*
X3012602D1*
X3120840D2*
X3609930D1*
X3830486D2*
X4103696D1*
X473413Y836149D2*
X495469D1*
X694962D2*
X2206212D1*
X2313662D2*
X3037469D1*
X3145708D2*
X3608423D1*
X3832029D2*
X4103804D1*
X714699Y811280D2*
X2231081D1*
X2320300D2*
X3062338D1*
X3822305D2*
X4103876D1*
X726827Y786411D2*
X2242276D1*
X2320300D2*
X3087205D1*
X3816096D2*
X4103983D1*
X733430Y761543D2*
X2242276D1*
X2320300D2*
X3115625D1*
X3830343D2*
X4104056D1*
X735331Y736674D2*
X2242276D1*
X2320300D2*
X3608315D1*
X3832102D2*
X4104163D1*
X732676Y711805D2*
X2242276D1*
X2320300D2*
X3617788D1*
X3822663D2*
X3894922D1*
X4045504D2*
X4104234D1*
X725212Y686936D2*
X2242276D1*
X2320300D2*
X3624857D1*
X3832675D2*
X3865281D1*
X4075145D2*
X4104342D1*
X712007Y662067D2*
X2242276D1*
X2320300D2*
X3610217D1*
X3832675D2*
X3847519D1*
X4092907D2*
X4104443D1*
X473054Y637199D2*
X499812D1*
X690585D2*
X2058405D1*
X2169550D2*
X2235350D1*
X2327226D2*
X2393025D1*
X2504171D2*
X3608243D1*
X473018Y612330D2*
X538315D1*
X652116D2*
X2058405D1*
X2169550D2*
X2235350D1*
X2327226D2*
X2393025D1*
X2504171D2*
X3617430D1*
X472982Y587461D2*
X2058405D1*
X2169550D2*
X2235350D1*
X2327226D2*
X2393025D1*
X2504171D2*
X3650873D1*
X3689569D2*
X3707750D1*
X472910Y562592D2*
X2058405D1*
X2169550D2*
X2235350D1*
X2327226D2*
X2393025D1*
X2504171D2*
X3833955D1*
X472875Y537724D2*
X2058405D1*
X2169550D2*
X2235350D1*
X2327226D2*
X2393025D1*
X2504171D2*
X3842567D1*
X472839Y512855D2*
X2058405D1*
X2169550D2*
X2235350D1*
X2327226D2*
X2393025D1*
X2504171D2*
X3857280D1*
X4083146D2*
X4104952D1*
X472802Y487986D2*
X2058405D1*
X2169550D2*
X2235350D1*
X2327226D2*
X2393025D1*
X2504171D2*
X3881179D1*
X4059247D2*
X4105060D1*
X472731Y463117D2*
X2058405D1*
X2169550D2*
X2235350D1*
X2327226D2*
X2393025D1*
X2504171D2*
X3928367D1*
X4012060D2*
X4105132D1*
X2926209Y2319787D2*
X3014764D1*
X3014766Y2357739D1*
X2924372Y2357733D1*
Y2469788D1*
X3103356D1*
Y2357733D1*
X3087747D1*
X3087766Y2319780D1*
X3103356Y2319787D1*
Y2263270D1*
X3122918Y2243566D1*
X3126285Y2238932D1*
X3128885Y2233830D1*
X3130655Y2228382D1*
X3131550Y2222725D1*
X3131663Y2173930D1*
Y2158104D1*
X3149329Y2175794D1*
X3149322Y2232287D1*
X3328306D1*
Y2120231D1*
X3312697D1*
X3312716Y2069791D1*
X3339716Y2069787D1*
X3339830Y2185176D1*
X3340725Y2190834D1*
X3342495Y2196281D1*
X3345096Y2201384D1*
X3348462Y2206018D1*
X3382886Y2240602D1*
X3388838Y2246826D1*
Y2255692D1*
X3390225Y2264449D1*
X3392964Y2272881D1*
X3396989Y2280780D1*
X3402200Y2287953D1*
X3408469Y2294222D1*
X3415642Y2299434D1*
X3423541Y2303459D1*
X3431973Y2306197D1*
X3440730Y2307585D1*
X3449596D1*
X3458354Y2306197D1*
X3466785Y2303459D1*
X3474684Y2299434D1*
X3481857Y2294222D1*
X3488127Y2287953D1*
X3493338Y2280780D1*
X3497363Y2272881D1*
X3500102Y2264449D1*
X3501489Y2255692D1*
Y2246826D1*
X3500102Y2238069D1*
X3497363Y2229637D1*
X3493338Y2221738D1*
X3488127Y2214565D1*
X3481857Y2208296D1*
X3474684Y2203085D1*
X3466785Y2199060D1*
X3458354Y2196321D1*
X3449596Y2194934D1*
X3440472Y2194964D1*
X3412739Y2167217D1*
X3412717Y2069815D1*
X3428308Y2069787D1*
Y1971930D1*
X3432440Y1971902D1*
Y1792918D1*
X3320385D1*
Y1957754D1*
X3249323Y1957731D1*
Y2014249D1*
X3245094Y2019886D1*
X3242494Y2024989D1*
X3240724Y2030436D1*
X3239829Y2036094D1*
X3239716Y2084889D1*
Y2120235D1*
X3196986Y2120231D1*
X3187918Y2111145D1*
X3188108Y2056724D1*
X3194377Y2050455D1*
X3199588Y2043281D1*
X3203613Y2035382D1*
X3206352Y2026951D1*
X3207739Y2018193D1*
Y2009327D1*
X3206352Y2000570D1*
X3203613Y1992138D1*
X3199588Y1984239D1*
X3194377Y1977066D1*
X3188108Y1970797D1*
X3180935Y1965586D1*
X3173036Y1961561D1*
X3164604Y1958822D1*
X3155847Y1957435D1*
X3146981D1*
X3138224Y1958822D1*
X3129792Y1961561D1*
X3121893Y1965586D1*
X3114720Y1970797D1*
X3108291Y1977271D1*
X3054850Y1977260D1*
X3054882Y1925449D1*
X2923142D1*
Y1977373D1*
X2917890Y1978268D1*
X2912443Y1980039D1*
X2907340Y1982638D1*
X2902707Y1986006D1*
X2868123Y2020430D1*
X2854907Y2033805D1*
X2851540Y2038439D1*
X2848940Y2043541D1*
X2847170Y2048989D1*
X2846275Y2054646D1*
X2846162Y2103441D1*
Y2167423D1*
X2842567Y2170986D1*
X2778322Y2171010D1*
X2778356Y2152071D1*
X2842284D1*
Y1925449D1*
X2812896D1*
X2812914Y1166449D1*
X3147842Y831498D1*
X3611802Y831508D1*
X3610434Y840304D1*
Y849713D1*
X3611906Y859007D1*
X3614813Y867956D1*
X3619085Y876340D1*
X3624616Y883952D1*
X3631270Y890606D1*
X3637154Y894982D1*
X3631270Y899411D1*
X3624616Y906065D1*
X3619085Y913676D1*
X3614813Y922061D1*
X3611906Y931010D1*
X3610434Y940304D1*
Y949713D1*
X3611906Y959007D1*
X3614813Y967956D1*
X3619085Y976340D1*
X3624616Y983952D1*
X3631270Y990606D1*
X3637154Y994982D1*
X3631270Y999411D1*
X3624616Y1006065D1*
X3619085Y1013676D1*
X3614813Y1022061D1*
X3611906Y1031010D1*
X3610434Y1040304D1*
Y1049713D1*
X3611906Y1059007D1*
X3614813Y1067956D1*
X3619085Y1076340D1*
X3624616Y1083952D1*
X3631270Y1090606D1*
X3637154Y1094982D1*
X3631270Y1099411D1*
X3624616Y1106065D1*
X3619085Y1113676D1*
X3614813Y1122061D1*
X3611906Y1131010D1*
X3610434Y1140304D1*
Y1149713D1*
X3611906Y1159007D1*
X3614813Y1167956D1*
X3619085Y1176340D1*
X3624616Y1183952D1*
X3631270Y1190606D1*
X3637154Y1194982D1*
X3631270Y1199411D1*
X3624616Y1206065D1*
X3619085Y1213676D1*
X3614813Y1222061D1*
X3611906Y1231010D1*
X3610434Y1240304D1*
Y1249713D1*
X3611906Y1259007D1*
X3614813Y1267956D1*
X3619085Y1276340D1*
X3624616Y1283952D1*
X3631270Y1290606D1*
X3637154Y1294982D1*
X3631270Y1299411D1*
X3624616Y1306065D1*
X3619085Y1313676D1*
X3614813Y1322061D1*
X3611906Y1331010D1*
X3610434Y1340304D1*
Y1349713D1*
X3611906Y1359007D1*
X3614813Y1367956D1*
X3619085Y1376340D1*
X3624616Y1383952D1*
X3631270Y1390606D1*
X3637154Y1394982D1*
X3631270Y1399411D1*
X3624616Y1406065D1*
X3619085Y1413676D1*
X3614813Y1422061D1*
X3611906Y1431010D1*
X3610434Y1440304D1*
Y1449713D1*
X3611906Y1459007D1*
X3614813Y1467956D1*
X3619085Y1476340D1*
X3624616Y1483952D1*
X3631270Y1490606D1*
X3637154Y1494982D1*
X3631270Y1499411D1*
X3624616Y1506065D1*
X3619085Y1513676D1*
X3614813Y1522061D1*
X3611906Y1531010D1*
X3610434Y1540304D1*
Y1549713D1*
X3611906Y1559007D1*
X3614813Y1567956D1*
X3619085Y1576340D1*
X3624616Y1583952D1*
X3631270Y1590606D1*
X3637154Y1594982D1*
X3631270Y1599411D1*
X3624616Y1606065D1*
X3619085Y1613676D1*
X3614813Y1622061D1*
X3611906Y1631010D1*
X3610434Y1640304D1*
Y1649713D1*
X3611906Y1659007D1*
X3614813Y1667956D1*
X3619085Y1676340D1*
X3624616Y1683952D1*
X3631270Y1690606D1*
X3637154Y1694982D1*
X3631270Y1699411D1*
X3624616Y1706065D1*
X3619085Y1713676D1*
X3614813Y1722061D1*
X3611906Y1731010D1*
X3610434Y1740304D1*
Y1749713D1*
X3611906Y1759007D1*
X3614813Y1767956D1*
X3619085Y1776340D1*
X3624616Y1783952D1*
X3631270Y1790606D1*
X3637154Y1794982D1*
X3631270Y1799411D1*
X3624616Y1806065D1*
X3619085Y1813676D1*
X3614813Y1822061D1*
X3611906Y1831010D1*
X3610434Y1840304D1*
Y1849713D1*
X3611906Y1859007D1*
X3614813Y1867956D1*
X3619085Y1876340D1*
X3624616Y1883952D1*
X3631270Y1890606D1*
X3637154Y1894982D1*
X3631270Y1899411D1*
X3624616Y1906065D1*
X3619085Y1913676D1*
X3614813Y1922061D1*
X3611906Y1931010D1*
X3610434Y1940304D1*
Y1949713D1*
X3611906Y1959007D1*
X3614813Y1967956D1*
X3619085Y1976340D1*
X3624616Y1983952D1*
X3631270Y1990606D1*
X3637154Y1994982D1*
X3631270Y1999411D1*
X3624616Y2006065D1*
X3619085Y2013676D1*
X3614813Y2022061D1*
X3611906Y2031010D1*
X3610434Y2040304D1*
Y2049713D1*
X3611906Y2059007D1*
X3614813Y2067956D1*
X3619085Y2076340D1*
X3624616Y2083952D1*
X3631270Y2090606D1*
X3637154Y2094982D1*
X3631270Y2099411D1*
X3624616Y2106065D1*
X3619085Y2113676D1*
X3614813Y2122061D1*
X3611906Y2131010D1*
X3610434Y2140304D1*
Y2149713D1*
X3611906Y2159007D1*
X3614813Y2167956D1*
X3619085Y2176340D1*
X3624616Y2183952D1*
X3631270Y2190606D1*
X3637154Y2194982D1*
X3631270Y2199411D1*
X3624616Y2206065D1*
X3619085Y2213676D1*
X3614813Y2222061D1*
X3611906Y2231010D1*
X3610434Y2240304D1*
Y2249713D1*
X3611906Y2259007D1*
X3614813Y2267956D1*
X3619085Y2276340D1*
X3624616Y2283952D1*
X3631270Y2290606D1*
X3637154Y2294982D1*
X3631270Y2299411D1*
X3624616Y2306065D1*
X3619085Y2313676D1*
X3614813Y2322061D1*
X3611906Y2331010D1*
X3610434Y2340304D1*
Y2349713D1*
X3611906Y2359007D1*
X3614813Y2367956D1*
X3619085Y2376340D1*
X3624616Y2383952D1*
X3631270Y2390606D1*
X3637154Y2394982D1*
X3631270Y2399411D1*
X3624616Y2406065D1*
X3619085Y2413676D1*
X3614813Y2422061D1*
X3611906Y2431010D1*
X3610434Y2440304D1*
Y2449713D1*
X3611906Y2459007D1*
X3614813Y2467956D1*
X3619085Y2476340D1*
X3624616Y2483952D1*
X3631270Y2490606D1*
X3637154Y2494982D1*
X3631270Y2499411D1*
X3624616Y2506065D1*
X3619085Y2513676D1*
X3614813Y2522061D1*
X3611906Y2531010D1*
X3610434Y2540304D1*
Y2549713D1*
X3611906Y2559007D1*
X3614813Y2567956D1*
X3619085Y2576340D1*
X3624616Y2583952D1*
X3631270Y2590606D1*
X3637154Y2594982D1*
X3631270Y2599411D1*
X3624616Y2606065D1*
X3619085Y2613676D1*
X3614813Y2622061D1*
X3611906Y2631010D1*
X3610434Y2640304D1*
Y2649713D1*
X3611906Y2659007D1*
X3614813Y2667956D1*
X3619085Y2676340D1*
X3624616Y2683952D1*
X3631270Y2690606D1*
X3637154Y2694982D1*
X3631270Y2699411D1*
X3624616Y2706065D1*
X3619085Y2713676D1*
X3614813Y2722061D1*
X3611906Y2731010D1*
X3610434Y2740304D1*
Y2749713D1*
X3611906Y2759007D1*
X3614813Y2767956D1*
X3619085Y2776340D1*
X3624616Y2783952D1*
X3631270Y2790606D1*
X3637154Y2794982D1*
X3631270Y2799411D1*
X3624616Y2806065D1*
X3619085Y2813676D1*
X3614813Y2822061D1*
X3611906Y2831010D1*
X3610434Y2840304D1*
Y2849713D1*
X3611906Y2859007D1*
X3614813Y2867956D1*
X3619085Y2876340D1*
X3624616Y2883952D1*
X3631270Y2890606D1*
X3637154Y2894982D1*
X3631270Y2899411D1*
X3624616Y2906065D1*
X3619085Y2913676D1*
X3614813Y2922061D1*
X3611906Y2931010D1*
X3610434Y2940304D1*
Y2949713D1*
X3611906Y2959007D1*
X3614813Y2967956D1*
X3619085Y2976340D1*
X3624616Y2983952D1*
X3631270Y2990606D1*
X3637154Y2994982D1*
X3631270Y2999411D1*
X3624616Y3006065D1*
X3619085Y3013676D1*
X3614813Y3022061D1*
X3611906Y3031010D1*
X3610434Y3040304D1*
Y3049713D1*
X3611906Y3059007D1*
X3614813Y3067956D1*
X3619085Y3076340D1*
X3624616Y3083952D1*
X3631270Y3090606D1*
X3637154Y3094982D1*
X3631270Y3099411D1*
X3624616Y3106065D1*
X3619085Y3113676D1*
X3614813Y3122061D1*
X3611906Y3131010D1*
X3610434Y3140304D1*
Y3149713D1*
X3611906Y3159007D1*
X3614813Y3167956D1*
X3619085Y3176340D1*
X3624616Y3183952D1*
X3631270Y3190606D1*
X3637154Y3194982D1*
X3631270Y3199411D1*
X3624616Y3206065D1*
X3619085Y3213676D1*
X3614813Y3222061D1*
X3611906Y3231010D1*
X3610434Y3240304D1*
Y3249713D1*
X3611906Y3259007D1*
X3614813Y3267956D1*
X3619085Y3276340D1*
X3624616Y3283952D1*
X3631270Y3290606D1*
X3637154Y3294982D1*
X3631270Y3299411D1*
X3624616Y3306065D1*
X3619085Y3313676D1*
X3614813Y3322061D1*
X3611906Y3331010D1*
X3610434Y3340304D1*
Y3349713D1*
X3611906Y3359007D1*
X3614813Y3367956D1*
X3619085Y3376340D1*
X3624616Y3383952D1*
X3631270Y3390606D1*
X3637154Y3394982D1*
X3631270Y3399411D1*
X3624616Y3406065D1*
X3619085Y3413676D1*
X3614813Y3422061D1*
X3611906Y3431010D1*
X3610434Y3440304D1*
Y3449713D1*
X3611906Y3459007D1*
X3614813Y3467956D1*
X3619085Y3476340D1*
X3624616Y3483952D1*
X3631270Y3490606D1*
X3637154Y3494982D1*
X3631270Y3499411D1*
X3624616Y3506065D1*
X3619085Y3513676D1*
X3614813Y3522061D1*
X3611906Y3531010D1*
X3610434Y3540304D1*
Y3549713D1*
X3611906Y3559007D1*
X3614813Y3567956D1*
X3619085Y3576340D1*
X3624616Y3583952D1*
X3631270Y3590606D1*
X3637154Y3594982D1*
X3631270Y3599411D1*
X3624616Y3606065D1*
X3619085Y3613676D1*
X3614813Y3622061D1*
X3611906Y3631010D1*
X3610434Y3640304D1*
Y3649713D1*
X3611906Y3659007D1*
X3614813Y3667956D1*
X3619085Y3676340D1*
X3624616Y3683952D1*
X3631270Y3690606D1*
X3637154Y3694982D1*
X3631270Y3699411D1*
X3624616Y3706065D1*
X3619085Y3713676D1*
X3614813Y3722061D1*
X3611906Y3731010D1*
X3610434Y3740304D1*
Y3749713D1*
X3611906Y3759007D1*
X3614813Y3767956D1*
X3619085Y3776340D1*
X3624616Y3783952D1*
X3631270Y3790606D1*
X3638881Y3796137D1*
X3647266Y3800409D1*
X3656214Y3803315D1*
X3665508Y3804788D1*
X3674918D1*
X3684212Y3803315D1*
X3693161Y3800409D1*
X3701545Y3796137D1*
X3709157Y3790606D1*
X3715810Y3783952D1*
X3720187Y3778067D1*
X3724616Y3783952D1*
X3731270Y3790606D1*
X3738881Y3796137D1*
X3747266Y3800409D1*
X3756214Y3803315D1*
X3765508Y3804788D1*
X3774918D1*
X3784212Y3803315D1*
X3793161Y3800409D1*
X3801545Y3796137D1*
X3809157Y3790606D1*
X3815810Y3783952D1*
X3821342Y3776340D1*
X3825613Y3767956D1*
X3828520Y3759007D1*
X3829993Y3749713D1*
Y3740304D1*
X3828520Y3731010D1*
X3825613Y3722061D1*
X3821342Y3713676D1*
X3815810Y3706065D1*
X3809157Y3699411D1*
X3803272Y3695035D1*
X3809157Y3690606D1*
X3815810Y3683952D1*
X3821342Y3676340D1*
X3825613Y3667956D1*
X3828520Y3659007D1*
X3829993Y3649713D1*
Y3640304D1*
X3828520Y3631010D1*
X3825613Y3622061D1*
X3821342Y3613676D1*
X3815810Y3606065D1*
X3809157Y3599411D1*
X3803272Y3595035D1*
X3809157Y3590606D1*
X3815810Y3583952D1*
X3821342Y3576340D1*
X3825613Y3567956D1*
X3828520Y3559007D1*
X3829993Y3549713D1*
Y3540304D1*
X3828520Y3531010D1*
X3825613Y3522061D1*
X3821342Y3513676D1*
X3815810Y3506065D1*
X3809157Y3499411D1*
X3803272Y3495035D1*
X3809157Y3490606D1*
X3815810Y3483952D1*
X3821342Y3476340D1*
X3825613Y3467956D1*
X3828520Y3459007D1*
X3829993Y3449713D1*
Y3440304D1*
X3828520Y3431010D1*
X3825613Y3422061D1*
X3821342Y3413676D1*
X3815810Y3406065D1*
X3809157Y3399411D1*
X3803272Y3395035D1*
X3809157Y3390606D1*
X3815810Y3383952D1*
X3821342Y3376340D1*
X3825613Y3367956D1*
X3828520Y3359007D1*
X3829993Y3349713D1*
Y3340304D1*
X3828520Y3331010D1*
X3825613Y3322061D1*
X3821342Y3313676D1*
X3815810Y3306065D1*
X3809157Y3299411D1*
X3803272Y3295035D1*
X3809157Y3290606D1*
X3815810Y3283952D1*
X3821342Y3276340D1*
X3825613Y3267956D1*
X3828520Y3259007D1*
X3829993Y3249713D1*
Y3240304D1*
X3828520Y3231010D1*
X3825613Y3222061D1*
X3821342Y3213676D1*
X3815810Y3206065D1*
X3809157Y3199411D1*
X3803272Y3195035D1*
X3809157Y3190606D1*
X3815810Y3183952D1*
X3821342Y3176340D1*
X3825613Y3167956D1*
X3828520Y3159007D1*
X3829993Y3149713D1*
Y3140304D1*
X3828520Y3131010D1*
X3825613Y3122061D1*
X3821342Y3113676D1*
X3815810Y3106065D1*
X3809157Y3099411D1*
X3803272Y3095035D1*
X3809157Y3090606D1*
X3815810Y3083952D1*
X3821342Y3076340D1*
X3825613Y3067956D1*
X3828520Y3059007D1*
X3829993Y3049713D1*
Y3040304D1*
X3828520Y3031010D1*
X3825613Y3022061D1*
X3821342Y3013676D1*
X3815810Y3006065D1*
X3809157Y2999411D1*
X3803272Y2995035D1*
X3809157Y2990606D1*
X3815810Y2983952D1*
X3821342Y2976340D1*
X3825613Y2967956D1*
X3828520Y2959007D1*
X3829993Y2949713D1*
Y2940304D1*
X3828520Y2931010D1*
X3825613Y2922061D1*
X3821342Y2913676D1*
X3815810Y2906065D1*
X3809157Y2899411D1*
X3803272Y2895035D1*
X3809157Y2890606D1*
X3815810Y2883952D1*
X3821342Y2876340D1*
X3825613Y2867956D1*
X3828520Y2859007D1*
X3829993Y2849713D1*
Y2840304D1*
X3828520Y2831010D1*
X3825613Y2822061D1*
X3821342Y2813676D1*
X3815810Y2806065D1*
X3809157Y2799411D1*
X3803272Y2795035D1*
X3809157Y2790606D1*
X3815810Y2783952D1*
X3821342Y2776340D1*
X3825613Y2767956D1*
X3828520Y2759007D1*
X3829993Y2749713D1*
Y2740304D1*
X3828520Y2731010D1*
X3825613Y2722061D1*
X3821342Y2713676D1*
X3815810Y2706065D1*
X3809157Y2699411D1*
X3803272Y2695035D1*
X3809157Y2690606D1*
X3815810Y2683952D1*
X3821342Y2676340D1*
X3825613Y2667956D1*
X3828520Y2659007D1*
X3829993Y2649713D1*
Y2640304D1*
X3828520Y2631010D1*
X3825613Y2622061D1*
X3821342Y2613676D1*
X3815810Y2606065D1*
X3809157Y2599411D1*
X3803272Y2595035D1*
X3809157Y2590606D1*
X3815810Y2583952D1*
X3821342Y2576340D1*
X3825613Y2567956D1*
X3828520Y2559007D1*
X3829993Y2549713D1*
Y2540304D1*
X3828520Y2531010D1*
X3825613Y2522061D1*
X3821342Y2513676D1*
X3815810Y2506065D1*
X3809157Y2499411D1*
X3803272Y2495035D1*
X3809157Y2490606D1*
X3815810Y2483952D1*
X3821342Y2476340D1*
X3825613Y2467956D1*
X3828520Y2459007D1*
X3829993Y2449713D1*
Y2440304D1*
X3828520Y2431010D1*
X3825613Y2422061D1*
X3821342Y2413676D1*
X3815810Y2406065D1*
X3809157Y2399411D1*
X3803272Y2395035D1*
X3809157Y2390606D1*
X3815810Y2383952D1*
X3821342Y2376340D1*
X3825613Y2367956D1*
X3828520Y2359007D1*
X3829993Y2349713D1*
Y2340304D1*
X3828520Y2331010D1*
X3825613Y2322061D1*
X3821342Y2313676D1*
X3815810Y2306065D1*
X3809157Y2299411D1*
X3803272Y2295035D1*
X3809157Y2290606D1*
X3815810Y2283952D1*
X3821342Y2276340D1*
X3825613Y2267956D1*
X3828520Y2259007D1*
X3829993Y2249713D1*
Y2240304D1*
X3828520Y2231010D1*
X3825613Y2222061D1*
X3821342Y2213676D1*
X3815810Y2206065D1*
X3809157Y2199411D1*
X3803272Y2195035D1*
X3809157Y2190606D1*
X3815810Y2183952D1*
X3821342Y2176340D1*
X3825613Y2167956D1*
X3828520Y2159007D1*
X3829993Y2149713D1*
Y2140304D1*
X3828520Y2131010D1*
X3825613Y2122061D1*
X3821342Y2113676D1*
X3815810Y2106065D1*
X3809157Y2099411D1*
X3803272Y2095035D1*
X3809157Y2090606D1*
X3815810Y2083952D1*
X3821342Y2076340D1*
X3825613Y2067956D1*
X3828520Y2059007D1*
X3829993Y2049713D1*
Y2040304D1*
X3828520Y2031010D1*
X3825613Y2022061D1*
X3821342Y2013676D1*
X3815810Y2006065D1*
X3809157Y1999411D1*
X3803272Y1995035D1*
X3809157Y1990606D1*
X3815810Y1983952D1*
X3821342Y1976340D1*
X3825613Y1967956D1*
X3828520Y1959007D1*
X3829993Y1949713D1*
Y1940304D1*
X3828520Y1931010D1*
X3825613Y1922061D1*
X3821342Y1913676D1*
X3815810Y1906065D1*
X3809157Y1899411D1*
X3803272Y1895035D1*
X3809157Y1890606D1*
X3815810Y1883952D1*
X3821342Y1876340D1*
X3825613Y1867956D1*
X3828520Y1859007D1*
X3829993Y1849713D1*
Y1840304D1*
X3828520Y1831010D1*
X3825613Y1822061D1*
X3821342Y1813676D1*
X3815810Y1806065D1*
X3809157Y1799411D1*
X3803272Y1795035D1*
X3809157Y1790606D1*
X3815810Y1783952D1*
X3821342Y1776340D1*
X3825613Y1767956D1*
X3828520Y1759007D1*
X3829993Y1749713D1*
Y1740304D1*
X3828520Y1731010D1*
X3825613Y1722061D1*
X3821342Y1713676D1*
X3815810Y1706065D1*
X3809157Y1699411D1*
X3803272Y1695035D1*
X3809157Y1690606D1*
X3815810Y1683952D1*
X3821342Y1676340D1*
X3825613Y1667956D1*
X3828520Y1659007D1*
X3829993Y1649713D1*
Y1640304D1*
X3828520Y1631010D1*
X3825613Y1622061D1*
X3821342Y1613676D1*
X3815810Y1606065D1*
X3809157Y1599411D1*
X3803272Y1595035D1*
X3809157Y1590606D1*
X3815810Y1583952D1*
X3821342Y1576340D1*
X3825613Y1567956D1*
X3828520Y1559007D1*
X3829993Y1549713D1*
Y1540304D1*
X3828520Y1531010D1*
X3825613Y1522061D1*
X3821342Y1513676D1*
X3815810Y1506065D1*
X3809157Y1499411D1*
X3803272Y1495035D1*
X3809157Y1490606D1*
X3815810Y1483952D1*
X3821342Y1476340D1*
X3825613Y1467956D1*
X3828520Y1459007D1*
X3829993Y1449713D1*
Y1440304D1*
X3828520Y1431010D1*
X3825613Y1422061D1*
X3821342Y1413676D1*
X3815810Y1406065D1*
X3809157Y1399411D1*
X3803272Y1395035D1*
X3809157Y1390606D1*
X3815810Y1383952D1*
X3821342Y1376340D1*
X3825613Y1367956D1*
X3828520Y1359007D1*
X3829993Y1349713D1*
Y1340304D1*
X3828520Y1331010D1*
X3825613Y1322061D1*
X3821342Y1313676D1*
X3815810Y1306065D1*
X3809157Y1299411D1*
X3803272Y1295035D1*
X3809157Y1290606D1*
X3815810Y1283952D1*
X3821342Y1276340D1*
X3825613Y1267956D1*
X3828520Y1259007D1*
X3829993Y1249713D1*
Y1240304D1*
X3828520Y1231010D1*
X3825613Y1222061D1*
X3821342Y1213676D1*
X3815810Y1206065D1*
X3809157Y1199411D1*
X3803272Y1195035D1*
X3809157Y1190606D1*
X3815810Y1183952D1*
X3821342Y1176340D1*
X3825613Y1167956D1*
X3828520Y1159007D1*
X3829993Y1149713D1*
Y1140304D1*
X3828520Y1131010D1*
X3825613Y1122061D1*
X3821342Y1113676D1*
X3815810Y1106065D1*
X3809157Y1099411D1*
X3803272Y1095035D1*
X3809157Y1090606D1*
X3815810Y1083952D1*
X3821342Y1076340D1*
X3825613Y1067956D1*
X3828520Y1059007D1*
X3829993Y1049713D1*
Y1040304D1*
X3828520Y1031010D1*
X3825613Y1022061D1*
X3821342Y1013676D1*
X3815810Y1006065D1*
X3809157Y999411D1*
X3803272Y995035D1*
X3809157Y990606D1*
X3815810Y983952D1*
X3821342Y976340D1*
X3825613Y967956D1*
X3828520Y959007D1*
X3829993Y949713D1*
Y940304D1*
X3828520Y931010D1*
X3825613Y922061D1*
X3821342Y913676D1*
X3815810Y906065D1*
X3809157Y899411D1*
X3803272Y895035D1*
X3809157Y890606D1*
X3815810Y883952D1*
X3821342Y876340D1*
X3825613Y867956D1*
X3828520Y859007D1*
X3829993Y849713D1*
Y840304D1*
X3828520Y831010D1*
X3825613Y822061D1*
X3821342Y813676D1*
X3815810Y806065D1*
X3809157Y799411D1*
X3803272Y795035D1*
X3809157Y790606D1*
X3815810Y783952D1*
X3821342Y776340D1*
X3825613Y767956D1*
X3828520Y759007D1*
X3829993Y749713D1*
Y740304D1*
X3828520Y731010D1*
X3825613Y722061D1*
X3821342Y713676D1*
X3815810Y706065D1*
X3814973Y704973D1*
X3830178D1*
Y585044D1*
X3710249D1*
Y600367D1*
X3705460Y596497D1*
X3697436Y591579D1*
X3688743Y587978D1*
X3679594Y585783D1*
X3670213Y585044D1*
X3660833Y585783D1*
X3651683Y587978D1*
X3642990Y591579D1*
X3634966Y596497D1*
X3627812Y602607D1*
X3621701Y609762D1*
X3616784Y617785D1*
X3613183Y626478D1*
X3610987Y635628D1*
X3610249Y645008D1*
X3610987Y654389D1*
X3613183Y663539D1*
X3616784Y672231D1*
X3621701Y680255D1*
X3627812Y687410D1*
X3634966Y693520D1*
X3637154Y694982D1*
X3631270Y699411D1*
X3624616Y706065D1*
X3619085Y713676D1*
X3614813Y722061D1*
X3611906Y731010D1*
X3610434Y740304D1*
Y749713D1*
X3611809Y758520D1*
X3129850Y758621D1*
X3124192Y759516D1*
X3118745Y761287D1*
X3113642Y763886D1*
X3109008Y767254D1*
X3074424Y801678D1*
X2748659Y1127603D1*
X2745292Y1132237D1*
X2742692Y1137339D1*
X2740922Y1142787D1*
X2740027Y1148444D1*
X2739914Y1197239D1*
Y1902472D1*
X2682460Y1902455D1*
X2682490Y1886864D1*
X2570435D1*
Y1902473D1*
X2513750Y1902455D1*
X2513741Y1886864D1*
X2401686D1*
Y1902258D1*
X2017300Y1902372D1*
X2011642Y1903267D1*
X2006195Y1905037D1*
X2001092Y1907637D1*
X1996459Y1911004D1*
X1961875Y1945428D1*
X1946882Y1960581D1*
X1943516Y1965214D1*
X1940915Y1970317D1*
X1939145Y1975764D1*
X1938250Y1981422D1*
X1938137Y2030217D1*
Y2083721D1*
X1901210Y2083705D1*
X1901241Y2068115D1*
X1789186D1*
Y2083724D1*
X1738745Y2083705D1*
X1738741Y2068115D1*
X1626686D1*
Y2083508D1*
X1448549Y2083621D1*
X1442892Y2084516D1*
X1437444Y2086287D1*
X1432342Y2088886D1*
X1427708Y2092254D1*
X1394352Y2125449D1*
X1390633Y2129805D1*
X1387640Y2134688D1*
X1385448Y2139980D1*
X1384111Y2145549D1*
X1383662Y2151271D1*
Y2229881D1*
X1348603Y2264949D1*
X1219928Y2264956D1*
X1219941Y2249365D1*
X1107886D1*
Y2264974D1*
X1051201Y2264956D1*
X1051191Y2249365D1*
X939136D1*
Y2428350D1*
X1051191D1*
Y2337936D1*
X1107876Y2337956D1*
X1107886Y2428350D1*
X1210552D1*
X1210544Y2490993D1*
X1206844Y2494208D1*
X1173659Y2527553D1*
X1170292Y2532187D1*
X1167692Y2537289D1*
X1165922Y2542737D1*
X1165027Y2548394D1*
X1164914Y2597190D1*
Y2613948D1*
X1149323Y2613981D1*
Y2633537D1*
X1140805Y2633508D1*
X1140808Y2613981D1*
X1012716Y2613938D1*
Y2582251D1*
X1028306Y2582287D1*
Y2562730D1*
X1091776Y2562646D1*
X1097434Y2561751D1*
X1102881Y2559981D1*
X1105493Y2558775D1*
X1109480Y2557585D1*
X1118346D1*
X1127103Y2556197D1*
X1135535Y2553459D1*
X1143434Y2549434D1*
X1150607Y2544222D1*
X1156876Y2537953D1*
X1162087Y2530780D1*
X1166112Y2522881D1*
X1168851Y2514449D1*
X1170238Y2505692D1*
Y2496826D1*
X1168851Y2488069D1*
X1166112Y2479637D1*
X1162087Y2471738D1*
X1156876Y2464565D1*
X1150607Y2458296D1*
X1143434Y2453085D1*
X1135535Y2449060D1*
X1127103Y2446321D1*
X1118346Y2444934D1*
X1109480D1*
X1100722Y2446321D1*
X1092291Y2449060D1*
X1084392Y2453085D1*
X1077218Y2458296D1*
X1070949Y2464565D1*
X1065738Y2471738D1*
X1061713Y2479637D1*
X1058974Y2488069D1*
X1058640Y2489752D1*
X1028304Y2489759D1*
X1028306Y2470231D1*
X896986D1*
X875117Y2448504D1*
X870483Y2445137D1*
X865381Y2442537D1*
X859934Y2440767D1*
X854276Y2439872D1*
X805481Y2439759D1*
X794376Y2439565D1*
X788107Y2433296D1*
X780934Y2428085D1*
X773035Y2424060D1*
X764603Y2421321D1*
X755846Y2419934D1*
X746980D1*
X738222Y2421321D1*
X729791Y2424060D1*
X721892Y2428085D1*
X714718Y2433296D1*
X708449Y2439565D1*
X703238Y2446738D1*
X699213Y2454637D1*
X696474Y2463069D1*
X695087Y2471826D1*
Y2480692D1*
X696474Y2489449D1*
X699213Y2497881D1*
X703238Y2505780D1*
X708449Y2512953D1*
X714718Y2519222D1*
X721892Y2524434D1*
X729791Y2528459D1*
X738222Y2531197D1*
X746980Y2532585D1*
X755846D1*
X764603Y2531197D1*
X773035Y2528459D1*
X780934Y2524434D1*
X788107Y2519222D1*
X794536Y2512749D1*
X836279Y2512759D1*
X849327Y2525793D1*
X849322Y2582287D1*
X864932D1*
X864913Y2613995D1*
X743073Y2613981D1*
Y2633537D1*
X694508Y2633508D1*
X688107Y2627045D1*
X680934Y2621834D1*
X673035Y2617809D1*
X664603Y2615070D1*
X655846Y2613683D1*
X646721Y2613713D1*
X612951Y2579926D1*
X612964Y1410127D1*
X1035330Y987760D1*
X2148077Y987646D1*
X2153734Y986751D1*
X2159182Y984981D1*
X2164284Y982381D1*
X2168918Y979014D1*
X2203502Y944590D1*
X2309041Y838889D1*
X2312409Y834255D1*
X2315008Y829151D1*
X2316779Y823705D1*
X2317674Y818048D1*
X2317787Y769252D1*
Y639388D1*
X2324716Y639422D1*
Y457524D1*
X2395535Y457550D1*
Y639422D1*
X2501684D1*
Y457510D1*
X3964208Y457508D1*
X3956767Y458036D1*
X3947661Y459238D1*
X3938655Y461044D1*
X3929791Y463447D1*
X3921106Y466436D1*
X3912640Y469998D1*
X3904431Y474116D1*
X3896514Y478772D1*
X3888926Y483947D1*
X3881699Y489616D1*
X3874867Y495754D1*
X3868460Y502334D1*
X3862504Y509327D1*
X3857029Y516701D1*
X3852060Y524426D1*
X3847615Y532462D1*
X3843716Y540779D1*
X3840381Y549336D1*
X3837624Y558098D1*
X3835457Y567023D1*
X3833890Y576073D1*
X3832931Y585208D1*
X3832583Y594385D1*
X3832848Y603566D1*
X3833725Y612709D1*
X3835209Y621773D1*
X3837294Y630718D1*
X3839973Y639503D1*
X3843230Y648091D1*
X3847053Y656441D1*
X3851426Y664520D1*
X3856326Y672288D1*
X3861734Y679712D1*
X3867625Y686758D1*
X3873973Y693396D1*
X3880749Y699596D1*
X3887924Y705330D1*
X3895465Y710573D1*
X3903339Y715301D1*
X3911511Y719493D1*
X3919944Y723132D1*
X3928602Y726199D1*
X3937444Y728682D1*
X3946434Y730570D1*
X3955528Y731854D1*
X3964687Y732528D1*
X3973872Y732591D1*
X3983040Y732041D1*
X3992151Y730880D1*
X4001165Y729115D1*
X4010040Y726751D1*
X4018738Y723801D1*
X4027220Y720279D1*
X4035448Y716197D1*
X4043385Y711577D1*
X4050998Y706436D1*
X4058250Y700801D1*
X4065109Y694693D1*
X4071546Y688142D1*
X4077533Y681176D1*
X4083041Y673826D1*
X4088046Y666125D1*
X4092527Y658108D1*
X4096464Y649810D1*
X4099838Y641267D1*
X4102634Y632519D1*
X4104842Y623603D1*
X4106448Y614560D1*
X4107125Y608390D1*
X4096002Y3689124D1*
X4088686Y3674960D1*
X4083750Y3667214D1*
X4078308Y3659815D1*
X4072385Y3652796D1*
X4066007Y3646187D1*
X4059203Y3640018D1*
X4052002Y3634315D1*
X4044438Y3629107D1*
X4036543Y3624415D1*
X4028351Y3620259D1*
X4019901Y3616659D1*
X4011230Y3613632D1*
X4002377Y3611188D1*
X3993380Y3609340D1*
X3984280Y3608098D1*
X3975116Y3607465D1*
X3965932Y3607444D1*
X3956767Y3608036D1*
X3947661Y3609238D1*
X3938655Y3611044D1*
X3929791Y3613447D1*
X3921106Y3616436D1*
X3912640Y3619998D1*
X3904431Y3624116D1*
X3896514Y3628772D1*
X3888926Y3633947D1*
X3881699Y3639616D1*
X3874867Y3645754D1*
X3868460Y3652334D1*
X3862504Y3659327D1*
X3857029Y3666701D1*
X3852060Y3674426D1*
X3847615Y3682462D1*
X3843716Y3690779D1*
X3840381Y3699336D1*
X3837624Y3708098D1*
X3835457Y3717023D1*
X3833890Y3726073D1*
X3832931Y3735208D1*
X3832583Y3744385D1*
X3832848Y3753566D1*
X3833725Y3762709D1*
X3835209Y3771773D1*
X3837294Y3780718D1*
X3839973Y3789503D1*
X3843230Y3798091D1*
X3847053Y3806441D1*
X3851426Y3814520D1*
X3856326Y3822288D1*
X3861734Y3829712D1*
X3867625Y3836758D1*
X3873973Y3843396D1*
X3880749Y3849596D1*
X3887924Y3855330D1*
X3895465Y3860573D1*
X3903339Y3865301D1*
X3911511Y3869493D1*
X3919944Y3873132D1*
X3928602Y3876199D1*
X3937444Y3878682D1*
X3946434Y3880570D1*
X3955528Y3881854D1*
X3964687Y3882528D1*
X3973872Y3882591D1*
X3983040Y3882041D1*
X3992151Y3880880D1*
X4001165Y3879115D1*
X4010040Y3876751D1*
X4018738Y3873801D1*
X4027220Y3870279D1*
X4035448Y3866197D1*
X4043385Y3861577D1*
X4050998Y3856436D1*
X4058250Y3850801D1*
X4065109Y3844693D1*
X4071546Y3838142D1*
X4077533Y3831176D1*
X4083041Y3823826D1*
X4088046Y3816125D1*
X4092527Y3808108D1*
X4095587Y3801658D1*
X4095258Y3895025D1*
X2501716Y3895007D1*
X2501684Y3688539D1*
X2663741Y3688536D1*
Y3667256D1*
X2668095Y3672127D1*
X2674781Y3677835D1*
X2682449Y3682508D1*
X2674781Y3687182D1*
X2668095Y3692890D1*
X2662386Y3699577D1*
X2657792Y3707073D1*
X2654428Y3715195D1*
X2652376Y3723743D1*
X2651686Y3732508D1*
X2652376Y3741273D1*
X2654428Y3749822D1*
X2657792Y3757944D1*
X2662386Y3765440D1*
X2668095Y3772127D1*
X2674781Y3777835D1*
X2682277Y3782430D1*
X2690399Y3785793D1*
X2698948Y3787846D1*
X2707713Y3788536D1*
X2716478Y3787846D1*
X2725027Y3785793D1*
X2733149Y3782430D1*
X2740645Y3777835D1*
X2747331Y3772127D1*
X2753040Y3765440D1*
X2757713Y3757772D1*
X2762386Y3765440D1*
X2768095Y3772127D1*
X2774781Y3777835D1*
X2782277Y3782430D1*
X2790399Y3785793D1*
X2798948Y3787846D1*
X2807713Y3788536D1*
X2816478Y3787846D1*
X2825027Y3785793D1*
X2833149Y3782430D1*
X2840645Y3777835D1*
X2847331Y3772127D1*
X2853040Y3765440D1*
X2857713Y3757772D1*
X2862386Y3765440D1*
X2868095Y3772127D1*
X2874781Y3777835D1*
X2882277Y3782430D1*
X2890399Y3785793D1*
X2898948Y3787846D1*
X2907713Y3788536D1*
X2916478Y3787846D1*
X2925027Y3785793D1*
X2933149Y3782430D1*
X2940645Y3777835D1*
X2947331Y3772127D1*
X2953040Y3765440D1*
X2957713Y3757772D1*
X2962386Y3765440D1*
X2968095Y3772127D1*
X2974781Y3777835D1*
X2982277Y3782430D1*
X2990399Y3785793D1*
X2998948Y3787846D1*
X3007713Y3788536D1*
X3016478Y3787846D1*
X3025027Y3785793D1*
X3033149Y3782430D1*
X3040645Y3777835D1*
X3047331Y3772127D1*
X3053040Y3765440D1*
X3057713Y3757772D1*
X3062386Y3765440D1*
X3068095Y3772127D1*
X3074781Y3777835D1*
X3082277Y3782430D1*
X3090399Y3785793D1*
X3098948Y3787846D1*
X3107713Y3788536D1*
X3116478Y3787846D1*
X3125027Y3785793D1*
X3133149Y3782430D1*
X3140645Y3777835D1*
X3147331Y3772127D1*
X3153040Y3765440D1*
X3157713Y3757772D1*
X3162386Y3765440D1*
X3168095Y3772127D1*
X3174781Y3777835D1*
X3182277Y3782430D1*
X3190399Y3785793D1*
X3198948Y3787846D1*
X3207713Y3788536D1*
X3216478Y3787846D1*
X3225027Y3785793D1*
X3233149Y3782430D1*
X3240645Y3777835D1*
X3247331Y3772127D1*
X3253040Y3765440D1*
X3257713Y3757772D1*
X3262386Y3765440D1*
X3268095Y3772127D1*
X3274781Y3777835D1*
X3282277Y3782430D1*
X3290399Y3785793D1*
X3298948Y3787846D1*
X3307713Y3788536D1*
X3316478Y3787846D1*
X3325027Y3785793D1*
X3333149Y3782430D1*
X3340645Y3777835D1*
X3347331Y3772127D1*
X3353040Y3765440D1*
X3357713Y3757772D1*
X3362386Y3765440D1*
X3368095Y3772127D1*
X3374781Y3777835D1*
X3382277Y3782430D1*
X3390399Y3785793D1*
X3398948Y3787846D1*
X3407713Y3788536D1*
X3416478Y3787846D1*
X3425027Y3785793D1*
X3433149Y3782430D1*
X3440645Y3777835D1*
X3447331Y3772127D1*
X3453040Y3765440D1*
X3457634Y3757944D1*
X3460998Y3749822D1*
X3463050Y3741273D1*
X3463741Y3732508D1*
X3463050Y3723743D1*
X3460998Y3715195D1*
X3457634Y3707073D1*
X3453040Y3699577D1*
X3447331Y3692890D1*
X3440645Y3687182D1*
X3432977Y3682508D1*
X3440645Y3677835D1*
X3447331Y3672127D1*
X3453040Y3665440D1*
X3457634Y3657944D1*
X3460998Y3649822D1*
X3463050Y3641273D1*
X3463741Y3632508D1*
X3463050Y3623743D1*
X3460998Y3615195D1*
X3457634Y3607073D1*
X3453040Y3599577D1*
X3447331Y3592890D1*
X3440645Y3587182D1*
X3432977Y3582508D1*
X3440645Y3577835D1*
X3447331Y3572127D1*
X3453040Y3565440D1*
X3457634Y3557944D1*
X3460998Y3549822D1*
X3463050Y3541273D1*
X3463741Y3532508D1*
X3463050Y3523743D1*
X3460998Y3515195D1*
X3457634Y3507073D1*
X3453040Y3499577D1*
X3447331Y3492890D1*
X3440645Y3487182D1*
X3432977Y3482508D1*
X3440645Y3477835D1*
X3447331Y3472127D1*
X3453040Y3465440D1*
X3457634Y3457944D1*
X3460998Y3449822D1*
X3463050Y3441273D1*
X3463741Y3432508D1*
X3463050Y3423743D1*
X3460998Y3415195D1*
X3457634Y3407073D1*
X3453040Y3399577D1*
X3447331Y3392890D1*
X3440645Y3387182D1*
X3432977Y3382508D1*
X3440645Y3377835D1*
X3447331Y3372127D1*
X3453040Y3365440D1*
X3457634Y3357944D1*
X3460998Y3349822D1*
X3463050Y3341273D1*
X3463741Y3332508D1*
X3463050Y3323743D1*
X3460998Y3315195D1*
X3457634Y3307073D1*
X3453040Y3299577D1*
X3447331Y3292890D1*
X3440645Y3287182D1*
X3432977Y3282508D1*
X3440645Y3277835D1*
X3447331Y3272127D1*
X3453040Y3265440D1*
X3457634Y3257944D1*
X3460998Y3249822D1*
X3463050Y3241273D1*
X3463741Y3232508D1*
X3463050Y3223743D1*
X3460998Y3215195D1*
X3457634Y3207073D1*
X3453040Y3199577D1*
X3447331Y3192890D1*
X3440645Y3187182D1*
X3432977Y3182508D1*
X3440645Y3177835D1*
X3447331Y3172127D1*
X3453040Y3165440D1*
X3457634Y3157944D1*
X3460998Y3149822D1*
X3463050Y3141273D1*
X3463741Y3132508D1*
X3463050Y3123743D1*
X3460998Y3115195D1*
X3457634Y3107073D1*
X3453040Y3099577D1*
X3447331Y3092890D1*
X3440645Y3087182D1*
X3432977Y3082508D1*
X3440645Y3077835D1*
X3447331Y3072127D1*
X3453040Y3065440D1*
X3457634Y3057944D1*
X3460998Y3049822D1*
X3463050Y3041273D1*
X3463741Y3032508D1*
X3463050Y3023743D1*
X3460998Y3015195D1*
X3457634Y3007073D1*
X3453040Y2999577D1*
X3447331Y2992890D1*
X3440645Y2987182D1*
X3433149Y2982587D1*
X3425027Y2979224D1*
X3416478Y2977171D1*
X3407713Y2976481D1*
X3398948Y2977171D1*
X3390399Y2979224D1*
X3382277Y2982587D1*
X3374781Y2987182D1*
X3368095Y2992890D1*
X3362386Y2999577D1*
X3357713Y3007245D1*
X3353040Y2999577D1*
X3347331Y2992890D1*
X3340645Y2987182D1*
X3333149Y2982587D1*
X3325027Y2979224D1*
X3316478Y2977171D1*
X3307713Y2976481D1*
X3298948Y2977171D1*
X3290399Y2979224D1*
X3282277Y2982587D1*
X3274781Y2987182D1*
X3268095Y2992890D1*
X3262386Y2999577D1*
X3257713Y3007245D1*
X3253040Y2999577D1*
X3247331Y2992890D1*
X3240645Y2987182D1*
X3233149Y2982587D1*
X3225027Y2979224D1*
X3216478Y2977171D1*
X3207713Y2976481D1*
X3198948Y2977171D1*
X3190399Y2979224D1*
X3182277Y2982587D1*
X3174781Y2987182D1*
X3168095Y2992890D1*
X3162386Y2999577D1*
X3157713Y3007245D1*
X3153040Y2999577D1*
X3147331Y2992890D1*
X3140645Y2987182D1*
X3133149Y2982587D1*
X3125027Y2979224D1*
X3116478Y2977171D1*
X3107713Y2976481D1*
X3098948Y2977171D1*
X3090399Y2979224D1*
X3082277Y2982587D1*
X3074781Y2987182D1*
X3068095Y2992890D1*
X3062386Y2999577D1*
X3057713Y3007245D1*
X3053040Y2999577D1*
X3047331Y2992890D1*
X3040645Y2987182D1*
X3033149Y2982587D1*
X3025027Y2979224D1*
X3016478Y2977171D1*
X3007713Y2976481D1*
X2998948Y2977171D1*
X2990399Y2979224D1*
X2982277Y2982587D1*
X2974781Y2987182D1*
X2968095Y2992890D1*
X2962386Y2999577D1*
X2957713Y3007245D1*
X2953040Y2999577D1*
X2947331Y2992890D1*
X2940645Y2987182D1*
X2933149Y2982587D1*
X2925027Y2979224D1*
X2916478Y2977171D1*
X2907713Y2976481D1*
X2898948Y2977171D1*
X2890399Y2979224D1*
X2882277Y2982587D1*
X2874781Y2987182D1*
X2868095Y2992890D1*
X2862386Y2999577D1*
X2857713Y3007245D1*
X2853040Y2999577D1*
X2847331Y2992890D1*
X2840645Y2987182D1*
X2833149Y2982587D1*
X2825027Y2979224D1*
X2816478Y2977171D1*
X2807713Y2976481D1*
X2798948Y2977171D1*
X2790399Y2979224D1*
X2782277Y2982587D1*
X2774781Y2987182D1*
X2768095Y2992890D1*
X2762386Y2999577D1*
X2757713Y3007245D1*
X2753040Y2999577D1*
X2747331Y2992890D1*
X2740645Y2987182D1*
X2733149Y2982587D1*
X2725027Y2979224D1*
X2716478Y2977171D1*
X2707713Y2976481D1*
X2698948Y2977171D1*
X2690399Y2979224D1*
X2682277Y2982587D1*
X2674781Y2987182D1*
X2668095Y2992890D1*
X2663737Y2997863D1*
X2663741Y2976481D1*
X2151686D1*
X1851686D1*
Y2997760D1*
X1847331Y2992890D1*
X1840645Y2987182D1*
X1833149Y2982587D1*
X1825027Y2979224D1*
X1816478Y2977171D1*
X1807713Y2976481D1*
X1798948Y2977171D1*
X1790399Y2979224D1*
X1782277Y2982587D1*
X1774781Y2987182D1*
X1768095Y2992890D1*
X1762386Y2999577D1*
X1757713Y3007245D1*
X1753040Y2999577D1*
X1747331Y2992890D1*
X1740645Y2987182D1*
X1733149Y2982587D1*
X1725027Y2979224D1*
X1716478Y2977171D1*
X1707713Y2976481D1*
X1698948Y2977171D1*
X1690399Y2979224D1*
X1682277Y2982587D1*
X1674781Y2987182D1*
X1668095Y2992890D1*
X1662386Y2999577D1*
X1657713Y3007245D1*
X1653040Y2999577D1*
X1647331Y2992890D1*
X1640645Y2987182D1*
X1633149Y2982587D1*
X1625027Y2979224D1*
X1616478Y2977171D1*
X1607713Y2976481D1*
X1598948Y2977171D1*
X1590399Y2979224D1*
X1582277Y2982587D1*
X1574781Y2987182D1*
X1568095Y2992890D1*
X1562386Y2999577D1*
X1557713Y3007245D1*
X1553040Y2999577D1*
X1547331Y2992890D1*
X1540645Y2987182D1*
X1533149Y2982587D1*
X1525027Y2979224D1*
X1516478Y2977171D1*
X1507713Y2976481D1*
X1498948Y2977171D1*
X1490399Y2979224D1*
X1482277Y2982587D1*
X1474781Y2987182D1*
X1468095Y2992890D1*
X1462386Y2999577D1*
X1457713Y3007245D1*
X1453040Y2999577D1*
X1447331Y2992890D1*
X1440645Y2987182D1*
X1433149Y2982587D1*
X1425027Y2979224D1*
X1416478Y2977171D1*
X1407713Y2976481D1*
X1398948Y2977171D1*
X1390399Y2979224D1*
X1382277Y2982587D1*
X1374781Y2987182D1*
X1368095Y2992890D1*
X1362386Y2999577D1*
X1357713Y3007245D1*
X1353040Y2999577D1*
X1347331Y2992890D1*
X1340645Y2987182D1*
X1333149Y2982587D1*
X1325027Y2979224D1*
X1316478Y2977171D1*
X1307713Y2976481D1*
X1298948Y2977171D1*
X1290399Y2979224D1*
X1282277Y2982587D1*
X1274781Y2987182D1*
X1268095Y2992890D1*
X1262386Y2999577D1*
X1257713Y3007245D1*
X1253040Y2999577D1*
X1247331Y2992890D1*
X1240645Y2987182D1*
X1233149Y2982587D1*
X1225027Y2979224D1*
X1216478Y2977171D1*
X1207713Y2976481D1*
X1198948Y2977171D1*
X1190399Y2979224D1*
X1182277Y2982587D1*
X1174781Y2987182D1*
X1168095Y2992890D1*
X1162386Y2999577D1*
X1157713Y3007245D1*
X1153040Y2999577D1*
X1147331Y2992890D1*
X1140645Y2987182D1*
X1132977Y2982508D1*
X1140645Y2977835D1*
X1147331Y2972127D1*
X1153040Y2965440D1*
X1157634Y2957944D1*
X1160998Y2949822D1*
X1163050Y2941273D1*
X1163741Y2932508D1*
X1163050Y2923743D1*
X1160998Y2915195D1*
X1157634Y2907073D1*
X1153040Y2899577D1*
X1147331Y2892890D1*
X1140645Y2887182D1*
X1133149Y2882587D1*
X1125027Y2879224D1*
X1116478Y2877171D1*
X1107713Y2876481D1*
X1098948Y2877171D1*
X1090399Y2879224D1*
X1082277Y2882587D1*
X1074781Y2887182D1*
X1068095Y2892890D1*
X1062386Y2899577D1*
X1057713Y2907245D1*
X1053040Y2899577D1*
X1047331Y2892890D1*
X1040645Y2887182D1*
X1033149Y2882587D1*
X1025027Y2879224D1*
X1016478Y2877171D1*
X1007713Y2876481D1*
X998948Y2877171D1*
X990399Y2879224D1*
X982277Y2882587D1*
X974781Y2887182D1*
X968095Y2892890D1*
X962386Y2899577D1*
X957713Y2907245D1*
X953040Y2899577D1*
X947331Y2892890D1*
X940645Y2887182D1*
X933149Y2882587D1*
X925027Y2879224D1*
X916478Y2877171D1*
X907713Y2876481D1*
X898948Y2877171D1*
X890399Y2879224D1*
X882277Y2882587D1*
X874781Y2887182D1*
X868095Y2892890D1*
X862386Y2899577D1*
X857713Y2907245D1*
X853040Y2899577D1*
X847331Y2892890D1*
X840645Y2887182D1*
X833149Y2882587D1*
X825027Y2879224D1*
X816478Y2877171D1*
X807713Y2876481D1*
X798948Y2877171D1*
X790399Y2879224D1*
X782277Y2882587D1*
X774781Y2887182D1*
X768095Y2892890D1*
X762386Y2899577D1*
X757713Y2907245D1*
X753040Y2899577D1*
X747331Y2892890D1*
X740645Y2887182D1*
X733149Y2882587D1*
X725027Y2879224D1*
X716478Y2877171D1*
X707713Y2876481D1*
X698948Y2877171D1*
X690399Y2879224D1*
X682277Y2882587D1*
X674781Y2887182D1*
X668095Y2892890D1*
X662386Y2899577D1*
X657713Y2907245D1*
X653040Y2899577D1*
X647331Y2892890D1*
X640645Y2887182D1*
X633149Y2882587D1*
X625027Y2879224D1*
X616478Y2877171D1*
X607713Y2876481D1*
X598948Y2877171D1*
X590399Y2879224D1*
X582277Y2882587D1*
X574781Y2887182D1*
X568095Y2892890D1*
X562386Y2899577D1*
X557713Y2907245D1*
X553040Y2899577D1*
X547331Y2892890D1*
X540645Y2887182D1*
X533149Y2882587D1*
X525027Y2879224D1*
X516478Y2877171D1*
X507713Y2876481D1*
X498948Y2877171D1*
X490399Y2879224D1*
X482277Y2882587D1*
X474633Y2887298D1*
X470850Y797730D1*
X476426Y808271D1*
X481326Y816039D1*
X486734Y823462D1*
X492625Y830508D1*
X498973Y837146D1*
X505749Y843347D1*
X512924Y849081D1*
X520465Y854323D1*
X528339Y859052D1*
X536511Y863243D1*
X544944Y866882D1*
X553602Y869949D1*
X562444Y872432D1*
X571434Y874321D1*
X580528Y875604D1*
X589687Y876279D1*
X598872Y876342D1*
X608040Y875792D1*
X617151Y874630D1*
X626165Y872865D1*
X635040Y870502D1*
X643738Y867552D1*
X652220Y864029D1*
X660448Y859948D1*
X668385Y855327D1*
X675998Y850187D1*
X683250Y844552D1*
X690109Y838444D1*
X696546Y831893D1*
X702533Y824927D1*
X708041Y817577D1*
X713046Y809876D1*
X717527Y801859D1*
X721464Y793561D1*
X724838Y785018D1*
X727634Y776270D1*
X729842Y767354D1*
X731448Y758310D1*
X732449Y749180D1*
X732844Y738759D1*
X732537Y729579D1*
X731620Y720441D1*
X730095Y711384D1*
X727968Y702448D1*
X725251Y693675D1*
X721955Y685103D1*
X718094Y676768D1*
X713686Y668710D1*
X708750Y660965D1*
X703308Y653566D1*
X697385Y646546D1*
X691007Y639938D1*
X684203Y633768D1*
X677002Y628066D1*
X669438Y622857D1*
X661543Y618166D1*
X653351Y614010D1*
X644901Y610410D1*
X636230Y607382D1*
X627377Y604939D1*
X618380Y603091D1*
X609280Y601848D1*
X600116Y601216D1*
X590932Y601195D1*
X581767Y601787D1*
X572661Y602989D1*
X563655Y604794D1*
X554791Y607197D1*
X546106Y610187D1*
X537640Y613749D1*
X529431Y617867D1*
X521514Y622523D1*
X513926Y627697D1*
X506699Y633367D1*
X499867Y639504D1*
X493460Y646085D1*
X487504Y653078D1*
X482029Y660452D1*
X477060Y668176D1*
X470650Y680403D1*
X470235Y457477D1*
X2060889Y457550D1*
Y639422D1*
X2167039D1*
Y457510D1*
X2237892Y457508D1*
X2237857Y639422D1*
X2244787Y639431D1*
Y800085D1*
X2130106Y914749D1*
X1017350Y914872D1*
X1011692Y915767D1*
X1006245Y917537D1*
X1001142Y920137D1*
X996508Y923504D1*
X961924Y957928D1*
X548709Y1371304D1*
X545342Y1375938D1*
X542742Y1381040D1*
X540972Y1386487D1*
X540077Y1392145D1*
X539964Y1440940D1*
X540077Y2597922D1*
X540972Y2603579D1*
X542742Y2609025D1*
X545342Y2614129D1*
X548709Y2618763D1*
X583133Y2653347D1*
X595087Y2665575D1*
Y2674441D1*
X596474Y2683199D1*
X599213Y2691630D1*
X603238Y2699529D1*
X608449Y2706703D1*
X614718Y2712972D1*
X621892Y2718183D1*
X629791Y2722208D1*
X638222Y2724947D1*
X646980Y2726334D1*
X655846D1*
X664603Y2724947D1*
X673035Y2722208D1*
X680934Y2718183D1*
X688107Y2712972D1*
X694536Y2706498D1*
X743096Y2706508D1*
X743073Y2726036D1*
X922057D1*
Y2669519D1*
X929167Y2662267D1*
X932535Y2657633D1*
X935134Y2652531D1*
X936905Y2647083D1*
X937800Y2641426D1*
X937913Y2592630D1*
Y2582260D1*
X939716Y2590564D1*
X939829Y2635174D1*
X940724Y2640831D1*
X942494Y2646279D1*
X945094Y2651381D1*
X948461Y2656015D1*
X961800Y2669512D1*
X961823Y2726036D1*
X1140808D1*
Y2706478D1*
X1149326Y2706508D1*
X1149323Y2726036D1*
X1164934D1*
X1164914Y2763989D1*
X1149323Y2763982D1*
Y2876037D1*
X1328308D1*
Y2763982D1*
X1312699D1*
X1312717Y2726029D1*
X1328308Y2726036D1*
Y2706480D1*
X1360525Y2706396D1*
X1366183Y2705501D1*
X1371630Y2703730D1*
X1376733Y2701130D1*
X1381367Y2697763D1*
X1408472Y2670818D1*
X1412191Y2666462D1*
X1415184Y2661579D1*
X1417376Y2656288D1*
X1418713Y2650718D1*
X1419162Y2645008D1*
Y2506531D1*
X1423123Y2506510D1*
X1423142Y2608321D1*
X1554882D1*
Y2556540D1*
X1563596Y2558810D1*
X1564890Y2560104D1*
X1564913Y2626502D1*
X1474372Y2626481D1*
Y2738536D1*
X1564764D1*
X1564766Y2795221D1*
X1474372Y2795231D1*
Y2907287D1*
X1653356D1*
Y2795231D1*
X1637747D1*
X1637766Y2738546D1*
X1653356Y2738536D1*
Y2718980D1*
X1842515Y2719008D1*
X1852708Y2729014D1*
X1857342Y2732381D1*
X1862444Y2734981D1*
X1867892Y2736751D1*
X1873549Y2737646D1*
X1922344Y2737759D1*
X2223697Y2737867D1*
X2219920Y2744165D1*
X2216993Y2750899D1*
X2214964Y2757957D1*
X2213867Y2765218D1*
X2213721Y2772561D1*
X2214528Y2779860D1*
X2216276Y2786994D1*
X2218935Y2793839D1*
X2222459Y2800283D1*
X2226788Y2806214D1*
X2231850Y2811535D1*
X2237560Y2816154D1*
X2243821Y2819993D1*
X2250525Y2822987D1*
X2257564Y2825087D1*
X2264814Y2826256D1*
X2272154Y2826474D1*
X2279461Y2825739D1*
X2286611Y2824062D1*
X2293483Y2821473D1*
X2299961Y2818014D1*
X2305936Y2813742D1*
X2311306Y2808733D1*
X2315981Y2803070D1*
X2319882Y2796847D1*
X2322943Y2790172D1*
X2325112Y2783155D1*
X2326354Y2775918D1*
X2326633Y2768172D1*
X2325918Y2760864D1*
X2324260Y2753709D1*
X2321690Y2746830D1*
X2318247Y2740343D1*
X2316546Y2737760D1*
X2323027Y2737646D1*
X2328684Y2736751D1*
X2334132Y2734981D1*
X2339234Y2732381D1*
X2343868Y2729014D1*
X2370973Y2702069D1*
X2374692Y2697713D1*
X2377686Y2692830D1*
X2379877Y2687539D1*
X2381214Y2681969D1*
X2381663Y2676259D1*
Y2638545D1*
X2397107Y2638537D1*
Y2526482D1*
X2381498D1*
X2381516Y2482285D1*
X2397107Y2482288D1*
Y2370233D1*
X2375397D1*
X2375413Y2301847D1*
X2452393Y2378859D1*
X2452413Y2439367D1*
X2445949Y2445815D1*
X2440738Y2452989D1*
X2436713Y2460888D1*
X2433974Y2469319D1*
X2432587Y2478077D1*
Y2486943D1*
X2433974Y2495700D1*
X2436713Y2504132D1*
X2440738Y2512031D1*
X2445949Y2519204D1*
X2452218Y2525473D1*
X2459392Y2530684D1*
X2467291Y2534709D1*
X2475722Y2537448D1*
X2484480Y2538835D1*
X2493346D1*
X2502103Y2537448D1*
X2510535Y2534709D1*
X2518434Y2530684D1*
X2525607Y2525473D1*
X2531876Y2519204D1*
X2537087Y2512031D1*
X2541112Y2504132D1*
X2543851Y2495700D1*
X2545238Y2486943D1*
Y2478077D1*
X2543851Y2469319D1*
X2541112Y2460888D1*
X2537087Y2452989D1*
X2531876Y2445815D1*
X2525402Y2439386D1*
X2525300Y2360896D1*
X2524405Y2355238D1*
X2522634Y2349791D1*
X2520035Y2344688D1*
X2516667Y2340054D1*
X2482243Y2305470D1*
X2440300Y2263528D1*
X2540856Y2263537D1*
Y2243981D1*
X2599397Y2244010D1*
X2599372Y2263537D1*
X2614982D1*
X2614962Y2313978D1*
X2599372Y2313981D1*
Y2426036D1*
X2778356D1*
Y2313981D1*
X2762747D1*
X2762766Y2263540D1*
X2778356Y2263537D1*
Y2243981D1*
X2860525Y2243897D1*
X2866183Y2243002D1*
X2871630Y2241231D1*
X2876733Y2238632D1*
X2881367Y2235264D1*
X2908472Y2208319D1*
X2912191Y2203964D1*
X2915184Y2199081D1*
X2917376Y2193789D1*
X2918713Y2188220D1*
X2919162Y2182498D1*
Y2072596D1*
X2923163Y2068628D1*
X2923142Y2152071D1*
X3054882D1*
Y2100291D1*
X3058663Y2100882D1*
Y2204767D1*
X3055678Y2207729D1*
X2924372Y2207731D1*
Y2319787D1*
X2926209D1*
X1983705Y2582733D2*
X1968123D1*
Y2664728D1*
X1891527Y2664759D1*
X1881357Y2654746D1*
X1879791Y2653459D1*
X1888222Y2656197D1*
X1896980Y2657585D1*
X1905846D1*
X1914603Y2656197D1*
X1923035Y2653459D1*
X1930934Y2649434D1*
X1938107Y2644222D1*
X1944376Y2637953D1*
X1949587Y2630780D1*
X1953612Y2622881D1*
X1956351Y2614449D1*
X1957738Y2605692D1*
Y2596826D1*
X1956351Y2588069D1*
X1953612Y2579637D1*
X1949587Y2571738D1*
X1944376Y2564565D1*
X1938107Y2558296D1*
X1930934Y2553085D1*
X1923035Y2549060D1*
X1914603Y2546321D1*
X1905846Y2544934D1*
X1896980D1*
X1895448Y2545115D1*
X1890381Y2542537D1*
X1884934Y2540767D1*
X1879276Y2539872D1*
X1853339Y2539759D1*
X1853504Y2532252D1*
X1928308Y2532288D1*
Y2512731D1*
X1968116Y2512760D1*
X1968123Y2532288D1*
X1983733D1*
X1983713Y2582729D1*
X2147107Y2664752D2*
Y2582733D1*
X2131498D1*
X2131516Y2532292D1*
X2147107Y2532288D1*
Y2420233D1*
X2131641D1*
X2131663Y2260127D1*
X2147793Y2243998D1*
X2154372Y2244010D1*
X2154392Y2345821D1*
X2286132D1*
Y2294040D1*
X2298812Y2294010D1*
X2302389Y2297604D1*
X2302413Y2370246D1*
X2218123Y2370233D1*
Y2482288D1*
X2308515D1*
X2308516Y2526485D1*
X2218123Y2526482D1*
Y2638537D1*
X2308658D1*
X2308663Y2661136D1*
X2305069Y2664735D1*
X2147094Y2664759D1*
X1791023Y2247099D2*
X1897707D1*
X1848658Y2296304D1*
X1845292Y2300938D1*
X1842691Y2306040D1*
X1840920Y2311487D1*
X1840025Y2317145D1*
X1839913Y2365940D1*
Y2420233D1*
X1749323D1*
X1749125Y2520267D1*
X1721986Y2520231D1*
X1706473Y2504700D1*
X1709863Y2497880D1*
X1712602Y2489448D1*
X1713989Y2480691D1*
Y2471825D1*
X1712602Y2463067D1*
X1709863Y2454636D1*
X1705838Y2446737D1*
X1700627Y2439564D1*
X1694357Y2433294D1*
X1687184Y2428083D1*
X1679285Y2424058D1*
X1670854Y2421319D1*
X1662096Y2419932D1*
X1653230D1*
X1644473Y2421319D1*
X1636041Y2424058D1*
X1628142Y2428083D1*
X1620728Y2433519D1*
X1554851Y2433510D1*
X1554882Y2381699D1*
X1423142D1*
Y2433480D1*
X1398549Y2433623D1*
X1392892Y2434518D1*
X1387444Y2436288D1*
X1382342Y2438888D1*
X1377708Y2442255D1*
X1356852Y2462951D1*
X1353133Y2467306D1*
X1350140Y2472190D1*
X1347948Y2477481D1*
X1346611Y2483050D1*
X1346162Y2488772D1*
Y2629893D1*
X1342567Y2633485D1*
X1328272Y2633508D1*
X1328308Y2613981D1*
X1237896D1*
X1238103Y2608321D1*
X1342284D1*
Y2381699D1*
X1312896D1*
X1312801Y2367146D1*
X1311906Y2361489D1*
X1310136Y2356041D1*
X1307536Y2350939D1*
X1304169Y2346305D1*
X1302216Y2344192D1*
X1301709Y2337956D1*
X1366579Y2337843D1*
X1372237Y2336948D1*
X1377684Y2335178D1*
X1382787Y2332578D1*
X1387420Y2329210D1*
X1422004Y2294787D1*
X1447917Y2268714D1*
X1451284Y2264081D1*
X1453884Y2258978D1*
X1455654Y2253531D1*
X1456549Y2247873D1*
X1456662Y2199078D1*
Y2166388D1*
X1466549Y2156490D1*
X1626707Y2156508D1*
X1626686Y2247099D1*
X1738741D1*
Y2156686D1*
X1789182Y2156705D1*
X1789186Y2247099D1*
X1791023D1*
X1901241Y2243561D2*
Y2156686D1*
X1941777Y2156705D1*
X1941793Y2221028D1*
X1936048Y2221123D1*
X1930390Y2222018D1*
X1924943Y2223788D1*
X1919840Y2226389D1*
X1915207Y2229755D1*
X1901252Y2243550D1*
X2582944Y2065848D2*
X2623006D1*
X2620292Y2069688D1*
X2617691Y2074791D1*
X2615920Y2080238D1*
X2615025Y2085896D1*
X2614913Y2134691D1*
Y2151449D1*
X2599372Y2151482D1*
Y2171039D1*
X2540831Y2171010D1*
X2540856Y2157714D1*
X2547751Y2157064D1*
X2556372Y2154994D1*
X2564564Y2151602D1*
X2572123Y2146969D1*
X2578864Y2141210D1*
X2584623Y2134469D1*
X2589255Y2126910D1*
X2592648Y2118718D1*
X2594717Y2110098D1*
X2595413Y2101259D1*
X2594717Y2092420D1*
X2592648Y2083800D1*
X2589255Y2075608D1*
X2584623Y2068049D1*
X2582894Y2065857D1*
X2682490Y2027258D2*
Y1975435D1*
X2710539Y1975455D1*
X2710544Y2027280D1*
X2682483Y2027260D1*
X2570435Y1975453D2*
Y2054371D1*
X2564564Y2050917D1*
X2556372Y2047524D1*
X2547751Y2045455D1*
X2538913Y2044759D1*
X2530074Y2045455D1*
X2521453Y2047524D1*
X2513750Y2050692D1*
X2513741Y1975435D1*
X2570426Y1975455D1*
X2401686Y1975252D2*
X2401502Y2045231D1*
X2286822D1*
Y2157287D1*
X2293749D1*
X2286142Y2164910D1*
X2286132Y2119199D1*
X2154392D1*
Y2170980D1*
X2129798Y2171123D1*
X2124141Y2172018D1*
X2118693Y2173788D1*
X2113591Y2176388D1*
X2108957Y2179755D1*
X2073531Y2215022D1*
X2073533Y2119199D1*
X2020964D1*
X2011119Y2109346D1*
X2011137Y1999427D1*
X2035285Y1975256D1*
X2401720Y1975259D1*
X1653356Y2645990D2*
Y2626481D1*
X1637890D1*
X1637800Y2542145D1*
X1637461Y2539288D1*
X1638350Y2539815D1*
X1674305Y2575770D1*
X1674322Y2632287D1*
X1853306D1*
Y2630886D1*
X1858449Y2637953D1*
X1864718Y2644222D1*
X1869947Y2648133D1*
X1863372Y2646457D1*
X1857650Y2646008D1*
X1653373D1*
X732537Y3629578D2*
X731620Y3620440D1*
X730095Y3611382D1*
X727968Y3602447D1*
X725251Y3593674D1*
X721955Y3585102D1*
X718094Y3576767D1*
X713686Y3568709D1*
X708750Y3560964D1*
X703308Y3553565D1*
X697385Y3546545D1*
X691007Y3539936D1*
X684203Y3533767D1*
X677002Y3528065D1*
X669438Y3522856D1*
X661543Y3518165D1*
X653351Y3514008D1*
X644901Y3510409D1*
X636230Y3507381D1*
X627377Y3504938D1*
X618380Y3503090D1*
X609280Y3501847D1*
X600116Y3501214D1*
X590932Y3501193D1*
X581767Y3501785D1*
X572661Y3502987D1*
X563655Y3504793D1*
X554791Y3507196D1*
X546106Y3510186D1*
X537640Y3513747D1*
X529431Y3517865D1*
X521514Y3522522D1*
X513926Y3527696D1*
X506699Y3533365D1*
X499867Y3539503D1*
X493460Y3546083D1*
X487504Y3553077D1*
X482029Y3560451D1*
X475861Y3570340D1*
X475688Y3478490D1*
X482277Y3482430D1*
X490399Y3485793D1*
X498948Y3487846D1*
X507713Y3488536D1*
X516478Y3487846D1*
X525027Y3485793D1*
X533149Y3482430D1*
X540645Y3477835D1*
X547331Y3472127D1*
X553040Y3465440D1*
X557713Y3457772D1*
X562386Y3465440D1*
X568095Y3472127D1*
X574781Y3477835D1*
X582277Y3482430D1*
X590399Y3485793D1*
X598948Y3487846D1*
X607713Y3488536D1*
X616478Y3487846D1*
X625027Y3485793D1*
X633149Y3482430D1*
X640645Y3477835D1*
X647331Y3472127D1*
X653040Y3465440D1*
X657713Y3457772D1*
X662386Y3465440D1*
X668095Y3472127D1*
X674781Y3477835D1*
X682277Y3482430D1*
X690399Y3485793D1*
X698948Y3487846D1*
X707713Y3488536D1*
X716478Y3487846D1*
X725027Y3485793D1*
X733149Y3482430D1*
X740645Y3477835D1*
X747331Y3472127D1*
X753040Y3465440D1*
X757713Y3457772D1*
X762386Y3465440D1*
X768095Y3472127D1*
X774781Y3477835D1*
X782277Y3482430D1*
X790399Y3485793D1*
X798948Y3487846D1*
X807713Y3488536D1*
X816478Y3487846D1*
X825027Y3485793D1*
X833149Y3482430D1*
X840645Y3477835D1*
X847331Y3472127D1*
X853040Y3465440D1*
X857713Y3457772D1*
X862386Y3465440D1*
X868095Y3472127D1*
X874781Y3477835D1*
X882449Y3482508D1*
X874781Y3487182D1*
X868095Y3492890D1*
X862386Y3499577D1*
X857792Y3507073D1*
X854428Y3515195D1*
X852376Y3523743D1*
X851686Y3532508D1*
X852376Y3541273D1*
X854428Y3549822D1*
X857792Y3557944D1*
X862386Y3565440D1*
X868095Y3572127D1*
X874781Y3577835D1*
X882449Y3582508D1*
X874781Y3587182D1*
X868095Y3592890D1*
X862386Y3599577D1*
X857792Y3607073D1*
X854428Y3615195D1*
X852376Y3623743D1*
X851686Y3632508D1*
X852376Y3641273D1*
X854428Y3649822D1*
X857792Y3657944D1*
X862386Y3665440D1*
X868095Y3672127D1*
X874781Y3677835D1*
X882449Y3682508D1*
X874781Y3687182D1*
X868095Y3692890D1*
X862386Y3699577D1*
X857792Y3707073D1*
X854428Y3715195D1*
X852376Y3723743D1*
X851686Y3732508D1*
X852376Y3741273D1*
X854428Y3749822D1*
X857792Y3757944D1*
X862386Y3765440D1*
X868095Y3772127D1*
X874781Y3777835D1*
X882277Y3782430D1*
X890399Y3785793D1*
X898948Y3787846D1*
X907713Y3788536D1*
X916478Y3787846D1*
X925027Y3785793D1*
X933149Y3782430D1*
X940645Y3777835D1*
X947331Y3772127D1*
X953040Y3765440D1*
X957713Y3757772D1*
X962386Y3765440D1*
X968095Y3772127D1*
X974781Y3777835D1*
X982277Y3782430D1*
X990399Y3785793D1*
X998948Y3787846D1*
X1007713Y3788536D1*
X1016478Y3787846D1*
X1025027Y3785793D1*
X1033149Y3782430D1*
X1040645Y3777835D1*
X1047331Y3772127D1*
X1053040Y3765440D1*
X1057713Y3757772D1*
X1062386Y3765440D1*
X1068095Y3772127D1*
X1074781Y3777835D1*
X1082277Y3782430D1*
X1090399Y3785793D1*
X1098948Y3787846D1*
X1107713Y3788536D1*
X1116478Y3787846D1*
X1125027Y3785793D1*
X1133149Y3782430D1*
X1140645Y3777835D1*
X1147331Y3772127D1*
X1153040Y3765440D1*
X1157713Y3757772D1*
X1162386Y3765440D1*
X1168095Y3772127D1*
X1174781Y3777835D1*
X1182277Y3782430D1*
X1190399Y3785793D1*
X1198948Y3787846D1*
X1207713Y3788536D1*
X1216478Y3787846D1*
X1225027Y3785793D1*
X1233149Y3782430D1*
X1240645Y3777835D1*
X1247331Y3772127D1*
X1253040Y3765440D1*
X1257713Y3757772D1*
X1262386Y3765440D1*
X1268095Y3772127D1*
X1274781Y3777835D1*
X1282277Y3782430D1*
X1290399Y3785793D1*
X1298948Y3787846D1*
X1307713Y3788536D1*
X1316478Y3787846D1*
X1325027Y3785793D1*
X1333149Y3782430D1*
X1340645Y3777835D1*
X1347331Y3772127D1*
X1353040Y3765440D1*
X1357713Y3757772D1*
X1362386Y3765440D1*
X1368095Y3772127D1*
X1374781Y3777835D1*
X1382277Y3782430D1*
X1390399Y3785793D1*
X1398948Y3787846D1*
X1407713Y3788536D1*
X1416478Y3787846D1*
X1425027Y3785793D1*
X1433149Y3782430D1*
X1440645Y3777835D1*
X1447331Y3772127D1*
X1453040Y3765440D1*
X1457713Y3757772D1*
X1462386Y3765440D1*
X1468095Y3772127D1*
X1474781Y3777835D1*
X1482277Y3782430D1*
X1490399Y3785793D1*
X1498948Y3787846D1*
X1507713Y3788536D1*
X1516478Y3787846D1*
X1525027Y3785793D1*
X1533149Y3782430D1*
X1540645Y3777835D1*
X1547331Y3772127D1*
X1553040Y3765440D1*
X1557713Y3757772D1*
X1562386Y3765440D1*
X1568095Y3772127D1*
X1574781Y3777835D1*
X1582277Y3782430D1*
X1590399Y3785793D1*
X1598948Y3787846D1*
X1607713Y3788536D1*
X1616478Y3787846D1*
X1625027Y3785793D1*
X1633149Y3782430D1*
X1640645Y3777835D1*
X1647331Y3772127D1*
X1653040Y3765440D1*
X1657713Y3757772D1*
X1662386Y3765440D1*
X1668095Y3772127D1*
X1674781Y3777835D1*
X1682277Y3782430D1*
X1690399Y3785793D1*
X1698948Y3787846D1*
X1707713Y3788536D1*
X1716478Y3787846D1*
X1725027Y3785793D1*
X1733149Y3782430D1*
X1740645Y3777835D1*
X1747331Y3772127D1*
X1753040Y3765440D1*
X1757713Y3757772D1*
X1762386Y3765440D1*
X1768095Y3772127D1*
X1774781Y3777835D1*
X1782277Y3782430D1*
X1790399Y3785793D1*
X1798948Y3787846D1*
X1807713Y3788536D1*
X1816478Y3787846D1*
X1825027Y3785793D1*
X1833149Y3782430D1*
X1840645Y3777835D1*
X1847331Y3772127D1*
X1853040Y3765440D1*
X1857634Y3757944D1*
X1860998Y3749822D1*
X1863050Y3741273D1*
X1863741Y3732508D1*
X1863050Y3723743D1*
X1860998Y3715195D1*
X1857634Y3707073D1*
X1853040Y3699577D1*
X1847331Y3692890D1*
X1840645Y3687182D1*
X1832977Y3682508D1*
X1840645Y3677835D1*
X1847331Y3672127D1*
X1851690Y3667154D1*
X1851686Y3688536D1*
X2060881D1*
X2060889Y3895006D1*
X476413Y3895007D1*
X476102Y3707717D1*
X481326Y3716037D1*
X486734Y3723461D1*
X492625Y3730507D1*
X498973Y3737145D1*
X505749Y3743346D1*
X512924Y3749079D1*
X520465Y3754322D1*
X528339Y3759050D1*
X536511Y3763242D1*
X544944Y3766881D1*
X553602Y3769948D1*
X562444Y3772431D1*
X571434Y3774319D1*
X580528Y3775603D1*
X589687Y3776277D1*
X598872Y3776340D1*
X608040Y3775791D1*
X617151Y3774629D1*
X626165Y3772864D1*
X635040Y3770501D1*
X643738Y3767550D1*
X652220Y3764028D1*
X660448Y3759947D1*
X668385Y3755326D1*
X675998Y3750186D1*
X683250Y3744550D1*
X690109Y3738443D1*
X696546Y3731892D1*
X702533Y3724926D1*
X708041Y3717575D1*
X713046Y3709875D1*
X717527Y3701857D1*
X721464Y3693560D1*
X724838Y3685016D1*
X727634Y3676268D1*
X729842Y3667352D1*
X731448Y3658309D1*
X732449Y3649179D1*
X732844Y3638758D1*
X732537Y3629578D1*
X4107218Y582651D2*
X4106620Y576691D1*
X4105095Y567633D1*
X4102968Y558697D1*
X4100251Y549924D1*
X4096955Y541352D1*
X4093094Y533018D1*
X4088686Y524960D1*
X4083750Y517214D1*
X4078308Y509815D1*
X4072385Y502796D1*
X4066007Y496187D1*
X4059203Y490018D1*
X4052002Y484315D1*
X4044438Y479107D1*
X4036543Y474415D1*
X4028351Y470259D1*
X4019901Y466659D1*
X4011230Y463632D1*
X4002377Y461188D1*
X3993380Y459340D1*
X3984280Y458098D1*
X3975725Y457507D1*
X4107674Y457508D1*
X4107218Y581932D1*
X2395535Y3688543D2*
Y3895006D1*
X2324735Y3895007D1*
X2324716Y3805363D1*
X2326502Y3799613D1*
X2327644Y3792406D1*
Y3785109D1*
X2326502Y3777902D1*
X2324716Y3772234D1*
Y3688524D1*
X2395501Y3688536D1*
X2167039Y3895002D2*
Y3688539D1*
X2237843Y3688536D1*
X2237857Y3772153D1*
X2236071Y3777902D1*
X2234930Y3785109D1*
Y3792406D1*
X2236071Y3799613D1*
X2237857Y3805281D1*
Y3895020D1*
X2167061Y3895007D1*
X3720239Y878067D2*
X3724616Y883952D1*
X3731270Y890606D1*
X3737154Y894982D1*
X3731270Y899411D1*
X3724616Y906065D1*
X3720239Y911949D1*
X3715810Y906065D1*
X3709157Y899411D1*
X3703272Y895035D1*
X3709157Y890606D1*
X3715810Y883952D1*
X3720187Y878067D1*
X3720239Y978067D2*
X3724616Y983952D1*
X3731270Y990606D1*
X3737154Y994982D1*
X3731270Y999411D1*
X3724616Y1006065D1*
X3720239Y1011949D1*
X3715810Y1006065D1*
X3709157Y999411D1*
X3703272Y995035D1*
X3709157Y990606D1*
X3715810Y983952D1*
X3720187Y978067D1*
X3720239Y1078067D2*
X3724616Y1083952D1*
X3731270Y1090606D1*
X3737154Y1094982D1*
X3731270Y1099411D1*
X3724616Y1106065D1*
X3720239Y1111949D1*
X3715810Y1106065D1*
X3709157Y1099411D1*
X3703272Y1095035D1*
X3709157Y1090606D1*
X3715810Y1083952D1*
X3720187Y1078067D1*
X3720239Y1178067D2*
X3724616Y1183952D1*
X3731270Y1190606D1*
X3737154Y1194982D1*
X3731270Y1199411D1*
X3724616Y1206065D1*
X3720239Y1211949D1*
X3715810Y1206065D1*
X3709157Y1199411D1*
X3703272Y1195035D1*
X3709157Y1190606D1*
X3715810Y1183952D1*
X3720187Y1178067D1*
X3720239Y1278067D2*
X3724616Y1283952D1*
X3731270Y1290606D1*
X3737154Y1294982D1*
X3731270Y1299411D1*
X3724616Y1306065D1*
X3720239Y1311949D1*
X3715810Y1306065D1*
X3709157Y1299411D1*
X3703272Y1295035D1*
X3709157Y1290606D1*
X3715810Y1283952D1*
X3720187Y1278067D1*
X3720239Y1378067D2*
X3724616Y1383952D1*
X3731270Y1390606D1*
X3737154Y1394982D1*
X3731270Y1399411D1*
X3724616Y1406065D1*
X3720239Y1411949D1*
X3715810Y1406065D1*
X3709157Y1399411D1*
X3703272Y1395035D1*
X3709157Y1390606D1*
X3715810Y1383952D1*
X3720187Y1378067D1*
X3720239Y1478067D2*
X3724616Y1483952D1*
X3731270Y1490606D1*
X3737154Y1494982D1*
X3731270Y1499411D1*
X3724616Y1506065D1*
X3720239Y1511949D1*
X3715810Y1506065D1*
X3709157Y1499411D1*
X3703272Y1495035D1*
X3709157Y1490606D1*
X3715810Y1483952D1*
X3720187Y1478067D1*
X3720239Y1578067D2*
X3724616Y1583952D1*
X3731270Y1590606D1*
X3737154Y1594982D1*
X3731270Y1599411D1*
X3724616Y1606065D1*
X3720239Y1611949D1*
X3715810Y1606065D1*
X3709157Y1599411D1*
X3703272Y1595035D1*
X3709157Y1590606D1*
X3715810Y1583952D1*
X3720187Y1578067D1*
X3720239Y1678067D2*
X3724616Y1683952D1*
X3731270Y1690606D1*
X3737154Y1694982D1*
X3731270Y1699411D1*
X3724616Y1706065D1*
X3720239Y1711949D1*
X3715810Y1706065D1*
X3709157Y1699411D1*
X3703272Y1695035D1*
X3709157Y1690606D1*
X3715810Y1683952D1*
X3720187Y1678067D1*
X3720239Y1778067D2*
X3724616Y1783952D1*
X3731270Y1790606D1*
X3737154Y1794982D1*
X3731270Y1799411D1*
X3724616Y1806065D1*
X3720239Y1811949D1*
X3715810Y1806065D1*
X3709157Y1799411D1*
X3703272Y1795035D1*
X3709157Y1790606D1*
X3715810Y1783952D1*
X3720187Y1778067D1*
X3720239Y1878067D2*
X3724616Y1883952D1*
X3731270Y1890606D1*
X3737154Y1894982D1*
X3731270Y1899411D1*
X3724616Y1906065D1*
X3720239Y1911949D1*
X3715810Y1906065D1*
X3709157Y1899411D1*
X3703272Y1895035D1*
X3709157Y1890606D1*
X3715810Y1883952D1*
X3720187Y1878067D1*
X3720239Y1978067D2*
X3724616Y1983952D1*
X3731270Y1990606D1*
X3737154Y1994982D1*
X3731270Y1999411D1*
X3724616Y2006065D1*
X3720239Y2011949D1*
X3715810Y2006065D1*
X3709157Y1999411D1*
X3703272Y1995035D1*
X3709157Y1990606D1*
X3715810Y1983952D1*
X3720187Y1978067D1*
X3720239Y2078067D2*
X3724616Y2083952D1*
X3731270Y2090606D1*
X3737154Y2094982D1*
X3731270Y2099411D1*
X3724616Y2106065D1*
X3720239Y2111949D1*
X3715810Y2106065D1*
X3709157Y2099411D1*
X3703272Y2095035D1*
X3709157Y2090606D1*
X3715810Y2083952D1*
X3720187Y2078067D1*
X3720239Y2178067D2*
X3724616Y2183952D1*
X3731270Y2190606D1*
X3737154Y2194982D1*
X3731270Y2199411D1*
X3724616Y2206065D1*
X3720239Y2211949D1*
X3715810Y2206065D1*
X3709157Y2199411D1*
X3703272Y2195035D1*
X3709157Y2190606D1*
X3715810Y2183952D1*
X3720187Y2178067D1*
X3720239Y2278067D2*
X3724616Y2283952D1*
X3731270Y2290606D1*
X3737154Y2294982D1*
X3731270Y2299411D1*
X3724616Y2306065D1*
X3720239Y2311949D1*
X3715810Y2306065D1*
X3709157Y2299411D1*
X3703272Y2295035D1*
X3709157Y2290606D1*
X3715810Y2283952D1*
X3720187Y2278067D1*
X3720239Y2378067D2*
X3724616Y2383952D1*
X3731270Y2390606D1*
X3737154Y2394982D1*
X3731270Y2399411D1*
X3724616Y2406065D1*
X3720239Y2411949D1*
X3715810Y2406065D1*
X3709157Y2399411D1*
X3703272Y2395035D1*
X3709157Y2390606D1*
X3715810Y2383952D1*
X3720187Y2378067D1*
X3720239Y2478067D2*
X3724616Y2483952D1*
X3731270Y2490606D1*
X3737154Y2494982D1*
X3731270Y2499411D1*
X3724616Y2506065D1*
X3720239Y2511949D1*
X3715810Y2506065D1*
X3709157Y2499411D1*
X3703272Y2495035D1*
X3709157Y2490606D1*
X3715810Y2483952D1*
X3720187Y2478067D1*
X3720239Y2578067D2*
X3724616Y2583952D1*
X3731270Y2590606D1*
X3737154Y2594982D1*
X3731270Y2599411D1*
X3724616Y2606065D1*
X3720239Y2611949D1*
X3715810Y2606065D1*
X3709157Y2599411D1*
X3703272Y2595035D1*
X3709157Y2590606D1*
X3715810Y2583952D1*
X3720187Y2578067D1*
X3720239Y2678067D2*
X3724616Y2683952D1*
X3731270Y2690606D1*
X3737154Y2694982D1*
X3731270Y2699411D1*
X3724616Y2706065D1*
X3720239Y2711949D1*
X3715810Y2706065D1*
X3709157Y2699411D1*
X3703272Y2695035D1*
X3709157Y2690606D1*
X3715810Y2683952D1*
X3720187Y2678067D1*
X3720239Y2778067D2*
X3724616Y2783952D1*
X3731270Y2790606D1*
X3737154Y2794982D1*
X3731270Y2799411D1*
X3724616Y2806065D1*
X3720239Y2811949D1*
X3715810Y2806065D1*
X3709157Y2799411D1*
X3703272Y2795035D1*
X3709157Y2790606D1*
X3715810Y2783952D1*
X3720187Y2778067D1*
X3720239Y2878067D2*
X3724616Y2883952D1*
X3731270Y2890606D1*
X3737154Y2894982D1*
X3731270Y2899411D1*
X3724616Y2906065D1*
X3720239Y2911949D1*
X3715810Y2906065D1*
X3709157Y2899411D1*
X3703272Y2895035D1*
X3709157Y2890606D1*
X3715810Y2883952D1*
X3720187Y2878067D1*
X3720239Y2978067D2*
X3724616Y2983952D1*
X3731270Y2990606D1*
X3737154Y2994982D1*
X3731270Y2999411D1*
X3724616Y3006065D1*
X3720239Y3011949D1*
X3715810Y3006065D1*
X3709157Y2999411D1*
X3703272Y2995035D1*
X3709157Y2990606D1*
X3715810Y2983952D1*
X3720187Y2978067D1*
X3720239Y3078067D2*
X3724616Y3083952D1*
X3731270Y3090606D1*
X3737154Y3094982D1*
X3731270Y3099411D1*
X3724616Y3106065D1*
X3720239Y3111949D1*
X3715810Y3106065D1*
X3709157Y3099411D1*
X3703272Y3095035D1*
X3709157Y3090606D1*
X3715810Y3083952D1*
X3720187Y3078067D1*
X3720239Y3178067D2*
X3724616Y3183952D1*
X3731270Y3190606D1*
X3737154Y3194982D1*
X3731270Y3199411D1*
X3724616Y3206065D1*
X3720239Y3211949D1*
X3715810Y3206065D1*
X3709157Y3199411D1*
X3703272Y3195035D1*
X3709157Y3190606D1*
X3715810Y3183952D1*
X3720187Y3178067D1*
X3720239Y3278067D2*
X3724616Y3283952D1*
X3731270Y3290606D1*
X3737154Y3294982D1*
X3731270Y3299411D1*
X3724616Y3306065D1*
X3720239Y3311949D1*
X3715810Y3306065D1*
X3709157Y3299411D1*
X3703272Y3295035D1*
X3709157Y3290606D1*
X3715810Y3283952D1*
X3720187Y3278067D1*
X3720239Y3378067D2*
X3724616Y3383952D1*
X3731270Y3390606D1*
X3737154Y3394982D1*
X3731270Y3399411D1*
X3724616Y3406065D1*
X3720239Y3411949D1*
X3715810Y3406065D1*
X3709157Y3399411D1*
X3703272Y3395035D1*
X3709157Y3390606D1*
X3715810Y3383952D1*
X3720187Y3378067D1*
X3720239Y3478067D2*
X3724616Y3483952D1*
X3731270Y3490606D1*
X3737154Y3494982D1*
X3731270Y3499411D1*
X3724616Y3506065D1*
X3720239Y3511949D1*
X3715810Y3506065D1*
X3709157Y3499411D1*
X3703272Y3495035D1*
X3709157Y3490606D1*
X3715810Y3483952D1*
X3720187Y3478067D1*
X3720239Y3578067D2*
X3724616Y3583952D1*
X3731270Y3590606D1*
X3737154Y3594982D1*
X3731270Y3599411D1*
X3724616Y3606065D1*
X3720239Y3611949D1*
X3715810Y3606065D1*
X3709157Y3599411D1*
X3703272Y3595035D1*
X3709157Y3590606D1*
X3715810Y3583952D1*
X3720187Y3578067D1*
X3720239Y3678067D2*
X3724616Y3683952D1*
X3731270Y3690606D1*
X3737154Y3694982D1*
X3731270Y3699411D1*
X3724616Y3706065D1*
X3720239Y3711949D1*
X3715810Y3706065D1*
X3709157Y3699411D1*
X3703272Y3695035D1*
X3709157Y3690606D1*
X3715810Y3683952D1*
X3720187Y3678067D1*
X957713Y3607245D2*
X953040Y3599577D1*
X947331Y3592890D1*
X940645Y3587182D1*
X932977Y3582508D1*
X940645Y3577835D1*
X947331Y3572127D1*
X953040Y3565440D1*
X957713Y3557772D1*
X962386Y3565440D1*
X968095Y3572127D1*
X974781Y3577835D1*
X982449Y3582508D1*
X974781Y3587182D1*
X968095Y3592890D1*
X962386Y3599577D1*
X957713Y3607245D1*
X932977Y3682508D2*
X940645Y3677835D1*
X947331Y3672127D1*
X953040Y3665440D1*
X957713Y3657772D1*
X962386Y3665440D1*
X968095Y3672127D1*
X974781Y3677835D1*
X982449Y3682508D1*
X974781Y3687182D1*
X968095Y3692890D1*
X962386Y3699577D1*
X957713Y3707245D1*
X953040Y3699577D1*
X947331Y3692890D1*
X940645Y3687182D1*
X932977Y3682508D1*
X957713Y3507245D2*
X953040Y3499577D1*
X947331Y3492890D1*
X940645Y3487182D1*
X932977Y3482508D1*
X940645Y3477835D1*
X947331Y3472127D1*
X953040Y3465440D1*
X957713Y3457772D1*
X962386Y3465440D1*
X968095Y3472127D1*
X974781Y3477835D1*
X982449Y3482508D1*
X974781Y3487182D1*
X968095Y3492890D1*
X962386Y3499577D1*
X957713Y3507245D1*
Y3407245D2*
X953040Y3399577D1*
X947331Y3392890D1*
X940645Y3387182D1*
X932977Y3382508D1*
X940645Y3377835D1*
X947331Y3372127D1*
X953040Y3365440D1*
X957713Y3357772D1*
X962386Y3365440D1*
X968095Y3372127D1*
X974781Y3377835D1*
X982449Y3382508D1*
X974781Y3387182D1*
X968095Y3392890D1*
X962386Y3399577D1*
X957713Y3407245D1*
X882449Y3382508D2*
X874781Y3387182D1*
X868095Y3392890D1*
X862386Y3399577D1*
X857713Y3407245D1*
X853040Y3399577D1*
X847331Y3392890D1*
X840645Y3387182D1*
X832977Y3382508D1*
X840645Y3377835D1*
X847331Y3372127D1*
X853040Y3365440D1*
X857713Y3357772D1*
X862386Y3365440D1*
X868095Y3372127D1*
X874781Y3377835D1*
X882449Y3382508D1*
X957713Y3307245D2*
X953040Y3299577D1*
X947331Y3292890D1*
X940645Y3287182D1*
X932977Y3282508D1*
X940645Y3277835D1*
X947331Y3272127D1*
X953040Y3265440D1*
X957713Y3257772D1*
X962386Y3265440D1*
X968095Y3272127D1*
X974781Y3277835D1*
X982449Y3282508D1*
X974781Y3287182D1*
X968095Y3292890D1*
X962386Y3299577D1*
X957713Y3307245D1*
X882449Y3282508D2*
X874781Y3287182D1*
X868095Y3292890D1*
X862386Y3299577D1*
X857713Y3307245D1*
X853040Y3299577D1*
X847331Y3292890D1*
X840645Y3287182D1*
X832977Y3282508D1*
X840645Y3277835D1*
X847331Y3272127D1*
X853040Y3265440D1*
X857713Y3257772D1*
X862386Y3265440D1*
X868095Y3272127D1*
X874781Y3277835D1*
X882449Y3282508D1*
X957713Y3207245D2*
X953040Y3199577D1*
X947331Y3192890D1*
X940645Y3187182D1*
X932977Y3182508D1*
X940645Y3177835D1*
X947331Y3172127D1*
X953040Y3165440D1*
X957713Y3157772D1*
X962386Y3165440D1*
X968095Y3172127D1*
X974781Y3177835D1*
X982449Y3182508D1*
X974781Y3187182D1*
X968095Y3192890D1*
X962386Y3199577D1*
X957713Y3207245D1*
X882449Y3182508D2*
X874781Y3187182D1*
X868095Y3192890D1*
X862386Y3199577D1*
X857713Y3207245D1*
X853040Y3199577D1*
X847331Y3192890D1*
X840645Y3187182D1*
X832977Y3182508D1*
X840645Y3177835D1*
X847331Y3172127D1*
X853040Y3165440D1*
X857713Y3157772D1*
X862386Y3165440D1*
X868095Y3172127D1*
X874781Y3177835D1*
X882449Y3182508D1*
X957713Y3107245D2*
X953040Y3099577D1*
X947331Y3092890D1*
X940645Y3087182D1*
X932977Y3082508D1*
X940645Y3077835D1*
X947331Y3072127D1*
X953040Y3065440D1*
X957713Y3057772D1*
X962386Y3065440D1*
X968095Y3072127D1*
X974781Y3077835D1*
X982449Y3082508D1*
X974781Y3087182D1*
X968095Y3092890D1*
X962386Y3099577D1*
X957713Y3107245D1*
X882449Y3082508D2*
X874781Y3087182D1*
X868095Y3092890D1*
X862386Y3099577D1*
X857713Y3107245D1*
X853040Y3099577D1*
X847331Y3092890D1*
X840645Y3087182D1*
X832977Y3082508D1*
X840645Y3077835D1*
X847331Y3072127D1*
X853040Y3065440D1*
X857713Y3057772D1*
X862386Y3065440D1*
X868095Y3072127D1*
X874781Y3077835D1*
X882449Y3082508D1*
X957713Y3007245D2*
X953040Y2999577D1*
X947331Y2992890D1*
X940645Y2987182D1*
X932977Y2982508D1*
X940645Y2977835D1*
X947331Y2972127D1*
X953040Y2965440D1*
X957713Y2957772D1*
X962386Y2965440D1*
X968095Y2972127D1*
X974781Y2977835D1*
X982449Y2982508D1*
X974781Y2987182D1*
X968095Y2992890D1*
X962386Y2999577D1*
X957713Y3007245D1*
X882449Y2982508D2*
X874781Y2987182D1*
X868095Y2992890D1*
X862386Y2999577D1*
X857713Y3007245D1*
X853040Y2999577D1*
X847331Y2992890D1*
X840645Y2987182D1*
X832977Y2982508D1*
X840645Y2977835D1*
X847331Y2972127D1*
X853040Y2965440D1*
X857713Y2957772D1*
X862386Y2965440D1*
X868095Y2972127D1*
X874781Y2977835D1*
X882449Y2982508D1*
X1057713Y3707245D2*
X1053040Y3699577D1*
X1047331Y3692890D1*
X1040645Y3687182D1*
X1032977Y3682508D1*
X1040645Y3677835D1*
X1047331Y3672127D1*
X1053040Y3665440D1*
X1057713Y3657772D1*
X1062386Y3665440D1*
X1068095Y3672127D1*
X1074781Y3677835D1*
X1082449Y3682508D1*
X1074781Y3687182D1*
X1068095Y3692890D1*
X1062386Y3699577D1*
X1057713Y3707245D1*
Y3607245D2*
X1053040Y3599577D1*
X1047331Y3592890D1*
X1040645Y3587182D1*
X1032977Y3582508D1*
X1040645Y3577835D1*
X1047331Y3572127D1*
X1053040Y3565440D1*
X1057713Y3557772D1*
X1062386Y3565440D1*
X1068095Y3572127D1*
X1074781Y3577835D1*
X1082449Y3582508D1*
X1074781Y3587182D1*
X1068095Y3592890D1*
X1062386Y3599577D1*
X1057713Y3607245D1*
Y3507245D2*
X1053040Y3499577D1*
X1047331Y3492890D1*
X1040645Y3487182D1*
X1032977Y3482508D1*
X1040645Y3477835D1*
X1047331Y3472127D1*
X1053040Y3465440D1*
X1057713Y3457772D1*
X1062386Y3465440D1*
X1068095Y3472127D1*
X1074781Y3477835D1*
X1082449Y3482508D1*
X1074781Y3487182D1*
X1068095Y3492890D1*
X1062386Y3499577D1*
X1057713Y3507245D1*
Y3407245D2*
X1053040Y3399577D1*
X1047331Y3392890D1*
X1040645Y3387182D1*
X1032977Y3382508D1*
X1040645Y3377835D1*
X1047331Y3372127D1*
X1053040Y3365440D1*
X1057713Y3357772D1*
X1062386Y3365440D1*
X1068095Y3372127D1*
X1074781Y3377835D1*
X1082449Y3382508D1*
X1074781Y3387182D1*
X1068095Y3392890D1*
X1062386Y3399577D1*
X1057713Y3407245D1*
Y3307245D2*
X1053040Y3299577D1*
X1047331Y3292890D1*
X1040645Y3287182D1*
X1032977Y3282508D1*
X1040645Y3277835D1*
X1047331Y3272127D1*
X1053040Y3265440D1*
X1057713Y3257772D1*
X1062386Y3265440D1*
X1068095Y3272127D1*
X1074781Y3277835D1*
X1082449Y3282508D1*
X1074781Y3287182D1*
X1068095Y3292890D1*
X1062386Y3299577D1*
X1057713Y3307245D1*
Y3207245D2*
X1053040Y3199577D1*
X1047331Y3192890D1*
X1040645Y3187182D1*
X1032977Y3182508D1*
X1040645Y3177835D1*
X1047331Y3172127D1*
X1053040Y3165440D1*
X1057713Y3157772D1*
X1062386Y3165440D1*
X1068095Y3172127D1*
X1074781Y3177835D1*
X1082449Y3182508D1*
X1074781Y3187182D1*
X1068095Y3192890D1*
X1062386Y3199577D1*
X1057713Y3207245D1*
Y3107245D2*
X1053040Y3099577D1*
X1047331Y3092890D1*
X1040645Y3087182D1*
X1032977Y3082508D1*
X1040645Y3077835D1*
X1047331Y3072127D1*
X1053040Y3065440D1*
X1057713Y3057772D1*
X1062386Y3065440D1*
X1068095Y3072127D1*
X1074781Y3077835D1*
X1082449Y3082508D1*
X1074781Y3087182D1*
X1068095Y3092890D1*
X1062386Y3099577D1*
X1057713Y3107245D1*
Y3007245D2*
X1053040Y2999577D1*
X1047331Y2992890D1*
X1040645Y2987182D1*
X1032977Y2982508D1*
X1040645Y2977835D1*
X1047331Y2972127D1*
X1053040Y2965440D1*
X1057713Y2957772D1*
X1062386Y2965440D1*
X1068095Y2972127D1*
X1074781Y2977835D1*
X1082449Y2982508D1*
X1074781Y2987182D1*
X1068095Y2992890D1*
X1062386Y2999577D1*
X1057713Y3007245D1*
X1157713Y3707245D2*
X1153040Y3699577D1*
X1147331Y3692890D1*
X1140645Y3687182D1*
X1132977Y3682508D1*
X1140645Y3677835D1*
X1147331Y3672127D1*
X1153040Y3665440D1*
X1157713Y3657772D1*
X1162386Y3665440D1*
X1168095Y3672127D1*
X1174781Y3677835D1*
X1182449Y3682508D1*
X1174781Y3687182D1*
X1168095Y3692890D1*
X1162386Y3699577D1*
X1157713Y3707245D1*
Y3607245D2*
X1153040Y3599577D1*
X1147331Y3592890D1*
X1140645Y3587182D1*
X1132977Y3582508D1*
X1140645Y3577835D1*
X1147331Y3572127D1*
X1153040Y3565440D1*
X1157713Y3557772D1*
X1162386Y3565440D1*
X1168095Y3572127D1*
X1174781Y3577835D1*
X1182449Y3582508D1*
X1174781Y3587182D1*
X1168095Y3592890D1*
X1162386Y3599577D1*
X1157713Y3607245D1*
Y3507245D2*
X1153040Y3499577D1*
X1147331Y3492890D1*
X1140645Y3487182D1*
X1132977Y3482508D1*
X1140645Y3477835D1*
X1147331Y3472127D1*
X1153040Y3465440D1*
X1157713Y3457772D1*
X1162386Y3465440D1*
X1168095Y3472127D1*
X1174781Y3477835D1*
X1182449Y3482508D1*
X1174781Y3487182D1*
X1168095Y3492890D1*
X1162386Y3499577D1*
X1157713Y3507245D1*
Y3407245D2*
X1153040Y3399577D1*
X1147331Y3392890D1*
X1140645Y3387182D1*
X1132977Y3382508D1*
X1140645Y3377835D1*
X1147331Y3372127D1*
X1153040Y3365440D1*
X1157713Y3357772D1*
X1162386Y3365440D1*
X1168095Y3372127D1*
X1174781Y3377835D1*
X1182449Y3382508D1*
X1174781Y3387182D1*
X1168095Y3392890D1*
X1162386Y3399577D1*
X1157713Y3407245D1*
Y3307245D2*
X1153040Y3299577D1*
X1147331Y3292890D1*
X1140645Y3287182D1*
X1132977Y3282508D1*
X1140645Y3277835D1*
X1147331Y3272127D1*
X1153040Y3265440D1*
X1157713Y3257772D1*
X1162386Y3265440D1*
X1168095Y3272127D1*
X1174781Y3277835D1*
X1182449Y3282508D1*
X1174781Y3287182D1*
X1168095Y3292890D1*
X1162386Y3299577D1*
X1157713Y3307245D1*
Y3207245D2*
X1153040Y3199577D1*
X1147331Y3192890D1*
X1140645Y3187182D1*
X1132977Y3182508D1*
X1140645Y3177835D1*
X1147331Y3172127D1*
X1153040Y3165440D1*
X1157713Y3157772D1*
X1162386Y3165440D1*
X1168095Y3172127D1*
X1174781Y3177835D1*
X1182449Y3182508D1*
X1174781Y3187182D1*
X1168095Y3192890D1*
X1162386Y3199577D1*
X1157713Y3207245D1*
Y3107245D2*
X1153040Y3099577D1*
X1147331Y3092890D1*
X1140645Y3087182D1*
X1132977Y3082508D1*
X1140645Y3077835D1*
X1147331Y3072127D1*
X1153040Y3065440D1*
X1157713Y3057772D1*
X1162386Y3065440D1*
X1168095Y3072127D1*
X1174781Y3077835D1*
X1182449Y3082508D1*
X1174781Y3087182D1*
X1168095Y3092890D1*
X1162386Y3099577D1*
X1157713Y3107245D1*
X1257713Y3707245D2*
X1253040Y3699577D1*
X1247331Y3692890D1*
X1240645Y3687182D1*
X1232977Y3682508D1*
X1240645Y3677835D1*
X1247331Y3672127D1*
X1253040Y3665440D1*
X1257713Y3657772D1*
X1262386Y3665440D1*
X1268095Y3672127D1*
X1274781Y3677835D1*
X1282449Y3682508D1*
X1274781Y3687182D1*
X1268095Y3692890D1*
X1262386Y3699577D1*
X1257713Y3707245D1*
Y3607245D2*
X1253040Y3599577D1*
X1247331Y3592890D1*
X1240645Y3587182D1*
X1232977Y3582508D1*
X1240645Y3577835D1*
X1247331Y3572127D1*
X1253040Y3565440D1*
X1257713Y3557772D1*
X1262386Y3565440D1*
X1268095Y3572127D1*
X1274781Y3577835D1*
X1282449Y3582508D1*
X1274781Y3587182D1*
X1268095Y3592890D1*
X1262386Y3599577D1*
X1257713Y3607245D1*
Y3507245D2*
X1253040Y3499577D1*
X1247331Y3492890D1*
X1240645Y3487182D1*
X1232977Y3482508D1*
X1240645Y3477835D1*
X1247331Y3472127D1*
X1253040Y3465440D1*
X1257713Y3457772D1*
X1262386Y3465440D1*
X1268095Y3472127D1*
X1274781Y3477835D1*
X1282449Y3482508D1*
X1274781Y3487182D1*
X1268095Y3492890D1*
X1262386Y3499577D1*
X1257713Y3507245D1*
Y3407245D2*
X1253040Y3399577D1*
X1247331Y3392890D1*
X1240645Y3387182D1*
X1232977Y3382508D1*
X1240645Y3377835D1*
X1247331Y3372127D1*
X1253040Y3365440D1*
X1257713Y3357772D1*
X1262386Y3365440D1*
X1268095Y3372127D1*
X1274781Y3377835D1*
X1282449Y3382508D1*
X1274781Y3387182D1*
X1268095Y3392890D1*
X1262386Y3399577D1*
X1257713Y3407245D1*
Y3307245D2*
X1253040Y3299577D1*
X1247331Y3292890D1*
X1240645Y3287182D1*
X1232977Y3282508D1*
X1240645Y3277835D1*
X1247331Y3272127D1*
X1253040Y3265440D1*
X1257713Y3257772D1*
X1262386Y3265440D1*
X1268095Y3272127D1*
X1274781Y3277835D1*
X1282449Y3282508D1*
X1274781Y3287182D1*
X1268095Y3292890D1*
X1262386Y3299577D1*
X1257713Y3307245D1*
Y3207245D2*
X1253040Y3199577D1*
X1247331Y3192890D1*
X1240645Y3187182D1*
X1232977Y3182508D1*
X1240645Y3177835D1*
X1247331Y3172127D1*
X1253040Y3165440D1*
X1257713Y3157772D1*
X1262386Y3165440D1*
X1268095Y3172127D1*
X1274781Y3177835D1*
X1282449Y3182508D1*
X1274781Y3187182D1*
X1268095Y3192890D1*
X1262386Y3199577D1*
X1257713Y3207245D1*
Y3107245D2*
X1253040Y3099577D1*
X1247331Y3092890D1*
X1240645Y3087182D1*
X1232977Y3082508D1*
X1240645Y3077835D1*
X1247331Y3072127D1*
X1253040Y3065440D1*
X1257713Y3057772D1*
X1262386Y3065440D1*
X1268095Y3072127D1*
X1274781Y3077835D1*
X1282449Y3082508D1*
X1274781Y3087182D1*
X1268095Y3092890D1*
X1262386Y3099577D1*
X1257713Y3107245D1*
X1357713Y3707245D2*
X1353040Y3699577D1*
X1347331Y3692890D1*
X1340645Y3687182D1*
X1332977Y3682508D1*
X1340645Y3677835D1*
X1347331Y3672127D1*
X1353040Y3665440D1*
X1357713Y3657772D1*
X1362386Y3665440D1*
X1368095Y3672127D1*
X1374781Y3677835D1*
X1382449Y3682508D1*
X1374781Y3687182D1*
X1368095Y3692890D1*
X1362386Y3699577D1*
X1357713Y3707245D1*
Y3607245D2*
X1353040Y3599577D1*
X1347331Y3592890D1*
X1340645Y3587182D1*
X1332977Y3582508D1*
X1340645Y3577835D1*
X1347331Y3572127D1*
X1353040Y3565440D1*
X1357713Y3557772D1*
X1362386Y3565440D1*
X1368095Y3572127D1*
X1374781Y3577835D1*
X1382449Y3582508D1*
X1374781Y3587182D1*
X1368095Y3592890D1*
X1362386Y3599577D1*
X1357713Y3607245D1*
Y3507245D2*
X1353040Y3499577D1*
X1347331Y3492890D1*
X1340645Y3487182D1*
X1332977Y3482508D1*
X1340645Y3477835D1*
X1347331Y3472127D1*
X1353040Y3465440D1*
X1357713Y3457772D1*
X1362386Y3465440D1*
X1368095Y3472127D1*
X1374781Y3477835D1*
X1382449Y3482508D1*
X1374781Y3487182D1*
X1368095Y3492890D1*
X1362386Y3499577D1*
X1357713Y3507245D1*
Y3407245D2*
X1353040Y3399577D1*
X1347331Y3392890D1*
X1340645Y3387182D1*
X1332977Y3382508D1*
X1340645Y3377835D1*
X1347331Y3372127D1*
X1353040Y3365440D1*
X1357713Y3357772D1*
X1362386Y3365440D1*
X1368095Y3372127D1*
X1374781Y3377835D1*
X1382449Y3382508D1*
X1374781Y3387182D1*
X1368095Y3392890D1*
X1362386Y3399577D1*
X1357713Y3407245D1*
Y3307245D2*
X1353040Y3299577D1*
X1347331Y3292890D1*
X1340645Y3287182D1*
X1332977Y3282508D1*
X1340645Y3277835D1*
X1347331Y3272127D1*
X1353040Y3265440D1*
X1357713Y3257772D1*
X1362386Y3265440D1*
X1368095Y3272127D1*
X1374781Y3277835D1*
X1382449Y3282508D1*
X1374781Y3287182D1*
X1368095Y3292890D1*
X1362386Y3299577D1*
X1357713Y3307245D1*
Y3207245D2*
X1353040Y3199577D1*
X1347331Y3192890D1*
X1340645Y3187182D1*
X1332977Y3182508D1*
X1340645Y3177835D1*
X1347331Y3172127D1*
X1353040Y3165440D1*
X1357713Y3157772D1*
X1362386Y3165440D1*
X1368095Y3172127D1*
X1374781Y3177835D1*
X1382449Y3182508D1*
X1374781Y3187182D1*
X1368095Y3192890D1*
X1362386Y3199577D1*
X1357713Y3207245D1*
Y3107245D2*
X1353040Y3099577D1*
X1347331Y3092890D1*
X1340645Y3087182D1*
X1332977Y3082508D1*
X1340645Y3077835D1*
X1347331Y3072127D1*
X1353040Y3065440D1*
X1357713Y3057772D1*
X1362386Y3065440D1*
X1368095Y3072127D1*
X1374781Y3077835D1*
X1382449Y3082508D1*
X1374781Y3087182D1*
X1368095Y3092890D1*
X1362386Y3099577D1*
X1357713Y3107245D1*
X1457713Y3707245D2*
X1453040Y3699577D1*
X1447331Y3692890D1*
X1440645Y3687182D1*
X1432977Y3682508D1*
X1440645Y3677835D1*
X1447331Y3672127D1*
X1453040Y3665440D1*
X1457713Y3657772D1*
X1462386Y3665440D1*
X1468095Y3672127D1*
X1474781Y3677835D1*
X1482449Y3682508D1*
X1474781Y3687182D1*
X1468095Y3692890D1*
X1462386Y3699577D1*
X1457713Y3707245D1*
Y3607245D2*
X1453040Y3599577D1*
X1447331Y3592890D1*
X1440645Y3587182D1*
X1432977Y3582508D1*
X1440645Y3577835D1*
X1447331Y3572127D1*
X1453040Y3565440D1*
X1457713Y3557772D1*
X1462386Y3565440D1*
X1468095Y3572127D1*
X1474781Y3577835D1*
X1482449Y3582508D1*
X1474781Y3587182D1*
X1468095Y3592890D1*
X1462386Y3599577D1*
X1457713Y3607245D1*
Y3507245D2*
X1453040Y3499577D1*
X1447331Y3492890D1*
X1440645Y3487182D1*
X1432977Y3482508D1*
X1440645Y3477835D1*
X1447331Y3472127D1*
X1453040Y3465440D1*
X1457713Y3457772D1*
X1462386Y3465440D1*
X1468095Y3472127D1*
X1474781Y3477835D1*
X1482449Y3482508D1*
X1474781Y3487182D1*
X1468095Y3492890D1*
X1462386Y3499577D1*
X1457713Y3507245D1*
Y3407245D2*
X1453040Y3399577D1*
X1447331Y3392890D1*
X1440645Y3387182D1*
X1432977Y3382508D1*
X1440645Y3377835D1*
X1447331Y3372127D1*
X1453040Y3365440D1*
X1457713Y3357772D1*
X1462386Y3365440D1*
X1468095Y3372127D1*
X1474781Y3377835D1*
X1482449Y3382508D1*
X1474781Y3387182D1*
X1468095Y3392890D1*
X1462386Y3399577D1*
X1457713Y3407245D1*
Y3307245D2*
X1453040Y3299577D1*
X1447331Y3292890D1*
X1440645Y3287182D1*
X1432977Y3282508D1*
X1440645Y3277835D1*
X1447331Y3272127D1*
X1453040Y3265440D1*
X1457713Y3257772D1*
X1462386Y3265440D1*
X1468095Y3272127D1*
X1474781Y3277835D1*
X1482449Y3282508D1*
X1474781Y3287182D1*
X1468095Y3292890D1*
X1462386Y3299577D1*
X1457713Y3307245D1*
Y3207245D2*
X1453040Y3199577D1*
X1447331Y3192890D1*
X1440645Y3187182D1*
X1432977Y3182508D1*
X1440645Y3177835D1*
X1447331Y3172127D1*
X1453040Y3165440D1*
X1457713Y3157772D1*
X1462386Y3165440D1*
X1468095Y3172127D1*
X1474781Y3177835D1*
X1482449Y3182508D1*
X1474781Y3187182D1*
X1468095Y3192890D1*
X1462386Y3199577D1*
X1457713Y3207245D1*
Y3107245D2*
X1453040Y3099577D1*
X1447331Y3092890D1*
X1440645Y3087182D1*
X1432977Y3082508D1*
X1440645Y3077835D1*
X1447331Y3072127D1*
X1453040Y3065440D1*
X1457713Y3057772D1*
X1462386Y3065440D1*
X1468095Y3072127D1*
X1474781Y3077835D1*
X1482449Y3082508D1*
X1474781Y3087182D1*
X1468095Y3092890D1*
X1462386Y3099577D1*
X1457713Y3107245D1*
X1557713Y3707245D2*
X1553040Y3699577D1*
X1547331Y3692890D1*
X1540645Y3687182D1*
X1532977Y3682508D1*
X1540645Y3677835D1*
X1547331Y3672127D1*
X1553040Y3665440D1*
X1557713Y3657772D1*
X1562386Y3665440D1*
X1568095Y3672127D1*
X1574781Y3677835D1*
X1582449Y3682508D1*
X1574781Y3687182D1*
X1568095Y3692890D1*
X1562386Y3699577D1*
X1557713Y3707245D1*
X1657713D2*
X1653040Y3699577D1*
X1647331Y3692890D1*
X1640645Y3687182D1*
X1632977Y3682508D1*
X1640645Y3677835D1*
X1647331Y3672127D1*
X1653040Y3665440D1*
X1657713Y3657772D1*
X1662386Y3665440D1*
X1668095Y3672127D1*
X1674781Y3677835D1*
X1682449Y3682508D1*
X1674781Y3687182D1*
X1668095Y3692890D1*
X1662386Y3699577D1*
X1657713Y3707245D1*
X1757713D2*
X1753040Y3699577D1*
X1747331Y3692890D1*
X1740645Y3687182D1*
X1732977Y3682508D1*
X1740645Y3677835D1*
X1747331Y3672127D1*
X1753040Y3665440D1*
X1757713Y3657772D1*
X1762386Y3665440D1*
X1768095Y3672127D1*
X1774781Y3677835D1*
X1782449Y3682508D1*
X1774781Y3687182D1*
X1768095Y3692890D1*
X1762386Y3699577D1*
X1757713Y3707245D1*
X1557713Y3607245D2*
X1553040Y3599577D1*
X1547331Y3592890D1*
X1540645Y3587182D1*
X1532977Y3582508D1*
X1540645Y3577835D1*
X1547331Y3572127D1*
X1553040Y3565440D1*
X1557713Y3557772D1*
X1562386Y3565440D1*
X1568095Y3572127D1*
X1574781Y3577835D1*
X1582449Y3582508D1*
X1574781Y3587182D1*
X1568095Y3592890D1*
X1562386Y3599577D1*
X1557713Y3607245D1*
X1657713D2*
X1653040Y3599577D1*
X1647331Y3592890D1*
X1640645Y3587182D1*
X1632977Y3582508D1*
X1640645Y3577835D1*
X1647331Y3572127D1*
X1653040Y3565440D1*
X1657713Y3557772D1*
X1662386Y3565440D1*
X1668095Y3572127D1*
X1674781Y3577835D1*
X1682449Y3582508D1*
X1674781Y3587182D1*
X1668095Y3592890D1*
X1662386Y3599577D1*
X1657713Y3607245D1*
X1757713D2*
X1753040Y3599577D1*
X1747331Y3592890D1*
X1740645Y3587182D1*
X1732977Y3582508D1*
X1740645Y3577835D1*
X1747331Y3572127D1*
X1753040Y3565440D1*
X1757713Y3557772D1*
X1762386Y3565440D1*
X1768095Y3572127D1*
X1774781Y3577835D1*
X1782449Y3582508D1*
X1774781Y3587182D1*
X1768095Y3592890D1*
X1762386Y3599577D1*
X1757713Y3607245D1*
X1782449Y3482508D2*
X1774781Y3487182D1*
X1768095Y3492890D1*
X1762386Y3499577D1*
X1757713Y3507245D1*
X1753040Y3499577D1*
X1747331Y3492890D1*
X1740645Y3487182D1*
X1732977Y3482508D1*
X1740645Y3477835D1*
X1747331Y3472127D1*
X1753040Y3465440D1*
X1757713Y3457772D1*
X1762386Y3465440D1*
X1768095Y3472127D1*
X1774781Y3477835D1*
X1782449Y3482508D1*
X1682449D2*
X1674781Y3487182D1*
X1668095Y3492890D1*
X1662386Y3499577D1*
X1657713Y3507245D1*
X1653040Y3499577D1*
X1647331Y3492890D1*
X1640645Y3487182D1*
X1632977Y3482508D1*
X1640645Y3477835D1*
X1647331Y3472127D1*
X1653040Y3465440D1*
X1657713Y3457772D1*
X1662386Y3465440D1*
X1668095Y3472127D1*
X1674781Y3477835D1*
X1682449Y3482508D1*
X1582449D2*
X1574781Y3487182D1*
X1568095Y3492890D1*
X1562386Y3499577D1*
X1557713Y3507245D1*
X1553040Y3499577D1*
X1547331Y3492890D1*
X1540645Y3487182D1*
X1532977Y3482508D1*
X1540645Y3477835D1*
X1547331Y3472127D1*
X1553040Y3465440D1*
X1557713Y3457772D1*
X1562386Y3465440D1*
X1568095Y3472127D1*
X1574781Y3477835D1*
X1582449Y3482508D1*
X1557713Y3407245D2*
X1553040Y3399577D1*
X1547331Y3392890D1*
X1540645Y3387182D1*
X1532977Y3382508D1*
X1540645Y3377835D1*
X1547331Y3372127D1*
X1553040Y3365440D1*
X1557713Y3357772D1*
X1562386Y3365440D1*
X1568095Y3372127D1*
X1574781Y3377835D1*
X1582449Y3382508D1*
X1574781Y3387182D1*
X1568095Y3392890D1*
X1562386Y3399577D1*
X1557713Y3407245D1*
X1657713D2*
X1653040Y3399577D1*
X1647331Y3392890D1*
X1640645Y3387182D1*
X1632977Y3382508D1*
X1640645Y3377835D1*
X1647331Y3372127D1*
X1653040Y3365440D1*
X1657713Y3357772D1*
X1662386Y3365440D1*
X1668095Y3372127D1*
X1674781Y3377835D1*
X1682449Y3382508D1*
X1674781Y3387182D1*
X1668095Y3392890D1*
X1662386Y3399577D1*
X1657713Y3407245D1*
X1757713D2*
X1753040Y3399577D1*
X1747331Y3392890D1*
X1740645Y3387182D1*
X1732977Y3382508D1*
X1740645Y3377835D1*
X1747331Y3372127D1*
X1753040Y3365440D1*
X1757713Y3357772D1*
X1762386Y3365440D1*
X1768095Y3372127D1*
X1774781Y3377835D1*
X1782449Y3382508D1*
X1774781Y3387182D1*
X1768095Y3392890D1*
X1762386Y3399577D1*
X1757713Y3407245D1*
X1782449Y3282508D2*
X1774781Y3287182D1*
X1768095Y3292890D1*
X1762386Y3299577D1*
X1757713Y3307245D1*
X1753040Y3299577D1*
X1747331Y3292890D1*
X1740645Y3287182D1*
X1732977Y3282508D1*
X1740645Y3277835D1*
X1747331Y3272127D1*
X1753040Y3265440D1*
X1757713Y3257772D1*
X1762386Y3265440D1*
X1768095Y3272127D1*
X1774781Y3277835D1*
X1782449Y3282508D1*
X1682449D2*
X1674781Y3287182D1*
X1668095Y3292890D1*
X1662386Y3299577D1*
X1657713Y3307245D1*
X1653040Y3299577D1*
X1647331Y3292890D1*
X1640645Y3287182D1*
X1632977Y3282508D1*
X1640645Y3277835D1*
X1647331Y3272127D1*
X1653040Y3265440D1*
X1657713Y3257772D1*
X1662386Y3265440D1*
X1668095Y3272127D1*
X1674781Y3277835D1*
X1682449Y3282508D1*
X1582449D2*
X1574781Y3287182D1*
X1568095Y3292890D1*
X1562386Y3299577D1*
X1557713Y3307245D1*
X1553040Y3299577D1*
X1547331Y3292890D1*
X1540645Y3287182D1*
X1532977Y3282508D1*
X1540645Y3277835D1*
X1547331Y3272127D1*
X1553040Y3265440D1*
X1557713Y3257772D1*
X1562386Y3265440D1*
X1568095Y3272127D1*
X1574781Y3277835D1*
X1582449Y3282508D1*
X1557713Y3207245D2*
X1553040Y3199577D1*
X1547331Y3192890D1*
X1540645Y3187182D1*
X1532977Y3182508D1*
X1540645Y3177835D1*
X1547331Y3172127D1*
X1553040Y3165440D1*
X1557713Y3157772D1*
X1562386Y3165440D1*
X1568095Y3172127D1*
X1574781Y3177835D1*
X1582449Y3182508D1*
X1574781Y3187182D1*
X1568095Y3192890D1*
X1562386Y3199577D1*
X1557713Y3207245D1*
X1657713D2*
X1653040Y3199577D1*
X1647331Y3192890D1*
X1640645Y3187182D1*
X1632977Y3182508D1*
X1640645Y3177835D1*
X1647331Y3172127D1*
X1653040Y3165440D1*
X1657713Y3157772D1*
X1662386Y3165440D1*
X1668095Y3172127D1*
X1674781Y3177835D1*
X1682449Y3182508D1*
X1674781Y3187182D1*
X1668095Y3192890D1*
X1662386Y3199577D1*
X1657713Y3207245D1*
X1757713D2*
X1753040Y3199577D1*
X1747331Y3192890D1*
X1740645Y3187182D1*
X1732977Y3182508D1*
X1740645Y3177835D1*
X1747331Y3172127D1*
X1753040Y3165440D1*
X1757713Y3157772D1*
X1762386Y3165440D1*
X1768095Y3172127D1*
X1774781Y3177835D1*
X1782449Y3182508D1*
X1774781Y3187182D1*
X1768095Y3192890D1*
X1762386Y3199577D1*
X1757713Y3207245D1*
X1782449Y3082508D2*
X1774781Y3087182D1*
X1768095Y3092890D1*
X1762386Y3099577D1*
X1757713Y3107245D1*
X1753040Y3099577D1*
X1747331Y3092890D1*
X1740645Y3087182D1*
X1732977Y3082508D1*
X1740645Y3077835D1*
X1747331Y3072127D1*
X1753040Y3065440D1*
X1757713Y3057772D1*
X1762386Y3065440D1*
X1768095Y3072127D1*
X1774781Y3077835D1*
X1782449Y3082508D1*
X1682449D2*
X1674781Y3087182D1*
X1668095Y3092890D1*
X1662386Y3099577D1*
X1657713Y3107245D1*
X1653040Y3099577D1*
X1647331Y3092890D1*
X1640645Y3087182D1*
X1632977Y3082508D1*
X1640645Y3077835D1*
X1647331Y3072127D1*
X1653040Y3065440D1*
X1657713Y3057772D1*
X1662386Y3065440D1*
X1668095Y3072127D1*
X1674781Y3077835D1*
X1682449Y3082508D1*
X1582449D2*
X1574781Y3087182D1*
X1568095Y3092890D1*
X1562386Y3099577D1*
X1557713Y3107245D1*
X1553040Y3099577D1*
X1547331Y3092890D1*
X1540645Y3087182D1*
X1532977Y3082508D1*
X1540645Y3077835D1*
X1547331Y3072127D1*
X1553040Y3065440D1*
X1557713Y3057772D1*
X1562386Y3065440D1*
X1568095Y3072127D1*
X1574781Y3077835D1*
X1582449Y3082508D1*
X557713Y3407245D2*
X553040Y3399577D1*
X547331Y3392890D1*
X540645Y3387182D1*
X532977Y3382508D1*
X540645Y3377835D1*
X547331Y3372127D1*
X553040Y3365440D1*
X557713Y3357772D1*
X562386Y3365440D1*
X568095Y3372127D1*
X574781Y3377835D1*
X582449Y3382508D1*
X574781Y3387182D1*
X568095Y3392890D1*
X562386Y3399577D1*
X557713Y3407245D1*
X657713D2*
X653040Y3399577D1*
X647331Y3392890D1*
X640645Y3387182D1*
X632977Y3382508D1*
X640645Y3377835D1*
X647331Y3372127D1*
X653040Y3365440D1*
X657713Y3357772D1*
X662386Y3365440D1*
X668095Y3372127D1*
X674781Y3377835D1*
X682449Y3382508D1*
X674781Y3387182D1*
X668095Y3392890D1*
X662386Y3399577D1*
X657713Y3407245D1*
X757713D2*
X753040Y3399577D1*
X747331Y3392890D1*
X740645Y3387182D1*
X732977Y3382508D1*
X740645Y3377835D1*
X747331Y3372127D1*
X753040Y3365440D1*
X757713Y3357772D1*
X762386Y3365440D1*
X768095Y3372127D1*
X774781Y3377835D1*
X782449Y3382508D1*
X774781Y3387182D1*
X768095Y3392890D1*
X762386Y3399577D1*
X757713Y3407245D1*
X782449Y3282508D2*
X774781Y3287182D1*
X768095Y3292890D1*
X762386Y3299577D1*
X757713Y3307245D1*
X753040Y3299577D1*
X747331Y3292890D1*
X740645Y3287182D1*
X732977Y3282508D1*
X740645Y3277835D1*
X747331Y3272127D1*
X753040Y3265440D1*
X757713Y3257772D1*
X762386Y3265440D1*
X768095Y3272127D1*
X774781Y3277835D1*
X782449Y3282508D1*
Y3182508D2*
X774781Y3187182D1*
X768095Y3192890D1*
X762386Y3199577D1*
X757713Y3207245D1*
X753040Y3199577D1*
X747331Y3192890D1*
X740645Y3187182D1*
X732977Y3182508D1*
X740645Y3177835D1*
X747331Y3172127D1*
X753040Y3165440D1*
X757713Y3157772D1*
X762386Y3165440D1*
X768095Y3172127D1*
X774781Y3177835D1*
X782449Y3182508D1*
Y3082508D2*
X774781Y3087182D1*
X768095Y3092890D1*
X762386Y3099577D1*
X757713Y3107245D1*
X753040Y3099577D1*
X747331Y3092890D1*
X740645Y3087182D1*
X732977Y3082508D1*
X740645Y3077835D1*
X747331Y3072127D1*
X753040Y3065440D1*
X757713Y3057772D1*
X762386Y3065440D1*
X768095Y3072127D1*
X774781Y3077835D1*
X782449Y3082508D1*
Y2982508D2*
X774781Y2987182D1*
X768095Y2992890D1*
X762386Y2999577D1*
X757713Y3007245D1*
X753040Y2999577D1*
X747331Y2992890D1*
X740645Y2987182D1*
X732977Y2982508D1*
X740645Y2977835D1*
X747331Y2972127D1*
X753040Y2965440D1*
X757713Y2957772D1*
X762386Y2965440D1*
X768095Y2972127D1*
X774781Y2977835D1*
X782449Y2982508D1*
X657713Y2957772D2*
X662386Y2965440D1*
X668095Y2972127D1*
X674781Y2977835D1*
X682449Y2982508D1*
X674781Y2987182D1*
X668095Y2992890D1*
X662386Y2999577D1*
X657713Y3007245D1*
X653040Y2999577D1*
X647331Y2992890D1*
X640645Y2987182D1*
X632977Y2982508D1*
X640645Y2977835D1*
X647331Y2972127D1*
X653040Y2965440D1*
X657713Y2957772D1*
X557713D2*
X562386Y2965440D1*
X568095Y2972127D1*
X574781Y2977835D1*
X582449Y2982508D1*
X574781Y2987182D1*
X568095Y2992890D1*
X562386Y2999577D1*
X557713Y3007245D1*
X553040Y2999577D1*
X547331Y2992890D1*
X540645Y2987182D1*
X532977Y2982508D1*
X540645Y2977835D1*
X547331Y2972127D1*
X553040Y2965440D1*
X557713Y2957772D1*
X532977Y3082508D2*
X540645Y3077835D1*
X547331Y3072127D1*
X553040Y3065440D1*
X557713Y3057772D1*
X562386Y3065440D1*
X568095Y3072127D1*
X574781Y3077835D1*
X582449Y3082508D1*
X574781Y3087182D1*
X568095Y3092890D1*
X562386Y3099577D1*
X557713Y3107245D1*
X553040Y3099577D1*
X547331Y3092890D1*
X540645Y3087182D1*
X532977Y3082508D1*
Y3182508D2*
X540645Y3177835D1*
X547331Y3172127D1*
X553040Y3165440D1*
X557713Y3157772D1*
X562386Y3165440D1*
X568095Y3172127D1*
X574781Y3177835D1*
X582449Y3182508D1*
X574781Y3187182D1*
X568095Y3192890D1*
X562386Y3199577D1*
X557713Y3207245D1*
X553040Y3199577D1*
X547331Y3192890D1*
X540645Y3187182D1*
X532977Y3182508D1*
Y3282508D2*
X540645Y3277835D1*
X547331Y3272127D1*
X553040Y3265440D1*
X557713Y3257772D1*
X562386Y3265440D1*
X568095Y3272127D1*
X574781Y3277835D1*
X582449Y3282508D1*
X574781Y3287182D1*
X568095Y3292890D1*
X562386Y3299577D1*
X557713Y3307245D1*
X553040Y3299577D1*
X547331Y3292890D1*
X540645Y3287182D1*
X532977Y3282508D1*
X657713Y3307245D2*
X653040Y3299577D1*
X647331Y3292890D1*
X640645Y3287182D1*
X632977Y3282508D1*
X640645Y3277835D1*
X647331Y3272127D1*
X653040Y3265440D1*
X657713Y3257772D1*
X662386Y3265440D1*
X668095Y3272127D1*
X674781Y3277835D1*
X682449Y3282508D1*
X674781Y3287182D1*
X668095Y3292890D1*
X662386Y3299577D1*
X657713Y3307245D1*
Y3207245D2*
X653040Y3199577D1*
X647331Y3192890D1*
X640645Y3187182D1*
X632977Y3182508D1*
X640645Y3177835D1*
X647331Y3172127D1*
X653040Y3165440D1*
X657713Y3157772D1*
X662386Y3165440D1*
X668095Y3172127D1*
X674781Y3177835D1*
X682449Y3182508D1*
X674781Y3187182D1*
X668095Y3192890D1*
X662386Y3199577D1*
X657713Y3207245D1*
Y3107245D2*
X653040Y3099577D1*
X647331Y3092890D1*
X640645Y3087182D1*
X632977Y3082508D1*
X640645Y3077835D1*
X647331Y3072127D1*
X653040Y3065440D1*
X657713Y3057772D1*
X662386Y3065440D1*
X668095Y3072127D1*
X674781Y3077835D1*
X682449Y3082508D1*
X674781Y3087182D1*
X668095Y3092890D1*
X662386Y3099577D1*
X657713Y3107245D1*
X2757713Y3707245D2*
X2753040Y3699577D1*
X2747331Y3692890D1*
X2740645Y3687182D1*
X2732977Y3682508D1*
X2740645Y3677835D1*
X2747331Y3672127D1*
X2753040Y3665440D1*
X2757713Y3657772D1*
X2762386Y3665440D1*
X2768095Y3672127D1*
X2774781Y3677835D1*
X2782449Y3682508D1*
X2774781Y3687182D1*
X2768095Y3692890D1*
X2762386Y3699577D1*
X2757713Y3707245D1*
Y3607245D2*
X2753040Y3599577D1*
X2747331Y3592890D1*
X2740645Y3587182D1*
X2732977Y3582508D1*
X2740645Y3577835D1*
X2747331Y3572127D1*
X2753040Y3565440D1*
X2757713Y3557772D1*
X2762386Y3565440D1*
X2768095Y3572127D1*
X2774781Y3577835D1*
X2782449Y3582508D1*
X2774781Y3587182D1*
X2768095Y3592890D1*
X2762386Y3599577D1*
X2757713Y3607245D1*
Y3507245D2*
X2753040Y3499577D1*
X2747331Y3492890D1*
X2740645Y3487182D1*
X2732977Y3482508D1*
X2740645Y3477835D1*
X2747331Y3472127D1*
X2753040Y3465440D1*
X2757713Y3457772D1*
X2762386Y3465440D1*
X2768095Y3472127D1*
X2774781Y3477835D1*
X2782449Y3482508D1*
X2774781Y3487182D1*
X2768095Y3492890D1*
X2762386Y3499577D1*
X2757713Y3507245D1*
Y3407245D2*
X2753040Y3399577D1*
X2747331Y3392890D1*
X2740645Y3387182D1*
X2732977Y3382508D1*
X2740645Y3377835D1*
X2747331Y3372127D1*
X2753040Y3365440D1*
X2757713Y3357772D1*
X2762386Y3365440D1*
X2768095Y3372127D1*
X2774781Y3377835D1*
X2782449Y3382508D1*
X2774781Y3387182D1*
X2768095Y3392890D1*
X2762386Y3399577D1*
X2757713Y3407245D1*
Y3307245D2*
X2753040Y3299577D1*
X2747331Y3292890D1*
X2740645Y3287182D1*
X2732977Y3282508D1*
X2740645Y3277835D1*
X2747331Y3272127D1*
X2753040Y3265440D1*
X2757713Y3257772D1*
X2762386Y3265440D1*
X2768095Y3272127D1*
X2774781Y3277835D1*
X2782449Y3282508D1*
X2774781Y3287182D1*
X2768095Y3292890D1*
X2762386Y3299577D1*
X2757713Y3307245D1*
Y3207245D2*
X2753040Y3199577D1*
X2747331Y3192890D1*
X2740645Y3187182D1*
X2732977Y3182508D1*
X2740645Y3177835D1*
X2747331Y3172127D1*
X2753040Y3165440D1*
X2757713Y3157772D1*
X2762386Y3165440D1*
X2768095Y3172127D1*
X2774781Y3177835D1*
X2782449Y3182508D1*
X2774781Y3187182D1*
X2768095Y3192890D1*
X2762386Y3199577D1*
X2757713Y3207245D1*
Y3107245D2*
X2753040Y3099577D1*
X2747331Y3092890D1*
X2740645Y3087182D1*
X2732977Y3082508D1*
X2740645Y3077835D1*
X2747331Y3072127D1*
X2753040Y3065440D1*
X2757713Y3057772D1*
X2762386Y3065440D1*
X2768095Y3072127D1*
X2774781Y3077835D1*
X2782449Y3082508D1*
X2774781Y3087182D1*
X2768095Y3092890D1*
X2762386Y3099577D1*
X2757713Y3107245D1*
X2857713Y3707245D2*
X2853040Y3699577D1*
X2847331Y3692890D1*
X2840645Y3687182D1*
X2832977Y3682508D1*
X2840645Y3677835D1*
X2847331Y3672127D1*
X2853040Y3665440D1*
X2857713Y3657772D1*
X2862386Y3665440D1*
X2868095Y3672127D1*
X2874781Y3677835D1*
X2882449Y3682508D1*
X2874781Y3687182D1*
X2868095Y3692890D1*
X2862386Y3699577D1*
X2857713Y3707245D1*
Y3607245D2*
X2853040Y3599577D1*
X2847331Y3592890D1*
X2840645Y3587182D1*
X2832977Y3582508D1*
X2840645Y3577835D1*
X2847331Y3572127D1*
X2853040Y3565440D1*
X2857713Y3557772D1*
X2862386Y3565440D1*
X2868095Y3572127D1*
X2874781Y3577835D1*
X2882449Y3582508D1*
X2874781Y3587182D1*
X2868095Y3592890D1*
X2862386Y3599577D1*
X2857713Y3607245D1*
Y3507245D2*
X2853040Y3499577D1*
X2847331Y3492890D1*
X2840645Y3487182D1*
X2832977Y3482508D1*
X2840645Y3477835D1*
X2847331Y3472127D1*
X2853040Y3465440D1*
X2857713Y3457772D1*
X2862386Y3465440D1*
X2868095Y3472127D1*
X2874781Y3477835D1*
X2882449Y3482508D1*
X2874781Y3487182D1*
X2868095Y3492890D1*
X2862386Y3499577D1*
X2857713Y3507245D1*
Y3407245D2*
X2853040Y3399577D1*
X2847331Y3392890D1*
X2840645Y3387182D1*
X2832977Y3382508D1*
X2840645Y3377835D1*
X2847331Y3372127D1*
X2853040Y3365440D1*
X2857713Y3357772D1*
X2862386Y3365440D1*
X2868095Y3372127D1*
X2874781Y3377835D1*
X2882449Y3382508D1*
X2874781Y3387182D1*
X2868095Y3392890D1*
X2862386Y3399577D1*
X2857713Y3407245D1*
Y3307245D2*
X2853040Y3299577D1*
X2847331Y3292890D1*
X2840645Y3287182D1*
X2832977Y3282508D1*
X2840645Y3277835D1*
X2847331Y3272127D1*
X2853040Y3265440D1*
X2857713Y3257772D1*
X2862386Y3265440D1*
X2868095Y3272127D1*
X2874781Y3277835D1*
X2882449Y3282508D1*
X2874781Y3287182D1*
X2868095Y3292890D1*
X2862386Y3299577D1*
X2857713Y3307245D1*
Y3207245D2*
X2853040Y3199577D1*
X2847331Y3192890D1*
X2840645Y3187182D1*
X2832977Y3182508D1*
X2840645Y3177835D1*
X2847331Y3172127D1*
X2853040Y3165440D1*
X2857713Y3157772D1*
X2862386Y3165440D1*
X2868095Y3172127D1*
X2874781Y3177835D1*
X2882449Y3182508D1*
X2874781Y3187182D1*
X2868095Y3192890D1*
X2862386Y3199577D1*
X2857713Y3207245D1*
Y3107245D2*
X2853040Y3099577D1*
X2847331Y3092890D1*
X2840645Y3087182D1*
X2832977Y3082508D1*
X2840645Y3077835D1*
X2847331Y3072127D1*
X2853040Y3065440D1*
X2857713Y3057772D1*
X2862386Y3065440D1*
X2868095Y3072127D1*
X2874781Y3077835D1*
X2882449Y3082508D1*
X2874781Y3087182D1*
X2868095Y3092890D1*
X2862386Y3099577D1*
X2857713Y3107245D1*
X2957713Y3707245D2*
X2953040Y3699577D1*
X2947331Y3692890D1*
X2940645Y3687182D1*
X2932977Y3682508D1*
X2940645Y3677835D1*
X2947331Y3672127D1*
X2953040Y3665440D1*
X2957713Y3657772D1*
X2962386Y3665440D1*
X2968095Y3672127D1*
X2974781Y3677835D1*
X2982449Y3682508D1*
X2974781Y3687182D1*
X2968095Y3692890D1*
X2962386Y3699577D1*
X2957713Y3707245D1*
Y3607245D2*
X2953040Y3599577D1*
X2947331Y3592890D1*
X2940645Y3587182D1*
X2932977Y3582508D1*
X2940645Y3577835D1*
X2947331Y3572127D1*
X2953040Y3565440D1*
X2957713Y3557772D1*
X2962386Y3565440D1*
X2968095Y3572127D1*
X2974781Y3577835D1*
X2982449Y3582508D1*
X2974781Y3587182D1*
X2968095Y3592890D1*
X2962386Y3599577D1*
X2957713Y3607245D1*
Y3507245D2*
X2953040Y3499577D1*
X2947331Y3492890D1*
X2940645Y3487182D1*
X2932977Y3482508D1*
X2940645Y3477835D1*
X2947331Y3472127D1*
X2953040Y3465440D1*
X2957713Y3457772D1*
X2962386Y3465440D1*
X2968095Y3472127D1*
X2974781Y3477835D1*
X2982449Y3482508D1*
X2974781Y3487182D1*
X2968095Y3492890D1*
X2962386Y3499577D1*
X2957713Y3507245D1*
Y3407245D2*
X2953040Y3399577D1*
X2947331Y3392890D1*
X2940645Y3387182D1*
X2932977Y3382508D1*
X2940645Y3377835D1*
X2947331Y3372127D1*
X2953040Y3365440D1*
X2957713Y3357772D1*
X2962386Y3365440D1*
X2968095Y3372127D1*
X2974781Y3377835D1*
X2982449Y3382508D1*
X2974781Y3387182D1*
X2968095Y3392890D1*
X2962386Y3399577D1*
X2957713Y3407245D1*
Y3307245D2*
X2953040Y3299577D1*
X2947331Y3292890D1*
X2940645Y3287182D1*
X2932977Y3282508D1*
X2940645Y3277835D1*
X2947331Y3272127D1*
X2953040Y3265440D1*
X2957713Y3257772D1*
X2962386Y3265440D1*
X2968095Y3272127D1*
X2974781Y3277835D1*
X2982449Y3282508D1*
X2974781Y3287182D1*
X2968095Y3292890D1*
X2962386Y3299577D1*
X2957713Y3307245D1*
Y3207245D2*
X2953040Y3199577D1*
X2947331Y3192890D1*
X2940645Y3187182D1*
X2932977Y3182508D1*
X2940645Y3177835D1*
X2947331Y3172127D1*
X2953040Y3165440D1*
X2957713Y3157772D1*
X2962386Y3165440D1*
X2968095Y3172127D1*
X2974781Y3177835D1*
X2982449Y3182508D1*
X2974781Y3187182D1*
X2968095Y3192890D1*
X2962386Y3199577D1*
X2957713Y3207245D1*
Y3107245D2*
X2953040Y3099577D1*
X2947331Y3092890D1*
X2940645Y3087182D1*
X2932977Y3082508D1*
X2940645Y3077835D1*
X2947331Y3072127D1*
X2953040Y3065440D1*
X2957713Y3057772D1*
X2962386Y3065440D1*
X2968095Y3072127D1*
X2974781Y3077835D1*
X2982449Y3082508D1*
X2974781Y3087182D1*
X2968095Y3092890D1*
X2962386Y3099577D1*
X2957713Y3107245D1*
X3057713Y3707245D2*
X3053040Y3699577D1*
X3047331Y3692890D1*
X3040645Y3687182D1*
X3032977Y3682508D1*
X3040645Y3677835D1*
X3047331Y3672127D1*
X3053040Y3665440D1*
X3057713Y3657772D1*
X3062386Y3665440D1*
X3068095Y3672127D1*
X3074781Y3677835D1*
X3082449Y3682508D1*
X3074781Y3687182D1*
X3068095Y3692890D1*
X3062386Y3699577D1*
X3057713Y3707245D1*
Y3607245D2*
X3053040Y3599577D1*
X3047331Y3592890D1*
X3040645Y3587182D1*
X3032977Y3582508D1*
X3040645Y3577835D1*
X3047331Y3572127D1*
X3053040Y3565440D1*
X3057713Y3557772D1*
X3062386Y3565440D1*
X3068095Y3572127D1*
X3074781Y3577835D1*
X3082449Y3582508D1*
X3074781Y3587182D1*
X3068095Y3592890D1*
X3062386Y3599577D1*
X3057713Y3607245D1*
Y3507245D2*
X3053040Y3499577D1*
X3047331Y3492890D1*
X3040645Y3487182D1*
X3032977Y3482508D1*
X3040645Y3477835D1*
X3047331Y3472127D1*
X3053040Y3465440D1*
X3057713Y3457772D1*
X3062386Y3465440D1*
X3068095Y3472127D1*
X3074781Y3477835D1*
X3082449Y3482508D1*
X3074781Y3487182D1*
X3068095Y3492890D1*
X3062386Y3499577D1*
X3057713Y3507245D1*
Y3407245D2*
X3053040Y3399577D1*
X3047331Y3392890D1*
X3040645Y3387182D1*
X3032977Y3382508D1*
X3040645Y3377835D1*
X3047331Y3372127D1*
X3053040Y3365440D1*
X3057713Y3357772D1*
X3062386Y3365440D1*
X3068095Y3372127D1*
X3074781Y3377835D1*
X3082449Y3382508D1*
X3074781Y3387182D1*
X3068095Y3392890D1*
X3062386Y3399577D1*
X3057713Y3407245D1*
Y3307245D2*
X3053040Y3299577D1*
X3047331Y3292890D1*
X3040645Y3287182D1*
X3032977Y3282508D1*
X3040645Y3277835D1*
X3047331Y3272127D1*
X3053040Y3265440D1*
X3057713Y3257772D1*
X3062386Y3265440D1*
X3068095Y3272127D1*
X3074781Y3277835D1*
X3082449Y3282508D1*
X3074781Y3287182D1*
X3068095Y3292890D1*
X3062386Y3299577D1*
X3057713Y3307245D1*
Y3207245D2*
X3053040Y3199577D1*
X3047331Y3192890D1*
X3040645Y3187182D1*
X3032977Y3182508D1*
X3040645Y3177835D1*
X3047331Y3172127D1*
X3053040Y3165440D1*
X3057713Y3157772D1*
X3062386Y3165440D1*
X3068095Y3172127D1*
X3074781Y3177835D1*
X3082449Y3182508D1*
X3074781Y3187182D1*
X3068095Y3192890D1*
X3062386Y3199577D1*
X3057713Y3207245D1*
Y3107245D2*
X3053040Y3099577D1*
X3047331Y3092890D1*
X3040645Y3087182D1*
X3032977Y3082508D1*
X3040645Y3077835D1*
X3047331Y3072127D1*
X3053040Y3065440D1*
X3057713Y3057772D1*
X3062386Y3065440D1*
X3068095Y3072127D1*
X3074781Y3077835D1*
X3082449Y3082508D1*
X3074781Y3087182D1*
X3068095Y3092890D1*
X3062386Y3099577D1*
X3057713Y3107245D1*
X3157713Y3707245D2*
X3153040Y3699577D1*
X3147331Y3692890D1*
X3140645Y3687182D1*
X3132977Y3682508D1*
X3140645Y3677835D1*
X3147331Y3672127D1*
X3153040Y3665440D1*
X3157713Y3657772D1*
X3162386Y3665440D1*
X3168095Y3672127D1*
X3174781Y3677835D1*
X3182449Y3682508D1*
X3174781Y3687182D1*
X3168095Y3692890D1*
X3162386Y3699577D1*
X3157713Y3707245D1*
Y3607245D2*
X3153040Y3599577D1*
X3147331Y3592890D1*
X3140645Y3587182D1*
X3132977Y3582508D1*
X3140645Y3577835D1*
X3147331Y3572127D1*
X3153040Y3565440D1*
X3157713Y3557772D1*
X3162386Y3565440D1*
X3168095Y3572127D1*
X3174781Y3577835D1*
X3182449Y3582508D1*
X3174781Y3587182D1*
X3168095Y3592890D1*
X3162386Y3599577D1*
X3157713Y3607245D1*
Y3507245D2*
X3153040Y3499577D1*
X3147331Y3492890D1*
X3140645Y3487182D1*
X3132977Y3482508D1*
X3140645Y3477835D1*
X3147331Y3472127D1*
X3153040Y3465440D1*
X3157713Y3457772D1*
X3162386Y3465440D1*
X3168095Y3472127D1*
X3174781Y3477835D1*
X3182449Y3482508D1*
X3174781Y3487182D1*
X3168095Y3492890D1*
X3162386Y3499577D1*
X3157713Y3507245D1*
Y3407245D2*
X3153040Y3399577D1*
X3147331Y3392890D1*
X3140645Y3387182D1*
X3132977Y3382508D1*
X3140645Y3377835D1*
X3147331Y3372127D1*
X3153040Y3365440D1*
X3157713Y3357772D1*
X3162386Y3365440D1*
X3168095Y3372127D1*
X3174781Y3377835D1*
X3182449Y3382508D1*
X3174781Y3387182D1*
X3168095Y3392890D1*
X3162386Y3399577D1*
X3157713Y3407245D1*
Y3307245D2*
X3153040Y3299577D1*
X3147331Y3292890D1*
X3140645Y3287182D1*
X3132977Y3282508D1*
X3140645Y3277835D1*
X3147331Y3272127D1*
X3153040Y3265440D1*
X3157713Y3257772D1*
X3162386Y3265440D1*
X3168095Y3272127D1*
X3174781Y3277835D1*
X3182449Y3282508D1*
X3174781Y3287182D1*
X3168095Y3292890D1*
X3162386Y3299577D1*
X3157713Y3307245D1*
Y3207245D2*
X3153040Y3199577D1*
X3147331Y3192890D1*
X3140645Y3187182D1*
X3132977Y3182508D1*
X3140645Y3177835D1*
X3147331Y3172127D1*
X3153040Y3165440D1*
X3157713Y3157772D1*
X3162386Y3165440D1*
X3168095Y3172127D1*
X3174781Y3177835D1*
X3182449Y3182508D1*
X3174781Y3187182D1*
X3168095Y3192890D1*
X3162386Y3199577D1*
X3157713Y3207245D1*
Y3107245D2*
X3153040Y3099577D1*
X3147331Y3092890D1*
X3140645Y3087182D1*
X3132977Y3082508D1*
X3140645Y3077835D1*
X3147331Y3072127D1*
X3153040Y3065440D1*
X3157713Y3057772D1*
X3162386Y3065440D1*
X3168095Y3072127D1*
X3174781Y3077835D1*
X3182449Y3082508D1*
X3174781Y3087182D1*
X3168095Y3092890D1*
X3162386Y3099577D1*
X3157713Y3107245D1*
X3257713Y3707245D2*
X3253040Y3699577D1*
X3247331Y3692890D1*
X3240645Y3687182D1*
X3232977Y3682508D1*
X3240645Y3677835D1*
X3247331Y3672127D1*
X3253040Y3665440D1*
X3257713Y3657772D1*
X3262386Y3665440D1*
X3268095Y3672127D1*
X3274781Y3677835D1*
X3282449Y3682508D1*
X3274781Y3687182D1*
X3268095Y3692890D1*
X3262386Y3699577D1*
X3257713Y3707245D1*
Y3607245D2*
X3253040Y3599577D1*
X3247331Y3592890D1*
X3240645Y3587182D1*
X3232977Y3582508D1*
X3240645Y3577835D1*
X3247331Y3572127D1*
X3253040Y3565440D1*
X3257713Y3557772D1*
X3262386Y3565440D1*
X3268095Y3572127D1*
X3274781Y3577835D1*
X3282449Y3582508D1*
X3274781Y3587182D1*
X3268095Y3592890D1*
X3262386Y3599577D1*
X3257713Y3607245D1*
Y3507245D2*
X3253040Y3499577D1*
X3247331Y3492890D1*
X3240645Y3487182D1*
X3232977Y3482508D1*
X3240645Y3477835D1*
X3247331Y3472127D1*
X3253040Y3465440D1*
X3257713Y3457772D1*
X3262386Y3465440D1*
X3268095Y3472127D1*
X3274781Y3477835D1*
X3282449Y3482508D1*
X3274781Y3487182D1*
X3268095Y3492890D1*
X3262386Y3499577D1*
X3257713Y3507245D1*
Y3407245D2*
X3253040Y3399577D1*
X3247331Y3392890D1*
X3240645Y3387182D1*
X3232977Y3382508D1*
X3240645Y3377835D1*
X3247331Y3372127D1*
X3253040Y3365440D1*
X3257713Y3357772D1*
X3262386Y3365440D1*
X3268095Y3372127D1*
X3274781Y3377835D1*
X3282449Y3382508D1*
X3274781Y3387182D1*
X3268095Y3392890D1*
X3262386Y3399577D1*
X3257713Y3407245D1*
Y3307245D2*
X3253040Y3299577D1*
X3247331Y3292890D1*
X3240645Y3287182D1*
X3232977Y3282508D1*
X3240645Y3277835D1*
X3247331Y3272127D1*
X3253040Y3265440D1*
X3257713Y3257772D1*
X3262386Y3265440D1*
X3268095Y3272127D1*
X3274781Y3277835D1*
X3282449Y3282508D1*
X3274781Y3287182D1*
X3268095Y3292890D1*
X3262386Y3299577D1*
X3257713Y3307245D1*
Y3207245D2*
X3253040Y3199577D1*
X3247331Y3192890D1*
X3240645Y3187182D1*
X3232977Y3182508D1*
X3240645Y3177835D1*
X3247331Y3172127D1*
X3253040Y3165440D1*
X3257713Y3157772D1*
X3262386Y3165440D1*
X3268095Y3172127D1*
X3274781Y3177835D1*
X3282449Y3182508D1*
X3274781Y3187182D1*
X3268095Y3192890D1*
X3262386Y3199577D1*
X3257713Y3207245D1*
Y3107245D2*
X3253040Y3099577D1*
X3247331Y3092890D1*
X3240645Y3087182D1*
X3232977Y3082508D1*
X3240645Y3077835D1*
X3247331Y3072127D1*
X3253040Y3065440D1*
X3257713Y3057772D1*
X3262386Y3065440D1*
X3268095Y3072127D1*
X3274781Y3077835D1*
X3282449Y3082508D1*
X3274781Y3087182D1*
X3268095Y3092890D1*
X3262386Y3099577D1*
X3257713Y3107245D1*
X3357713Y3707245D2*
X3353040Y3699577D1*
X3347331Y3692890D1*
X3340645Y3687182D1*
X3332977Y3682508D1*
X3340645Y3677835D1*
X3347331Y3672127D1*
X3353040Y3665440D1*
X3357713Y3657772D1*
X3362386Y3665440D1*
X3368095Y3672127D1*
X3374781Y3677835D1*
X3382449Y3682508D1*
X3374781Y3687182D1*
X3368095Y3692890D1*
X3362386Y3699577D1*
X3357713Y3707245D1*
Y3607245D2*
X3353040Y3599577D1*
X3347331Y3592890D1*
X3340645Y3587182D1*
X3332977Y3582508D1*
X3340645Y3577835D1*
X3347331Y3572127D1*
X3353040Y3565440D1*
X3357713Y3557772D1*
X3362386Y3565440D1*
X3368095Y3572127D1*
X3374781Y3577835D1*
X3382449Y3582508D1*
X3374781Y3587182D1*
X3368095Y3592890D1*
X3362386Y3599577D1*
X3357713Y3607245D1*
Y3507245D2*
X3353040Y3499577D1*
X3347331Y3492890D1*
X3340645Y3487182D1*
X3332977Y3482508D1*
X3340645Y3477835D1*
X3347331Y3472127D1*
X3353040Y3465440D1*
X3357713Y3457772D1*
X3362386Y3465440D1*
X3368095Y3472127D1*
X3374781Y3477835D1*
X3382449Y3482508D1*
X3374781Y3487182D1*
X3368095Y3492890D1*
X3362386Y3499577D1*
X3357713Y3507245D1*
Y3407245D2*
X3353040Y3399577D1*
X3347331Y3392890D1*
X3340645Y3387182D1*
X3332977Y3382508D1*
X3340645Y3377835D1*
X3347331Y3372127D1*
X3353040Y3365440D1*
X3357713Y3357772D1*
X3362386Y3365440D1*
X3368095Y3372127D1*
X3374781Y3377835D1*
X3382449Y3382508D1*
X3374781Y3387182D1*
X3368095Y3392890D1*
X3362386Y3399577D1*
X3357713Y3407245D1*
Y3307245D2*
X3353040Y3299577D1*
X3347331Y3292890D1*
X3340645Y3287182D1*
X3332977Y3282508D1*
X3340645Y3277835D1*
X3347331Y3272127D1*
X3353040Y3265440D1*
X3357713Y3257772D1*
X3362386Y3265440D1*
X3368095Y3272127D1*
X3374781Y3277835D1*
X3382449Y3282508D1*
X3374781Y3287182D1*
X3368095Y3292890D1*
X3362386Y3299577D1*
X3357713Y3307245D1*
Y3207245D2*
X3353040Y3199577D1*
X3347331Y3192890D1*
X3340645Y3187182D1*
X3332977Y3182508D1*
X3340645Y3177835D1*
X3347331Y3172127D1*
X3353040Y3165440D1*
X3357713Y3157772D1*
X3362386Y3165440D1*
X3368095Y3172127D1*
X3374781Y3177835D1*
X3382449Y3182508D1*
X3374781Y3187182D1*
X3368095Y3192890D1*
X3362386Y3199577D1*
X3357713Y3207245D1*
Y3107245D2*
X3353040Y3099577D1*
X3347331Y3092890D1*
X3340645Y3087182D1*
X3332977Y3082508D1*
X3340645Y3077835D1*
X3347331Y3072127D1*
X3353040Y3065440D1*
X3357713Y3057772D1*
X3362386Y3065440D1*
X3368095Y3072127D1*
X3374781Y3077835D1*
X3382449Y3082508D1*
X3374781Y3087182D1*
X3368095Y3092890D1*
X3362386Y3099577D1*
X3357713Y3107245D1*
X1928308Y2439742D2*
Y2420233D1*
X1912914D1*
X1912913Y2335148D1*
X1941780Y2306260D1*
X1941793Y2345821D1*
X2058669D1*
X2058663Y2420231D1*
X1968123Y2420233D1*
Y2439789D1*
X1928314Y2439760D1*
X2513046Y2151482D2*
X2465822D1*
X2465806Y2137729D1*
X2495783Y2137759D1*
X2502218Y2144222D1*
X2509392Y2149434D1*
X2513036Y2151474D1*
X2710571Y2151482D2*
X2687892D1*
X2687913Y2103863D1*
X2691507Y2100283D1*
X2710537Y2100260D1*
X2710544Y2151472D1*
X1451633Y2899422D2*
X1450918Y2892113D1*
X1449260Y2884959D1*
X1446690Y2878079D1*
X1443247Y2871592D1*
X1438994Y2865606D1*
X1433999Y2860222D1*
X1428348Y2855532D1*
X1422137Y2851613D1*
X1415469Y2848535D1*
X1408460Y2846346D1*
X1401225Y2845085D1*
X1393888Y2844773D1*
X1386571Y2845417D1*
X1379401Y2847002D1*
X1372497Y2849504D1*
X1365976Y2852882D1*
X1359947Y2857077D1*
X1354514Y2862018D1*
X1349767Y2867621D1*
X1345788Y2873794D1*
X1342642Y2880430D1*
X1340385Y2887418D1*
X1339052Y2894641D1*
X1338667Y2901974D1*
X1339238Y2909296D1*
X1340752Y2916482D1*
X1343187Y2923411D1*
X1346499Y2929965D1*
X1350633Y2936035D1*
X1355520Y2941516D1*
X1361077Y2946318D1*
X1367209Y2950359D1*
X1373814Y2953570D1*
X1380780Y2955897D1*
X1387987Y2957301D1*
X1395318Y2957759D1*
X1402645Y2957262D1*
X1409846Y2955818D1*
X1416798Y2953453D1*
X1423385Y2950205D1*
X1429495Y2946132D1*
X1435025Y2941300D1*
X1439882Y2935791D1*
X1443983Y2929699D1*
X1447260Y2923127D1*
X1449657Y2916184D1*
X1451132Y2908990D1*
X1451663Y2901259D1*
X1451633Y2899422D1*
X3032882Y2611922D2*
X3032167Y2604613D1*
X3030510Y2597459D1*
X3027939Y2590579D1*
X3024497Y2584092D1*
X3020243Y2578106D1*
X3015249Y2572722D1*
X3009598Y2568032D1*
X3003386Y2564113D1*
X2996718Y2561035D1*
X2989709Y2558846D1*
X2982474Y2557585D1*
X2975137Y2557273D1*
X2967821Y2557917D1*
X2960650Y2559502D1*
X2953746Y2562004D1*
X2947225Y2565382D1*
X2941196Y2569577D1*
X2935763Y2574518D1*
X2931016Y2580121D1*
X2927037Y2586294D1*
X2923892Y2592930D1*
X2921634Y2599918D1*
X2920301Y2607141D1*
X2919917Y2614474D1*
X2920487Y2621796D1*
X2922002Y2628982D1*
X2924436Y2635911D1*
X2927749Y2642465D1*
X2931882Y2648535D1*
X2936770Y2654016D1*
X2942326Y2658818D1*
X2948459Y2662859D1*
X2955064Y2666070D1*
X2962029Y2668397D1*
X2969237Y2669801D1*
X2976567Y2670259D1*
X2983894Y2669762D1*
X2991095Y2668318D1*
X2998048Y2665953D1*
X3004634Y2662705D1*
X3010745Y2658632D1*
X3016275Y2653800D1*
X3021132Y2648291D1*
X3025233Y2642199D1*
X3028510Y2635627D1*
X3030906Y2628684D1*
X3032381Y2621490D1*
X3032913Y2613759D1*
X3032882Y2611922D1*
X2924397Y2319760D2*
D14*
X2976462Y2263759D1*
X2924397Y2207758D1*
Y2469762D2*
X2976462Y2413760D1*
X3028528Y2469762D2*
X2924397Y2357759D1*
X1789212Y2247074D2*
X1845213Y2195008D1*
X1901214Y2247074D2*
X1845213Y2195008D1*
X1626712Y2247074D2*
X1682713Y2195008D1*
X1738714Y2247074D2*
X1682713Y2195008D1*
X2570461Y2065823D2*
X2626462Y2013758D1*
X2218148Y2482262D2*
X2270213Y2426260D1*
X2218148Y2370259D1*
Y2638511D2*
X2270213Y2582510D1*
X2218148Y2526508D1*
X3320411Y1897074D2*
X3432414Y1792943D1*
X3376413Y1845008D2*
X3320411Y1792943D1*
X1107913Y2428325D2*
X1163914Y2376259D1*
X1219915Y2428325D2*
X1163914Y2376259D1*
X939162Y2428325D2*
X995163Y2376259D1*
X1051165Y2428325D2*
X939162Y2324193D1*
X1474397Y2738510D2*
X1526462Y2682508D1*
X1474397Y2626507D1*
Y2907260D2*
X1526462Y2851259D1*
X1578529Y2907260D2*
X1474397Y2795258D1*
X2060903Y639389D2*
X2113964Y520008D1*
X2167024Y639389D2*
X2113964Y520008D1*
X2395549Y639389D2*
X2448609Y520008D1*
X2501670Y639389D2*
X2448609Y520008D1*
X3770213Y645008D2*
X3830153Y585069D1*
Y704947D2*
X3710275Y585069D1*
X1355237Y2941186D2*
X1435090Y2861333D1*
Y2941186D2*
X1355237Y2861333D1*
X2230237Y2809936D2*
X2310090Y2730083D1*
Y2809936D2*
X2230237Y2730083D1*
X2936486Y2653686D2*
X3016339Y2573833D1*
Y2653686D2*
X2936486Y2573833D1*
X2842252Y2052053D2*
X2710575Y1975468D1*
X1342252Y2508302D2*
X1210575Y2431717D1*
X2007663Y2207510D2*
X1941825Y2169217D1*
D15*
X2976462Y2263759D3*
X3051266D3*
X2976462Y2413760D3*
X3051266D3*
X795163Y2670008D3*
X869966D3*
X1201414Y2820010D3*
X1276217D3*
X2020213Y2638760D3*
X2095016D3*
D16*
X1845213Y2195008D3*
Y2120205D3*
X1682713Y2195008D3*
Y2120205D3*
X2626462Y2013758D3*
Y1938955D3*
X2457713Y2013758D3*
Y1938955D3*
D15*
X2651462Y2370008D3*
X2726266D3*
X2270213Y2426260D3*
X2345016D3*
X2270213Y2582510D3*
X2345016D3*
D16*
X3376413Y1845008D3*
Y1919812D3*
X1163914Y2376259D3*
Y2301456D3*
X995163Y2376259D3*
Y2301456D3*
D15*
X1526462Y2682508D3*
X1601266D3*
X1526462Y2851259D3*
X1601266D3*
D17*
X2113964Y520008D3*
X2448609D3*
D18*
X2281287D3*
D17*
X2448609Y3788758D3*
X2113964D3*
D18*
X2281287D3*
D19*
X3770213Y645008D3*
D20*
X3670213D3*
X3770213Y745008D3*
X3670213D3*
X3770213Y845008D3*
X3670213D3*
X3770213Y945008D3*
X3670213D3*
X3770213Y1045008D3*
X3670213D3*
X3770213Y1145008D3*
X3670213D3*
X3770213Y1245008D3*
X3670213D3*
X3770213Y1345008D3*
X3670213D3*
X3770213Y1445008D3*
X3670213D3*
X3770213Y1545008D3*
X3670213D3*
X3770213Y1645008D3*
X3670213D3*
X3770213Y1745008D3*
X3670213D3*
X3770213Y1845008D3*
X3670213D3*
X3770213Y1945008D3*
X3670213D3*
X3770213Y2045008D3*
X3670213D3*
X3770213Y2145008D3*
X3670213D3*
X3770213Y2245008D3*
X3670213D3*
X3770213Y2345008D3*
X3670213D3*
X3770213Y2445008D3*
X3670213D3*
X3770213Y2545008D3*
X3670213D3*
X3770213Y2645008D3*
X3670213D3*
X3770213Y2745008D3*
X3670213D3*
X3770213Y2845008D3*
X3670213D3*
X3770213Y2945008D3*
X3670213D3*
X3770213Y3045008D3*
X3670213D3*
X3770213Y3145008D3*
X3670213D3*
X3770213Y3245008D3*
X3670213D3*
X3770213Y3345008D3*
X3670213D3*
X3770213Y3445008D3*
X3670213D3*
X3770213Y3545008D3*
X3670213D3*
X3770213Y3645008D3*
X3670213D3*
X3770213Y3745008D3*
X3670213D3*
D21*
X907713Y3632508D3*
D22*
X1907713D3*
D21*
X907713Y3532508D3*
Y3432508D3*
Y3332508D3*
Y3232508D3*
Y3132508D3*
Y3032508D3*
Y2932508D3*
Y3732508D3*
X1007713D3*
Y3632508D3*
Y3532508D3*
Y3432508D3*
Y3332508D3*
Y3232508D3*
Y3132508D3*
Y3032508D3*
Y2932508D3*
X1107713Y3732508D3*
Y3632508D3*
Y3532508D3*
Y3432508D3*
Y3332508D3*
Y3232508D3*
Y3132508D3*
Y3032508D3*
Y2932508D3*
X1207713Y3732508D3*
Y3632508D3*
Y3532508D3*
Y3432508D3*
Y3332508D3*
Y3232508D3*
Y3132508D3*
Y3032508D3*
X1307713Y3732508D3*
Y3632508D3*
Y3532508D3*
Y3432508D3*
Y3332508D3*
Y3232508D3*
Y3132508D3*
Y3032508D3*
X1407713Y3732508D3*
Y3632508D3*
Y3532508D3*
Y3432508D3*
Y3332508D3*
Y3232508D3*
Y3132508D3*
Y3032508D3*
X1507713Y3732508D3*
X1607713D3*
X1707713D3*
X1807713D3*
X1507713Y3632508D3*
X1607713D3*
X1707713D3*
X1807713D3*
Y3532508D3*
X1707713D3*
X1607713D3*
X1507713D3*
Y3432508D3*
X1607713D3*
X1707713D3*
X1807713D3*
Y3332508D3*
X1707713D3*
X1607713D3*
X1507713D3*
Y3232508D3*
X1607713D3*
X1707713D3*
X1807713D3*
Y3132508D3*
X1707713D3*
X1607713D3*
X1507713D3*
Y3032508D3*
X1607713D3*
X1707713D3*
X1807713D3*
X507713Y3432508D3*
X607713D3*
X707713D3*
X807713D3*
Y3332508D3*
Y3232508D3*
Y3132508D3*
Y3032508D3*
Y2932508D3*
X707713D3*
X607713D3*
X507713D3*
Y3032508D3*
Y3132508D3*
Y3232508D3*
Y3332508D3*
X607713D3*
Y3232508D3*
Y3132508D3*
Y3032508D3*
X707713D3*
Y3132508D3*
Y3232508D3*
Y3332508D3*
X2707713Y3732508D3*
Y3632508D3*
Y3532508D3*
Y3432508D3*
Y3332508D3*
Y3232508D3*
Y3132508D3*
Y3032508D3*
X2807713Y3732508D3*
Y3632508D3*
Y3532508D3*
Y3432508D3*
Y3332508D3*
Y3232508D3*
Y3132508D3*
Y3032508D3*
X2907713Y3732508D3*
Y3632508D3*
Y3532508D3*
Y3432508D3*
Y3332508D3*
Y3232508D3*
Y3132508D3*
Y3032508D3*
X3007713Y3732508D3*
Y3632508D3*
Y3532508D3*
Y3432508D3*
Y3332508D3*
Y3232508D3*
Y3132508D3*
Y3032508D3*
X3107713Y3732508D3*
Y3632508D3*
Y3532508D3*
Y3432508D3*
Y3332508D3*
Y3232508D3*
Y3132508D3*
Y3032508D3*
X3207713Y3732508D3*
Y3632508D3*
Y3532508D3*
Y3432508D3*
Y3332508D3*
Y3232508D3*
Y3132508D3*
Y3032508D3*
X3307713Y3732508D3*
Y3632508D3*
Y3532508D3*
Y3432508D3*
Y3332508D3*
Y3232508D3*
Y3132508D3*
Y3032508D3*
X3407713Y3732508D3*
Y3632508D3*
Y3532508D3*
Y3432508D3*
Y3332508D3*
Y3232508D3*
Y3132508D3*
Y3032508D3*
D22*
X1907713Y3532508D3*
Y3432508D3*
Y3332508D3*
X2007713Y3632508D3*
Y3532508D3*
Y3432508D3*
Y3332508D3*
X1907713Y3232508D3*
Y3132508D3*
Y3032508D3*
X2007713Y3232508D3*
Y3132508D3*
Y3032508D3*
X2107713Y3632508D3*
Y3532508D3*
Y3432508D3*
Y3332508D3*
X2207713Y3632508D3*
Y3532508D3*
Y3432508D3*
Y3332508D3*
X2107713Y3232508D3*
Y3132508D3*
Y3032508D3*
X2207713Y3232508D3*
Y3132508D3*
Y3032508D3*
X2307713Y3632508D3*
Y3532508D3*
Y3432508D3*
Y3332508D3*
X2407713Y3632508D3*
Y3532508D3*
Y3432508D3*
Y3332508D3*
X2307713Y3232508D3*
Y3132508D3*
Y3032508D3*
X2407713Y3232508D3*
Y3132508D3*
Y3032508D3*
X2507713Y3632508D3*
Y3532508D3*
Y3432508D3*
Y3332508D3*
X2607713Y3632508D3*
Y3532508D3*
Y3432508D3*
Y3332508D3*
X2507713Y3232508D3*
Y3132508D3*
Y3032508D3*
X2607713Y3232508D3*
Y3132508D3*
Y3032508D3*
D15*
X1801414Y2476260D3*
X1876217D3*
X2020213D3*
X2095016D3*
X2413962Y2207510D3*
X2488766D3*
X2651462D3*
X2726266D3*
X3301414Y2013759D3*
X3376217D3*
X901413Y2526259D3*
X976216D3*
X1726413Y2576259D3*
X1801216D3*
X2338913Y2101259D3*
X2413716D3*
X3201413Y2176259D3*
X3276216D3*
X1013914Y2670008D3*
X1088717D3*
X1201414D3*
X1276217D3*
D23*
X2488913Y2482510D3*
X3445163Y2251259D3*
X3151414Y2013760D3*
X1657663Y2476258D3*
X1395163Y2901259D3*
X2270163Y2770010D3*
X2976413Y2613759D3*
X751413Y2476259D3*
X1113913Y2501259D3*
X1901413Y2601259D3*
X2538913Y2101259D3*
X651413Y2670008D3*
D24*
X2776414Y2113760D3*
Y2063760D3*
Y2013760D3*
Y1963760D3*
X2989012D3*
Y2013760D3*
Y2063760D3*
Y2113760D3*
X1276414Y2570010D3*
Y2520010D3*
Y2470010D3*
Y2420010D3*
X1489012D3*
Y2470010D3*
Y2520010D3*
Y2570010D3*
X2007663Y2307510D3*
Y2257510D3*
Y2207510D3*
Y2157510D3*
X2220262D3*
Y2207510D3*
Y2257510D3*
Y2307510D3*
M02*
