G04 DipTrace 3.3.1.3*
G04 TopMask.gbr*
%MOIN*%
G04 #@! TF.FileFunction,Soldermask,Top*
G04 #@! TF.Part,Single*
%ADD27C,0.125*%
%ADD33R,0.08662X0.031502*%
%ADD35C,0.06788*%
%ADD37R,0.066935X0.066935*%
%ADD39C,0.066935*%
%ADD41C,0.074809*%
%ADD43R,0.074809X0.074809*%
%ADD45R,0.041738X0.193707*%
%ADD47R,0.06103X0.193707*%
%ADD49R,0.066935X0.059061*%
%ADD51R,0.059061X0.066935*%
%FSLAX26Y26*%
G04*
G70*
G90*
G75*
G01*
G04 TopMask*
%LPD*%
D51*
X2976462Y2263759D3*
X3051266D3*
X2976462Y2413760D3*
X3051266D3*
X795163Y2670008D3*
X869966D3*
X1201414Y2820010D3*
X1276217D3*
X2020213Y2638760D3*
X2095016D3*
D49*
X1845213Y2195008D3*
Y2120205D3*
X1682713Y2195008D3*
Y2120205D3*
X2626462Y2013758D3*
Y1938955D3*
X2457713Y2013758D3*
Y1938955D3*
D51*
X2651462Y2370008D3*
X2726266D3*
X2270213Y2426260D3*
X2345016D3*
X2270213Y2582510D3*
X2345016D3*
D49*
X3376413Y1845008D3*
Y1919812D3*
X1163914Y2376259D3*
Y2301456D3*
X995163Y2376259D3*
Y2301456D3*
D51*
X1526462Y2682508D3*
X1601266D3*
X1526462Y2851259D3*
X1601266D3*
D27*
X595213Y3638758D3*
Y738759D3*
X3970213Y595008D3*
Y3745008D3*
D47*
X2113964Y520008D3*
X2448609D3*
D45*
X2281287D3*
D47*
X2448609Y3788758D3*
X2113964D3*
D45*
X2281287D3*
D43*
X3770213Y645008D3*
D41*
X3670213D3*
X3770213Y745008D3*
X3670213D3*
X3770213Y845008D3*
X3670213D3*
X3770213Y945008D3*
X3670213D3*
X3770213Y1045008D3*
X3670213D3*
X3770213Y1145008D3*
X3670213D3*
X3770213Y1245008D3*
X3670213D3*
X3770213Y1345008D3*
X3670213D3*
X3770213Y1445008D3*
X3670213D3*
X3770213Y1545008D3*
X3670213D3*
X3770213Y1645008D3*
X3670213D3*
X3770213Y1745008D3*
X3670213D3*
X3770213Y1845008D3*
X3670213D3*
X3770213Y1945008D3*
X3670213D3*
X3770213Y2045008D3*
X3670213D3*
X3770213Y2145008D3*
X3670213D3*
X3770213Y2245008D3*
X3670213D3*
X3770213Y2345008D3*
X3670213D3*
X3770213Y2445008D3*
X3670213D3*
X3770213Y2545008D3*
X3670213D3*
X3770213Y2645008D3*
X3670213D3*
X3770213Y2745008D3*
X3670213D3*
X3770213Y2845008D3*
X3670213D3*
X3770213Y2945008D3*
X3670213D3*
X3770213Y3045008D3*
X3670213D3*
X3770213Y3145008D3*
X3670213D3*
X3770213Y3245008D3*
X3670213D3*
X3770213Y3345008D3*
X3670213D3*
X3770213Y3445008D3*
X3670213D3*
X3770213Y3545008D3*
X3670213D3*
X3770213Y3645008D3*
X3670213D3*
X3770213Y3745008D3*
X3670213D3*
D39*
X907713Y3632508D3*
D37*
X1907713D3*
D39*
X907713Y3532508D3*
Y3432508D3*
Y3332508D3*
Y3232508D3*
Y3132508D3*
Y3032508D3*
Y2932508D3*
Y3732508D3*
X1007713D3*
Y3632508D3*
Y3532508D3*
Y3432508D3*
Y3332508D3*
Y3232508D3*
Y3132508D3*
Y3032508D3*
Y2932508D3*
X1107713Y3732508D3*
Y3632508D3*
Y3532508D3*
Y3432508D3*
Y3332508D3*
Y3232508D3*
Y3132508D3*
Y3032508D3*
Y2932508D3*
X1207713Y3732508D3*
Y3632508D3*
Y3532508D3*
Y3432508D3*
Y3332508D3*
Y3232508D3*
Y3132508D3*
Y3032508D3*
X1307713Y3732508D3*
Y3632508D3*
Y3532508D3*
Y3432508D3*
Y3332508D3*
Y3232508D3*
Y3132508D3*
Y3032508D3*
X1407713Y3732508D3*
Y3632508D3*
Y3532508D3*
Y3432508D3*
Y3332508D3*
Y3232508D3*
Y3132508D3*
Y3032508D3*
X1507713Y3732508D3*
X1607713D3*
X1707713D3*
X1807713D3*
X1507713Y3632508D3*
X1607713D3*
X1707713D3*
X1807713D3*
Y3532508D3*
X1707713D3*
X1607713D3*
X1507713D3*
Y3432508D3*
X1607713D3*
X1707713D3*
X1807713D3*
Y3332508D3*
X1707713D3*
X1607713D3*
X1507713D3*
Y3232508D3*
X1607713D3*
X1707713D3*
X1807713D3*
Y3132508D3*
X1707713D3*
X1607713D3*
X1507713D3*
Y3032508D3*
X1607713D3*
X1707713D3*
X1807713D3*
X507713Y3432508D3*
X607713D3*
X707713D3*
X807713D3*
Y3332508D3*
Y3232508D3*
Y3132508D3*
Y3032508D3*
Y2932508D3*
X707713D3*
X607713D3*
X507713D3*
Y3032508D3*
Y3132508D3*
Y3232508D3*
Y3332508D3*
X607713D3*
Y3232508D3*
Y3132508D3*
Y3032508D3*
X707713D3*
Y3132508D3*
Y3232508D3*
Y3332508D3*
X2707713Y3732508D3*
Y3632508D3*
Y3532508D3*
Y3432508D3*
Y3332508D3*
Y3232508D3*
Y3132508D3*
Y3032508D3*
X2807713Y3732508D3*
Y3632508D3*
Y3532508D3*
Y3432508D3*
Y3332508D3*
Y3232508D3*
Y3132508D3*
Y3032508D3*
X2907713Y3732508D3*
Y3632508D3*
Y3532508D3*
Y3432508D3*
Y3332508D3*
Y3232508D3*
Y3132508D3*
Y3032508D3*
X3007713Y3732508D3*
Y3632508D3*
Y3532508D3*
Y3432508D3*
Y3332508D3*
Y3232508D3*
Y3132508D3*
Y3032508D3*
X3107713Y3732508D3*
Y3632508D3*
Y3532508D3*
Y3432508D3*
Y3332508D3*
Y3232508D3*
Y3132508D3*
Y3032508D3*
X3207713Y3732508D3*
Y3632508D3*
Y3532508D3*
Y3432508D3*
Y3332508D3*
Y3232508D3*
Y3132508D3*
Y3032508D3*
X3307713Y3732508D3*
Y3632508D3*
Y3532508D3*
Y3432508D3*
Y3332508D3*
Y3232508D3*
Y3132508D3*
Y3032508D3*
X3407713Y3732508D3*
Y3632508D3*
Y3532508D3*
Y3432508D3*
Y3332508D3*
Y3232508D3*
Y3132508D3*
Y3032508D3*
D37*
X1907713Y3532508D3*
Y3432508D3*
Y3332508D3*
X2007713Y3632508D3*
Y3532508D3*
Y3432508D3*
Y3332508D3*
X1907713Y3232508D3*
Y3132508D3*
Y3032508D3*
X2007713Y3232508D3*
Y3132508D3*
Y3032508D3*
X2107713Y3632508D3*
Y3532508D3*
Y3432508D3*
Y3332508D3*
X2207713Y3632508D3*
Y3532508D3*
Y3432508D3*
Y3332508D3*
X2107713Y3232508D3*
Y3132508D3*
Y3032508D3*
X2207713Y3232508D3*
Y3132508D3*
Y3032508D3*
X2307713Y3632508D3*
Y3532508D3*
Y3432508D3*
Y3332508D3*
X2407713Y3632508D3*
Y3532508D3*
Y3432508D3*
Y3332508D3*
X2307713Y3232508D3*
Y3132508D3*
Y3032508D3*
X2407713Y3232508D3*
Y3132508D3*
Y3032508D3*
X2507713Y3632508D3*
Y3532508D3*
Y3432508D3*
Y3332508D3*
X2607713Y3632508D3*
Y3532508D3*
Y3432508D3*
Y3332508D3*
X2507713Y3232508D3*
Y3132508D3*
Y3032508D3*
X2607713Y3232508D3*
Y3132508D3*
Y3032508D3*
D51*
X1801414Y2476260D3*
X1876217D3*
X2020213D3*
X2095016D3*
X2413962Y2207510D3*
X2488766D3*
X2651462D3*
X2726266D3*
X3301414Y2013759D3*
X3376217D3*
X901413Y2526259D3*
X976216D3*
X1726413Y2576259D3*
X1801216D3*
X2338913Y2101259D3*
X2413716D3*
X3201413Y2176259D3*
X3276216D3*
X1013914Y2670008D3*
X1088717D3*
X1201414D3*
X1276217D3*
D35*
X2488913Y2482510D3*
X3445163Y2251259D3*
X3151414Y2013760D3*
X1657663Y2476258D3*
X1395163Y2901259D3*
X2270163Y2770010D3*
X2976413Y2613759D3*
X751413Y2476259D3*
X1113913Y2501259D3*
X1901413Y2601259D3*
X2538913Y2101259D3*
X651413Y2670008D3*
D33*
X2776414Y2113760D3*
Y2063760D3*
Y2013760D3*
Y1963760D3*
X2989012D3*
Y2013760D3*
Y2063760D3*
Y2113760D3*
X1276414Y2570010D3*
Y2520010D3*
Y2470010D3*
Y2420010D3*
X1489012D3*
Y2470010D3*
Y2520010D3*
Y2570010D3*
X2007663Y2307510D3*
Y2257510D3*
Y2207510D3*
Y2157510D3*
X2220262D3*
Y2207510D3*
Y2257510D3*
Y2307510D3*
M02*
