G04 DipTrace 3.3.1.3*
G04 TopPaste.gbr*
%MOIN*%
G04 #@! TF.FileFunction,Paste,Top*
G04 #@! TF.Part,Single*
%ADD34R,0.07086X0.015742*%
%ADD38R,0.051175X0.051175*%
%ADD46R,0.025978X0.177947*%
%ADD48R,0.04527X0.177947*%
%ADD50R,0.051175X0.043301*%
%ADD52R,0.043301X0.051175*%
%FSLAX26Y26*%
G04*
G70*
G90*
G75*
G01*
G04 TopPaste*
%LPD*%
D52*
X2976462Y2263759D3*
X3051266D3*
X2976462Y2413760D3*
X3051266D3*
X795163Y2670008D3*
X869966D3*
X1201414Y2820010D3*
X1276217D3*
X2020213Y2638760D3*
X2095016D3*
D50*
X1845213Y2195008D3*
Y2120205D3*
X1682713Y2195008D3*
Y2120205D3*
X2626462Y2013758D3*
Y1938955D3*
X2457713Y2013758D3*
Y1938955D3*
D52*
X2651462Y2370008D3*
X2726266D3*
X2270213Y2426260D3*
X2345016D3*
X2270213Y2582510D3*
X2345016D3*
D50*
X3376413Y1845008D3*
Y1919812D3*
X1163914Y2376259D3*
Y2301456D3*
X995163Y2376259D3*
Y2301456D3*
D52*
X1526462Y2682508D3*
X1601266D3*
X1526462Y2851259D3*
X1601266D3*
D48*
X2113964Y520008D3*
X2448609D3*
D46*
X2281287D3*
D48*
X2448609Y3788758D3*
X2113964D3*
D46*
X2281287D3*
D38*
X1907713Y3632508D3*
Y3532508D3*
Y3432508D3*
Y3332508D3*
X2007713Y3632508D3*
Y3532508D3*
Y3432508D3*
Y3332508D3*
X1907713Y3232508D3*
Y3132508D3*
Y3032508D3*
X2007713Y3232508D3*
Y3132508D3*
Y3032508D3*
X2107713Y3632508D3*
Y3532508D3*
Y3432508D3*
Y3332508D3*
X2207713Y3632508D3*
Y3532508D3*
Y3432508D3*
Y3332508D3*
X2107713Y3232508D3*
Y3132508D3*
Y3032508D3*
X2207713Y3232508D3*
Y3132508D3*
Y3032508D3*
X2307713Y3632508D3*
Y3532508D3*
Y3432508D3*
Y3332508D3*
X2407713Y3632508D3*
Y3532508D3*
Y3432508D3*
Y3332508D3*
X2307713Y3232508D3*
Y3132508D3*
Y3032508D3*
X2407713Y3232508D3*
Y3132508D3*
Y3032508D3*
X2507713Y3632508D3*
Y3532508D3*
Y3432508D3*
Y3332508D3*
X2607713Y3632508D3*
Y3532508D3*
Y3432508D3*
Y3332508D3*
X2507713Y3232508D3*
Y3132508D3*
Y3032508D3*
X2607713Y3232508D3*
Y3132508D3*
Y3032508D3*
D52*
X1801414Y2476260D3*
X1876217D3*
X2020213D3*
X2095016D3*
X2413962Y2207510D3*
X2488766D3*
X2651462D3*
X2726266D3*
X3301414Y2013759D3*
X3376217D3*
X901413Y2526259D3*
X976216D3*
X1726413Y2576259D3*
X1801216D3*
X2338913Y2101259D3*
X2413716D3*
X3201413Y2176259D3*
X3276216D3*
X1013914Y2670008D3*
X1088717D3*
X1201414D3*
X1276217D3*
D34*
X2776414Y2113760D3*
Y2063760D3*
Y2013760D3*
Y1963760D3*
X2989012D3*
Y2013760D3*
Y2063760D3*
Y2113760D3*
X1276414Y2570010D3*
Y2520010D3*
Y2470010D3*
Y2420010D3*
X1489012D3*
Y2470010D3*
Y2520010D3*
Y2570010D3*
X2007663Y2307510D3*
Y2257510D3*
Y2207510D3*
Y2157510D3*
X2220262D3*
Y2207510D3*
Y2257510D3*
Y2307510D3*
M02*
