G04 DipTrace 3.3.1.3*
G04 Bottom.gbr*
%MOIN*%
G04 #@! TF.FileFunction,Copper,L2,Bot*
G04 #@! TF.Part,Single*
G04 #@! TA.AperFunction,Conductor*
%ADD12C,0.02*%
G04 #@! TA.AperFunction,ComponentPad*
%ADD18R,0.059055X0.059055*%
%ADD19C,0.059055*%
%ADD20O,0.07874X0.177165*%
%ADD21O,0.07874X0.19685*%
%ADD22O,0.177165X0.07874*%
%ADD23C,0.120079*%
%ADD24C,0.070866*%
%ADD25O,0.047992X0.126732*%
%ADD27R,0.16X0.09937*%
G04 #@! TA.AperFunction,ViaPad*
%ADD28C,0.04*%
%FSLAX26Y26*%
G04*
G70*
G90*
G75*
G01*
G04 Bottom*
%LPD*%
X1743712Y5737461D2*
D12*
X1356201Y5737451D1*
X3974950Y3956201D2*
X3556201D1*
Y3956210D1*
X3787457Y2143701D2*
X4093702D1*
X3787457Y1912450D2*
X3687451D1*
X3556201Y2043701D1*
Y3368701D1*
X1743713Y5168720D2*
Y4824941D1*
X1749951Y3531201D2*
Y3518699D1*
X1774950Y3493701D1*
X2587451D1*
X2718701Y3362451D1*
X2981201D1*
X3549951D1*
X3556201Y3368701D1*
X1743713Y4824941D2*
X2181102D1*
X2543710D1*
X2981201Y4387450D1*
Y3362451D1*
X2062450Y6506201D2*
X1624951D1*
Y6437451D1*
X4893701Y7666092D2*
X4814961D1*
X581201Y6324950D2*
X718698D1*
X746701Y6352953D1*
Y6506201D1*
X1624951D1*
X1749951Y3531201D2*
Y3213051D1*
X1856201Y3106802D1*
Y2837451D1*
X4814961Y7666092D2*
X4767433Y7618564D1*
Y6752421D1*
X4795433D1*
X4768701Y6725689D1*
Y6506201D1*
X797441Y6805070D2*
X718701D1*
X4814961Y7666092D2*
Y7744832D1*
X2181102Y4824941D2*
Y4576228D1*
X1624951Y6437451D2*
X1652480D1*
X1672480Y6417451D1*
Y6396772D1*
X4795433Y6752421D2*
X4846172D1*
X4893701Y6799950D1*
X1856201Y2837451D2*
X1814205D1*
Y2151705D1*
X1768701Y2106201D1*
X718701Y6805070D2*
Y6534201D1*
X746701Y6506201D1*
X4814961Y7744832D2*
X4893701D1*
X993606Y1143701D2*
X3443701D1*
X3793701Y1493701D1*
Y1906206D1*
X3787457Y1912450D1*
X1356202Y2474950D2*
X1706197D1*
X1356202Y3818701D2*
X1749951D1*
X1743713Y5399941D2*
X1356213D1*
X1356202Y5399951D1*
X756201Y5737451D2*
Y5856201D1*
X862451Y5962451D1*
X3399950D1*
X3624950Y5737451D1*
Y4593702D1*
X3881201Y4337451D1*
X4574950D1*
Y3956201D1*
Y2143701D1*
X4693702D1*
X4743685Y1243701D2*
X4543701D1*
X4443701Y1343701D1*
Y1693701D1*
X4693701Y1943701D1*
Y2143699D1*
X4693702Y2143701D1*
X756202Y2474950D2*
Y3818701D1*
Y5399951D1*
X993717Y1243701D2*
Y1993685D1*
X743701Y2243701D1*
Y2462449D1*
X756202Y2474950D1*
X1156202Y5399951D2*
Y5572083D1*
X1128202Y5600083D1*
X984201D1*
X956201Y5628083D1*
Y5737451D1*
X1149951Y4068701D2*
X1156202Y4062450D1*
Y3818701D1*
Y2474950D2*
Y2668882D1*
X1236201Y2748881D1*
Y5208409D1*
X1264201Y5236409D1*
X2324953D1*
X2324951Y6137451D2*
X2324953Y6000453D1*
X1156201Y5737451D2*
X1102533D1*
X993165Y5846819D1*
X918453D1*
X890453Y5818819D1*
Y5604961D1*
X956202Y5539211D1*
Y5399951D1*
X4174950Y3956201D2*
Y2143701D1*
X4293702D1*
X956202Y3818701D2*
Y2474950D1*
Y5399951D2*
Y3818701D1*
X2324951Y6437451D2*
Y7643209D1*
X2296949Y7671211D1*
X797441D1*
X1306201Y4143701D2*
Y1925453D1*
X1314205D1*
X2224951Y6437451D2*
Y7564469D1*
X2196949Y7592471D1*
X797441D1*
X2011906Y4758941D2*
X2049950D1*
Y3556201D1*
X2043701D1*
X2068701Y6018701D2*
X2074950D1*
Y6387450D1*
X2124951Y6437451D1*
Y7485728D1*
X2096949Y7513731D1*
X797441D1*
X4941228Y6570980D2*
Y7303604D1*
X4893701Y7351131D1*
X3669295Y7429874D2*
X3245689Y7853480D1*
X625181D1*
X597181Y7825480D1*
Y7635251D1*
X718701Y7513731D1*
X882969Y7709213D2*
Y7769480D1*
X854969Y7797480D1*
X671173D1*
Y7700739D1*
X700701Y7671211D1*
X718701D1*
X4115177Y7749949D2*
X4185591Y7820362D1*
X4913228D1*
X4941228Y7792362D1*
Y7634879D1*
X4893701Y7587352D1*
D28*
X4768701Y6506201D3*
X2062450D3*
X1672480Y6396772D3*
X1768701Y2106201D3*
X2181102Y4576228D3*
X1856201Y2837451D3*
X1149951Y4068701D3*
X2324953Y5236409D3*
Y6000453D3*
X1314205Y1925453D3*
X1306201Y4143701D3*
X2043701Y3556201D3*
X2011906Y4758941D3*
X2068701Y6018701D3*
X4941228Y6570980D3*
X3669295Y7429874D3*
X882969Y7709213D3*
X4115177Y7749949D3*
D18*
X718701Y7749951D3*
D19*
Y7671211D3*
Y7592471D3*
Y7513731D3*
Y7434991D3*
Y7356251D3*
Y7277510D3*
Y7198770D3*
Y7120030D3*
Y7041290D3*
Y6962550D3*
Y6883810D3*
Y6805070D3*
X797441D3*
Y6883810D3*
Y6962550D3*
Y7041290D3*
Y7120030D3*
Y7198770D3*
Y7277510D3*
Y7356251D3*
Y7434991D3*
Y7513731D3*
Y7592471D3*
Y7671211D3*
Y7749951D3*
D18*
X4893701Y6799950D3*
D19*
Y6878690D3*
Y6957430D3*
Y7036171D3*
Y7114911D3*
Y7193651D3*
Y7272391D3*
Y7351131D3*
Y7429871D3*
Y7508612D3*
Y7587352D3*
Y7666092D3*
Y7744832D3*
X4814961D3*
Y7666092D3*
Y7587352D3*
Y7508612D3*
Y7429871D3*
Y7351131D3*
Y7272391D3*
Y7193651D3*
Y7114911D3*
Y7036171D3*
Y6957430D3*
Y6878690D3*
Y6799950D3*
D20*
X581201Y6324950D3*
D21*
X817421D3*
D22*
X699311Y6139911D3*
D23*
X793701Y1043701D3*
X793605Y1443701D3*
D24*
X993717Y1243701D3*
X993606Y1143701D3*
D25*
X1356201Y5737451D3*
X1156201D3*
X956201D3*
X756201D3*
X3974950Y3956201D3*
X4174950D3*
X4374950D3*
X4574950D3*
X4093702Y2143701D3*
X4293702D3*
X4493702D3*
X4693702D3*
X756202Y2474950D3*
X956202D3*
X1156202D3*
X1356202D3*
X756202Y3818701D3*
X956202D3*
X1156202D3*
X1356202D3*
X756202Y5399951D3*
X956202D3*
X1156202D3*
X1356202D3*
D18*
X2324951Y6437451D3*
D19*
X2224951D3*
X2124951D3*
X2024951D3*
X1924951D3*
X1824951D3*
X1724951D3*
X1624951D3*
Y6137451D3*
X1724951D3*
X1824951D3*
X1924951D3*
X2024951D3*
X2124951D3*
X2224951D3*
X2324951D3*
D27*
X1743712Y5737461D3*
X1743713Y5399941D3*
Y5168720D3*
Y4824941D3*
X3556201Y3956210D3*
Y3368701D3*
X1749951Y3818701D3*
Y3531201D3*
X3787457Y2143701D3*
Y1912450D3*
X1706197Y2474950D3*
X1706207Y1593701D3*
D23*
X4943701Y1443701D3*
X4943797Y1043701D3*
D24*
X4743685Y1243701D3*
X4743795Y1343701D3*
M02*
