M48
INCH
T01C0.019
T02C0.032
T03C0.0354
T04C0.0394
T05C0.04
T06C0.0807
T07C0.1285
%
T01
X+047687Y+065062
X+049412Y+065710
X+041152Y+077499
X+036693Y+074299
X+020625Y+065062
X+016725Y+063968
X+020687Y+060187
X+023250Y+060005
X+023250Y+052364
X+020119Y+047589
X+021811Y+045762
X+013062Y+041437
X+011500Y+040687
X+020437Y+035562
X+018562Y+028375
X+017687Y+021062
X+013142Y+019255
X+008830Y+077092
T02
X+013562Y+057375
X+011562Y+057375
X+009562Y+057375
X+007562Y+057375
X+007562Y+054000
X+009562Y+054000
X+011562Y+054000
X+013562Y+054000
X+013562Y+038187
X+011562Y+038187
X+009562Y+038187
X+007562Y+038187
X+007562Y+024750
X+009562Y+024750
X+011562Y+024750
X+013562Y+024750
X+040937Y+021437
X+042937Y+021437
X+044937Y+021437
X+046937Y+021437
X+045750Y+039562
X+043750Y+039562
X+041750Y+039562
X+039750Y+039562
T03
X+007187Y+077500
X+007187Y+076712
X+007187Y+075925
X+007187Y+075137
X+007187Y+074350
X+007187Y+073563
X+007187Y+072775
X+007187Y+071988
X+007187Y+071200
X+007187Y+070413
X+007187Y+069625
X+007187Y+068838
X+007187Y+068051
X+007974Y+068051
X+007974Y+068838
X+007974Y+069625
X+007974Y+070413
X+007974Y+071200
X+007974Y+071988
X+007974Y+072775
X+007974Y+073563
X+007974Y+074350
X+007974Y+075137
X+007974Y+075925
X+007974Y+076712
X+007974Y+077500
X+016250Y+064375
X+017250Y+064375
X+018250Y+064375
X+019250Y+064375
X+020250Y+064375
X+021250Y+064375
X+022250Y+064375
X+023250Y+064375
X+023250Y+061375
X+022250Y+061375
X+021250Y+061375
X+020250Y+061375
X+019250Y+061375
X+018250Y+061375
X+017250Y+061375
X+016250Y+061375
X+048150Y+068000
X+048150Y+068787
X+048150Y+069574
X+048150Y+070362
X+048150Y+071149
X+048150Y+071937
X+048150Y+072724
X+048150Y+073511
X+048150Y+074299
X+048150Y+075086
X+048150Y+075874
X+048150Y+076661
X+048150Y+077448
X+048937Y+077448
X+048937Y+076661
X+048937Y+075874
X+048937Y+075086
X+048937Y+074299
X+048937Y+073511
X+048937Y+072724
X+048937Y+071937
X+048937Y+071149
X+048937Y+070362
X+048937Y+069574
X+048937Y+068787
X+048937Y+068000
T04
X+005812Y+062757G85X+005812Y+063742
X+007485Y+061399G85X+006501Y+061399
X+008174Y+062659G85X+008174Y+063840
X+009937Y+012437
X+009936Y+011437
X+047437Y+012437
X+047438Y+013437
T05
X+017437Y+057375
X+017437Y+053999
X+017437Y+051687
X+017437Y+048249
X+017500Y+038187
X+017500Y+035312
X+017062Y+024750
X+017062Y+015937
X+037875Y+019125
X+037875Y+021437
X+035562Y+033687
X+035562Y+039562
T06
X+007937Y+010437
X+007936Y+014437
X+049437Y+014437
X+049438Y+010437
T07
X+005750Y+081312
X+050875Y+081312
X+050875Y+005812
X+005750Y+005812
T00
M30
