G04 DipTrace 3.3.1.3*
G04 TopMask.gbr*
%MOIN*%
G04 #@! TF.FileFunction,Soldermask,Top*
G04 #@! TF.Part,Single*
%ADD30C,0.1285*%
%ADD38R,0.167874X0.107244*%
%ADD40O,0.055866X0.134606*%
%ADD42C,0.07874*%
%ADD44C,0.127953*%
%ADD46O,0.185039X0.086614*%
%ADD48O,0.086614X0.204724*%
%ADD50O,0.086614X0.185039*%
%ADD52C,0.066929*%
%ADD54R,0.066929X0.066929*%
%ADD56R,0.059055X0.066929*%
%FSLAX26Y26*%
G04*
G70*
G90*
G75*
G01*
G04 TopMask*
%LPD*%
D56*
X2187451Y1231201D3*
X2112648D3*
X2181104Y2931201D3*
X2106301D3*
X2181102Y4518701D3*
X2106299D3*
D54*
X718701Y7749951D3*
D52*
Y7671211D3*
Y7592471D3*
Y7513731D3*
Y7434991D3*
Y7356251D3*
Y7277510D3*
Y7198770D3*
Y7120030D3*
Y7041290D3*
Y6962550D3*
Y6883810D3*
Y6805070D3*
X797441D3*
Y6883810D3*
Y6962550D3*
Y7041290D3*
Y7120030D3*
Y7198770D3*
Y7277510D3*
Y7356251D3*
Y7434991D3*
Y7513731D3*
Y7592471D3*
Y7671211D3*
Y7749951D3*
D54*
X4893701Y6799950D3*
D52*
Y6878690D3*
Y6957430D3*
Y7036171D3*
Y7114911D3*
Y7193651D3*
Y7272391D3*
Y7351131D3*
Y7429871D3*
Y7508612D3*
Y7587352D3*
Y7666092D3*
Y7744832D3*
X4814961D3*
Y7666092D3*
Y7587352D3*
Y7508612D3*
Y7429871D3*
Y7351131D3*
Y7272391D3*
Y7193651D3*
Y7114911D3*
Y7036171D3*
Y6957430D3*
Y6878690D3*
Y6799950D3*
D50*
X581201Y6324950D3*
D48*
X817421D3*
D46*
X699311Y6139911D3*
D44*
X793701Y1043701D3*
X793605Y1443701D3*
D42*
X993717Y1243701D3*
X993606Y1143701D3*
D40*
X1356201Y5737451D3*
X1156201D3*
X956201D3*
X756201D3*
X3974950Y3956201D3*
X4174950D3*
X4374950D3*
X4574950D3*
X4093702Y2143701D3*
X4293702D3*
X4493702D3*
X4693702D3*
X756202Y2474950D3*
X956202D3*
X1156202D3*
X1356202D3*
X756202Y3818701D3*
X956202D3*
X1156202D3*
X1356202D3*
X756202Y5399951D3*
X956202D3*
X1156202D3*
X1356202D3*
D54*
X2324951Y6437451D3*
D52*
X2224951D3*
X2124951D3*
X2024951D3*
X1924951D3*
X1824951D3*
X1724951D3*
X1624951D3*
Y6137451D3*
X1724951D3*
X1824951D3*
X1924951D3*
X2024951D3*
X2124951D3*
X2224951D3*
X2324951D3*
D56*
X1937453Y1231201D3*
X2012256D3*
X1931202Y2931201D3*
X2006005D3*
X1924951Y4518701D3*
X1999755D3*
D38*
X1743712Y5737461D3*
X1743713Y5399941D3*
Y5168720D3*
Y4824941D3*
X3556201Y3956210D3*
Y3368701D3*
X1749951Y3818701D3*
Y3531201D3*
X3787457Y2143701D3*
Y1912450D3*
X1706197Y2474950D3*
X1706207Y1593701D3*
D44*
X4943701Y1443701D3*
X4943797Y1043701D3*
D42*
X4743685Y1243701D3*
X4743795Y1343701D3*
D30*
X574950Y8131201D3*
X5087451D3*
X574950Y581201D3*
X5087451D3*
D54*
X3593701Y6393701D3*
X3693701D3*
X3793701D3*
X3893701D3*
X3993701D3*
X4093701D3*
X4193701D3*
X4293701D3*
X4393701D3*
X4493701D3*
X4593701D3*
X4693701D3*
X3593701Y6293701D3*
X3693701D3*
X3793701D3*
X3893701D3*
X3993701D3*
X4093701D3*
X3593701Y6193701D3*
X3693701D3*
X3793701D3*
X3893701D3*
X3993701D3*
X4093701D3*
X3593701Y6093701D3*
X3693701D3*
X3793701D3*
X3893701D3*
X3993701D3*
X4093701D3*
X4193701Y6293701D3*
X4293701D3*
X4393701D3*
X4493701D3*
X4593701D3*
X4693701D3*
X4193701Y6193701D3*
X4293701D3*
X4393701D3*
X4493701D3*
X4593701D3*
X4693701D3*
X4193701Y6093701D3*
X4293701D3*
X4393701D3*
X4493701D3*
X4593701D3*
X4693701D3*
X3593701Y5993701D3*
X3693701D3*
X3793701D3*
X3893701D3*
X3993701D3*
X4093701D3*
X4193701D3*
X4293701D3*
X4393701D3*
X4493701D3*
X4593701D3*
X4693701D3*
X3593701Y5893701D3*
X3693701D3*
X3793701D3*
X3893701D3*
X3993701D3*
X4093701D3*
X3593701Y5793701D3*
X3693701D3*
X3793701D3*
X3893701D3*
X3993701D3*
X4093701D3*
X3593701Y5693701D3*
X3693701D3*
X3793701D3*
X3893701D3*
X3993701D3*
X4093701D3*
X4193701Y5893701D3*
X4293701D3*
X4393701D3*
X4493701D3*
X4593701D3*
X4693701D3*
X4193701Y5793701D3*
X4293701D3*
X4393701D3*
X4493701D3*
X4593701D3*
X4693701D3*
X4193701Y5693701D3*
X4293701D3*
X4393701D3*
X4493701D3*
X4593701D3*
X4693701D3*
X3593701Y5593701D3*
X3693701D3*
X3793701D3*
X3893701D3*
X3993701D3*
X4093701D3*
X4193701D3*
X4293701D3*
X4393701D3*
X4493701D3*
X4593701D3*
X4693701D3*
X3593701Y5493701D3*
X3693701D3*
X3793701D3*
X3893701D3*
X3993701D3*
X4093701D3*
X3593701Y5393701D3*
X3693701D3*
X3793701D3*
X3893701D3*
X3993701D3*
X4093701D3*
X3593701Y5293701D3*
X3693701D3*
X3793701D3*
X3893701D3*
X3993701D3*
X4093701D3*
X4193701Y5493701D3*
X4293701D3*
X4393701D3*
X4493701D3*
X4593701D3*
X4693701D3*
X4193701Y5393701D3*
X4293701D3*
X4393701D3*
X4493701D3*
X4593701D3*
X4693701D3*
X4193701Y5293701D3*
X4293701D3*
X4393701D3*
X4493701D3*
X4593701D3*
X4693701D3*
X3593701Y5193701D3*
X3693701D3*
X3793701D3*
X3893701D3*
X3993701D3*
X4093701D3*
X4193701D3*
X4293701D3*
X4393701D3*
X4493701D3*
X4593701D3*
X4693701D3*
X3593701Y5093701D3*
X3693701D3*
X3793701D3*
X3893701D3*
X3993701D3*
X4093701D3*
X3593701Y4993701D3*
X3693701D3*
X3793701D3*
X3893701D3*
X3993701D3*
X4093701D3*
X3593701Y4893701D3*
X3693701D3*
X3793701D3*
X3893701D3*
X3993701D3*
X4093701D3*
X4193701Y5093701D3*
X4293701D3*
X4393701D3*
X4493701D3*
X4593701D3*
X4693701D3*
X4193701Y4993701D3*
X4293701D3*
X4393701D3*
X4493701D3*
X4593701D3*
X4693701D3*
X4193701Y4893701D3*
X4293701D3*
X4393701D3*
X4493701D3*
X4593701D3*
X4693701D3*
X3593701Y4793701D3*
X3693701D3*
X3793701D3*
X3893701D3*
X3993701D3*
X4093701D3*
X4193701D3*
X4293701D3*
X4393701D3*
X4493701D3*
X4593701D3*
X4693701D3*
X3593701Y4693701D3*
X3693701D3*
X3793701D3*
X3893701D3*
X3993701D3*
X4093701D3*
X3593701Y4593701D3*
X3693701D3*
X3793701D3*
X3893701D3*
X3993701D3*
X4093701D3*
X3593701Y4493701D3*
X3693701D3*
X3793701D3*
X3893701D3*
X3993701D3*
X4093701D3*
X4193701Y4693701D3*
X4293701D3*
X4393701D3*
X4493701D3*
X4593701D3*
X4693701D3*
X4193701Y4593701D3*
X4293701D3*
X4393701D3*
X4493701D3*
X4593701D3*
X4693701D3*
X4193701Y4493701D3*
X4293701D3*
X4393701D3*
X4493701D3*
X4593701D3*
X4693701D3*
X4793701Y6393701D3*
X4893701D3*
X4993701D3*
X4793701Y6293701D3*
X4893701D3*
X4993701D3*
X4793701Y6193701D3*
X4893701D3*
X4993701D3*
X4793701Y6093701D3*
X4893701D3*
X4993701D3*
X4793701Y5993701D3*
X4893701D3*
X4993701D3*
X4793701Y5893701D3*
X4893701D3*
X4993701D3*
X4793701Y5793701D3*
X4893701D3*
X4993701D3*
X4793701Y5693701D3*
X4893701D3*
X4993701D3*
X4793701Y5593701D3*
X4893701D3*
X4993701D3*
X4793701Y5493701D3*
X4893701D3*
X4993701D3*
X4793701Y5393701D3*
X4893701D3*
X4993701D3*
X4793701Y5293701D3*
X4893701D3*
X4993701D3*
X4793701Y5193701D3*
X4893701D3*
X4993701D3*
X4793701Y5093701D3*
X4893701D3*
X4993701D3*
X4793701Y4993701D3*
X4893701D3*
X4993701D3*
X4793701Y4893701D3*
X4893701D3*
X4993701D3*
X4793701Y4793701D3*
X4893701D3*
X4993701D3*
X4793701Y4693701D3*
X4893701D3*
X4993701D3*
X4793701Y4593701D3*
X4893701D3*
X4993701D3*
X4793701Y4493701D3*
X4893701D3*
X4993701D3*
X3593701Y4393701D3*
X3693701D3*
X3793701D3*
X3893701D3*
X3993701D3*
X4093701D3*
X3593701Y4293701D3*
X3693701D3*
X3793701D3*
X3893701D3*
X3993701D3*
X4093701D3*
X3593701Y4193701D3*
X3693701D3*
X3793701D3*
X3893701D3*
X3993701D3*
X4093701D3*
X4193701Y4393701D3*
X4293701D3*
X4393701D3*
X4493701D3*
X4593701D3*
X4693701D3*
X4193701Y4293701D3*
X4293701D3*
X4393701D3*
X4493701D3*
X4593701D3*
X4693701D3*
X4193701Y4193701D3*
X4293701D3*
X4393701D3*
X4493701D3*
X4593701D3*
X4693701D3*
X4793701Y4393701D3*
X4893701D3*
X4993701D3*
X4793701Y4293701D3*
X4893701D3*
X4993701D3*
X4793701Y4193701D3*
X4893701D3*
X4993701D3*
M02*
