G04 DipTrace 3.3.1.3*
G04 TopPaste.gbr*
%MOIN*%
G04 #@! TF.FileFunction,Paste,Top*
G04 #@! TF.Part,Single*
%ADD55R,0.051181X0.051181*%
%ADD57R,0.043307X0.051181*%
%FSLAX26Y26*%
G04*
G70*
G90*
G75*
G01*
G04 TopPaste*
%LPD*%
D57*
X2187451Y1231201D3*
X2112648D3*
X2181104Y2931201D3*
X2106301D3*
X2181102Y4518701D3*
X2106299D3*
X1937453Y1231201D3*
X2012256D3*
X1931202Y2931201D3*
X2006005D3*
X1924951Y4518701D3*
X1999755D3*
D55*
X3593701Y6393701D3*
X3693701D3*
X3793701D3*
X3893701D3*
X3993701D3*
X4093701D3*
X4193701D3*
X4293701D3*
X4393701D3*
X4493701D3*
X4593701D3*
X4693701D3*
X3593701Y6293701D3*
X3693701D3*
X3793701D3*
X3893701D3*
X3993701D3*
X4093701D3*
X3593701Y6193701D3*
X3693701D3*
X3793701D3*
X3893701D3*
X3993701D3*
X4093701D3*
X3593701Y6093701D3*
X3693701D3*
X3793701D3*
X3893701D3*
X3993701D3*
X4093701D3*
X4193701Y6293701D3*
X4293701D3*
X4393701D3*
X4493701D3*
X4593701D3*
X4693701D3*
X4193701Y6193701D3*
X4293701D3*
X4393701D3*
X4493701D3*
X4593701D3*
X4693701D3*
X4193701Y6093701D3*
X4293701D3*
X4393701D3*
X4493701D3*
X4593701D3*
X4693701D3*
X3593701Y5993701D3*
X3693701D3*
X3793701D3*
X3893701D3*
X3993701D3*
X4093701D3*
X4193701D3*
X4293701D3*
X4393701D3*
X4493701D3*
X4593701D3*
X4693701D3*
X3593701Y5893701D3*
X3693701D3*
X3793701D3*
X3893701D3*
X3993701D3*
X4093701D3*
X3593701Y5793701D3*
X3693701D3*
X3793701D3*
X3893701D3*
X3993701D3*
X4093701D3*
X3593701Y5693701D3*
X3693701D3*
X3793701D3*
X3893701D3*
X3993701D3*
X4093701D3*
X4193701Y5893701D3*
X4293701D3*
X4393701D3*
X4493701D3*
X4593701D3*
X4693701D3*
X4193701Y5793701D3*
X4293701D3*
X4393701D3*
X4493701D3*
X4593701D3*
X4693701D3*
X4193701Y5693701D3*
X4293701D3*
X4393701D3*
X4493701D3*
X4593701D3*
X4693701D3*
X3593701Y5593701D3*
X3693701D3*
X3793701D3*
X3893701D3*
X3993701D3*
X4093701D3*
X4193701D3*
X4293701D3*
X4393701D3*
X4493701D3*
X4593701D3*
X4693701D3*
X3593701Y5493701D3*
X3693701D3*
X3793701D3*
X3893701D3*
X3993701D3*
X4093701D3*
X3593701Y5393701D3*
X3693701D3*
X3793701D3*
X3893701D3*
X3993701D3*
X4093701D3*
X3593701Y5293701D3*
X3693701D3*
X3793701D3*
X3893701D3*
X3993701D3*
X4093701D3*
X4193701Y5493701D3*
X4293701D3*
X4393701D3*
X4493701D3*
X4593701D3*
X4693701D3*
X4193701Y5393701D3*
X4293701D3*
X4393701D3*
X4493701D3*
X4593701D3*
X4693701D3*
X4193701Y5293701D3*
X4293701D3*
X4393701D3*
X4493701D3*
X4593701D3*
X4693701D3*
X3593701Y5193701D3*
X3693701D3*
X3793701D3*
X3893701D3*
X3993701D3*
X4093701D3*
X4193701D3*
X4293701D3*
X4393701D3*
X4493701D3*
X4593701D3*
X4693701D3*
X3593701Y5093701D3*
X3693701D3*
X3793701D3*
X3893701D3*
X3993701D3*
X4093701D3*
X3593701Y4993701D3*
X3693701D3*
X3793701D3*
X3893701D3*
X3993701D3*
X4093701D3*
X3593701Y4893701D3*
X3693701D3*
X3793701D3*
X3893701D3*
X3993701D3*
X4093701D3*
X4193701Y5093701D3*
X4293701D3*
X4393701D3*
X4493701D3*
X4593701D3*
X4693701D3*
X4193701Y4993701D3*
X4293701D3*
X4393701D3*
X4493701D3*
X4593701D3*
X4693701D3*
X4193701Y4893701D3*
X4293701D3*
X4393701D3*
X4493701D3*
X4593701D3*
X4693701D3*
X3593701Y4793701D3*
X3693701D3*
X3793701D3*
X3893701D3*
X3993701D3*
X4093701D3*
X4193701D3*
X4293701D3*
X4393701D3*
X4493701D3*
X4593701D3*
X4693701D3*
X3593701Y4693701D3*
X3693701D3*
X3793701D3*
X3893701D3*
X3993701D3*
X4093701D3*
X3593701Y4593701D3*
X3693701D3*
X3793701D3*
X3893701D3*
X3993701D3*
X4093701D3*
X3593701Y4493701D3*
X3693701D3*
X3793701D3*
X3893701D3*
X3993701D3*
X4093701D3*
X4193701Y4693701D3*
X4293701D3*
X4393701D3*
X4493701D3*
X4593701D3*
X4693701D3*
X4193701Y4593701D3*
X4293701D3*
X4393701D3*
X4493701D3*
X4593701D3*
X4693701D3*
X4193701Y4493701D3*
X4293701D3*
X4393701D3*
X4493701D3*
X4593701D3*
X4693701D3*
X4793701Y6393701D3*
X4893701D3*
X4993701D3*
X4793701Y6293701D3*
X4893701D3*
X4993701D3*
X4793701Y6193701D3*
X4893701D3*
X4993701D3*
X4793701Y6093701D3*
X4893701D3*
X4993701D3*
X4793701Y5993701D3*
X4893701D3*
X4993701D3*
X4793701Y5893701D3*
X4893701D3*
X4993701D3*
X4793701Y5793701D3*
X4893701D3*
X4993701D3*
X4793701Y5693701D3*
X4893701D3*
X4993701D3*
X4793701Y5593701D3*
X4893701D3*
X4993701D3*
X4793701Y5493701D3*
X4893701D3*
X4993701D3*
X4793701Y5393701D3*
X4893701D3*
X4993701D3*
X4793701Y5293701D3*
X4893701D3*
X4993701D3*
X4793701Y5193701D3*
X4893701D3*
X4993701D3*
X4793701Y5093701D3*
X4893701D3*
X4993701D3*
X4793701Y4993701D3*
X4893701D3*
X4993701D3*
X4793701Y4893701D3*
X4893701D3*
X4993701D3*
X4793701Y4793701D3*
X4893701D3*
X4993701D3*
X4793701Y4693701D3*
X4893701D3*
X4993701D3*
X4793701Y4593701D3*
X4893701D3*
X4993701D3*
X4793701Y4493701D3*
X4893701D3*
X4993701D3*
X3593701Y4393701D3*
X3693701D3*
X3793701D3*
X3893701D3*
X3993701D3*
X4093701D3*
X3593701Y4293701D3*
X3693701D3*
X3793701D3*
X3893701D3*
X3993701D3*
X4093701D3*
X3593701Y4193701D3*
X3693701D3*
X3793701D3*
X3893701D3*
X3993701D3*
X4093701D3*
X4193701Y4393701D3*
X4293701D3*
X4393701D3*
X4493701D3*
X4593701D3*
X4693701D3*
X4193701Y4293701D3*
X4293701D3*
X4393701D3*
X4493701D3*
X4593701D3*
X4693701D3*
X4193701Y4193701D3*
X4293701D3*
X4393701D3*
X4493701D3*
X4593701D3*
X4693701D3*
X4793701Y4393701D3*
X4893701D3*
X4993701D3*
X4793701Y4293701D3*
X4893701D3*
X4993701D3*
X4793701Y4193701D3*
X4893701D3*
X4993701D3*
M02*
